<svg width="17" height="17" viewBox="0 0 17 17" fill="none" xmlns="http://www.w3.org/2000/svg">
<path d="M15.052 8.50004C15.052 8.63462 15.0024 8.76921 14.8961 8.87546L10.5965 13.175C10.3911 13.3805 10.0511 13.3805 9.84571 13.175C9.6403 12.9696 9.6403 12.6296 9.84571 12.4242L13.7699 8.50004L9.84571 4.57587C9.6403 4.37046 9.6403 4.03046 9.84571 3.82504C10.0511 3.61962 10.3911 3.61962 10.5965 3.82504L14.8961 8.12462C15.0024 8.23087 15.052 8.36546 15.052 8.50004Z" fill="white"/>
<path d="M14.9317 8.5C14.9317 8.79042 14.6909 9.03125 14.4005 9.03125H2.47925C2.18883 9.03125 1.948 8.79042 1.948 8.5C1.948 8.20958 2.18883 7.96875 2.47925 7.96875L14.4005 7.96875C14.6909 7.96875 14.9317 8.20958 14.9317 8.5Z" fill="white"/>
</svg>
