<svg width="35" height="35" viewBox="0 0 35 35" fill="none" xmlns="http://www.w3.org/2000/svg">
<circle cx="17.5" cy="17.5" r="16" fill="black" stroke="#1B202A" stroke-width="3"/>
<path d="M21.2115 24.1144H13.7882C11.8049 24.1144 10.544 22.9315 10.4307 20.9553L10.0624 15.1115C10.0057 14.2261 10.3103 13.3761 10.9194 12.7315C11.5215 12.0869 12.3715 11.7186 13.2499 11.7186C13.4765 11.7186 13.6961 11.584 13.8024 11.3715L14.3124 10.3586C14.7303 9.52984 15.7786 8.88525 16.6924 8.88525H18.3144C19.2282 8.88525 20.2694 9.52984 20.6874 10.3515L21.1974 11.3857C21.3036 11.584 21.5161 11.7186 21.7499 11.7186C22.6282 11.7186 23.4782 12.0869 24.0803 12.7315C24.6894 13.3832 24.994 14.2261 24.9374 15.1115L24.569 20.9623C24.4415 22.9669 23.2161 24.1144 21.2115 24.1144ZM16.6924 9.94775C16.1682 9.94775 15.5024 10.3586 15.2615 10.8332L14.7515 11.8532C14.454 12.4269 13.8803 12.7811 13.2499 12.7811C12.6549 12.7811 12.1024 13.0219 11.6915 13.454C11.2878 13.8861 11.0824 14.4528 11.1249 15.0407L11.4932 20.8915C11.5782 22.3223 12.3503 23.0519 13.7882 23.0519H21.2115C22.6424 23.0519 23.4144 22.3223 23.5065 20.8915L23.8749 15.0407C23.9103 14.4528 23.7119 13.8861 23.3082 13.454C22.8974 13.0219 22.3449 12.7811 21.7499 12.7811C21.1194 12.7811 20.5457 12.4269 20.2482 11.8673L19.7311 10.8332C19.4974 10.3657 18.8315 9.95484 18.3074 9.95484H16.6924V9.94775Z" fill="white"/>
<path d="M18.5625 14.1978H16.4375C16.1471 14.1978 15.9062 13.9569 15.9062 13.6665C15.9062 13.3761 16.1471 13.1353 16.4375 13.1353H18.5625C18.8529 13.1353 19.0937 13.3761 19.0937 13.6665C19.0937 13.9569 18.8529 14.1978 18.5625 14.1978Z" fill="white"/>
<path d="M17.5003 21.2814C15.9349 21.2814 14.667 20.0135 14.667 18.4481C14.667 16.8827 15.9349 15.6147 17.5003 15.6147C19.0657 15.6147 20.3337 16.8827 20.3337 18.4481C20.3337 20.0135 19.0657 21.2814 17.5003 21.2814ZM17.5003 16.6772C16.5228 16.6772 15.7295 17.4706 15.7295 18.4481C15.7295 19.4256 16.5228 20.2189 17.5003 20.2189C18.4778 20.2189 19.2712 19.4256 19.2712 18.4481C19.2712 17.4706 18.4778 16.6772 17.5003 16.6772Z" fill="white"/>
</svg>
