<svg width="40" height="40" viewBox="0 0 40 40" fill="none" xmlns="http://www.w3.org/2000/svg">
<circle cx="20" cy="20" r="20" fill="#26272A"/>
<path d="M27.965 16.521C27.988 16.347 28 16.173 28 16C28 13.621 25.857 11.712 23.479 12.035C22.786 10.802 21.466 10 20 10C18.534 10 17.214 10.802 16.521 12.035C14.138 11.712 12 13.621 12 16C12 16.173 12.012 16.347 12.035 16.521C10.802 17.215 10 18.535 10 20C10 21.465 10.802 22.785 12.035 23.479C12.0119 23.6517 12.0002 23.8258 12 24C12 26.379 14.138 28.283 16.521 27.965C17.214 29.198 18.534 30 20 30C21.466 30 22.786 29.198 23.479 27.965C25.857 28.283 28 26.379 28 24C28 23.827 27.988 23.653 27.965 23.479C29.198 22.785 30 21.465 30 20C30 18.535 29.198 17.215 27.965 16.521ZM18.955 24.416L15.288 20.702L16.712 19.298L18.969 21.584L23.296 17.29L24.704 18.71L18.955 24.416Z" fill="#939395"/>
</svg>
