<svg width="22" height="23" viewBox="0 0 22 23" fill="none" xmlns="http://www.w3.org/2000/svg">
<path d="M13.7497 21.3537H8.24967C3.27217 21.3537 1.14551 19.2271 1.14551 14.2496V8.74955C1.14551 3.77205 3.27217 1.64539 8.24967 1.64539H10.083C10.4588 1.64539 10.7705 1.95705 10.7705 2.33289C10.7705 2.70872 10.4588 3.02039 10.083 3.02039H8.24967C4.02384 3.02039 2.52051 4.52372 2.52051 8.74955V14.2496C2.52051 18.4754 4.02384 19.9787 8.24967 19.9787H13.7497C17.9755 19.9787 19.4788 18.4754 19.4788 14.2496V12.4162C19.4788 12.0404 19.7905 11.7287 20.1663 11.7287C20.5422 11.7287 20.8538 12.0404 20.8538 12.4162V14.2496C20.8538 19.2271 18.7272 21.3537 13.7497 21.3537Z" fill="white" fill-opacity="0.5"/>
<path d="M7.79172 16.7154C7.23255 16.7154 6.71922 16.5137 6.34339 16.1471C5.89422 15.6979 5.70172 15.0471 5.80255 14.3596L6.19672 11.6004C6.27005 11.0687 6.61839 10.3812 6.99422 10.0054L14.2176 2.78207C16.0417 0.957899 17.8934 0.957899 19.7176 2.78207C20.7167 3.78123 21.1659 4.79873 21.0742 5.81623C20.9917 6.64123 20.5517 7.4479 19.7176 8.2729L12.4942 15.4962C12.1184 15.8721 11.4309 16.2204 10.8992 16.2937L8.14005 16.6879C8.02089 16.7154 7.90172 16.7154 7.79172 16.7154ZM15.1892 3.75373L7.96589 10.9771C7.79172 11.1512 7.59005 11.5546 7.55339 11.7929L7.15922 14.5521C7.12255 14.8179 7.17755 15.0379 7.31505 15.1754C7.45255 15.3129 7.67255 15.3679 7.93839 15.3312L10.6976 14.9371C10.9359 14.9004 11.3484 14.6987 11.5134 14.5246L18.7367 7.30123C19.3326 6.7054 19.6442 6.17373 19.6901 5.67873C19.7451 5.0829 19.4334 4.4504 18.7367 3.74457C17.2701 2.2779 16.2617 2.6904 15.1892 3.75373Z" fill="white" fill-opacity="0.5"/>
<path d="M18.1959 9.51039C18.1318 9.51039 18.0676 9.50122 18.0126 9.48289C15.6018 8.80456 13.6859 6.88872 13.0076 4.47789C12.9068 4.11122 13.1176 3.73539 13.4843 3.62539C13.8509 3.52456 14.2268 3.73539 14.3276 4.10206C14.8776 6.05456 16.4268 7.60372 18.3793 8.15372C18.7459 8.25456 18.9568 8.63956 18.8559 9.00622C18.7734 9.31789 18.4984 9.51039 18.1959 9.51039Z" fill="white" fill-opacity="0.5"/>
</svg>
