<svg width="240" height="240" viewBox="0 0 240 240" fill="none" xmlns="http://www.w3.org/2000/svg">
<rect width="240" height="240" rx="120" fill="#EC0000"/>
<rect x="71" y="47" width="98" height="113" rx="49" fill="white"/>
<ellipse cx="54" cy="136" rx="32" ry="25" fill="white"/>
<ellipse cx="186" cy="136" rx="32" ry="25" fill="white"/>
<path d="M26 125.5C26 116.94 32.9396 110 41.5 110H71V119.684C71 131.457 61.4566 141 49.6842 141H41.5C32.9396 141 26 134.06 26 125.5Z" fill="#EC0000"/>
<path d="M169 110H198.5C207.06 110 214 116.94 214 125.5C214 134.06 207.06 141 198.5 141H190.316C178.543 141 169 131.457 169 119.684V110Z" fill="#EC0000"/>
<rect x="19" y="123" width="33" height="41" fill="#EC0000"/>
<rect x="189" y="120" width="39" height="44" fill="#EC0000"/>
<rect x="71" y="102" width="98" height="58" fill="#EC0000"/>
<path d="M71 102C71 95.9249 75.9249 91 82 91V91C88.0751 91 93 95.9249 93 102V120H71V102Z" fill="white"/>
<path d="M147 102C147 95.9249 151.925 91 158 91V91C164.075 91 169 95.9249 169 102V120H147V102Z" fill="white"/>
<path d="M93 120C89.8 156 64.3333 162.333 52 161L85 120H93Z" fill="white"/>
<path d="M147 120C150.2 156 175.667 162.333 188 161L155 120H147Z" fill="white"/>
<rect x="93" y="69" width="54" height="92" rx="27" fill="#EC0000"/>
<path d="M71 137.5V120H85L71 137.5Z" fill="white"/>
<path d="M169 137.5V120H155L169 137.5Z" fill="white"/>
<path d="M143 159.5C143 165.733 140.524 171.71 136.117 176.117C131.71 180.524 125.733 183 119.5 183C113.267 183 107.29 180.524 102.883 176.117C98.4759 171.71 96 165.733 96 159.5L119.5 159.5H143Z" fill="white"/>
</svg>
