<svg width="200" height="200" viewBox="0 0 200 200" fill="none" xmlns="http://www.w3.org/2000/svg">
<rect width="200" height="200" rx="100" fill="#0056FF"/>
<mask id="path-2-inside-1_162_16" fill="white">
<path d="M120.394 134.651C120.394 139.783 118.37 144.704 114.767 148.333C111.164 151.962 106.278 154 101.182 154C96.0871 154 91.2006 151.962 87.5977 148.333C83.9948 144.704 81.9707 139.783 81.9707 134.651L101.182 134.651H120.394Z"/>
</mask>
<path d="M120.394 134.651C120.394 139.783 118.37 144.704 114.767 148.333C111.164 151.962 106.278 154 101.182 154C96.0871 154 91.2006 151.962 87.5977 148.333C83.9948 144.704 81.9707 139.783 81.9707 134.651L101.182 134.651H120.394Z" fill="white" stroke="white" stroke-width="8" mask="url(#path-2-inside-1_162_16)"/>
<path d="M61.5328 102.952C60.3066 114.891 51.0414 118.459 46 119.419V135.886C70.5255 137.533 79.2457 114.205 79.5182 102.952V80.7216C81.562 64.6662 94.2336 60.275 100.774 60.1377C118.105 61.1258 123.255 74.272 123.664 80.7216V102.952C126.934 132.593 147.917 137.258 158 135.886V119.419C145.901 118.102 142.058 107.892 141.65 102.952V80.7216C139.197 49.4341 113.445 41.4995 100.774 42.024C70.9343 43.259 61.5328 68.7829 61.5328 80.7216V102.952Z" fill="white" stroke="white" stroke-width="4"/>
</svg>
