<svg width="500" height="500" viewBox="0 0 500 500" fill="none" xmlns="http://www.w3.org/2000/svg">
<rect width="500" height="500" rx="250" fill="white"/>
<path d="M295.985 341.628C295.985 354.457 290.925 366.761 281.918 375.832C272.911 384.904 260.694 390 247.956 390C235.218 390 223.002 384.904 213.994 375.832C204.987 366.761 199.927 354.457 199.927 341.628L247.956 341.628H295.985Z" fill="#0C0F2B"/>
<path d="M148.832 262.38C145.766 292.227 122.603 301.146 110 303.548V344.716C171.314 348.832 193.114 290.512 193.796 262.38V206.804C198.905 166.665 230.584 155.687 246.934 155.344C290.263 157.814 303.139 190.68 304.161 206.804V262.38C312.336 336.482 364.793 348.146 390 344.716V303.548C359.752 300.255 350.146 274.731 349.124 262.38V206.804C342.993 128.585 278.613 108.749 246.934 110.06C172.336 113.147 148.832 176.957 148.832 206.804V262.38Z" fill="#0C0F2B"/>
</svg>
