<svg width="55" height="55" viewBox="0 0 55 55" fill="none" xmlns="http://www.w3.org/2000/svg">
<circle cx="27.5" cy="27.5" r="27.5" fill="black" fill-opacity="0.4"/>
<path d="M27.5 39.5938C20.8288 39.5938 15.4062 34.1712 15.4062 27.5C15.4062 20.8288 20.8288 15.4062 27.5 15.4062C34.1712 15.4062 39.5938 20.8288 39.5938 27.5C39.5938 34.1712 34.1712 39.5938 27.5 39.5938ZM27.5 17.0938C21.7625 17.0938 17.0938 21.7625 17.0938 27.5C17.0938 33.2375 21.7625 37.9062 27.5 37.9062C33.2375 37.9062 37.9062 33.2375 37.9062 27.5C37.9062 21.7625 33.2375 17.0938 27.5 17.0938Z" fill="white"/>
<path d="M31.674 31.9212C31.5277 31.9212 31.3815 31.8875 31.2465 31.7975L27.759 29.7162C26.8927 29.1987 26.2515 28.0625 26.2515 27.0612V22.4487C26.2515 21.9875 26.634 21.605 27.0952 21.605C27.5565 21.605 27.939 21.9875 27.939 22.4487V27.0612C27.939 27.4662 28.2765 28.0625 28.6252 28.265L32.1127 30.3462C32.5177 30.5825 32.6415 31.1 32.4052 31.505C32.2365 31.775 31.9552 31.9212 31.674 31.9212Z" fill="white"/>
</svg>
