<svg width="45" height="45" viewBox="0 0 45 45" fill="none" xmlns="http://www.w3.org/2000/svg">
<rect width="45" height="45" rx="8" fill="white"/>
<path d="M28.62 21.7501C28.19 21.7501 27.85 21.4001 27.85 20.9801C27.85 20.6101 27.48 19.8401 26.86 19.1701C26.25 18.5201 25.58 18.1401 25.02 18.1401C24.59 18.1401 24.25 17.7901 24.25 17.3701C24.25 16.9501 24.6 16.6001 25.02 16.6001C26.02 16.6001 27.07 17.1401 27.99 18.1101C28.85 19.0201 29.4 20.1501 29.4 20.9701C29.4 21.4001 29.05 21.7501 28.62 21.7501Z" fill="#1C2A45"/>
<path d="M32.23 21.75C31.8 21.75 31.46 21.4 31.46 20.98C31.46 17.43 28.57 14.55 25.03 14.55C24.6 14.55 24.26 14.2 24.26 13.78C24.26 13.36 24.6 13 25.02 13C29.42 13 33 16.58 33 20.98C33 21.4 32.65 21.75 32.23 21.75Z" fill="#1C2A45"/>
<path d="M22.05 25.95L20.2 27.8C19.81 28.19 19.19 28.19 18.79 27.81C18.68 27.7 18.57 27.6 18.46 27.49C17.43 26.45 16.5 25.36 15.67 24.22C14.85 23.08 14.19 21.94 13.71 20.81C13.24 19.67 13 18.58 13 17.54C13 16.86 13.12 16.21 13.36 15.61C13.6 15 13.98 14.44 14.51 13.94C15.15 13.31 15.85 13 16.59 13C16.87 13 17.15 13.06 17.4 13.18C17.66 13.3 17.89 13.48 18.07 13.74L20.39 17.01C20.57 17.26 20.7 17.49 20.79 17.71C20.88 17.92 20.93 18.13 20.93 18.32C20.93 18.56 20.86 18.8 20.72 19.03C20.59 19.26 20.4 19.5 20.16 19.74L19.4 20.53C19.29 20.64 19.24 20.77 19.24 20.93C19.24 21.01 19.25 21.08 19.27 21.16C19.3 21.24 19.33 21.3 19.35 21.36C19.53 21.69 19.84 22.12 20.28 22.64C20.73 23.16 21.21 23.69 21.73 24.22C21.83 24.32 21.94 24.42 22.04 24.52C22.44 24.91 22.45 25.55 22.05 25.95Z" fill="#1C2A45"/>
<path d="M32.9701 29.33C32.9701 29.61 32.9201 29.9 32.8201 30.18C32.7901 30.26 32.7601 30.34 32.7201 30.42C32.5501 30.78 32.3301 31.12 32.0401 31.44C31.5501 31.98 31.0101 32.37 30.4001 32.62C30.3901 32.62 30.3801 32.63 30.3701 32.63C29.7801 32.87 29.1401 33 28.4501 33C27.4301 33 26.3401 32.76 25.1901 32.27C24.0401 31.78 22.8901 31.12 21.7501 30.29C21.3601 30 20.9701 29.71 20.6001 29.4L23.8701 26.13C24.1501 26.34 24.4001 26.5 24.6101 26.61C24.6601 26.63 24.7201 26.66 24.7901 26.69C24.8701 26.72 24.9501 26.73 25.0401 26.73C25.2101 26.73 25.3401 26.67 25.4501 26.56L26.2101 25.81C26.4601 25.56 26.7001 25.37 26.9301 25.25C27.1601 25.11 27.3901 25.04 27.6401 25.04C27.8301 25.04 28.0301 25.08 28.2501 25.17C28.4701 25.26 28.7001 25.39 28.9501 25.56L32.2601 27.91C32.5201 28.09 32.7001 28.3 32.8101 28.55C32.9101 28.8 32.9701 29.05 32.9701 29.33Z" fill="#1C2A45"/>
</svg>
