<svg width="45" height="45" viewBox="0 0 45 45" fill="none" xmlns="http://www.w3.org/2000/svg">
<rect width="45" height="45" rx="8" fill="#42454E"/>
<path d="M28.62 21.7501C28.19 21.7501 27.85 21.4001 27.85 20.9801C27.85 20.6101 27.48 19.8401 26.86 19.1701C26.25 18.5201 25.58 18.1401 25.02 18.1401C24.59 18.1401 24.25 17.7901 24.25 17.3701C24.25 16.9501 24.6 16.6001 25.02 16.6001C26.02 16.6001 27.07 17.1401 27.99 18.1101C28.85 19.0201 29.4 20.1501 29.4 20.9701C29.4 21.4001 29.05 21.7501 28.62 21.7501Z" fill="white"/>
<path d="M32.2298 21.75C31.7998 21.75 31.4598 21.4 31.4598 20.98C31.4598 17.43 28.5698 14.55 25.0298 14.55C24.5998 14.55 24.2598 14.2 24.2598 13.78C24.2598 13.36 24.5998 13 25.0198 13C29.4198 13 32.9998 16.58 32.9998 20.98C32.9998 21.4 32.6498 21.75 32.2298 21.75Z" fill="white"/>
<path d="M22.05 25.95L20.2 27.8C19.81 28.19 19.19 28.19 18.79 27.81C18.68 27.7 18.57 27.6 18.46 27.49C17.43 26.45 16.5 25.36 15.67 24.22C14.85 23.08 14.19 21.94 13.71 20.81C13.24 19.67 13 18.58 13 17.54C13 16.86 13.12 16.21 13.36 15.61C13.6 15 13.98 14.44 14.51 13.94C15.15 13.31 15.85 13 16.59 13C16.87 13 17.15 13.06 17.4 13.18C17.66 13.3 17.89 13.48 18.07 13.74L20.39 17.01C20.57 17.26 20.7 17.49 20.79 17.71C20.88 17.92 20.93 18.13 20.93 18.32C20.93 18.56 20.86 18.8 20.72 19.03C20.59 19.26 20.4 19.5 20.16 19.74L19.4 20.53C19.29 20.64 19.24 20.77 19.24 20.93C19.24 21.01 19.25 21.08 19.27 21.16C19.3 21.24 19.33 21.3 19.35 21.36C19.53 21.69 19.84 22.12 20.28 22.64C20.73 23.16 21.21 23.69 21.73 24.22C21.83 24.32 21.94 24.42 22.04 24.52C22.44 24.91 22.45 25.55 22.05 25.95Z" fill="white"/>
<path d="M32.9696 29.33C32.9696 29.61 32.9196 29.9 32.8196 30.18C32.7896 30.26 32.7596 30.34 32.7196 30.42C32.5496 30.78 32.3296 31.12 32.0396 31.44C31.5496 31.98 31.0096 32.37 30.3996 32.62C30.3896 32.62 30.3796 32.63 30.3696 32.63C29.7796 32.87 29.1396 33 28.4496 33C27.4296 33 26.3396 32.76 25.1896 32.27C24.0396 31.78 22.8896 31.12 21.7496 30.29C21.3596 30 20.9696 29.71 20.5996 29.4L23.8696 26.13C24.1496 26.34 24.3996 26.5 24.6096 26.61C24.6596 26.63 24.7196 26.66 24.7896 26.69C24.8696 26.72 24.9496 26.73 25.0396 26.73C25.2096 26.73 25.3396 26.67 25.4496 26.56L26.2096 25.81C26.4596 25.56 26.6996 25.37 26.9296 25.25C27.1596 25.11 27.3896 25.04 27.6396 25.04C27.8296 25.04 28.0296 25.08 28.2496 25.17C28.4696 25.26 28.6996 25.39 28.9496 25.56L32.2596 27.91C32.5196 28.09 32.6996 28.3 32.8096 28.55C32.9096 28.8 32.9696 29.05 32.9696 29.33Z" fill="white"/>
</svg>
