<svg width="18" height="18" viewBox="0 0 18 18" fill="none" xmlns="http://www.w3.org/2000/svg">
<path d="M9 14.0625C8.6925 14.0625 8.4375 13.8075 8.4375 13.5V11.25C8.4375 10.9425 8.6925 10.6875 9 10.6875C9.3075 10.6875 9.5625 10.9425 9.5625 11.25V13.5C9.5625 13.8075 9.3075 14.0625 9 14.0625Z" fill="white"/>
<path d="M13.2 16.9201H4.79997C3.43497 16.9201 2.18997 15.8701 1.96497 14.5276L0.96747 8.55011C0.80247 7.62011 1.25997 6.42761 2.00247 5.83511L7.19997 1.67261C8.20497 0.862611 9.78747 0.870111 10.8 1.68011L15.9975 5.83511C16.7325 6.42761 17.1825 7.62011 17.0325 8.55011L16.035 14.5201C15.81 15.8476 14.535 16.9201 13.2 16.9201ZM8.99247 2.19761C8.59497 2.19761 8.19747 2.31761 7.90497 2.55011L2.70747 6.72011C2.28747 7.05761 1.98747 7.83761 2.07747 8.37011L3.07497 14.3401C3.20997 15.1276 3.99747 15.7951 4.79997 15.7951H13.2C14.0025 15.7951 14.79 15.1276 14.925 14.3326L15.9225 8.36261C16.005 7.83761 15.705 7.04261 15.2925 6.71261L10.095 2.55761C9.79497 2.31761 9.38997 2.19761 8.99247 2.19761Z" fill="white"/>
</svg>
