<svg width="18" height="18" viewBox="0 0 18 18" fill="none" xmlns="http://www.w3.org/2000/svg">
<path d="M9 14.0625C8.6925 14.0625 8.4375 13.8075 8.4375 13.5V11.25C8.4375 10.9425 8.6925 10.6875 9 10.6875C9.3075 10.6875 9.5625 10.9425 9.5625 11.25V13.5C9.5625 13.8075 9.3075 14.0625 9 14.0625Z" fill="white"/>
<path d="M13.1997 16.9201H4.79973C3.43473 16.9201 2.18973 15.8701 1.96473 14.5276L0.967226 8.55011C0.802226 7.62011 1.25973 6.42761 2.00223 5.83511L7.19973 1.67261C8.20473 0.862611 9.78723 0.870111 10.7997 1.68011L15.9972 5.83511C16.7322 6.42761 17.1822 7.62011 17.0322 8.55011L16.0347 14.5201C15.8097 15.8476 14.5347 16.9201 13.1997 16.9201ZM8.99223 2.19761C8.59473 2.19761 8.19723 2.31761 7.90473 2.55011L2.70723 6.72011C2.28723 7.05761 1.98723 7.83761 2.07723 8.37011L3.07473 14.3401C3.20973 15.1276 3.99723 15.7951 4.79973 15.7951H13.1997C14.0022 15.7951 14.7897 15.1276 14.9247 14.3326L15.9222 8.36261C16.0047 7.83761 15.7047 7.04261 15.2922 6.71261L10.0947 2.55761C9.79473 2.31761 9.38973 2.19761 8.99223 2.19761Z" fill="white"/>
</svg>
