<svg width="55" height="55" viewBox="0 0 55 55" fill="none" xmlns="http://www.w3.org/2000/svg">
<circle cx="27.5" cy="27.5" r="27.5" fill="black" fill-opacity="0.4"/>
<path d="M34.7916 26.75H32.7083C30.1874 26.75 28.802 25.42 28.802 23V21C28.802 18.58 30.1874 17.25 32.7083 17.25H34.7916C37.3124 17.25 38.6978 18.58 38.6978 21V23C38.6978 25.42 37.3124 26.75 34.7916 26.75ZM32.7083 18.75C31.0624 18.75 30.3645 19.42 30.3645 21V23C30.3645 24.58 31.0624 25.25 32.7083 25.25H34.7916C36.4374 25.25 37.1353 24.58 37.1353 23V21C37.1353 19.42 36.4374 18.75 34.7916 18.75H32.7083Z" fill="white"/>
<path d="M22.2916 38.75H20.2083C17.6874 38.75 16.302 37.42 16.302 35V33C16.302 30.58 17.6874 29.25 20.2083 29.25H22.2916C24.8124 29.25 26.1978 30.58 26.1978 33V35C26.1978 37.42 24.8124 38.75 22.2916 38.75ZM20.2083 30.75C18.5624 30.75 17.8645 31.42 17.8645 33V35C17.8645 36.58 18.5624 37.25 20.2083 37.25H22.2916C23.9374 37.25 24.6353 36.58 24.6353 35V33C24.6353 31.42 23.9374 30.75 22.2916 30.75H20.2083Z" fill="white"/>
<path d="M21.2499 26.75C18.5208 26.75 16.302 24.62 16.302 22C16.302 19.38 18.5208 17.25 21.2499 17.25C23.9791 17.25 26.1978 19.38 26.1978 22C26.1978 24.62 23.9791 26.75 21.2499 26.75ZM21.2499 18.75C19.3853 18.75 17.8645 20.21 17.8645 22C17.8645 23.79 19.3853 25.25 21.2499 25.25C23.1145 25.25 24.6353 23.79 24.6353 22C24.6353 20.21 23.1145 18.75 21.2499 18.75Z" fill="white"/>
<path d="M33.7499 38.75C31.0208 38.75 28.802 36.62 28.802 34C28.802 31.38 31.0208 29.25 33.7499 29.25C36.4791 29.25 38.6978 31.38 38.6978 34C38.6978 36.62 36.4791 38.75 33.7499 38.75ZM33.7499 30.75C31.8853 30.75 30.3645 32.21 30.3645 34C30.3645 35.79 31.8853 37.25 33.7499 37.25C35.6145 37.25 37.1353 35.79 37.1353 34C37.1353 32.21 35.6145 30.75 33.7499 30.75Z" fill="white"/>
</svg>
