<svg width="45" height="45" viewBox="0 0 45 45" fill="none" xmlns="http://www.w3.org/2000/svg">
<circle cx="22.5" cy="22.5" r="22.5" fill="#0056FF"/>
<path d="M28 32.25H18C14.35 32.25 12.25 30.15 12.25 26.5V19.5C12.25 15.85 14.35 13.75 18 13.75H28C31.65 13.75 33.75 15.85 33.75 19.5V26.5C33.75 30.15 31.65 32.25 28 32.25ZM18 15.25C15.14 15.25 13.75 16.64 13.75 19.5V26.5C13.75 29.36 15.14 30.75 18 30.75H28C30.86 30.75 32.25 29.36 32.25 26.5V19.5C32.25 16.64 30.86 15.25 28 15.25H18Z" fill="white"/>
<path d="M22.9998 23.87C22.1598 23.87 21.3098 23.61 20.6598 23.08L17.5298 20.58C17.2098 20.32 17.1498 19.85 17.4098 19.53C17.6698 19.21 18.1398 19.15 18.4598 19.41L21.5898 21.91C22.3498 22.52 23.6398 22.52 24.3998 21.91L27.5298 19.41C27.8498 19.15 28.3298 19.2 28.5798 19.53C28.8398 19.85 28.7898 20.33 28.4598 20.58L25.3298 23.08C24.6898 23.61 23.8398 23.87 22.9998 23.87Z" fill="white"/>
</svg>
