<svg width="45" height="45" viewBox="0 0 45 45" fill="none" xmlns="http://www.w3.org/2000/svg">
<circle cx="22.5" cy="22.5" r="22.5" fill="#0056FF"/>
<path d="M27.9958 32.8543C26.96 32.8543 25.8691 32.6068 24.7416 32.1302C23.6416 31.6627 22.5325 31.021 21.4508 30.2418C20.3783 29.4535 19.3425 28.5735 18.3616 27.611C17.39 26.6302 16.51 25.5943 15.7308 24.531C14.9425 23.431 14.31 22.331 13.8608 21.2677C13.3841 20.131 13.1458 19.031 13.1458 17.9952C13.1458 17.2802 13.2741 16.6018 13.5216 15.9693C13.7783 15.3185 14.1908 14.7135 14.75 14.191C15.4558 13.4943 16.2625 13.146 17.1241 13.146C17.4816 13.146 17.8483 13.2285 18.16 13.3752C18.5175 13.5402 18.82 13.7877 19.04 14.1177L21.1666 17.1152C21.3591 17.381 21.5058 17.6377 21.6066 17.8943C21.7258 18.1693 21.79 18.4443 21.79 18.7102C21.79 19.0585 21.6891 19.3977 21.4966 19.7185C21.3591 19.966 21.1483 20.2318 20.8825 20.4977L20.2591 21.1485C20.2683 21.176 20.2775 21.1943 20.2866 21.2127C20.3966 21.4052 20.6166 21.7352 21.0383 22.2302C21.4875 22.7435 21.9091 23.211 22.3308 23.6418C22.8716 24.1735 23.3208 24.5952 23.7425 24.9435C24.265 25.3835 24.6041 25.6035 24.8058 25.7043L24.7875 25.7502L25.4566 25.0902C25.7408 24.806 26.0158 24.5952 26.2816 24.4577C26.7858 24.146 27.4275 24.091 28.0691 24.3568C28.3075 24.4577 28.5641 24.5952 28.8391 24.7877L31.8825 26.951C32.2216 27.1802 32.4691 27.4735 32.6158 27.8218C32.7533 28.1702 32.8175 28.491 32.8175 28.8118C32.8175 29.2518 32.7166 29.6918 32.5241 30.1043C32.3316 30.5168 32.0933 30.8743 31.7908 31.2043C31.2683 31.7818 30.7 32.1943 30.04 32.4602C29.4075 32.7168 28.72 32.8543 27.9958 32.8543ZM17.1241 14.521C16.62 14.521 16.1525 14.741 15.7033 15.181C15.2816 15.5752 14.9883 16.006 14.805 16.4735C14.6125 16.9502 14.5208 17.4543 14.5208 17.9952C14.5208 18.8477 14.7225 19.7735 15.1258 20.7268C15.5383 21.6985 16.1158 22.7068 16.8491 23.7152C17.5825 24.7235 18.4166 25.7043 19.3333 26.6302C20.25 27.5377 21.24 28.381 22.2575 29.1235C23.2475 29.8477 24.265 30.4343 25.2733 30.856C26.8408 31.5252 28.3075 31.681 29.5175 31.1768C29.985 30.9843 30.3975 30.691 30.7733 30.2693C30.9841 30.0402 31.1491 29.7927 31.2866 29.4993C31.3966 29.2702 31.4516 29.0318 31.4516 28.7935C31.4516 28.6468 31.4241 28.5002 31.3508 28.3352C31.3233 28.2802 31.2683 28.1793 31.0941 28.0602L28.0508 25.8968C27.8675 25.7685 27.7025 25.6768 27.5466 25.6127C27.345 25.5302 27.2625 25.4477 26.9508 25.6402C26.7675 25.7318 26.6025 25.8693 26.4191 26.0527L25.7225 26.7402C25.365 27.0885 24.815 27.171 24.3933 27.0152L24.1458 26.9052C23.77 26.7035 23.33 26.3918 22.8441 25.9793C22.4041 25.6035 21.9275 25.1635 21.35 24.5952C20.9008 24.1368 20.4516 23.651 19.9841 23.1102C19.5533 22.606 19.2416 22.1752 19.0491 21.8177L18.9391 21.5427C18.8841 21.3318 18.8658 21.2127 18.8658 21.0843C18.8658 20.7543 18.985 20.461 19.2141 20.2318L19.9016 19.5168C20.085 19.3335 20.2225 19.1593 20.3141 19.0035C20.3875 18.8843 20.415 18.7835 20.415 18.6918C20.415 18.6185 20.3875 18.5085 20.3416 18.3985C20.2775 18.2518 20.1766 18.0868 20.0483 17.9127L17.9216 14.906C17.83 14.7777 17.72 14.686 17.5825 14.6218C17.4358 14.5577 17.28 14.521 17.1241 14.521ZM24.7875 25.7593L24.6408 26.3827L24.8883 25.741C24.8425 25.7318 24.8058 25.741 24.7875 25.7593Z" fill="white"/>
</svg>
