<svg width="45" height="45" viewBox="0 0 45 45" fill="none" xmlns="http://www.w3.org/2000/svg">
<circle cx="22.5" cy="22.5" r="22.5" fill="#0056FF"/>
<path d="M23 25.1699C20.87 25.1699 19.13 23.4399 19.13 21.2999C19.13 19.1599 20.87 17.4399 23 17.4399C25.13 17.4399 26.87 19.1699 26.87 21.3099C26.87 23.4499 25.13 25.1699 23 25.1699ZM23 18.9399C21.7 18.9399 20.63 19.9999 20.63 21.3099C20.63 22.6199 21.69 23.6799 23 23.6799C24.31 23.6799 25.37 22.6199 25.37 21.3099C25.37 19.9999 24.3 18.9399 23 18.9399Z" fill="white"/>
<path d="M23 33.76C21.52 33.76 20.03 33.2 18.87 32.09C15.92 29.25 12.66 24.72 13.89 19.33C15 14.44 19.27 12.25 23 12.25C23 12.25 23 12.25 23.01 12.25C26.74 12.25 31.01 14.44 32.12 19.34C33.34 24.73 30.08 29.25 27.13 32.09C25.97 33.2 24.48 33.76 23 33.76ZM23 13.75C20.09 13.75 16.35 15.3 15.36 19.66C14.28 24.37 17.24 28.43 19.92 31C21.65 32.67 24.36 32.67 26.09 31C28.76 28.43 31.72 24.37 30.66 19.66C29.66 15.3 25.91 13.75 23 13.75Z" fill="white"/>
</svg>
