<svg width="300" height="160" viewBox="0 0 300 160" fill="none" xmlns="http://www.w3.org/2000/svg">
<rect width="300" height="160" rx="10" fill="#0C0E12"/>
<rect x="1" y="1" width="298" height="158" rx="9" stroke="white" stroke-opacity="0.07" stroke-width="2"/>
<path d="M76.2 39.7L76.06 36.62L83.4 29H86.32L80.22 35.48L78.78 37.06L76.2 39.7ZM73.88 43V29H76.48V43H73.88ZM83.64 43L78.28 36.62L80 34.72L86.68 43H83.64ZM92.5416 43.14C91.4482 43.14 90.4749 42.9067 89.6216 42.44C88.7682 41.96 88.0949 41.3067 87.6016 40.48C87.1082 39.6533 86.8616 38.7133 86.8616 37.66C86.8616 36.5933 87.1082 35.6533 87.6016 34.84C88.0949 34.0133 88.7682 33.3667 89.6216 32.9C90.4749 32.4333 91.4482 32.2 92.5416 32.2C93.6482 32.2 94.6282 32.4333 95.4816 32.9C96.3482 33.3667 97.0216 34.0067 97.5016 34.82C97.9949 35.6333 98.2416 36.58 98.2416 37.66C98.2416 38.7133 97.9949 39.6533 97.5016 40.48C97.0216 41.3067 96.3482 41.96 95.4816 42.44C94.6282 42.9067 93.6482 43.14 92.5416 43.14ZM92.5416 41C93.1549 41 93.7016 40.8667 94.1816 40.6C94.6616 40.3333 95.0349 39.9467 95.3016 39.44C95.5816 38.9333 95.7216 38.34 95.7216 37.66C95.7216 36.9667 95.5816 36.3733 95.3016 35.88C95.0349 35.3733 94.6616 34.9867 94.1816 34.72C93.7016 34.4533 93.1616 34.32 92.5616 34.32C91.9482 34.32 91.4016 34.4533 90.9216 34.72C90.4549 34.9867 90.0816 35.3733 89.8016 35.88C89.5216 36.3733 89.3816 36.9667 89.3816 37.66C89.3816 38.34 89.5216 38.9333 89.8016 39.44C90.0816 39.9467 90.4549 40.3333 90.9216 40.6C91.4016 40.8667 91.9416 41 92.5416 41ZM100.632 43V28.16H103.132V43H100.632ZM112.993 43V40.84L112.853 40.38V36.6C112.853 35.8667 112.633 35.3 112.193 34.9C111.753 34.4867 111.087 34.28 110.193 34.28C109.593 34.28 109 34.3733 108.413 34.56C107.84 34.7467 107.353 35.0067 106.953 35.34L105.973 33.52C106.547 33.08 107.227 32.7533 108.013 32.54C108.813 32.3133 109.64 32.2 110.493 32.2C112.04 32.2 113.233 32.5733 114.073 33.32C114.927 34.0533 115.353 35.1933 115.353 36.74V43H112.993ZM109.633 43.14C108.833 43.14 108.133 43.0067 107.533 42.74C106.933 42.46 106.467 42.08 106.133 41.6C105.813 41.1067 105.653 40.5533 105.653 39.94C105.653 39.34 105.793 38.8 106.073 38.32C106.367 37.84 106.84 37.46 107.493 37.18C108.147 36.9 109.013 36.76 110.093 36.76H113.193V38.42H110.273C109.42 38.42 108.847 38.56 108.553 38.84C108.26 39.1067 108.113 39.44 108.113 39.84C108.113 40.2933 108.293 40.6533 108.653 40.92C109.013 41.1867 109.513 41.32 110.153 41.32C110.767 41.32 111.313 41.18 111.793 40.9C112.287 40.62 112.64 40.2067 112.853 39.66L113.273 41.16C113.033 41.7867 112.6 42.2733 111.973 42.62C111.36 42.9667 110.58 43.14 109.633 43.14ZM124.482 43.14C123.575 43.14 122.769 42.94 122.062 42.54C121.355 42.14 120.795 41.54 120.382 40.74C119.982 39.9267 119.782 38.9 119.782 37.66C119.782 36.4067 119.989 35.38 120.402 34.58C120.829 33.78 121.395 33.1867 122.102 32.8C122.822 32.4 123.615 32.2 124.482 32.2C125.535 32.2 126.462 32.4267 127.262 32.88C128.075 33.3333 128.715 33.9667 129.182 34.78C129.662 35.5933 129.902 36.5533 129.902 37.66C129.902 38.7667 129.662 39.7267 129.182 40.54C128.715 41.3533 128.075 41.9933 127.262 42.46C126.462 42.9133 125.535 43.14 124.482 43.14ZM118.562 43V28.16H121.062V34.8L120.862 37.64L120.942 40.48V43H118.562ZM124.202 41C124.802 41 125.335 40.8667 125.802 40.6C126.282 40.3333 126.662 39.9467 126.942 39.44C127.222 38.9333 127.362 38.34 127.362 37.66C127.362 36.9667 127.222 36.3733 126.942 35.88C126.662 35.3733 126.282 34.9867 125.802 34.72C125.335 34.4533 124.802 34.32 124.202 34.32C123.602 34.32 123.062 34.4533 122.582 34.72C122.102 34.9867 121.722 35.3733 121.442 35.88C121.162 36.3733 121.022 36.9667 121.022 37.66C121.022 38.34 121.162 38.9333 121.442 39.44C121.722 39.9467 122.102 40.3333 122.582 40.6C123.062 40.8667 123.602 41 124.202 41ZM137.073 43.14C135.979 43.14 135.006 42.9067 134.153 42.44C133.299 41.96 132.626 41.3067 132.133 40.48C131.639 39.6533 131.393 38.7133 131.393 37.66C131.393 36.5933 131.639 35.6533 132.133 34.84C132.626 34.0133 133.299 33.3667 134.153 32.9C135.006 32.4333 135.979 32.2 137.073 32.2C138.179 32.2 139.159 32.4333 140.013 32.9C140.879 33.3667 141.553 34.0067 142.033 34.82C142.526 35.6333 142.773 36.58 142.773 37.66C142.773 38.7133 142.526 39.6533 142.033 40.48C141.553 41.3067 140.879 41.96 140.013 42.44C139.159 42.9067 138.179 43.14 137.073 43.14ZM137.073 41C137.686 41 138.233 40.8667 138.713 40.6C139.193 40.3333 139.566 39.9467 139.833 39.44C140.113 38.9333 140.253 38.34 140.253 37.66C140.253 36.9667 140.113 36.3733 139.833 35.88C139.566 35.3733 139.193 34.9867 138.713 34.72C138.233 34.4533 137.693 34.32 137.093 34.32C136.479 34.32 135.933 34.4533 135.453 34.72C134.986 34.9867 134.613 35.3733 134.333 35.88C134.053 36.3733 133.913 36.9667 133.913 37.66C133.913 38.34 134.053 38.9333 134.333 39.44C134.613 39.9467 134.986 40.3333 135.453 40.6C135.933 40.8667 136.473 41 137.073 41ZM145.163 43V32.32H147.543V35.26L147.263 34.4C147.583 33.68 148.083 33.1333 148.763 32.76C149.457 32.3867 150.317 32.2 151.343 32.2V34.58C151.237 34.5533 151.137 34.54 151.043 34.54C150.95 34.5267 150.857 34.52 150.763 34.52C149.817 34.52 149.063 34.8 148.503 35.36C147.943 35.9067 147.663 36.7267 147.663 37.82V43H145.163ZM159.283 43V40.84L159.143 40.38V36.6C159.143 35.8667 158.923 35.3 158.483 34.9C158.043 34.4867 157.376 34.28 156.483 34.28C155.883 34.28 155.289 34.3733 154.703 34.56C154.129 34.7467 153.643 35.0067 153.243 35.34L152.263 33.52C152.836 33.08 153.516 32.7533 154.303 32.54C155.103 32.3133 155.929 32.2 156.783 32.2C158.329 32.2 159.523 32.5733 160.363 33.32C161.216 34.0533 161.643 35.1933 161.643 36.74V43H159.283ZM155.923 43.14C155.123 43.14 154.423 43.0067 153.823 42.74C153.223 42.46 152.756 42.08 152.423 41.6C152.103 41.1067 151.943 40.5533 151.943 39.94C151.943 39.34 152.083 38.8 152.363 38.32C152.656 37.84 153.129 37.46 153.783 37.18C154.436 36.9 155.303 36.76 156.383 36.76H159.483V38.42H156.563C155.709 38.42 155.136 38.56 154.843 38.84C154.549 39.1067 154.403 39.44 154.403 39.84C154.403 40.2933 154.583 40.6533 154.943 40.92C155.303 41.1867 155.803 41.32 156.443 41.32C157.056 41.32 157.603 41.18 158.083 40.9C158.576 40.62 158.929 40.2067 159.143 39.66L159.563 41.16C159.323 41.7867 158.889 42.2733 158.263 42.62C157.649 42.9667 156.869 43.14 155.923 43.14ZM168.151 43.14C167.258 43.14 166.398 43.0267 165.571 42.8C164.758 42.56 164.111 42.2733 163.631 41.94L164.591 40.04C165.071 40.3467 165.644 40.6 166.311 40.8C166.978 41 167.644 41.1 168.311 41.1C169.098 41.1 169.664 40.9933 170.011 40.78C170.371 40.5667 170.551 40.28 170.551 39.92C170.551 39.6267 170.431 39.4067 170.191 39.26C169.951 39.1 169.638 38.98 169.251 38.9C168.864 38.82 168.431 38.7467 167.951 38.68C167.484 38.6133 167.011 38.5267 166.531 38.42C166.064 38.3 165.638 38.1333 165.251 37.92C164.864 37.6933 164.551 37.3933 164.311 37.02C164.071 36.6467 163.951 36.1533 163.951 35.54C163.951 34.86 164.144 34.2733 164.531 33.78C164.918 33.2733 165.458 32.8867 166.151 32.62C166.858 32.34 167.691 32.2 168.651 32.2C169.371 32.2 170.098 32.28 170.831 32.44C171.564 32.6 172.171 32.8267 172.651 33.12L171.691 35.02C171.184 34.7133 170.671 34.5067 170.151 34.4C169.644 34.28 169.138 34.22 168.631 34.22C167.871 34.22 167.304 34.3333 166.931 34.56C166.571 34.7867 166.391 35.0733 166.391 35.42C166.391 35.74 166.511 35.98 166.751 36.14C166.991 36.3 167.304 36.4267 167.691 36.52C168.078 36.6133 168.504 36.6933 168.971 36.76C169.451 36.8133 169.924 36.9 170.391 37.02C170.858 37.14 171.284 37.3067 171.671 37.52C172.071 37.72 172.391 38.0067 172.631 38.38C172.871 38.7533 172.991 39.24 172.991 39.84C172.991 40.5067 172.791 41.0867 172.391 41.58C172.004 42.0733 171.451 42.46 170.731 42.74C170.011 43.0067 169.151 43.14 168.151 43.14ZM175.144 43V32.32H177.644V43H175.144ZM176.404 30.56C175.937 30.56 175.551 30.4133 175.244 30.12C174.951 29.8267 174.804 29.4733 174.804 29.06C174.804 28.6333 174.951 28.28 175.244 28C175.551 27.7067 175.937 27.56 176.404 27.56C176.871 27.56 177.251 27.7 177.544 27.98C177.851 28.2467 178.004 28.5867 178.004 29C178.004 29.44 177.857 29.8133 177.564 30.12C177.271 30.4133 176.884 30.56 176.404 30.56ZM186.693 43V29H189.293V40.8H196.613V43H186.693ZM205.025 43V40.84L204.885 40.38V36.6C204.885 35.8667 204.665 35.3 204.225 34.9C203.785 34.4867 203.118 34.28 202.225 34.28C201.625 34.28 201.031 34.3733 200.445 34.56C199.871 34.7467 199.385 35.0067 198.985 35.34L198.005 33.52C198.578 33.08 199.258 32.7533 200.045 32.54C200.845 32.3133 201.671 32.2 202.525 32.2C204.071 32.2 205.265 32.5733 206.105 33.32C206.958 34.0533 207.385 35.1933 207.385 36.74V43H205.025ZM201.665 43.14C200.865 43.14 200.165 43.0067 199.565 42.74C198.965 42.46 198.498 42.08 198.165 41.6C197.845 41.1067 197.685 40.5533 197.685 39.94C197.685 39.34 197.825 38.8 198.105 38.32C198.398 37.84 198.871 37.46 199.525 37.18C200.178 36.9 201.045 36.76 202.125 36.76H205.225V38.42H202.305C201.451 38.42 200.878 38.56 200.585 38.84C200.291 39.1067 200.145 39.44 200.145 39.84C200.145 40.2933 200.325 40.6533 200.685 40.92C201.045 41.1867 201.545 41.32 202.185 41.32C202.798 41.32 203.345 41.18 203.825 40.9C204.318 40.62 204.671 40.2067 204.885 39.66L205.305 41.16C205.065 41.7867 204.631 42.2733 204.005 42.62C203.391 42.9667 202.611 43.14 201.665 43.14ZM211.278 47.02C210.758 47.02 210.238 46.9333 209.718 46.76C209.198 46.5867 208.764 46.3467 208.418 46.04L209.418 44.2C209.671 44.4267 209.958 44.6067 210.278 44.74C210.598 44.8733 210.924 44.94 211.258 44.94C211.711 44.94 212.078 44.8267 212.358 44.6C212.638 44.3733 212.898 43.9933 213.138 43.46L213.758 42.06L213.958 41.76L217.998 32.32H220.398L215.398 43.86C215.064 44.66 214.691 45.2933 214.278 45.76C213.878 46.2267 213.424 46.5533 212.918 46.74C212.424 46.9267 211.878 47.02 211.278 47.02ZM213.478 43.38L208.658 32.32H211.258L215.178 41.54L213.478 43.38ZM228.208 43V40.84L228.068 40.38V36.6C228.068 35.8667 227.848 35.3 227.408 34.9C226.968 34.4867 226.302 34.28 225.408 34.28C224.808 34.28 224.215 34.3733 223.628 34.56C223.055 34.7467 222.568 35.0067 222.168 35.34L221.188 33.52C221.762 33.08 222.442 32.7533 223.228 32.54C224.028 32.3133 224.855 32.2 225.708 32.2C227.255 32.2 228.448 32.5733 229.288 33.32C230.142 34.0533 230.568 35.1933 230.568 36.74V43H228.208ZM224.848 43.14C224.048 43.14 223.348 43.0067 222.748 42.74C222.148 42.46 221.682 42.08 221.348 41.6C221.028 41.1067 220.868 40.5533 220.868 39.94C220.868 39.34 221.008 38.8 221.288 38.32C221.582 37.84 222.055 37.46 222.708 37.18C223.362 36.9 224.228 36.76 225.308 36.76H228.408V38.42H225.488C224.635 38.42 224.062 38.56 223.768 38.84C223.475 39.1067 223.328 39.44 223.328 39.84C223.328 40.2933 223.508 40.6533 223.868 40.92C224.228 41.1867 224.728 41.32 225.368 41.32C225.982 41.32 226.528 41.18 227.008 40.9C227.502 40.62 227.855 40.2067 228.068 39.66L228.488 41.16C228.248 41.7867 227.815 42.2733 227.188 42.62C226.575 42.9667 225.795 43.14 224.848 43.14ZM239.837 32.2C240.69 32.2 241.45 32.3667 242.117 32.7C242.797 33.0333 243.33 33.5467 243.717 34.24C244.103 34.92 244.297 35.8 244.297 36.88V43H241.797V37.2C241.797 36.2533 241.57 35.5467 241.117 35.08C240.677 34.6133 240.057 34.38 239.257 34.38C238.67 34.38 238.15 34.5 237.697 34.74C237.243 34.98 236.89 35.34 236.637 35.82C236.397 36.2867 236.277 36.88 236.277 37.6V43H233.777V32.32H236.157V35.2L235.737 34.32C236.11 33.64 236.65 33.12 237.357 32.76C238.077 32.3867 238.903 32.2 239.837 32.2ZM254.048 43V40.84L253.908 40.38V36.6C253.908 35.8667 253.688 35.3 253.248 34.9C252.808 34.4867 252.141 34.28 251.248 34.28C250.648 34.28 250.055 34.3733 249.468 34.56C248.895 34.7467 248.408 35.0067 248.008 35.34L247.028 33.52C247.601 33.08 248.281 32.7533 249.068 32.54C249.868 32.3133 250.695 32.2 251.548 32.2C253.095 32.2 254.288 32.5733 255.128 33.32C255.981 34.0533 256.408 35.1933 256.408 36.74V43H254.048ZM250.688 43.14C249.888 43.14 249.188 43.0067 248.588 42.74C247.988 42.46 247.521 42.08 247.188 41.6C246.868 41.1067 246.708 40.5533 246.708 39.94C246.708 39.34 246.848 38.8 247.128 38.32C247.421 37.84 247.895 37.46 248.548 37.18C249.201 36.9 250.068 36.76 251.148 36.76H254.248V38.42H251.328C250.475 38.42 249.901 38.56 249.608 38.84C249.315 39.1067 249.168 39.44 249.168 39.84C249.168 40.2933 249.348 40.6533 249.708 40.92C250.068 41.1867 250.568 41.32 251.208 41.32C251.821 41.32 252.368 41.18 252.848 40.9C253.341 40.62 253.695 40.2067 253.908 39.66L254.328 41.16C254.088 41.7867 253.655 42.2733 253.028 42.62C252.415 42.9667 251.635 43.14 250.688 43.14ZM265.677 32.2C266.53 32.2 267.29 32.3667 267.957 32.7C268.637 33.0333 269.17 33.5467 269.557 34.24C269.943 34.92 270.137 35.8 270.137 36.88V43H267.637V37.2C267.637 36.2533 267.41 35.5467 266.957 35.08C266.517 34.6133 265.897 34.38 265.097 34.38C264.51 34.38 263.99 34.5 263.537 34.74C263.083 34.98 262.73 35.34 262.477 35.82C262.237 36.2867 262.117 36.88 262.117 37.6V43H259.617V32.32H261.997V35.2L261.577 34.32C261.95 33.64 262.49 33.12 263.197 32.76C263.917 32.3867 264.743 32.2 265.677 32.2Z" fill="white"/>
<path d="M19.509 81.803L19.444 80.217L24.605 74.9H26.087L22.096 79.112L21.368 79.918L19.509 81.803ZM18.365 84V74.9H19.665V84H18.365ZM24.813 84L21.082 79.658L21.953 78.696L26.334 84H24.813ZM31.6387 84V82.544L31.5737 82.271V79.788C31.5737 79.2593 31.4177 78.852 31.1057 78.566C30.8024 78.2713 30.343 78.124 29.7277 78.124C29.3204 78.124 28.9217 78.1933 28.5317 78.332C28.1417 78.462 27.8124 78.6397 27.5437 78.865L27.0237 77.929C27.379 77.643 27.8037 77.4263 28.2977 77.279C28.8004 77.123 29.3247 77.045 29.8707 77.045C30.8154 77.045 31.5434 77.2747 32.0547 77.734C32.566 78.1933 32.8217 78.8953 32.8217 79.84V84H31.6387ZM29.3767 84.078C28.8654 84.078 28.4147 83.9913 28.0247 83.818C27.6434 83.6447 27.3487 83.4063 27.1407 83.103C26.9327 82.791 26.8287 82.44 26.8287 82.05C26.8287 81.6773 26.9154 81.3393 27.0887 81.036C27.2707 80.7327 27.561 80.49 27.9597 80.308C28.367 80.126 28.913 80.035 29.5977 80.035H31.7817V80.932H29.6497C29.0257 80.932 28.6054 81.036 28.3887 81.244C28.172 81.452 28.0637 81.7033 28.0637 81.998C28.0637 82.336 28.198 82.609 28.4667 82.817C28.7354 83.0163 29.108 83.116 29.5847 83.116C30.0527 83.116 30.46 83.012 30.8067 82.804C31.162 82.596 31.4177 82.2927 31.5737 81.894L31.8207 82.752C31.656 83.1593 31.3657 83.4843 30.9497 83.727C30.5337 83.961 30.0094 84.078 29.3767 84.078ZM43.7502 77.045C44.3049 77.045 44.7946 77.1533 45.2192 77.37C45.6439 77.5867 45.9732 77.916 46.2072 78.358C46.4499 78.8 46.5712 79.359 46.5712 80.035V84H45.3232V80.178C45.3232 79.5107 45.1672 79.008 44.8552 78.67C44.5432 78.332 44.1056 78.163 43.5422 78.163C43.1262 78.163 42.7622 78.2497 42.4502 78.423C42.1382 78.5963 41.8956 78.852 41.7222 79.19C41.5576 79.528 41.4752 79.9483 41.4752 80.451V84H40.2272V80.178C40.2272 79.5107 40.0712 79.008 39.7592 78.67C39.4559 78.332 39.0182 78.163 38.4462 78.163C38.0389 78.163 37.6792 78.2497 37.3672 78.423C37.0552 78.5963 36.8126 78.852 36.6392 79.19C36.4659 79.528 36.3792 79.9483 36.3792 80.451V84H35.1312V77.11H36.3272V78.943L36.1322 78.475C36.3489 78.0243 36.6826 77.6733 37.1332 77.422C37.5839 77.1707 38.1082 77.045 38.7062 77.045C39.3649 77.045 39.9326 77.2097 40.4092 77.539C40.8859 77.8597 41.1979 78.3493 41.3452 79.008L40.8382 78.8C41.0462 78.2713 41.4102 77.8467 41.9302 77.526C42.4502 77.2053 43.0569 77.045 43.7502 77.045ZM48.8676 84V77.11H50.1156V84H48.8676ZM49.4916 75.784C49.2489 75.784 49.0452 75.706 48.8806 75.55C48.7246 75.394 48.6466 75.2033 48.6466 74.978C48.6466 74.744 48.7246 74.549 48.8806 74.393C49.0452 74.237 49.2489 74.159 49.4916 74.159C49.7342 74.159 49.9336 74.237 50.0896 74.393C50.2542 74.5403 50.3366 74.7267 50.3366 74.952C50.3366 75.186 50.2586 75.3853 50.1026 75.55C49.9466 75.706 49.7429 75.784 49.4916 75.784ZM59.6426 84.078C59.0533 84.078 58.5203 83.948 58.0436 83.688C57.5756 83.4193 57.203 83.025 56.9256 82.505C56.657 81.985 56.5226 81.335 56.5226 80.555C56.5226 79.775 56.6613 79.125 56.9386 78.605C57.2246 78.085 57.6016 77.695 58.0696 77.435C58.5463 77.175 59.0706 77.045 59.6426 77.045C60.3186 77.045 60.9166 77.1923 61.4366 77.487C61.9566 77.7817 62.3683 78.1933 62.6716 78.722C62.975 79.242 63.1266 79.853 63.1266 80.555C63.1266 81.257 62.975 81.8723 62.6716 82.401C62.3683 82.9297 61.9566 83.3413 61.4366 83.636C60.9166 83.9307 60.3186 84.078 59.6426 84.078ZM55.9896 84V74.354H57.2376V78.943L57.1076 80.542L57.1856 82.141V84H55.9896ZM59.5386 82.986C59.9806 82.986 60.375 82.8863 60.7216 82.687C61.077 82.4877 61.3543 82.206 61.5536 81.842C61.7616 81.4693 61.8656 81.0403 61.8656 80.555C61.8656 80.061 61.7616 79.6363 61.5536 79.281C61.3543 78.917 61.077 78.6353 60.7216 78.436C60.375 78.2367 59.9806 78.137 59.5386 78.137C59.1053 78.137 58.711 78.2367 58.3556 78.436C58.009 78.6353 57.7316 78.917 57.5236 79.281C57.3243 79.6363 57.2246 80.061 57.2246 80.555C57.2246 81.0403 57.3243 81.4693 57.5236 81.842C57.7316 82.206 58.009 82.4877 58.3556 82.687C58.711 82.8863 59.1053 82.986 59.5386 82.986ZM67.919 84.078C67.1823 84.078 66.5323 83.9263 65.969 83.623C65.4143 83.3197 64.981 82.9037 64.669 82.375C64.3656 81.8463 64.214 81.2397 64.214 80.555C64.214 79.8703 64.3613 79.2637 64.656 78.735C64.9593 78.2063 65.371 77.7947 65.891 77.5C66.4196 77.1967 67.0133 77.045 67.672 77.045C68.3393 77.045 68.9286 77.1923 69.44 77.487C69.9513 77.7817 70.35 78.1977 70.636 78.735C70.9306 79.2637 71.078 79.8833 71.078 80.594C71.078 80.646 71.0736 80.7067 71.065 80.776C71.065 80.8453 71.0606 80.9103 71.052 80.971H65.189V80.074H70.402L69.895 80.386C69.9036 79.944 69.8126 79.5497 69.622 79.203C69.4313 78.8563 69.167 78.5877 68.829 78.397C68.4996 78.1977 68.114 78.098 67.672 78.098C67.2386 78.098 66.853 78.1977 66.515 78.397C66.177 78.5877 65.9126 78.8607 65.722 79.216C65.5313 79.5627 65.436 79.9613 65.436 80.412V80.62C65.436 81.0793 65.54 81.491 65.748 81.855C65.9646 82.2103 66.2636 82.4877 66.645 82.687C67.0263 82.8863 67.464 82.986 67.958 82.986C68.3653 82.986 68.7336 82.9167 69.063 82.778C69.401 82.6393 69.6956 82.4313 69.947 82.154L70.636 82.96C70.324 83.324 69.934 83.6013 69.466 83.792C69.0066 83.9827 68.491 84.078 67.919 84.078ZM73.8249 82.336L73.8509 80.737L77.8159 77.11H79.3239L76.2819 80.1L75.6059 80.672L73.8249 82.336ZM72.8109 84V74.354H74.0589V84H72.8109ZM78.0759 84L75.3719 80.646L76.1779 79.645L79.6099 84H78.0759ZM83.6104 84.078C82.8737 84.078 82.2237 83.9263 81.6604 83.623C81.1057 83.3197 80.6724 82.9037 80.3604 82.375C80.057 81.8463 79.9054 81.2397 79.9054 80.555C79.9054 79.8703 80.0527 79.2637 80.3474 78.735C80.6507 78.2063 81.0624 77.7947 81.5824 77.5C82.111 77.1967 82.7047 77.045 83.3634 77.045C84.0307 77.045 84.62 77.1923 85.1314 77.487C85.6427 77.7817 86.0414 78.1977 86.3274 78.735C86.622 79.2637 86.7694 79.8833 86.7694 80.594C86.7694 80.646 86.765 80.7067 86.7564 80.776C86.7564 80.8453 86.752 80.9103 86.7434 80.971H80.8804V80.074H86.0934L85.5864 80.386C85.595 79.944 85.504 79.5497 85.3134 79.203C85.1227 78.8563 84.8584 78.5877 84.5204 78.397C84.191 78.1977 83.8054 78.098 83.3634 78.098C82.93 78.098 82.5444 78.1977 82.2064 78.397C81.8684 78.5877 81.604 78.8607 81.4134 79.216C81.2227 79.5627 81.1274 79.9613 81.1274 80.412V80.62C81.1274 81.0793 81.2314 81.491 81.4394 81.855C81.656 82.2103 81.955 82.4877 82.3364 82.687C82.7177 82.8863 83.1554 82.986 83.6494 82.986C84.0567 82.986 84.425 82.9167 84.7544 82.778C85.0924 82.6393 85.387 82.4313 85.6384 82.154L86.3274 82.96C86.0154 83.324 85.6254 83.6013 85.1574 83.792C84.698 83.9827 84.1824 84.078 83.6104 84.078ZM88.5023 84V77.11H89.6983V78.982L89.5813 78.514C89.772 78.0373 90.0927 77.6733 90.5433 77.422C90.994 77.1707 91.5487 77.045 92.2073 77.045V78.254C92.1553 78.2453 92.1033 78.241 92.0513 78.241C92.008 78.241 91.9647 78.241 91.9213 78.241C91.254 78.241 90.7253 78.4403 90.3353 78.839C89.9453 79.2377 89.7503 79.814 89.7503 80.568V84H88.5023ZM92.9504 86.6C92.6644 86.6 92.3914 86.5653 92.1314 86.496C91.8627 86.4267 91.6374 86.3227 91.4554 86.184L91.8584 85.222C92.1184 85.4387 92.4564 85.547 92.8724 85.547C93.2017 85.547 93.453 85.443 93.6264 85.235C93.8084 85.0357 93.8994 84.7367 93.8994 84.338V77.11H95.1474V84.312C95.1474 85.014 94.9567 85.5687 94.5754 85.976C94.2027 86.392 93.661 86.6 92.9504 86.6ZM94.5234 75.784C94.2807 75.784 94.077 75.706 93.9124 75.55C93.7564 75.394 93.6784 75.2033 93.6784 74.978C93.6784 74.744 93.7564 74.549 93.9124 74.393C94.077 74.237 94.2807 74.159 94.5234 74.159C94.766 74.159 94.9654 74.237 95.1214 74.393C95.286 74.5403 95.3684 74.7267 95.3684 74.952C95.3684 75.186 95.2904 75.3853 95.1344 75.55C94.9784 75.706 94.7747 75.784 94.5234 75.784ZM101.806 84V82.544L101.741 82.271V79.788C101.741 79.2593 101.585 78.852 101.273 78.566C100.969 78.2713 100.51 78.124 99.8947 78.124C99.4874 78.124 99.0887 78.1933 98.6987 78.332C98.3087 78.462 97.9794 78.6397 97.7107 78.865L97.1907 77.929C97.546 77.643 97.9707 77.4263 98.4647 77.279C98.9674 77.123 99.4917 77.045 100.038 77.045C100.982 77.045 101.71 77.2747 102.222 77.734C102.733 78.1933 102.989 78.8953 102.989 79.84V84H101.806ZM99.5437 84.078C99.0324 84.078 98.5817 83.9913 98.1917 83.818C97.8104 83.6447 97.5157 83.4063 97.3077 83.103C97.0997 82.791 96.9957 82.44 96.9957 82.05C96.9957 81.6773 97.0824 81.3393 97.2557 81.036C97.4377 80.7327 97.728 80.49 98.1267 80.308C98.534 80.126 99.08 80.035 99.7647 80.035H101.949V80.932H99.8167C99.1927 80.932 98.7724 81.036 98.5557 81.244C98.339 81.452 98.2307 81.7033 98.2307 81.998C98.2307 82.336 98.365 82.609 98.6337 82.817C98.9024 83.0163 99.275 83.116 99.7517 83.116C100.22 83.116 100.627 83.012 100.974 82.804C101.329 82.596 101.585 82.2927 101.741 81.894L101.988 82.752C101.823 83.1593 101.533 83.4843 101.117 83.727C100.701 83.961 100.176 84.078 99.5437 84.078ZM110.765 84.078C110.193 84.078 109.647 84 109.127 83.844C108.616 83.688 108.213 83.4973 107.918 83.272L108.438 82.284C108.733 82.4833 109.097 82.6523 109.53 82.791C109.964 82.9297 110.406 82.999 110.856 82.999C111.437 82.999 111.853 82.9167 112.104 82.752C112.364 82.5873 112.494 82.3577 112.494 82.063C112.494 81.8463 112.416 81.6773 112.26 81.556C112.104 81.4347 111.896 81.3437 111.636 81.283C111.385 81.2223 111.103 81.1703 110.791 81.127C110.479 81.075 110.167 81.0143 109.855 80.945C109.543 80.867 109.257 80.763 108.997 80.633C108.737 80.4943 108.529 80.308 108.373 80.074C108.217 79.8313 108.139 79.5107 108.139 79.112C108.139 78.696 108.256 78.332 108.49 78.02C108.724 77.708 109.054 77.4697 109.478 77.305C109.912 77.1317 110.423 77.045 111.012 77.045C111.463 77.045 111.918 77.1013 112.377 77.214C112.845 77.318 113.227 77.4697 113.521 77.669L112.988 78.657C112.676 78.449 112.351 78.306 112.013 78.228C111.675 78.15 111.337 78.111 110.999 78.111C110.453 78.111 110.046 78.202 109.777 78.384C109.509 78.5573 109.374 78.7827 109.374 79.06C109.374 79.294 109.452 79.476 109.608 79.606C109.773 79.7273 109.981 79.8227 110.232 79.892C110.492 79.9613 110.778 80.022 111.09 80.074C111.402 80.1173 111.714 80.178 112.026 80.256C112.338 80.3253 112.62 80.425 112.871 80.555C113.131 80.685 113.339 80.867 113.495 81.101C113.66 81.335 113.742 81.647 113.742 82.037C113.742 82.453 113.621 82.8127 113.378 83.116C113.136 83.4193 112.793 83.6577 112.351 83.831C111.909 83.9957 111.381 84.078 110.765 84.078ZM119.579 84V82.544L119.514 82.271V79.788C119.514 79.2593 119.358 78.852 119.046 78.566C118.743 78.2713 118.283 78.124 117.668 78.124C117.261 78.124 116.862 78.1933 116.472 78.332C116.082 78.462 115.753 78.6397 115.484 78.865L114.964 77.929C115.319 77.643 115.744 77.4263 116.238 77.279C116.741 77.123 117.265 77.045 117.811 77.045C118.756 77.045 119.484 77.2747 119.995 77.734C120.506 78.1933 120.762 78.8953 120.762 79.84V84H119.579ZM117.317 84.078C116.806 84.078 116.355 83.9913 115.965 83.818C115.584 83.6447 115.289 83.4063 115.081 83.103C114.873 82.791 114.769 82.44 114.769 82.05C114.769 81.6773 114.856 81.3393 115.029 81.036C115.211 80.7327 115.501 80.49 115.9 80.308C116.307 80.126 116.853 80.035 117.538 80.035H119.722V80.932H117.59C116.966 80.932 116.546 81.036 116.329 81.244C116.112 81.452 116.004 81.7033 116.004 81.998C116.004 82.336 116.138 82.609 116.407 82.817C116.676 83.0163 117.048 83.116 117.525 83.116C117.993 83.116 118.4 83.012 118.747 82.804C119.102 82.596 119.358 82.2927 119.514 81.894L119.761 82.752C119.596 83.1593 119.306 83.4843 118.89 83.727C118.474 83.961 117.95 84.078 117.317 84.078ZM131.691 77.045C132.245 77.045 132.735 77.1533 133.16 77.37C133.584 77.5867 133.914 77.916 134.148 78.358C134.39 78.8 134.512 79.359 134.512 80.035V84H133.264V80.178C133.264 79.5107 133.108 79.008 132.796 78.67C132.484 78.332 132.046 78.163 131.483 78.163C131.067 78.163 130.703 78.2497 130.391 78.423C130.079 78.5963 129.836 78.852 129.663 79.19C129.498 79.528 129.416 79.9483 129.416 80.451V84H128.168V80.178C128.168 79.5107 128.012 79.008 127.7 78.67C127.396 78.332 126.959 78.163 126.387 78.163C125.979 78.163 125.62 78.2497 125.308 78.423C124.996 78.5963 124.753 78.852 124.58 79.19C124.406 79.528 124.32 79.9483 124.32 80.451V84H123.072V77.11H124.268V78.943L124.073 78.475C124.289 78.0243 124.623 77.6733 125.074 77.422C125.524 77.1707 126.049 77.045 126.647 77.045C127.305 77.045 127.873 77.2097 128.35 77.539C128.826 77.8597 129.138 78.3493 129.286 79.008L128.779 78.8C128.987 78.2713 129.351 77.8467 129.871 77.526C130.391 77.2053 130.997 77.045 131.691 77.045ZM141.085 84V82.544L141.02 82.271V79.788C141.02 79.2593 140.864 78.852 140.552 78.566C140.249 78.2713 139.789 78.124 139.174 78.124C138.767 78.124 138.368 78.1933 137.978 78.332C137.588 78.462 137.259 78.6397 136.99 78.865L136.47 77.929C136.825 77.643 137.25 77.4263 137.744 77.279C138.247 77.123 138.771 77.045 139.317 77.045C140.262 77.045 140.99 77.2747 141.501 77.734C142.012 78.1933 142.268 78.8953 142.268 79.84V84H141.085ZM138.823 84.078C138.312 84.078 137.861 83.9913 137.471 83.818C137.09 83.6447 136.795 83.4063 136.587 83.103C136.379 82.791 136.275 82.44 136.275 82.05C136.275 81.6773 136.362 81.3393 136.535 81.036C136.717 80.7327 137.007 80.49 137.406 80.308C137.813 80.126 138.359 80.035 139.044 80.035H141.228V80.932H139.096C138.472 80.932 138.052 81.036 137.835 81.244C137.618 81.452 137.51 81.7033 137.51 81.998C137.51 82.336 137.644 82.609 137.913 82.817C138.182 83.0163 138.554 83.116 139.031 83.116C139.499 83.116 139.906 83.012 140.253 82.804C140.608 82.596 140.864 82.2927 141.02 81.894L141.267 82.752C141.102 83.1593 140.812 83.4843 140.396 83.727C139.98 83.961 139.456 84.078 138.823 84.078ZM150.916 84.078C150.248 84.078 149.65 83.9307 149.122 83.636C148.602 83.3413 148.19 82.9297 147.887 82.401C147.583 81.8723 147.432 81.257 147.432 80.555C147.432 79.853 147.583 79.242 147.887 78.722C148.19 78.1933 148.602 77.7817 149.122 77.487C149.65 77.1923 150.248 77.045 150.916 77.045C151.496 77.045 152.021 77.175 152.489 77.435C152.957 77.695 153.329 78.085 153.607 78.605C153.893 79.125 154.036 79.775 154.036 80.555C154.036 81.335 153.897 81.985 153.62 82.505C153.351 83.025 152.983 83.4193 152.515 83.688C152.047 83.948 151.514 84.078 150.916 84.078ZM151.02 82.986C151.453 82.986 151.843 82.8863 152.19 82.687C152.545 82.4877 152.822 82.206 153.022 81.842C153.23 81.4693 153.334 81.0403 153.334 80.555C153.334 80.061 153.23 79.6363 153.022 79.281C152.822 78.917 152.545 78.6353 152.19 78.436C151.843 78.2367 151.453 78.137 151.02 78.137C150.578 78.137 150.183 78.2367 149.837 78.436C149.49 78.6353 149.213 78.917 149.005 79.281C148.797 79.6363 148.693 80.061 148.693 80.555C148.693 81.0403 148.797 81.4693 149.005 81.842C149.213 82.206 149.49 82.4877 149.837 82.687C150.183 82.8863 150.578 82.986 151.02 82.986ZM153.373 84V82.141L153.451 80.542L153.321 78.943V74.354H154.569V84H153.373ZM159.998 84.078C159.261 84.078 158.611 83.9263 158.048 83.623C157.493 83.3197 157.06 82.9037 156.748 82.375C156.445 81.8463 156.293 81.2397 156.293 80.555C156.293 79.8703 156.44 79.2637 156.735 78.735C157.038 78.2063 157.45 77.7947 157.97 77.5C158.499 77.1967 159.092 77.045 159.751 77.045C160.418 77.045 161.008 77.1923 161.519 77.487C162.03 77.7817 162.429 78.1977 162.715 78.735C163.01 79.2637 163.157 79.8833 163.157 80.594C163.157 80.646 163.153 80.7067 163.144 80.776C163.144 80.8453 163.14 80.9103 163.131 80.971H157.268V80.074H162.481L161.974 80.386C161.983 79.944 161.892 79.5497 161.701 79.203C161.51 78.8563 161.246 78.5877 160.908 78.397C160.579 78.1977 160.193 78.098 159.751 78.098C159.318 78.098 158.932 78.1977 158.594 78.397C158.256 78.5877 157.992 78.8607 157.801 79.216C157.61 79.5627 157.515 79.9613 157.515 80.412V80.62C157.515 81.0793 157.619 81.491 157.827 81.855C158.044 82.2103 158.343 82.4877 158.724 82.687C159.105 82.8863 159.543 82.986 160.037 82.986C160.444 82.986 160.813 82.9167 161.142 82.778C161.48 82.6393 161.775 82.4313 162.026 82.154L162.715 82.96C162.403 83.324 162.013 83.6013 161.545 83.792C161.086 83.9827 160.57 84.078 159.998 84.078ZM168.569 77.045C169.132 77.045 169.626 77.1533 170.051 77.37C170.484 77.5867 170.822 77.916 171.065 78.358C171.308 78.8 171.429 79.359 171.429 80.035V84H170.181V80.178C170.181 79.5107 170.016 79.008 169.687 78.67C169.366 78.332 168.911 78.163 168.322 78.163C167.88 78.163 167.494 78.2497 167.165 78.423C166.836 78.5963 166.58 78.852 166.398 79.19C166.225 79.528 166.138 79.9483 166.138 80.451V84H164.89V77.11H166.086V78.969L165.891 78.475C166.116 78.0243 166.463 77.6733 166.931 77.422C167.399 77.1707 167.945 77.045 168.569 77.045ZM176.755 86.6C176.122 86.6 175.507 86.509 174.909 86.327C174.319 86.1537 173.838 85.9023 173.466 85.573L174.064 84.611C174.384 84.8883 174.779 85.105 175.247 85.261C175.715 85.4257 176.204 85.508 176.716 85.508C177.53 85.508 178.128 85.3173 178.51 84.936C178.891 84.5547 179.082 83.974 179.082 83.194V81.738L179.212 80.373L179.147 78.995V77.11H180.33V83.064C180.33 84.2773 180.026 85.17 179.42 85.742C178.813 86.314 177.925 86.6 176.755 86.6ZM176.599 83.714C175.931 83.714 175.333 83.5753 174.805 83.298C174.285 83.012 173.869 82.6177 173.557 82.115C173.253 81.6123 173.102 81.0317 173.102 80.373C173.102 79.7057 173.253 79.125 173.557 78.631C173.869 78.1283 174.285 77.7383 174.805 77.461C175.333 77.1837 175.931 77.045 176.599 77.045C177.188 77.045 177.725 77.1663 178.211 77.409C178.696 77.643 179.082 78.007 179.368 78.501C179.662 78.995 179.81 79.619 179.81 80.373C179.81 81.1183 179.662 81.738 179.368 82.232C179.082 82.726 178.696 83.0987 178.211 83.35C177.725 83.5927 177.188 83.714 176.599 83.714ZM176.742 82.622C177.201 82.622 177.608 82.5267 177.964 82.336C178.319 82.1453 178.596 81.881 178.796 81.543C179.004 81.205 179.108 80.815 179.108 80.373C179.108 79.931 179.004 79.541 178.796 79.203C178.596 78.865 178.319 78.605 177.964 78.423C177.608 78.2323 177.201 78.137 176.742 78.137C176.282 78.137 175.871 78.2323 175.507 78.423C175.151 78.605 174.87 78.865 174.662 79.203C174.462 79.541 174.363 79.931 174.363 80.373C174.363 80.815 174.462 81.205 174.662 81.543C174.87 81.881 175.151 82.1453 175.507 82.336C175.871 82.5267 176.282 82.622 176.742 82.622ZM186.991 84V82.544L186.926 82.271V79.788C186.926 79.2593 186.77 78.852 186.458 78.566C186.155 78.2713 185.696 78.124 185.08 78.124C184.673 78.124 184.274 78.1933 183.884 78.332C183.494 78.462 183.165 78.6397 182.896 78.865L182.376 77.929C182.732 77.643 183.156 77.4263 183.65 77.279C184.153 77.123 184.677 77.045 185.223 77.045C186.168 77.045 186.896 77.2747 187.407 77.734C187.919 78.1933 188.174 78.8953 188.174 79.84V84H186.991ZM184.729 84.078C184.218 84.078 183.767 83.9913 183.377 83.818C182.996 83.6447 182.701 83.4063 182.493 83.103C182.285 82.791 182.181 82.44 182.181 82.05C182.181 81.6773 182.268 81.3393 182.441 81.036C182.623 80.7327 182.914 80.49 183.312 80.308C183.72 80.126 184.266 80.035 184.95 80.035H187.134V80.932H185.002C184.378 80.932 183.958 81.036 183.741 81.244C183.525 81.452 183.416 81.7033 183.416 81.998C183.416 82.336 183.551 82.609 183.819 82.817C184.088 83.0163 184.461 83.116 184.937 83.116C185.405 83.116 185.813 83.012 186.159 82.804C186.515 82.596 186.77 82.2927 186.926 81.894L187.173 82.752C187.009 83.1593 186.718 83.4843 186.302 83.727C185.886 83.961 185.362 84.078 184.729 84.078ZM194.163 77.045C194.726 77.045 195.22 77.1533 195.645 77.37C196.078 77.5867 196.416 77.916 196.659 78.358C196.901 78.8 197.023 79.359 197.023 80.035V84H195.775V80.178C195.775 79.5107 195.61 79.008 195.281 78.67C194.96 78.332 194.505 78.163 193.916 78.163C193.474 78.163 193.088 78.2497 192.759 78.423C192.429 78.5963 192.174 78.852 191.992 79.19C191.818 79.528 191.732 79.9483 191.732 80.451V84H190.484V77.11H191.68V78.969L191.485 78.475C191.71 78.0243 192.057 77.6733 192.525 77.422C192.993 77.1707 193.539 77.045 194.163 77.045ZM206.477 84.078C205.887 84.078 205.354 83.948 204.878 83.688C204.41 83.4193 204.037 83.025 203.76 82.505C203.491 81.985 203.357 81.335 203.357 80.555C203.357 79.775 203.495 79.125 203.773 78.605C204.059 78.085 204.436 77.695 204.904 77.435C205.38 77.175 205.905 77.045 206.477 77.045C207.153 77.045 207.751 77.1923 208.271 77.487C208.791 77.7817 209.202 78.1933 209.506 78.722C209.809 79.242 209.961 79.853 209.961 80.555C209.961 81.257 209.809 81.8723 209.506 82.401C209.202 82.9297 208.791 83.3413 208.271 83.636C207.751 83.9307 207.153 84.078 206.477 84.078ZM202.824 84V74.354H204.072V78.943L203.942 80.542L204.02 82.141V84H202.824ZM206.373 82.986C206.815 82.986 207.209 82.8863 207.556 82.687C207.911 82.4877 208.188 82.206 208.388 81.842C208.596 81.4693 208.7 81.0403 208.7 80.555C208.7 80.061 208.596 79.6363 208.388 79.281C208.188 78.917 207.911 78.6353 207.556 78.436C207.209 78.2367 206.815 78.137 206.373 78.137C205.939 78.137 205.545 78.2367 205.19 78.436C204.843 78.6353 204.566 78.917 204.358 79.281C204.158 79.6363 204.059 80.061 204.059 80.555C204.059 81.0403 204.158 81.4693 204.358 81.842C204.566 82.206 204.843 82.4877 205.19 82.687C205.545 82.8863 205.939 82.986 206.373 82.986ZM214.753 84.078C214.016 84.078 213.366 83.9263 212.803 83.623C212.248 83.3197 211.815 82.9037 211.503 82.375C211.2 81.8463 211.048 81.2397 211.048 80.555C211.048 79.8703 211.195 79.2637 211.49 78.735C211.793 78.2063 212.205 77.7947 212.725 77.5C213.254 77.1967 213.847 77.045 214.506 77.045C215.173 77.045 215.763 77.1923 216.274 77.487C216.785 77.7817 217.184 78.1977 217.47 78.735C217.765 79.2637 217.912 79.8833 217.912 80.594C217.912 80.646 217.908 80.7067 217.899 80.776C217.899 80.8453 217.895 80.9103 217.886 80.971H212.023V80.074H217.236L216.729 80.386C216.738 79.944 216.647 79.5497 216.456 79.203C216.265 78.8563 216.001 78.5877 215.663 78.397C215.334 78.1977 214.948 78.098 214.506 78.098C214.073 78.098 213.687 78.1977 213.349 78.397C213.011 78.5877 212.747 78.8607 212.556 79.216C212.365 79.5627 212.27 79.9613 212.27 80.412V80.62C212.27 81.0793 212.374 81.491 212.582 81.855C212.799 82.2103 213.098 82.4877 213.479 82.687C213.86 82.8863 214.298 82.986 214.792 82.986C215.199 82.986 215.568 82.9167 215.897 82.778C216.235 82.6393 216.53 82.4313 216.781 82.154L217.47 82.96C217.158 83.324 216.768 83.6013 216.3 83.792C215.841 83.9827 215.325 84.078 214.753 84.078ZM219.645 84V77.11H220.841V78.982L220.724 78.514C220.915 78.0373 221.235 77.6733 221.686 77.422C222.137 77.1707 222.691 77.045 223.35 77.045V78.254C223.298 78.2453 223.246 78.241 223.194 78.241C223.151 78.241 223.107 78.241 223.064 78.241C222.397 78.241 221.868 78.4403 221.478 78.839C221.088 79.2377 220.893 79.814 220.893 80.568V84H219.645ZM228.541 84.078C227.952 84.078 227.419 83.948 226.942 83.688C226.474 83.4193 226.101 83.025 225.824 82.505C225.555 81.985 225.421 81.335 225.421 80.555C225.421 79.775 225.56 79.125 225.837 78.605C226.123 78.085 226.5 77.695 226.968 77.435C227.445 77.175 227.969 77.045 228.541 77.045C229.217 77.045 229.815 77.1923 230.335 77.487C230.855 77.7817 231.267 78.1933 231.57 78.722C231.873 79.242 232.025 79.853 232.025 80.555C232.025 81.257 231.873 81.8723 231.57 82.401C231.267 82.9297 230.855 83.3413 230.335 83.636C229.815 83.9307 229.217 84.078 228.541 84.078ZM224.888 84V74.354H226.136V78.943L226.006 80.542L226.084 82.141V84H224.888ZM228.437 82.986C228.879 82.986 229.273 82.8863 229.62 82.687C229.975 82.4877 230.253 82.206 230.452 81.842C230.66 81.4693 230.764 81.0403 230.764 80.555C230.764 80.061 230.66 79.6363 230.452 79.281C230.253 78.917 229.975 78.6353 229.62 78.436C229.273 78.2367 228.879 78.137 228.437 78.137C228.004 78.137 227.609 78.2367 227.254 78.436C226.907 78.6353 226.63 78.917 226.422 79.281C226.223 79.6363 226.123 80.061 226.123 80.555C226.123 81.0403 226.223 81.4693 226.422 81.842C226.63 82.206 226.907 82.4877 227.254 82.687C227.609 82.8863 228.004 82.986 228.437 82.986ZM237.963 84V82.544L237.898 82.271V79.788C237.898 79.2593 237.742 78.852 237.43 78.566C237.127 78.2713 236.667 78.124 236.052 78.124C235.645 78.124 235.246 78.1933 234.856 78.332C234.466 78.462 234.137 78.6397 233.868 78.865L233.348 77.929C233.703 77.643 234.128 77.4263 234.622 77.279C235.125 77.123 235.649 77.045 236.195 77.045C237.14 77.045 237.868 77.2747 238.379 77.734C238.89 78.1933 239.146 78.8953 239.146 79.84V84H237.963ZM235.701 84.078C235.19 84.078 234.739 83.9913 234.349 83.818C233.968 83.6447 233.673 83.4063 233.465 83.103C233.257 82.791 233.153 82.44 233.153 82.05C233.153 81.6773 233.24 81.3393 233.413 81.036C233.595 80.7327 233.885 80.49 234.284 80.308C234.691 80.126 235.237 80.035 235.922 80.035H238.106V80.932H235.974C235.35 80.932 234.93 81.036 234.713 81.244C234.496 81.452 234.388 81.7033 234.388 81.998C234.388 82.336 234.522 82.609 234.791 82.817C235.06 83.0163 235.432 83.116 235.909 83.116C236.377 83.116 236.784 83.012 237.131 82.804C237.486 82.596 237.742 82.2927 237.898 81.894L238.145 82.752C237.98 83.1593 237.69 83.4843 237.274 83.727C236.858 83.961 236.334 84.078 235.701 84.078ZM244.471 86.6C243.839 86.6 243.223 86.509 242.625 86.327C242.036 86.1537 241.555 85.9023 241.182 85.573L241.78 84.611C242.101 84.8883 242.495 85.105 242.963 85.261C243.431 85.4257 243.921 85.508 244.432 85.508C245.247 85.508 245.845 85.3173 246.226 84.936C246.608 84.5547 246.798 83.974 246.798 83.194V81.738L246.928 80.373L246.863 78.995V77.11H248.046V83.064C248.046 84.2773 247.743 85.17 247.136 85.742C246.53 86.314 245.641 86.6 244.471 86.6ZM244.315 83.714C243.648 83.714 243.05 83.5753 242.521 83.298C242.001 83.012 241.585 82.6177 241.273 82.115C240.97 81.6123 240.818 81.0317 240.818 80.373C240.818 79.7057 240.97 79.125 241.273 78.631C241.585 78.1283 242.001 77.7383 242.521 77.461C243.05 77.1837 243.648 77.045 244.315 77.045C244.905 77.045 245.442 77.1663 245.927 77.409C246.413 77.643 246.798 78.007 247.084 78.501C247.379 78.995 247.526 79.619 247.526 80.373C247.526 81.1183 247.379 81.738 247.084 82.232C246.798 82.726 246.413 83.0987 245.927 83.35C245.442 83.5927 244.905 83.714 244.315 83.714ZM244.458 82.622C244.918 82.622 245.325 82.5267 245.68 82.336C246.036 82.1453 246.313 81.881 246.512 81.543C246.72 81.205 246.824 80.815 246.824 80.373C246.824 79.931 246.72 79.541 246.512 79.203C246.313 78.865 246.036 78.605 245.68 78.423C245.325 78.2323 244.918 78.137 244.458 78.137C243.999 78.137 243.587 78.2323 243.223 78.423C242.868 78.605 242.586 78.865 242.378 79.203C242.179 79.541 242.079 79.931 242.079 80.373C242.079 80.815 242.179 81.205 242.378 81.543C242.586 81.881 242.868 82.1453 243.223 82.336C243.587 82.5267 243.999 82.622 244.458 82.622ZM254.708 84V82.544L254.643 82.271V79.788C254.643 79.2593 254.487 78.852 254.175 78.566C253.872 78.2713 253.412 78.124 252.797 78.124C252.39 78.124 251.991 78.1933 251.601 78.332C251.211 78.462 250.882 78.6397 250.613 78.865L250.093 77.929C250.448 77.643 250.873 77.4263 251.367 77.279C251.87 77.123 252.394 77.045 252.94 77.045C253.885 77.045 254.613 77.2747 255.124 77.734C255.635 78.1933 255.891 78.8953 255.891 79.84V84H254.708ZM252.446 84.078C251.935 84.078 251.484 83.9913 251.094 83.818C250.713 83.6447 250.418 83.4063 250.21 83.103C250.002 82.791 249.898 82.44 249.898 82.05C249.898 81.6773 249.985 81.3393 250.158 81.036C250.34 80.7327 250.63 80.49 251.029 80.308C251.436 80.126 251.982 80.035 252.667 80.035H254.851V80.932H252.719C252.095 80.932 251.675 81.036 251.458 81.244C251.241 81.452 251.133 81.7033 251.133 81.998C251.133 82.336 251.267 82.609 251.536 82.817C251.805 83.0163 252.177 83.116 252.654 83.116C253.122 83.116 253.529 83.012 253.876 82.804C254.231 82.596 254.487 82.2927 254.643 81.894L254.89 82.752C254.725 83.1593 254.435 83.4843 254.019 83.727C253.603 83.961 253.079 84.078 252.446 84.078ZM258.201 84V77.11H259.449V84H258.201ZM258.825 75.784C258.582 75.784 258.378 75.706 258.214 75.55C258.058 75.394 257.98 75.2033 257.98 74.978C257.98 74.744 258.058 74.549 258.214 74.393C258.378 74.237 258.582 74.159 258.825 74.159C259.067 74.159 259.267 74.237 259.423 74.393C259.587 74.5403 259.67 74.7267 259.67 74.952C259.67 75.186 259.592 75.3853 259.436 75.55C259.28 75.706 259.076 75.784 258.825 75.784ZM18.183 105V95.354H19.431V105H18.183ZM26.0909 105V103.544L26.0259 103.271V100.788C26.0259 100.259 25.8699 99.852 25.5579 99.566C25.2545 99.2713 24.7952 99.124 24.1799 99.124C23.7725 99.124 23.3739 99.1933 22.9839 99.332C22.5939 99.462 22.2645 99.6397 21.9959 99.865L21.4759 98.929C21.8312 98.643 22.2559 98.4263 22.7499 98.279C23.2525 98.123 23.7769 98.045 24.3229 98.045C25.2675 98.045 25.9955 98.2747 26.5069 98.734C27.0182 99.1933 27.2739 99.8953 27.2739 100.84V105H26.0909ZM23.8289 105.078C23.3175 105.078 22.8669 104.991 22.4769 104.818C22.0955 104.645 21.8009 104.406 21.5929 104.103C21.3849 103.791 21.2809 103.44 21.2809 103.05C21.2809 102.677 21.3675 102.339 21.5409 102.036C21.7229 101.733 22.0132 101.49 22.4119 101.308C22.8192 101.126 23.3652 101.035 24.0499 101.035H26.2339V101.932H24.1019C23.4779 101.932 23.0575 102.036 22.8409 102.244C22.6242 102.452 22.5159 102.703 22.5159 102.998C22.5159 103.336 22.6502 103.609 22.9189 103.817C23.1875 104.016 23.5602 104.116 24.0369 104.116C24.5049 104.116 24.9122 104.012 25.2589 103.804C25.6142 103.596 25.8699 103.293 26.0259 102.894L26.2729 103.752C26.1082 104.159 25.8179 104.484 25.4019 104.727C24.9859 104.961 24.4615 105.078 23.8289 105.078ZM29.7554 107.6C29.4261 107.6 29.1054 107.544 28.7934 107.431C28.4814 107.327 28.2128 107.171 27.9874 106.963L28.5204 106.027C28.6938 106.192 28.8844 106.317 29.0924 106.404C29.3004 106.491 29.5214 106.534 29.7554 106.534C30.0588 106.534 30.3101 106.456 30.5094 106.3C30.7088 106.144 30.8951 105.867 31.0684 105.468L31.4974 104.519L31.6274 104.363L34.3314 98.11H35.5534L32.2124 105.689C32.0131 106.174 31.7878 106.556 31.5364 106.833C31.2938 107.11 31.0251 107.305 30.7304 107.418C30.4358 107.539 30.1108 107.6 29.7554 107.6ZM31.3934 105.221L28.2474 98.11H29.5474L32.2254 104.246L31.3934 105.221ZM40.7793 105V103.544L40.7143 103.271V100.788C40.7143 100.259 40.5583 99.852 40.2463 99.566C39.943 99.2713 39.4837 99.124 38.8683 99.124C38.461 99.124 38.0623 99.1933 37.6723 99.332C37.2823 99.462 36.953 99.6397 36.6843 99.865L36.1643 98.929C36.5197 98.643 36.9443 98.4263 37.4383 98.279C37.941 98.123 38.4653 98.045 39.0113 98.045C39.956 98.045 40.684 98.2747 41.1953 98.734C41.7067 99.1933 41.9623 99.8953 41.9623 100.84V105H40.7793ZM38.5173 105.078C38.006 105.078 37.5553 104.991 37.1653 104.818C36.784 104.645 36.4893 104.406 36.2813 104.103C36.0733 103.791 35.9693 103.44 35.9693 103.05C35.9693 102.677 36.056 102.339 36.2293 102.036C36.4113 101.733 36.7017 101.49 37.1003 101.308C37.5077 101.126 38.0537 101.035 38.7383 101.035H40.9223V101.932H38.7903C38.1663 101.932 37.746 102.036 37.5293 102.244C37.3127 102.452 37.2043 102.703 37.2043 102.998C37.2043 103.336 37.3387 103.609 37.6073 103.817C37.876 104.016 38.2487 104.116 38.7253 104.116C39.1933 104.116 39.6007 104.012 39.9473 103.804C40.3027 103.596 40.5583 103.293 40.7143 102.894L40.9613 103.752C40.7967 104.159 40.5063 104.484 40.0903 104.727C39.6743 104.961 39.15 105.078 38.5173 105.078ZM47.9509 98.045C48.5142 98.045 49.0082 98.1533 49.4329 98.37C49.8662 98.5867 50.2042 98.916 50.4469 99.358C50.6895 99.8 50.8109 100.359 50.8109 101.035V105H49.5629V101.178C49.5629 100.511 49.3982 100.008 49.0689 99.67C48.7482 99.332 48.2932 99.163 47.7039 99.163C47.2619 99.163 46.8762 99.2497 46.5469 99.423C46.2175 99.5963 45.9619 99.852 45.7799 100.19C45.6065 100.528 45.5199 100.948 45.5199 101.451V105H44.2719V98.11H45.4679V99.969L45.2729 99.475C45.4982 99.0243 45.8449 98.6733 46.3129 98.422C46.7809 98.1707 47.3269 98.045 47.9509 98.045ZM57.3975 105V103.544L57.3325 103.271V100.788C57.3325 100.259 57.1765 99.852 56.8645 99.566C56.5612 99.2713 56.1018 99.124 55.4865 99.124C55.0792 99.124 54.6805 99.1933 54.2905 99.332C53.9005 99.462 53.5712 99.6397 53.3025 99.865L52.7825 98.929C53.1378 98.643 53.5625 98.4263 54.0565 98.279C54.5592 98.123 55.0835 98.045 55.6295 98.045C56.5742 98.045 57.3022 98.2747 57.8135 98.734C58.3248 99.1933 58.5805 99.8953 58.5805 100.84V105H57.3975ZM55.1355 105.078C54.6242 105.078 54.1735 104.991 53.7835 104.818C53.4022 104.645 53.1075 104.406 52.8995 104.103C52.6915 103.791 52.5875 103.44 52.5875 103.05C52.5875 102.677 52.6742 102.339 52.8475 102.036C53.0295 101.733 53.3198 101.49 53.7185 101.308C54.1258 101.126 54.6718 101.035 55.3565 101.035H57.5405V101.932H55.4085C54.7845 101.932 54.3642 102.036 54.1475 102.244C53.9308 102.452 53.8225 102.703 53.8225 102.998C53.8225 103.336 53.9568 103.609 54.2255 103.817C54.4942 104.016 54.8668 104.116 55.3435 104.116C55.8115 104.116 56.2188 104.012 56.5655 103.804C56.9208 103.596 57.1765 103.293 57.3325 102.894L57.5795 103.752C57.4148 104.159 57.1245 104.484 56.7085 104.727C56.2925 104.961 55.7682 105.078 55.1355 105.078ZM64.569 98.045C65.1324 98.045 65.6264 98.1533 66.051 98.37C66.4844 98.5867 66.8224 98.916 67.065 99.358C67.3077 99.8 67.429 100.359 67.429 101.035V105H66.181V101.178C66.181 100.511 66.0164 100.008 65.687 99.67C65.3664 99.332 64.9114 99.163 64.322 99.163C63.88 99.163 63.4944 99.2497 63.165 99.423C62.8357 99.5963 62.58 99.852 62.398 100.19C62.2247 100.528 62.138 100.948 62.138 101.451V105H60.89V98.11H62.086V99.969L61.891 99.475C62.1164 99.0243 62.463 98.6733 62.931 98.422C63.399 98.1707 63.945 98.045 64.569 98.045ZM76.0769 105.078C75.4095 105.078 74.8115 104.931 74.2829 104.636C73.7629 104.341 73.3512 103.93 73.0479 103.401C72.7445 102.872 72.5929 102.257 72.5929 101.555C72.5929 100.853 72.7445 100.242 73.0479 99.722C73.3512 99.1933 73.7629 98.7817 74.2829 98.487C74.8115 98.1923 75.4095 98.045 76.0769 98.045C76.6575 98.045 77.1819 98.175 77.6499 98.435C78.1179 98.695 78.4905 99.085 78.7679 99.605C79.0539 100.125 79.1969 100.775 79.1969 101.555C79.1969 102.335 79.0582 102.985 78.7809 103.505C78.5122 104.025 78.1439 104.419 77.6759 104.688C77.2079 104.948 76.6749 105.078 76.0769 105.078ZM76.1809 103.986C76.6142 103.986 77.0042 103.886 77.3509 103.687C77.7062 103.488 77.9835 103.206 78.1829 102.842C78.3909 102.469 78.4949 102.04 78.4949 101.555C78.4949 101.061 78.3909 100.636 78.1829 100.281C77.9835 99.917 77.7062 99.6353 77.3509 99.436C77.0042 99.2367 76.6142 99.137 76.1809 99.137C75.7389 99.137 75.3445 99.2367 74.9979 99.436C74.6512 99.6353 74.3739 99.917 74.1659 100.281C73.9579 100.636 73.8539 101.061 73.8539 101.555C73.8539 102.04 73.9579 102.469 74.1659 102.842C74.3739 103.206 74.6512 103.488 74.9979 103.687C75.3445 103.886 75.7389 103.986 76.1809 103.986ZM78.5339 105V103.141L78.6119 101.542L78.4819 99.943V95.354H79.7299V105H78.5339ZM86.3682 105V103.544L86.3032 103.271V100.788C86.3032 100.259 86.1472 99.852 85.8352 99.566C85.5319 99.2713 85.0725 99.124 84.4572 99.124C84.0499 99.124 83.6512 99.1933 83.2612 99.332C82.8712 99.462 82.5419 99.6397 82.2732 99.865L81.7532 98.929C82.1085 98.643 82.5332 98.4263 83.0272 98.279C83.5299 98.123 84.0542 98.045 84.6002 98.045C85.5449 98.045 86.2729 98.2747 86.7842 98.734C87.2955 99.1933 87.5512 99.8953 87.5512 100.84V105H86.3682ZM84.1062 105.078C83.5949 105.078 83.1442 104.991 82.7542 104.818C82.3729 104.645 82.0782 104.406 81.8702 104.103C81.6622 103.791 81.5582 103.44 81.5582 103.05C81.5582 102.677 81.6449 102.339 81.8182 102.036C82.0002 101.733 82.2905 101.49 82.6892 101.308C83.0965 101.126 83.6425 101.035 84.3272 101.035H86.5112V101.932H84.3792C83.7552 101.932 83.3349 102.036 83.1182 102.244C82.9015 102.452 82.7932 102.703 82.7932 102.998C82.7932 103.336 82.9275 103.609 83.1962 103.817C83.4649 104.016 83.8375 104.116 84.3142 104.116C84.7822 104.116 85.1895 104.012 85.5362 103.804C85.8915 103.596 86.1472 103.293 86.3032 102.894L86.5502 103.752C86.3855 104.159 86.0952 104.484 85.6792 104.727C85.2632 104.961 84.7389 105.078 84.1062 105.078ZM89.8607 105V98.11H91.0567V99.982L90.9397 99.514C91.1304 99.0373 91.4511 98.6733 91.9017 98.422C92.3524 98.1707 92.9071 98.045 93.5657 98.045V99.254C93.5137 99.2453 93.4617 99.241 93.4097 99.241C93.3664 99.241 93.3231 99.241 93.2797 99.241C92.6124 99.241 92.0837 99.4403 91.6937 99.839C91.3037 100.238 91.1087 100.814 91.1087 101.568V105H89.8607ZM98.0918 105.078C97.5024 105.078 96.9824 104.97 96.5318 104.753C96.0898 104.536 95.7431 104.207 95.4918 103.765C95.2491 103.314 95.1278 102.751 95.1278 102.075V98.11H96.3758V101.932C96.3758 102.608 96.5361 103.115 96.8568 103.453C97.1861 103.791 97.6454 103.96 98.2348 103.96C98.6681 103.96 99.0451 103.873 99.3658 103.7C99.6864 103.518 99.9334 103.258 100.107 102.92C100.28 102.573 100.367 102.157 100.367 101.672V98.11H101.615V105H100.432V103.141L100.627 103.635C100.401 104.094 100.063 104.45 99.6128 104.701C99.1621 104.952 98.6551 105.078 98.0918 105.078ZM103.991 105V98.11H105.187V99.982L105.07 99.514C105.26 99.0373 105.581 98.6733 106.032 98.422C106.482 98.1707 107.037 98.045 107.696 98.045V99.254C107.644 99.2453 107.592 99.241 107.54 99.241C107.496 99.241 107.453 99.241 107.41 99.241C106.742 99.241 106.214 99.4403 105.824 99.839C105.434 100.238 105.239 100.814 105.239 101.568V105H103.991ZM113.003 105V103.544L112.938 103.271V100.788C112.938 100.259 112.782 99.852 112.47 99.566C112.167 99.2713 111.707 99.124 111.092 99.124C110.685 99.124 110.286 99.1933 109.896 99.332C109.506 99.462 109.177 99.6397 108.908 99.865L108.388 98.929C108.743 98.643 109.168 98.4263 109.662 98.279C110.165 98.123 110.689 98.045 111.235 98.045C112.18 98.045 112.908 98.2747 113.419 98.734C113.93 99.1933 114.186 99.8953 114.186 100.84V105H113.003ZM110.741 105.078C110.23 105.078 109.779 104.991 109.389 104.818C109.008 104.645 108.713 104.406 108.505 104.103C108.297 103.791 108.193 103.44 108.193 103.05C108.193 102.677 108.28 102.339 108.453 102.036C108.635 101.733 108.925 101.49 109.324 101.308C109.731 101.126 110.277 101.035 110.962 101.035H113.146V101.932H111.014C110.39 101.932 109.97 102.036 109.753 102.244C109.536 102.452 109.428 102.703 109.428 102.998C109.428 103.336 109.562 103.609 109.831 103.817C110.1 104.016 110.472 104.116 110.949 104.116C111.417 104.116 111.824 104.012 112.171 103.804C112.526 103.596 112.782 103.293 112.938 102.894L113.185 103.752C113.02 104.159 112.73 104.484 112.314 104.727C111.898 104.961 111.374 105.078 110.741 105.078ZM118.862 105.078C118.168 105.078 117.631 104.892 117.25 104.519C116.868 104.146 116.678 103.613 116.678 102.92V96.602H117.926V102.868C117.926 103.241 118.017 103.527 118.199 103.726C118.389 103.925 118.658 104.025 119.005 104.025C119.395 104.025 119.72 103.917 119.98 103.7L120.37 104.597C120.179 104.762 119.949 104.883 119.681 104.961C119.421 105.039 119.148 105.078 118.862 105.078ZM115.508 99.137V98.11H119.902V99.137H115.508ZM127.346 105.078C126.774 105.078 126.228 105 125.708 104.844C125.196 104.688 124.793 104.497 124.499 104.272L125.019 103.284C125.313 103.483 125.677 103.652 126.111 103.791C126.544 103.93 126.986 103.999 127.437 103.999C128.017 103.999 128.433 103.917 128.685 103.752C128.945 103.587 129.075 103.358 129.075 103.063C129.075 102.846 128.997 102.677 128.841 102.556C128.685 102.435 128.477 102.344 128.217 102.283C127.965 102.222 127.684 102.17 127.372 102.127C127.06 102.075 126.748 102.014 126.436 101.945C126.124 101.867 125.838 101.763 125.578 101.633C125.318 101.494 125.11 101.308 124.954 101.074C124.798 100.831 124.72 100.511 124.72 100.112C124.72 99.696 124.837 99.332 125.071 99.02C125.305 98.708 125.634 98.4697 126.059 98.305C126.492 98.1317 127.003 98.045 127.593 98.045C128.043 98.045 128.498 98.1013 128.958 98.214C129.426 98.318 129.807 98.4697 130.102 98.669L129.569 99.657C129.257 99.449 128.932 99.306 128.594 99.228C128.256 99.15 127.918 99.111 127.58 99.111C127.034 99.111 126.626 99.202 126.358 99.384C126.089 99.5573 125.955 99.7827 125.955 100.06C125.955 100.294 126.033 100.476 126.189 100.606C126.353 100.727 126.561 100.823 126.813 100.892C127.073 100.961 127.359 101.022 127.671 101.074C127.983 101.117 128.295 101.178 128.607 101.256C128.919 101.325 129.2 101.425 129.452 101.555C129.712 101.685 129.92 101.867 130.076 102.101C130.24 102.335 130.323 102.647 130.323 103.037C130.323 103.453 130.201 103.813 129.959 104.116C129.716 104.419 129.374 104.658 128.932 104.831C128.49 104.996 127.961 105.078 127.346 105.078ZM134.95 105.078C134.214 105.078 133.564 104.926 133 104.623C132.446 104.32 132.012 103.904 131.7 103.375C131.397 102.846 131.245 102.24 131.245 101.555C131.245 100.87 131.393 100.264 131.687 99.735C131.991 99.2063 132.402 98.7947 132.922 98.5C133.451 98.1967 134.045 98.045 134.703 98.045C135.371 98.045 135.96 98.1923 136.471 98.487C136.983 98.7817 137.381 99.1977 137.667 99.735C137.962 100.264 138.109 100.883 138.109 101.594C138.109 101.646 138.105 101.707 138.096 101.776C138.096 101.845 138.092 101.91 138.083 101.971H132.22V101.074H137.433L136.926 101.386C136.935 100.944 136.844 100.55 136.653 100.203C136.463 99.8563 136.198 99.5877 135.86 99.397C135.531 99.1977 135.145 99.098 134.703 99.098C134.27 99.098 133.884 99.1977 133.546 99.397C133.208 99.5877 132.944 99.8607 132.753 100.216C132.563 100.563 132.467 100.961 132.467 101.412V101.62C132.467 102.079 132.571 102.491 132.779 102.855C132.996 103.21 133.295 103.488 133.676 103.687C134.058 103.886 134.495 103.986 134.989 103.986C135.397 103.986 135.765 103.917 136.094 103.778C136.432 103.639 136.727 103.431 136.978 103.154L137.667 103.96C137.355 104.324 136.965 104.601 136.497 104.792C136.038 104.983 135.522 105.078 134.95 105.078ZM143.495 105.078C142.923 105.078 142.399 104.948 141.922 104.688C141.454 104.419 141.077 104.025 140.791 103.505C140.514 102.985 140.375 102.335 140.375 101.555C140.375 100.775 140.51 100.125 140.778 99.605C141.056 99.085 141.428 98.695 141.896 98.435C142.373 98.175 142.906 98.045 143.495 98.045C144.171 98.045 144.769 98.1923 145.289 98.487C145.809 98.7817 146.221 99.1933 146.524 99.722C146.828 100.242 146.979 100.853 146.979 101.555C146.979 102.257 146.828 102.872 146.524 103.401C146.221 103.93 145.809 104.341 145.289 104.636C144.769 104.931 144.171 105.078 143.495 105.078ZM139.842 107.522V98.11H141.038V99.969L140.96 101.568L141.09 103.167V107.522H139.842ZM143.391 103.986C143.833 103.986 144.228 103.886 144.574 103.687C144.93 103.488 145.207 103.206 145.406 102.842C145.614 102.469 145.718 102.04 145.718 101.555C145.718 101.061 145.614 100.636 145.406 100.281C145.207 99.917 144.93 99.6353 144.574 99.436C144.228 99.2367 143.833 99.137 143.391 99.137C142.958 99.137 142.564 99.2367 142.208 99.436C141.862 99.6353 141.584 99.917 141.376 100.281C141.177 100.636 141.077 101.061 141.077 101.555C141.077 102.04 141.177 102.469 141.376 102.842C141.584 103.206 141.862 103.488 142.208 103.687C142.564 103.886 142.958 103.986 143.391 103.986ZM151.772 105.078C151.035 105.078 150.385 104.926 149.822 104.623C149.267 104.32 148.834 103.904 148.522 103.375C148.218 102.846 148.067 102.24 148.067 101.555C148.067 100.87 148.214 100.264 148.509 99.735C148.812 99.2063 149.224 98.7947 149.744 98.5C150.272 98.1967 150.866 98.045 151.525 98.045C152.192 98.045 152.781 98.1923 153.293 98.487C153.804 98.7817 154.203 99.1977 154.489 99.735C154.783 100.264 154.931 100.883 154.931 101.594C154.931 101.646 154.926 101.707 154.918 101.776C154.918 101.845 154.913 101.91 154.905 101.971H149.042V101.074H154.255L153.748 101.386C153.756 100.944 153.665 100.55 153.475 100.203C153.284 99.8563 153.02 99.5877 152.682 99.397C152.352 99.1977 151.967 99.098 151.525 99.098C151.091 99.098 150.706 99.1977 150.368 99.397C150.03 99.5877 149.765 99.8607 149.575 100.216C149.384 100.563 149.289 100.961 149.289 101.412V101.62C149.289 102.079 149.393 102.491 149.601 102.855C149.817 103.21 150.116 103.488 150.498 103.687C150.879 103.886 151.317 103.986 151.811 103.986C152.218 103.986 152.586 103.917 152.916 103.778C153.254 103.639 153.548 103.431 153.8 103.154L154.489 103.96C154.177 104.324 153.787 104.601 153.319 104.792C152.859 104.983 152.344 105.078 151.772 105.078ZM156.663 105V98.11H157.859V99.982L157.742 99.514C157.933 99.0373 158.254 98.6733 158.704 98.422C159.155 98.1707 159.71 98.045 160.368 98.045V99.254C160.316 99.2453 160.264 99.241 160.212 99.241C160.169 99.241 160.126 99.241 160.082 99.241C159.415 99.241 158.886 99.4403 158.496 99.839C158.106 100.238 157.911 100.814 157.911 101.568V105H156.663ZM164.552 105.078C163.859 105.078 163.321 104.892 162.94 104.519C162.559 104.146 162.368 103.613 162.368 102.92V96.602H163.616V102.868C163.616 103.241 163.707 103.527 163.889 103.726C164.08 103.925 164.348 104.025 164.695 104.025C165.085 104.025 165.41 103.917 165.67 103.7L166.06 104.597C165.869 104.762 165.64 104.883 165.371 104.961C165.111 105.039 164.838 105.078 164.552 105.078ZM161.198 99.137V98.11H165.592V99.137H161.198ZM167.569 105V98.11H168.817V105H167.569ZM168.193 96.784C167.95 96.784 167.746 96.706 167.582 96.55C167.426 96.394 167.348 96.2033 167.348 95.978C167.348 95.744 167.426 95.549 167.582 95.393C167.746 95.237 167.95 95.159 168.193 95.159C168.435 95.159 168.635 95.237 168.791 95.393C168.955 95.5403 169.038 95.7267 169.038 95.952C169.038 96.186 168.96 96.3853 168.804 96.55C168.648 96.706 168.444 96.784 168.193 96.784ZM178.344 105.078C177.772 105.078 177.247 104.948 176.771 104.688C176.303 104.419 175.926 104.025 175.64 103.505C175.362 102.985 175.224 102.335 175.224 101.555C175.224 100.775 175.358 100.125 175.627 99.605C175.904 99.085 176.277 98.695 176.745 98.435C177.221 98.175 177.754 98.045 178.344 98.045C179.02 98.045 179.618 98.1923 180.138 98.487C180.658 98.7817 181.069 99.1933 181.373 99.722C181.676 100.242 181.828 100.853 181.828 101.555C181.828 102.257 181.676 102.872 181.373 103.401C181.069 103.93 180.658 104.341 180.138 104.636C179.618 104.931 179.02 105.078 178.344 105.078ZM174.691 107.522V98.11H175.887V99.969L175.809 101.568L175.939 103.167V107.522H174.691ZM178.24 103.986C178.682 103.986 179.076 103.886 179.423 103.687C179.778 103.488 180.055 103.206 180.255 102.842C180.463 102.469 180.567 102.04 180.567 101.555C180.567 101.061 180.463 100.636 180.255 100.281C180.055 99.917 179.778 99.6353 179.423 99.436C179.076 99.2367 178.682 99.137 178.24 99.137C177.806 99.137 177.412 99.2367 177.057 99.436C176.71 99.6353 176.433 99.917 176.225 100.281C176.025 100.636 175.926 101.061 175.926 101.555C175.926 102.04 176.025 102.469 176.225 102.842C176.433 103.206 176.71 103.488 177.057 103.687C177.412 103.886 177.806 103.986 178.24 103.986ZM186.62 105.078C185.883 105.078 185.233 104.926 184.67 104.623C184.115 104.32 183.682 103.904 183.37 103.375C183.067 102.846 182.915 102.24 182.915 101.555C182.915 100.87 183.062 100.264 183.357 99.735C183.66 99.2063 184.072 98.7947 184.592 98.5C185.121 98.1967 185.714 98.045 186.373 98.045C187.04 98.045 187.63 98.1923 188.141 98.487C188.652 98.7817 189.051 99.1977 189.337 99.735C189.632 100.264 189.779 100.883 189.779 101.594C189.779 101.646 189.775 101.707 189.766 101.776C189.766 101.845 189.762 101.91 189.753 101.971H183.89V101.074H189.103L188.596 101.386C188.605 100.944 188.514 100.55 188.323 100.203C188.132 99.8563 187.868 99.5877 187.53 99.397C187.201 99.1977 186.815 99.098 186.373 99.098C185.94 99.098 185.554 99.1977 185.216 99.397C184.878 99.5877 184.614 99.8607 184.423 100.216C184.232 100.563 184.137 100.961 184.137 101.412V101.62C184.137 102.079 184.241 102.491 184.449 102.855C184.666 103.21 184.965 103.488 185.346 103.687C185.727 103.886 186.165 103.986 186.659 103.986C187.066 103.986 187.435 103.917 187.764 103.778C188.102 103.639 188.397 103.431 188.648 103.154L189.337 103.96C189.025 104.324 188.635 104.601 188.167 104.792C187.708 104.983 187.192 105.078 186.62 105.078ZM200.131 98.045C200.686 98.045 201.175 98.1533 201.6 98.37C202.025 98.5867 202.354 98.916 202.588 99.358C202.831 99.8 202.952 100.359 202.952 101.035V105H201.704V101.178C201.704 100.511 201.548 100.008 201.236 99.67C200.924 99.332 200.486 99.163 199.923 99.163C199.507 99.163 199.143 99.2497 198.831 99.423C198.519 99.5963 198.276 99.852 198.103 100.19C197.938 100.528 197.856 100.948 197.856 101.451V105H196.608V101.178C196.608 100.511 196.452 100.008 196.14 99.67C195.837 99.332 195.399 99.163 194.827 99.163C194.42 99.163 194.06 99.2497 193.748 99.423C193.436 99.5963 193.193 99.852 193.02 100.19C192.847 100.528 192.76 100.948 192.76 101.451V105H191.512V98.11H192.708V99.943L192.513 99.475C192.73 99.0243 193.063 98.6733 193.514 98.422C193.965 98.1707 194.489 98.045 195.087 98.045C195.746 98.045 196.313 98.2097 196.79 98.539C197.267 98.8597 197.579 99.3493 197.726 100.008L197.219 99.8C197.427 99.2713 197.791 98.8467 198.311 98.526C198.831 98.2053 199.438 98.045 200.131 98.045ZM209.525 105V103.544L209.46 103.271V100.788C209.46 100.259 209.304 99.852 208.992 99.566C208.689 99.2713 208.23 99.124 207.614 99.124C207.207 99.124 206.808 99.1933 206.418 99.332C206.028 99.462 205.699 99.6397 205.43 99.865L204.91 98.929C205.266 98.643 205.69 98.4263 206.184 98.279C206.687 98.123 207.211 98.045 207.757 98.045C208.702 98.045 209.43 98.2747 209.941 98.734C210.453 99.1933 210.708 99.8953 210.708 100.84V105H209.525ZM207.263 105.078C206.752 105.078 206.301 104.991 205.911 104.818C205.53 104.645 205.235 104.406 205.027 104.103C204.819 103.791 204.715 103.44 204.715 103.05C204.715 102.677 204.802 102.339 204.975 102.036C205.157 101.733 205.448 101.49 205.846 101.308C206.254 101.126 206.8 101.035 207.484 101.035H209.668V101.932H207.536C206.912 101.932 206.492 102.036 206.275 102.244C206.059 102.452 205.95 102.703 205.95 102.998C205.95 103.336 206.085 103.609 206.353 103.817C206.622 104.016 206.995 104.116 207.471 104.116C207.939 104.116 208.347 104.012 208.693 103.804C209.049 103.596 209.304 103.293 209.46 102.894L209.707 103.752C209.543 104.159 209.252 104.484 208.836 104.727C208.42 104.961 207.896 105.078 207.263 105.078ZM215.865 105.078C215.198 105.078 214.6 104.931 214.071 104.636C213.551 104.341 213.139 103.93 212.836 103.401C212.533 102.872 212.381 102.257 212.381 101.555C212.381 100.853 212.533 100.242 212.836 99.722C213.139 99.1933 213.551 98.7817 214.071 98.487C214.6 98.1923 215.198 98.045 215.865 98.045C216.446 98.045 216.97 98.175 217.438 98.435C217.906 98.695 218.279 99.085 218.556 99.605C218.842 100.125 218.985 100.775 218.985 101.555C218.985 102.335 218.846 102.985 218.569 103.505C218.3 104.025 217.932 104.419 217.464 104.688C216.996 104.948 216.463 105.078 215.865 105.078ZM215.969 103.986C216.402 103.986 216.792 103.886 217.139 103.687C217.494 103.488 217.772 103.206 217.971 102.842C218.179 102.469 218.283 102.04 218.283 101.555C218.283 101.061 218.179 100.636 217.971 100.281C217.772 99.917 217.494 99.6353 217.139 99.436C216.792 99.2367 216.402 99.137 215.969 99.137C215.527 99.137 215.133 99.2367 214.786 99.436C214.439 99.6353 214.162 99.917 213.954 100.281C213.746 100.636 213.642 101.061 213.642 101.555C213.642 102.04 213.746 102.469 213.954 102.842C214.162 103.206 214.439 103.488 214.786 103.687C215.133 103.886 215.527 103.986 215.969 103.986ZM218.322 105V103.141L218.4 101.542L218.27 99.943V95.354H219.518V105H218.322ZM226.156 105V103.544L226.091 103.271V100.788C226.091 100.259 225.935 99.852 225.623 99.566C225.32 99.2713 224.861 99.124 224.245 99.124C223.838 99.124 223.439 99.1933 223.049 99.332C222.659 99.462 222.33 99.6397 222.061 99.865L221.541 98.929C221.897 98.643 222.321 98.4263 222.815 98.279C223.318 98.123 223.842 98.045 224.388 98.045C225.333 98.045 226.061 98.2747 226.572 98.734C227.084 99.1933 227.339 99.8953 227.339 100.84V105H226.156ZM223.894 105.078C223.383 105.078 222.932 104.991 222.542 104.818C222.161 104.645 221.866 104.406 221.658 104.103C221.45 103.791 221.346 103.44 221.346 103.05C221.346 102.677 221.433 102.339 221.606 102.036C221.788 101.733 222.079 101.49 222.477 101.308C222.885 101.126 223.431 101.035 224.115 101.035H226.299V101.932H224.167C223.543 101.932 223.123 102.036 222.906 102.244C222.69 102.452 222.581 102.703 222.581 102.998C222.581 103.336 222.716 103.609 222.984 103.817C223.253 104.016 223.626 104.116 224.102 104.116C224.57 104.116 224.978 104.012 225.324 103.804C225.68 103.596 225.935 103.293 226.091 102.894L226.338 103.752C226.174 104.159 225.883 104.484 225.467 104.727C225.051 104.961 224.527 105.078 223.894 105.078ZM238.268 98.045C238.822 98.045 239.312 98.1533 239.737 98.37C240.161 98.5867 240.491 98.916 240.725 99.358C240.967 99.8 241.089 100.359 241.089 101.035V105H239.841V101.178C239.841 100.511 239.685 100.008 239.373 99.67C239.061 99.332 238.623 99.163 238.06 99.163C237.644 99.163 237.28 99.2497 236.968 99.423C236.656 99.5963 236.413 99.852 236.24 100.19C236.075 100.528 235.993 100.948 235.993 101.451V105H234.745V101.178C234.745 100.511 234.589 100.008 234.277 99.67C233.973 99.332 233.536 99.163 232.964 99.163C232.556 99.163 232.197 99.2497 231.885 99.423C231.573 99.5963 231.33 99.852 231.157 100.19C230.983 100.528 230.897 100.948 230.897 101.451V105H229.649V98.11H230.845V99.943L230.65 99.475C230.866 99.0243 231.2 98.6733 231.651 98.422C232.101 98.1707 232.626 98.045 233.224 98.045C233.882 98.045 234.45 98.2097 234.927 98.539C235.403 98.8597 235.715 99.3493 235.863 100.008L235.356 99.8C235.564 99.2713 235.928 98.8467 236.448 98.526C236.968 98.2053 237.574 98.045 238.268 98.045ZM19.197 124.336L19.223 122.737L23.188 119.11H24.696L21.654 122.1L20.978 122.672L19.197 124.336ZM18.183 126V116.354H19.431V126H18.183ZM23.448 126L20.744 122.646L21.55 121.645L24.982 126H23.448ZM28.9824 126.078C28.2458 126.078 27.5958 125.926 27.0324 125.623C26.4778 125.32 26.0444 124.904 25.7324 124.375C25.4291 123.846 25.2774 123.24 25.2774 122.555C25.2774 121.87 25.4248 121.264 25.7194 120.735C26.0228 120.206 26.4344 119.795 26.9544 119.5C27.4831 119.197 28.0768 119.045 28.7354 119.045C29.4028 119.045 29.9921 119.192 30.5034 119.487C31.0148 119.782 31.4134 120.198 31.6994 120.735C31.9941 121.264 32.1414 121.883 32.1414 122.594C32.1414 122.646 32.1371 122.707 32.1284 122.776C32.1284 122.845 32.1241 122.91 32.1154 122.971H26.2524V122.074H31.4654L30.9584 122.386C30.9671 121.944 30.8761 121.55 30.6854 121.203C30.4948 120.856 30.2304 120.588 29.8924 120.397C29.5631 120.198 29.1774 120.098 28.7354 120.098C28.3021 120.098 27.9164 120.198 27.5784 120.397C27.2404 120.588 26.9761 120.861 26.7854 121.216C26.5948 121.563 26.4994 121.961 26.4994 122.412V122.62C26.4994 123.079 26.6034 123.491 26.8114 123.855C27.0281 124.21 27.3271 124.488 27.7084 124.687C28.0898 124.886 28.5274 124.986 29.0214 124.986C29.4288 124.986 29.7971 124.917 30.1264 124.778C30.4644 124.639 30.7591 124.431 31.0104 124.154L31.6994 124.96C31.3874 125.324 30.9974 125.601 30.5294 125.792C30.0701 125.983 29.5544 126.078 28.9824 126.078ZM37.5274 126.078C36.9381 126.078 36.4051 125.948 35.9284 125.688C35.4604 125.419 35.0877 125.025 34.8104 124.505C34.5417 123.985 34.4074 123.335 34.4074 122.555C34.4074 121.775 34.5461 121.125 34.8234 120.605C35.1094 120.085 35.4864 119.695 35.9544 119.435C36.4311 119.175 36.9554 119.045 37.5274 119.045C38.2034 119.045 38.8014 119.192 39.3214 119.487C39.8414 119.782 40.2531 120.193 40.5564 120.722C40.8597 121.242 41.0114 121.853 41.0114 122.555C41.0114 123.257 40.8597 123.872 40.5564 124.401C40.2531 124.93 39.8414 125.341 39.3214 125.636C38.8014 125.931 38.2034 126.078 37.5274 126.078ZM33.8744 126V116.354H35.1224V120.943L34.9924 122.542L35.0704 124.141V126H33.8744ZM37.4234 124.986C37.8654 124.986 38.2597 124.886 38.6064 124.687C38.9617 124.488 39.2391 124.206 39.4384 123.842C39.6464 123.469 39.7504 123.04 39.7504 122.555C39.7504 122.061 39.6464 121.636 39.4384 121.281C39.2391 120.917 38.9617 120.635 38.6064 120.436C38.2597 120.237 37.8654 120.137 37.4234 120.137C36.9901 120.137 36.5957 120.237 36.2404 120.436C35.8937 120.635 35.6164 120.917 35.4084 121.281C35.2091 121.636 35.1094 122.061 35.1094 122.555C35.1094 123.04 35.2091 123.469 35.4084 123.842C35.6164 124.206 35.8937 124.488 36.2404 124.687C36.5957 124.886 36.9901 124.986 37.4234 124.986ZM46.9493 126V124.544L46.8843 124.271V121.788C46.8843 121.259 46.7283 120.852 46.4163 120.566C46.1129 120.271 45.6536 120.124 45.0383 120.124C44.6309 120.124 44.2323 120.193 43.8423 120.332C43.4523 120.462 43.1229 120.64 42.8543 120.865L42.3343 119.929C42.6896 119.643 43.1143 119.426 43.6083 119.279C44.1109 119.123 44.6353 119.045 45.1813 119.045C46.1259 119.045 46.8539 119.275 47.3653 119.734C47.8766 120.193 48.1323 120.895 48.1323 121.84V126H46.9493ZM44.6873 126.078C44.1759 126.078 43.7253 125.991 43.3353 125.818C42.9539 125.645 42.6593 125.406 42.4513 125.103C42.2433 124.791 42.1393 124.44 42.1393 124.05C42.1393 123.677 42.2259 123.339 42.3993 123.036C42.5813 122.733 42.8716 122.49 43.2703 122.308C43.6776 122.126 44.2236 122.035 44.9083 122.035H47.0923V122.932H44.9603C44.3363 122.932 43.9159 123.036 43.6993 123.244C43.4826 123.452 43.3743 123.703 43.3743 123.998C43.3743 124.336 43.5086 124.609 43.7773 124.817C44.0459 125.016 44.4186 125.116 44.8953 125.116C45.3633 125.116 45.7706 125.012 46.1173 124.804C46.4726 124.596 46.7283 124.293 46.8843 123.894L47.1313 124.752C46.9666 125.159 46.6763 125.484 46.2603 125.727C45.8443 125.961 45.3199 126.078 44.6873 126.078ZM51.4558 124.336L51.4818 122.737L55.4468 119.11H56.9548L53.9128 122.1L53.2368 122.672L51.4558 124.336ZM50.4418 126V116.354H51.6898V126H50.4418ZM55.7068 126L53.0028 122.646L53.8088 121.645L57.2408 126H55.7068ZM62.6026 126V124.544L62.5376 124.271V121.788C62.5376 121.259 62.3816 120.852 62.0696 120.566C61.7662 120.271 61.3069 120.124 60.6916 120.124C60.2842 120.124 59.8856 120.193 59.4956 120.332C59.1056 120.462 58.7762 120.64 58.5076 120.865L57.9876 119.929C58.3429 119.643 58.7676 119.426 59.2616 119.279C59.7642 119.123 60.2886 119.045 60.8346 119.045C61.7792 119.045 62.5072 119.275 63.0186 119.734C63.5299 120.193 63.7856 120.895 63.7856 121.84V126H62.6026ZM60.3406 126.078C59.8292 126.078 59.3786 125.991 58.9886 125.818C58.6072 125.645 58.3126 125.406 58.1046 125.103C57.8966 124.791 57.7926 124.44 57.7926 124.05C57.7926 123.677 57.8792 123.339 58.0526 123.036C58.2346 122.733 58.5249 122.49 58.9236 122.308C59.3309 122.126 59.8769 122.035 60.5616 122.035H62.7456V122.932H60.6136C59.9896 122.932 59.5692 123.036 59.3526 123.244C59.1359 123.452 59.0276 123.703 59.0276 123.998C59.0276 124.336 59.1619 124.609 59.4306 124.817C59.6992 125.016 60.0719 125.116 60.5486 125.116C61.0166 125.116 61.4239 125.012 61.7706 124.804C62.1259 124.596 62.3816 124.293 62.5376 123.894L62.7846 124.752C62.6199 125.159 62.3296 125.484 61.9136 125.727C61.4976 125.961 60.9732 126.078 60.3406 126.078ZM66.0951 126V119.11H67.2911V120.982L67.1741 120.514C67.3648 120.037 67.6854 119.673 68.1361 119.422C68.5868 119.171 69.1414 119.045 69.8001 119.045V120.254C69.7481 120.245 69.6961 120.241 69.6441 120.241C69.6008 120.241 69.5574 120.241 69.5141 120.241C68.8468 120.241 68.3181 120.44 67.9281 120.839C67.5381 121.238 67.3431 121.814 67.3431 122.568V126H66.0951ZM75.1075 126V124.544L75.0425 124.271V121.788C75.0425 121.259 74.8865 120.852 74.5745 120.566C74.2711 120.271 73.8118 120.124 73.1965 120.124C72.7891 120.124 72.3905 120.193 72.0005 120.332C71.6105 120.462 71.2811 120.64 71.0125 120.865L70.4925 119.929C70.8478 119.643 71.2725 119.426 71.7665 119.279C72.2691 119.123 72.7935 119.045 73.3395 119.045C74.2841 119.045 75.0121 119.275 75.5235 119.734C76.0348 120.193 76.2905 120.895 76.2905 121.84V126H75.1075ZM72.8455 126.078C72.3341 126.078 71.8835 125.991 71.4935 125.818C71.1121 125.645 70.8175 125.406 70.6095 125.103C70.4015 124.791 70.2975 124.44 70.2975 124.05C70.2975 123.677 70.3841 123.339 70.5575 123.036C70.7395 122.733 71.0298 122.49 71.4285 122.308C71.8358 122.126 72.3818 122.035 73.0665 122.035H75.2505V122.932H73.1185C72.4945 122.932 72.0741 123.036 71.8575 123.244C71.6408 123.452 71.5325 123.703 71.5325 123.998C71.5325 124.336 71.6668 124.609 71.9355 124.817C72.2041 125.016 72.5768 125.116 73.0535 125.116C73.5215 125.116 73.9288 125.012 74.2755 124.804C74.6308 124.596 74.8865 124.293 75.0425 123.894L75.2895 124.752C75.1248 125.159 74.8345 125.484 74.4185 125.727C74.0025 125.961 73.4781 126.078 72.8455 126.078ZM82.279 119.045C82.8423 119.045 83.3363 119.153 83.761 119.37C84.1943 119.587 84.5323 119.916 84.775 120.358C85.0177 120.8 85.139 121.359 85.139 122.035V126H83.891V122.178C83.891 121.511 83.7263 121.008 83.397 120.67C83.0763 120.332 82.6213 120.163 82.032 120.163C81.59 120.163 81.2043 120.25 80.875 120.423C80.5457 120.596 80.29 120.852 80.108 121.19C79.9347 121.528 79.848 121.948 79.848 122.451V126H78.6V119.11H79.796V120.969L79.601 120.475C79.8263 120.024 80.173 119.673 80.641 119.422C81.109 119.171 81.655 119.045 82.279 119.045ZM86.9546 127.924L87.6046 125.298L87.7736 126.052C87.5223 126.052 87.31 125.974 87.1366 125.818C86.972 125.662 86.8896 125.45 86.8896 125.181C86.8896 124.921 86.972 124.709 87.1366 124.544C87.31 124.379 87.518 124.297 87.7606 124.297C88.012 124.297 88.2156 124.384 88.3716 124.557C88.5276 124.722 88.6056 124.93 88.6056 125.181C88.6056 125.268 88.597 125.354 88.5796 125.441C88.571 125.519 88.5493 125.614 88.5146 125.727C88.4886 125.831 88.4453 125.961 88.3846 126.117L87.7736 127.924H86.9546ZM97.5381 126.078C96.9661 126.078 96.4418 125.948 95.9651 125.688C95.4971 125.419 95.1201 125.025 94.8341 124.505C94.5568 123.985 94.4181 123.335 94.4181 122.555C94.4181 121.775 94.5525 121.125 94.8211 120.605C95.0985 120.085 95.4711 119.695 95.9391 119.435C96.4158 119.175 96.9488 119.045 97.5381 119.045C98.2141 119.045 98.8121 119.192 99.3321 119.487C99.8521 119.782 100.264 120.193 100.567 120.722C100.87 121.242 101.022 121.853 101.022 122.555C101.022 123.257 100.87 123.872 100.567 124.401C100.264 124.93 99.8521 125.341 99.3321 125.636C98.8121 125.931 98.2141 126.078 97.5381 126.078ZM93.8851 128.522V119.11H95.0811V120.969L95.0031 122.568L95.1331 124.167V128.522H93.8851ZM97.4341 124.986C97.8761 124.986 98.2705 124.886 98.6171 124.687C98.9725 124.488 99.2498 124.206 99.4491 123.842C99.6571 123.469 99.7611 123.04 99.7611 122.555C99.7611 122.061 99.6571 121.636 99.4491 121.281C99.2498 120.917 98.9725 120.635 98.6171 120.436C98.2705 120.237 97.8761 120.137 97.4341 120.137C97.0008 120.137 96.6065 120.237 96.2511 120.436C95.9045 120.635 95.6271 120.917 95.4191 121.281C95.2198 121.636 95.1201 122.061 95.1201 122.555C95.1201 123.04 95.2198 123.469 95.4191 123.842C95.6271 124.206 95.9045 124.488 96.2511 124.687C96.6065 124.886 97.0008 124.986 97.4341 124.986ZM105.697 126.078C105.004 126.078 104.389 125.926 103.851 125.623C103.314 125.32 102.889 124.904 102.577 124.375C102.265 123.838 102.109 123.231 102.109 122.555C102.109 121.87 102.265 121.264 102.577 120.735C102.889 120.206 103.314 119.795 103.851 119.5C104.389 119.197 105.004 119.045 105.697 119.045C106.382 119.045 106.993 119.197 107.53 119.5C108.076 119.795 108.501 120.206 108.804 120.735C109.116 121.255 109.272 121.862 109.272 122.555C109.272 123.24 109.116 123.846 108.804 124.375C108.501 124.904 108.076 125.32 107.53 125.623C106.993 125.926 106.382 126.078 105.697 126.078ZM105.697 124.986C106.139 124.986 106.534 124.886 106.88 124.687C107.236 124.488 107.513 124.206 107.712 123.842C107.912 123.469 108.011 123.04 108.011 122.555C108.011 122.061 107.912 121.636 107.712 121.281C107.513 120.917 107.236 120.635 106.88 120.436C106.534 120.237 106.139 120.137 105.697 120.137C105.255 120.137 104.861 120.237 104.514 120.436C104.168 120.635 103.89 120.917 103.682 121.281C103.474 121.636 103.37 122.061 103.37 122.555C103.37 123.04 103.474 123.469 103.682 123.842C103.89 124.206 104.168 124.488 104.514 124.687C104.861 124.886 105.255 124.986 105.697 124.986ZM110.998 126V116.354H112.246V126H110.998ZM114.629 126V119.11H115.877V126H114.629ZM115.253 117.784C115.011 117.784 114.807 117.706 114.642 117.55C114.486 117.394 114.408 117.203 114.408 116.978C114.408 116.744 114.486 116.549 114.642 116.393C114.807 116.237 115.011 116.159 115.253 116.159C115.496 116.159 115.695 116.237 115.851 116.393C116.016 116.54 116.098 116.727 116.098 116.952C116.098 117.186 116.02 117.385 115.864 117.55C115.708 117.706 115.505 117.784 115.253 117.784ZM120.236 126.078C119.664 126.078 119.118 126 118.598 125.844C118.087 125.688 117.684 125.497 117.389 125.272L117.909 124.284C118.204 124.483 118.568 124.652 119.001 124.791C119.434 124.93 119.876 124.999 120.327 124.999C120.908 124.999 121.324 124.917 121.575 124.752C121.835 124.587 121.965 124.358 121.965 124.063C121.965 123.846 121.887 123.677 121.731 123.556C121.575 123.435 121.367 123.344 121.107 123.283C120.856 123.222 120.574 123.17 120.262 123.127C119.95 123.075 119.638 123.014 119.326 122.945C119.014 122.867 118.728 122.763 118.468 122.633C118.208 122.494 118 122.308 117.844 122.074C117.688 121.831 117.61 121.511 117.61 121.112C117.61 120.696 117.727 120.332 117.961 120.02C118.195 119.708 118.524 119.47 118.949 119.305C119.382 119.132 119.894 119.045 120.483 119.045C120.934 119.045 121.389 119.101 121.848 119.214C122.316 119.318 122.697 119.47 122.992 119.669L122.459 120.657C122.147 120.449 121.822 120.306 121.484 120.228C121.146 120.15 120.808 120.111 120.47 120.111C119.924 120.111 119.517 120.202 119.248 120.384C118.979 120.557 118.845 120.783 118.845 121.06C118.845 121.294 118.923 121.476 119.079 121.606C119.244 121.727 119.452 121.823 119.703 121.892C119.963 121.961 120.249 122.022 120.561 122.074C120.873 122.117 121.185 122.178 121.497 122.256C121.809 122.325 122.091 122.425 122.342 122.555C122.602 122.685 122.81 122.867 122.966 123.101C123.131 123.335 123.213 123.647 123.213 124.037C123.213 124.453 123.092 124.813 122.849 125.116C122.606 125.419 122.264 125.658 121.822 125.831C121.38 125.996 120.851 126.078 120.236 126.078ZM124.773 126V119.11H126.021V126H124.773ZM125.397 117.784C125.154 117.784 124.951 117.706 124.786 117.55C124.63 117.394 124.552 117.203 124.552 116.978C124.552 116.744 124.63 116.549 124.786 116.393C124.951 116.237 125.154 116.159 125.397 116.159C125.64 116.159 125.839 116.237 125.995 116.393C126.16 116.54 126.242 116.727 126.242 116.952C126.242 117.186 126.164 117.385 126.008 117.55C125.852 117.706 125.648 117.784 125.397 117.784ZM127.91 127.924L128.56 125.298L128.729 126.052C128.477 126.052 128.265 125.974 128.092 125.818C127.927 125.662 127.845 125.45 127.845 125.181C127.845 124.921 127.927 124.709 128.092 124.544C128.265 124.379 128.473 124.297 128.716 124.297C128.967 124.297 129.171 124.384 129.327 124.557C129.483 124.722 129.561 124.93 129.561 125.181C129.561 125.268 129.552 125.354 129.535 125.441C129.526 125.519 129.504 125.614 129.47 125.727C129.444 125.831 129.4 125.961 129.34 126.117L128.729 127.924H127.91ZM137.687 126.078C137.02 126.078 136.422 125.931 135.893 125.636C135.373 125.341 134.962 124.93 134.658 124.401C134.355 123.872 134.203 123.257 134.203 122.555C134.203 121.853 134.355 121.242 134.658 120.722C134.962 120.193 135.373 119.782 135.893 119.487C136.422 119.192 137.02 119.045 137.687 119.045C138.268 119.045 138.792 119.175 139.26 119.435C139.728 119.695 140.101 120.085 140.378 120.605C140.664 121.125 140.807 121.775 140.807 122.555C140.807 123.335 140.669 123.985 140.391 124.505C140.123 125.025 139.754 125.419 139.286 125.688C138.818 125.948 138.285 126.078 137.687 126.078ZM137.791 124.986C138.225 124.986 138.615 124.886 138.961 124.687C139.317 124.488 139.594 124.206 139.793 123.842C140.001 123.469 140.105 123.04 140.105 122.555C140.105 122.061 140.001 121.636 139.793 121.281C139.594 120.917 139.317 120.635 138.961 120.436C138.615 120.237 138.225 120.137 137.791 120.137C137.349 120.137 136.955 120.237 136.608 120.436C136.262 120.635 135.984 120.917 135.776 121.281C135.568 121.636 135.464 122.061 135.464 122.555C135.464 123.04 135.568 123.469 135.776 123.842C135.984 124.206 136.262 124.488 136.608 124.687C136.955 124.886 137.349 124.986 137.791 124.986ZM140.144 126V124.141L140.222 122.542L140.092 120.943V116.354H141.34V126H140.144ZM147.979 126V124.544L147.914 124.271V121.788C147.914 121.259 147.758 120.852 147.446 120.566C147.142 120.271 146.683 120.124 146.068 120.124C145.66 120.124 145.262 120.193 144.872 120.332C144.482 120.462 144.152 120.64 143.884 120.865L143.364 119.929C143.719 119.643 144.144 119.426 144.638 119.279C145.14 119.123 145.665 119.045 146.211 119.045C147.155 119.045 147.883 119.275 148.395 119.734C148.906 120.193 149.162 120.895 149.162 121.84V126H147.979ZM145.717 126.078C145.205 126.078 144.755 125.991 144.365 125.818C143.983 125.645 143.689 125.406 143.481 125.103C143.273 124.791 143.169 124.44 143.169 124.05C143.169 123.677 143.255 123.339 143.429 123.036C143.611 122.733 143.901 122.49 144.3 122.308C144.707 122.126 145.253 122.035 145.938 122.035H148.122V122.932H145.99C145.366 122.932 144.945 123.036 144.729 123.244C144.512 123.452 144.404 123.703 144.404 123.998C144.404 124.336 144.538 124.609 144.807 124.817C145.075 125.016 145.448 125.116 145.925 125.116C146.393 125.116 146.8 125.012 147.147 124.804C147.502 124.596 147.758 124.293 147.914 123.894L148.161 124.752C147.996 125.159 147.706 125.484 147.29 125.727C146.874 125.961 146.349 126.078 145.717 126.078ZM155.15 119.045C155.713 119.045 156.207 119.153 156.632 119.37C157.065 119.587 157.403 119.916 157.646 120.358C157.889 120.8 158.01 121.359 158.01 122.035V126H156.762V122.178C156.762 121.511 156.597 121.008 156.268 120.67C155.947 120.332 155.492 120.163 154.903 120.163C154.461 120.163 154.075 120.25 153.746 120.423C153.417 120.596 153.161 120.852 152.979 121.19C152.806 121.528 152.719 121.948 152.719 122.451V126H151.471V119.11H152.667V120.969L152.472 120.475C152.697 120.024 153.044 119.673 153.512 119.422C153.98 119.171 154.526 119.045 155.15 119.045ZM166.177 126.078C165.484 126.078 164.946 125.892 164.565 125.519C164.184 125.146 163.993 124.613 163.993 123.92V117.602H165.241V123.868C165.241 124.241 165.332 124.527 165.514 124.726C165.705 124.925 165.973 125.025 166.32 125.025C166.71 125.025 167.035 124.917 167.295 124.7L167.685 125.597C167.494 125.762 167.265 125.883 166.996 125.961C166.736 126.039 166.463 126.078 166.177 126.078ZM162.823 120.137V119.11H167.217V120.137H162.823ZM169.194 126V119.11H170.442V126H169.194ZM169.818 117.784C169.575 117.784 169.371 117.706 169.207 117.55C169.051 117.394 168.973 117.203 168.973 116.978C168.973 116.744 169.051 116.549 169.207 116.393C169.371 116.237 169.575 116.159 169.818 116.159C170.06 116.159 170.26 116.237 170.416 116.393C170.58 116.54 170.663 116.727 170.663 116.952C170.663 117.186 170.585 117.385 170.429 117.55C170.273 117.706 170.069 117.784 169.818 117.784ZM181.444 119.045C181.998 119.045 182.488 119.153 182.913 119.37C183.337 119.587 183.667 119.916 183.901 120.358C184.143 120.8 184.265 121.359 184.265 122.035V126H183.017V122.178C183.017 121.511 182.861 121.008 182.549 120.67C182.237 120.332 181.799 120.163 181.236 120.163C180.82 120.163 180.456 120.25 180.144 120.423C179.832 120.596 179.589 120.852 179.416 121.19C179.251 121.528 179.169 121.948 179.169 122.451V126H177.921V122.178C177.921 121.511 177.765 121.008 177.453 120.67C177.149 120.332 176.712 120.163 176.14 120.163C175.732 120.163 175.373 120.25 175.061 120.423C174.749 120.596 174.506 120.852 174.333 121.19C174.159 121.528 174.073 121.948 174.073 122.451V126H172.825V119.11H174.021V120.943L173.826 120.475C174.042 120.024 174.376 119.673 174.827 119.422C175.277 119.171 175.802 119.045 176.4 119.045C177.058 119.045 177.626 119.21 178.103 119.539C178.579 119.86 178.891 120.349 179.039 121.008L178.532 120.8C178.74 120.271 179.104 119.847 179.624 119.526C180.144 119.205 180.75 119.045 181.444 119.045ZM198.671 119.045C199.226 119.045 199.715 119.153 200.14 119.37C200.565 119.587 200.894 119.916 201.128 120.358C201.371 120.8 201.492 121.359 201.492 122.035V126H200.244V122.178C200.244 121.511 200.088 121.008 199.776 120.67C199.464 120.332 199.026 120.163 198.463 120.163C198.047 120.163 197.683 120.25 197.371 120.423C197.059 120.596 196.816 120.852 196.643 121.19C196.478 121.528 196.396 121.948 196.396 122.451V126H195.148V122.178C195.148 121.511 194.992 121.008 194.68 120.67C194.377 120.332 193.939 120.163 193.367 120.163C192.96 120.163 192.6 120.25 192.288 120.423C191.976 120.596 191.733 120.852 191.56 121.19C191.387 121.528 191.3 121.948 191.3 122.451V126H190.052V119.11H191.248V120.943L191.053 120.475C191.27 120.024 191.603 119.673 192.054 119.422C192.505 119.171 193.029 119.045 193.627 119.045C194.286 119.045 194.853 119.21 195.33 119.539C195.807 119.86 196.119 120.349 196.266 121.008L195.759 120.8C195.967 120.271 196.331 119.847 196.851 119.526C197.371 119.205 197.978 119.045 198.671 119.045ZM206.856 126.078C206.12 126.078 205.47 125.926 204.906 125.623C204.352 125.32 203.918 124.904 203.606 124.375C203.303 123.846 203.151 123.24 203.151 122.555C203.151 121.87 203.299 121.264 203.593 120.735C203.897 120.206 204.308 119.795 204.828 119.5C205.357 119.197 205.951 119.045 206.609 119.045C207.277 119.045 207.866 119.192 208.377 119.487C208.889 119.782 209.287 120.198 209.573 120.735C209.868 121.264 210.015 121.883 210.015 122.594C210.015 122.646 210.011 122.707 210.002 122.776C210.002 122.845 209.998 122.91 209.989 122.971H204.126V122.074H209.339L208.832 122.386C208.841 121.944 208.75 121.55 208.559 121.203C208.369 120.856 208.104 120.588 207.766 120.397C207.437 120.198 207.051 120.098 206.609 120.098C206.176 120.098 205.79 120.198 205.452 120.397C205.114 120.588 204.85 120.861 204.659 121.216C204.469 121.563 204.373 121.961 204.373 122.412V122.62C204.373 123.079 204.477 123.491 204.685 123.855C204.902 124.21 205.201 124.488 205.582 124.687C205.964 124.886 206.401 124.986 206.895 124.986C207.303 124.986 207.671 124.917 208 124.778C208.338 124.639 208.633 124.431 208.884 124.154L209.573 124.96C209.261 125.324 208.871 125.601 208.403 125.792C207.944 125.983 207.428 126.078 206.856 126.078ZM214.595 126.078C213.928 126.078 213.33 125.931 212.801 125.636C212.281 125.341 211.87 124.93 211.566 124.401C211.263 123.872 211.111 123.257 211.111 122.555C211.111 121.853 211.263 121.242 211.566 120.722C211.87 120.193 212.281 119.782 212.801 119.487C213.33 119.192 213.928 119.045 214.595 119.045C215.176 119.045 215.7 119.175 216.168 119.435C216.636 119.695 217.009 120.085 217.286 120.605C217.572 121.125 217.715 121.775 217.715 122.555C217.715 123.335 217.577 123.985 217.299 124.505C217.031 125.025 216.662 125.419 216.194 125.688C215.726 125.948 215.193 126.078 214.595 126.078ZM214.699 124.986C215.133 124.986 215.523 124.886 215.869 124.687C216.225 124.488 216.502 124.206 216.701 123.842C216.909 123.469 217.013 123.04 217.013 122.555C217.013 122.061 216.909 121.636 216.701 121.281C216.502 120.917 216.225 120.635 215.869 120.436C215.523 120.237 215.133 120.137 214.699 120.137C214.257 120.137 213.863 120.237 213.516 120.436C213.17 120.635 212.892 120.917 212.684 121.281C212.476 121.636 212.372 122.061 212.372 122.555C212.372 123.04 212.476 123.469 212.684 123.842C212.892 124.206 213.17 124.488 213.516 124.687C213.863 124.886 214.257 124.986 214.699 124.986ZM217.052 126V124.141L217.13 122.542L217 120.943V116.354H218.248V126H217.052ZM220.61 126V119.11H221.858V126H220.61ZM221.234 117.784C220.991 117.784 220.787 117.706 220.623 117.55C220.467 117.394 220.389 117.203 220.389 116.978C220.389 116.744 220.467 116.549 220.623 116.393C220.787 116.237 220.991 116.159 221.234 116.159C221.476 116.159 221.676 116.237 221.832 116.393C221.996 116.54 222.079 116.727 222.079 116.952C222.079 117.186 222.001 117.385 221.845 117.55C221.689 117.706 221.485 117.784 221.234 117.784ZM226.217 126.078C225.645 126.078 225.099 126 224.579 125.844C224.067 125.688 223.664 125.497 223.37 125.272L223.89 124.284C224.184 124.483 224.548 124.652 224.982 124.791C225.415 124.93 225.857 124.999 226.308 124.999C226.888 124.999 227.304 124.917 227.556 124.752C227.816 124.587 227.946 124.358 227.946 124.063C227.946 123.846 227.868 123.677 227.712 123.556C227.556 123.435 227.348 123.344 227.088 123.283C226.836 123.222 226.555 123.17 226.243 123.127C225.931 123.075 225.619 123.014 225.307 122.945C224.995 122.867 224.709 122.763 224.449 122.633C224.189 122.494 223.981 122.308 223.825 122.074C223.669 121.831 223.591 121.511 223.591 121.112C223.591 120.696 223.708 120.332 223.942 120.02C224.176 119.708 224.505 119.47 224.93 119.305C225.363 119.132 225.874 119.045 226.464 119.045C226.914 119.045 227.369 119.101 227.829 119.214C228.297 119.318 228.678 119.47 228.973 119.669L228.44 120.657C228.128 120.449 227.803 120.306 227.465 120.228C227.127 120.15 226.789 120.111 226.451 120.111C225.905 120.111 225.497 120.202 225.229 120.384C224.96 120.557 224.826 120.783 224.826 121.06C224.826 121.294 224.904 121.476 225.06 121.606C225.224 121.727 225.432 121.823 225.684 121.892C225.944 121.961 226.23 122.022 226.542 122.074C226.854 122.117 227.166 122.178 227.478 122.256C227.79 122.325 228.071 122.425 228.323 122.555C228.583 122.685 228.791 122.867 228.947 123.101C229.111 123.335 229.194 123.647 229.194 124.037C229.194 124.453 229.072 124.813 228.83 125.116C228.587 125.419 228.245 125.658 227.803 125.831C227.361 125.996 226.832 126.078 226.217 126.078ZM231.052 126.078C230.81 126.078 230.602 125.996 230.428 125.831C230.255 125.658 230.168 125.441 230.168 125.181C230.168 124.921 230.255 124.709 230.428 124.544C230.602 124.379 230.81 124.297 231.052 124.297C231.286 124.297 231.486 124.379 231.65 124.544C231.824 124.709 231.91 124.921 231.91 125.181C231.91 125.441 231.824 125.658 231.65 125.831C231.486 125.996 231.286 126.078 231.052 126.078Z" fill="white" fill-opacity="0.8"/>
<circle cx="37" cy="36" r="20" fill="white" fill-opacity="0.1"/>
<path d="M44.965 32.521C44.988 32.347 45 32.173 45 32C45 29.621 42.857 27.712 40.479 28.035C39.786 26.802 38.466 26 37 26C35.534 26 34.214 26.802 33.521 28.035C31.138 27.712 29 29.621 29 32C29 32.173 29.012 32.347 29.035 32.521C27.802 33.215 27 34.535 27 36C27 37.465 27.802 38.785 29.035 39.479C29.0119 39.6517 29.0002 39.8258 29 40C29 42.379 31.138 44.283 33.521 43.965C34.214 45.198 35.534 46 37 46C38.466 46 39.786 45.198 40.479 43.965C42.857 44.283 45 42.379 45 40C45 39.827 44.988 39.653 44.965 39.479C46.198 38.785 47 37.465 47 36C47 34.535 46.198 33.215 44.965 32.521ZM35.955 40.416L32.288 36.702L33.712 35.298L35.969 37.584L40.296 33.29L41.704 34.71L35.955 40.416Z" fill="white" fill-opacity="0.5"/>
</svg>
