<svg width="300" height="160" viewBox="0 0 300 160" fill="none" xmlns="http://www.w3.org/2000/svg">
<rect width="300" height="160" rx="10" fill="#0C0E12"/>
<rect x="1" y="1" width="298" height="158" rx="9" stroke="white" stroke-opacity="0.07" stroke-width="2"/>
<path d="M76.72 43V31.2H72.08V29H83.96V31.2H79.32V43H76.72ZM85.6713 43V32.32H88.1713V43H85.6713ZM86.9313 30.56C86.4646 30.56 86.0779 30.4133 85.7713 30.12C85.4779 29.8267 85.3313 29.4733 85.3313 29.06C85.3313 28.6333 85.4779 28.28 85.7713 28C86.0779 27.7067 86.4646 27.56 86.9313 27.56C87.3979 27.56 87.7779 27.7 88.0713 27.98C88.3779 28.2467 88.5313 28.5867 88.5313 29C88.5313 29.44 88.3846 29.8133 88.0913 30.12C87.7979 30.4133 87.4113 30.56 86.9313 30.56ZM104.933 32.2C105.786 32.2 106.539 32.3667 107.193 32.7C107.859 33.0333 108.379 33.5467 108.753 34.24C109.126 34.92 109.313 35.8 109.313 36.88V43H106.813V37.2C106.813 36.2533 106.606 35.5467 106.193 35.08C105.779 34.6133 105.186 34.38 104.413 34.38C103.866 34.38 103.379 34.5 102.953 34.74C102.539 34.98 102.213 35.3333 101.973 35.8C101.746 36.2667 101.633 36.86 101.633 37.58V43H99.1325V37.2C99.1325 36.2533 98.9258 35.5467 98.5125 35.08C98.0992 34.6133 97.5058 34.38 96.7325 34.38C96.1858 34.38 95.6992 34.5 95.2725 34.74C94.8592 34.98 94.5325 35.3333 94.2925 35.8C94.0658 36.2667 93.9525 36.86 93.9525 37.58V43H91.4525V32.32H93.8325V35.16L93.4125 34.32C93.7725 33.6267 94.2925 33.1 94.9725 32.74C95.6658 32.38 96.4525 32.2 97.3325 32.2C98.3325 32.2 99.1992 32.4467 99.9325 32.94C100.679 33.4333 101.173 34.18 101.413 35.18L100.433 34.84C100.779 34.04 101.353 33.4 102.153 32.92C102.953 32.44 103.879 32.2 104.933 32.2ZM118.275 43V29H124.035C125.275 29 126.335 29.2 127.215 29.6C128.108 30 128.795 30.5733 129.275 31.32C129.755 32.0667 129.995 32.9533 129.995 33.98C129.995 35.0067 129.755 35.8933 129.275 36.64C128.795 37.3867 128.108 37.96 127.215 38.36C126.335 38.76 125.275 38.96 124.035 38.96H119.715L120.875 37.74V43H118.275ZM120.875 38.02L119.715 36.76H123.915C125.061 36.76 125.921 36.52 126.495 36.04C127.081 35.5467 127.375 34.86 127.375 33.98C127.375 33.0867 127.081 32.4 126.495 31.92C125.921 31.44 125.061 31.2 123.915 31.2H119.715L120.875 29.92V38.02ZM132.253 43V32.32H134.633V35.26L134.353 34.4C134.673 33.68 135.173 33.1333 135.853 32.76C136.547 32.3867 137.407 32.2 138.433 32.2V34.58C138.327 34.5533 138.227 34.54 138.133 34.54C138.04 34.5267 137.947 34.52 137.853 34.52C136.907 34.52 136.153 34.8 135.593 35.36C135.033 35.9067 134.753 36.7267 134.753 37.82V43H132.253ZM145.256 43.14C144.163 43.14 143.19 42.9067 142.336 42.44C141.483 41.96 140.81 41.3067 140.316 40.48C139.823 39.6533 139.576 38.7133 139.576 37.66C139.576 36.5933 139.823 35.6533 140.316 34.84C140.81 34.0133 141.483 33.3667 142.336 32.9C143.19 32.4333 144.163 32.2 145.256 32.2C146.363 32.2 147.343 32.4333 148.196 32.9C149.063 33.3667 149.736 34.0067 150.216 34.82C150.71 35.6333 150.956 36.58 150.956 37.66C150.956 38.7133 150.71 39.6533 150.216 40.48C149.736 41.3067 149.063 41.96 148.196 42.44C147.343 42.9067 146.363 43.14 145.256 43.14ZM145.256 41C145.87 41 146.416 40.8667 146.896 40.6C147.376 40.3333 147.75 39.9467 148.016 39.44C148.296 38.9333 148.436 38.34 148.436 37.66C148.436 36.9667 148.296 36.3733 148.016 35.88C147.75 35.3733 147.376 34.9867 146.896 34.72C146.416 34.4533 145.876 34.32 145.276 34.32C144.663 34.32 144.116 34.4533 143.636 34.72C143.17 34.9867 142.796 35.3733 142.516 35.88C142.236 36.3733 142.096 36.9667 142.096 37.66C142.096 38.34 142.236 38.9333 142.516 39.44C142.796 39.9467 143.17 40.3333 143.636 40.6C144.116 40.8667 144.656 41 145.256 41ZM153.687 43V31.72C153.687 30.6 154.014 29.7067 154.667 29.04C155.334 28.36 156.28 28.02 157.507 28.02C157.947 28.02 158.36 28.0667 158.747 28.16C159.147 28.2533 159.48 28.4 159.747 28.6L159.067 30.48C158.88 30.3333 158.667 30.2267 158.427 30.16C158.187 30.08 157.94 30.04 157.687 30.04C157.167 30.04 156.774 30.1867 156.507 30.48C156.24 30.76 156.107 31.1867 156.107 31.76V32.96L156.187 34.08V43H153.687ZM151.927 34.4V32.4H159.047V34.4H151.927ZM165.594 43.14C164.407 43.14 163.367 42.9067 162.474 42.44C161.594 41.96 160.907 41.3067 160.414 40.48C159.934 39.6533 159.694 38.7133 159.694 37.66C159.694 36.5933 159.927 35.6533 160.394 34.84C160.874 34.0133 161.527 33.3667 162.354 32.9C163.194 32.4333 164.147 32.2 165.214 32.2C166.254 32.2 167.18 32.4267 167.994 32.88C168.807 33.3333 169.447 33.9733 169.914 34.8C170.38 35.6267 170.614 36.6 170.614 37.72C170.614 37.8267 170.607 37.9467 170.594 38.08C170.594 38.2133 170.587 38.34 170.574 38.46H161.674V36.8H169.254L168.274 37.32C168.287 36.7067 168.16 36.1667 167.894 35.7C167.627 35.2333 167.26 34.8667 166.794 34.6C166.34 34.3333 165.814 34.2 165.214 34.2C164.6 34.2 164.06 34.3333 163.594 34.6C163.14 34.8667 162.78 35.24 162.514 35.72C162.26 36.1867 162.134 36.74 162.134 37.38V37.78C162.134 38.42 162.28 38.9867 162.574 39.48C162.867 39.9733 163.28 40.3533 163.814 40.62C164.347 40.8867 164.96 41.02 165.654 41.02C166.254 41.02 166.794 40.9267 167.274 40.74C167.754 40.5533 168.18 40.26 168.554 39.86L169.894 41.4C169.414 41.96 168.807 42.3933 168.074 42.7C167.354 42.9933 166.527 43.14 165.594 43.14ZM176.315 43.14C175.422 43.14 174.562 43.0267 173.735 42.8C172.922 42.56 172.275 42.2733 171.795 41.94L172.755 40.04C173.235 40.3467 173.808 40.6 174.475 40.8C175.142 41 175.808 41.1 176.475 41.1C177.262 41.1 177.828 40.9933 178.175 40.78C178.535 40.5667 178.715 40.28 178.715 39.92C178.715 39.6267 178.595 39.4067 178.355 39.26C178.115 39.1 177.802 38.98 177.415 38.9C177.028 38.82 176.595 38.7467 176.115 38.68C175.648 38.6133 175.175 38.5267 174.695 38.42C174.228 38.3 173.802 38.1333 173.415 37.92C173.028 37.6933 172.715 37.3933 172.475 37.02C172.235 36.6467 172.115 36.1533 172.115 35.54C172.115 34.86 172.308 34.2733 172.695 33.78C173.082 33.2733 173.622 32.8867 174.315 32.62C175.022 32.34 175.855 32.2 176.815 32.2C177.535 32.2 178.262 32.28 178.995 32.44C179.728 32.6 180.335 32.8267 180.815 33.12L179.855 35.02C179.348 34.7133 178.835 34.5067 178.315 34.4C177.808 34.28 177.302 34.22 176.795 34.22C176.035 34.22 175.468 34.3333 175.095 34.56C174.735 34.7867 174.555 35.0733 174.555 35.42C174.555 35.74 174.675 35.98 174.915 36.14C175.155 36.3 175.468 36.4267 175.855 36.52C176.242 36.6133 176.668 36.6933 177.135 36.76C177.615 36.8133 178.088 36.9 178.555 37.02C179.022 37.14 179.448 37.3067 179.835 37.52C180.235 37.72 180.555 38.0067 180.795 38.38C181.035 38.7533 181.155 39.24 181.155 39.84C181.155 40.5067 180.955 41.0867 180.555 41.58C180.168 42.0733 179.615 42.46 178.895 42.74C178.175 43.0067 177.315 43.14 176.315 43.14ZM183.308 43V32.32H185.808V43H183.308ZM184.568 30.56C184.101 30.56 183.715 30.4133 183.408 30.12C183.115 29.8267 182.968 29.4733 182.968 29.06C182.968 28.6333 183.115 28.28 183.408 28C183.715 27.7067 184.101 27.56 184.568 27.56C185.035 27.56 185.415 27.7 185.708 27.98C186.015 28.2467 186.168 28.5867 186.168 29C186.168 29.44 186.021 29.8133 185.728 30.12C185.435 30.4133 185.048 30.56 184.568 30.56ZM193.889 43.14C192.796 43.14 191.823 42.9067 190.969 42.44C190.116 41.96 189.443 41.3067 188.949 40.48C188.456 39.6533 188.209 38.7133 188.209 37.66C188.209 36.5933 188.456 35.6533 188.949 34.84C189.443 34.0133 190.116 33.3667 190.969 32.9C191.823 32.4333 192.796 32.2 193.889 32.2C194.996 32.2 195.976 32.4333 196.829 32.9C197.696 33.3667 198.369 34.0067 198.849 34.82C199.343 35.6333 199.589 36.58 199.589 37.66C199.589 38.7133 199.343 39.6533 198.849 40.48C198.369 41.3067 197.696 41.96 196.829 42.44C195.976 42.9067 194.996 43.14 193.889 43.14ZM193.889 41C194.503 41 195.049 40.8667 195.529 40.6C196.009 40.3333 196.383 39.9467 196.649 39.44C196.929 38.9333 197.069 38.34 197.069 37.66C197.069 36.9667 196.929 36.3733 196.649 35.88C196.383 35.3733 196.009 34.9867 195.529 34.72C195.049 34.4533 194.509 34.32 193.909 34.32C193.296 34.32 192.749 34.4533 192.269 34.72C191.803 34.9867 191.429 35.3733 191.149 35.88C190.869 36.3733 190.729 36.9667 190.729 37.66C190.729 38.34 190.869 38.9333 191.149 39.44C191.429 39.9467 191.803 40.3333 192.269 40.6C192.749 40.8667 193.289 41 193.889 41ZM208.04 32.2C208.893 32.2 209.653 32.3667 210.32 32.7C211 33.0333 211.533 33.5467 211.92 34.24C212.307 34.92 212.5 35.8 212.5 36.88V43H210V37.2C210 36.2533 209.773 35.5467 209.32 35.08C208.88 34.6133 208.26 34.38 207.46 34.38C206.873 34.38 206.353 34.5 205.9 34.74C205.447 34.98 205.093 35.34 204.84 35.82C204.6 36.2867 204.48 36.88 204.48 37.6V43H201.98V32.32H204.36V35.2L203.94 34.32C204.313 33.64 204.853 33.12 205.56 32.76C206.28 32.3867 207.107 32.2 208.04 32.2ZM222.251 43V40.84L222.111 40.38V36.6C222.111 35.8667 221.891 35.3 221.451 34.9C221.011 34.4867 220.345 34.28 219.451 34.28C218.851 34.28 218.258 34.3733 217.671 34.56C217.098 34.7467 216.611 35.0067 216.211 35.34L215.231 33.52C215.805 33.08 216.485 32.7533 217.271 32.54C218.071 32.3133 218.898 32.2 219.751 32.2C221.298 32.2 222.491 32.5733 223.331 33.32C224.185 34.0533 224.611 35.1933 224.611 36.74V43H222.251ZM218.891 43.14C218.091 43.14 217.391 43.0067 216.791 42.74C216.191 42.46 215.725 42.08 215.391 41.6C215.071 41.1067 214.911 40.5533 214.911 39.94C214.911 39.34 215.051 38.8 215.331 38.32C215.625 37.84 216.098 37.46 216.751 37.18C217.405 36.9 218.271 36.76 219.351 36.76H222.451V38.42H219.531C218.678 38.42 218.105 38.56 217.811 38.84C217.518 39.1067 217.371 39.44 217.371 39.84C217.371 40.2933 217.551 40.6533 217.911 40.92C218.271 41.1867 218.771 41.32 219.411 41.32C220.025 41.32 220.571 41.18 221.051 40.9C221.545 40.62 221.898 40.2067 222.111 39.66L222.531 41.16C222.291 41.7867 221.858 42.2733 221.231 42.62C220.618 42.9667 219.838 43.14 218.891 43.14ZM227.82 43V28.16H230.32V43H227.82Z" fill="white"/>
<path d="M18.365 84V74.9H22.2C23.1707 74.9 24.0243 75.0907 24.761 75.472C25.5063 75.8533 26.0827 76.3863 26.49 77.071C26.906 77.7557 27.114 78.5487 27.114 79.45C27.114 80.3513 26.906 81.1443 26.49 81.829C26.0827 82.5137 25.5063 83.0467 24.761 83.428C24.0243 83.8093 23.1707 84 22.2 84H18.365ZM19.665 82.869H22.122C22.876 82.869 23.526 82.726 24.072 82.44C24.6267 82.154 25.0557 81.7553 25.359 81.244C25.6623 80.724 25.814 80.126 25.814 79.45C25.814 78.7653 25.6623 78.1673 25.359 77.656C25.0557 77.1447 24.6267 76.746 24.072 76.46C23.526 76.174 22.876 76.031 22.122 76.031H19.665V82.869ZM28.9232 84V77.11H30.1712V84H28.9232ZM29.5472 75.784C29.3046 75.784 29.1009 75.706 28.9362 75.55C28.7802 75.394 28.7022 75.2033 28.7022 74.978C28.7022 74.744 28.7802 74.549 28.9362 74.393C29.1009 74.237 29.3046 74.159 29.5472 74.159C29.7899 74.159 29.9892 74.237 30.1452 74.393C30.3099 74.5403 30.3922 74.7267 30.3922 74.952C30.3922 75.186 30.3142 75.3853 30.1582 75.55C30.0022 75.706 29.7986 75.784 29.5472 75.784ZM35.4011 84.078C34.7338 84.078 34.1358 83.9307 33.6071 83.636C33.0871 83.3413 32.6754 82.9297 32.3721 82.401C32.0688 81.8723 31.9171 81.257 31.9171 80.555C31.9171 79.853 32.0688 79.242 32.3721 78.722C32.6754 78.1933 33.0871 77.7817 33.6071 77.487C34.1358 77.1923 34.7338 77.045 35.4011 77.045C35.9818 77.045 36.5061 77.175 36.9741 77.435C37.4421 77.695 37.8148 78.085 38.0921 78.605C38.3781 79.125 38.5211 79.775 38.5211 80.555C38.5211 81.335 38.3824 81.985 38.1051 82.505C37.8364 83.025 37.4681 83.4193 37.0001 83.688C36.5321 83.948 35.9991 84.078 35.4011 84.078ZM35.5051 82.986C35.9384 82.986 36.3284 82.8863 36.6751 82.687C37.0304 82.4877 37.3078 82.206 37.5071 81.842C37.7151 81.4693 37.8191 81.0403 37.8191 80.555C37.8191 80.061 37.7151 79.6363 37.5071 79.281C37.3078 78.917 37.0304 78.6353 36.6751 78.436C36.3284 78.2367 35.9384 78.137 35.5051 78.137C35.0631 78.137 34.6688 78.2367 34.3221 78.436C33.9754 78.6353 33.6981 78.917 33.4901 79.281C33.2821 79.6363 33.1781 80.061 33.1781 80.555C33.1781 81.0403 33.2821 81.4693 33.4901 81.842C33.6981 82.206 33.9754 82.4877 34.3221 82.687C34.6688 82.8863 35.0631 82.986 35.5051 82.986ZM37.8581 84V82.141L37.9361 80.542L37.8061 78.943V74.354H39.0541V84H37.8581ZM44.3144 84.078C43.7251 84.078 43.2051 83.9697 42.7544 83.753C42.3124 83.5363 41.9658 83.207 41.7144 82.765C41.4718 82.3143 41.3504 81.751 41.3504 81.075V77.11H42.5984V80.932C42.5984 81.608 42.7588 82.115 43.0794 82.453C43.4088 82.791 43.8681 82.96 44.4574 82.96C44.8908 82.96 45.2678 82.8733 45.5884 82.7C45.9091 82.518 46.1561 82.258 46.3294 81.92C46.5028 81.5733 46.5894 81.1573 46.5894 80.672V77.11H47.8374V84H46.6544V82.141L46.8494 82.635C46.6241 83.0943 46.2861 83.4497 45.8354 83.701C45.3848 83.9523 44.8778 84.078 44.3144 84.078ZM51.2273 82.336L51.2533 80.737L55.2183 77.11H56.7263L53.6843 80.1L53.0083 80.672L51.2273 82.336ZM50.2133 84V74.354H51.4613V84H50.2133ZM55.4783 84L52.7743 80.646L53.5803 79.645L57.0123 84H55.4783ZM60.9961 84.078C60.4067 84.078 59.8867 83.9697 59.4361 83.753C58.9941 83.5363 58.6474 83.207 58.3961 82.765C58.1534 82.3143 58.0321 81.751 58.0321 81.075V77.11H59.2801V80.932C59.2801 81.608 59.4404 82.115 59.7611 82.453C60.0904 82.791 60.5497 82.96 61.1391 82.96C61.5724 82.96 61.9494 82.8733 62.2701 82.7C62.5907 82.518 62.8377 82.258 63.0111 81.92C63.1844 81.5733 63.2711 81.1573 63.2711 80.672V77.11H64.5191V84H63.3361V82.141L63.5311 82.635C63.3057 83.0943 62.9677 83.4497 62.5171 83.701C62.0664 83.9523 61.5594 84.078 60.9961 84.078ZM70.5739 77.045C71.1372 77.045 71.6312 77.1533 72.0559 77.37C72.4892 77.5867 72.8272 77.916 73.0699 78.358C73.3126 78.8 73.4339 79.359 73.4339 80.035V84H72.1859V80.178C72.1859 79.5107 72.0212 79.008 71.6919 78.67C71.3712 78.332 70.9162 78.163 70.3269 78.163C69.8849 78.163 69.4992 78.2497 69.1699 78.423C68.8406 78.5963 68.5849 78.852 68.4029 79.19C68.2296 79.528 68.1429 79.9483 68.1429 80.451V84H66.8949V77.11H68.0909V78.969L67.8959 78.475C68.1212 78.0243 68.4679 77.6733 68.9359 77.422C69.4039 77.1707 69.9499 77.045 70.5739 77.045ZM78.7595 86.6C78.1269 86.6 77.5115 86.509 76.9135 86.327C76.3242 86.1537 75.8432 85.9023 75.4705 85.573L76.0685 84.611C76.3892 84.8883 76.7835 85.105 77.2515 85.261C77.7195 85.4257 78.2092 85.508 78.7205 85.508C79.5352 85.508 80.1332 85.3173 80.5145 84.936C80.8959 84.5547 81.0865 83.974 81.0865 83.194V81.738L81.2165 80.373L81.1515 78.995V77.11H82.3345V83.064C82.3345 84.2773 82.0312 85.17 81.4245 85.742C80.8179 86.314 79.9295 86.6 78.7595 86.6ZM78.6035 83.714C77.9362 83.714 77.3382 83.5753 76.8095 83.298C76.2895 83.012 75.8735 82.6177 75.5615 82.115C75.2582 81.6123 75.1065 81.0317 75.1065 80.373C75.1065 79.7057 75.2582 79.125 75.5615 78.631C75.8735 78.1283 76.2895 77.7383 76.8095 77.461C77.3382 77.1837 77.9362 77.045 78.6035 77.045C79.1929 77.045 79.7302 77.1663 80.2155 77.409C80.7009 77.643 81.0865 78.007 81.3725 78.501C81.6672 78.995 81.8145 79.619 81.8145 80.373C81.8145 81.1183 81.6672 81.738 81.3725 82.232C81.0865 82.726 80.7009 83.0987 80.2155 83.35C79.7302 83.5927 79.1929 83.714 78.6035 83.714ZM78.7465 82.622C79.2059 82.622 79.6132 82.5267 79.9685 82.336C80.3239 82.1453 80.6012 81.881 80.8005 81.543C81.0085 81.205 81.1125 80.815 81.1125 80.373C81.1125 79.931 81.0085 79.541 80.8005 79.203C80.6012 78.865 80.3239 78.605 79.9685 78.423C79.6132 78.2323 79.2059 78.137 78.7465 78.137C78.2872 78.137 77.8755 78.2323 77.5115 78.423C77.1562 78.605 76.8745 78.865 76.6665 79.203C76.4672 79.541 76.3675 79.931 76.3675 80.373C76.3675 80.815 76.4672 81.205 76.6665 81.543C76.8745 81.881 77.1562 82.1453 77.5115 82.336C77.8755 82.5267 78.2872 82.622 78.7465 82.622ZM91.1613 84.078C90.468 84.078 89.8527 83.9263 89.3153 83.623C88.778 83.3197 88.3533 82.9037 88.0413 82.375C87.7293 81.8377 87.5733 81.231 87.5733 80.555C87.5733 79.8703 87.7293 79.2637 88.0413 78.735C88.3533 78.2063 88.778 77.7947 89.3153 77.5C89.8527 77.1967 90.468 77.045 91.1613 77.045C91.846 77.045 92.457 77.1967 92.9943 77.5C93.5403 77.7947 93.965 78.2063 94.2683 78.735C94.5803 79.255 94.7363 79.8617 94.7363 80.555C94.7363 81.2397 94.5803 81.8463 94.2683 82.375C93.965 82.9037 93.5403 83.3197 92.9943 83.623C92.457 83.9263 91.846 84.078 91.1613 84.078ZM91.1613 82.986C91.6033 82.986 91.9977 82.8863 92.3443 82.687C92.6997 82.4877 92.977 82.206 93.1763 81.842C93.3757 81.4693 93.4753 81.0403 93.4753 80.555C93.4753 80.061 93.3757 79.6363 93.1763 79.281C92.977 78.917 92.6997 78.6353 92.3443 78.436C91.9977 78.2367 91.6033 78.137 91.1613 78.137C90.7193 78.137 90.325 78.2367 89.9783 78.436C89.6317 78.6353 89.3543 78.917 89.1463 79.281C88.9383 79.6363 88.8343 80.061 88.8343 80.555C88.8343 81.0403 88.9383 81.4693 89.1463 81.842C89.3543 82.206 89.6317 82.4877 89.9783 82.687C90.325 82.8863 90.7193 82.986 91.1613 82.986ZM96.4623 84V74.354H97.7103V84H96.4623ZM103.161 84.078C102.424 84.078 101.774 83.9263 101.211 83.623C100.656 83.3197 100.223 82.9037 99.9112 82.375C99.6078 81.8463 99.4562 81.2397 99.4562 80.555C99.4562 79.8703 99.6035 79.2637 99.8982 78.735C100.201 78.2063 100.613 77.7947 101.133 77.5C101.662 77.1967 102.255 77.045 102.914 77.045C103.581 77.045 104.171 77.1923 104.682 77.487C105.193 77.7817 105.592 78.1977 105.878 78.735C106.173 79.2637 106.32 79.8833 106.32 80.594C106.32 80.646 106.316 80.7067 106.307 80.776C106.307 80.8453 106.303 80.9103 106.294 80.971H100.431V80.074H105.644L105.137 80.386C105.146 79.944 105.055 79.5497 104.864 79.203C104.673 78.8563 104.409 78.5877 104.071 78.397C103.742 78.1977 103.356 78.098 102.914 78.098C102.481 78.098 102.095 78.1977 101.757 78.397C101.419 78.5877 101.155 78.8607 100.964 79.216C100.773 79.5627 100.678 79.9613 100.678 80.412V80.62C100.678 81.0793 100.782 81.491 100.99 81.855C101.207 82.2103 101.506 82.4877 101.887 82.687C102.268 82.8863 102.706 82.986 103.2 82.986C103.607 82.986 103.976 82.9167 104.305 82.778C104.643 82.6393 104.938 82.4313 105.189 82.154L105.878 82.96C105.566 83.324 105.176 83.6013 104.708 83.792C104.249 83.9827 103.733 84.078 103.161 84.078ZM111.732 77.045C112.295 77.045 112.789 77.1533 113.214 77.37C113.647 77.5867 113.985 77.916 114.228 78.358C114.471 78.8 114.592 79.359 114.592 80.035V84H113.344V80.178C113.344 79.5107 113.179 79.008 112.85 78.67C112.529 78.332 112.074 78.163 111.485 78.163C111.043 78.163 110.657 78.2497 110.328 78.423C109.999 78.5963 109.743 78.852 109.561 79.19C109.388 79.528 109.301 79.9483 109.301 80.451V84H108.053V74.354H109.301V78.969L109.054 78.475C109.279 78.0243 109.626 77.6733 110.094 77.422C110.562 77.1707 111.108 77.045 111.732 77.045ZM122.759 84.078C122.066 84.078 121.528 83.8917 121.147 83.519C120.766 83.1463 120.575 82.6133 120.575 81.92V75.602H121.823V81.868C121.823 82.2407 121.914 82.5267 122.096 82.726C122.287 82.9253 122.555 83.025 122.902 83.025C123.292 83.025 123.617 82.9167 123.877 82.7L124.267 83.597C124.076 83.7617 123.847 83.883 123.578 83.961C123.318 84.039 123.045 84.078 122.759 84.078ZM119.405 78.137V77.11H123.799V78.137H119.405ZM125.776 84V77.11H127.024V84H125.776ZM126.4 75.784C126.157 75.784 125.953 75.706 125.789 75.55C125.633 75.394 125.555 75.2033 125.555 74.978C125.555 74.744 125.633 74.549 125.789 74.393C125.953 74.237 126.157 74.159 126.4 74.159C126.642 74.159 126.842 74.237 126.998 74.393C127.162 74.5403 127.245 74.7267 127.245 74.952C127.245 75.186 127.167 75.3853 127.011 75.55C126.855 75.706 126.651 75.784 126.4 75.784ZM138.026 77.045C138.58 77.045 139.07 77.1533 139.495 77.37C139.919 77.5867 140.249 77.916 140.483 78.358C140.725 78.8 140.847 79.359 140.847 80.035V84H139.599V80.178C139.599 79.5107 139.443 79.008 139.131 78.67C138.819 78.332 138.381 78.163 137.818 78.163C137.402 78.163 137.038 78.2497 136.726 78.423C136.414 78.5963 136.171 78.852 135.998 79.19C135.833 79.528 135.751 79.9483 135.751 80.451V84H134.503V80.178C134.503 79.5107 134.347 79.008 134.035 78.67C133.731 78.332 133.294 78.163 132.722 78.163C132.314 78.163 131.955 78.2497 131.643 78.423C131.331 78.5963 131.088 78.852 130.915 79.19C130.741 79.528 130.655 79.9483 130.655 80.451V84H129.407V77.11H130.603V78.943L130.408 78.475C130.624 78.0243 130.958 77.6733 131.409 77.422C131.859 77.1707 132.384 77.045 132.982 77.045C133.64 77.045 134.208 77.2097 134.685 77.539C135.161 77.8597 135.473 78.3493 135.621 79.008L135.114 78.8C135.322 78.2713 135.686 77.8467 136.206 77.526C136.726 77.2053 137.332 77.045 138.026 77.045ZM150.287 84.078C149.715 84.078 149.191 83.948 148.714 83.688C148.246 83.4193 147.869 83.025 147.583 82.505C147.306 81.985 147.167 81.335 147.167 80.555C147.167 79.775 147.302 79.125 147.57 78.605C147.848 78.085 148.22 77.695 148.688 77.435C149.165 77.175 149.698 77.045 150.287 77.045C150.963 77.045 151.561 77.1923 152.081 77.487C152.601 77.7817 153.013 78.1933 153.316 78.722C153.62 79.242 153.771 79.853 153.771 80.555C153.771 81.257 153.62 81.8723 153.316 82.401C153.013 82.9297 152.601 83.3413 152.081 83.636C151.561 83.9307 150.963 84.078 150.287 84.078ZM146.634 86.522V77.11H147.83V78.969L147.752 80.568L147.882 82.167V86.522H146.634ZM150.183 82.986C150.625 82.986 151.02 82.8863 151.366 82.687C151.722 82.4877 151.999 82.206 152.198 81.842C152.406 81.4693 152.51 81.0403 152.51 80.555C152.51 80.061 152.406 79.6363 152.198 79.281C151.999 78.917 151.722 78.6353 151.366 78.436C151.02 78.2367 150.625 78.137 150.183 78.137C149.75 78.137 149.356 78.2367 149 78.436C148.654 78.6353 148.376 78.917 148.168 79.281C147.969 79.6363 147.869 80.061 147.869 80.555C147.869 81.0403 147.969 81.4693 148.168 81.842C148.376 82.206 148.654 82.4877 149 82.687C149.356 82.8863 149.75 82.986 150.183 82.986ZM155.496 84V77.11H156.692V78.982L156.575 78.514C156.765 78.0373 157.086 77.6733 157.537 77.422C157.987 77.1707 158.542 77.045 159.201 77.045V78.254C159.149 78.2453 159.097 78.241 159.045 78.241C159.001 78.241 158.958 78.241 158.915 78.241C158.247 78.241 157.719 78.4403 157.329 78.839C156.939 79.2377 156.744 79.814 156.744 80.568V84H155.496ZM163.626 84.078C162.933 84.078 162.318 83.9263 161.78 83.623C161.243 83.3197 160.818 82.9037 160.506 82.375C160.194 81.8377 160.038 81.231 160.038 80.555C160.038 79.8703 160.194 79.2637 160.506 78.735C160.818 78.2063 161.243 77.7947 161.78 77.5C162.318 77.1967 162.933 77.045 163.626 77.045C164.311 77.045 164.922 77.1967 165.459 77.5C166.005 77.7947 166.43 78.2063 166.733 78.735C167.045 79.255 167.201 79.8617 167.201 80.555C167.201 81.2397 167.045 81.8463 166.733 82.375C166.43 82.9037 166.005 83.3197 165.459 83.623C164.922 83.9263 164.311 84.078 163.626 84.078ZM163.626 82.986C164.068 82.986 164.463 82.8863 164.809 82.687C165.165 82.4877 165.442 82.206 165.641 81.842C165.841 81.4693 165.94 81.0403 165.94 80.555C165.94 80.061 165.841 79.6363 165.641 79.281C165.442 78.917 165.165 78.6353 164.809 78.436C164.463 78.2367 164.068 78.137 163.626 78.137C163.184 78.137 162.79 78.2367 162.443 78.436C162.097 78.6353 161.819 78.917 161.611 79.281C161.403 79.6363 161.299 80.061 161.299 80.555C161.299 81.0403 161.403 81.4693 161.611 81.842C161.819 82.206 162.097 82.4877 162.443 82.687C162.79 82.8863 163.184 82.986 163.626 82.986ZM169.109 84V76.499C169.109 75.823 169.304 75.2857 169.694 74.887C170.093 74.4797 170.656 74.276 171.384 74.276C171.653 74.276 171.908 74.3107 172.151 74.38C172.402 74.4407 172.615 74.5403 172.788 74.679L172.411 75.628C172.281 75.524 172.134 75.446 171.969 75.394C171.804 75.3333 171.631 75.303 171.449 75.303C171.085 75.303 170.808 75.407 170.617 75.615C170.426 75.8143 170.331 76.1133 170.331 76.512V77.435L170.357 78.007V84H169.109ZM167.939 78.137V77.11H172.333V78.137H167.939ZM176.477 84.078C175.74 84.078 175.09 83.9263 174.527 83.623C173.972 83.3197 173.539 82.9037 173.227 82.375C172.923 81.8463 172.772 81.2397 172.772 80.555C172.772 79.8703 172.919 79.2637 173.214 78.735C173.517 78.2063 173.929 77.7947 174.449 77.5C174.977 77.1967 175.571 77.045 176.23 77.045C176.897 77.045 177.486 77.1923 177.998 77.487C178.509 77.7817 178.908 78.1977 179.194 78.735C179.488 79.2637 179.636 79.8833 179.636 80.594C179.636 80.646 179.631 80.7067 179.623 80.776C179.623 80.8453 179.618 80.9103 179.61 80.971H173.747V80.074H178.96L178.453 80.386C178.461 79.944 178.37 79.5497 178.18 79.203C177.989 78.8563 177.725 78.5877 177.387 78.397C177.057 78.1977 176.672 78.098 176.23 78.098C175.796 78.098 175.411 78.1977 175.073 78.397C174.735 78.5877 174.47 78.8607 174.28 79.216C174.089 79.5627 173.994 79.9613 173.994 80.412V80.62C173.994 81.0793 174.098 81.491 174.306 81.855C174.522 82.2103 174.821 82.4877 175.203 82.687C175.584 82.8863 176.022 82.986 176.516 82.986C176.923 82.986 177.291 82.9167 177.621 82.778C177.959 82.6393 178.253 82.4313 178.505 82.154L179.194 82.96C178.882 83.324 178.492 83.6013 178.024 83.792C177.564 83.9827 177.049 84.078 176.477 84.078ZM183.345 84.078C182.773 84.078 182.227 84 181.707 83.844C181.195 83.688 180.792 83.4973 180.498 83.272L181.018 82.284C181.312 82.4833 181.676 82.6523 182.11 82.791C182.543 82.9297 182.985 82.999 183.436 82.999C184.016 82.999 184.432 82.9167 184.684 82.752C184.944 82.5873 185.074 82.3577 185.074 82.063C185.074 81.8463 184.996 81.6773 184.84 81.556C184.684 81.4347 184.476 81.3437 184.216 81.283C183.964 81.2223 183.683 81.1703 183.371 81.127C183.059 81.075 182.747 81.0143 182.435 80.945C182.123 80.867 181.837 80.763 181.577 80.633C181.317 80.4943 181.109 80.308 180.953 80.074C180.797 79.8313 180.719 79.5107 180.719 79.112C180.719 78.696 180.836 78.332 181.07 78.02C181.304 77.708 181.633 77.4697 182.058 77.305C182.491 77.1317 183.002 77.045 183.592 77.045C184.042 77.045 184.497 77.1013 184.957 77.214C185.425 77.318 185.806 77.4697 186.101 77.669L185.568 78.657C185.256 78.449 184.931 78.306 184.593 78.228C184.255 78.15 183.917 78.111 183.579 78.111C183.033 78.111 182.625 78.202 182.357 78.384C182.088 78.5573 181.954 78.7827 181.954 79.06C181.954 79.294 182.032 79.476 182.188 79.606C182.352 79.7273 182.56 79.8227 182.812 79.892C183.072 79.9613 183.358 80.022 183.67 80.074C183.982 80.1173 184.294 80.178 184.606 80.256C184.918 80.3253 185.199 80.425 185.451 80.555C185.711 80.685 185.919 80.867 186.075 81.101C186.239 81.335 186.322 81.647 186.322 82.037C186.322 82.453 186.2 82.8127 185.958 83.116C185.715 83.4193 185.373 83.6577 184.931 83.831C184.489 83.9957 183.96 84.078 183.345 84.078ZM187.881 84V77.11H189.129V84H187.881ZM188.505 75.784C188.263 75.784 188.059 75.706 187.894 75.55C187.738 75.394 187.66 75.2033 187.66 74.978C187.66 74.744 187.738 74.549 187.894 74.393C188.059 74.237 188.263 74.159 188.505 74.159C188.748 74.159 188.947 74.237 189.103 74.393C189.268 74.5403 189.35 74.7267 189.35 74.952C189.35 75.186 189.272 75.3853 189.116 75.55C188.96 75.706 188.757 75.784 188.505 75.784ZM194.463 84.078C193.77 84.078 193.154 83.9263 192.617 83.623C192.08 83.3197 191.655 82.9037 191.343 82.375C191.031 81.8377 190.875 81.231 190.875 80.555C190.875 79.8703 191.031 79.2637 191.343 78.735C191.655 78.2063 192.08 77.7947 192.617 77.5C193.154 77.1967 193.77 77.045 194.463 77.045C195.148 77.045 195.759 77.1967 196.296 77.5C196.842 77.7947 197.267 78.2063 197.57 78.735C197.882 79.255 198.038 79.8617 198.038 80.555C198.038 81.2397 197.882 81.8463 197.57 82.375C197.267 82.9037 196.842 83.3197 196.296 83.623C195.759 83.9263 195.148 84.078 194.463 84.078ZM194.463 82.986C194.905 82.986 195.299 82.8863 195.646 82.687C196.001 82.4877 196.279 82.206 196.478 81.842C196.677 81.4693 196.777 81.0403 196.777 80.555C196.777 80.061 196.677 79.6363 196.478 79.281C196.279 78.917 196.001 78.6353 195.646 78.436C195.299 78.2367 194.905 78.137 194.463 78.137C194.021 78.137 193.627 78.2367 193.28 78.436C192.933 78.6353 192.656 78.917 192.448 79.281C192.24 79.6363 192.136 80.061 192.136 80.555C192.136 81.0403 192.24 81.4693 192.448 81.842C192.656 82.206 192.933 82.4877 193.28 82.687C193.627 82.8863 194.021 82.986 194.463 82.986ZM203.443 77.045C204.006 77.045 204.5 77.1533 204.925 77.37C205.358 77.5867 205.696 77.916 205.939 78.358C206.182 78.8 206.303 79.359 206.303 80.035V84H205.055V80.178C205.055 79.5107 204.89 79.008 204.561 78.67C204.24 78.332 203.785 78.163 203.196 78.163C202.754 78.163 202.368 78.2497 202.039 78.423C201.71 78.5963 201.454 78.852 201.272 79.19C201.099 79.528 201.012 79.9483 201.012 80.451V84H199.764V77.11H200.96V78.969L200.765 78.475C200.99 78.0243 201.337 77.6733 201.805 77.422C202.273 77.1707 202.819 77.045 203.443 77.045ZM212.89 84V82.544L212.825 82.271V79.788C212.825 79.2593 212.669 78.852 212.357 78.566C212.053 78.2713 211.594 78.124 210.979 78.124C210.571 78.124 210.173 78.1933 209.783 78.332C209.393 78.462 209.063 78.6397 208.795 78.865L208.275 77.929C208.63 77.643 209.055 77.4263 209.549 77.279C210.051 77.123 210.576 77.045 211.122 77.045C212.066 77.045 212.794 77.2747 213.306 77.734C213.817 78.1933 214.073 78.8953 214.073 79.84V84H212.89ZM210.628 84.078C210.116 84.078 209.666 83.9913 209.276 83.818C208.894 83.6447 208.6 83.4063 208.392 83.103C208.184 82.791 208.08 82.44 208.08 82.05C208.08 81.6773 208.166 81.3393 208.34 81.036C208.522 80.7327 208.812 80.49 209.211 80.308C209.618 80.126 210.164 80.035 210.849 80.035H213.033V80.932H210.901C210.277 80.932 209.856 81.036 209.64 81.244C209.423 81.452 209.315 81.7033 209.315 81.998C209.315 82.336 209.449 82.609 209.718 82.817C209.986 83.0163 210.359 83.116 210.836 83.116C211.304 83.116 211.711 83.012 212.058 82.804C212.413 82.596 212.669 82.2927 212.825 81.894L213.072 82.752C212.907 83.1593 212.617 83.4843 212.201 83.727C211.785 83.961 211.26 84.078 210.628 84.078ZM216.382 84V74.354H217.63V84H216.382ZM223.803 86.6C223.474 86.6 223.153 86.5437 222.841 86.431C222.529 86.327 222.261 86.171 222.035 85.963L222.568 85.027C222.742 85.1917 222.932 85.3173 223.14 85.404C223.348 85.4907 223.569 85.534 223.803 85.534C224.107 85.534 224.358 85.456 224.557 85.3C224.757 85.144 224.943 84.8667 225.116 84.468L225.545 83.519L225.675 83.363L228.379 77.11H229.601L226.26 84.689C226.061 85.1743 225.836 85.5557 225.584 85.833C225.342 86.1103 225.073 86.3053 224.778 86.418C224.484 86.5393 224.159 86.6 223.803 86.6ZM225.441 84.221L222.295 77.11H223.595L226.273 83.246L225.441 84.221ZM234.827 84V82.544L234.762 82.271V79.788C234.762 79.2593 234.606 78.852 234.294 78.566C233.991 78.2713 233.532 78.124 232.916 78.124C232.509 78.124 232.11 78.1933 231.72 78.332C231.33 78.462 231.001 78.6397 230.732 78.865L230.212 77.929C230.568 77.643 230.992 77.4263 231.486 77.279C231.989 77.123 232.513 77.045 233.059 77.045C234.004 77.045 234.732 77.2747 235.243 77.734C235.755 78.1933 236.01 78.8953 236.01 79.84V84H234.827ZM232.565 84.078C232.054 84.078 231.603 83.9913 231.213 83.818C230.832 83.6447 230.537 83.4063 230.329 83.103C230.121 82.791 230.017 82.44 230.017 82.05C230.017 81.6773 230.104 81.3393 230.277 81.036C230.459 80.7327 230.75 80.49 231.148 80.308C231.556 80.126 232.102 80.035 232.786 80.035H234.97V80.932H232.838C232.214 80.932 231.794 81.036 231.577 81.244C231.361 81.452 231.252 81.7033 231.252 81.998C231.252 82.336 231.387 82.609 231.655 82.817C231.924 83.0163 232.297 83.116 232.773 83.116C233.241 83.116 233.649 83.012 233.995 82.804C234.351 82.596 234.606 82.2927 234.762 81.894L235.009 82.752C234.845 83.1593 234.554 83.4843 234.138 83.727C233.722 83.961 233.198 84.078 232.565 84.078ZM241.999 77.045C242.562 77.045 243.056 77.1533 243.481 77.37C243.914 77.5867 244.252 77.916 244.495 78.358C244.737 78.8 244.859 79.359 244.859 80.035V84H243.611V80.178C243.611 79.5107 243.446 79.008 243.117 78.67C242.796 78.332 242.341 78.163 241.752 78.163C241.31 78.163 240.924 78.2497 240.595 78.423C240.265 78.5963 240.01 78.852 239.828 79.19C239.654 79.528 239.568 79.9483 239.568 80.451V84H238.32V77.11H239.516V78.969L239.321 78.475C239.546 78.0243 239.893 77.6733 240.361 77.422C240.829 77.1707 241.375 77.045 241.999 77.045ZM250.184 86.6C249.552 86.6 248.936 86.509 248.338 86.327C247.749 86.1537 247.268 85.9023 246.895 85.573L247.493 84.611C247.814 84.8883 248.208 85.105 248.676 85.261C249.144 85.4257 249.634 85.508 250.145 85.508C250.96 85.508 251.558 85.3173 251.939 84.936C252.321 84.5547 252.511 83.974 252.511 83.194V81.738L252.641 80.373L252.576 78.995V77.11H253.759V83.064C253.759 84.2773 253.456 85.17 252.849 85.742C252.243 86.314 251.354 86.6 250.184 86.6ZM250.028 83.714C249.361 83.714 248.763 83.5753 248.234 83.298C247.714 83.012 247.298 82.6177 246.986 82.115C246.683 81.6123 246.531 81.0317 246.531 80.373C246.531 79.7057 246.683 79.125 246.986 78.631C247.298 78.1283 247.714 77.7383 248.234 77.461C248.763 77.1837 249.361 77.045 250.028 77.045C250.618 77.045 251.155 77.1663 251.64 77.409C252.126 77.643 252.511 78.007 252.797 78.501C253.092 78.995 253.239 79.619 253.239 80.373C253.239 81.1183 253.092 81.738 252.797 82.232C252.511 82.726 252.126 83.0987 251.64 83.35C251.155 83.5927 250.618 83.714 250.028 83.714ZM250.171 82.622C250.631 82.622 251.038 82.5267 251.393 82.336C251.749 82.1453 252.026 81.881 252.225 81.543C252.433 81.205 252.537 80.815 252.537 80.373C252.537 79.931 252.433 79.541 252.225 79.203C252.026 78.865 251.749 78.605 251.393 78.423C251.038 78.2323 250.631 78.137 250.171 78.137C249.712 78.137 249.3 78.2323 248.936 78.423C248.581 78.605 248.299 78.865 248.091 79.203C247.892 79.541 247.792 79.931 247.792 80.373C247.792 80.815 247.892 81.205 248.091 81.543C248.299 81.881 248.581 82.1453 248.936 82.336C249.3 82.5267 249.712 82.622 250.171 82.622ZM20.549 105.078C19.8557 105.078 19.3183 104.892 18.937 104.519C18.5557 104.146 18.365 103.613 18.365 102.92V96.602H19.613V102.868C19.613 103.241 19.704 103.527 19.886 103.726C20.0767 103.925 20.3453 104.025 20.692 104.025C21.082 104.025 21.407 103.917 21.667 103.7L22.057 104.597C21.8663 104.762 21.6367 104.883 21.368 104.961C21.108 105.039 20.835 105.078 20.549 105.078ZM17.195 99.137V98.11H21.589V99.137H17.195ZM26.4053 105.078C25.6686 105.078 25.0186 104.926 24.4553 104.623C23.9006 104.32 23.4673 103.904 23.1553 103.375C22.852 102.846 22.7003 102.24 22.7003 101.555C22.7003 100.87 22.8476 100.264 23.1423 99.735C23.4456 99.2063 23.8573 98.7947 24.3773 98.5C24.906 98.1967 25.4996 98.045 26.1583 98.045C26.8256 98.045 27.415 98.1923 27.9263 98.487C28.4376 98.7817 28.8363 99.1977 29.1223 99.735C29.417 100.264 29.5643 100.883 29.5643 101.594C29.5643 101.646 29.56 101.707 29.5513 101.776C29.5513 101.845 29.547 101.91 29.5383 101.971H23.6753V101.074H28.8883L28.3813 101.386C28.39 100.944 28.299 100.55 28.1083 100.203C27.9176 99.8563 27.6533 99.5877 27.3153 99.397C26.986 99.1977 26.6003 99.098 26.1583 99.098C25.725 99.098 25.3393 99.1977 25.0013 99.397C24.6633 99.5877 24.399 99.8607 24.2083 100.216C24.0176 100.563 23.9223 100.961 23.9223 101.412V101.62C23.9223 102.079 24.0263 102.491 24.2343 102.855C24.451 103.21 24.75 103.488 25.1313 103.687C25.5126 103.886 25.9503 103.986 26.4443 103.986C26.8516 103.986 27.22 103.917 27.5493 103.778C27.8873 103.639 28.182 103.431 28.4333 103.154L29.1223 103.96C28.8103 104.324 28.4203 104.601 27.9523 104.792C27.493 104.983 26.9773 105.078 26.4053 105.078ZM31.2973 105V98.11H32.4933V99.982L32.3763 99.514C32.5669 99.0373 32.8876 98.6733 33.3383 98.422C33.7889 98.1707 34.3436 98.045 35.0023 98.045V99.254C34.9503 99.2453 34.8983 99.241 34.8463 99.241C34.8029 99.241 34.7596 99.241 34.7163 99.241C34.0489 99.241 33.5203 99.4403 33.1303 99.839C32.7403 100.238 32.5453 100.814 32.5453 101.568V105H31.2973ZM36.5404 105V95.354H37.7884V105H36.5404ZM44.4483 105V103.544L44.3833 103.271V100.788C44.3833 100.259 44.2273 99.852 43.9153 99.566C43.6119 99.2713 43.1526 99.124 42.5373 99.124C42.1299 99.124 41.7313 99.1933 41.3413 99.332C40.9513 99.462 40.6219 99.6397 40.3533 99.865L39.8333 98.929C40.1886 98.643 40.6133 98.4263 41.1073 98.279C41.6099 98.123 42.1343 98.045 42.6803 98.045C43.6249 98.045 44.3529 98.2747 44.8643 98.734C45.3756 99.1933 45.6313 99.8953 45.6313 100.84V105H44.4483ZM42.1863 105.078C41.6749 105.078 41.2243 104.991 40.8343 104.818C40.4529 104.645 40.1583 104.406 39.9503 104.103C39.7423 103.791 39.6383 103.44 39.6383 103.05C39.6383 102.677 39.7249 102.339 39.8983 102.036C40.0803 101.733 40.3706 101.49 40.7693 101.308C41.1766 101.126 41.7226 101.035 42.4073 101.035H44.5913V101.932H42.4593C41.8353 101.932 41.4149 102.036 41.1983 102.244C40.9816 102.452 40.8733 102.703 40.8733 102.998C40.8733 103.336 41.0076 103.609 41.2763 103.817C41.5449 104.016 41.9176 104.116 42.3943 104.116C42.8623 104.116 43.2696 104.012 43.6163 103.804C43.9716 103.596 44.2273 103.293 44.3833 102.894L44.6303 103.752C44.4656 104.159 44.1753 104.484 43.7593 104.727C43.3433 104.961 42.8189 105.078 42.1863 105.078ZM50.3068 105.078C49.6135 105.078 49.0761 104.892 48.6948 104.519C48.3135 104.146 48.1228 103.613 48.1228 102.92V96.602H49.3708V102.868C49.3708 103.241 49.4618 103.527 49.6438 103.726C49.8345 103.925 50.1031 104.025 50.4498 104.025C50.8398 104.025 51.1648 103.917 51.4248 103.7L51.8148 104.597C51.6241 104.762 51.3945 104.883 51.1258 104.961C50.8658 105.039 50.5928 105.078 50.3068 105.078ZM46.9528 99.137V98.11H51.3468V99.137H46.9528ZM53.3236 105V98.11H54.5716V105H53.3236ZM53.9476 96.784C53.705 96.784 53.5013 96.706 53.3366 96.55C53.1806 96.394 53.1026 96.2033 53.1026 95.978C53.1026 95.744 53.1806 95.549 53.3366 95.393C53.5013 95.237 53.705 95.159 53.9476 95.159C54.1903 95.159 54.3896 95.237 54.5456 95.393C54.7103 95.5403 54.7926 95.7267 54.7926 95.952C54.7926 96.186 54.7146 96.3853 54.5586 96.55C54.4026 96.706 54.199 96.784 53.9476 96.784ZM60.6335 98.045C61.1968 98.045 61.6908 98.1533 62.1155 98.37C62.5488 98.5867 62.8868 98.916 63.1295 99.358C63.3722 99.8 63.4935 100.359 63.4935 101.035V105H62.2455V101.178C62.2455 100.511 62.0808 100.008 61.7515 99.67C61.4308 99.332 60.9758 99.163 60.3865 99.163C59.9445 99.163 59.5588 99.2497 59.2295 99.423C58.9002 99.5963 58.6445 99.852 58.4625 100.19C58.2892 100.528 58.2025 100.948 58.2025 101.451V105H56.9545V95.354H58.2025V99.969L57.9555 99.475C58.1808 99.0243 58.5275 98.6733 58.9955 98.422C59.4635 98.1707 60.0095 98.045 60.6335 98.045ZM72.1413 105.078C71.474 105.078 70.876 104.931 70.3473 104.636C69.8273 104.341 69.4157 103.93 69.1123 103.401C68.809 102.872 68.6573 102.257 68.6573 101.555C68.6573 100.853 68.809 100.242 69.1123 99.722C69.4157 99.1933 69.8273 98.7817 70.3473 98.487C70.876 98.1923 71.474 98.045 72.1413 98.045C72.722 98.045 73.2463 98.175 73.7143 98.435C74.1823 98.695 74.555 99.085 74.8323 99.605C75.1183 100.125 75.2613 100.775 75.2613 101.555C75.2613 102.335 75.1227 102.985 74.8453 103.505C74.5767 104.025 74.2083 104.419 73.7403 104.688C73.2723 104.948 72.7393 105.078 72.1413 105.078ZM72.2453 103.986C72.6787 103.986 73.0687 103.886 73.4153 103.687C73.7707 103.488 74.048 103.206 74.2473 102.842C74.4553 102.469 74.5593 102.04 74.5593 101.555C74.5593 101.061 74.4553 100.636 74.2473 100.281C74.048 99.917 73.7707 99.6353 73.4153 99.436C73.0687 99.2367 72.6787 99.137 72.2453 99.137C71.8033 99.137 71.409 99.2367 71.0623 99.436C70.7157 99.6353 70.4383 99.917 70.2303 100.281C70.0223 100.636 69.9183 101.061 69.9183 101.555C69.9183 102.04 70.0223 102.469 70.2303 102.842C70.4383 103.206 70.7157 103.488 71.0623 103.687C71.409 103.886 71.8033 103.986 72.2453 103.986ZM74.5983 105V103.141L74.6763 101.542L74.5463 99.943V95.354H75.7943V105H74.5983ZM82.4327 105V103.544L82.3677 103.271V100.788C82.3677 100.259 82.2117 99.852 81.8997 99.566C81.5963 99.2713 81.137 99.124 80.5217 99.124C80.1143 99.124 79.7157 99.1933 79.3257 99.332C78.9357 99.462 78.6063 99.6397 78.3377 99.865L77.8177 98.929C78.173 98.643 78.5977 98.4263 79.0917 98.279C79.5943 98.123 80.1187 98.045 80.6647 98.045C81.6093 98.045 82.3373 98.2747 82.8487 98.734C83.36 99.1933 83.6157 99.8953 83.6157 100.84V105H82.4327ZM80.1707 105.078C79.6593 105.078 79.2087 104.991 78.8187 104.818C78.4373 104.645 78.1427 104.406 77.9347 104.103C77.7267 103.791 77.6227 103.44 77.6227 103.05C77.6227 102.677 77.7093 102.339 77.8827 102.036C78.0647 101.733 78.355 101.49 78.7537 101.308C79.161 101.126 79.707 101.035 80.3917 101.035H82.5757V101.932H80.4437C79.8197 101.932 79.3993 102.036 79.1827 102.244C78.966 102.452 78.8577 102.703 78.8577 102.998C78.8577 103.336 78.992 103.609 79.2607 103.817C79.5293 104.016 79.902 104.116 80.3787 104.116C80.8467 104.116 81.254 104.012 81.6007 103.804C81.956 103.596 82.2117 103.293 82.3677 102.894L82.6147 103.752C82.45 104.159 82.1597 104.484 81.7437 104.727C81.3277 104.961 80.8033 105.078 80.1707 105.078ZM89.6042 98.045C90.1675 98.045 90.6615 98.1533 91.0862 98.37C91.5195 98.5867 91.8575 98.916 92.1002 99.358C92.3429 99.8 92.4642 100.359 92.4642 101.035V105H91.2162V101.178C91.2162 100.511 91.0515 100.008 90.7222 99.67C90.4015 99.332 89.9465 99.163 89.3572 99.163C88.9152 99.163 88.5295 99.2497 88.2002 99.423C87.8709 99.5963 87.6152 99.852 87.4332 100.19C87.2599 100.528 87.1732 100.948 87.1732 101.451V105H85.9252V98.11H87.1212V99.969L86.9262 99.475C87.1515 99.0243 87.4982 98.6733 87.9662 98.422C88.4342 98.1707 88.9802 98.045 89.6042 98.045ZM101.918 105.078C101.329 105.078 100.796 104.948 100.319 104.688C99.851 104.419 99.4784 104.025 99.201 103.505C98.9324 102.985 98.798 102.335 98.798 101.555C98.798 100.775 98.9367 100.125 99.214 99.605C99.5 99.085 99.877 98.695 100.345 98.435C100.822 98.175 101.346 98.045 101.918 98.045C102.594 98.045 103.192 98.1923 103.712 98.487C104.232 98.7817 104.644 99.1933 104.947 99.722C105.25 100.242 105.402 100.853 105.402 101.555C105.402 102.257 105.25 102.872 104.947 103.401C104.644 103.93 104.232 104.341 103.712 104.636C103.192 104.931 102.594 105.078 101.918 105.078ZM98.265 105V95.354H99.513V99.943L99.383 101.542L99.461 103.141V105H98.265ZM101.814 103.986C102.256 103.986 102.65 103.886 102.997 103.687C103.352 103.488 103.63 103.206 103.829 102.842C104.037 102.469 104.141 102.04 104.141 101.555C104.141 101.061 104.037 100.636 103.829 100.281C103.63 99.917 103.352 99.6353 102.997 99.436C102.65 99.2367 102.256 99.137 101.814 99.137C101.381 99.137 100.986 99.2367 100.631 99.436C100.284 99.6353 100.007 99.917 99.799 100.281C99.5997 100.636 99.5 101.061 99.5 101.555C99.5 102.04 99.5997 102.469 99.799 102.842C100.007 103.206 100.284 103.488 100.631 103.687C100.986 103.886 101.381 103.986 101.814 103.986ZM110.194 105.078C109.458 105.078 108.808 104.926 108.244 104.623C107.69 104.32 107.256 103.904 106.944 103.375C106.641 102.846 106.489 102.24 106.489 101.555C106.489 100.87 106.637 100.264 106.931 99.735C107.235 99.2063 107.646 98.7947 108.166 98.5C108.695 98.1967 109.289 98.045 109.947 98.045C110.615 98.045 111.204 98.1923 111.715 98.487C112.227 98.7817 112.625 99.1977 112.911 99.735C113.206 100.264 113.353 100.883 113.353 101.594C113.353 101.646 113.349 101.707 113.34 101.776C113.34 101.845 113.336 101.91 113.327 101.971H107.464V101.074H112.677L112.17 101.386C112.179 100.944 112.088 100.55 111.897 100.203C111.707 99.8563 111.442 99.5877 111.104 99.397C110.775 99.1977 110.389 99.098 109.947 99.098C109.514 99.098 109.128 99.1977 108.79 99.397C108.452 99.5877 108.188 99.8607 107.997 100.216C107.807 100.563 107.711 100.961 107.711 101.412V101.62C107.711 102.079 107.815 102.491 108.023 102.855C108.24 103.21 108.539 103.488 108.92 103.687C109.302 103.886 109.739 103.986 110.233 103.986C110.641 103.986 111.009 103.917 111.338 103.778C111.676 103.639 111.971 103.431 112.222 103.154L112.911 103.96C112.599 104.324 112.209 104.601 111.741 104.792C111.282 104.983 110.766 105.078 110.194 105.078ZM115.086 105V98.11H116.282V99.982L116.165 99.514C116.356 99.0373 116.677 98.6733 117.127 98.422C117.578 98.1707 118.133 98.045 118.791 98.045V99.254C118.739 99.2453 118.687 99.241 118.635 99.241C118.592 99.241 118.549 99.241 118.505 99.241C117.838 99.241 117.309 99.4403 116.919 99.839C116.529 100.238 116.334 100.814 116.334 101.568V105H115.086ZM123.982 105.078C123.41 105.078 122.886 104.948 122.409 104.688C121.941 104.419 121.564 104.025 121.278 103.505C121.001 102.985 120.862 102.335 120.862 101.555C120.862 100.775 120.997 100.125 121.265 99.605C121.543 99.085 121.915 98.695 122.383 98.435C122.86 98.175 123.393 98.045 123.982 98.045C124.658 98.045 125.256 98.1923 125.776 98.487C126.296 98.7817 126.708 99.1933 127.011 99.722C127.315 100.242 127.466 100.853 127.466 101.555C127.466 102.257 127.315 102.872 127.011 103.401C126.708 103.93 126.296 104.341 125.776 104.636C125.256 104.931 124.658 105.078 123.982 105.078ZM120.329 107.522V98.11H121.525V99.969L121.447 101.568L121.577 103.167V107.522H120.329ZM123.878 103.986C124.32 103.986 124.715 103.886 125.061 103.687C125.417 103.488 125.694 103.206 125.893 102.842C126.101 102.469 126.205 102.04 126.205 101.555C126.205 101.061 126.101 100.636 125.893 100.281C125.694 99.917 125.417 99.6353 125.061 99.436C124.715 99.2367 124.32 99.137 123.878 99.137C123.445 99.137 123.051 99.2367 122.695 99.436C122.349 99.6353 122.071 99.917 121.863 100.281C121.664 100.636 121.564 101.061 121.564 101.555C121.564 102.04 121.664 102.469 121.863 102.842C122.071 103.206 122.349 103.488 122.695 103.687C123.051 103.886 123.445 103.986 123.878 103.986ZM132.259 105.078C131.522 105.078 130.872 104.926 130.309 104.623C129.754 104.32 129.321 103.904 129.009 103.375C128.705 102.846 128.554 102.24 128.554 101.555C128.554 100.87 128.701 100.264 128.996 99.735C129.299 99.2063 129.711 98.7947 130.231 98.5C130.759 98.1967 131.353 98.045 132.012 98.045C132.679 98.045 133.268 98.1923 133.78 98.487C134.291 98.7817 134.69 99.1977 134.976 99.735C135.27 100.264 135.418 100.883 135.418 101.594C135.418 101.646 135.413 101.707 135.405 101.776C135.405 101.845 135.4 101.91 135.392 101.971H129.529V101.074H134.742L134.235 101.386C134.243 100.944 134.152 100.55 133.962 100.203C133.771 99.8563 133.507 99.5877 133.169 99.397C132.839 99.1977 132.454 99.098 132.012 99.098C131.578 99.098 131.193 99.1977 130.855 99.397C130.517 99.5877 130.252 99.8607 130.062 100.216C129.871 100.563 129.776 100.961 129.776 101.412V101.62C129.776 102.079 129.88 102.491 130.088 102.855C130.304 103.21 130.603 103.488 130.985 103.687C131.366 103.886 131.804 103.986 132.298 103.986C132.705 103.986 133.073 103.917 133.403 103.778C133.741 103.639 134.035 103.431 134.287 103.154L134.976 103.96C134.664 104.324 134.274 104.601 133.806 104.792C133.346 104.983 132.831 105.078 132.259 105.078ZM140.83 98.045C141.393 98.045 141.887 98.1533 142.312 98.37C142.745 98.5867 143.083 98.916 143.326 99.358C143.568 99.8 143.69 100.359 143.69 101.035V105H142.442V101.178C142.442 100.511 142.277 100.008 141.948 99.67C141.627 99.332 141.172 99.163 140.583 99.163C140.141 99.163 139.755 99.2497 139.426 99.423C139.096 99.5963 138.841 99.852 138.659 100.19C138.485 100.528 138.399 100.948 138.399 101.451V105H137.151V98.11H138.347V99.969L138.152 99.475C138.377 99.0243 138.724 98.6733 139.192 98.422C139.66 98.1707 140.206 98.045 140.83 98.045ZM149.015 107.6C148.383 107.6 147.767 107.509 147.169 107.327C146.58 107.154 146.099 106.902 145.726 106.573L146.324 105.611C146.645 105.888 147.039 106.105 147.507 106.261C147.975 106.426 148.465 106.508 148.976 106.508C149.791 106.508 150.389 106.317 150.77 105.936C151.152 105.555 151.342 104.974 151.342 104.194V102.738L151.472 101.373L151.407 99.995V98.11H152.59V104.064C152.59 105.277 152.287 106.17 151.68 106.742C151.074 107.314 150.185 107.6 149.015 107.6ZM148.859 104.714C148.192 104.714 147.594 104.575 147.065 104.298C146.545 104.012 146.129 103.618 145.817 103.115C145.514 102.612 145.362 102.032 145.362 101.373C145.362 100.706 145.514 100.125 145.817 99.631C146.129 99.1283 146.545 98.7383 147.065 98.461C147.594 98.1837 148.192 98.045 148.859 98.045C149.449 98.045 149.986 98.1663 150.471 98.409C150.957 98.643 151.342 99.007 151.628 99.501C151.923 99.995 152.07 100.619 152.07 101.373C152.07 102.118 151.923 102.738 151.628 103.232C151.342 103.726 150.957 104.099 150.471 104.35C149.986 104.593 149.449 104.714 148.859 104.714ZM149.002 103.622C149.462 103.622 149.869 103.527 150.224 103.336C150.58 103.145 150.857 102.881 151.056 102.543C151.264 102.205 151.368 101.815 151.368 101.373C151.368 100.931 151.264 100.541 151.056 100.203C150.857 99.865 150.58 99.605 150.224 99.423C149.869 99.2323 149.462 99.137 149.002 99.137C148.543 99.137 148.131 99.2323 147.767 99.423C147.412 99.605 147.13 99.865 146.922 100.203C146.723 100.541 146.623 100.931 146.623 101.373C146.623 101.815 146.723 102.205 146.922 102.543C147.13 102.881 147.412 103.145 147.767 103.336C148.131 103.527 148.543 103.622 149.002 103.622ZM159.252 105V103.544L159.187 103.271V100.788C159.187 100.259 159.031 99.852 158.719 99.566C158.416 99.2713 157.956 99.124 157.341 99.124C156.934 99.124 156.535 99.1933 156.145 99.332C155.755 99.462 155.426 99.6397 155.157 99.865L154.637 98.929C154.992 98.643 155.417 98.4263 155.911 98.279C156.414 98.123 156.938 98.045 157.484 98.045C158.429 98.045 159.157 98.2747 159.668 98.734C160.179 99.1933 160.435 99.8953 160.435 100.84V105H159.252ZM156.99 105.078C156.479 105.078 156.028 104.991 155.638 104.818C155.257 104.645 154.962 104.406 154.754 104.103C154.546 103.791 154.442 103.44 154.442 103.05C154.442 102.677 154.529 102.339 154.702 102.036C154.884 101.733 155.174 101.49 155.573 101.308C155.98 101.126 156.526 101.035 157.211 101.035H159.395V101.932H157.263C156.639 101.932 156.219 102.036 156.002 102.244C155.785 102.452 155.677 102.703 155.677 102.998C155.677 103.336 155.811 103.609 156.08 103.817C156.349 104.016 156.721 104.116 157.198 104.116C157.666 104.116 158.073 104.012 158.42 103.804C158.775 103.596 159.031 103.293 159.187 102.894L159.434 103.752C159.269 104.159 158.979 104.484 158.563 104.727C158.147 104.961 157.623 105.078 156.99 105.078ZM162.745 105V95.354H163.993V105H162.745ZM170.652 105V103.544L170.587 103.271V100.788C170.587 100.259 170.431 99.852 170.119 99.566C169.816 99.2713 169.357 99.124 168.741 99.124C168.334 99.124 167.935 99.1933 167.545 99.332C167.155 99.462 166.826 99.6397 166.557 99.865L166.037 98.929C166.393 98.643 166.817 98.4263 167.311 98.279C167.814 98.123 168.338 98.045 168.884 98.045C169.829 98.045 170.557 98.2747 171.068 98.734C171.58 99.1933 171.835 99.8953 171.835 100.84V105H170.652ZM168.39 105.078C167.879 105.078 167.428 104.991 167.038 104.818C166.657 104.645 166.362 104.406 166.154 104.103C165.946 103.791 165.842 103.44 165.842 103.05C165.842 102.677 165.929 102.339 166.102 102.036C166.284 101.733 166.575 101.49 166.973 101.308C167.381 101.126 167.927 101.035 168.611 101.035H170.795V101.932H168.663C168.039 101.932 167.619 102.036 167.402 102.244C167.186 102.452 167.077 102.703 167.077 102.998C167.077 103.336 167.212 103.609 167.48 103.817C167.749 104.016 168.122 104.116 168.598 104.116C169.066 104.116 169.474 104.012 169.82 103.804C170.176 103.596 170.431 103.293 170.587 102.894L170.834 103.752C170.67 104.159 170.379 104.484 169.963 104.727C169.547 104.961 169.023 105.078 168.39 105.078ZM182.764 98.045C183.319 98.045 183.808 98.1533 184.233 98.37C184.658 98.5867 184.987 98.916 185.221 99.358C185.464 99.8 185.585 100.359 185.585 101.035V105H184.337V101.178C184.337 100.511 184.181 100.008 183.869 99.67C183.557 99.332 183.119 99.163 182.556 99.163C182.14 99.163 181.776 99.2497 181.464 99.423C181.152 99.5963 180.909 99.852 180.736 100.19C180.571 100.528 180.489 100.948 180.489 101.451V105H179.241V101.178C179.241 100.511 179.085 100.008 178.773 99.67C178.47 99.332 178.032 99.163 177.46 99.163C177.053 99.163 176.693 99.2497 176.381 99.423C176.069 99.5963 175.826 99.852 175.653 100.19C175.48 100.528 175.393 100.948 175.393 101.451V105H174.145V98.11H175.341V99.943L175.146 99.475C175.363 99.0243 175.696 98.6733 176.147 98.422C176.598 98.1707 177.122 98.045 177.72 98.045C178.379 98.045 178.946 98.2097 179.423 98.539C179.9 98.8597 180.212 99.3493 180.359 100.008L179.852 99.8C180.06 99.2713 180.424 98.8467 180.944 98.526C181.464 98.2053 182.071 98.045 182.764 98.045ZM192.158 105V103.544L192.093 103.271V100.788C192.093 100.259 191.937 99.852 191.625 99.566C191.322 99.2713 190.863 99.124 190.247 99.124C189.84 99.124 189.441 99.1933 189.051 99.332C188.661 99.462 188.332 99.6397 188.063 99.865L187.543 98.929C187.899 98.643 188.323 98.4263 188.817 98.279C189.32 98.123 189.844 98.045 190.39 98.045C191.335 98.045 192.063 98.2747 192.574 98.734C193.086 99.1933 193.341 99.8953 193.341 100.84V105H192.158ZM189.896 105.078C189.385 105.078 188.934 104.991 188.544 104.818C188.163 104.645 187.868 104.406 187.66 104.103C187.452 103.791 187.348 103.44 187.348 103.05C187.348 102.677 187.435 102.339 187.608 102.036C187.79 101.733 188.081 101.49 188.479 101.308C188.887 101.126 189.433 101.035 190.117 101.035H192.301V101.932H190.169C189.545 101.932 189.125 102.036 188.908 102.244C188.692 102.452 188.583 102.703 188.583 102.998C188.583 103.336 188.718 103.609 188.986 103.817C189.255 104.016 189.628 104.116 190.104 104.116C190.572 104.116 190.98 104.012 191.326 103.804C191.682 103.596 191.937 103.293 192.093 102.894L192.34 103.752C192.176 104.159 191.885 104.484 191.469 104.727C191.053 104.961 190.529 105.078 189.896 105.078ZM199.33 98.045C199.893 98.045 200.387 98.1533 200.812 98.37C201.245 98.5867 201.583 98.916 201.826 99.358C202.068 99.8 202.19 100.359 202.19 101.035V105H200.942V101.178C200.942 100.511 200.777 100.008 200.448 99.67C200.127 99.332 199.672 99.163 199.083 99.163C198.641 99.163 198.255 99.2497 197.926 99.423C197.596 99.5963 197.341 99.852 197.159 100.19C196.985 100.528 196.899 100.948 196.899 101.451V105H195.651V98.11H196.847V99.969L196.652 99.475C196.877 99.0243 197.224 98.6733 197.692 98.422C198.16 98.1707 198.706 98.045 199.33 98.045ZM204.005 106.924L204.655 104.298L204.824 105.052C204.573 105.052 204.361 104.974 204.187 104.818C204.023 104.662 203.94 104.45 203.94 104.181C203.94 103.921 204.023 103.709 204.187 103.544C204.361 103.379 204.569 103.297 204.811 103.297C205.063 103.297 205.266 103.384 205.422 103.557C205.578 103.722 205.656 103.93 205.656 104.181C205.656 104.268 205.648 104.354 205.63 104.441C205.622 104.519 205.6 104.614 205.565 104.727C205.539 104.831 205.496 104.961 205.435 105.117L204.824 106.924H204.005ZM212.912 105.078C212.34 105.078 211.794 105 211.274 104.844C210.763 104.688 210.36 104.497 210.065 104.272L210.585 103.284C210.88 103.483 211.244 103.652 211.677 103.791C212.11 103.93 212.552 103.999 213.003 103.999C213.584 103.999 214 103.917 214.251 103.752C214.511 103.587 214.641 103.358 214.641 103.063C214.641 102.846 214.563 102.677 214.407 102.556C214.251 102.435 214.043 102.344 213.783 102.283C213.532 102.222 213.25 102.17 212.938 102.127C212.626 102.075 212.314 102.014 212.002 101.945C211.69 101.867 211.404 101.763 211.144 101.633C210.884 101.494 210.676 101.308 210.52 101.074C210.364 100.831 210.286 100.511 210.286 100.112C210.286 99.696 210.403 99.332 210.637 99.02C210.871 98.708 211.2 98.4697 211.625 98.305C212.058 98.1317 212.57 98.045 213.159 98.045C213.61 98.045 214.065 98.1013 214.524 98.214C214.992 98.318 215.373 98.4697 215.668 98.669L215.135 99.657C214.823 99.449 214.498 99.306 214.16 99.228C213.822 99.15 213.484 99.111 213.146 99.111C212.6 99.111 212.193 99.202 211.924 99.384C211.655 99.5573 211.521 99.7827 211.521 100.06C211.521 100.294 211.599 100.476 211.755 100.606C211.92 100.727 212.128 100.823 212.379 100.892C212.639 100.961 212.925 101.022 213.237 101.074C213.549 101.117 213.861 101.178 214.173 101.256C214.485 101.325 214.767 101.425 215.018 101.555C215.278 101.685 215.486 101.867 215.642 102.101C215.807 102.335 215.889 102.647 215.889 103.037C215.889 103.453 215.768 103.813 215.525 104.116C215.282 104.419 214.94 104.658 214.498 104.831C214.056 104.996 213.527 105.078 212.912 105.078ZM220.517 105.078C219.78 105.078 219.13 104.926 218.567 104.623C218.012 104.32 217.579 103.904 217.267 103.375C216.963 102.846 216.812 102.24 216.812 101.555C216.812 100.87 216.959 100.264 217.254 99.735C217.557 99.2063 217.969 98.7947 218.489 98.5C219.017 98.1967 219.611 98.045 220.27 98.045C220.937 98.045 221.526 98.1923 222.038 98.487C222.549 98.7817 222.948 99.1977 223.234 99.735C223.528 100.264 223.676 100.883 223.676 101.594C223.676 101.646 223.671 101.707 223.663 101.776C223.663 101.845 223.658 101.91 223.65 101.971H217.787V101.074H223L222.493 101.386C222.501 100.944 222.41 100.55 222.22 100.203C222.029 99.8563 221.765 99.5877 221.427 99.397C221.097 99.1977 220.712 99.098 220.27 99.098C219.836 99.098 219.451 99.1977 219.113 99.397C218.775 99.5877 218.51 99.8607 218.32 100.216C218.129 100.563 218.034 100.961 218.034 101.412V101.62C218.034 102.079 218.138 102.491 218.346 102.855C218.562 103.21 218.861 103.488 219.243 103.687C219.624 103.886 220.062 103.986 220.556 103.986C220.963 103.986 221.331 103.917 221.661 103.778C221.999 103.639 222.293 103.431 222.545 103.154L223.234 103.96C222.922 104.324 222.532 104.601 222.064 104.792C221.604 104.983 221.089 105.078 220.517 105.078ZM229.088 98.045C229.651 98.045 230.145 98.1533 230.57 98.37C231.003 98.5867 231.341 98.916 231.584 99.358C231.826 99.8 231.948 100.359 231.948 101.035V105H230.7V101.178C230.7 100.511 230.535 100.008 230.206 99.67C229.885 99.332 229.43 99.163 228.841 99.163C228.399 99.163 228.013 99.2497 227.684 99.423C227.354 99.5963 227.099 99.852 226.917 100.19C226.743 100.528 226.657 100.948 226.657 101.451V105H225.409V95.354H226.657V99.969L226.41 99.475C226.635 99.0243 226.982 98.6733 227.45 98.422C227.918 98.1707 228.464 98.045 229.088 98.045ZM234.257 105V98.11H235.505V105H234.257ZM234.881 96.784C234.639 96.784 234.435 96.706 234.27 96.55C234.114 96.394 234.036 96.2033 234.036 95.978C234.036 95.744 234.114 95.549 234.27 95.393C234.435 95.237 234.639 95.159 234.881 95.159C235.124 95.159 235.323 95.237 235.479 95.393C235.644 95.5403 235.726 95.7267 235.726 95.952C235.726 96.186 235.648 96.3853 235.492 96.55C235.336 96.706 235.133 96.784 234.881 96.784ZM241.567 98.045C242.13 98.045 242.624 98.1533 243.049 98.37C243.482 98.5867 243.82 98.916 244.063 99.358C244.306 99.8 244.427 100.359 244.427 101.035V105H243.179V101.178C243.179 100.511 243.014 100.008 242.685 99.67C242.364 99.332 241.909 99.163 241.32 99.163C240.878 99.163 240.492 99.2497 240.163 99.423C239.834 99.5963 239.578 99.852 239.396 100.19C239.223 100.528 239.136 100.948 239.136 101.451V105H237.888V98.11H239.084V99.969L238.889 99.475C239.114 99.0243 239.461 98.6733 239.929 98.422C240.397 98.1707 240.943 98.045 241.567 98.045ZM249.753 107.6C249.12 107.6 248.505 107.509 247.907 107.327C247.317 107.154 246.836 106.902 246.464 106.573L247.062 105.611C247.382 105.888 247.777 106.105 248.245 106.261C248.713 106.426 249.202 106.508 249.714 106.508C250.528 106.508 251.126 106.317 251.508 105.936C251.889 105.555 252.08 104.974 252.08 104.194V102.738L252.21 101.373L252.145 99.995V98.11H253.328V104.064C253.328 105.277 253.024 106.17 252.418 106.742C251.811 107.314 250.923 107.6 249.753 107.6ZM249.597 104.714C248.929 104.714 248.331 104.575 247.803 104.298C247.283 104.012 246.867 103.618 246.555 103.115C246.251 102.612 246.1 102.032 246.1 101.373C246.1 100.706 246.251 100.125 246.555 99.631C246.867 99.1283 247.283 98.7383 247.803 98.461C248.331 98.1837 248.929 98.045 249.597 98.045C250.186 98.045 250.723 98.1663 251.209 98.409C251.694 98.643 252.08 99.007 252.366 99.501C252.66 99.995 252.808 100.619 252.808 101.373C252.808 102.118 252.66 102.738 252.366 103.232C252.08 103.726 251.694 104.099 251.209 104.35C250.723 104.593 250.186 104.714 249.597 104.714ZM249.74 103.622C250.199 103.622 250.606 103.527 250.962 103.336C251.317 103.145 251.594 102.881 251.794 102.543C252.002 102.205 252.106 101.815 252.106 101.373C252.106 100.931 252.002 100.541 251.794 100.203C251.594 99.865 251.317 99.605 250.962 99.423C250.606 99.2323 250.199 99.137 249.74 99.137C249.28 99.137 248.869 99.2323 248.505 99.423C248.149 99.605 247.868 99.865 247.66 100.203C247.46 100.541 247.361 100.931 247.361 101.373C247.361 101.815 247.46 102.205 247.66 102.543C247.868 102.881 248.149 103.145 248.505 103.336C248.869 103.527 249.28 103.622 249.74 103.622ZM258.728 107.6C258.096 107.6 257.48 107.509 256.882 107.327C256.293 107.154 255.812 106.902 255.439 106.573L256.037 105.611C256.358 105.888 256.752 106.105 257.22 106.261C257.688 106.426 258.178 106.508 258.689 106.508C259.504 106.508 260.102 106.317 260.483 105.936C260.865 105.555 261.055 104.974 261.055 104.194V102.738L261.185 101.373L261.12 99.995V98.11H262.303V104.064C262.303 105.277 262 106.17 261.393 106.742C260.787 107.314 259.898 107.6 258.728 107.6ZM258.572 104.714C257.905 104.714 257.307 104.575 256.778 104.298C256.258 104.012 255.842 103.618 255.53 103.115C255.227 102.612 255.075 102.032 255.075 101.373C255.075 100.706 255.227 100.125 255.53 99.631C255.842 99.1283 256.258 98.7383 256.778 98.461C257.307 98.1837 257.905 98.045 258.572 98.045C259.162 98.045 259.699 98.1663 260.184 98.409C260.67 98.643 261.055 99.007 261.341 99.501C261.636 99.995 261.783 100.619 261.783 101.373C261.783 102.118 261.636 102.738 261.341 103.232C261.055 103.726 260.67 104.099 260.184 104.35C259.699 104.593 259.162 104.714 258.572 104.714ZM258.715 103.622C259.175 103.622 259.582 103.527 259.937 103.336C260.293 103.145 260.57 102.881 260.769 102.543C260.977 102.205 261.081 101.815 261.081 101.373C261.081 100.931 260.977 100.541 260.769 100.203C260.57 99.865 260.293 99.605 259.937 99.423C259.582 99.2323 259.175 99.137 258.715 99.137C258.256 99.137 257.844 99.2323 257.48 99.423C257.125 99.605 256.843 99.865 256.635 100.203C256.436 100.541 256.336 100.931 256.336 101.373C256.336 101.815 256.436 102.205 256.635 102.543C256.843 102.881 257.125 103.145 257.48 103.336C257.844 103.527 258.256 103.622 258.715 103.622ZM268.965 105V103.544L268.9 103.271V100.788C268.9 100.259 268.744 99.852 268.432 99.566C268.129 99.2713 267.669 99.124 267.054 99.124C266.647 99.124 266.248 99.1933 265.858 99.332C265.468 99.462 265.139 99.6397 264.87 99.865L264.35 98.929C264.705 98.643 265.13 98.4263 265.624 98.279C266.127 98.123 266.651 98.045 267.197 98.045C268.142 98.045 268.87 98.2747 269.381 98.734C269.892 99.1933 270.148 99.8953 270.148 100.84V105H268.965ZM266.703 105.078C266.192 105.078 265.741 104.991 265.351 104.818C264.97 104.645 264.675 104.406 264.467 104.103C264.259 103.791 264.155 103.44 264.155 103.05C264.155 102.677 264.242 102.339 264.415 102.036C264.597 101.733 264.887 101.49 265.286 101.308C265.693 101.126 266.239 101.035 266.924 101.035H269.108V101.932H266.976C266.352 101.932 265.932 102.036 265.715 102.244C265.498 102.452 265.39 102.703 265.39 102.998C265.39 103.336 265.524 103.609 265.793 103.817C266.062 104.016 266.434 104.116 266.911 104.116C267.379 104.116 267.786 104.012 268.133 103.804C268.488 103.596 268.744 103.293 268.9 102.894L269.147 103.752C268.982 104.159 268.692 104.484 268.276 104.727C267.86 104.961 267.336 105.078 266.703 105.078ZM16.987 126L21.108 116.9H22.395L26.529 126H25.164L21.485 117.628H22.005L18.326 126H16.987ZM18.742 123.725L19.093 122.685H24.215L24.592 123.725H18.742ZM31.3835 119.045C31.9468 119.045 32.4408 119.153 32.8655 119.37C33.2988 119.587 33.6368 119.916 33.8795 120.358C34.1222 120.8 34.2435 121.359 34.2435 122.035V126H32.9955V122.178C32.9955 121.511 32.8308 121.008 32.5015 120.67C32.1808 120.332 31.7258 120.163 31.1365 120.163C30.6945 120.163 30.3088 120.25 29.9795 120.423C29.6502 120.596 29.3945 120.852 29.2125 121.19C29.0392 121.528 28.9525 121.948 28.9525 122.451V126H27.7045V119.11H28.9005V120.969L28.7055 120.475C28.9308 120.024 29.2775 119.673 29.7455 119.422C30.2135 119.171 30.7595 119.045 31.3835 119.045ZM39.4001 126.078C38.7328 126.078 38.1348 125.931 37.6061 125.636C37.0861 125.341 36.6745 124.93 36.3711 124.401C36.0678 123.872 35.9161 123.257 35.9161 122.555C35.9161 121.853 36.0678 121.242 36.3711 120.722C36.6745 120.193 37.0861 119.782 37.6061 119.487C38.1348 119.192 38.7328 119.045 39.4001 119.045C39.9808 119.045 40.5051 119.175 40.9731 119.435C41.4411 119.695 41.8138 120.085 42.0911 120.605C42.3771 121.125 42.5201 121.775 42.5201 122.555C42.5201 123.335 42.3815 123.985 42.1041 124.505C41.8355 125.025 41.4671 125.419 40.9991 125.688C40.5311 125.948 39.9981 126.078 39.4001 126.078ZM39.5041 124.986C39.9375 124.986 40.3275 124.886 40.6741 124.687C41.0295 124.488 41.3068 124.206 41.5061 123.842C41.7141 123.469 41.8181 123.04 41.8181 122.555C41.8181 122.061 41.7141 121.636 41.5061 121.281C41.3068 120.917 41.0295 120.635 40.6741 120.436C40.3275 120.237 39.9375 120.137 39.5041 120.137C39.0621 120.137 38.6678 120.237 38.3211 120.436C37.9745 120.635 37.6971 120.917 37.4891 121.281C37.2811 121.636 37.1771 122.061 37.1771 122.555C37.1771 123.04 37.2811 123.469 37.4891 123.842C37.6971 124.206 37.9745 124.488 38.3211 124.687C38.6678 124.886 39.0621 124.986 39.5041 124.986ZM41.8571 126V124.141L41.9351 122.542L41.8051 120.943V116.354H43.0531V126H41.8571ZM49.6914 126V124.544L49.6264 124.271V121.788C49.6264 121.259 49.4704 120.852 49.1584 120.566C48.8551 120.271 48.3958 120.124 47.7804 120.124C47.3731 120.124 46.9744 120.193 46.5844 120.332C46.1944 120.462 45.8651 120.64 45.5964 120.865L45.0764 119.929C45.4318 119.643 45.8564 119.426 46.3504 119.279C46.8531 119.123 47.3774 119.045 47.9234 119.045C48.8681 119.045 49.5961 119.275 50.1074 119.734C50.6188 120.193 50.8744 120.895 50.8744 121.84V126H49.6914ZM47.4294 126.078C46.9181 126.078 46.4674 125.991 46.0774 125.818C45.6961 125.645 45.4014 125.406 45.1934 125.103C44.9854 124.791 44.8814 124.44 44.8814 124.05C44.8814 123.677 44.9681 123.339 45.1414 123.036C45.3234 122.733 45.6138 122.49 46.0124 122.308C46.4198 122.126 46.9658 122.035 47.6504 122.035H49.8344V122.932H47.7024C47.0784 122.932 46.6581 123.036 46.4414 123.244C46.2248 123.452 46.1164 123.703 46.1164 123.998C46.1164 124.336 46.2508 124.609 46.5194 124.817C46.7881 125.016 47.1608 125.116 47.6374 125.116C48.1054 125.116 48.5128 125.012 48.8594 124.804C49.2148 124.596 49.4704 124.293 49.6264 123.894L49.8734 124.752C49.7088 125.159 49.4184 125.484 49.0024 125.727C48.5864 125.961 48.0621 126.078 47.4294 126.078ZM59.5222 126.078C58.8549 126.078 58.2569 125.931 57.7282 125.636C57.2082 125.341 56.7965 124.93 56.4932 124.401C56.1899 123.872 56.0382 123.257 56.0382 122.555C56.0382 121.853 56.1899 121.242 56.4932 120.722C56.7965 120.193 57.2082 119.782 57.7282 119.487C58.2569 119.192 58.8549 119.045 59.5222 119.045C60.1029 119.045 60.6272 119.175 61.0952 119.435C61.5632 119.695 61.9359 120.085 62.2132 120.605C62.4992 121.125 62.6422 121.775 62.6422 122.555C62.6422 123.335 62.5035 123.985 62.2262 124.505C61.9575 125.025 61.5892 125.419 61.1212 125.688C60.6532 125.948 60.1202 126.078 59.5222 126.078ZM59.6262 124.986C60.0595 124.986 60.4495 124.886 60.7962 124.687C61.1515 124.488 61.4289 124.206 61.6282 123.842C61.8362 123.469 61.9402 123.04 61.9402 122.555C61.9402 122.061 61.8362 121.636 61.6282 121.281C61.4289 120.917 61.1515 120.635 60.7962 120.436C60.4495 120.237 60.0595 120.137 59.6262 120.137C59.1842 120.137 58.7899 120.237 58.4432 120.436C58.0965 120.635 57.8192 120.917 57.6112 121.281C57.4032 121.636 57.2992 122.061 57.2992 122.555C57.2992 123.04 57.4032 123.469 57.6112 123.842C57.8192 124.206 58.0965 124.488 58.4432 124.687C58.7899 124.886 59.1842 124.986 59.6262 124.986ZM61.9792 126V124.141L62.0572 122.542L61.9272 120.943V116.354H63.1752V126H61.9792ZM69.8135 126V124.544L69.7485 124.271V121.788C69.7485 121.259 69.5925 120.852 69.2805 120.566C68.9772 120.271 68.5178 120.124 67.9025 120.124C67.4952 120.124 67.0965 120.193 66.7065 120.332C66.3165 120.462 65.9872 120.64 65.7185 120.865L65.1985 119.929C65.5538 119.643 65.9785 119.426 66.4725 119.279C66.9752 119.123 67.4995 119.045 68.0455 119.045C68.9902 119.045 69.7182 119.275 70.2295 119.734C70.7408 120.193 70.9965 120.895 70.9965 121.84V126H69.8135ZM67.5515 126.078C67.0402 126.078 66.5895 125.991 66.1995 125.818C65.8182 125.645 65.5235 125.406 65.3155 125.103C65.1075 124.791 65.0035 124.44 65.0035 124.05C65.0035 123.677 65.0902 123.339 65.2635 123.036C65.4455 122.733 65.7358 122.49 66.1345 122.308C66.5418 122.126 67.0878 122.035 67.7725 122.035H69.9565V122.932H67.8245C67.2005 122.932 66.7802 123.036 66.5635 123.244C66.3468 123.452 66.2385 123.703 66.2385 123.998C66.2385 124.336 66.3728 124.609 66.6415 124.817C66.9102 125.016 67.2828 125.116 67.7595 125.116C68.2275 125.116 68.6348 125.012 68.9815 124.804C69.3368 124.596 69.5925 124.293 69.7485 123.894L69.9955 124.752C69.8308 125.159 69.5405 125.484 69.1245 125.727C68.7085 125.961 68.1842 126.078 67.5515 126.078ZM76.959 126.078C76.387 126.078 75.8627 125.948 75.386 125.688C74.918 125.419 74.541 125.025 74.255 124.505C73.9777 123.985 73.839 123.335 73.839 122.555C73.839 121.775 73.9734 121.125 74.242 120.605C74.5194 120.085 74.892 119.695 75.36 119.435C75.8367 119.175 76.3697 119.045 76.959 119.045C77.635 119.045 78.233 119.192 78.753 119.487C79.273 119.782 79.6847 120.193 79.988 120.722C80.2914 121.242 80.443 121.853 80.443 122.555C80.443 123.257 80.2914 123.872 79.988 124.401C79.6847 124.93 79.273 125.341 78.753 125.636C78.233 125.931 77.635 126.078 76.959 126.078ZM73.306 128.522V119.11H74.502V120.969L74.424 122.568L74.554 124.167V128.522H73.306ZM76.855 124.986C77.297 124.986 77.6914 124.886 78.038 124.687C78.3934 124.488 78.6707 124.206 78.87 123.842C79.078 123.469 79.182 123.04 79.182 122.555C79.182 122.061 79.078 121.636 78.87 121.281C78.6707 120.917 78.3934 120.635 78.038 120.436C77.6914 120.237 77.297 120.137 76.855 120.137C76.4217 120.137 76.0274 120.237 75.672 120.436C75.3254 120.635 75.048 120.917 74.84 121.281C74.6407 121.636 74.541 122.061 74.541 122.555C74.541 123.04 74.6407 123.469 74.84 123.842C75.048 124.206 75.3254 124.488 75.672 124.687C76.0274 124.886 76.4217 124.986 76.855 124.986ZM86.3809 126V124.544L86.3159 124.271V121.788C86.3159 121.259 86.1599 120.852 85.8479 120.566C85.5446 120.271 85.0852 120.124 84.4699 120.124C84.0626 120.124 83.6639 120.193 83.2739 120.332C82.8839 120.462 82.5546 120.64 82.2859 120.865L81.7659 119.929C82.1212 119.643 82.5459 119.426 83.0399 119.279C83.5426 119.123 84.0669 119.045 84.6129 119.045C85.5576 119.045 86.2856 119.275 86.7969 119.734C87.3082 120.193 87.5639 120.895 87.5639 121.84V126H86.3809ZM84.1189 126.078C83.6076 126.078 83.1569 125.991 82.7669 125.818C82.3856 125.645 82.0909 125.406 81.8829 125.103C81.6749 124.791 81.5709 124.44 81.5709 124.05C81.5709 123.677 81.6576 123.339 81.8309 123.036C82.0129 122.733 82.3032 122.49 82.7019 122.308C83.1092 122.126 83.6552 122.035 84.3399 122.035H86.5239V122.932H84.3919C83.7679 122.932 83.3476 123.036 83.1309 123.244C82.9142 123.452 82.8059 123.703 82.8059 123.998C82.8059 124.336 82.9402 124.609 83.2089 124.817C83.4776 125.016 83.8502 125.116 84.3269 125.116C84.7949 125.116 85.2022 125.012 85.5489 124.804C85.9042 124.596 86.1599 124.293 86.3159 123.894L86.5629 124.752C86.3982 125.159 86.1079 125.484 85.6919 125.727C85.2759 125.961 84.7516 126.078 84.1189 126.078ZM92.2394 126.078C91.5461 126.078 91.0088 125.892 90.6274 125.519C90.2461 125.146 90.0554 124.613 90.0554 123.92V117.602H91.3034V123.868C91.3034 124.241 91.3944 124.527 91.5764 124.726C91.7671 124.925 92.0358 125.025 92.3824 125.025C92.7724 125.025 93.0974 124.917 93.3574 124.7L93.7474 125.597C93.5568 125.762 93.3271 125.883 93.0584 125.961C92.7984 126.039 92.5254 126.078 92.2394 126.078ZM88.8854 120.137V119.11H93.2794V120.137H88.8854ZM107.366 119.045C107.921 119.045 108.411 119.153 108.835 119.37C109.26 119.587 109.589 119.916 109.823 120.358C110.066 120.8 110.187 121.359 110.187 122.035V126H108.939V122.178C108.939 121.511 108.783 121.008 108.471 120.67C108.159 120.332 107.722 120.163 107.158 120.163C106.742 120.163 106.378 120.25 106.066 120.423C105.754 120.596 105.512 120.852 105.338 121.19C105.174 121.528 105.091 121.948 105.091 122.451V126H103.843V122.178C103.843 121.511 103.687 121.008 103.375 120.67C103.072 120.332 102.634 120.163 102.062 120.163C101.655 120.163 101.295 120.25 100.983 120.423C100.671 120.596 100.429 120.852 100.255 121.19C100.082 121.528 99.9955 121.948 99.9955 122.451V126H98.7475V119.11H99.9435V120.943L99.7485 120.475C99.9651 120.024 100.299 119.673 100.749 119.422C101.2 119.171 101.724 119.045 102.322 119.045C102.981 119.045 103.549 119.21 104.025 119.539C104.502 119.86 104.814 120.349 104.961 121.008L104.454 120.8C104.662 120.271 105.026 119.847 105.546 119.526C106.066 119.205 106.673 119.045 107.366 119.045ZM115.552 126.078C114.815 126.078 114.165 125.926 113.602 125.623C113.047 125.32 112.614 124.904 112.302 124.375C111.998 123.846 111.847 123.24 111.847 122.555C111.847 121.87 111.994 121.264 112.289 120.735C112.592 120.206 113.004 119.795 113.524 119.5C114.052 119.197 114.646 119.045 115.305 119.045C115.972 119.045 116.561 119.192 117.073 119.487C117.584 119.782 117.983 120.198 118.269 120.735C118.563 121.264 118.711 121.883 118.711 122.594C118.711 122.646 118.706 122.707 118.698 122.776C118.698 122.845 118.693 122.91 118.685 122.971H112.822V122.074H118.035L117.528 122.386C117.536 121.944 117.445 121.55 117.255 121.203C117.064 120.856 116.8 120.588 116.462 120.397C116.132 120.198 115.747 120.098 115.305 120.098C114.871 120.098 114.486 120.198 114.148 120.397C113.81 120.588 113.545 120.861 113.355 121.216C113.164 121.563 113.069 121.961 113.069 122.412V122.62C113.069 123.079 113.173 123.491 113.381 123.855C113.597 124.21 113.896 124.488 114.278 124.687C114.659 124.886 115.097 124.986 115.591 124.986C115.998 124.986 116.366 124.917 116.696 124.778C117.034 124.639 117.328 124.431 117.58 124.154L118.269 124.96C117.957 125.324 117.567 125.601 117.099 125.792C116.639 125.983 116.124 126.078 115.552 126.078ZM120.444 126V119.11H121.64V120.982L121.523 120.514C121.713 120.037 122.034 119.673 122.485 119.422C122.935 119.171 123.49 119.045 124.149 119.045V120.254C124.097 120.245 124.045 120.241 123.993 120.241C123.949 120.241 123.906 120.241 123.863 120.241C123.195 120.241 122.667 120.44 122.277 120.839C121.887 121.238 121.692 121.814 121.692 122.568V126H120.444ZM129.456 126V124.544L129.391 124.271V121.788C129.391 121.259 129.235 120.852 128.923 120.566C128.62 120.271 128.16 120.124 127.545 120.124C127.138 120.124 126.739 120.193 126.349 120.332C125.959 120.462 125.63 120.64 125.361 120.865L124.841 119.929C125.196 119.643 125.621 119.426 126.115 119.279C126.618 119.123 127.142 119.045 127.688 119.045C128.633 119.045 129.361 119.275 129.872 119.734C130.383 120.193 130.639 120.895 130.639 121.84V126H129.456ZM127.194 126.078C126.683 126.078 126.232 125.991 125.842 125.818C125.461 125.645 125.166 125.406 124.958 125.103C124.75 124.791 124.646 124.44 124.646 124.05C124.646 123.677 124.733 123.339 124.906 123.036C125.088 122.733 125.378 122.49 125.777 122.308C126.184 122.126 126.73 122.035 127.415 122.035H129.599V122.932H127.467C126.843 122.932 126.423 123.036 126.206 123.244C125.989 123.452 125.881 123.703 125.881 123.998C125.881 124.336 126.015 124.609 126.284 124.817C126.553 125.016 126.925 125.116 127.402 125.116C127.87 125.116 128.277 125.012 128.624 124.804C128.979 124.596 129.235 124.293 129.391 123.894L129.638 124.752C129.473 125.159 129.183 125.484 128.767 125.727C128.351 125.961 127.827 126.078 127.194 126.078ZM134.925 126.078C134.353 126.078 133.807 126 133.287 125.844C132.775 125.688 132.372 125.497 132.078 125.272L132.598 124.284C132.892 124.483 133.256 124.652 133.69 124.791C134.123 124.93 134.565 124.999 135.016 124.999C135.596 124.999 136.012 124.917 136.264 124.752C136.524 124.587 136.654 124.358 136.654 124.063C136.654 123.846 136.576 123.677 136.42 123.556C136.264 123.435 136.056 123.344 135.796 123.283C135.544 123.222 135.263 123.17 134.951 123.127C134.639 123.075 134.327 123.014 134.015 122.945C133.703 122.867 133.417 122.763 133.157 122.633C132.897 122.494 132.689 122.308 132.533 122.074C132.377 121.831 132.299 121.511 132.299 121.112C132.299 120.696 132.416 120.332 132.65 120.02C132.884 119.708 133.213 119.47 133.638 119.305C134.071 119.132 134.582 119.045 135.172 119.045C135.622 119.045 136.077 119.101 136.537 119.214C137.005 119.318 137.386 119.47 137.681 119.669L137.148 120.657C136.836 120.449 136.511 120.306 136.173 120.228C135.835 120.15 135.497 120.111 135.159 120.111C134.613 120.111 134.205 120.202 133.937 120.384C133.668 120.557 133.534 120.783 133.534 121.06C133.534 121.294 133.612 121.476 133.768 121.606C133.932 121.727 134.14 121.823 134.392 121.892C134.652 121.961 134.938 122.022 135.25 122.074C135.562 122.117 135.874 122.178 136.186 122.256C136.498 122.325 136.779 122.425 137.031 122.555C137.291 122.685 137.499 122.867 137.655 123.101C137.819 123.335 137.902 123.647 137.902 124.037C137.902 124.453 137.78 124.813 137.538 125.116C137.295 125.419 136.953 125.658 136.511 125.831C136.069 125.996 135.54 126.078 134.925 126.078ZM143.738 126V124.544L143.673 124.271V121.788C143.673 121.259 143.517 120.852 143.205 120.566C142.902 120.271 142.443 120.124 141.827 120.124C141.42 120.124 141.021 120.193 140.631 120.332C140.241 120.462 139.912 120.64 139.643 120.865L139.123 119.929C139.479 119.643 139.903 119.426 140.397 119.279C140.9 119.123 141.424 119.045 141.97 119.045C142.915 119.045 143.643 119.275 144.154 119.734C144.666 120.193 144.921 120.895 144.921 121.84V126H143.738ZM141.476 126.078C140.965 126.078 140.514 125.991 140.124 125.818C139.743 125.645 139.448 125.406 139.24 125.103C139.032 124.791 138.928 124.44 138.928 124.05C138.928 123.677 139.015 123.339 139.188 123.036C139.37 122.733 139.661 122.49 140.059 122.308C140.467 122.126 141.013 122.035 141.697 122.035H143.881V122.932H141.749C141.125 122.932 140.705 123.036 140.488 123.244C140.272 123.452 140.163 123.703 140.163 123.998C140.163 124.336 140.298 124.609 140.566 124.817C140.835 125.016 141.208 125.116 141.684 125.116C142.152 125.116 142.56 125.012 142.906 124.804C143.262 124.596 143.517 124.293 143.673 123.894L143.92 124.752C143.756 125.159 143.465 125.484 143.049 125.727C142.633 125.961 142.109 126.078 141.476 126.078ZM153.088 126.078C152.395 126.078 151.857 125.892 151.476 125.519C151.095 125.146 150.904 124.613 150.904 123.92V117.602H152.152V123.868C152.152 124.241 152.243 124.527 152.425 124.726C152.616 124.925 152.884 125.025 153.231 125.025C153.621 125.025 153.946 124.917 154.206 124.7L154.596 125.597C154.405 125.762 154.176 125.883 153.907 125.961C153.647 126.039 153.374 126.078 153.088 126.078ZM149.734 120.137V119.11H154.128V120.137H149.734ZM158.944 126.078C158.208 126.078 157.558 125.926 156.994 125.623C156.44 125.32 156.006 124.904 155.694 124.375C155.391 123.846 155.239 123.24 155.239 122.555C155.239 121.87 155.387 121.264 155.681 120.735C155.985 120.206 156.396 119.795 156.916 119.5C157.445 119.197 158.039 119.045 158.697 119.045C159.365 119.045 159.954 119.192 160.465 119.487C160.977 119.782 161.375 120.198 161.661 120.735C161.956 121.264 162.103 121.883 162.103 122.594C162.103 122.646 162.099 122.707 162.09 122.776C162.09 122.845 162.086 122.91 162.077 122.971H156.214V122.074H161.427L160.92 122.386C160.929 121.944 160.838 121.55 160.647 121.203C160.457 120.856 160.192 120.588 159.854 120.397C159.525 120.198 159.139 120.098 158.697 120.098C158.264 120.098 157.878 120.198 157.54 120.397C157.202 120.588 156.938 120.861 156.747 121.216C156.557 121.563 156.461 121.961 156.461 122.412V122.62C156.461 123.079 156.565 123.491 156.773 123.855C156.99 124.21 157.289 124.488 157.67 124.687C158.052 124.886 158.489 124.986 158.983 124.986C159.391 124.986 159.759 124.917 160.088 124.778C160.426 124.639 160.721 124.431 160.972 124.154L161.661 124.96C161.349 125.324 160.959 125.601 160.491 125.792C160.032 125.983 159.516 126.078 158.944 126.078ZM167.515 119.045C168.079 119.045 168.573 119.153 168.997 119.37C169.431 119.587 169.769 119.916 170.011 120.358C170.254 120.8 170.375 121.359 170.375 122.035V126H169.127V122.178C169.127 121.511 168.963 121.008 168.633 120.67C168.313 120.332 167.858 120.163 167.268 120.163C166.826 120.163 166.441 120.25 166.111 120.423C165.782 120.596 165.526 120.852 165.344 121.19C165.171 121.528 165.084 121.948 165.084 122.451V126H163.836V119.11H165.032V120.969L164.837 120.475C165.063 120.024 165.409 119.673 165.877 119.422C166.345 119.171 166.891 119.045 167.515 119.045ZM176.962 126V124.544L176.897 124.271V121.788C176.897 121.259 176.741 120.852 176.429 120.566C176.126 120.271 175.666 120.124 175.051 120.124C174.644 120.124 174.245 120.193 173.855 120.332C173.465 120.462 173.136 120.64 172.867 120.865L172.347 119.929C172.702 119.643 173.127 119.426 173.621 119.279C174.124 119.123 174.648 119.045 175.194 119.045C176.139 119.045 176.867 119.275 177.378 119.734C177.889 120.193 178.145 120.895 178.145 121.84V126H176.962ZM174.7 126.078C174.189 126.078 173.738 125.991 173.348 125.818C172.967 125.645 172.672 125.406 172.464 125.103C172.256 124.791 172.152 124.44 172.152 124.05C172.152 123.677 172.239 123.339 172.412 123.036C172.594 122.733 172.884 122.49 173.283 122.308C173.69 122.126 174.236 122.035 174.921 122.035H177.105V122.932H174.973C174.349 122.932 173.929 123.036 173.712 123.244C173.495 123.452 173.387 123.703 173.387 123.998C173.387 124.336 173.521 124.609 173.79 124.817C174.059 125.016 174.431 125.116 174.908 125.116C175.376 125.116 175.783 125.012 176.13 124.804C176.485 124.596 176.741 124.293 176.897 123.894L177.144 124.752C176.979 125.159 176.689 125.484 176.273 125.727C175.857 125.961 175.333 126.078 174.7 126.078ZM184.133 119.045C184.697 119.045 185.191 119.153 185.615 119.37C186.049 119.587 186.387 119.916 186.629 120.358C186.872 120.8 186.993 121.359 186.993 122.035V126H185.745V122.178C185.745 121.511 185.581 121.008 185.251 120.67C184.931 120.332 184.476 120.163 183.886 120.163C183.444 120.163 183.059 120.25 182.729 120.423C182.4 120.596 182.144 120.852 181.962 121.19C181.789 121.528 181.702 121.948 181.702 122.451V126H180.454V119.11H181.65V120.969L181.455 120.475C181.681 120.024 182.027 119.673 182.495 119.422C182.963 119.171 183.509 119.045 184.133 119.045ZM192.319 128.6C191.686 128.6 191.071 128.509 190.473 128.327C189.884 128.154 189.403 127.902 189.03 127.573L189.628 126.611C189.949 126.888 190.343 127.105 190.811 127.261C191.279 127.426 191.769 127.508 192.28 127.508C193.095 127.508 193.693 127.317 194.074 126.936C194.455 126.555 194.646 125.974 194.646 125.194V123.738L194.776 122.373L194.711 120.995V119.11H195.894V125.064C195.894 126.277 195.591 127.17 194.984 127.742C194.377 128.314 193.489 128.6 192.319 128.6ZM192.163 125.714C191.496 125.714 190.898 125.575 190.369 125.298C189.849 125.012 189.433 124.618 189.121 124.115C188.818 123.612 188.666 123.032 188.666 122.373C188.666 121.706 188.818 121.125 189.121 120.631C189.433 120.128 189.849 119.738 190.369 119.461C190.898 119.184 191.496 119.045 192.163 119.045C192.752 119.045 193.29 119.166 193.775 119.409C194.26 119.643 194.646 120.007 194.932 120.501C195.227 120.995 195.374 121.619 195.374 122.373C195.374 123.118 195.227 123.738 194.932 124.232C194.646 124.726 194.26 125.099 193.775 125.35C193.29 125.593 192.752 125.714 192.163 125.714ZM192.306 124.622C192.765 124.622 193.173 124.527 193.528 124.336C193.883 124.145 194.161 123.881 194.36 123.543C194.568 123.205 194.672 122.815 194.672 122.373C194.672 121.931 194.568 121.541 194.36 121.203C194.161 120.865 193.883 120.605 193.528 120.423C193.173 120.232 192.765 120.137 192.306 120.137C191.847 120.137 191.435 120.232 191.071 120.423C190.716 120.605 190.434 120.865 190.226 121.203C190.027 121.541 189.927 121.931 189.927 122.373C189.927 122.815 190.027 123.205 190.226 123.543C190.434 123.881 190.716 124.145 191.071 124.336C191.435 124.527 191.847 124.622 192.306 124.622ZM198.578 126.078C198.335 126.078 198.127 125.996 197.954 125.831C197.78 125.658 197.694 125.441 197.694 125.181C197.694 124.921 197.78 124.709 197.954 124.544C198.127 124.379 198.335 124.297 198.578 124.297C198.812 124.297 199.011 124.379 199.176 124.544C199.349 124.709 199.436 124.921 199.436 125.181C199.436 125.441 199.349 125.658 199.176 125.831C199.011 125.996 198.812 126.078 198.578 126.078Z" fill="white" fill-opacity="0.8"/>
<circle cx="37" cy="36" r="20" fill="#26272A"/>
<path d="M44.965 32.521C44.988 32.347 45 32.173 45 32C45 29.621 42.857 27.712 40.479 28.035C39.786 26.802 38.466 26 37 26C35.534 26 34.214 26.802 33.521 28.035C31.138 27.712 29 29.621 29 32C29 32.173 29.012 32.347 29.035 32.521C27.802 33.215 27 34.535 27 36C27 37.465 27.802 38.785 29.035 39.479C29.0119 39.6517 29.0002 39.8258 29 40C29 42.379 31.138 44.283 33.521 43.965C34.214 45.198 35.534 46 37 46C38.466 46 39.786 45.198 40.479 43.965C42.857 44.283 45 42.379 45 40C45 39.827 44.988 39.653 44.965 39.479C46.198 38.785 47 37.465 47 36C47 34.535 46.198 33.215 44.965 32.521ZM35.955 40.416L32.288 36.702L33.712 35.298L35.969 37.584L40.296 33.29L41.704 34.71L35.955 40.416Z" fill="#939395"/>
</svg>
