<svg width="300" height="160" viewBox="0 0 300 160" fill="none" xmlns="http://www.w3.org/2000/svg">
<rect width="300" height="160" rx="10" fill="#0C0E12"/>
<rect x="1" y="1" width="298" height="158" rx="9" stroke="white" stroke-opacity="0.07" stroke-width="2"/>
<path d="M79.9 43.2C77.98 43.2 76.4733 42.66 75.38 41.58C74.3 40.5 73.76 38.94 73.76 36.9V29H76.36V36.8C76.36 38.24 76.6667 39.2867 77.28 39.94C77.9067 40.5933 78.7867 40.92 79.92 40.92C81.0533 40.92 81.9267 40.5933 82.54 39.94C83.1533 39.2867 83.46 38.24 83.46 36.8V29H86.02V36.9C86.02 38.94 85.4733 40.5 84.38 41.58C83.3 42.66 81.8067 43.2 79.9 43.2ZM95.3413 43.14C94.4746 43.14 93.6813 42.94 92.9613 42.54C92.2546 42.14 91.6879 41.54 91.2613 40.74C90.8479 39.9267 90.6413 38.9 90.6413 37.66C90.6413 36.4067 90.8413 35.38 91.2413 34.58C91.6546 33.78 92.2146 33.1867 92.9212 32.8C93.6279 32.4 94.4346 32.2 95.3413 32.2C96.3946 32.2 97.3213 32.4267 98.1213 32.88C98.9346 33.3333 99.5746 33.9667 100.041 34.78C100.521 35.5933 100.761 36.5533 100.761 37.66C100.761 38.7667 100.521 39.7333 100.041 40.56C99.5746 41.3733 98.9346 42.0067 98.1213 42.46C97.3213 42.9133 96.3946 43.14 95.3413 43.14ZM89.4213 46.88V32.32H91.8013V34.84L91.7213 37.68L91.9213 40.52V46.88H89.4213ZM95.0613 41C95.6613 41 96.1946 40.8667 96.6613 40.6C97.1413 40.3333 97.5213 39.9467 97.8013 39.44C98.0813 38.9333 98.2213 38.34 98.2213 37.66C98.2213 36.9667 98.0813 36.3733 97.8013 35.88C97.5213 35.3733 97.1413 34.9867 96.6613 34.72C96.1946 34.4533 95.6613 34.32 95.0613 34.32C94.4613 34.32 93.9213 34.4533 93.4413 34.72C92.9613 34.9867 92.5813 35.3733 92.3013 35.88C92.0213 36.3733 91.8813 36.9667 91.8813 37.66C91.8813 38.34 92.0213 38.9333 92.3013 39.44C92.5813 39.9467 92.9613 40.3333 93.4413 40.6C93.9213 40.8667 94.4613 41 95.0613 41ZM107.652 43.14C106.626 43.14 105.699 42.9133 104.872 42.46C104.059 41.9933 103.419 41.3533 102.952 40.54C102.486 39.7267 102.252 38.7667 102.252 37.66C102.252 36.5533 102.486 35.5933 102.952 34.78C103.419 33.9667 104.059 33.3333 104.872 32.88C105.699 32.4267 106.626 32.2 107.652 32.2C108.546 32.2 109.346 32.4 110.052 32.8C110.759 33.1867 111.319 33.78 111.732 34.58C112.146 35.38 112.352 36.4067 112.352 37.66C112.352 38.9 112.152 39.9267 111.752 40.74C111.352 41.54 110.799 42.14 110.092 42.54C109.386 42.94 108.572 43.14 107.652 43.14ZM107.952 41C108.552 41 109.086 40.8667 109.552 40.6C110.032 40.3333 110.412 39.9467 110.692 39.44C110.986 38.9333 111.132 38.34 111.132 37.66C111.132 36.9667 110.986 36.3733 110.692 35.88C110.412 35.3733 110.032 34.9867 109.552 34.72C109.086 34.4533 108.552 34.32 107.952 34.32C107.352 34.32 106.812 34.4533 106.332 34.72C105.866 34.9867 105.486 35.3733 105.192 35.88C104.912 36.3733 104.772 36.9667 104.772 37.66C104.772 38.34 104.912 38.9333 105.192 39.44C105.486 39.9467 105.866 40.3333 106.332 40.6C106.812 40.8667 107.352 41 107.952 41ZM111.192 43V40.48L111.292 37.64L111.092 34.8V28.16H113.572V43H111.192ZM123.443 43V40.84L123.303 40.38V36.6C123.303 35.8667 123.083 35.3 122.643 34.9C122.203 34.4867 121.536 34.28 120.643 34.28C120.043 34.28 119.449 34.3733 118.863 34.56C118.289 34.7467 117.803 35.0067 117.403 35.34L116.423 33.52C116.996 33.08 117.676 32.7533 118.463 32.54C119.263 32.3133 120.089 32.2 120.943 32.2C122.489 32.2 123.683 32.5733 124.523 33.32C125.376 34.0533 125.803 35.1933 125.803 36.74V43H123.443ZM120.083 43.14C119.283 43.14 118.583 43.0067 117.983 42.74C117.383 42.46 116.916 42.08 116.583 41.6C116.263 41.1067 116.103 40.5533 116.103 39.94C116.103 39.34 116.243 38.8 116.523 38.32C116.816 37.84 117.289 37.46 117.943 37.18C118.596 36.9 119.463 36.76 120.543 36.76H123.643V38.42H120.723C119.869 38.42 119.296 38.56 119.003 38.84C118.709 39.1067 118.563 39.44 118.563 39.84C118.563 40.2933 118.743 40.6533 119.103 40.92C119.463 41.1867 119.963 41.32 120.603 41.32C121.216 41.32 121.763 41.18 122.243 40.9C122.736 40.62 123.089 40.2067 123.303 39.66L123.723 41.16C123.483 41.7867 123.049 42.2733 122.423 42.62C121.809 42.9667 121.029 43.14 120.083 43.14ZM133.031 43.14C131.858 43.14 130.951 42.84 130.311 42.24C129.671 41.6267 129.351 40.7267 129.351 39.54V29.96H131.851V39.48C131.851 39.9867 131.978 40.38 132.231 40.66C132.498 40.94 132.864 41.08 133.331 41.08C133.891 41.08 134.358 40.9333 134.731 40.64L135.431 42.42C135.138 42.66 134.778 42.84 134.351 42.96C133.924 43.08 133.484 43.14 133.031 43.14ZM127.591 34.4V32.4H134.711V34.4H127.591ZM142.156 43.14C140.969 43.14 139.929 42.9067 139.036 42.44C138.156 41.96 137.469 41.3067 136.976 40.48C136.496 39.6533 136.256 38.7133 136.256 37.66C136.256 36.5933 136.489 35.6533 136.956 34.84C137.436 34.0133 138.089 33.3667 138.916 32.9C139.756 32.4333 140.709 32.2 141.776 32.2C142.816 32.2 143.743 32.4267 144.556 32.88C145.369 33.3333 146.009 33.9733 146.476 34.8C146.943 35.6267 147.176 36.6 147.176 37.72C147.176 37.8267 147.169 37.9467 147.156 38.08C147.156 38.2133 147.149 38.34 147.136 38.46H138.236V36.8H145.816L144.836 37.32C144.849 36.7067 144.723 36.1667 144.456 35.7C144.189 35.2333 143.823 34.8667 143.356 34.6C142.903 34.3333 142.376 34.2 141.776 34.2C141.163 34.2 140.623 34.3333 140.156 34.6C139.703 34.8667 139.343 35.24 139.076 35.72C138.823 36.1867 138.696 36.74 138.696 37.38V37.78C138.696 38.42 138.843 38.9867 139.136 39.48C139.429 39.9733 139.843 40.3533 140.376 40.62C140.909 40.8867 141.523 41.02 142.216 41.02C142.816 41.02 143.356 40.9267 143.836 40.74C144.316 40.5533 144.743 40.26 145.116 39.86L146.456 41.4C145.976 41.96 145.369 42.3933 144.636 42.7C143.916 42.9933 143.089 43.14 142.156 43.14ZM155.345 43V29H157.945V43H155.345ZM167.552 32.2C168.405 32.2 169.165 32.3667 169.832 32.7C170.512 33.0333 171.045 33.5467 171.432 34.24C171.818 34.92 172.012 35.8 172.012 36.88V43H169.512V37.2C169.512 36.2533 169.285 35.5467 168.832 35.08C168.392 34.6133 167.772 34.38 166.972 34.38C166.385 34.38 165.865 34.5 165.412 34.74C164.958 34.98 164.605 35.34 164.352 35.82C164.112 36.2867 163.992 36.88 163.992 37.6V43H161.492V32.32H163.872V35.2L163.452 34.32C163.825 33.64 164.365 33.12 165.072 32.76C165.792 32.3867 166.618 32.2 167.552 32.2ZM175.523 43V31.72C175.523 30.6 175.85 29.7067 176.503 29.04C177.17 28.36 178.116 28.02 179.343 28.02C179.783 28.02 180.196 28.0667 180.583 28.16C180.983 28.2533 181.316 28.4 181.583 28.6L180.903 30.48C180.716 30.3333 180.503 30.2267 180.263 30.16C180.023 30.08 179.776 30.04 179.523 30.04C179.003 30.04 178.61 30.1867 178.343 30.48C178.076 30.76 177.943 31.1867 177.943 31.76V32.96L178.023 34.08V43H175.523ZM173.763 34.4V32.4H180.883V34.4H173.763ZM187.21 43.14C186.116 43.14 185.143 42.9067 184.29 42.44C183.436 41.96 182.763 41.3067 182.27 40.48C181.776 39.6533 181.53 38.7133 181.53 37.66C181.53 36.5933 181.776 35.6533 182.27 34.84C182.763 34.0133 183.436 33.3667 184.29 32.9C185.143 32.4333 186.116 32.2 187.21 32.2C188.316 32.2 189.296 32.4333 190.15 32.9C191.016 33.3667 191.69 34.0067 192.17 34.82C192.663 35.6333 192.91 36.58 192.91 37.66C192.91 38.7133 192.663 39.6533 192.17 40.48C191.69 41.3067 191.016 41.96 190.15 42.44C189.296 42.9067 188.316 43.14 187.21 43.14ZM187.21 41C187.823 41 188.37 40.8667 188.85 40.6C189.33 40.3333 189.703 39.9467 189.97 39.44C190.25 38.9333 190.39 38.34 190.39 37.66C190.39 36.9667 190.25 36.3733 189.97 35.88C189.703 35.3733 189.33 34.9867 188.85 34.72C188.37 34.4533 187.83 34.32 187.23 34.32C186.616 34.32 186.07 34.4533 185.59 34.72C185.123 34.9867 184.75 35.3733 184.47 35.88C184.19 36.3733 184.05 36.9667 184.05 37.66C184.05 38.34 184.19 38.9333 184.47 39.44C184.75 39.9467 185.123 40.3333 185.59 40.6C186.07 40.8667 186.61 41 187.21 41ZM195.3 43V32.32H197.68V35.26L197.4 34.4C197.72 33.68 198.22 33.1333 198.9 32.76C199.593 32.3867 200.453 32.2 201.48 32.2V34.58C201.373 34.5533 201.273 34.54 201.18 34.54C201.087 34.5267 200.993 34.52 200.9 34.52C199.953 34.52 199.2 34.8 198.64 35.36C198.08 35.9067 197.8 36.7267 197.8 37.82V43H195.3ZM217.081 32.2C217.934 32.2 218.688 32.3667 219.341 32.7C220.008 33.0333 220.528 33.5467 220.901 34.24C221.274 34.92 221.461 35.8 221.461 36.88V43H218.961V37.2C218.961 36.2533 218.754 35.5467 218.341 35.08C217.928 34.6133 217.334 34.38 216.561 34.38C216.014 34.38 215.528 34.5 215.101 34.74C214.688 34.98 214.361 35.3333 214.121 35.8C213.894 36.2667 213.781 36.86 213.781 37.58V43H211.281V37.2C211.281 36.2533 211.074 35.5467 210.661 35.08C210.248 34.6133 209.654 34.38 208.881 34.38C208.334 34.38 207.848 34.5 207.421 34.74C207.008 34.98 206.681 35.3333 206.441 35.8C206.214 36.2667 206.101 36.86 206.101 37.58V43H203.601V32.32H205.981V35.16L205.561 34.32C205.921 33.6267 206.441 33.1 207.121 32.74C207.814 32.38 208.601 32.2 209.481 32.2C210.481 32.2 211.348 32.4467 212.081 32.94C212.828 33.4333 213.321 34.18 213.561 35.18L212.581 34.84C212.928 34.04 213.501 33.4 214.301 32.92C215.101 32.44 216.028 32.2 217.081 32.2ZM231.236 43V40.84L231.096 40.38V36.6C231.096 35.8667 230.876 35.3 230.436 34.9C229.996 34.4867 229.329 34.28 228.436 34.28C227.836 34.28 227.242 34.3733 226.656 34.56C226.082 34.7467 225.596 35.0067 225.196 35.34L224.216 33.52C224.789 33.08 225.469 32.7533 226.256 32.54C227.056 32.3133 227.882 32.2 228.736 32.2C230.282 32.2 231.476 32.5733 232.316 33.32C233.169 34.0533 233.596 35.1933 233.596 36.74V43H231.236ZM227.876 43.14C227.076 43.14 226.376 43.0067 225.776 42.74C225.176 42.46 224.709 42.08 224.376 41.6C224.056 41.1067 223.896 40.5533 223.896 39.94C223.896 39.34 224.036 38.8 224.316 38.32C224.609 37.84 225.082 37.46 225.736 37.18C226.389 36.9 227.256 36.76 228.336 36.76H231.436V38.42H228.516C227.662 38.42 227.089 38.56 226.796 38.84C226.502 39.1067 226.356 39.44 226.356 39.84C226.356 40.2933 226.536 40.6533 226.896 40.92C227.256 41.1867 227.756 41.32 228.396 41.32C229.009 41.32 229.556 41.18 230.036 40.9C230.529 40.62 230.882 40.2067 231.096 39.66L231.516 41.16C231.276 41.7867 230.842 42.2733 230.216 42.62C229.602 42.9667 228.822 43.14 227.876 43.14ZM240.104 43.14C239.211 43.14 238.351 43.0267 237.524 42.8C236.711 42.56 236.064 42.2733 235.584 41.94L236.544 40.04C237.024 40.3467 237.597 40.6 238.264 40.8C238.931 41 239.597 41.1 240.264 41.1C241.051 41.1 241.617 40.9933 241.964 40.78C242.324 40.5667 242.504 40.28 242.504 39.92C242.504 39.6267 242.384 39.4067 242.144 39.26C241.904 39.1 241.591 38.98 241.204 38.9C240.817 38.82 240.384 38.7467 239.904 38.68C239.437 38.6133 238.964 38.5267 238.484 38.42C238.017 38.3 237.591 38.1333 237.204 37.92C236.817 37.6933 236.504 37.3933 236.264 37.02C236.024 36.6467 235.904 36.1533 235.904 35.54C235.904 34.86 236.097 34.2733 236.484 33.78C236.871 33.2733 237.411 32.8867 238.104 32.62C238.811 32.34 239.644 32.2 240.604 32.2C241.324 32.2 242.051 32.28 242.784 32.44C243.517 32.6 244.124 32.8267 244.604 33.12L243.644 35.02C243.137 34.7133 242.624 34.5067 242.104 34.4C241.597 34.28 241.091 34.22 240.584 34.22C239.824 34.22 239.257 34.3333 238.884 34.56C238.524 34.7867 238.344 35.0733 238.344 35.42C238.344 35.74 238.464 35.98 238.704 36.14C238.944 36.3 239.257 36.4267 239.644 36.52C240.031 36.6133 240.457 36.6933 240.924 36.76C241.404 36.8133 241.877 36.9 242.344 37.02C242.811 37.14 243.237 37.3067 243.624 37.52C244.024 37.72 244.344 38.0067 244.584 38.38C244.824 38.7533 244.944 39.24 244.944 39.84C244.944 40.5067 244.744 41.0867 244.344 41.58C243.957 42.0733 243.404 42.46 242.684 42.74C241.964 43.0067 241.104 43.14 240.104 43.14ZM247.097 43V32.32H249.597V43H247.097ZM248.357 30.56C247.89 30.56 247.504 30.4133 247.197 30.12C246.904 29.8267 246.757 29.4733 246.757 29.06C246.757 28.6333 246.904 28.28 247.197 28C247.504 27.7067 247.89 27.56 248.357 27.56C248.824 27.56 249.204 27.7 249.497 27.98C249.804 28.2467 249.957 28.5867 249.957 29C249.957 29.44 249.81 29.8133 249.517 30.12C249.224 30.4133 248.837 30.56 248.357 30.56Z" fill="white"/>
<path d="M21.017 84.104C20.3237 84.104 19.6607 84 19.028 83.792C18.3953 83.5753 17.897 83.298 17.533 82.96L18.014 81.946C18.3607 82.2493 18.8027 82.5007 19.34 82.7C19.8773 82.8993 20.4363 82.999 21.017 82.999C21.5457 82.999 21.9747 82.9383 22.304 82.817C22.6333 82.6957 22.876 82.531 23.032 82.323C23.188 82.1063 23.266 81.8637 23.266 81.595C23.266 81.283 23.162 81.0317 22.954 80.841C22.7547 80.6503 22.4903 80.4987 22.161 80.386C21.8403 80.2647 21.485 80.1607 21.095 80.074C20.705 79.9873 20.3107 79.8877 19.912 79.775C19.522 79.6537 19.1623 79.502 18.833 79.32C18.5123 79.138 18.2523 78.8953 18.053 78.592C17.8537 78.28 17.754 77.8813 17.754 77.396C17.754 76.928 17.8753 76.499 18.118 76.109C18.3693 75.7103 18.7507 75.394 19.262 75.16C19.782 74.9173 20.4407 74.796 21.238 74.796C21.7667 74.796 22.291 74.8653 22.811 75.004C23.331 75.1427 23.7817 75.342 24.163 75.602L23.734 76.642C23.344 76.382 22.9323 76.1957 22.499 76.083C22.0657 75.9617 21.6453 75.901 21.238 75.901C20.7267 75.901 20.3063 75.966 19.977 76.096C19.6477 76.226 19.405 76.3993 19.249 76.616C19.1017 76.8327 19.028 77.0753 19.028 77.344C19.028 77.6647 19.1277 77.9203 19.327 78.111C19.535 78.3017 19.7993 78.4533 20.12 78.566C20.4493 78.6787 20.809 78.7827 21.199 78.878C21.589 78.9647 21.979 79.0643 22.369 79.177C22.7677 79.2897 23.1273 79.437 23.448 79.619C23.7773 79.801 24.0417 80.0437 24.241 80.347C24.4403 80.6503 24.54 81.0403 24.54 81.517C24.54 81.9763 24.4143 82.4053 24.163 82.804C23.9117 83.194 23.5217 83.5103 22.993 83.753C22.473 83.987 21.8143 84.104 21.017 84.104ZM29.3252 84.078C28.5886 84.078 27.9386 83.9263 27.3752 83.623C26.8206 83.3197 26.3872 82.9037 26.0752 82.375C25.7719 81.8463 25.6202 81.2397 25.6202 80.555C25.6202 79.8703 25.7676 79.2637 26.0622 78.735C26.3656 78.2063 26.7772 77.7947 27.2972 77.5C27.8259 77.1967 28.4196 77.045 29.0782 77.045C29.7456 77.045 30.3349 77.1923 30.8462 77.487C31.3576 77.7817 31.7562 78.1977 32.0422 78.735C32.3369 79.2637 32.4842 79.8833 32.4842 80.594C32.4842 80.646 32.4799 80.7067 32.4712 80.776C32.4712 80.8453 32.4669 80.9103 32.4582 80.971H26.5952V80.074H31.8082L31.3012 80.386C31.3099 79.944 31.2189 79.5497 31.0282 79.203C30.8376 78.8563 30.5732 78.5877 30.2352 78.397C29.9059 78.1977 29.5202 78.098 29.0782 78.098C28.6449 78.098 28.2592 78.1977 27.9212 78.397C27.5832 78.5877 27.3189 78.8607 27.1282 79.216C26.9376 79.5627 26.8422 79.9613 26.8422 80.412V80.62C26.8422 81.0793 26.9462 81.491 27.1542 81.855C27.3709 82.2103 27.6699 82.4877 28.0512 82.687C28.4326 82.8863 28.8702 82.986 29.3642 82.986C29.7716 82.986 30.1399 82.9167 30.4692 82.778C30.8072 82.6393 31.1019 82.4313 31.3532 82.154L32.0422 82.96C31.7302 83.324 31.3402 83.6013 30.8722 83.792C30.4129 83.9827 29.8972 84.078 29.3252 84.078ZM37.8962 77.045C38.4595 77.045 38.9535 77.1533 39.3782 77.37C39.8115 77.5867 40.1495 77.916 40.3922 78.358C40.6348 78.8 40.7562 79.359 40.7562 80.035V84H39.5082V80.178C39.5082 79.5107 39.3435 79.008 39.0142 78.67C38.6935 78.332 38.2385 78.163 37.6492 78.163C37.2072 78.163 36.8215 78.2497 36.4922 78.423C36.1628 78.5963 35.9072 78.852 35.7252 79.19C35.5518 79.528 35.4652 79.9483 35.4652 80.451V84H34.2172V77.11H35.4132V78.969L35.2182 78.475C35.4435 78.0243 35.7902 77.6733 36.2582 77.422C36.7262 77.1707 37.2722 77.045 37.8962 77.045ZM45.4318 84.078C44.7385 84.078 44.2011 83.8917 43.8198 83.519C43.4385 83.1463 43.2478 82.6133 43.2478 81.92V75.602H44.4958V81.868C44.4958 82.2407 44.5868 82.5267 44.7688 82.726C44.9595 82.9253 45.2281 83.025 45.5748 83.025C45.9648 83.025 46.2898 82.9167 46.5498 82.7L46.9398 83.597C46.7491 83.7617 46.5195 83.883 46.2508 83.961C45.9908 84.039 45.7178 84.078 45.4318 84.078ZM42.0778 78.137V77.11H46.4718V78.137H42.0778ZM48.4486 84V77.11H49.6446V78.982L49.5276 78.514C49.7183 78.0373 50.039 77.6733 50.4896 77.422C50.9403 77.1707 51.495 77.045 52.1536 77.045V78.254C52.1016 78.2453 52.0496 78.241 51.9976 78.241C51.9543 78.241 51.911 78.241 51.8676 78.241C51.2003 78.241 50.6716 78.4403 50.2816 78.839C49.8916 79.2377 49.6966 79.814 49.6966 80.568V84H48.4486ZM57.461 84V82.544L57.396 82.271V79.788C57.396 79.2593 57.24 78.852 56.928 78.566C56.6246 78.2713 56.1653 78.124 55.55 78.124C55.1426 78.124 54.744 78.1933 54.354 78.332C53.964 78.462 53.6346 78.6397 53.366 78.865L52.846 77.929C53.2013 77.643 53.626 77.4263 54.12 77.279C54.6226 77.123 55.147 77.045 55.693 77.045C56.6376 77.045 57.3656 77.2747 57.877 77.734C58.3883 78.1933 58.644 78.8953 58.644 79.84V84H57.461ZM55.199 84.078C54.6876 84.078 54.237 83.9913 53.847 83.818C53.4656 83.6447 53.171 83.4063 52.963 83.103C52.755 82.791 52.651 82.44 52.651 82.05C52.651 81.6773 52.7376 81.3393 52.911 81.036C53.093 80.7327 53.3833 80.49 53.782 80.308C54.1893 80.126 54.7353 80.035 55.42 80.035H57.604V80.932H55.472C54.848 80.932 54.4276 81.036 54.211 81.244C53.9943 81.452 53.886 81.7033 53.886 81.998C53.886 82.336 54.0203 82.609 54.289 82.817C54.5576 83.0163 54.9303 83.116 55.407 83.116C55.875 83.116 56.2823 83.012 56.629 82.804C56.9843 82.596 57.24 82.2927 57.396 81.894L57.643 82.752C57.4783 83.1593 57.188 83.4843 56.772 83.727C56.356 83.961 55.8316 84.078 55.199 84.078ZM64.6267 84V74.9H68.4617C69.4324 74.9 70.2861 75.0907 71.0227 75.472C71.7681 75.8533 72.3444 76.3863 72.7517 77.071C73.1677 77.7557 73.3757 78.5487 73.3757 79.45C73.3757 80.3513 73.1677 81.1443 72.7517 81.829C72.3444 82.5137 71.7681 83.0467 71.0227 83.428C70.2861 83.8093 69.4324 84 68.4617 84H64.6267ZM65.9267 82.869H68.3837C69.1377 82.869 69.7877 82.726 70.3337 82.44C70.8884 82.154 71.3174 81.7553 71.6207 81.244C71.9241 80.724 72.0757 80.126 72.0757 79.45C72.0757 78.7653 71.9241 78.1673 71.6207 77.656C71.3174 77.1447 70.8884 76.746 70.3337 76.46C69.7877 76.174 69.1377 76.031 68.3837 76.031H65.9267V82.869ZM79.462 84V82.544L79.397 82.271V79.788C79.397 79.2593 79.241 78.852 78.929 78.566C78.6256 78.2713 78.1663 78.124 77.551 78.124C77.1436 78.124 76.745 78.1933 76.355 78.332C75.965 78.462 75.6356 78.6397 75.367 78.865L74.847 77.929C75.2023 77.643 75.627 77.4263 76.121 77.279C76.6236 77.123 77.148 77.045 77.694 77.045C78.6386 77.045 79.3666 77.2747 79.878 77.734C80.3893 78.1933 80.645 78.8953 80.645 79.84V84H79.462ZM77.2 84.078C76.6886 84.078 76.238 83.9913 75.848 83.818C75.4666 83.6447 75.172 83.4063 74.964 83.103C74.756 82.791 74.652 82.44 74.652 82.05C74.652 81.6773 74.7386 81.3393 74.912 81.036C75.094 80.7327 75.3843 80.49 75.783 80.308C76.1903 80.126 76.7363 80.035 77.421 80.035H79.605V80.932H77.473C76.849 80.932 76.4286 81.036 76.212 81.244C75.9953 81.452 75.887 81.7033 75.887 81.998C75.887 82.336 76.0213 82.609 76.29 82.817C76.5586 83.0163 76.9313 83.116 77.408 83.116C77.876 83.116 78.2833 83.012 78.63 82.804C78.9853 82.596 79.241 82.2927 79.397 81.894L79.644 82.752C79.4793 83.1593 79.189 83.4843 78.773 83.727C78.357 83.961 77.8326 84.078 77.2 84.078ZM82.9545 84V77.11H84.1505V78.982L84.0335 78.514C84.2242 78.0373 84.5448 77.6733 84.9955 77.422C85.4462 77.1707 86.0008 77.045 86.6595 77.045V78.254C86.6075 78.2453 86.5555 78.241 86.5035 78.241C86.4602 78.241 86.4168 78.241 86.3735 78.241C85.7062 78.241 85.1775 78.4403 84.7875 78.839C84.3975 79.2377 84.2025 79.814 84.2025 80.568V84H82.9545ZM91.1855 84.078C90.5962 84.078 90.0762 83.9697 89.6255 83.753C89.1835 83.5363 88.8368 83.207 88.5855 82.765C88.3428 82.3143 88.2215 81.751 88.2215 81.075V77.11H89.4695V80.932C89.4695 81.608 89.6298 82.115 89.9505 82.453C90.2798 82.791 90.7392 82.96 91.3285 82.96C91.7618 82.96 92.1388 82.8733 92.4595 82.7C92.7802 82.518 93.0272 82.258 93.2005 81.92C93.3738 81.5733 93.4605 81.1573 93.4605 80.672V77.11H94.7085V84H93.5255V82.141L93.7205 82.635C93.4952 83.0943 93.1572 83.4497 92.7065 83.701C92.2558 83.9523 91.7488 84.078 91.1855 84.078ZM97.0844 84V77.11H98.2804V78.982L98.1634 78.514C98.354 78.0373 98.6747 77.6733 99.1254 77.422C99.576 77.1707 100.131 77.045 100.789 77.045V78.254C100.737 78.2453 100.685 78.241 100.633 78.241C100.59 78.241 100.547 78.241 100.503 78.241C99.836 78.241 99.3074 78.4403 98.9174 78.839C98.5274 79.2377 98.3324 79.814 98.3324 80.568V84H97.0844ZM106.097 84V82.544L106.032 82.271V79.788C106.032 79.2593 105.876 78.852 105.564 78.566C105.26 78.2713 104.801 78.124 104.186 78.124C103.778 78.124 103.38 78.1933 102.99 78.332C102.6 78.462 102.27 78.6397 102.002 78.865L101.482 77.929C101.837 77.643 102.262 77.4263 102.756 77.279C103.258 77.123 103.783 77.045 104.329 77.045C105.273 77.045 106.001 77.2747 106.513 77.734C107.024 78.1933 107.28 78.8953 107.28 79.84V84H106.097ZM103.835 84.078C103.323 84.078 102.873 83.9913 102.483 83.818C102.101 83.6447 101.807 83.4063 101.599 83.103C101.391 82.791 101.287 82.44 101.287 82.05C101.287 81.6773 101.373 81.3393 101.547 81.036C101.729 80.7327 102.019 80.49 102.418 80.308C102.825 80.126 103.371 80.035 104.056 80.035H106.24V80.932H104.108C103.484 80.932 103.063 81.036 102.847 81.244C102.63 81.452 102.522 81.7033 102.522 81.998C102.522 82.336 102.656 82.609 102.925 82.817C103.193 83.0163 103.566 83.116 104.043 83.116C104.511 83.116 104.918 83.012 105.265 82.804C105.62 82.596 105.876 82.2927 106.032 81.894L106.279 82.752C106.114 83.1593 105.824 83.4843 105.408 83.727C104.992 83.961 104.467 84.078 103.835 84.078ZM111.955 84.078C111.262 84.078 110.725 83.8917 110.343 83.519C109.962 83.1463 109.771 82.6133 109.771 81.92V75.602H111.019V81.868C111.019 82.2407 111.11 82.5267 111.292 82.726C111.483 82.9253 111.752 83.025 112.098 83.025C112.488 83.025 112.813 82.9167 113.073 82.7L113.463 83.597C113.273 83.7617 113.043 83.883 112.774 83.961C112.514 84.039 112.241 84.078 111.955 84.078ZM108.601 78.137V77.11H112.995V78.137H108.601ZM127.082 77.045C127.637 77.045 128.127 77.1533 128.551 77.37C128.976 77.5867 129.305 77.916 129.539 78.358C129.782 78.8 129.903 79.359 129.903 80.035V84H128.655V80.178C128.655 79.5107 128.499 79.008 128.187 78.67C127.875 78.332 127.438 78.163 126.874 78.163C126.458 78.163 126.094 78.2497 125.782 78.423C125.47 78.5963 125.228 78.852 125.054 79.19C124.89 79.528 124.807 79.9483 124.807 80.451V84H123.559V80.178C123.559 79.5107 123.403 79.008 123.091 78.67C122.788 78.332 122.35 78.163 121.778 78.163C121.371 78.163 121.011 78.2497 120.699 78.423C120.387 78.5963 120.145 78.852 119.971 79.19C119.798 79.528 119.711 79.9483 119.711 80.451V84H118.463V77.11H119.659V78.943L119.464 78.475C119.681 78.0243 120.015 77.6733 120.465 77.422C120.916 77.1707 121.44 77.045 122.038 77.045C122.697 77.045 123.265 77.2097 123.741 77.539C124.218 77.8597 124.53 78.3493 124.677 79.008L124.17 78.8C124.378 78.2713 124.742 77.8467 125.262 77.526C125.782 77.2053 126.389 77.045 127.082 77.045ZM135.268 84.078C134.531 84.078 133.881 83.9263 133.318 83.623C132.763 83.3197 132.33 82.9037 132.018 82.375C131.714 81.8463 131.563 81.2397 131.563 80.555C131.563 79.8703 131.71 79.2637 132.005 78.735C132.308 78.2063 132.72 77.7947 133.24 77.5C133.768 77.1967 134.362 77.045 135.021 77.045C135.688 77.045 136.277 77.1923 136.789 77.487C137.3 77.7817 137.699 78.1977 137.985 78.735C138.279 79.2637 138.427 79.8833 138.427 80.594C138.427 80.646 138.422 80.7067 138.414 80.776C138.414 80.8453 138.409 80.9103 138.401 80.971H132.538V80.074H137.751L137.244 80.386C137.252 79.944 137.161 79.5497 136.971 79.203C136.78 78.8563 136.516 78.5877 136.178 78.397C135.848 78.1977 135.463 78.098 135.021 78.098C134.587 78.098 134.202 78.1977 133.864 78.397C133.526 78.5877 133.261 78.8607 133.071 79.216C132.88 79.5627 132.785 79.9613 132.785 80.412V80.62C132.785 81.0793 132.889 81.491 133.097 81.855C133.313 82.2103 133.612 82.4877 133.994 82.687C134.375 82.8863 134.813 82.986 135.307 82.986C135.714 82.986 136.082 82.9167 136.412 82.778C136.75 82.6393 137.044 82.4313 137.296 82.154L137.985 82.96C137.673 83.324 137.283 83.6013 136.815 83.792C136.355 83.9827 135.84 84.078 135.268 84.078ZM148.779 77.045C149.333 77.045 149.823 77.1533 150.248 77.37C150.672 77.5867 151.002 77.916 151.236 78.358C151.478 78.8 151.6 79.359 151.6 80.035V84H150.352V80.178C150.352 79.5107 150.196 79.008 149.884 78.67C149.572 78.332 149.134 78.163 148.571 78.163C148.155 78.163 147.791 78.2497 147.479 78.423C147.167 78.5963 146.924 78.852 146.751 79.19C146.586 79.528 146.504 79.9483 146.504 80.451V84H145.256V80.178C145.256 79.5107 145.1 79.008 144.788 78.67C144.484 78.332 144.047 78.163 143.475 78.163C143.067 78.163 142.708 78.2497 142.396 78.423C142.084 78.5963 141.841 78.852 141.668 79.19C141.494 79.528 141.408 79.9483 141.408 80.451V84H140.16V77.11H141.356V78.943L141.161 78.475C141.377 78.0243 141.711 77.6733 142.162 77.422C142.612 77.1707 143.137 77.045 143.735 77.045C144.393 77.045 144.961 77.2097 145.438 77.539C145.914 77.8597 146.226 78.3493 146.374 79.008L145.867 78.8C146.075 78.2713 146.439 77.8467 146.959 77.526C147.479 77.2053 148.085 77.045 148.779 77.045ZM157.549 84.078C156.96 84.078 156.427 83.948 155.95 83.688C155.482 83.4193 155.109 83.025 154.832 82.505C154.563 81.985 154.429 81.335 154.429 80.555C154.429 79.775 154.568 79.125 154.845 78.605C155.131 78.085 155.508 77.695 155.976 77.435C156.453 77.175 156.977 77.045 157.549 77.045C158.225 77.045 158.823 77.1923 159.343 77.487C159.863 77.7817 160.275 78.1933 160.578 78.722C160.881 79.242 161.033 79.853 161.033 80.555C161.033 81.257 160.881 81.8723 160.578 82.401C160.275 82.9297 159.863 83.3413 159.343 83.636C158.823 83.9307 158.225 84.078 157.549 84.078ZM153.896 84V74.354H155.144V78.943L155.014 80.542L155.092 82.141V84H153.896ZM157.445 82.986C157.887 82.986 158.281 82.8863 158.628 82.687C158.983 82.4877 159.261 82.206 159.46 81.842C159.668 81.4693 159.772 81.0403 159.772 80.555C159.772 80.061 159.668 79.6363 159.46 79.281C159.261 78.917 158.983 78.6353 158.628 78.436C158.281 78.2367 157.887 78.137 157.445 78.137C157.012 78.137 156.617 78.2367 156.262 78.436C155.915 78.6353 155.638 78.917 155.43 79.281C155.231 79.6363 155.131 80.061 155.131 80.555C155.131 81.0403 155.231 81.4693 155.43 81.842C155.638 82.206 155.915 82.4877 156.262 82.687C156.617 82.8863 157.012 82.986 157.445 82.986ZM165.825 84.078C165.089 84.078 164.439 83.9263 163.875 83.623C163.321 83.3197 162.887 82.9037 162.575 82.375C162.272 81.8463 162.12 81.2397 162.12 80.555C162.12 79.8703 162.268 79.2637 162.562 78.735C162.866 78.2063 163.277 77.7947 163.797 77.5C164.326 77.1967 164.92 77.045 165.578 77.045C166.246 77.045 166.835 77.1923 167.346 77.487C167.858 77.7817 168.256 78.1977 168.542 78.735C168.837 79.2637 168.984 79.8833 168.984 80.594C168.984 80.646 168.98 80.7067 168.971 80.776C168.971 80.8453 168.967 80.9103 168.958 80.971H163.095V80.074H168.308L167.801 80.386C167.81 79.944 167.719 79.5497 167.528 79.203C167.338 78.8563 167.073 78.5877 166.735 78.397C166.406 78.1977 166.02 78.098 165.578 78.098C165.145 78.098 164.759 78.1977 164.421 78.397C164.083 78.5877 163.819 78.8607 163.628 79.216C163.438 79.5627 163.342 79.9613 163.342 80.412V80.62C163.342 81.0793 163.446 81.491 163.654 81.855C163.871 82.2103 164.17 82.4877 164.551 82.687C164.933 82.8863 165.37 82.986 165.864 82.986C166.272 82.986 166.64 82.9167 166.969 82.778C167.307 82.6393 167.602 82.4313 167.853 82.154L168.542 82.96C168.23 83.324 167.84 83.6013 167.372 83.792C166.913 83.9827 166.397 84.078 165.825 84.078ZM170.717 84V77.11H171.913V78.982L171.796 78.514C171.987 78.0373 172.308 77.6733 172.758 77.422C173.209 77.1707 173.764 77.045 174.422 77.045V78.254C174.37 78.2453 174.318 78.241 174.266 78.241C174.223 78.241 174.18 78.241 174.136 78.241C173.469 78.241 172.94 78.4403 172.55 78.839C172.16 79.2377 171.965 79.814 171.965 80.568V84H170.717ZM175.96 84V77.11H177.208V84H175.96ZM176.584 75.784C176.342 75.784 176.138 75.706 175.973 75.55C175.817 75.394 175.739 75.2033 175.739 74.978C175.739 74.744 175.817 74.549 175.973 74.393C176.138 74.237 176.342 74.159 176.584 74.159C176.827 74.159 177.026 74.237 177.182 74.393C177.347 74.5403 177.429 74.7267 177.429 74.952C177.429 75.186 177.351 75.3853 177.195 75.55C177.039 75.706 176.836 75.784 176.584 75.784ZM180.605 82.336L180.631 80.737L184.596 77.11H186.104L183.062 80.1L182.386 80.672L180.605 82.336ZM179.591 84V74.354H180.839V84H179.591ZM184.856 84L182.152 80.646L182.958 79.645L186.39 84H184.856ZM191.752 84V82.544L191.687 82.271V79.788C191.687 79.2593 191.531 78.852 191.219 78.566C190.916 78.2713 190.456 78.124 189.841 78.124C189.434 78.124 189.035 78.1933 188.645 78.332C188.255 78.462 187.926 78.6397 187.657 78.865L187.137 77.929C187.492 77.643 187.917 77.4263 188.411 77.279C188.914 77.123 189.438 77.045 189.984 77.045C190.929 77.045 191.657 77.2747 192.168 77.734C192.679 78.1933 192.935 78.8953 192.935 79.84V84H191.752ZM189.49 84.078C188.979 84.078 188.528 83.9913 188.138 83.818C187.757 83.6447 187.462 83.4063 187.254 83.103C187.046 82.791 186.942 82.44 186.942 82.05C186.942 81.6773 187.029 81.3393 187.202 81.036C187.384 80.7327 187.674 80.49 188.073 80.308C188.48 80.126 189.026 80.035 189.711 80.035H191.895V80.932H189.763C189.139 80.932 188.719 81.036 188.502 81.244C188.285 81.452 188.177 81.7033 188.177 81.998C188.177 82.336 188.311 82.609 188.58 82.817C188.849 83.0163 189.221 83.116 189.698 83.116C190.166 83.116 190.573 83.012 190.92 82.804C191.275 82.596 191.531 82.2927 191.687 81.894L191.934 82.752C191.769 83.1593 191.479 83.4843 191.063 83.727C190.647 83.961 190.123 84.078 189.49 84.078ZM198.924 77.045C199.487 77.045 199.981 77.1533 200.406 77.37C200.839 77.5867 201.177 77.916 201.42 78.358C201.662 78.8 201.784 79.359 201.784 80.035V84H200.536V80.178C200.536 79.5107 200.371 79.008 200.042 78.67C199.721 78.332 199.266 78.163 198.677 78.163C198.235 78.163 197.849 78.2497 197.52 78.423C197.19 78.5963 196.935 78.852 196.753 79.19C196.579 79.528 196.493 79.9483 196.493 80.451V84H195.245V77.11H196.441V78.969L196.246 78.475C196.471 78.0243 196.818 77.6733 197.286 77.422C197.754 77.1707 198.3 77.045 198.924 77.045ZM210.483 84.078C209.894 84.078 209.374 83.9697 208.923 83.753C208.481 83.5363 208.135 83.207 207.883 82.765C207.641 82.3143 207.519 81.751 207.519 81.075V77.11H208.767V80.932C208.767 81.608 208.928 82.115 209.248 82.453C209.578 82.791 210.037 82.96 210.626 82.96C211.06 82.96 211.437 82.8733 211.757 82.7C212.078 82.518 212.325 82.258 212.498 81.92C212.672 81.5733 212.758 81.1573 212.758 80.672V77.11H214.006V84H212.823V82.141L213.018 82.635C212.793 83.0943 212.455 83.4497 212.004 83.701C211.554 83.9523 211.047 84.078 210.483 84.078ZM220.035 84.078C219.463 84.078 218.939 83.948 218.462 83.688C217.994 83.4193 217.617 83.025 217.331 82.505C217.054 81.985 216.915 81.335 216.915 80.555C216.915 79.775 217.05 79.125 217.318 78.605C217.596 78.085 217.968 77.695 218.436 77.435C218.913 77.175 219.446 77.045 220.035 77.045C220.711 77.045 221.309 77.1923 221.829 77.487C222.349 77.7817 222.761 78.1933 223.064 78.722C223.368 79.242 223.519 79.853 223.519 80.555C223.519 81.257 223.368 81.8723 223.064 82.401C222.761 82.9297 222.349 83.3413 221.829 83.636C221.309 83.9307 220.711 84.078 220.035 84.078ZM216.382 86.522V77.11H217.578V78.969L217.5 80.568L217.63 82.167V86.522H216.382ZM219.931 82.986C220.373 82.986 220.768 82.8863 221.114 82.687C221.47 82.4877 221.747 82.206 221.946 81.842C222.154 81.4693 222.258 81.0403 222.258 80.555C222.258 80.061 222.154 79.6363 221.946 79.281C221.747 78.917 221.47 78.6353 221.114 78.436C220.768 78.2367 220.373 78.137 219.931 78.137C219.498 78.137 219.104 78.2367 218.748 78.436C218.402 78.6353 218.124 78.917 217.916 79.281C217.717 79.6363 217.617 80.061 217.617 80.555C217.617 81.0403 217.717 81.4693 217.916 81.842C218.124 82.206 218.402 82.4877 218.748 82.687C219.104 82.8863 219.498 82.986 219.931 82.986ZM228.091 84.078C227.423 84.078 226.825 83.9307 226.297 83.636C225.777 83.3413 225.365 82.9297 225.062 82.401C224.758 81.8723 224.607 81.257 224.607 80.555C224.607 79.853 224.758 79.242 225.062 78.722C225.365 78.1933 225.777 77.7817 226.297 77.487C226.825 77.1923 227.423 77.045 228.091 77.045C228.671 77.045 229.196 77.175 229.664 77.435C230.132 77.695 230.504 78.085 230.782 78.605C231.068 79.125 231.211 79.775 231.211 80.555C231.211 81.335 231.072 81.985 230.795 82.505C230.526 83.025 230.158 83.4193 229.69 83.688C229.222 83.948 228.689 84.078 228.091 84.078ZM228.195 82.986C228.628 82.986 229.018 82.8863 229.365 82.687C229.72 82.4877 229.997 82.206 230.197 81.842C230.405 81.4693 230.509 81.0403 230.509 80.555C230.509 80.061 230.405 79.6363 230.197 79.281C229.997 78.917 229.72 78.6353 229.365 78.436C229.018 78.2367 228.628 78.137 228.195 78.137C227.753 78.137 227.358 78.2367 227.012 78.436C226.665 78.6353 226.388 78.917 226.18 79.281C225.972 79.6363 225.868 80.061 225.868 80.555C225.868 81.0403 225.972 81.4693 226.18 81.842C226.388 82.206 226.665 82.4877 227.012 82.687C227.358 82.8863 227.753 82.986 228.195 82.986ZM230.548 84V82.141L230.626 80.542L230.496 78.943V74.354H231.744V84H230.548ZM238.382 84V82.544L238.317 82.271V79.788C238.317 79.2593 238.161 78.852 237.849 78.566C237.546 78.2713 237.086 78.124 236.471 78.124C236.064 78.124 235.665 78.1933 235.275 78.332C234.885 78.462 234.556 78.6397 234.287 78.865L233.767 77.929C234.122 77.643 234.547 77.4263 235.041 77.279C235.544 77.123 236.068 77.045 236.614 77.045C237.559 77.045 238.287 77.2747 238.798 77.734C239.309 78.1933 239.565 78.8953 239.565 79.84V84H238.382ZM236.12 84.078C235.609 84.078 235.158 83.9913 234.768 83.818C234.387 83.6447 234.092 83.4063 233.884 83.103C233.676 82.791 233.572 82.44 233.572 82.05C233.572 81.6773 233.659 81.3393 233.832 81.036C234.014 80.7327 234.304 80.49 234.703 80.308C235.11 80.126 235.656 80.035 236.341 80.035H238.525V80.932H236.393C235.769 80.932 235.349 81.036 235.132 81.244C234.915 81.452 234.807 81.7033 234.807 81.998C234.807 82.336 234.941 82.609 235.21 82.817C235.479 83.0163 235.851 83.116 236.328 83.116C236.796 83.116 237.203 83.012 237.55 82.804C237.905 82.596 238.161 82.2927 238.317 81.894L238.564 82.752C238.399 83.1593 238.109 83.4843 237.693 83.727C237.277 83.961 236.753 84.078 236.12 84.078ZM244.24 84.078C243.547 84.078 243.01 83.8917 242.628 83.519C242.247 83.1463 242.056 82.6133 242.056 81.92V75.602H243.304V81.868C243.304 82.2407 243.395 82.5267 243.577 82.726C243.768 82.9253 244.037 83.025 244.383 83.025C244.773 83.025 245.098 82.9167 245.358 82.7L245.748 83.597C245.558 83.7617 245.328 83.883 245.059 83.961C244.799 84.039 244.526 84.078 244.24 84.078ZM240.886 78.137V77.11H245.28V78.137H240.886ZM250.097 84.078C249.36 84.078 248.71 83.9263 248.147 83.623C247.592 83.3197 247.159 82.9037 246.847 82.375C246.543 81.8463 246.392 81.2397 246.392 80.555C246.392 79.8703 246.539 79.2637 246.834 78.735C247.137 78.2063 247.549 77.7947 248.069 77.5C248.597 77.1967 249.191 77.045 249.85 77.045C250.517 77.045 251.106 77.1923 251.618 77.487C252.129 77.7817 252.528 78.1977 252.814 78.735C253.108 79.2637 253.256 79.8833 253.256 80.594C253.256 80.646 253.251 80.7067 253.243 80.776C253.243 80.8453 253.238 80.9103 253.23 80.971H247.367V80.074H252.58L252.073 80.386C252.081 79.944 251.99 79.5497 251.8 79.203C251.609 78.8563 251.345 78.5877 251.007 78.397C250.677 78.1977 250.292 78.098 249.85 78.098C249.416 78.098 249.031 78.1977 248.693 78.397C248.355 78.5877 248.09 78.8607 247.9 79.216C247.709 79.5627 247.614 79.9613 247.614 80.412V80.62C247.614 81.0793 247.718 81.491 247.926 81.855C248.142 82.2103 248.441 82.4877 248.823 82.687C249.204 82.8863 249.642 82.986 250.136 82.986C250.543 82.986 250.911 82.9167 251.241 82.778C251.579 82.6393 251.873 82.4313 252.125 82.154L252.814 82.96C252.502 83.324 252.112 83.6013 251.644 83.792C251.184 83.9827 250.669 84.078 250.097 84.078ZM18.183 105V98.11H19.431V105H18.183ZM18.807 96.784C18.5643 96.784 18.3607 96.706 18.196 96.55C18.04 96.394 17.962 96.2033 17.962 95.978C17.962 95.744 18.04 95.549 18.196 95.393C18.3607 95.237 18.5643 95.159 18.807 95.159C19.0497 95.159 19.249 95.237 19.405 95.393C19.5697 95.5403 19.652 95.7267 19.652 95.952C19.652 96.186 19.574 96.3853 19.418 96.55C19.262 96.706 19.0583 96.784 18.807 96.784ZM25.4929 98.045C26.0562 98.045 26.5502 98.1533 26.9749 98.37C27.4082 98.5867 27.7462 98.916 27.9889 99.358C28.2315 99.8 28.3529 100.359 28.3529 101.035V105H27.1049V101.178C27.1049 100.511 26.9402 100.008 26.6109 99.67C26.2902 99.332 25.8352 99.163 25.2459 99.163C24.8039 99.163 24.4182 99.2497 24.0889 99.423C23.7595 99.5963 23.5039 99.852 23.3219 100.19C23.1485 100.528 23.0619 100.948 23.0619 101.451V105H21.8139V98.11H23.0099V99.969L22.8149 99.475C23.0402 99.0243 23.3869 98.6733 23.8549 98.422C24.3229 98.1707 24.8689 98.045 25.4929 98.045ZM30.8445 105V97.499C30.8445 96.823 31.0395 96.2857 31.4295 95.887C31.8282 95.4797 32.3915 95.276 33.1195 95.276C33.3882 95.276 33.6438 95.3107 33.8865 95.38C34.1378 95.4407 34.3502 95.5403 34.5235 95.679L34.1465 96.628C34.0165 96.524 33.8692 96.446 33.7045 96.394C33.5398 96.3333 33.3665 96.303 33.1845 96.303C32.8205 96.303 32.5432 96.407 32.3525 96.615C32.1618 96.8143 32.0665 97.1133 32.0665 97.512V98.435L32.0925 99.007V105H30.8445ZM29.6745 99.137V98.11H34.0685V99.137H29.6745ZM38.0949 105.078C37.4016 105.078 36.7863 104.926 36.2489 104.623C35.7116 104.32 35.2869 103.904 34.9749 103.375C34.6629 102.838 34.5069 102.231 34.5069 101.555C34.5069 100.87 34.6629 100.264 34.9749 99.735C35.2869 99.2063 35.7116 98.7947 36.2489 98.5C36.7863 98.1967 37.4016 98.045 38.0949 98.045C38.7796 98.045 39.3906 98.1967 39.9279 98.5C40.4739 98.7947 40.8986 99.2063 41.2019 99.735C41.5139 100.255 41.6699 100.862 41.6699 101.555C41.6699 102.24 41.5139 102.846 41.2019 103.375C40.8986 103.904 40.4739 104.32 39.9279 104.623C39.3906 104.926 38.7796 105.078 38.0949 105.078ZM38.0949 103.986C38.5369 103.986 38.9313 103.886 39.2779 103.687C39.6333 103.488 39.9106 103.206 40.1099 102.842C40.3093 102.469 40.4089 102.04 40.4089 101.555C40.4089 101.061 40.3093 100.636 40.1099 100.281C39.9106 99.917 39.6333 99.6353 39.2779 99.436C38.9313 99.2367 38.5369 99.137 38.0949 99.137C37.6529 99.137 37.2586 99.2367 36.9119 99.436C36.5653 99.6353 36.2879 99.917 36.0799 100.281C35.8719 100.636 35.7679 101.061 35.7679 101.555C35.7679 102.04 35.8719 102.469 36.0799 102.842C36.2879 103.206 36.5653 103.488 36.9119 103.687C37.2586 103.886 37.6529 103.986 38.0949 103.986ZM43.3959 105V98.11H44.5919V99.982L44.4749 99.514C44.6656 99.0373 44.9862 98.6733 45.4369 98.422C45.8876 98.1707 46.4422 98.045 47.1009 98.045V99.254C47.0489 99.2453 46.9969 99.241 46.9449 99.241C46.9016 99.241 46.8582 99.241 46.8149 99.241C46.1476 99.241 45.6189 99.4403 45.2289 99.839C44.8389 100.238 44.6439 100.814 44.6439 101.568V105H43.3959ZM57.2581 98.045C57.8127 98.045 58.3024 98.1533 58.7271 98.37C59.1517 98.5867 59.4811 98.916 59.7151 99.358C59.9577 99.8 60.0791 100.359 60.0791 101.035V105H58.8311V101.178C58.8311 100.511 58.6751 100.008 58.3631 99.67C58.0511 99.332 57.6134 99.163 57.0501 99.163C56.6341 99.163 56.2701 99.2497 55.9581 99.423C55.6461 99.5963 55.4034 99.852 55.2301 100.19C55.0654 100.528 54.9831 100.948 54.9831 101.451V105H53.7351V101.178C53.7351 100.511 53.5791 100.008 53.2671 99.67C52.9637 99.332 52.5261 99.163 51.9541 99.163C51.5467 99.163 51.1871 99.2497 50.8751 99.423C50.5631 99.5963 50.3204 99.852 50.1471 100.19C49.9737 100.528 49.8871 100.948 49.8871 101.451V105H48.6391V98.11H49.8351V99.943L49.6401 99.475C49.8567 99.0243 50.1904 98.6733 50.6411 98.422C51.0917 98.1707 51.6161 98.045 52.2141 98.045C52.8727 98.045 53.4404 98.2097 53.9171 98.539C54.3937 98.8597 54.7057 99.3493 54.8531 100.008L54.3461 99.8C54.5541 99.2713 54.9181 98.8467 55.4381 98.526C55.9581 98.2053 56.5647 98.045 57.2581 98.045ZM66.6524 105V103.544L66.5874 103.271V100.788C66.5874 100.259 66.4314 99.852 66.1194 99.566C65.816 99.2713 65.3567 99.124 64.7414 99.124C64.334 99.124 63.9354 99.1933 63.5454 99.332C63.1554 99.462 62.826 99.6397 62.5574 99.865L62.0374 98.929C62.3927 98.643 62.8174 98.4263 63.3114 98.279C63.814 98.123 64.3384 98.045 64.8844 98.045C65.829 98.045 66.557 98.2747 67.0684 98.734C67.5797 99.1933 67.8354 99.8953 67.8354 100.84V105H66.6524ZM64.3904 105.078C63.879 105.078 63.4284 104.991 63.0384 104.818C62.657 104.645 62.3624 104.406 62.1544 104.103C61.9464 103.791 61.8424 103.44 61.8424 103.05C61.8424 102.677 61.929 102.339 62.1024 102.036C62.2844 101.733 62.5747 101.49 62.9734 101.308C63.3807 101.126 63.9267 101.035 64.6114 101.035H66.7954V101.932H64.6634C64.0394 101.932 63.619 102.036 63.4024 102.244C63.1857 102.452 63.0774 102.703 63.0774 102.998C63.0774 103.336 63.2117 103.609 63.4804 103.817C63.749 104.016 64.1217 104.116 64.5984 104.116C65.0664 104.116 65.4737 104.012 65.8204 103.804C66.1757 103.596 66.4314 103.293 66.5874 102.894L66.8344 103.752C66.6697 104.159 66.3794 104.484 65.9634 104.727C65.5474 104.961 65.023 105.078 64.3904 105.078ZM72.1209 105.078C71.5489 105.078 71.0029 105 70.4829 104.844C69.9716 104.688 69.5686 104.497 69.2739 104.272L69.7939 103.284C70.0886 103.483 70.4526 103.652 70.8859 103.791C71.3192 103.93 71.7612 103.999 72.2119 103.999C72.7926 103.999 73.2086 103.917 73.4599 103.752C73.7199 103.587 73.8499 103.358 73.8499 103.063C73.8499 102.846 73.7719 102.677 73.6159 102.556C73.4599 102.435 73.2519 102.344 72.9919 102.283C72.7406 102.222 72.4589 102.17 72.1469 102.127C71.8349 102.075 71.5229 102.014 71.2109 101.945C70.8989 101.867 70.6129 101.763 70.3529 101.633C70.0929 101.494 69.8849 101.308 69.7289 101.074C69.5729 100.831 69.4949 100.511 69.4949 100.112C69.4949 99.696 69.6119 99.332 69.8459 99.02C70.0799 98.708 70.4092 98.4697 70.8339 98.305C71.2672 98.1317 71.7786 98.045 72.3679 98.045C72.8186 98.045 73.2736 98.1013 73.7329 98.214C74.2009 98.318 74.5822 98.4697 74.8769 98.669L74.3439 99.657C74.0319 99.449 73.7069 99.306 73.3689 99.228C73.0309 99.15 72.6929 99.111 72.3549 99.111C71.8089 99.111 71.4016 99.202 71.1329 99.384C70.8642 99.5573 70.7299 99.7827 70.7299 100.06C70.7299 100.294 70.8079 100.476 70.9639 100.606C71.1286 100.727 71.3366 100.823 71.5879 100.892C71.8479 100.961 72.1339 101.022 72.4459 101.074C72.7579 101.117 73.0699 101.178 73.3819 101.256C73.6939 101.325 73.9756 101.425 74.2269 101.555C74.4869 101.685 74.6949 101.867 74.8509 102.101C75.0156 102.335 75.0979 102.647 75.0979 103.037C75.0979 103.453 74.9766 103.813 74.7339 104.116C74.4912 104.419 74.1489 104.658 73.7069 104.831C73.2649 104.996 72.7362 105.078 72.1209 105.078ZM76.6576 105V98.11H77.9056V105H76.6576ZM77.2816 96.784C77.0389 96.784 76.8353 96.706 76.6706 96.55C76.5146 96.394 76.4366 96.2033 76.4366 95.978C76.4366 95.744 76.5146 95.549 76.6706 95.393C76.8353 95.237 77.0389 95.159 77.2816 95.159C77.5243 95.159 77.7236 95.237 77.8796 95.393C78.0443 95.5403 78.1266 95.7267 78.1266 95.952C78.1266 96.186 78.0486 96.3853 77.8926 96.55C77.7366 96.706 77.5329 96.784 77.2816 96.784ZM86.1457 105.078C85.4523 105.078 84.915 104.892 84.5337 104.519C84.1523 104.146 83.9617 103.613 83.9617 102.92V96.602H85.2097V102.868C85.2097 103.241 85.3007 103.527 85.4827 103.726C85.6733 103.925 85.942 104.025 86.2887 104.025C86.6787 104.025 87.0037 103.917 87.2637 103.7L87.6537 104.597C87.463 104.762 87.2333 104.883 86.9647 104.961C86.7047 105.039 86.4317 105.078 86.1457 105.078ZM82.7917 99.137V98.11H87.1857V99.137H82.7917ZM92.002 105.078C91.2653 105.078 90.6153 104.926 90.052 104.623C89.4973 104.32 89.064 103.904 88.752 103.375C88.4486 102.846 88.297 102.24 88.297 101.555C88.297 100.87 88.4443 100.264 88.739 99.735C89.0423 99.2063 89.454 98.7947 89.974 98.5C90.5026 98.1967 91.0963 98.045 91.755 98.045C92.4223 98.045 93.0116 98.1923 93.523 98.487C94.0343 98.7817 94.433 99.1977 94.719 99.735C95.0136 100.264 95.161 100.883 95.161 101.594C95.161 101.646 95.1566 101.707 95.148 101.776C95.148 101.845 95.1436 101.91 95.135 101.971H89.272V101.074H94.485L93.978 101.386C93.9866 100.944 93.8956 100.55 93.705 100.203C93.5143 99.8563 93.25 99.5877 92.912 99.397C92.5826 99.1977 92.197 99.098 91.755 99.098C91.3216 99.098 90.936 99.1977 90.598 99.397C90.26 99.5877 89.9956 99.8607 89.805 100.216C89.6143 100.563 89.519 100.961 89.519 101.412V101.62C89.519 102.079 89.623 102.491 89.831 102.855C90.0476 103.21 90.3466 103.488 90.728 103.687C91.1093 103.886 91.547 103.986 92.041 103.986C92.4483 103.986 92.8166 103.917 93.146 103.778C93.484 103.639 93.7786 103.431 94.03 103.154L94.719 103.96C94.407 104.324 94.017 104.601 93.549 104.792C93.0896 104.983 92.574 105.078 92.002 105.078ZM96.8939 105V98.11H98.0899V99.982L97.9729 99.514C98.1636 99.0373 98.4843 98.6733 98.9349 98.422C99.3856 98.1707 99.9403 98.045 100.599 98.045V99.254C100.547 99.2453 100.495 99.241 100.443 99.241C100.4 99.241 100.356 99.241 100.313 99.241C99.6456 99.241 99.1169 99.4403 98.7269 99.839C98.3369 100.238 98.1419 100.814 98.1419 101.568V105H96.8939ZM105.79 105.078C105.201 105.078 104.668 104.948 104.191 104.688C103.723 104.419 103.35 104.025 103.073 103.505C102.804 102.985 102.67 102.335 102.67 101.555C102.67 100.775 102.809 100.125 103.086 99.605C103.372 99.085 103.749 98.695 104.217 98.435C104.694 98.175 105.218 98.045 105.79 98.045C106.466 98.045 107.064 98.1923 107.584 98.487C108.104 98.7817 108.516 99.1933 108.819 99.722C109.122 100.242 109.274 100.853 109.274 101.555C109.274 102.257 109.122 102.872 108.819 103.401C108.516 103.93 108.104 104.341 107.584 104.636C107.064 104.931 106.466 105.078 105.79 105.078ZM102.137 105V95.354H103.385V99.943L103.255 101.542L103.333 103.141V105H102.137ZM105.686 103.986C106.128 103.986 106.522 103.886 106.869 103.687C107.224 103.488 107.502 103.206 107.701 102.842C107.909 102.469 108.013 102.04 108.013 101.555C108.013 101.061 107.909 100.636 107.701 100.281C107.502 99.917 107.224 99.6353 106.869 99.436C106.522 99.2367 106.128 99.137 105.686 99.137C105.253 99.137 104.858 99.2367 104.503 99.436C104.156 99.6353 103.879 99.917 103.671 100.281C103.472 100.636 103.372 101.061 103.372 101.555C103.372 102.04 103.472 102.469 103.671 102.842C103.879 103.206 104.156 103.488 104.503 103.687C104.858 103.886 105.253 103.986 105.686 103.986ZM115.212 105V103.544L115.147 103.271V100.788C115.147 100.259 114.991 99.852 114.679 99.566C114.376 99.2713 113.916 99.124 113.301 99.124C112.894 99.124 112.495 99.1933 112.105 99.332C111.715 99.462 111.386 99.6397 111.117 99.865L110.597 98.929C110.952 98.643 111.377 98.4263 111.871 98.279C112.374 98.123 112.898 98.045 113.444 98.045C114.389 98.045 115.117 98.2747 115.628 98.734C116.139 99.1933 116.395 99.8953 116.395 100.84V105H115.212ZM112.95 105.078C112.439 105.078 111.988 104.991 111.598 104.818C111.217 104.645 110.922 104.406 110.714 104.103C110.506 103.791 110.402 103.44 110.402 103.05C110.402 102.677 110.489 102.339 110.662 102.036C110.844 101.733 111.134 101.49 111.533 101.308C111.94 101.126 112.486 101.035 113.171 101.035H115.355V101.932H113.223C112.599 101.932 112.179 102.036 111.962 102.244C111.745 102.452 111.637 102.703 111.637 102.998C111.637 103.336 111.771 103.609 112.04 103.817C112.309 104.016 112.681 104.116 113.158 104.116C113.626 104.116 114.033 104.012 114.38 103.804C114.735 103.596 114.991 103.293 115.147 102.894L115.394 103.752C115.229 104.159 114.939 104.484 114.523 104.727C114.107 104.961 113.583 105.078 112.95 105.078ZM118.704 105V98.11H119.9V99.982L119.783 99.514C119.974 99.0373 120.295 98.6733 120.745 98.422C121.196 98.1707 121.751 98.045 122.409 98.045V99.254C122.357 99.2453 122.305 99.241 122.253 99.241C122.21 99.241 122.167 99.241 122.123 99.241C121.456 99.241 120.927 99.4403 120.537 99.839C120.147 100.238 119.952 100.814 119.952 101.568V105H118.704ZM126.936 105.078C126.346 105.078 125.826 104.97 125.376 104.753C124.934 104.536 124.587 104.207 124.336 103.765C124.093 103.314 123.972 102.751 123.972 102.075V98.11H125.22V101.932C125.22 102.608 125.38 103.115 125.701 103.453C126.03 103.791 126.489 103.96 127.079 103.96C127.512 103.96 127.889 103.873 128.21 103.7C128.53 103.518 128.777 103.258 128.951 102.92C129.124 102.573 129.211 102.157 129.211 101.672V98.11H130.459V105H129.276V103.141L129.471 103.635C129.245 104.094 128.907 104.45 128.457 104.701C128.006 104.952 127.499 105.078 126.936 105.078ZM144.945 98.045C145.499 98.045 145.989 98.1533 146.414 98.37C146.838 98.5867 147.168 98.916 147.402 99.358C147.644 99.8 147.766 100.359 147.766 101.035V105H146.518V101.178C146.518 100.511 146.362 100.008 146.05 99.67C145.738 99.332 145.3 99.163 144.737 99.163C144.321 99.163 143.957 99.2497 143.645 99.423C143.333 99.5963 143.09 99.852 142.917 100.19C142.752 100.528 142.67 100.948 142.67 101.451V105H141.422V101.178C141.422 100.511 141.266 100.008 140.954 99.67C140.65 99.332 140.213 99.163 139.641 99.163C139.233 99.163 138.874 99.2497 138.562 99.423C138.25 99.5963 138.007 99.852 137.834 100.19C137.66 100.528 137.574 100.948 137.574 101.451V105H136.326V98.11H137.522V99.943L137.327 99.475C137.543 99.0243 137.877 98.6733 138.328 98.422C138.778 98.1707 139.303 98.045 139.901 98.045C140.559 98.045 141.127 98.2097 141.604 98.539C142.08 98.8597 142.392 99.3493 142.54 100.008L142.033 99.8C142.241 99.2713 142.605 98.8467 143.125 98.526C143.645 98.2053 144.251 98.045 144.945 98.045ZM153.13 105.078C152.393 105.078 151.743 104.926 151.18 104.623C150.625 104.32 150.192 103.904 149.88 103.375C149.577 102.846 149.425 102.24 149.425 101.555C149.425 100.87 149.572 100.264 149.867 99.735C150.17 99.2063 150.582 98.7947 151.102 98.5C151.631 98.1967 152.224 98.045 152.883 98.045C153.55 98.045 154.14 98.1923 154.651 98.487C155.162 98.7817 155.561 99.1977 155.847 99.735C156.142 100.264 156.289 100.883 156.289 101.594C156.289 101.646 156.285 101.707 156.276 101.776C156.276 101.845 156.272 101.91 156.263 101.971H150.4V101.074H155.613L155.106 101.386C155.115 100.944 155.024 100.55 154.833 100.203C154.642 99.8563 154.378 99.5877 154.04 99.397C153.711 99.1977 153.325 99.098 152.883 99.098C152.45 99.098 152.064 99.1977 151.726 99.397C151.388 99.5877 151.124 99.8607 150.933 100.216C150.742 100.563 150.647 100.961 150.647 101.412V101.62C150.647 102.079 150.751 102.491 150.959 102.855C151.176 103.21 151.475 103.488 151.856 103.687C152.237 103.886 152.675 103.986 153.169 103.986C153.576 103.986 153.945 103.917 154.274 103.778C154.612 103.639 154.907 103.431 155.158 103.154L155.847 103.96C155.535 104.324 155.145 104.601 154.677 104.792C154.218 104.983 153.702 105.078 153.13 105.078ZM161.701 98.045C162.264 98.045 162.758 98.1533 163.183 98.37C163.616 98.5867 163.954 98.916 164.197 99.358C164.44 99.8 164.561 100.359 164.561 101.035V105H163.313V101.178C163.313 100.511 163.148 100.008 162.819 99.67C162.498 99.332 162.043 99.163 161.454 99.163C161.012 99.163 160.626 99.2497 160.297 99.423C159.968 99.5963 159.712 99.852 159.53 100.19C159.357 100.528 159.27 100.948 159.27 101.451V105H158.022V98.11H159.218V99.969L159.023 99.475C159.248 99.0243 159.595 98.6733 160.063 98.422C160.531 98.1707 161.077 98.045 161.701 98.045ZM169.887 107.6C169.254 107.6 168.639 107.509 168.041 107.327C167.451 107.154 166.97 106.902 166.598 106.573L167.196 105.611C167.516 105.888 167.911 106.105 168.379 106.261C168.847 106.426 169.336 106.508 169.848 106.508C170.662 106.508 171.26 106.317 171.642 105.936C172.023 105.555 172.214 104.974 172.214 104.194V102.738L172.344 101.373L172.279 99.995V98.11H173.462V104.064C173.462 105.277 173.158 106.17 172.551 106.742C171.945 107.314 171.057 107.6 169.887 107.6ZM169.731 104.714C169.063 104.714 168.465 104.575 167.937 104.298C167.417 104.012 167.001 103.618 166.689 103.115C166.385 102.612 166.234 102.032 166.234 101.373C166.234 100.706 166.385 100.125 166.689 99.631C167.001 99.1283 167.417 98.7383 167.937 98.461C168.465 98.1837 169.063 98.045 169.731 98.045C170.32 98.045 170.857 98.1663 171.343 98.409C171.828 98.643 172.214 99.007 172.5 99.501C172.794 99.995 172.942 100.619 172.942 101.373C172.942 102.118 172.794 102.738 172.5 103.232C172.214 103.726 171.828 104.099 171.343 104.35C170.857 104.593 170.32 104.714 169.731 104.714ZM169.874 103.622C170.333 103.622 170.74 103.527 171.096 103.336C171.451 103.145 171.728 102.881 171.928 102.543C172.136 102.205 172.24 101.815 172.24 101.373C172.24 100.931 172.136 100.541 171.928 100.203C171.728 99.865 171.451 99.605 171.096 99.423C170.74 99.2323 170.333 99.137 169.874 99.137C169.414 99.137 169.003 99.2323 168.639 99.423C168.283 99.605 168.002 99.865 167.794 100.203C167.594 100.541 167.495 100.931 167.495 101.373C167.495 101.815 167.594 102.205 167.794 102.543C168.002 102.881 168.283 103.145 168.639 103.336C169.003 103.527 169.414 103.622 169.874 103.622ZM178.914 105.078C178.177 105.078 177.527 104.926 176.964 104.623C176.409 104.32 175.976 103.904 175.664 103.375C175.361 102.846 175.209 102.24 175.209 101.555C175.209 100.87 175.356 100.264 175.651 99.735C175.954 99.2063 176.366 98.7947 176.886 98.5C177.415 98.1967 178.008 98.045 178.667 98.045C179.334 98.045 179.924 98.1923 180.435 98.487C180.946 98.7817 181.345 99.1977 181.631 99.735C181.926 100.264 182.073 100.883 182.073 101.594C182.073 101.646 182.069 101.707 182.06 101.776C182.06 101.845 182.056 101.91 182.047 101.971H176.184V101.074H181.397L180.89 101.386C180.899 100.944 180.808 100.55 180.617 100.203C180.426 99.8563 180.162 99.5877 179.824 99.397C179.495 99.1977 179.109 99.098 178.667 99.098C178.234 99.098 177.848 99.1977 177.51 99.397C177.172 99.5877 176.908 99.8607 176.717 100.216C176.526 100.563 176.431 100.961 176.431 101.412V101.62C176.431 102.079 176.535 102.491 176.743 102.855C176.96 103.21 177.259 103.488 177.64 103.687C178.021 103.886 178.459 103.986 178.953 103.986C179.36 103.986 179.729 103.917 180.058 103.778C180.396 103.639 180.691 103.431 180.942 103.154L181.631 103.96C181.319 104.324 180.929 104.601 180.461 104.792C180.002 104.983 179.486 105.078 178.914 105.078ZM187.485 98.045C188.048 98.045 188.542 98.1533 188.967 98.37C189.4 98.5867 189.738 98.916 189.981 99.358C190.224 99.8 190.345 100.359 190.345 101.035V105H189.097V101.178C189.097 100.511 188.932 100.008 188.603 99.67C188.282 99.332 187.827 99.163 187.238 99.163C186.796 99.163 186.41 99.2497 186.081 99.423C185.752 99.5963 185.496 99.852 185.314 100.19C185.141 100.528 185.054 100.948 185.054 101.451V105H183.806V98.11H185.002V99.969L184.807 99.475C185.032 99.0243 185.379 98.6733 185.847 98.422C186.315 98.1707 186.861 98.045 187.485 98.045ZM196.932 105V103.544L196.867 103.271V100.788C196.867 100.259 196.711 99.852 196.399 99.566C196.095 99.2713 195.636 99.124 195.021 99.124C194.613 99.124 194.215 99.1933 193.825 99.332C193.435 99.462 193.105 99.6397 192.837 99.865L192.317 98.929C192.672 98.643 193.097 98.4263 193.591 98.279C194.093 98.123 194.618 98.045 195.164 98.045C196.108 98.045 196.836 98.2747 197.348 98.734C197.859 99.1933 198.115 99.8953 198.115 100.84V105H196.932ZM194.67 105.078C194.158 105.078 193.708 104.991 193.318 104.818C192.936 104.645 192.642 104.406 192.434 104.103C192.226 103.791 192.122 103.44 192.122 103.05C192.122 102.677 192.208 102.339 192.382 102.036C192.564 101.733 192.854 101.49 193.253 101.308C193.66 101.126 194.206 101.035 194.891 101.035H197.075V101.932H194.943C194.319 101.932 193.898 102.036 193.682 102.244C193.465 102.452 193.357 102.703 193.357 102.998C193.357 103.336 193.491 103.609 193.76 103.817C194.028 104.016 194.401 104.116 194.878 104.116C195.346 104.116 195.753 104.012 196.1 103.804C196.455 103.596 196.711 103.293 196.867 102.894L197.114 103.752C196.949 104.159 196.659 104.484 196.243 104.727C195.827 104.961 195.302 105.078 194.67 105.078ZM200.424 105V98.11H201.672V105H200.424ZM201.048 96.784C200.806 96.784 200.602 96.706 200.437 96.55C200.281 96.394 200.203 96.2033 200.203 95.978C200.203 95.744 200.281 95.549 200.437 95.393C200.602 95.237 200.806 95.159 201.048 95.159C201.291 95.159 201.49 95.237 201.646 95.393C201.811 95.5403 201.893 95.7267 201.893 95.952C201.893 96.186 201.815 96.3853 201.659 96.55C201.503 96.706 201.3 96.784 201.048 96.784ZM208.56 103.336L208.586 101.737L212.551 98.11H214.059L211.017 101.1L210.341 101.672L208.56 103.336ZM207.546 105V95.354H208.794V105H207.546ZM212.811 105L210.107 101.646L210.913 100.645L214.345 105H212.811ZM218.229 105.078C217.535 105.078 216.92 104.926 216.383 104.623C215.845 104.32 215.421 103.904 215.109 103.375C214.797 102.838 214.641 102.231 214.641 101.555C214.641 100.87 214.797 100.264 215.109 99.735C215.421 99.2063 215.845 98.7947 216.383 98.5C216.92 98.1967 217.535 98.045 218.229 98.045C218.913 98.045 219.524 98.1967 220.062 98.5C220.608 98.7947 221.032 99.2063 221.336 99.735C221.648 100.255 221.804 100.862 221.804 101.555C221.804 102.24 221.648 102.846 221.336 103.375C221.032 103.904 220.608 104.32 220.062 104.623C219.524 104.926 218.913 105.078 218.229 105.078ZM218.229 103.986C218.671 103.986 219.065 103.886 219.412 103.687C219.767 103.488 220.044 103.206 220.244 102.842C220.443 102.469 220.543 102.04 220.543 101.555C220.543 101.061 220.443 100.636 220.244 100.281C220.044 99.917 219.767 99.6353 219.412 99.436C219.065 99.2367 218.671 99.137 218.229 99.137C217.787 99.137 217.392 99.2367 217.046 99.436C216.699 99.6353 216.422 99.917 216.214 100.281C216.006 100.636 215.902 101.061 215.902 101.555C215.902 102.04 216.006 102.469 216.214 102.842C216.422 103.206 216.699 103.488 217.046 103.687C217.392 103.886 217.787 103.986 218.229 103.986ZM227.209 98.045C227.772 98.045 228.266 98.1533 228.691 98.37C229.124 98.5867 229.462 98.916 229.705 99.358C229.947 99.8 230.069 100.359 230.069 101.035V105H228.821V101.178C228.821 100.511 228.656 100.008 228.327 99.67C228.006 99.332 227.551 99.163 226.962 99.163C226.52 99.163 226.134 99.2497 225.805 99.423C225.475 99.5963 225.22 99.852 225.038 100.19C224.864 100.528 224.778 100.948 224.778 101.451V105H223.53V98.11H224.726V99.969L224.531 99.475C224.756 99.0243 225.103 98.6733 225.571 98.422C226.039 98.1707 226.585 98.045 227.209 98.045ZM235.225 105.078C234.558 105.078 233.96 104.931 233.431 104.636C232.911 104.341 232.5 103.93 232.196 103.401C231.893 102.872 231.741 102.257 231.741 101.555C231.741 100.853 231.893 100.242 232.196 99.722C232.5 99.1933 232.911 98.7817 233.431 98.487C233.96 98.1923 234.558 98.045 235.225 98.045C235.806 98.045 236.33 98.175 236.798 98.435C237.266 98.695 237.639 99.085 237.916 99.605C238.202 100.125 238.345 100.775 238.345 101.555C238.345 102.335 238.207 102.985 237.929 103.505C237.661 104.025 237.292 104.419 236.824 104.688C236.356 104.948 235.823 105.078 235.225 105.078ZM235.329 103.986C235.763 103.986 236.153 103.886 236.499 103.687C236.855 103.488 237.132 103.206 237.331 102.842C237.539 102.469 237.643 102.04 237.643 101.555C237.643 101.061 237.539 100.636 237.331 100.281C237.132 99.917 236.855 99.6353 236.499 99.436C236.153 99.2367 235.763 99.137 235.329 99.137C234.887 99.137 234.493 99.2367 234.146 99.436C233.8 99.6353 233.522 99.917 233.314 100.281C233.106 100.636 233.002 101.061 233.002 101.555C233.002 102.04 233.106 102.469 233.314 102.842C233.522 103.206 233.8 103.488 234.146 103.687C234.493 103.886 234.887 103.986 235.329 103.986ZM237.682 105V103.141L237.76 101.542L237.63 99.943V95.354H238.878V105H237.682ZM241.24 105V98.11H242.488V105H241.24ZM241.864 96.784C241.621 96.784 241.417 96.706 241.253 96.55C241.097 96.394 241.019 96.2033 241.019 95.978C241.019 95.744 241.097 95.549 241.253 95.393C241.417 95.237 241.621 95.159 241.864 95.159C242.106 95.159 242.306 95.237 242.462 95.393C242.626 95.5403 242.709 95.7267 242.709 95.952C242.709 96.186 242.631 96.3853 242.475 96.55C242.319 96.706 242.115 96.784 241.864 96.784ZM246.847 105.078C246.275 105.078 245.729 105 245.209 104.844C244.697 104.688 244.294 104.497 244 104.272L244.52 103.284C244.814 103.483 245.178 103.652 245.612 103.791C246.045 103.93 246.487 103.999 246.938 103.999C247.518 103.999 247.934 103.917 248.186 103.752C248.446 103.587 248.576 103.358 248.576 103.063C248.576 102.846 248.498 102.677 248.342 102.556C248.186 102.435 247.978 102.344 247.718 102.283C247.466 102.222 247.185 102.17 246.873 102.127C246.561 102.075 246.249 102.014 245.937 101.945C245.625 101.867 245.339 101.763 245.079 101.633C244.819 101.494 244.611 101.308 244.455 101.074C244.299 100.831 244.221 100.511 244.221 100.112C244.221 99.696 244.338 99.332 244.572 99.02C244.806 98.708 245.135 98.4697 245.56 98.305C245.993 98.1317 246.504 98.045 247.094 98.045C247.544 98.045 247.999 98.1013 248.459 98.214C248.927 98.318 249.308 98.4697 249.603 98.669L249.07 99.657C248.758 99.449 248.433 99.306 248.095 99.228C247.757 99.15 247.419 99.111 247.081 99.111C246.535 99.111 246.127 99.202 245.859 99.384C245.59 99.5573 245.456 99.7827 245.456 100.06C245.456 100.294 245.534 100.476 245.69 100.606C245.854 100.727 246.062 100.823 246.314 100.892C246.574 100.961 246.86 101.022 247.172 101.074C247.484 101.117 247.796 101.178 248.108 101.256C248.42 101.325 248.701 101.425 248.953 101.555C249.213 101.685 249.421 101.867 249.577 102.101C249.741 102.335 249.824 102.647 249.824 103.037C249.824 103.453 249.702 103.813 249.46 104.116C249.217 104.419 248.875 104.658 248.433 104.831C247.991 104.996 247.462 105.078 246.847 105.078ZM251.383 105V98.11H252.631V105H251.383ZM252.007 96.784C251.765 96.784 251.561 96.706 251.396 96.55C251.24 96.394 251.162 96.2033 251.162 95.978C251.162 95.744 251.24 95.549 251.396 95.393C251.561 95.237 251.765 95.159 252.007 95.159C252.25 95.159 252.449 95.237 252.605 95.393C252.77 95.5403 252.852 95.7267 252.852 95.952C252.852 96.186 252.774 96.3853 252.618 96.55C252.462 96.706 252.259 96.784 252.007 96.784ZM21.03 126.078C20.3627 126.078 19.7647 125.931 19.236 125.636C18.716 125.341 18.3043 124.93 18.001 124.401C17.6977 123.872 17.546 123.257 17.546 122.555C17.546 121.853 17.6977 121.242 18.001 120.722C18.3043 120.193 18.716 119.782 19.236 119.487C19.7647 119.192 20.3627 119.045 21.03 119.045C21.6107 119.045 22.135 119.175 22.603 119.435C23.071 119.695 23.4437 120.085 23.721 120.605C24.007 121.125 24.15 121.775 24.15 122.555C24.15 123.335 24.0113 123.985 23.734 124.505C23.4653 125.025 23.097 125.419 22.629 125.688C22.161 125.948 21.628 126.078 21.03 126.078ZM21.134 124.986C21.5673 124.986 21.9573 124.886 22.304 124.687C22.6593 124.488 22.9367 124.206 23.136 123.842C23.344 123.469 23.448 123.04 23.448 122.555C23.448 122.061 23.344 121.636 23.136 121.281C22.9367 120.917 22.6593 120.635 22.304 120.436C21.9573 120.237 21.5673 120.137 21.134 120.137C20.692 120.137 20.2977 120.237 19.951 120.436C19.6043 120.635 19.327 120.917 19.119 121.281C18.911 121.636 18.807 122.061 18.807 122.555C18.807 123.04 18.911 123.469 19.119 123.842C19.327 124.206 19.6043 124.488 19.951 124.687C20.2977 124.886 20.692 124.986 21.134 124.986ZM23.487 126V124.141L23.565 122.542L23.435 120.943V116.354H24.683V126H23.487ZM31.3213 126V124.544L31.2563 124.271V121.788C31.2563 121.259 31.1003 120.852 30.7883 120.566C30.485 120.271 30.0257 120.124 29.4103 120.124C29.003 120.124 28.6043 120.193 28.2143 120.332C27.8243 120.462 27.495 120.64 27.2263 120.865L26.7063 119.929C27.0617 119.643 27.4863 119.426 27.9803 119.279C28.483 119.123 29.0073 119.045 29.5533 119.045C30.498 119.045 31.226 119.275 31.7373 119.734C32.2487 120.193 32.5043 120.895 32.5043 121.84V126H31.3213ZM29.0593 126.078C28.548 126.078 28.0973 125.991 27.7073 125.818C27.326 125.645 27.0313 125.406 26.8233 125.103C26.6153 124.791 26.5113 124.44 26.5113 124.05C26.5113 123.677 26.598 123.339 26.7713 123.036C26.9533 122.733 27.2437 122.49 27.6423 122.308C28.0497 122.126 28.5957 122.035 29.2803 122.035H31.4643V122.932H29.3323C28.7083 122.932 28.288 123.036 28.0713 123.244C27.8547 123.452 27.7463 123.703 27.7463 123.998C27.7463 124.336 27.8807 124.609 28.1493 124.817C28.418 125.016 28.7907 125.116 29.2673 125.116C29.7353 125.116 30.1427 125.012 30.4893 124.804C30.8447 124.596 31.1003 124.293 31.2563 123.894L31.5033 124.752C31.3387 125.159 31.0483 125.484 30.6323 125.727C30.2163 125.961 29.692 126.078 29.0593 126.078ZM34.8139 126V119.11H36.0099V120.982L35.8929 120.514C36.0835 120.037 36.4042 119.673 36.8549 119.422C37.3055 119.171 37.8602 119.045 38.5189 119.045V120.254C38.4669 120.245 38.4149 120.241 38.3629 120.241C38.3195 120.241 38.2762 120.241 38.2329 120.241C37.5655 120.241 37.0369 120.44 36.6469 120.839C36.2569 121.238 36.0619 121.814 36.0619 122.568V126H34.8139ZM43.0449 126.078C42.4556 126.078 41.9356 125.97 41.4849 125.753C41.0429 125.536 40.6962 125.207 40.4449 124.765C40.2022 124.314 40.0809 123.751 40.0809 123.075V119.11H41.3289V122.932C41.3289 123.608 41.4892 124.115 41.8099 124.453C42.1392 124.791 42.5986 124.96 43.1879 124.96C43.6212 124.96 43.9982 124.873 44.3189 124.7C44.6396 124.518 44.8866 124.258 45.0599 123.92C45.2332 123.573 45.3199 123.157 45.3199 122.672V119.11H46.5679V126H45.3849V124.141L45.5799 124.635C45.3546 125.094 45.0166 125.45 44.5659 125.701C44.1152 125.952 43.6082 126.078 43.0449 126.078ZM48.9437 126V119.11H50.1397V120.982L50.0227 120.514C50.2134 120.037 50.5341 119.673 50.9847 119.422C51.4354 119.171 51.9901 119.045 52.6487 119.045V120.254C52.5967 120.245 52.5447 120.241 52.4927 120.241C52.4494 120.241 52.4061 120.241 52.3627 120.241C51.6954 120.241 51.1667 120.44 50.7767 120.839C50.3867 121.238 50.1917 121.814 50.1917 122.568V126H48.9437ZM57.9561 126V124.544L57.8911 124.271V121.788C57.8911 121.259 57.7351 120.852 57.4231 120.566C57.1198 120.271 56.6604 120.124 56.0451 120.124C55.6378 120.124 55.2391 120.193 54.8491 120.332C54.4591 120.462 54.1298 120.64 53.8611 120.865L53.3411 119.929C53.6964 119.643 54.1211 119.426 54.6151 119.279C55.1178 119.123 55.6421 119.045 56.1881 119.045C57.1328 119.045 57.8608 119.275 58.3721 119.734C58.8834 120.193 59.1391 120.895 59.1391 121.84V126H57.9561ZM55.6941 126.078C55.1828 126.078 54.7321 125.991 54.3421 125.818C53.9608 125.645 53.6661 125.406 53.4581 125.103C53.2501 124.791 53.1461 124.44 53.1461 124.05C53.1461 123.677 53.2328 123.339 53.4061 123.036C53.5881 122.733 53.8784 122.49 54.2771 122.308C54.6844 122.126 55.2304 122.035 55.9151 122.035H58.0991V122.932H55.9671C55.3431 122.932 54.9228 123.036 54.7061 123.244C54.4894 123.452 54.3811 123.703 54.3811 123.998C54.3811 124.336 54.5154 124.609 54.7841 124.817C55.0528 125.016 55.4254 125.116 55.9021 125.116C56.3701 125.116 56.7774 125.012 57.1241 124.804C57.4794 124.596 57.7351 124.293 57.8911 123.894L58.1381 124.752C57.9734 125.159 57.6831 125.484 57.2671 125.727C56.8511 125.961 56.3268 126.078 55.6941 126.078ZM63.8146 126.078C63.1213 126.078 62.584 125.892 62.2026 125.519C61.8213 125.146 61.6306 124.613 61.6306 123.92V117.602H62.8786V123.868C62.8786 124.241 62.9696 124.527 63.1516 124.726C63.3423 124.925 63.611 125.025 63.9576 125.025C64.3476 125.025 64.6726 124.917 64.9326 124.7L65.3226 125.597C65.132 125.762 64.9023 125.883 64.6336 125.961C64.3736 126.039 64.1006 126.078 63.8146 126.078ZM60.4606 120.137V119.11H64.8546V120.137H60.4606ZM73.1696 126.078C72.5023 126.078 71.9043 125.931 71.3756 125.636C70.8556 125.341 70.444 124.93 70.1406 124.401C69.8373 123.872 69.6856 123.257 69.6856 122.555C69.6856 121.853 69.8373 121.242 70.1406 120.722C70.444 120.193 70.8556 119.782 71.3756 119.487C71.9043 119.192 72.5023 119.045 73.1696 119.045C73.7503 119.045 74.2746 119.175 74.7426 119.435C75.2106 119.695 75.5833 120.085 75.8606 120.605C76.1466 121.125 76.2896 121.775 76.2896 122.555C76.2896 123.335 76.151 123.985 75.8736 124.505C75.605 125.025 75.2366 125.419 74.7686 125.688C74.3006 125.948 73.7676 126.078 73.1696 126.078ZM73.2736 124.986C73.707 124.986 74.097 124.886 74.4436 124.687C74.799 124.488 75.0763 124.206 75.2756 123.842C75.4836 123.469 75.5876 123.04 75.5876 122.555C75.5876 122.061 75.4836 121.636 75.2756 121.281C75.0763 120.917 74.799 120.635 74.4436 120.436C74.097 120.237 73.707 120.137 73.2736 120.137C72.8316 120.137 72.4373 120.237 72.0906 120.436C71.744 120.635 71.4666 120.917 71.2586 121.281C71.0506 121.636 70.9466 122.061 70.9466 122.555C70.9466 123.04 71.0506 123.469 71.2586 123.842C71.4666 124.206 71.744 124.488 72.0906 124.687C72.4373 124.886 72.8316 124.986 73.2736 124.986ZM75.6266 126V124.141L75.7046 122.542L75.5746 120.943V116.354H76.8226V126H75.6266ZM79.184 126V119.11H80.432V126H79.184ZM79.808 117.784C79.5653 117.784 79.3616 117.706 79.197 117.55C79.041 117.394 78.963 117.203 78.963 116.978C78.963 116.744 79.041 116.549 79.197 116.393C79.3616 116.237 79.5653 116.159 79.808 116.159C80.0506 116.159 80.25 116.237 80.406 116.393C80.5706 116.54 80.653 116.727 80.653 116.952C80.653 117.186 80.575 117.385 80.419 117.55C80.263 117.706 80.0593 117.784 79.808 117.784ZM88.282 126.078C87.71 126.078 87.164 126 86.644 125.844C86.1327 125.688 85.7297 125.497 85.435 125.272L85.955 124.284C86.2497 124.483 86.6137 124.652 87.047 124.791C87.4804 124.93 87.9224 124.999 88.373 124.999C88.9537 124.999 89.3697 124.917 89.621 124.752C89.881 124.587 90.011 124.358 90.011 124.063C90.011 123.846 89.933 123.677 89.777 123.556C89.621 123.435 89.413 123.344 89.153 123.283C88.9017 123.222 88.62 123.17 88.308 123.127C87.996 123.075 87.684 123.014 87.372 122.945C87.06 122.867 86.774 122.763 86.514 122.633C86.254 122.494 86.046 122.308 85.89 122.074C85.734 121.831 85.656 121.511 85.656 121.112C85.656 120.696 85.773 120.332 86.007 120.02C86.241 119.708 86.5704 119.47 86.995 119.305C87.4284 119.132 87.9397 119.045 88.529 119.045C88.9797 119.045 89.4347 119.101 89.894 119.214C90.362 119.318 90.7434 119.47 91.038 119.669L90.505 120.657C90.193 120.449 89.868 120.306 89.53 120.228C89.192 120.15 88.854 120.111 88.516 120.111C87.97 120.111 87.5627 120.202 87.294 120.384C87.0254 120.557 86.891 120.783 86.891 121.06C86.891 121.294 86.969 121.476 87.125 121.606C87.2897 121.727 87.4977 121.823 87.749 121.892C88.009 121.961 88.295 122.022 88.607 122.074C88.919 122.117 89.231 122.178 89.543 122.256C89.855 122.325 90.1367 122.425 90.388 122.555C90.648 122.685 90.856 122.867 91.012 123.101C91.1767 123.335 91.259 123.647 91.259 124.037C91.259 124.453 91.1377 124.813 90.895 125.116C90.6524 125.419 90.31 125.658 89.868 125.831C89.426 125.996 88.8974 126.078 88.282 126.078ZM95.8867 126.078C95.1501 126.078 94.5001 125.926 93.9367 125.623C93.3821 125.32 92.9487 124.904 92.6367 124.375C92.3334 123.846 92.1817 123.24 92.1817 122.555C92.1817 121.87 92.3291 121.264 92.6237 120.735C92.9271 120.206 93.3387 119.795 93.8587 119.5C94.3874 119.197 94.9811 119.045 95.6397 119.045C96.3071 119.045 96.8964 119.192 97.4077 119.487C97.9191 119.782 98.3177 120.198 98.6037 120.735C98.8984 121.264 99.0457 121.883 99.0457 122.594C99.0457 122.646 99.0414 122.707 99.0327 122.776C99.0327 122.845 99.0284 122.91 99.0197 122.971H93.1567V122.074H98.3697L97.8627 122.386C97.8714 121.944 97.7804 121.55 97.5897 121.203C97.3991 120.856 97.1347 120.588 96.7967 120.397C96.4674 120.198 96.0817 120.098 95.6397 120.098C95.2064 120.098 94.8207 120.198 94.4827 120.397C94.1447 120.588 93.8804 120.861 93.6897 121.216C93.4991 121.563 93.4037 121.961 93.4037 122.412V122.62C93.4037 123.079 93.5077 123.491 93.7157 123.855C93.9324 124.21 94.2314 124.488 94.6127 124.687C94.9941 124.886 95.4317 124.986 95.9257 124.986C96.3331 124.986 96.7014 124.917 97.0307 124.778C97.3687 124.639 97.6634 124.431 97.9147 124.154L98.6037 124.96C98.2917 125.324 97.9017 125.601 97.4337 125.792C96.9744 125.983 96.4587 126.078 95.8867 126.078ZM101.793 124.336L101.819 122.737L105.784 119.11H107.292L104.25 122.1L103.574 122.672L101.793 124.336ZM100.779 126V116.354H102.027V126H100.779ZM106.044 126L103.34 122.646L104.146 121.645L107.578 126H106.044ZM108.789 126V119.11H110.037V126H108.789ZM109.413 117.784C109.171 117.784 108.967 117.706 108.802 117.55C108.646 117.394 108.568 117.203 108.568 116.978C108.568 116.744 108.646 116.549 108.802 116.393C108.967 116.237 109.171 116.159 109.413 116.159C109.656 116.159 109.855 116.237 110.011 116.393C110.176 116.54 110.258 116.727 110.258 116.952C110.258 117.186 110.18 117.385 110.024 117.55C109.868 117.706 109.665 117.784 109.413 117.784ZM114.786 126.078C114.093 126.078 113.556 125.892 113.174 125.519C112.793 125.146 112.602 124.613 112.602 123.92V117.602H113.85V123.868C113.85 124.241 113.941 124.527 114.123 124.726C114.314 124.925 114.583 125.025 114.929 125.025C115.319 125.025 115.644 124.917 115.904 124.7L116.294 125.597C116.104 125.762 115.874 125.883 115.605 125.961C115.345 126.039 115.072 126.078 114.786 126.078ZM111.432 120.137V119.11H115.826V120.137H111.432ZM122.08 126V124.544L122.015 124.271V121.788C122.015 121.259 121.859 120.852 121.547 120.566C121.244 120.271 120.784 120.124 120.169 120.124C119.762 120.124 119.363 120.193 118.973 120.332C118.583 120.462 118.254 120.64 117.985 120.865L117.465 119.929C117.82 119.643 118.245 119.426 118.739 119.279C119.242 119.123 119.766 119.045 120.312 119.045C121.257 119.045 121.985 119.275 122.496 119.734C123.007 120.193 123.263 120.895 123.263 121.84V126H122.08ZM119.818 126.078C119.307 126.078 118.856 125.991 118.466 125.818C118.085 125.645 117.79 125.406 117.582 125.103C117.374 124.791 117.27 124.44 117.27 124.05C117.27 123.677 117.357 123.339 117.53 123.036C117.712 122.733 118.002 122.49 118.401 122.308C118.808 122.126 119.354 122.035 120.039 122.035H122.223V122.932H120.091C119.467 122.932 119.047 123.036 118.83 123.244C118.613 123.452 118.505 123.703 118.505 123.998C118.505 124.336 118.639 124.609 118.908 124.817C119.177 125.016 119.549 125.116 120.026 125.116C120.494 125.116 120.901 125.012 121.248 124.804C121.603 124.596 121.859 124.293 122.015 123.894L122.262 124.752C122.097 125.159 121.807 125.484 121.391 125.727C120.975 125.961 120.451 126.078 119.818 126.078ZM125.573 126V119.11H126.769V120.982L126.652 120.514C126.842 120.037 127.163 119.673 127.614 119.422C128.064 119.171 128.619 119.045 129.278 119.045V120.254C129.226 120.245 129.174 120.241 129.122 120.241C129.078 120.241 129.035 120.241 128.992 120.241C128.324 120.241 127.796 120.44 127.406 120.839C127.016 121.238 126.821 121.814 126.821 122.568V126H125.573ZM138.049 126.078C137.477 126.078 136.953 125.948 136.476 125.688C136.008 125.419 135.631 125.025 135.345 124.505C135.068 123.985 134.929 123.335 134.929 122.555C134.929 121.775 135.063 121.125 135.332 120.605C135.609 120.085 135.982 119.695 136.45 119.435C136.927 119.175 137.46 119.045 138.049 119.045C138.725 119.045 139.323 119.192 139.843 119.487C140.363 119.782 140.775 120.193 141.078 120.722C141.381 121.242 141.533 121.853 141.533 122.555C141.533 123.257 141.381 123.872 141.078 124.401C140.775 124.93 140.363 125.341 139.843 125.636C139.323 125.931 138.725 126.078 138.049 126.078ZM134.396 128.522V119.11H135.592V120.969L135.514 122.568L135.644 124.167V128.522H134.396ZM137.945 124.986C138.387 124.986 138.781 124.886 139.128 124.687C139.483 124.488 139.761 124.206 139.96 123.842C140.168 123.469 140.272 123.04 140.272 122.555C140.272 122.061 140.168 121.636 139.96 121.281C139.761 120.917 139.483 120.635 139.128 120.436C138.781 120.237 138.387 120.137 137.945 120.137C137.512 120.137 137.117 120.237 136.762 120.436C136.415 120.635 136.138 120.917 135.93 121.281C135.731 121.636 135.631 122.061 135.631 122.555C135.631 123.04 135.731 123.469 135.93 123.842C136.138 124.206 136.415 124.488 136.762 124.687C137.117 124.886 137.512 124.986 137.945 124.986ZM146.325 126.078C145.589 126.078 144.939 125.926 144.375 125.623C143.821 125.32 143.387 124.904 143.075 124.375C142.772 123.846 142.62 123.24 142.62 122.555C142.62 121.87 142.768 121.264 143.062 120.735C143.366 120.206 143.777 119.795 144.297 119.5C144.826 119.197 145.42 119.045 146.078 119.045C146.746 119.045 147.335 119.192 147.846 119.487C148.358 119.782 148.756 120.198 149.042 120.735C149.337 121.264 149.484 121.883 149.484 122.594C149.484 122.646 149.48 122.707 149.471 122.776C149.471 122.845 149.467 122.91 149.458 122.971H143.595V122.074H148.808L148.301 122.386C148.31 121.944 148.219 121.55 148.028 121.203C147.838 120.856 147.573 120.588 147.235 120.397C146.906 120.198 146.52 120.098 146.078 120.098C145.645 120.098 145.259 120.198 144.921 120.397C144.583 120.588 144.319 120.861 144.128 121.216C143.938 121.563 143.842 121.961 143.842 122.412V122.62C143.842 123.079 143.946 123.491 144.154 123.855C144.371 124.21 144.67 124.488 145.051 124.687C145.433 124.886 145.87 124.986 146.364 124.986C146.772 124.986 147.14 124.917 147.469 124.778C147.807 124.639 148.102 124.431 148.353 124.154L149.042 124.96C148.73 125.324 148.34 125.601 147.872 125.792C147.413 125.983 146.897 126.078 146.325 126.078ZM154.896 119.045C155.46 119.045 155.954 119.153 156.378 119.37C156.812 119.587 157.15 119.916 157.392 120.358C157.635 120.8 157.756 121.359 157.756 122.035V126H156.508V122.178C156.508 121.511 156.344 121.008 156.014 120.67C155.694 120.332 155.239 120.163 154.649 120.163C154.207 120.163 153.822 120.25 153.492 120.423C153.163 120.596 152.907 120.852 152.725 121.19C152.552 121.528 152.465 121.948 152.465 122.451V126H151.217V119.11H152.413V120.969L152.218 120.475C152.444 120.024 152.79 119.673 153.258 119.422C153.726 119.171 154.272 119.045 154.896 119.045ZM163.082 128.6C162.449 128.6 161.834 128.509 161.236 128.327C160.646 128.154 160.165 127.902 159.793 127.573L160.391 126.611C160.711 126.888 161.106 127.105 161.574 127.261C162.042 127.426 162.531 127.508 163.043 127.508C163.857 127.508 164.455 127.317 164.837 126.936C165.218 126.555 165.409 125.974 165.409 125.194V123.738L165.539 122.373L165.474 120.995V119.11H166.657V125.064C166.657 126.277 166.353 127.17 165.747 127.742C165.14 128.314 164.252 128.6 163.082 128.6ZM162.926 125.714C162.258 125.714 161.66 125.575 161.132 125.298C160.612 125.012 160.196 124.618 159.884 124.115C159.58 123.612 159.429 123.032 159.429 122.373C159.429 121.706 159.58 121.125 159.884 120.631C160.196 120.128 160.612 119.738 161.132 119.461C161.66 119.184 162.258 119.045 162.926 119.045C163.515 119.045 164.052 119.166 164.538 119.409C165.023 119.643 165.409 120.007 165.695 120.501C165.989 120.995 166.137 121.619 166.137 122.373C166.137 123.118 165.989 123.738 165.695 124.232C165.409 124.726 165.023 125.099 164.538 125.35C164.052 125.593 163.515 125.714 162.926 125.714ZM163.069 124.622C163.528 124.622 163.935 124.527 164.291 124.336C164.646 124.145 164.923 123.881 165.123 123.543C165.331 123.205 165.435 122.815 165.435 122.373C165.435 121.931 165.331 121.541 165.123 121.203C164.923 120.865 164.646 120.605 164.291 120.423C163.935 120.232 163.528 120.137 163.069 120.137C162.609 120.137 162.198 120.232 161.834 120.423C161.478 120.605 161.197 120.865 160.989 121.203C160.789 121.541 160.69 121.931 160.69 122.373C160.69 122.815 160.789 123.205 160.989 123.543C161.197 123.881 161.478 124.145 161.834 124.336C162.198 124.527 162.609 124.622 163.069 124.622ZM172.057 128.6C171.425 128.6 170.809 128.509 170.211 128.327C169.622 128.154 169.141 127.902 168.768 127.573L169.366 126.611C169.687 126.888 170.081 127.105 170.549 127.261C171.017 127.426 171.507 127.508 172.018 127.508C172.833 127.508 173.431 127.317 173.812 126.936C174.194 126.555 174.384 125.974 174.384 125.194V123.738L174.514 122.373L174.449 120.995V119.11H175.632V125.064C175.632 126.277 175.329 127.17 174.722 127.742C174.116 128.314 173.227 128.6 172.057 128.6ZM171.901 125.714C171.234 125.714 170.636 125.575 170.107 125.298C169.587 125.012 169.171 124.618 168.859 124.115C168.556 123.612 168.404 123.032 168.404 122.373C168.404 121.706 168.556 121.125 168.859 120.631C169.171 120.128 169.587 119.738 170.107 119.461C170.636 119.184 171.234 119.045 171.901 119.045C172.491 119.045 173.028 119.166 173.513 119.409C173.999 119.643 174.384 120.007 174.67 120.501C174.965 120.995 175.112 121.619 175.112 122.373C175.112 123.118 174.965 123.738 174.67 124.232C174.384 124.726 173.999 125.099 173.513 125.35C173.028 125.593 172.491 125.714 171.901 125.714ZM172.044 124.622C172.504 124.622 172.911 124.527 173.266 124.336C173.622 124.145 173.899 123.881 174.098 123.543C174.306 123.205 174.41 122.815 174.41 122.373C174.41 121.931 174.306 121.541 174.098 121.203C173.899 120.865 173.622 120.605 173.266 120.423C172.911 120.232 172.504 120.137 172.044 120.137C171.585 120.137 171.173 120.232 170.809 120.423C170.454 120.605 170.172 120.865 169.964 121.203C169.765 121.541 169.665 121.931 169.665 122.373C169.665 122.815 169.765 123.205 169.964 123.543C170.172 123.881 170.454 124.145 170.809 124.336C171.173 124.527 171.585 124.622 172.044 124.622ZM180.916 126.078C180.327 126.078 179.807 125.97 179.356 125.753C178.914 125.536 178.567 125.207 178.316 124.765C178.073 124.314 177.952 123.751 177.952 123.075V119.11H179.2V122.932C179.2 123.608 179.36 124.115 179.681 124.453C180.01 124.791 180.47 124.96 181.059 124.96C181.492 124.96 181.869 124.873 182.19 124.7C182.511 124.518 182.758 124.258 182.931 123.92C183.104 123.573 183.191 123.157 183.191 122.672V119.11H184.439V126H183.256V124.141L183.451 124.635C183.226 125.094 182.888 125.45 182.437 125.701C181.986 125.952 181.479 126.078 180.916 126.078ZM190.494 119.045C191.057 119.045 191.551 119.153 191.976 119.37C192.409 119.587 192.747 119.916 192.99 120.358C193.233 120.8 193.354 121.359 193.354 122.035V126H192.106V122.178C192.106 121.511 191.941 121.008 191.612 120.67C191.291 120.332 190.836 120.163 190.247 120.163C189.805 120.163 189.419 120.25 189.09 120.423C188.761 120.596 188.505 120.852 188.323 121.19C188.15 121.528 188.063 121.948 188.063 122.451V126H186.815V119.11H188.011V120.969L187.816 120.475C188.041 120.024 188.388 119.673 188.856 119.422C189.324 119.171 189.87 119.045 190.494 119.045ZM199.94 126V124.544L199.875 124.271V121.788C199.875 121.259 199.719 120.852 199.407 120.566C199.104 120.271 198.645 120.124 198.029 120.124C197.622 120.124 197.223 120.193 196.833 120.332C196.443 120.462 196.114 120.64 195.845 120.865L195.325 119.929C195.681 119.643 196.105 119.426 196.599 119.279C197.102 119.123 197.626 119.045 198.172 119.045C199.117 119.045 199.845 119.275 200.356 119.734C200.868 120.193 201.123 120.895 201.123 121.84V126H199.94ZM197.678 126.078C197.167 126.078 196.716 125.991 196.326 125.818C195.945 125.645 195.65 125.406 195.442 125.103C195.234 124.791 195.13 124.44 195.13 124.05C195.13 123.677 195.217 123.339 195.39 123.036C195.572 122.733 195.863 122.49 196.261 122.308C196.669 122.126 197.215 122.035 197.899 122.035H200.083V122.932H197.951C197.327 122.932 196.907 123.036 196.69 123.244C196.474 123.452 196.365 123.703 196.365 123.998C196.365 124.336 196.5 124.609 196.768 124.817C197.037 125.016 197.41 125.116 197.886 125.116C198.354 125.116 198.762 125.012 199.108 124.804C199.464 124.596 199.719 124.293 199.875 123.894L200.122 124.752C199.958 125.159 199.667 125.484 199.251 125.727C198.835 125.961 198.311 126.078 197.678 126.078ZM203.732 126.078C203.489 126.078 203.281 125.996 203.108 125.831C202.935 125.658 202.848 125.441 202.848 125.181C202.848 124.921 202.935 124.709 203.108 124.544C203.281 124.379 203.489 124.297 203.732 124.297C203.966 124.297 204.165 124.379 204.33 124.544C204.503 124.709 204.59 124.921 204.59 125.181C204.59 125.441 204.503 125.658 204.33 125.831C204.165 125.996 203.966 126.078 203.732 126.078Z" fill="white" fill-opacity="0.8"/>
<circle cx="37" cy="36" r="20" fill="white" fill-opacity="0.1"/>
<path d="M44.965 32.521C44.988 32.347 45 32.173 45 32C45 29.621 42.857 27.712 40.479 28.035C39.786 26.802 38.466 26 37 26C35.534 26 34.214 26.802 33.521 28.035C31.138 27.712 29 29.621 29 32C29 32.173 29.012 32.347 29.035 32.521C27.802 33.215 27 34.535 27 36C27 37.465 27.802 38.785 29.035 39.479C29.0119 39.6517 29.0002 39.8258 29 40C29 42.379 31.138 44.283 33.521 43.965C34.214 45.198 35.534 46 37 46C38.466 46 39.786 45.198 40.479 43.965C42.857 44.283 45 42.379 45 40C45 39.827 44.988 39.653 44.965 39.479C46.198 38.785 47 37.465 47 36C47 34.535 46.198 33.215 44.965 32.521ZM35.955 40.416L32.288 36.702L33.712 35.298L35.969 37.584L40.296 33.29L41.704 34.71L35.955 40.416Z" fill="white" fill-opacity="0.5"/>
</svg>
