<svg width="300" height="160" viewBox="0 0 300 160" fill="none" xmlns="http://www.w3.org/2000/svg">
<rect width="300" height="160" rx="10" fill="#0C0E12"/>
<rect x="1" y="1" width="298" height="158" rx="9" stroke="white" stroke-opacity="0.07" stroke-width="2"/>
<path d="M73.88 43V29H79.64C80.88 29 81.94 29.2 82.82 29.6C83.7133 30 84.4 30.5733 84.88 31.32C85.36 32.0667 85.6 32.9533 85.6 33.98C85.6 35.0067 85.36 35.8933 84.88 36.64C84.4 37.3867 83.7133 37.96 82.82 38.36C81.94 38.76 80.88 38.96 79.64 38.96H75.32L76.48 37.74V43H73.88ZM76.48 38.02L75.32 36.76H79.52C80.6667 36.76 81.5267 36.52 82.1 36.04C82.6867 35.5467 82.98 34.86 82.98 33.98C82.98 33.0867 82.6867 32.4 82.1 31.92C81.5267 31.44 80.6667 31.2 79.52 31.2H75.32L76.48 29.92V38.02ZM94.4388 43V40.84L94.2988 40.38V36.6C94.2988 35.8667 94.0788 35.3 93.6388 34.9C93.1988 34.4867 92.5321 34.28 91.6388 34.28C91.0388 34.28 90.4454 34.3733 89.8588 34.56C89.2854 34.7467 88.7988 35.0067 88.3988 35.34L87.4188 33.52C87.9921 33.08 88.6721 32.7533 89.4588 32.54C90.2588 32.3133 91.0854 32.2 91.9388 32.2C93.4854 32.2 94.6788 32.5733 95.5188 33.32C96.3721 34.0533 96.7988 35.1933 96.7988 36.74V43H94.4388ZM91.0788 43.14C90.2788 43.14 89.5788 43.0067 88.9788 42.74C88.3788 42.46 87.9121 42.08 87.5788 41.6C87.2588 41.1067 87.0988 40.5533 87.0988 39.94C87.0988 39.34 87.2388 38.8 87.5188 38.32C87.8121 37.84 88.2854 37.46 88.9388 37.18C89.5921 36.9 90.4588 36.76 91.5388 36.76H94.6388V38.42H91.7188C90.8654 38.42 90.2921 38.56 89.9988 38.84C89.7054 39.1067 89.5588 39.44 89.5588 39.84C89.5588 40.2933 89.7388 40.6533 90.0988 40.92C90.4588 41.1867 90.9588 41.32 91.5988 41.32C92.2121 41.32 92.7588 41.18 93.2388 40.9C93.7321 40.62 94.0854 40.2067 94.2988 39.66L94.7188 41.16C94.4788 41.7867 94.0454 42.2733 93.4188 42.62C92.8054 42.9667 92.0254 43.14 91.0788 43.14ZM106.067 32.2C106.921 32.2 107.681 32.3667 108.347 32.7C109.027 33.0333 109.561 33.5467 109.947 34.24C110.334 34.92 110.527 35.8 110.527 36.88V43H108.027V37.2C108.027 36.2533 107.801 35.5467 107.347 35.08C106.907 34.6133 106.287 34.38 105.487 34.38C104.901 34.38 104.381 34.5 103.927 34.74C103.474 34.98 103.121 35.34 102.867 35.82C102.627 36.2867 102.507 36.88 102.507 37.6V43H100.007V32.32H102.387V35.2L101.967 34.32C102.341 33.64 102.881 33.12 103.587 32.76C104.307 32.3867 105.134 32.2 106.067 32.2ZM118.238 43.14C117.211 43.14 116.285 42.9133 115.458 42.46C114.645 41.9933 114.005 41.3533 113.538 40.54C113.071 39.7267 112.838 38.7667 112.838 37.66C112.838 36.5533 113.071 35.5933 113.538 34.78C114.005 33.9667 114.645 33.3333 115.458 32.88C116.285 32.4267 117.211 32.2 118.238 32.2C119.131 32.2 119.931 32.4 120.638 32.8C121.345 33.1867 121.905 33.78 122.318 34.58C122.731 35.38 122.938 36.4067 122.938 37.66C122.938 38.9 122.738 39.9267 122.338 40.74C121.938 41.54 121.385 42.14 120.678 42.54C119.971 42.94 119.158 43.14 118.238 43.14ZM118.538 41C119.138 41 119.671 40.8667 120.138 40.6C120.618 40.3333 120.998 39.9467 121.278 39.44C121.571 38.9333 121.718 38.34 121.718 37.66C121.718 36.9667 121.571 36.3733 121.278 35.88C120.998 35.3733 120.618 34.9867 120.138 34.72C119.671 34.4533 119.138 34.32 118.538 34.32C117.938 34.32 117.398 34.4533 116.918 34.72C116.451 34.9867 116.071 35.3733 115.778 35.88C115.498 36.3733 115.358 36.9667 115.358 37.66C115.358 38.34 115.498 38.9333 115.778 39.44C116.071 39.9467 116.451 40.3333 116.918 40.6C117.398 40.8667 117.938 41 118.538 41ZM121.778 43V40.48L121.878 37.64L121.678 34.8V28.16H124.158V43H121.778ZM131.969 43.14C131.062 43.14 130.262 42.9733 129.569 42.64C128.875 42.2933 128.335 41.7733 127.949 41.08C127.562 40.3733 127.369 39.4867 127.369 38.42V32.32H129.869V38.08C129.869 39.04 130.082 39.76 130.509 40.24C130.949 40.7067 131.569 40.94 132.369 40.94C132.955 40.94 133.462 40.82 133.889 40.58C134.329 40.34 134.669 39.98 134.909 39.5C135.162 39.02 135.289 38.4267 135.289 37.72V32.32H137.789V43H135.409V40.12L135.829 41C135.469 41.6933 134.942 42.2267 134.249 42.6C133.555 42.96 132.795 43.14 131.969 43.14ZM147.642 43V40.84L147.502 40.38V36.6C147.502 35.8667 147.282 35.3 146.842 34.9C146.402 34.4867 145.735 34.28 144.842 34.28C144.242 34.28 143.649 34.3733 143.062 34.56C142.489 34.7467 142.002 35.0067 141.602 35.34L140.622 33.52C141.195 33.08 141.875 32.7533 142.662 32.54C143.462 32.3133 144.289 32.2 145.142 32.2C146.689 32.2 147.882 32.5733 148.722 33.32C149.575 34.0533 150.002 35.1933 150.002 36.74V43H147.642ZM144.282 43.14C143.482 43.14 142.782 43.0067 142.182 42.74C141.582 42.46 141.115 42.08 140.782 41.6C140.462 41.1067 140.302 40.5533 140.302 39.94C140.302 39.34 140.442 38.8 140.722 38.32C141.015 37.84 141.489 37.46 142.142 37.18C142.795 36.9 143.662 36.76 144.742 36.76H147.842V38.42H144.922C144.069 38.42 143.495 38.56 143.202 38.84C142.909 39.1067 142.762 39.44 142.762 39.84C142.762 40.2933 142.942 40.6533 143.302 40.92C143.662 41.1867 144.162 41.32 144.802 41.32C145.415 41.32 145.962 41.18 146.442 40.9C146.935 40.62 147.289 40.2067 147.502 39.66L147.922 41.16C147.682 41.7867 147.249 42.2733 146.622 42.62C146.009 42.9667 145.229 43.14 144.282 43.14ZM159.27 32.2C160.124 32.2 160.884 32.3667 161.55 32.7C162.23 33.0333 162.764 33.5467 163.15 34.24C163.537 34.92 163.73 35.8 163.73 36.88V43H161.23V37.2C161.23 36.2533 161.004 35.5467 160.55 35.08C160.11 34.6133 159.49 34.38 158.69 34.38C158.104 34.38 157.584 34.5 157.13 34.74C156.677 34.98 156.324 35.34 156.07 35.82C155.83 36.2867 155.71 36.88 155.71 37.6V43H153.21V32.32H155.59V35.2L155.17 34.32C155.544 33.64 156.084 33.12 156.79 32.76C157.51 32.3867 158.337 32.2 159.27 32.2ZM172.669 43V29H178.789C180.309 29 181.642 29.2933 182.789 29.88C183.936 30.4667 184.829 31.28 185.469 32.32C186.109 33.36 186.429 34.5867 186.429 36C186.429 37.4 186.109 38.6267 185.469 39.68C184.829 40.72 183.936 41.5333 182.789 42.12C181.642 42.7067 180.309 43 178.789 43H172.669ZM175.269 40.8H178.669C179.722 40.8 180.629 40.6 181.389 40.2C182.162 39.8 182.756 39.24 183.169 38.52C183.596 37.8 183.809 36.96 183.809 36C183.809 35.0267 183.596 34.1867 183.169 33.48C182.756 32.76 182.162 32.2 181.389 31.8C180.629 31.4 179.722 31.2 178.669 31.2H175.269V40.8ZM195.533 43V40.84L195.393 40.38V36.6C195.393 35.8667 195.173 35.3 194.733 34.9C194.293 34.4867 193.626 34.28 192.733 34.28C192.133 34.28 191.539 34.3733 190.953 34.56C190.379 34.7467 189.893 35.0067 189.493 35.34L188.513 33.52C189.086 33.08 189.766 32.7533 190.553 32.54C191.353 32.3133 192.179 32.2 193.033 32.2C194.579 32.2 195.773 32.5733 196.613 33.32C197.466 34.0533 197.893 35.1933 197.893 36.74V43H195.533ZM192.173 43.14C191.373 43.14 190.673 43.0067 190.073 42.74C189.473 42.46 189.006 42.08 188.673 41.6C188.353 41.1067 188.193 40.5533 188.193 39.94C188.193 39.34 188.333 38.8 188.613 38.32C188.906 37.84 189.379 37.46 190.033 37.18C190.686 36.9 191.553 36.76 192.633 36.76H195.733V38.42H192.813C191.959 38.42 191.386 38.56 191.093 38.84C190.799 39.1067 190.653 39.44 190.653 39.84C190.653 40.2933 190.833 40.6533 191.193 40.92C191.553 41.1867 192.053 41.32 192.693 41.32C193.306 41.32 193.853 41.18 194.333 40.9C194.826 40.62 195.179 40.2067 195.393 39.66L195.813 41.16C195.573 41.7867 195.139 42.2733 194.513 42.62C193.899 42.9667 193.119 43.14 192.173 43.14ZM201.101 43V32.32H203.481V35.26L203.201 34.4C203.521 33.68 204.021 33.1333 204.701 32.76C205.394 32.3867 206.254 32.2 207.281 32.2V34.58C207.174 34.5533 207.074 34.54 206.981 34.54C206.888 34.5267 206.794 34.52 206.701 34.52C205.754 34.52 205.001 34.8 204.441 35.36C203.881 35.9067 203.601 36.7267 203.601 37.82V43H201.101ZM214.019 43.14C213.113 43.14 212.313 42.9733 211.619 42.64C210.926 42.2933 210.386 41.7733 209.999 41.08C209.613 40.3733 209.419 39.4867 209.419 38.42V32.32H211.919V38.08C211.919 39.04 212.133 39.76 212.559 40.24C212.999 40.7067 213.619 40.94 214.419 40.94C215.006 40.94 215.513 40.82 215.939 40.58C216.379 40.34 216.719 39.98 216.959 39.5C217.213 39.02 217.339 38.4267 217.339 37.72V32.32H219.839V43H217.459V40.12L217.879 41C217.519 41.6933 216.993 42.2267 216.299 42.6C215.606 42.96 214.846 43.14 214.019 43.14ZM223.113 43V32.32H225.493V35.26L225.213 34.4C225.533 33.68 226.033 33.1333 226.713 32.76C227.406 32.3867 228.266 32.2 229.293 32.2V34.58C229.186 34.5533 229.086 34.54 228.993 34.54C228.899 34.5267 228.806 34.52 228.713 34.52C227.766 34.52 227.013 34.8 226.453 35.36C225.893 35.9067 225.613 36.7267 225.613 37.82V43H223.113ZM237.232 43V40.84L237.092 40.38V36.6C237.092 35.8667 236.872 35.3 236.432 34.9C235.992 34.4867 235.325 34.28 234.432 34.28C233.832 34.28 233.238 34.3733 232.652 34.56C232.078 34.7467 231.592 35.0067 231.192 35.34L230.212 33.52C230.785 33.08 231.465 32.7533 232.252 32.54C233.052 32.3133 233.878 32.2 234.732 32.2C236.278 32.2 237.472 32.5733 238.312 33.32C239.165 34.0533 239.592 35.1933 239.592 36.74V43H237.232ZM233.872 43.14C233.072 43.14 232.372 43.0067 231.772 42.74C231.172 42.46 230.705 42.08 230.372 41.6C230.052 41.1067 229.892 40.5533 229.892 39.94C229.892 39.34 230.032 38.8 230.312 38.32C230.605 37.84 231.078 37.46 231.732 37.18C232.385 36.9 233.252 36.76 234.332 36.76H237.432V38.42H234.512C233.658 38.42 233.085 38.56 232.792 38.84C232.498 39.1067 232.352 39.44 232.352 39.84C232.352 40.2933 232.532 40.6533 232.892 40.92C233.252 41.1867 233.752 41.32 234.392 41.32C235.005 41.32 235.552 41.18 236.032 40.9C236.525 40.62 236.878 40.2067 237.092 39.66L237.512 41.16C237.272 41.7867 236.838 42.2733 236.212 42.62C235.598 42.9667 234.818 43.14 233.872 43.14ZM246.82 43.14C245.647 43.14 244.74 42.84 244.1 42.24C243.46 41.6267 243.14 40.7267 243.14 39.54V29.96H245.64V39.48C245.64 39.9867 245.767 40.38 246.02 40.66C246.287 40.94 246.653 41.08 247.12 41.08C247.68 41.08 248.147 40.9333 248.52 40.64L249.22 42.42C248.927 42.66 248.567 42.84 248.14 42.96C247.713 43.08 247.273 43.14 246.82 43.14ZM241.38 34.4V32.4H248.5V34.4H241.38Z" fill="white"/>
<path d="M18.365 84V74.9H19.431L23.513 81.777H22.941L26.971 74.9H28.037L28.05 84H26.802L26.789 76.863H27.088L23.5 82.895H22.902L19.288 76.863H19.613V84H18.365ZM33.667 84.078C32.9303 84.078 32.2803 83.9263 31.717 83.623C31.1623 83.3197 30.729 82.9037 30.417 82.375C30.1137 81.8463 29.962 81.2397 29.962 80.555C29.962 79.8703 30.1093 79.2637 30.404 78.735C30.7073 78.2063 31.119 77.7947 31.639 77.5C32.1677 77.1967 32.7613 77.045 33.42 77.045C34.0873 77.045 34.6767 77.1923 35.188 77.487C35.6993 77.7817 36.098 78.1977 36.384 78.735C36.6787 79.2637 36.826 79.8833 36.826 80.594C36.826 80.646 36.8217 80.7067 36.813 80.776C36.813 80.8453 36.8087 80.9103 36.8 80.971H30.937V80.074H36.15L35.643 80.386C35.6517 79.944 35.5607 79.5497 35.37 79.203C35.1793 78.8563 34.915 78.5877 34.577 78.397C34.2477 78.1977 33.862 78.098 33.42 78.098C32.9867 78.098 32.601 78.1977 32.263 78.397C31.925 78.5877 31.6607 78.8607 31.47 79.216C31.2793 79.5627 31.184 79.9613 31.184 80.412V80.62C31.184 81.0793 31.288 81.491 31.496 81.855C31.7127 82.2103 32.0117 82.4877 32.393 82.687C32.7743 82.8863 33.212 82.986 33.706 82.986C34.1133 82.986 34.4817 82.9167 34.811 82.778C35.149 82.6393 35.4437 82.4313 35.695 82.154L36.384 82.96C36.072 83.324 35.682 83.6013 35.214 83.792C34.7547 83.9827 34.239 84.078 33.667 84.078ZM42.238 77.045C42.8013 77.045 43.2953 77.1533 43.72 77.37C44.1533 77.5867 44.4913 77.916 44.734 78.358C44.9766 78.8 45.098 79.359 45.098 80.035V84H43.85V80.178C43.85 79.5107 43.6853 79.008 43.356 78.67C43.0353 78.332 42.5803 78.163 41.991 78.163C41.549 78.163 41.1633 78.2497 40.834 78.423C40.5046 78.5963 40.249 78.852 40.067 79.19C39.8936 79.528 39.807 79.9483 39.807 80.451V84H38.559V77.11H39.755V78.969L39.56 78.475C39.7853 78.0243 40.132 77.6733 40.6 77.422C41.068 77.1707 41.614 77.045 42.238 77.045ZM47.5797 86.6C47.2503 86.6 46.9297 86.5437 46.6177 86.431C46.3057 86.327 46.037 86.171 45.8117 85.963L46.3447 85.027C46.518 85.1917 46.7087 85.3173 46.9167 85.404C47.1247 85.4907 47.3457 85.534 47.5797 85.534C47.883 85.534 48.1343 85.456 48.3337 85.3C48.533 85.144 48.7193 84.8667 48.8927 84.468L49.3217 83.519L49.4517 83.363L52.1557 77.11H53.3777L50.0367 84.689C49.8373 85.1743 49.612 85.5557 49.3607 85.833C49.118 86.1103 48.8493 86.3053 48.5547 86.418C48.26 86.5393 47.935 86.6 47.5797 86.6ZM49.2177 84.221L46.0717 77.11H47.3717L50.0497 83.246L49.2177 84.221ZM57.4199 84.078C56.6833 84.078 56.0333 83.9263 55.4699 83.623C54.9153 83.3197 54.4819 82.9037 54.1699 82.375C53.8666 81.8463 53.7149 81.2397 53.7149 80.555C53.7149 79.8703 53.8623 79.2637 54.1569 78.735C54.4603 78.2063 54.8719 77.7947 55.3919 77.5C55.9206 77.1967 56.5143 77.045 57.1729 77.045C57.8403 77.045 58.4296 77.1923 58.9409 77.487C59.4523 77.7817 59.8509 78.1977 60.1369 78.735C60.4316 79.2637 60.5789 79.8833 60.5789 80.594C60.5789 80.646 60.5746 80.7067 60.5659 80.776C60.5659 80.8453 60.5616 80.9103 60.5529 80.971H54.6899V80.074H59.9029L59.3959 80.386C59.4046 79.944 59.3136 79.5497 59.1229 79.203C58.9323 78.8563 58.6679 78.5877 58.3299 78.397C58.0006 78.1977 57.6149 78.098 57.1729 78.098C56.7396 78.098 56.3539 78.1977 56.0159 78.397C55.6779 78.5877 55.4136 78.8607 55.2229 79.216C55.0323 79.5627 54.9369 79.9613 54.9369 80.412V80.62C54.9369 81.0793 55.0409 81.491 55.2489 81.855C55.4656 82.2103 55.7646 82.4877 56.1459 82.687C56.5273 82.8863 56.9649 82.986 57.4589 82.986C57.8663 82.986 58.2346 82.9167 58.5639 82.778C58.9019 82.6393 59.1966 82.4313 59.4479 82.154L60.1369 82.96C59.8249 83.324 59.4349 83.6013 58.9669 83.792C58.5076 83.9827 57.9919 84.078 57.4199 84.078ZM65.1589 84.078C64.4916 84.078 63.8936 83.9307 63.3649 83.636C62.8449 83.3413 62.4332 82.9297 62.1299 82.401C61.8266 81.8723 61.6749 81.257 61.6749 80.555C61.6749 79.853 61.8266 79.242 62.1299 78.722C62.4332 78.1933 62.8449 77.7817 63.3649 77.487C63.8936 77.1923 64.4916 77.045 65.1589 77.045C65.7396 77.045 66.2639 77.175 66.7319 77.435C67.1999 77.695 67.5726 78.085 67.8499 78.605C68.1359 79.125 68.2789 79.775 68.2789 80.555C68.2789 81.335 68.1402 81.985 67.8629 82.505C67.5942 83.025 67.2259 83.4193 66.7579 83.688C66.2899 83.948 65.7569 84.078 65.1589 84.078ZM65.2629 82.986C65.6962 82.986 66.0862 82.8863 66.4329 82.687C66.7882 82.4877 67.0656 82.206 67.2649 81.842C67.4729 81.4693 67.5769 81.0403 67.5769 80.555C67.5769 80.061 67.4729 79.6363 67.2649 79.281C67.0656 78.917 66.7882 78.6353 66.4329 78.436C66.0862 78.2367 65.6962 78.137 65.2629 78.137C64.8209 78.137 64.4266 78.2367 64.0799 78.436C63.7332 78.6353 63.4559 78.917 63.2479 79.281C63.0399 79.6363 62.9359 80.061 62.9359 80.555C62.9359 81.0403 63.0399 81.4693 63.2479 81.842C63.4559 82.206 63.7332 82.4877 64.0799 82.687C64.4266 82.8863 64.8209 82.986 65.2629 82.986ZM67.6159 84V82.141L67.6939 80.542L67.5639 78.943V74.354H68.8119V84H67.6159ZM71.1732 84V77.11H72.4212V84H71.1732ZM71.7972 75.784C71.5546 75.784 71.3509 75.706 71.1862 75.55C71.0302 75.394 70.9522 75.2033 70.9522 74.978C70.9522 74.744 71.0302 74.549 71.1862 74.393C71.3509 74.237 71.5546 74.159 71.7972 74.159C72.0399 74.159 72.2392 74.237 72.3952 74.393C72.5599 74.5403 72.6422 74.7267 72.6422 74.952C72.6422 75.186 72.5642 75.3853 72.4082 75.55C72.2522 75.706 72.0486 75.784 71.7972 75.784ZM79.0811 84V82.544L79.0161 82.271V79.788C79.0161 79.2593 78.8601 78.852 78.5481 78.566C78.2448 78.2713 77.7854 78.124 77.1701 78.124C76.7628 78.124 76.3641 78.1933 75.9741 78.332C75.5841 78.462 75.2548 78.6397 74.9861 78.865L74.4661 77.929C74.8214 77.643 75.2461 77.4263 75.7401 77.279C76.2428 77.123 76.7671 77.045 77.3131 77.045C78.2578 77.045 78.9858 77.2747 79.4971 77.734C80.0084 78.1933 80.2641 78.8953 80.2641 79.84V84H79.0811ZM76.8191 84.078C76.3078 84.078 75.8571 83.9913 75.4671 83.818C75.0858 83.6447 74.7911 83.4063 74.5831 83.103C74.3751 82.791 74.2711 82.44 74.2711 82.05C74.2711 81.6773 74.3578 81.3393 74.5311 81.036C74.7131 80.7327 75.0034 80.49 75.4021 80.308C75.8094 80.126 76.3554 80.035 77.0401 80.035H79.2241V80.932H77.0921C76.4681 80.932 76.0478 81.036 75.8311 81.244C75.6144 81.452 75.5061 81.7033 75.5061 81.998C75.5061 82.336 75.6404 82.609 75.9091 82.817C76.1778 83.0163 76.5504 83.116 77.0271 83.116C77.4951 83.116 77.9024 83.012 78.2491 82.804C78.6044 82.596 78.8601 82.2927 79.0161 81.894L79.2631 82.752C79.0984 83.1593 78.8081 83.4843 78.3921 83.727C77.9761 83.961 77.4518 84.078 76.8191 84.078ZM83.5876 82.336L83.6136 80.737L87.5786 77.11H89.0866L86.0446 80.1L85.3686 80.672L83.5876 82.336ZM82.5736 84V74.354H83.8216V84H82.5736ZM87.8386 84L85.1346 80.646L85.9406 79.645L89.3726 84H87.8386ZM94.7344 84V82.544L94.6694 82.271V79.788C94.6694 79.2593 94.5134 78.852 94.2014 78.566C93.8981 78.2713 93.4387 78.124 92.8234 78.124C92.4161 78.124 92.0174 78.1933 91.6274 78.332C91.2374 78.462 90.9081 78.6397 90.6394 78.865L90.1194 77.929C90.4747 77.643 90.8994 77.4263 91.3934 77.279C91.8961 77.123 92.4204 77.045 92.9664 77.045C93.9111 77.045 94.6391 77.2747 95.1504 77.734C95.6617 78.1933 95.9174 78.8953 95.9174 79.84V84H94.7344ZM92.4724 84.078C91.9611 84.078 91.5104 83.9913 91.1204 83.818C90.7391 83.6447 90.4444 83.4063 90.2364 83.103C90.0284 82.791 89.9244 82.44 89.9244 82.05C89.9244 81.6773 90.0111 81.3393 90.1844 81.036C90.3664 80.7327 90.6567 80.49 91.0554 80.308C91.4627 80.126 92.0087 80.035 92.6934 80.035H94.8774V80.932H92.7454C92.1214 80.932 91.7011 81.036 91.4844 81.244C91.2677 81.452 91.1594 81.7033 91.1594 81.998C91.1594 82.336 91.2937 82.609 91.5624 82.817C91.8311 83.0163 92.2037 83.116 92.6804 83.116C93.1484 83.116 93.5557 83.012 93.9024 82.804C94.2577 82.596 94.5134 82.2927 94.6694 81.894L94.9164 82.752C94.7517 83.1593 94.4614 83.4843 94.0454 83.727C93.6294 83.961 93.1051 84.078 92.4724 84.078ZM101.906 77.045C102.469 77.045 102.963 77.1533 103.388 77.37C103.821 77.5867 104.159 77.916 104.402 78.358C104.645 78.8 104.766 79.359 104.766 80.035V84H103.518V80.178C103.518 79.5107 103.353 79.008 103.024 78.67C102.703 78.332 102.248 78.163 101.659 78.163C101.217 78.163 100.831 78.2497 100.502 78.423C100.173 78.5963 99.9169 78.852 99.7349 79.19C99.5616 79.528 99.4749 79.9483 99.4749 80.451V84H98.2269V77.11H99.4229V78.969L99.2279 78.475C99.4533 78.0243 99.7999 77.6733 100.268 77.422C100.736 77.1707 101.282 77.045 101.906 77.045ZM114.22 84.078C113.648 84.078 113.123 83.948 112.647 83.688C112.179 83.4193 111.802 83.025 111.516 82.505C111.238 81.985 111.1 81.335 111.1 80.555C111.1 79.775 111.234 79.125 111.503 78.605C111.78 78.085 112.153 77.695 112.621 77.435C113.097 77.175 113.63 77.045 114.22 77.045C114.896 77.045 115.494 77.1923 116.014 77.487C116.534 77.7817 116.945 78.1933 117.249 78.722C117.552 79.242 117.704 79.853 117.704 80.555C117.704 81.257 117.552 81.8723 117.249 82.401C116.945 82.9297 116.534 83.3413 116.014 83.636C115.494 83.9307 114.896 84.078 114.22 84.078ZM110.567 86.522V77.11H111.763V78.969L111.685 80.568L111.815 82.167V86.522H110.567ZM114.116 82.986C114.558 82.986 114.952 82.8863 115.299 82.687C115.654 82.4877 115.931 82.206 116.131 81.842C116.339 81.4693 116.443 81.0403 116.443 80.555C116.443 80.061 116.339 79.6363 116.131 79.281C115.931 78.917 115.654 78.6353 115.299 78.436C114.952 78.2367 114.558 78.137 114.116 78.137C113.682 78.137 113.288 78.2367 112.933 78.436C112.586 78.6353 112.309 78.917 112.101 79.281C111.901 79.6363 111.802 80.061 111.802 80.555C111.802 81.0403 111.901 81.4693 112.101 81.842C112.309 82.206 112.586 82.4877 112.933 82.687C113.288 82.8863 113.682 82.986 114.116 82.986ZM123.642 84V82.544L123.577 82.271V79.788C123.577 79.2593 123.421 78.852 123.109 78.566C122.805 78.2713 122.346 78.124 121.731 78.124C121.323 78.124 120.925 78.1933 120.535 78.332C120.145 78.462 119.815 78.6397 119.547 78.865L119.027 77.929C119.382 77.643 119.807 77.4263 120.301 77.279C120.803 77.123 121.328 77.045 121.874 77.045C122.818 77.045 123.546 77.2747 124.058 77.734C124.569 78.1933 124.825 78.8953 124.825 79.84V84H123.642ZM121.38 84.078C120.868 84.078 120.418 83.9913 120.028 83.818C119.646 83.6447 119.352 83.4063 119.144 83.103C118.936 82.791 118.832 82.44 118.832 82.05C118.832 81.6773 118.918 81.3393 119.092 81.036C119.274 80.7327 119.564 80.49 119.963 80.308C120.37 80.126 120.916 80.035 121.601 80.035H123.785V80.932H121.653C121.029 80.932 120.608 81.036 120.392 81.244C120.175 81.452 120.067 81.7033 120.067 81.998C120.067 82.336 120.201 82.609 120.47 82.817C120.738 83.0163 121.111 83.116 121.588 83.116C122.056 83.116 122.463 83.012 122.81 82.804C123.165 82.596 123.421 82.2927 123.577 81.894L123.824 82.752C123.659 83.1593 123.369 83.4843 122.953 83.727C122.537 83.961 122.012 84.078 121.38 84.078ZM130.813 77.045C131.377 77.045 131.871 77.1533 132.295 77.37C132.729 77.5867 133.067 77.916 133.309 78.358C133.552 78.8 133.673 79.359 133.673 80.035V84H132.425V80.178C132.425 79.5107 132.261 79.008 131.931 78.67C131.611 78.332 131.156 78.163 130.566 78.163C130.124 78.163 129.739 78.2497 129.409 78.423C129.08 78.5963 128.824 78.852 128.642 79.19C128.469 79.528 128.382 79.9483 128.382 80.451V84H127.134V77.11H128.33V78.969L128.135 78.475C128.361 78.0243 128.707 77.6733 129.175 77.422C129.643 77.1707 130.189 77.045 130.813 77.045ZM138.83 84.078C138.162 84.078 137.564 83.9307 137.036 83.636C136.516 83.3413 136.104 82.9297 135.801 82.401C135.497 81.8723 135.346 81.257 135.346 80.555C135.346 79.853 135.497 79.242 135.801 78.722C136.104 78.1933 136.516 77.7817 137.036 77.487C137.564 77.1923 138.162 77.045 138.83 77.045C139.41 77.045 139.935 77.175 140.403 77.435C140.871 77.695 141.243 78.085 141.521 78.605C141.807 79.125 141.95 79.775 141.95 80.555C141.95 81.335 141.811 81.985 141.534 82.505C141.265 83.025 140.897 83.4193 140.429 83.688C139.961 83.948 139.428 84.078 138.83 84.078ZM138.934 82.986C139.367 82.986 139.757 82.8863 140.104 82.687C140.459 82.4877 140.736 82.206 140.936 81.842C141.144 81.4693 141.248 81.0403 141.248 80.555C141.248 80.061 141.144 79.6363 140.936 79.281C140.736 78.917 140.459 78.6353 140.104 78.436C139.757 78.2367 139.367 78.137 138.934 78.137C138.492 78.137 138.097 78.2367 137.751 78.436C137.404 78.6353 137.127 78.917 136.919 79.281C136.711 79.6363 136.607 80.061 136.607 80.555C136.607 81.0403 136.711 81.4693 136.919 81.842C137.127 82.206 137.404 82.4877 137.751 82.687C138.097 82.8863 138.492 82.986 138.934 82.986ZM141.287 84V82.141L141.365 80.542L141.235 78.943V74.354H142.483V84H141.287ZM147.743 84.078C147.154 84.078 146.634 83.9697 146.183 83.753C145.741 83.5363 145.394 83.207 145.143 82.765C144.9 82.3143 144.779 81.751 144.779 81.075V77.11H146.027V80.932C146.027 81.608 146.187 82.115 146.508 82.453C146.837 82.791 147.297 82.96 147.886 82.96C148.319 82.96 148.696 82.8733 149.017 82.7C149.338 82.518 149.585 82.258 149.758 81.92C149.931 81.5733 150.018 81.1573 150.018 80.672V77.11H151.266V84H150.083V82.141L150.278 82.635C150.053 83.0943 149.715 83.4497 149.264 83.701C148.813 83.9523 148.306 84.078 147.743 84.078ZM157.919 84V82.544L157.854 82.271V79.788C157.854 79.2593 157.698 78.852 157.386 78.566C157.083 78.2713 156.623 78.124 156.008 78.124C155.601 78.124 155.202 78.1933 154.812 78.332C154.422 78.462 154.093 78.6397 153.824 78.865L153.304 77.929C153.659 77.643 154.084 77.4263 154.578 77.279C155.081 77.123 155.605 77.045 156.151 77.045C157.096 77.045 157.824 77.2747 158.335 77.734C158.846 78.1933 159.102 78.8953 159.102 79.84V84H157.919ZM155.657 84.078C155.146 84.078 154.695 83.9913 154.305 83.818C153.924 83.6447 153.629 83.4063 153.421 83.103C153.213 82.791 153.109 82.44 153.109 82.05C153.109 81.6773 153.196 81.3393 153.369 81.036C153.551 80.7327 153.841 80.49 154.24 80.308C154.647 80.126 155.193 80.035 155.878 80.035H158.062V80.932H155.93C155.306 80.932 154.886 81.036 154.669 81.244C154.452 81.452 154.344 81.7033 154.344 81.998C154.344 82.336 154.478 82.609 154.747 82.817C155.016 83.0163 155.388 83.116 155.865 83.116C156.333 83.116 156.74 83.012 157.087 82.804C157.442 82.596 157.698 82.2927 157.854 81.894L158.101 82.752C157.936 83.1593 157.646 83.4843 157.23 83.727C156.814 83.961 156.29 84.078 155.657 84.078ZM165.091 77.045C165.654 77.045 166.148 77.1533 166.573 77.37C167.006 77.5867 167.344 77.916 167.587 78.358C167.829 78.8 167.951 79.359 167.951 80.035V84H166.703V80.178C166.703 79.5107 166.538 79.008 166.209 78.67C165.888 78.332 165.433 78.163 164.844 78.163C164.402 78.163 164.016 78.2497 163.687 78.423C163.357 78.5963 163.102 78.852 162.92 79.19C162.746 79.528 162.66 79.9483 162.66 80.451V84H161.412V77.11H162.608V78.969L162.413 78.475C162.638 78.0243 162.985 77.6733 163.453 77.422C163.921 77.1707 164.467 77.045 165.091 77.045ZM173.751 84V77.11H174.999V84H173.751ZM174.375 75.784C174.133 75.784 173.929 75.706 173.764 75.55C173.608 75.394 173.53 75.2033 173.53 74.978C173.53 74.744 173.608 74.549 173.764 74.393C173.929 74.237 174.133 74.159 174.375 74.159C174.618 74.159 174.817 74.237 174.973 74.393C175.138 74.5403 175.22 74.7267 175.22 74.952C175.22 75.186 175.142 75.3853 174.986 75.55C174.83 75.706 174.627 75.784 174.375 75.784ZM181.061 77.045C181.625 77.045 182.119 77.1533 182.543 77.37C182.977 77.5867 183.315 77.916 183.557 78.358C183.8 78.8 183.921 79.359 183.921 80.035V84H182.673V80.178C182.673 79.5107 182.509 79.008 182.179 78.67C181.859 78.332 181.404 78.163 180.814 78.163C180.372 78.163 179.987 78.2497 179.657 78.423C179.328 78.5963 179.072 78.852 178.89 79.19C178.717 79.528 178.63 79.9483 178.63 80.451V84H177.382V77.11H178.578V78.969L178.383 78.475C178.609 78.0243 178.955 77.6733 179.423 77.422C179.891 77.1707 180.437 77.045 181.061 77.045ZM188.597 84.078C187.904 84.078 187.366 83.8917 186.985 83.519C186.604 83.1463 186.413 82.6133 186.413 81.92V75.602H187.661V81.868C187.661 82.2407 187.752 82.5267 187.934 82.726C188.125 82.9253 188.393 83.025 188.74 83.025C189.13 83.025 189.455 82.9167 189.715 82.7L190.105 83.597C189.914 83.7617 189.685 83.883 189.416 83.961C189.156 84.039 188.883 84.078 188.597 84.078ZM185.243 78.137V77.11H189.637V78.137H185.243ZM194.453 84.078C193.716 84.078 193.066 83.9263 192.503 83.623C191.948 83.3197 191.515 82.9037 191.203 82.375C190.9 81.8463 190.748 81.2397 190.748 80.555C190.748 79.8703 190.895 79.2637 191.19 78.735C191.493 78.2063 191.905 77.7947 192.425 77.5C192.954 77.1967 193.547 77.045 194.206 77.045C194.873 77.045 195.463 77.1923 195.974 77.487C196.485 77.7817 196.884 78.1977 197.17 78.735C197.465 79.2637 197.612 79.8833 197.612 80.594C197.612 80.646 197.608 80.7067 197.599 80.776C197.599 80.8453 197.595 80.9103 197.586 80.971H191.723V80.074H196.936L196.429 80.386C196.438 79.944 196.347 79.5497 196.156 79.203C195.965 78.8563 195.701 78.5877 195.363 78.397C195.034 78.1977 194.648 78.098 194.206 78.098C193.773 78.098 193.387 78.1977 193.049 78.397C192.711 78.5877 192.447 78.8607 192.256 79.216C192.065 79.5627 191.97 79.9613 191.97 80.412V80.62C191.97 81.0793 192.074 81.491 192.282 81.855C192.499 82.2103 192.798 82.4877 193.179 82.687C193.56 82.8863 193.998 82.986 194.492 82.986C194.899 82.986 195.268 82.9167 195.597 82.778C195.935 82.6393 196.23 82.4313 196.481 82.154L197.17 82.96C196.858 83.324 196.468 83.6013 196 83.792C195.541 83.9827 195.025 84.078 194.453 84.078ZM199.345 84V77.11H200.541V78.982L200.424 78.514C200.615 78.0373 200.935 77.6733 201.386 77.422C201.837 77.1707 202.391 77.045 203.05 77.045V78.254C202.998 78.2453 202.946 78.241 202.894 78.241C202.851 78.241 202.807 78.241 202.764 78.241C202.097 78.241 201.568 78.4403 201.178 78.839C200.788 79.2377 200.593 79.814 200.593 80.568V84H199.345ZM208.357 84V82.544L208.292 82.271V79.788C208.292 79.2593 208.136 78.852 207.824 78.566C207.521 78.2713 207.062 78.124 206.446 78.124C206.039 78.124 205.64 78.1933 205.25 78.332C204.86 78.462 204.531 78.6397 204.262 78.865L203.742 77.929C204.098 77.643 204.522 77.4263 205.016 77.279C205.519 77.123 206.043 77.045 206.589 77.045C207.534 77.045 208.262 77.2747 208.773 77.734C209.285 78.1933 209.54 78.8953 209.54 79.84V84H208.357ZM206.095 84.078C205.584 84.078 205.133 83.9913 204.743 83.818C204.362 83.6447 204.067 83.4063 203.859 83.103C203.651 82.791 203.547 82.44 203.547 82.05C203.547 81.6773 203.634 81.3393 203.807 81.036C203.989 80.7327 204.28 80.49 204.678 80.308C205.086 80.126 205.632 80.035 206.316 80.035H208.5V80.932H206.368C205.744 80.932 205.324 81.036 205.107 81.244C204.891 81.452 204.782 81.7033 204.782 81.998C204.782 82.336 204.917 82.609 205.185 82.817C205.454 83.0163 205.827 83.116 206.303 83.116C206.771 83.116 207.179 83.012 207.525 82.804C207.881 82.596 208.136 82.2927 208.292 81.894L208.539 82.752C208.375 83.1593 208.084 83.4843 207.668 83.727C207.252 83.961 206.728 84.078 206.095 84.078ZM212.864 82.336L212.89 80.737L216.855 77.11H218.363L215.321 80.1L214.645 80.672L212.864 82.336ZM211.85 84V74.354H213.098V84H211.85ZM217.115 84L214.411 80.646L215.217 79.645L218.649 84H217.115ZM222.227 84.078C221.533 84.078 220.996 83.8917 220.615 83.519C220.233 83.1463 220.043 82.6133 220.043 81.92V75.602H221.291V81.868C221.291 82.2407 221.382 82.5267 221.564 82.726C221.754 82.9253 222.023 83.025 222.37 83.025C222.76 83.025 223.085 82.9167 223.345 82.7L223.735 83.597C223.544 83.7617 223.314 83.883 223.046 83.961C222.786 84.039 222.513 84.078 222.227 84.078ZM218.873 78.137V77.11H223.267V78.137H218.873ZM225.244 84V77.11H226.492V84H225.244ZM225.868 75.784C225.625 75.784 225.421 75.706 225.257 75.55C225.101 75.394 225.023 75.2033 225.023 74.978C225.023 74.744 225.101 74.549 225.257 74.393C225.421 74.237 225.625 74.159 225.868 74.159C226.11 74.159 226.31 74.237 226.466 74.393C226.63 74.5403 226.713 74.7267 226.713 74.952C226.713 75.186 226.635 75.3853 226.479 75.55C226.323 75.706 226.119 75.784 225.868 75.784ZM229.056 84V76.499C229.056 75.823 229.251 75.2857 229.641 74.887C230.04 74.4797 230.603 74.276 231.331 74.276C231.6 74.276 231.856 74.3107 232.098 74.38C232.35 74.4407 232.562 74.5403 232.735 74.679L232.358 75.628C232.228 75.524 232.081 75.446 231.916 75.394C231.752 75.3333 231.578 75.303 231.396 75.303C231.032 75.303 230.755 75.407 230.564 75.615C230.374 75.8143 230.278 76.1133 230.278 76.512V77.435L230.304 78.007V84H229.056ZM227.886 78.137V77.11H232.28V78.137H227.886ZM239.796 84.078C239.128 84.078 238.53 83.9307 238.002 83.636C237.482 83.3413 237.07 82.9297 236.767 82.401C236.463 81.8723 236.312 81.257 236.312 80.555C236.312 79.853 236.463 79.242 236.767 78.722C237.07 78.1933 237.482 77.7817 238.002 77.487C238.53 77.1923 239.128 77.045 239.796 77.045C240.376 77.045 240.901 77.175 241.369 77.435C241.837 77.695 242.209 78.085 242.487 78.605C242.773 79.125 242.916 79.775 242.916 80.555C242.916 81.335 242.777 81.985 242.5 82.505C242.231 83.025 241.863 83.4193 241.395 83.688C240.927 83.948 240.394 84.078 239.796 84.078ZM239.9 82.986C240.333 82.986 240.723 82.8863 241.07 82.687C241.425 82.4877 241.702 82.206 241.902 81.842C242.11 81.4693 242.214 81.0403 242.214 80.555C242.214 80.061 242.11 79.6363 241.902 79.281C241.702 78.917 241.425 78.6353 241.07 78.436C240.723 78.2367 240.333 78.137 239.9 78.137C239.458 78.137 239.063 78.2367 238.717 78.436C238.37 78.6353 238.093 78.917 237.885 79.281C237.677 79.6363 237.573 80.061 237.573 80.555C237.573 81.0403 237.677 81.4693 237.885 81.842C238.093 82.206 238.37 82.4877 238.717 82.687C239.063 82.8863 239.458 82.986 239.9 82.986ZM242.253 84V82.141L242.331 80.542L242.201 78.943V74.354H243.449V84H242.253ZM250.087 84V82.544L250.022 82.271V79.788C250.022 79.2593 249.866 78.852 249.554 78.566C249.251 78.2713 248.791 78.124 248.176 78.124C247.769 78.124 247.37 78.1933 246.98 78.332C246.59 78.462 246.261 78.6397 245.992 78.865L245.472 77.929C245.827 77.643 246.252 77.4263 246.746 77.279C247.249 77.123 247.773 77.045 248.319 77.045C249.264 77.045 249.992 77.2747 250.503 77.734C251.014 78.1933 251.27 78.8953 251.27 79.84V84H250.087ZM247.825 84.078C247.314 84.078 246.863 83.9913 246.473 83.818C246.092 83.6447 245.797 83.4063 245.589 83.103C245.381 82.791 245.277 82.44 245.277 82.05C245.277 81.6773 245.364 81.3393 245.537 81.036C245.719 80.7327 246.009 80.49 246.408 80.308C246.815 80.126 247.361 80.035 248.046 80.035H250.23V80.932H248.098C247.474 80.932 247.054 81.036 246.837 81.244C246.62 81.452 246.512 81.7033 246.512 81.998C246.512 82.336 246.646 82.609 246.915 82.817C247.184 83.0163 247.556 83.116 248.033 83.116C248.501 83.116 248.908 83.012 249.255 82.804C249.61 82.596 249.866 82.2927 250.022 81.894L250.269 82.752C250.104 83.1593 249.814 83.4843 249.398 83.727C248.982 83.961 248.458 84.078 247.825 84.078ZM253.579 84V74.354H254.827V84H253.579ZM261.487 84V82.544L261.422 82.271V79.788C261.422 79.2593 261.266 78.852 260.954 78.566C260.651 78.2713 260.192 78.124 259.576 78.124C259.169 78.124 258.77 78.1933 258.38 78.332C257.99 78.462 257.661 78.6397 257.392 78.865L256.872 77.929C257.228 77.643 257.652 77.4263 258.146 77.279C258.649 77.123 259.173 77.045 259.719 77.045C260.664 77.045 261.392 77.2747 261.903 77.734C262.415 78.1933 262.67 78.8953 262.67 79.84V84H261.487ZM259.225 84.078C258.714 84.078 258.263 83.9913 257.873 83.818C257.492 83.6447 257.197 83.4063 256.989 83.103C256.781 82.791 256.677 82.44 256.677 82.05C256.677 81.6773 256.764 81.3393 256.937 81.036C257.119 80.7327 257.41 80.49 257.808 80.308C258.216 80.126 258.762 80.035 259.446 80.035H261.63V80.932H259.498C258.874 80.932 258.454 81.036 258.237 81.244C258.021 81.452 257.912 81.7033 257.912 81.998C257.912 82.336 258.047 82.609 258.315 82.817C258.584 83.0163 258.957 83.116 259.433 83.116C259.901 83.116 260.309 83.012 260.655 82.804C261.011 82.596 261.266 82.2927 261.422 81.894L261.669 82.752C261.505 83.1593 261.214 83.4843 260.798 83.727C260.382 83.961 259.858 84.078 259.225 84.078ZM273.599 77.045C274.154 77.045 274.643 77.1533 275.068 77.37C275.493 77.5867 275.822 77.916 276.056 78.358C276.299 78.8 276.42 79.359 276.42 80.035V84H275.172V80.178C275.172 79.5107 275.016 79.008 274.704 78.67C274.392 78.332 273.954 78.163 273.391 78.163C272.975 78.163 272.611 78.2497 272.299 78.423C271.987 78.5963 271.744 78.852 271.571 79.19C271.406 79.528 271.324 79.9483 271.324 80.451V84H270.076V80.178C270.076 79.5107 269.92 79.008 269.608 78.67C269.305 78.332 268.867 78.163 268.295 78.163C267.888 78.163 267.528 78.2497 267.216 78.423C266.904 78.5963 266.661 78.852 266.488 79.19C266.315 79.528 266.228 79.9483 266.228 80.451V84H264.98V77.11H266.176V78.943L265.981 78.475C266.198 78.0243 266.531 77.6733 266.982 77.422C267.433 77.1707 267.957 77.045 268.555 77.045C269.214 77.045 269.781 77.2097 270.258 77.539C270.735 77.8597 271.047 78.3493 271.194 79.008L270.687 78.8C270.895 78.2713 271.259 77.8467 271.779 77.526C272.299 77.2053 272.906 77.045 273.599 77.045ZM26.802 98.045C27.3567 98.045 27.8463 98.1533 28.271 98.37C28.6957 98.5867 29.025 98.916 29.259 99.358C29.5017 99.8 29.623 100.359 29.623 101.035V105H28.375V101.178C28.375 100.511 28.219 100.008 27.907 99.67C27.595 99.332 27.1573 99.163 26.594 99.163C26.178 99.163 25.814 99.2497 25.502 99.423C25.19 99.5963 24.9473 99.852 24.774 100.19C24.6093 100.528 24.527 100.948 24.527 101.451V105H23.279V101.178C23.279 100.511 23.123 100.008 22.811 99.67C22.5077 99.332 22.07 99.163 21.498 99.163C21.0907 99.163 20.731 99.2497 20.419 99.423C20.107 99.5963 19.8643 99.852 19.691 100.19C19.5177 100.528 19.431 100.948 19.431 101.451V105H18.183V98.11H19.379V99.943L19.184 99.475C19.4007 99.0243 19.7343 98.6733 20.185 98.422C20.6357 98.1707 21.16 98.045 21.758 98.045C22.4167 98.045 22.9843 98.2097 23.461 98.539C23.9377 98.8597 24.2497 99.3493 24.397 100.008L23.89 99.8C24.098 99.2713 24.462 98.8467 24.982 98.526C25.502 98.2053 26.1087 98.045 26.802 98.045ZM34.9873 105.078C34.2507 105.078 33.6007 104.926 33.0373 104.623C32.4827 104.32 32.0493 103.904 31.7373 103.375C31.434 102.846 31.2823 102.24 31.2823 101.555C31.2823 100.87 31.4297 100.264 31.7243 99.735C32.0277 99.2063 32.4393 98.7947 32.9593 98.5C33.488 98.1967 34.0817 98.045 34.7403 98.045C35.4077 98.045 35.997 98.1923 36.5083 98.487C37.0197 98.7817 37.4183 99.1977 37.7043 99.735C37.999 100.264 38.1463 100.883 38.1463 101.594C38.1463 101.646 38.142 101.707 38.1333 101.776C38.1333 101.845 38.129 101.91 38.1203 101.971H32.2573V101.074H37.4703L36.9633 101.386C36.972 100.944 36.881 100.55 36.6903 100.203C36.4997 99.8563 36.2353 99.5877 35.8973 99.397C35.568 99.1977 35.1823 99.098 34.7403 99.098C34.307 99.098 33.9213 99.1977 33.5833 99.397C33.2453 99.5877 32.981 99.8607 32.7903 100.216C32.5997 100.563 32.5043 100.961 32.5043 101.412V101.62C32.5043 102.079 32.6083 102.491 32.8163 102.855C33.033 103.21 33.332 103.488 33.7133 103.687C34.0947 103.886 34.5323 103.986 35.0263 103.986C35.4337 103.986 35.802 103.917 36.1313 103.778C36.4693 103.639 36.764 103.431 37.0153 103.154L37.7043 103.96C37.3923 104.324 37.0023 104.601 36.5343 104.792C36.075 104.983 35.5593 105.078 34.9873 105.078ZM39.8793 105V95.354H41.1273V105H39.8793ZM47.7871 105V103.544L47.7221 103.271V100.788C47.7221 100.259 47.5661 99.852 47.2541 99.566C46.9508 99.2713 46.4915 99.124 45.8761 99.124C45.4688 99.124 45.0701 99.1933 44.6801 99.332C44.2901 99.462 43.9608 99.6397 43.6921 99.865L43.1721 98.929C43.5275 98.643 43.9521 98.4263 44.4461 98.279C44.9488 98.123 45.4731 98.045 46.0191 98.045C46.9638 98.045 47.6918 98.2747 48.2031 98.734C48.7145 99.1933 48.9701 99.8953 48.9701 100.84V105H47.7871ZM45.5251 105.078C45.0138 105.078 44.5631 104.991 44.1731 104.818C43.7918 104.645 43.4971 104.406 43.2891 104.103C43.0811 103.791 42.9771 103.44 42.9771 103.05C42.9771 102.677 43.0638 102.339 43.2371 102.036C43.4191 101.733 43.7095 101.49 44.1081 101.308C44.5155 101.126 45.0615 101.035 45.7461 101.035H47.9301V101.932H45.7981C45.1741 101.932 44.7538 102.036 44.5371 102.244C44.3205 102.452 44.2121 102.703 44.2121 102.998C44.2121 103.336 44.3465 103.609 44.6151 103.817C44.8838 104.016 45.2565 104.116 45.7331 104.116C46.2011 104.116 46.6085 104.012 46.9551 103.804C47.3105 103.596 47.5661 103.293 47.7221 102.894L47.9691 103.752C47.8045 104.159 47.5141 104.484 47.0981 104.727C46.6821 104.961 46.1578 105.078 45.5251 105.078ZM52.2937 103.336L52.3197 101.737L56.2847 98.11H57.7927L54.7507 101.1L54.0747 101.672L52.2937 103.336ZM51.2797 105V95.354H52.5277V105H51.2797ZM56.5447 105L53.8407 101.646L54.6467 100.645L58.0787 105H56.5447ZM62.0625 105.078C61.4731 105.078 60.9531 104.97 60.5025 104.753C60.0605 104.536 59.7138 104.207 59.4625 103.765C59.2198 103.314 59.0985 102.751 59.0985 102.075V98.11H60.3465V101.932C60.3465 102.608 60.5068 103.115 60.8275 103.453C61.1568 103.791 61.6161 103.96 62.2055 103.96C62.6388 103.96 63.0158 103.873 63.3365 103.7C63.6571 103.518 63.9041 103.258 64.0775 102.92C64.2508 102.573 64.3375 102.157 64.3375 101.672V98.11H65.5855V105H64.4025V103.141L64.5975 103.635C64.3721 104.094 64.0341 104.45 63.5835 104.701C63.1328 104.952 62.6258 105.078 62.0625 105.078ZM68.9753 103.336L69.0013 101.737L72.9663 98.11H74.4743L71.4323 101.1L70.7563 101.672L68.9753 103.336ZM67.9613 105V95.354H69.2093V105H67.9613ZM73.2263 105L70.5223 101.646L71.3283 100.645L74.7603 105H73.2263ZM80.1221 105V103.544L80.0571 103.271V100.788C80.0571 100.259 79.9011 99.852 79.5891 99.566C79.2858 99.2713 78.8264 99.124 78.2111 99.124C77.8038 99.124 77.4051 99.1933 77.0151 99.332C76.6251 99.462 76.2958 99.6397 76.0271 99.865L75.5071 98.929C75.8624 98.643 76.2871 98.4263 76.7811 98.279C77.2838 98.123 77.8081 98.045 78.3541 98.045C79.2988 98.045 80.0268 98.2747 80.5381 98.734C81.0494 99.1933 81.3051 99.8953 81.3051 100.84V105H80.1221ZM77.8601 105.078C77.3488 105.078 76.8981 104.991 76.5081 104.818C76.1268 104.645 75.8321 104.406 75.6241 104.103C75.4161 103.791 75.3121 103.44 75.3121 103.05C75.3121 102.677 75.3988 102.339 75.5721 102.036C75.7541 101.733 76.0444 101.49 76.4431 101.308C76.8504 101.126 77.3964 101.035 78.0811 101.035H80.2651V101.932H78.1331C77.5091 101.932 77.0888 102.036 76.8721 102.244C76.6554 102.452 76.5471 102.703 76.5471 102.998C76.5471 103.336 76.6814 103.609 76.9501 103.817C77.2188 104.016 77.5914 104.116 78.0681 104.116C78.5361 104.116 78.9434 104.012 79.2901 103.804C79.6454 103.596 79.9011 103.293 80.0571 102.894L80.3041 103.752C80.1394 104.159 79.8491 104.484 79.4331 104.727C79.0171 104.961 78.4928 105.078 77.8601 105.078ZM87.2936 98.045C87.857 98.045 88.351 98.1533 88.7756 98.37C89.209 98.5867 89.547 98.916 89.7896 99.358C90.0323 99.8 90.1536 100.359 90.1536 101.035V105H88.9056V101.178C88.9056 100.511 88.741 100.008 88.4116 99.67C88.091 99.332 87.636 99.163 87.0466 99.163C86.6046 99.163 86.219 99.2497 85.8896 99.423C85.5603 99.5963 85.3046 99.852 85.1226 100.19C84.9493 100.528 84.8626 100.948 84.8626 101.451V105H83.6146V98.11H84.8106V99.969L84.6156 99.475C84.841 99.0243 85.1876 98.6733 85.6556 98.422C86.1236 98.1707 86.6696 98.045 87.2936 98.045ZM99.6075 105.078C99.0355 105.078 98.5112 104.948 98.0345 104.688C97.5665 104.419 97.1895 104.025 96.9035 103.505C96.6262 102.985 96.4875 102.335 96.4875 101.555C96.4875 100.775 96.6218 100.125 96.8905 99.605C97.1678 99.085 97.5405 98.695 98.0085 98.435C98.4852 98.175 99.0182 98.045 99.6075 98.045C100.283 98.045 100.881 98.1923 101.401 98.487C101.921 98.7817 102.333 99.1933 102.636 99.722C102.94 100.242 103.091 100.853 103.091 101.555C103.091 102.257 102.94 102.872 102.636 103.401C102.333 103.93 101.921 104.341 101.401 104.636C100.881 104.931 100.283 105.078 99.6075 105.078ZM95.9545 107.522V98.11H97.1505V99.969L97.0725 101.568L97.2025 103.167V107.522H95.9545ZM99.5035 103.986C99.9455 103.986 100.34 103.886 100.686 103.687C101.042 103.488 101.319 103.206 101.518 102.842C101.726 102.469 101.83 102.04 101.83 101.555C101.83 101.061 101.726 100.636 101.518 100.281C101.319 99.917 101.042 99.6353 100.686 99.436C100.34 99.2367 99.9455 99.137 99.5035 99.137C99.0702 99.137 98.6758 99.2367 98.3205 99.436C97.9738 99.6353 97.6965 99.917 97.4885 100.281C97.2892 100.636 97.1895 101.061 97.1895 101.555C97.1895 102.04 97.2892 102.469 97.4885 102.842C97.6965 103.206 97.9738 103.488 98.3205 103.687C98.6758 103.886 99.0702 103.986 99.5035 103.986ZM107.884 105.078C107.147 105.078 106.497 104.926 105.934 104.623C105.379 104.32 104.946 103.904 104.634 103.375C104.33 102.846 104.179 102.24 104.179 101.555C104.179 100.87 104.326 100.264 104.621 99.735C104.924 99.2063 105.336 98.7947 105.856 98.5C106.384 98.1967 106.978 98.045 107.637 98.045C108.304 98.045 108.893 98.1923 109.405 98.487C109.916 98.7817 110.315 99.1977 110.601 99.735C110.895 100.264 111.043 100.883 111.043 101.594C111.043 101.646 111.038 101.707 111.03 101.776C111.03 101.845 111.025 101.91 111.017 101.971H105.154V101.074H110.367L109.86 101.386C109.868 100.944 109.777 100.55 109.587 100.203C109.396 99.8563 109.132 99.5877 108.794 99.397C108.464 99.1977 108.079 99.098 107.637 99.098C107.203 99.098 106.818 99.1977 106.48 99.397C106.142 99.5877 105.877 99.8607 105.687 100.216C105.496 100.563 105.401 100.961 105.401 101.412V101.62C105.401 102.079 105.505 102.491 105.713 102.855C105.929 103.21 106.228 103.488 106.61 103.687C106.991 103.886 107.429 103.986 107.923 103.986C108.33 103.986 108.698 103.917 109.028 103.778C109.366 103.639 109.66 103.431 109.912 103.154L110.601 103.96C110.289 104.324 109.899 104.601 109.431 104.792C108.971 104.983 108.456 105.078 107.884 105.078ZM112.776 105V98.11H113.972V99.982L113.855 99.514C114.045 99.0373 114.366 98.6733 114.817 98.422C115.267 98.1707 115.822 98.045 116.481 98.045V99.254C116.429 99.2453 116.377 99.241 116.325 99.241C116.281 99.241 116.238 99.241 116.195 99.241C115.527 99.241 114.999 99.4403 114.609 99.839C114.219 100.238 114.024 100.814 114.024 101.568V105H112.776ZM120.664 105.078C119.971 105.078 119.434 104.892 119.052 104.519C118.671 104.146 118.48 103.613 118.48 102.92V96.602H119.728V102.868C119.728 103.241 119.819 103.527 120.001 103.726C120.192 103.925 120.461 104.025 120.807 104.025C121.197 104.025 121.522 103.917 121.782 103.7L122.172 104.597C121.982 104.762 121.752 104.883 121.483 104.961C121.223 105.039 120.95 105.078 120.664 105.078ZM117.31 99.137V98.11H121.704V99.137H117.31ZM126.404 105.078C125.71 105.078 125.095 104.926 124.558 104.623C124.02 104.32 123.596 103.904 123.284 103.375C122.972 102.838 122.816 102.231 122.816 101.555C122.816 100.87 122.972 100.264 123.284 99.735C123.596 99.2063 124.02 98.7947 124.558 98.5C125.095 98.1967 125.71 98.045 126.404 98.045C127.088 98.045 127.699 98.1967 128.237 98.5C128.783 98.7947 129.207 99.2063 129.511 99.735C129.823 100.255 129.979 100.862 129.979 101.555C129.979 102.24 129.823 102.846 129.511 103.375C129.207 103.904 128.783 104.32 128.237 104.623C127.699 104.926 127.088 105.078 126.404 105.078ZM126.404 103.986C126.846 103.986 127.24 103.886 127.587 103.687C127.942 103.488 128.219 103.206 128.419 102.842C128.618 102.469 128.718 102.04 128.718 101.555C128.718 101.061 128.618 100.636 128.419 100.281C128.219 99.917 127.942 99.6353 127.587 99.436C127.24 99.2367 126.846 99.137 126.404 99.137C125.962 99.137 125.567 99.2367 125.221 99.436C124.874 99.6353 124.597 99.917 124.389 100.281C124.181 100.636 124.077 101.061 124.077 101.555C124.077 102.04 124.181 102.469 124.389 102.842C124.597 103.206 124.874 103.488 125.221 103.687C125.567 103.886 125.962 103.986 126.404 103.986ZM131.704 105V95.354H132.952V105H131.704ZM138.286 105.078C137.593 105.078 136.978 104.926 136.44 104.623C135.903 104.32 135.478 103.904 135.166 103.375C134.854 102.838 134.698 102.231 134.698 101.555C134.698 100.87 134.854 100.264 135.166 99.735C135.478 99.2063 135.903 98.7947 136.44 98.5C136.978 98.1967 137.593 98.045 138.286 98.045C138.971 98.045 139.582 98.1967 140.119 98.5C140.665 98.7947 141.09 99.2063 141.393 99.735C141.705 100.255 141.861 100.862 141.861 101.555C141.861 102.24 141.705 102.846 141.393 103.375C141.09 103.904 140.665 104.32 140.119 104.623C139.582 104.926 138.971 105.078 138.286 105.078ZM138.286 103.986C138.728 103.986 139.123 103.886 139.469 103.687C139.825 103.488 140.102 103.206 140.301 102.842C140.501 102.469 140.6 102.04 140.6 101.555C140.6 101.061 140.501 100.636 140.301 100.281C140.102 99.917 139.825 99.6353 139.469 99.436C139.123 99.2367 138.728 99.137 138.286 99.137C137.844 99.137 137.45 99.2367 137.103 99.436C136.757 99.6353 136.479 99.917 136.271 100.281C136.063 100.636 135.959 101.061 135.959 101.555C135.959 102.04 136.063 102.469 136.271 102.842C136.479 103.206 136.757 103.488 137.103 103.687C137.45 103.886 137.844 103.986 138.286 103.986ZM147.266 98.045C147.83 98.045 148.324 98.1533 148.748 98.37C149.182 98.5867 149.52 98.916 149.762 99.358C150.005 99.8 150.126 100.359 150.126 101.035V105H148.878V101.178C148.878 100.511 148.714 100.008 148.384 99.67C148.064 99.332 147.609 99.163 147.019 99.163C146.577 99.163 146.192 99.2497 145.862 99.423C145.533 99.5963 145.277 99.852 145.095 100.19C144.922 100.528 144.835 100.948 144.835 101.451V105H143.587V98.11H144.783V99.969L144.588 99.475C144.814 99.0243 145.16 98.6733 145.628 98.422C146.096 98.1707 146.642 98.045 147.266 98.045ZM155.452 107.6C154.819 107.6 154.204 107.509 153.606 107.327C153.017 107.154 152.536 106.902 152.163 106.573L152.761 105.611C153.082 105.888 153.476 106.105 153.944 106.261C154.412 106.426 154.902 106.508 155.413 106.508C156.228 106.508 156.826 106.317 157.207 105.936C157.588 105.555 157.779 104.974 157.779 104.194V102.738L157.909 101.373L157.844 99.995V98.11H159.027V104.064C159.027 105.277 158.724 106.17 158.117 106.742C157.51 107.314 156.622 107.6 155.452 107.6ZM155.296 104.714C154.629 104.714 154.031 104.575 153.502 104.298C152.982 104.012 152.566 103.618 152.254 103.115C151.951 102.612 151.799 102.032 151.799 101.373C151.799 100.706 151.951 100.125 152.254 99.631C152.566 99.1283 152.982 98.7383 153.502 98.461C154.031 98.1837 154.629 98.045 155.296 98.045C155.885 98.045 156.423 98.1663 156.908 98.409C157.393 98.643 157.779 99.007 158.065 99.501C158.36 99.995 158.507 100.619 158.507 101.373C158.507 102.118 158.36 102.738 158.065 103.232C157.779 103.726 157.393 104.099 156.908 104.35C156.423 104.593 155.885 104.714 155.296 104.714ZM155.439 103.622C155.898 103.622 156.306 103.527 156.661 103.336C157.016 103.145 157.294 102.881 157.493 102.543C157.701 102.205 157.805 101.815 157.805 101.373C157.805 100.931 157.701 100.541 157.493 100.203C157.294 99.865 157.016 99.605 156.661 99.423C156.306 99.2323 155.898 99.137 155.439 99.137C154.98 99.137 154.568 99.2323 154.204 99.423C153.849 99.605 153.567 99.865 153.359 100.203C153.16 100.541 153.06 100.931 153.06 101.373C153.06 101.815 153.16 102.205 153.359 102.543C153.567 102.881 153.849 103.145 154.204 103.336C154.568 103.527 154.98 103.622 155.439 103.622ZM165.689 105V103.544L165.624 103.271V100.788C165.624 100.259 165.468 99.852 165.156 99.566C164.852 99.2713 164.393 99.124 163.778 99.124C163.37 99.124 162.972 99.1933 162.582 99.332C162.192 99.462 161.862 99.6397 161.594 99.865L161.074 98.929C161.429 98.643 161.854 98.4263 162.348 98.279C162.85 98.123 163.375 98.045 163.921 98.045C164.865 98.045 165.593 98.2747 166.105 98.734C166.616 99.1933 166.872 99.8953 166.872 100.84V105H165.689ZM163.427 105.078C162.915 105.078 162.465 104.991 162.075 104.818C161.693 104.645 161.399 104.406 161.191 104.103C160.983 103.791 160.879 103.44 160.879 103.05C160.879 102.677 160.965 102.339 161.139 102.036C161.321 101.733 161.611 101.49 162.01 101.308C162.417 101.126 162.963 101.035 163.648 101.035H165.832V101.932H163.7C163.076 101.932 162.655 102.036 162.439 102.244C162.222 102.452 162.114 102.703 162.114 102.998C162.114 103.336 162.248 103.609 162.517 103.817C162.785 104.016 163.158 104.116 163.635 104.116C164.103 104.116 164.51 104.012 164.857 103.804C165.212 103.596 165.468 103.293 165.624 102.894L165.871 103.752C165.706 104.159 165.416 104.484 165 104.727C164.584 104.961 164.059 105.078 163.427 105.078ZM172.86 98.045C173.423 98.045 173.917 98.1533 174.342 98.37C174.775 98.5867 175.113 98.916 175.356 99.358C175.599 99.8 175.72 100.359 175.72 101.035V105H174.472V101.178C174.472 100.511 174.307 100.008 173.978 99.67C173.657 99.332 173.202 99.163 172.613 99.163C172.171 99.163 171.785 99.2497 171.456 99.423C171.127 99.5963 170.871 99.852 170.689 100.19C170.516 100.528 170.429 100.948 170.429 101.451V105H169.181V98.11H170.377V99.969L170.182 99.475C170.407 99.0243 170.754 98.6733 171.222 98.422C171.69 98.1707 172.236 98.045 172.86 98.045ZM185.174 105.078C184.602 105.078 184.078 104.948 183.601 104.688C183.133 104.419 182.756 104.025 182.47 103.505C182.193 102.985 182.054 102.335 182.054 101.555C182.054 100.775 182.188 100.125 182.457 99.605C182.734 99.085 183.107 98.695 183.575 98.435C184.052 98.175 184.585 98.045 185.174 98.045C185.85 98.045 186.448 98.1923 186.968 98.487C187.488 98.7817 187.9 99.1933 188.203 99.722C188.506 100.242 188.658 100.853 188.658 101.555C188.658 102.257 188.506 102.872 188.203 103.401C187.9 103.93 187.488 104.341 186.968 104.636C186.448 104.931 185.85 105.078 185.174 105.078ZM181.521 107.522V98.11H182.717V99.969L182.639 101.568L182.769 103.167V107.522H181.521ZM185.07 103.986C185.512 103.986 185.906 103.886 186.253 103.687C186.608 103.488 186.886 103.206 187.085 102.842C187.293 102.469 187.397 102.04 187.397 101.555C187.397 101.061 187.293 100.636 187.085 100.281C186.886 99.917 186.608 99.6353 186.253 99.436C185.906 99.2367 185.512 99.137 185.07 99.137C184.637 99.137 184.242 99.2367 183.887 99.436C183.54 99.6353 183.263 99.917 183.055 100.281C182.856 100.636 182.756 101.061 182.756 101.555C182.756 102.04 182.856 102.469 183.055 102.842C183.263 103.206 183.54 103.488 183.887 103.687C184.242 103.886 184.637 103.986 185.07 103.986ZM193.45 105.078C192.714 105.078 192.064 104.926 191.5 104.623C190.946 104.32 190.512 103.904 190.2 103.375C189.897 102.846 189.745 102.24 189.745 101.555C189.745 100.87 189.893 100.264 190.187 99.735C190.491 99.2063 190.902 98.7947 191.422 98.5C191.951 98.1967 192.545 98.045 193.203 98.045C193.871 98.045 194.46 98.1923 194.971 98.487C195.483 98.7817 195.881 99.1977 196.167 99.735C196.462 100.264 196.609 100.883 196.609 101.594C196.609 101.646 196.605 101.707 196.596 101.776C196.596 101.845 196.592 101.91 196.583 101.971H190.72V101.074H195.933L195.426 101.386C195.435 100.944 195.344 100.55 195.153 100.203C194.963 99.8563 194.698 99.5877 194.36 99.397C194.031 99.1977 193.645 99.098 193.203 99.098C192.77 99.098 192.384 99.1977 192.046 99.397C191.708 99.5877 191.444 99.8607 191.253 100.216C191.063 100.563 190.967 100.961 190.967 101.412V101.62C190.967 102.079 191.071 102.491 191.279 102.855C191.496 103.21 191.795 103.488 192.176 103.687C192.558 103.886 192.995 103.986 193.489 103.986C193.897 103.986 194.265 103.917 194.594 103.778C194.932 103.639 195.227 103.431 195.478 103.154L196.167 103.96C195.855 104.324 195.465 104.601 194.997 104.792C194.538 104.983 194.022 105.078 193.45 105.078ZM198.342 105V98.11H199.538V99.982L199.421 99.514C199.612 99.0373 199.933 98.6733 200.383 98.422C200.834 98.1707 201.389 98.045 202.047 98.045V99.254C201.995 99.2453 201.943 99.241 201.891 99.241C201.848 99.241 201.805 99.241 201.761 99.241C201.094 99.241 200.565 99.4403 200.175 99.839C199.785 100.238 199.59 100.814 199.59 101.568V105H198.342ZM206.231 105.078C205.537 105.078 205 104.892 204.619 104.519C204.237 104.146 204.047 103.613 204.047 102.92V96.602H205.295V102.868C205.295 103.241 205.386 103.527 205.568 103.726C205.758 103.925 206.027 104.025 206.374 104.025C206.764 104.025 207.089 103.917 207.349 103.7L207.739 104.597C207.548 104.762 207.318 104.883 207.05 104.961C206.79 105.039 206.517 105.078 206.231 105.078ZM202.877 99.137V98.11H207.271V99.137H202.877ZM213.524 105V103.544L213.459 103.271V100.788C213.459 100.259 213.303 99.852 212.991 99.566C212.688 99.2713 212.229 99.124 211.613 99.124C211.206 99.124 210.807 99.1933 210.417 99.332C210.027 99.462 209.698 99.6397 209.429 99.865L208.909 98.929C209.265 98.643 209.689 98.4263 210.183 98.279C210.686 98.123 211.21 98.045 211.756 98.045C212.701 98.045 213.429 98.2747 213.94 98.734C214.452 99.1933 214.707 99.8953 214.707 100.84V105H213.524ZM211.262 105.078C210.751 105.078 210.3 104.991 209.91 104.818C209.529 104.645 209.234 104.406 209.026 104.103C208.818 103.791 208.714 103.44 208.714 103.05C208.714 102.677 208.801 102.339 208.974 102.036C209.156 101.733 209.447 101.49 209.845 101.308C210.253 101.126 210.799 101.035 211.483 101.035H213.667V101.932H211.535C210.911 101.932 210.491 102.036 210.274 102.244C210.058 102.452 209.949 102.703 209.949 102.998C209.949 103.336 210.084 103.609 210.352 103.817C210.621 104.016 210.994 104.116 211.47 104.116C211.938 104.116 212.346 104.012 212.692 103.804C213.048 103.596 213.303 103.293 213.459 102.894L213.706 103.752C213.542 104.159 213.251 104.484 212.835 104.727C212.419 104.961 211.895 105.078 211.262 105.078ZM225.636 98.045C226.191 98.045 226.68 98.1533 227.105 98.37C227.53 98.5867 227.859 98.916 228.093 99.358C228.336 99.8 228.457 100.359 228.457 101.035V105H227.209V101.178C227.209 100.511 227.053 100.008 226.741 99.67C226.429 99.332 225.991 99.163 225.428 99.163C225.012 99.163 224.648 99.2497 224.336 99.423C224.024 99.5963 223.781 99.852 223.608 100.19C223.443 100.528 223.361 100.948 223.361 101.451V105H222.113V101.178C222.113 100.511 221.957 100.008 221.645 99.67C221.342 99.332 220.904 99.163 220.332 99.163C219.925 99.163 219.565 99.2497 219.253 99.423C218.941 99.5963 218.698 99.852 218.525 100.19C218.352 100.528 218.265 100.948 218.265 101.451V105H217.017V98.11H218.213V99.943L218.018 99.475C218.235 99.0243 218.568 98.6733 219.019 98.422C219.47 98.1707 219.994 98.045 220.592 98.045C221.251 98.045 221.818 98.2097 222.295 98.539C222.772 98.8597 223.084 99.3493 223.231 100.008L222.724 99.8C222.932 99.2713 223.296 98.8467 223.816 98.526C224.336 98.2053 224.943 98.045 225.636 98.045ZM235.03 105V103.544L234.965 103.271V100.788C234.965 100.259 234.809 99.852 234.497 99.566C234.194 99.2713 233.735 99.124 233.119 99.124C232.712 99.124 232.313 99.1933 231.923 99.332C231.533 99.462 231.204 99.6397 230.935 99.865L230.415 98.929C230.771 98.643 231.195 98.4263 231.689 98.279C232.192 98.123 232.716 98.045 233.262 98.045C234.207 98.045 234.935 98.2747 235.446 98.734C235.958 99.1933 236.213 99.8953 236.213 100.84V105H235.03ZM232.768 105.078C232.257 105.078 231.806 104.991 231.416 104.818C231.035 104.645 230.74 104.406 230.532 104.103C230.324 103.791 230.22 103.44 230.22 103.05C230.22 102.677 230.307 102.339 230.48 102.036C230.662 101.733 230.953 101.49 231.351 101.308C231.759 101.126 232.305 101.035 232.989 101.035H235.173V101.932H233.041C232.417 101.932 231.997 102.036 231.78 102.244C231.564 102.452 231.455 102.703 231.455 102.998C231.455 103.336 231.59 103.609 231.858 103.817C232.127 104.016 232.5 104.116 232.976 104.116C233.444 104.116 233.852 104.012 234.198 103.804C234.554 103.596 234.809 103.293 234.965 102.894L235.212 103.752C235.048 104.159 234.757 104.484 234.341 104.727C233.925 104.961 233.401 105.078 232.768 105.078ZM20.159 126.078C19.587 126.078 19.041 126 18.521 125.844C18.0097 125.688 17.6067 125.497 17.312 125.272L17.832 124.284C18.1267 124.483 18.4907 124.652 18.924 124.791C19.3573 124.93 19.7993 124.999 20.25 124.999C20.8307 124.999 21.2467 124.917 21.498 124.752C21.758 124.587 21.888 124.358 21.888 124.063C21.888 123.846 21.81 123.677 21.654 123.556C21.498 123.435 21.29 123.344 21.03 123.283C20.7787 123.222 20.497 123.17 20.185 123.127C19.873 123.075 19.561 123.014 19.249 122.945C18.937 122.867 18.651 122.763 18.391 122.633C18.131 122.494 17.923 122.308 17.767 122.074C17.611 121.831 17.533 121.511 17.533 121.112C17.533 120.696 17.65 120.332 17.884 120.02C18.118 119.708 18.4473 119.47 18.872 119.305C19.3053 119.132 19.8167 119.045 20.406 119.045C20.8567 119.045 21.3117 119.101 21.771 119.214C22.239 119.318 22.6203 119.47 22.915 119.669L22.382 120.657C22.07 120.449 21.745 120.306 21.407 120.228C21.069 120.15 20.731 120.111 20.393 120.111C19.847 120.111 19.4397 120.202 19.171 120.384C18.9023 120.557 18.768 120.783 18.768 121.06C18.768 121.294 18.846 121.476 19.002 121.606C19.1667 121.727 19.3747 121.823 19.626 121.892C19.886 121.961 20.172 122.022 20.484 122.074C20.796 122.117 21.108 122.178 21.42 122.256C21.732 122.325 22.0137 122.425 22.265 122.555C22.525 122.685 22.733 122.867 22.889 123.101C23.0537 123.335 23.136 123.647 23.136 124.037C23.136 124.453 23.0147 124.813 22.772 125.116C22.5293 125.419 22.187 125.658 21.745 125.831C21.303 125.996 20.7743 126.078 20.159 126.078ZM27.7637 126.078C27.027 126.078 26.377 125.926 25.8137 125.623C25.259 125.32 24.8257 124.904 24.5137 124.375C24.2104 123.846 24.0587 123.24 24.0587 122.555C24.0587 121.87 24.206 121.264 24.5007 120.735C24.804 120.206 25.2157 119.795 25.7357 119.5C26.2644 119.197 26.858 119.045 27.5167 119.045C28.184 119.045 28.7734 119.192 29.2847 119.487C29.796 119.782 30.1947 120.198 30.4807 120.735C30.7754 121.264 30.9227 121.883 30.9227 122.594C30.9227 122.646 30.9184 122.707 30.9097 122.776C30.9097 122.845 30.9054 122.91 30.8967 122.971H25.0337V122.074H30.2467L29.7397 122.386C29.7484 121.944 29.6574 121.55 29.4667 121.203C29.276 120.856 29.0117 120.588 28.6737 120.397C28.3444 120.198 27.9587 120.098 27.5167 120.098C27.0834 120.098 26.6977 120.198 26.3597 120.397C26.0217 120.588 25.7574 120.861 25.5667 121.216C25.376 121.563 25.2807 121.961 25.2807 122.412V122.62C25.2807 123.079 25.3847 123.491 25.5927 123.855C25.8094 124.21 26.1084 124.488 26.4897 124.687C26.871 124.886 27.3087 124.986 27.8027 124.986C28.21 124.986 28.5784 124.917 28.9077 124.778C29.2457 124.639 29.5404 124.431 29.7917 124.154L30.4807 124.96C30.1687 125.324 29.7787 125.601 29.3107 125.792C28.8514 125.983 28.3357 126.078 27.7637 126.078ZM36.3087 126.078C35.7193 126.078 35.1863 125.948 34.7097 125.688C34.2417 125.419 33.869 125.025 33.5917 124.505C33.323 123.985 33.1887 123.335 33.1887 122.555C33.1887 121.775 33.3273 121.125 33.6047 120.605C33.8907 120.085 34.2677 119.695 34.7357 119.435C35.2123 119.175 35.7367 119.045 36.3087 119.045C36.9847 119.045 37.5827 119.192 38.1027 119.487C38.6227 119.782 39.0343 120.193 39.3377 120.722C39.641 121.242 39.7927 121.853 39.7927 122.555C39.7927 123.257 39.641 123.872 39.3377 124.401C39.0343 124.93 38.6227 125.341 38.1027 125.636C37.5827 125.931 36.9847 126.078 36.3087 126.078ZM32.6557 126V116.354H33.9037V120.943L33.7737 122.542L33.8517 124.141V126H32.6557ZM36.2047 124.986C36.6467 124.986 37.041 124.886 37.3877 124.687C37.743 124.488 38.0203 124.206 38.2197 123.842C38.4277 123.469 38.5317 123.04 38.5317 122.555C38.5317 122.061 38.4277 121.636 38.2197 121.281C38.0203 120.917 37.743 120.635 37.3877 120.436C37.041 120.237 36.6467 120.137 36.2047 120.137C35.7713 120.137 35.377 120.237 35.0217 120.436C34.675 120.635 34.3977 120.917 34.1897 121.281C33.9903 121.636 33.8907 122.061 33.8907 122.555C33.8907 123.04 33.9903 123.469 34.1897 123.842C34.3977 124.206 34.675 124.488 35.0217 124.687C35.377 124.886 35.7713 124.986 36.2047 124.986ZM44.585 126.078C43.8483 126.078 43.1983 125.926 42.635 125.623C42.0803 125.32 41.647 124.904 41.335 124.375C41.0317 123.846 40.88 123.24 40.88 122.555C40.88 121.87 41.0273 121.264 41.322 120.735C41.6253 120.206 42.037 119.795 42.557 119.5C43.0857 119.197 43.6793 119.045 44.338 119.045C45.0053 119.045 45.5947 119.192 46.106 119.487C46.6173 119.782 47.016 120.198 47.302 120.735C47.5967 121.264 47.744 121.883 47.744 122.594C47.744 122.646 47.7397 122.707 47.731 122.776C47.731 122.845 47.7267 122.91 47.718 122.971H41.855V122.074H47.068L46.561 122.386C46.5697 121.944 46.4787 121.55 46.288 121.203C46.0973 120.856 45.833 120.588 45.495 120.397C45.1657 120.198 44.78 120.098 44.338 120.098C43.9047 120.098 43.519 120.198 43.181 120.397C42.843 120.588 42.5787 120.861 42.388 121.216C42.1973 121.563 42.102 121.961 42.102 122.412V122.62C42.102 123.079 42.206 123.491 42.414 123.855C42.6307 124.21 42.9297 124.488 43.311 124.687C43.6923 124.886 44.13 124.986 44.624 124.986C45.0313 124.986 45.3997 124.917 45.729 124.778C46.067 124.639 46.3617 124.431 46.613 124.154L47.302 124.96C46.99 125.324 46.6 125.601 46.132 125.792C45.6727 125.983 45.157 126.078 44.585 126.078ZM49.4769 126V116.354H50.7249V126H49.4769ZM56.0068 126.078C55.4175 126.078 54.8975 125.97 54.4468 125.753C54.0048 125.536 53.6581 125.207 53.4068 124.765C53.1641 124.314 53.0428 123.751 53.0428 123.075V119.11H54.2908V122.932C54.2908 123.608 54.4511 124.115 54.7718 124.453C55.1011 124.791 55.5605 124.96 56.1498 124.96C56.5831 124.96 56.9601 124.873 57.2808 124.7C57.6015 124.518 57.8485 124.258 58.0218 123.92C58.1951 123.573 58.2818 123.157 58.2818 122.672V119.11H59.5298V126H58.3468V124.141L58.5418 124.635C58.3165 125.094 57.9785 125.45 57.5278 125.701C57.0771 125.952 56.5701 126.078 56.0068 126.078ZM70.5247 119.045C71.0793 119.045 71.569 119.153 71.9937 119.37C72.4183 119.587 72.7477 119.916 72.9817 120.358C73.2243 120.8 73.3457 121.359 73.3457 122.035V126H72.0977V122.178C72.0977 121.511 71.9417 121.008 71.6297 120.67C71.3177 120.332 70.88 120.163 70.3167 120.163C69.9007 120.163 69.5367 120.25 69.2247 120.423C68.9127 120.596 68.67 120.852 68.4967 121.19C68.332 121.528 68.2497 121.948 68.2497 122.451V126H67.0017V122.178C67.0017 121.511 66.8457 121.008 66.5337 120.67C66.2303 120.332 65.7927 120.163 65.2207 120.163C64.8133 120.163 64.4537 120.25 64.1417 120.423C63.8297 120.596 63.587 120.852 63.4137 121.19C63.2403 121.528 63.1537 121.948 63.1537 122.451V126H61.9057V119.11H63.1017V120.943L62.9067 120.475C63.1233 120.024 63.457 119.673 63.9077 119.422C64.3583 119.171 64.8827 119.045 65.4807 119.045C66.1393 119.045 66.707 119.21 67.1837 119.539C67.6603 119.86 67.9723 120.349 68.1197 121.008L67.6127 120.8C67.8207 120.271 68.1847 119.847 68.7047 119.526C69.2247 119.205 69.8313 119.045 70.5247 119.045ZM82.7862 126.078C82.1969 126.078 81.6639 125.948 81.1872 125.688C80.7192 125.419 80.3465 125.025 80.0692 124.505C79.8005 123.985 79.6662 123.335 79.6662 122.555C79.6662 121.775 79.8049 121.125 80.0822 120.605C80.3682 120.085 80.7452 119.695 81.2132 119.435C81.6899 119.175 82.2142 119.045 82.7862 119.045C83.4622 119.045 84.0602 119.192 84.5802 119.487C85.1002 119.782 85.5119 120.193 85.8152 120.722C86.1185 121.242 86.2702 121.853 86.2702 122.555C86.2702 123.257 86.1185 123.872 85.8152 124.401C85.5119 124.93 85.1002 125.341 84.5802 125.636C84.0602 125.931 83.4622 126.078 82.7862 126.078ZM79.1332 126V116.354H80.3812V120.943L80.2512 122.542L80.3292 124.141V126H79.1332ZM82.6822 124.986C83.1242 124.986 83.5185 124.886 83.8652 124.687C84.2205 124.488 84.4979 124.206 84.6972 123.842C84.9052 123.469 85.0092 123.04 85.0092 122.555C85.0092 122.061 84.9052 121.636 84.6972 121.281C84.4979 120.917 84.2205 120.635 83.8652 120.436C83.5185 120.237 83.1242 120.137 82.6822 120.137C82.2489 120.137 81.8545 120.237 81.4992 120.436C81.1525 120.635 80.8752 120.917 80.6672 121.281C80.4679 121.636 80.3682 122.061 80.3682 122.555C80.3682 123.04 80.4679 123.469 80.6672 123.842C80.8752 124.206 81.1525 124.488 81.4992 124.687C81.8545 124.886 82.2489 124.986 82.6822 124.986ZM92.208 126V124.544L92.143 124.271V121.788C92.143 121.259 91.987 120.852 91.675 120.566C91.3717 120.271 90.9124 120.124 90.297 120.124C89.8897 120.124 89.491 120.193 89.101 120.332C88.711 120.462 88.3817 120.64 88.113 120.865L87.593 119.929C87.9484 119.643 88.373 119.426 88.867 119.279C89.3697 119.123 89.894 119.045 90.44 119.045C91.3847 119.045 92.1127 119.275 92.624 119.734C93.1354 120.193 93.391 120.895 93.391 121.84V126H92.208ZM89.946 126.078C89.4347 126.078 88.984 125.991 88.594 125.818C88.2127 125.645 87.918 125.406 87.71 125.103C87.502 124.791 87.398 124.44 87.398 124.05C87.398 123.677 87.4847 123.339 87.658 123.036C87.84 122.733 88.1304 122.49 88.529 122.308C88.9364 122.126 89.4824 122.035 90.167 122.035H92.351V122.932H90.219C89.595 122.932 89.1747 123.036 88.958 123.244C88.7414 123.452 88.633 123.703 88.633 123.998C88.633 124.336 88.7674 124.609 89.036 124.817C89.3047 125.016 89.6774 125.116 90.154 125.116C90.622 125.116 91.0294 125.012 91.376 124.804C91.7314 124.596 91.987 124.293 92.143 123.894L92.39 124.752C92.2254 125.159 91.935 125.484 91.519 125.727C91.103 125.961 90.5787 126.078 89.946 126.078ZM99.3796 119.045C99.9429 119.045 100.437 119.153 100.862 119.37C101.295 119.587 101.633 119.916 101.876 120.358C102.118 120.8 102.24 121.359 102.24 122.035V126H100.992V122.178C100.992 121.511 100.827 121.008 100.498 120.67C100.177 120.332 99.7219 120.163 99.1326 120.163C98.6906 120.163 98.3049 120.25 97.9756 120.423C97.6462 120.596 97.3906 120.852 97.2086 121.19C97.0352 121.528 96.9486 121.948 96.9486 122.451V126H95.7006V119.11H96.8966V120.969L96.7016 120.475C96.9269 120.024 97.2736 119.673 97.7416 119.422C98.2096 119.171 98.7556 119.045 99.3796 119.045ZM106.915 126.078C106.222 126.078 105.685 125.892 105.303 125.519C104.922 125.146 104.731 124.613 104.731 123.92V117.602H105.979V123.868C105.979 124.241 106.07 124.527 106.252 124.726C106.443 124.925 106.712 125.025 107.058 125.025C107.448 125.025 107.773 124.917 108.033 124.7L108.423 125.597C108.233 125.762 108.003 125.883 107.734 125.961C107.474 126.039 107.201 126.078 106.915 126.078ZM103.561 120.137V119.11H107.955V120.137H103.561ZM112.831 126.078C112.242 126.078 111.722 125.97 111.271 125.753C110.829 125.536 110.482 125.207 110.231 124.765C109.988 124.314 109.867 123.751 109.867 123.075V119.11H111.115V122.932C111.115 123.608 111.275 124.115 111.596 124.453C111.925 124.791 112.385 124.96 112.974 124.96C113.407 124.96 113.784 124.873 114.105 124.7C114.426 124.518 114.673 124.258 114.846 123.92C115.019 123.573 115.106 123.157 115.106 122.672V119.11H116.354V126H115.171V124.141L115.366 124.635C115.141 125.094 114.803 125.45 114.352 125.701C113.901 125.952 113.394 126.078 112.831 126.078ZM123.007 126V124.544L122.942 124.271V121.788C122.942 121.259 122.786 120.852 122.474 120.566C122.171 120.271 121.711 120.124 121.096 120.124C120.689 120.124 120.29 120.193 119.9 120.332C119.51 120.462 119.181 120.64 118.912 120.865L118.392 119.929C118.747 119.643 119.172 119.426 119.666 119.279C120.169 119.123 120.693 119.045 121.239 119.045C122.184 119.045 122.912 119.275 123.423 119.734C123.934 120.193 124.19 120.895 124.19 121.84V126H123.007ZM120.745 126.078C120.234 126.078 119.783 125.991 119.393 125.818C119.012 125.645 118.717 125.406 118.509 125.103C118.301 124.791 118.197 124.44 118.197 124.05C118.197 123.677 118.284 123.339 118.457 123.036C118.639 122.733 118.929 122.49 119.328 122.308C119.735 122.126 120.281 122.035 120.966 122.035H123.15V122.932H121.018C120.394 122.932 119.974 123.036 119.757 123.244C119.54 123.452 119.432 123.703 119.432 123.998C119.432 124.336 119.566 124.609 119.835 124.817C120.104 125.016 120.476 125.116 120.953 125.116C121.421 125.116 121.828 125.012 122.175 124.804C122.53 124.596 122.786 124.293 122.942 123.894L123.189 124.752C123.024 125.159 122.734 125.484 122.318 125.727C121.902 125.961 121.378 126.078 120.745 126.078ZM130.178 119.045C130.742 119.045 131.236 119.153 131.66 119.37C132.094 119.587 132.432 119.916 132.674 120.358C132.917 120.8 133.038 121.359 133.038 122.035V126H131.79V122.178C131.79 121.511 131.626 121.008 131.296 120.67C130.976 120.332 130.521 120.163 129.931 120.163C129.489 120.163 129.104 120.25 128.774 120.423C128.445 120.596 128.189 120.852 128.007 121.19C127.834 121.528 127.747 121.948 127.747 122.451V126H126.499V119.11H127.695V120.969L127.5 120.475C127.726 120.024 128.072 119.673 128.54 119.422C129.008 119.171 129.554 119.045 130.178 119.045ZM141.205 126.078C140.512 126.078 139.975 125.892 139.593 125.519C139.212 125.146 139.021 124.613 139.021 123.92V117.602H140.269V123.868C140.269 124.241 140.36 124.527 140.542 124.726C140.733 124.925 141.002 125.025 141.348 125.025C141.738 125.025 142.063 124.917 142.323 124.7L142.713 125.597C142.523 125.762 142.293 125.883 142.024 125.961C141.764 126.039 141.491 126.078 141.205 126.078ZM137.851 120.137V119.11H142.245V120.137H137.851ZM144.222 126V119.11H145.47V126H144.222ZM144.846 117.784C144.603 117.784 144.4 117.706 144.235 117.55C144.079 117.394 144.001 117.203 144.001 116.978C144.001 116.744 144.079 116.549 144.235 116.393C144.4 116.237 144.603 116.159 144.846 116.159C145.089 116.159 145.288 116.237 145.444 116.393C145.609 116.54 145.691 116.727 145.691 116.952C145.691 117.186 145.613 117.385 145.457 117.55C145.301 117.706 145.097 117.784 144.846 117.784ZM151.506 126.078C150.917 126.078 150.384 125.948 149.907 125.688C149.439 125.419 149.066 125.025 148.789 124.505C148.52 123.985 148.386 123.335 148.386 122.555C148.386 121.775 148.525 121.125 148.802 120.605C149.088 120.085 149.465 119.695 149.933 119.435C150.41 119.175 150.934 119.045 151.506 119.045C152.182 119.045 152.78 119.192 153.3 119.487C153.82 119.782 154.232 120.193 154.535 120.722C154.838 121.242 154.99 121.853 154.99 122.555C154.99 123.257 154.838 123.872 154.535 124.401C154.232 124.93 153.82 125.341 153.3 125.636C152.78 125.931 152.182 126.078 151.506 126.078ZM147.853 126V116.354H149.101V120.943L148.971 122.542L149.049 124.141V126H147.853ZM151.402 124.986C151.844 124.986 152.238 124.886 152.585 124.687C152.94 124.488 153.218 124.206 153.417 123.842C153.625 123.469 153.729 123.04 153.729 122.555C153.729 122.061 153.625 121.636 153.417 121.281C153.218 120.917 152.94 120.635 152.585 120.436C152.238 120.237 151.844 120.137 151.402 120.137C150.969 120.137 150.574 120.237 150.219 120.436C149.872 120.635 149.595 120.917 149.387 121.281C149.188 121.636 149.088 122.061 149.088 122.555C149.088 123.04 149.188 123.469 149.387 123.842C149.595 124.206 149.872 124.488 150.219 124.687C150.574 124.886 150.969 124.986 151.402 124.986ZM160.928 126V124.544L160.863 124.271V121.788C160.863 121.259 160.707 120.852 160.395 120.566C160.091 120.271 159.632 120.124 159.017 120.124C158.609 120.124 158.211 120.193 157.821 120.332C157.431 120.462 157.101 120.64 156.833 120.865L156.313 119.929C156.668 119.643 157.093 119.426 157.587 119.279C158.089 119.123 158.614 119.045 159.16 119.045C160.104 119.045 160.832 119.275 161.344 119.734C161.855 120.193 162.111 120.895 162.111 121.84V126H160.928ZM158.666 126.078C158.154 126.078 157.704 125.991 157.314 125.818C156.932 125.645 156.638 125.406 156.43 125.103C156.222 124.791 156.118 124.44 156.118 124.05C156.118 123.677 156.204 123.339 156.378 123.036C156.56 122.733 156.85 122.49 157.249 122.308C157.656 122.126 158.202 122.035 158.887 122.035H161.071V122.932H158.939C158.315 122.932 157.894 123.036 157.678 123.244C157.461 123.452 157.353 123.703 157.353 123.998C157.353 124.336 157.487 124.609 157.756 124.817C158.024 125.016 158.397 125.116 158.874 125.116C159.342 125.116 159.749 125.012 160.096 124.804C160.451 124.596 160.707 124.293 160.863 123.894L161.11 124.752C160.945 125.159 160.655 125.484 160.239 125.727C159.823 125.961 159.298 126.078 158.666 126.078ZM170.759 126.078C170.091 126.078 169.493 125.931 168.965 125.636C168.445 125.341 168.033 124.93 167.73 124.401C167.426 123.872 167.275 123.257 167.275 122.555C167.275 121.853 167.426 121.242 167.73 120.722C168.033 120.193 168.445 119.782 168.965 119.487C169.493 119.192 170.091 119.045 170.759 119.045C171.339 119.045 171.864 119.175 172.332 119.435C172.8 119.695 173.172 120.085 173.45 120.605C173.736 121.125 173.879 121.775 173.879 122.555C173.879 123.335 173.74 123.985 173.463 124.505C173.194 125.025 172.826 125.419 172.358 125.688C171.89 125.948 171.357 126.078 170.759 126.078ZM170.863 124.986C171.296 124.986 171.686 124.886 172.033 124.687C172.388 124.488 172.665 124.206 172.865 123.842C173.073 123.469 173.177 123.04 173.177 122.555C173.177 122.061 173.073 121.636 172.865 121.281C172.665 120.917 172.388 120.635 172.033 120.436C171.686 120.237 171.296 120.137 170.863 120.137C170.421 120.137 170.026 120.237 169.68 120.436C169.333 120.635 169.056 120.917 168.848 121.281C168.64 121.636 168.536 122.061 168.536 122.555C168.536 123.04 168.64 123.469 168.848 123.842C169.056 124.206 169.333 124.488 169.68 124.687C170.026 124.886 170.421 124.986 170.863 124.986ZM173.216 126V124.141L173.294 122.542L173.164 120.943V116.354H174.412V126H173.216ZM176.773 126V119.11H178.021V126H176.773ZM177.397 117.784C177.154 117.784 176.951 117.706 176.786 117.55C176.63 117.394 176.552 117.203 176.552 116.978C176.552 116.744 176.63 116.549 176.786 116.393C176.951 116.237 177.154 116.159 177.397 116.159C177.64 116.159 177.839 116.237 177.995 116.393C178.16 116.54 178.242 116.727 178.242 116.952C178.242 117.186 178.164 117.385 178.008 117.55C177.852 117.706 177.648 117.784 177.397 117.784ZM183.895 126V116.354H185.143V126H183.895ZM190.477 126.078C189.783 126.078 189.168 125.926 188.631 125.623C188.093 125.32 187.669 124.904 187.357 124.375C187.045 123.838 186.889 123.231 186.889 122.555C186.889 121.87 187.045 121.264 187.357 120.735C187.669 120.206 188.093 119.795 188.631 119.5C189.168 119.197 189.783 119.045 190.477 119.045C191.161 119.045 191.772 119.197 192.31 119.5C192.856 119.795 193.28 120.206 193.584 120.735C193.896 121.255 194.052 121.862 194.052 122.555C194.052 123.24 193.896 123.846 193.584 124.375C193.28 124.904 192.856 125.32 192.31 125.623C191.772 125.926 191.161 126.078 190.477 126.078ZM190.477 124.986C190.919 124.986 191.313 124.886 191.66 124.687C192.015 124.488 192.292 124.206 192.492 123.842C192.691 123.469 192.791 123.04 192.791 122.555C192.791 122.061 192.691 121.636 192.492 121.281C192.292 120.917 192.015 120.635 191.66 120.436C191.313 120.237 190.919 120.137 190.477 120.137C190.035 120.137 189.64 120.237 189.294 120.436C188.947 120.635 188.67 120.917 188.462 121.281C188.254 121.636 188.15 122.061 188.15 122.555C188.15 123.04 188.254 123.469 188.462 123.842C188.67 124.206 188.947 124.488 189.294 124.687C189.64 124.886 190.035 124.986 190.477 124.986ZM196.792 124.336L196.818 122.737L200.783 119.11H202.291L199.249 122.1L198.573 122.672L196.792 124.336ZM195.778 126V116.354H197.026V126H195.778ZM201.043 126L198.339 122.646L199.145 121.645L202.577 126H201.043ZM207.939 126V124.544L207.874 124.271V121.788C207.874 121.259 207.718 120.852 207.406 120.566C207.102 120.271 206.643 120.124 206.028 120.124C205.62 120.124 205.222 120.193 204.832 120.332C204.442 120.462 204.112 120.64 203.844 120.865L203.324 119.929C203.679 119.643 204.104 119.426 204.598 119.279C205.1 119.123 205.625 119.045 206.171 119.045C207.115 119.045 207.843 119.275 208.355 119.734C208.866 120.193 209.122 120.895 209.122 121.84V126H207.939ZM205.677 126.078C205.165 126.078 204.715 125.991 204.325 125.818C203.943 125.645 203.649 125.406 203.441 125.103C203.233 124.791 203.129 124.44 203.129 124.05C203.129 123.677 203.215 123.339 203.389 123.036C203.571 122.733 203.861 122.49 204.26 122.308C204.667 122.126 205.213 122.035 205.898 122.035H208.082V122.932H205.95C205.326 122.932 204.905 123.036 204.689 123.244C204.472 123.452 204.364 123.703 204.364 123.998C204.364 124.336 204.498 124.609 204.767 124.817C205.035 125.016 205.408 125.116 205.885 125.116C206.353 125.116 206.76 125.012 207.107 124.804C207.462 124.596 207.718 124.293 207.874 123.894L208.121 124.752C207.956 125.159 207.666 125.484 207.25 125.727C206.834 125.961 206.309 126.078 205.677 126.078ZM213.407 126.078C212.835 126.078 212.289 126 211.769 125.844C211.258 125.688 210.855 125.497 210.56 125.272L211.08 124.284C211.375 124.483 211.739 124.652 212.172 124.791C212.605 124.93 213.047 124.999 213.498 124.999C214.079 124.999 214.495 124.917 214.746 124.752C215.006 124.587 215.136 124.358 215.136 124.063C215.136 123.846 215.058 123.677 214.902 123.556C214.746 123.435 214.538 123.344 214.278 123.283C214.027 123.222 213.745 123.17 213.433 123.127C213.121 123.075 212.809 123.014 212.497 122.945C212.185 122.867 211.899 122.763 211.639 122.633C211.379 122.494 211.171 122.308 211.015 122.074C210.859 121.831 210.781 121.511 210.781 121.112C210.781 120.696 210.898 120.332 211.132 120.02C211.366 119.708 211.695 119.47 212.12 119.305C212.553 119.132 213.065 119.045 213.654 119.045C214.105 119.045 214.56 119.101 215.019 119.214C215.487 119.318 215.868 119.47 216.163 119.669L215.63 120.657C215.318 120.449 214.993 120.306 214.655 120.228C214.317 120.15 213.979 120.111 213.641 120.111C213.095 120.111 212.688 120.202 212.419 120.384C212.15 120.557 212.016 120.783 212.016 121.06C212.016 121.294 212.094 121.476 212.25 121.606C212.415 121.727 212.623 121.823 212.874 121.892C213.134 121.961 213.42 122.022 213.732 122.074C214.044 122.117 214.356 122.178 214.668 122.256C214.98 122.325 215.262 122.425 215.513 122.555C215.773 122.685 215.981 122.867 216.137 123.101C216.302 123.335 216.384 123.647 216.384 124.037C216.384 124.453 216.263 124.813 216.02 125.116C215.777 125.419 215.435 125.658 214.993 125.831C214.551 125.996 214.022 126.078 213.407 126.078ZM217.944 126V119.11H219.192V126H217.944ZM218.568 117.784C218.325 117.784 218.121 117.706 217.957 117.55C217.801 117.394 217.723 117.203 217.723 116.978C217.723 116.744 217.801 116.549 217.957 116.393C218.121 116.237 218.325 116.159 218.568 116.159C218.81 116.159 219.01 116.237 219.166 116.393C219.33 116.54 219.413 116.727 219.413 116.952C219.413 117.186 219.335 117.385 219.179 117.55C219.023 117.706 218.819 117.784 218.568 117.784ZM221.874 126.078C221.631 126.078 221.423 125.996 221.25 125.831C221.076 125.658 220.99 125.441 220.99 125.181C220.99 124.921 221.076 124.709 221.25 124.544C221.423 124.379 221.631 124.297 221.874 124.297C222.108 124.297 222.307 124.379 222.472 124.544C222.645 124.709 222.732 124.921 222.732 125.181C222.732 125.441 222.645 125.658 222.472 125.831C222.307 125.996 222.108 126.078 221.874 126.078Z" fill="white" fill-opacity="0.8"/>
<circle cx="37" cy="36" r="20" fill="white" fill-opacity="0.1"/>
<path d="M44.965 32.521C44.988 32.347 45 32.173 45 32C45 29.621 42.857 27.712 40.479 28.035C39.786 26.802 38.466 26 37 26C35.534 26 34.214 26.802 33.521 28.035C31.138 27.712 29 29.621 29 32C29 32.173 29.012 32.347 29.035 32.521C27.802 33.215 27 34.535 27 36C27 37.465 27.802 38.785 29.035 39.479C29.0119 39.6517 29.0002 39.8258 29 40C29 42.379 31.138 44.283 33.521 43.965C34.214 45.198 35.534 46 37 46C38.466 46 39.786 45.198 40.479 43.965C42.857 44.283 45 42.379 45 40C45 39.827 44.988 39.653 44.965 39.479C46.198 38.785 47 37.465 47 36C47 34.535 46.198 33.215 44.965 32.521ZM35.955 40.416L32.288 36.702L33.712 35.298L35.969 37.584L40.296 33.29L41.704 34.71L35.955 40.416Z" fill="white" fill-opacity="0.5"/>
</svg>
