<svg width="300" height="160" viewBox="0 0 300 160" fill="none" xmlns="http://www.w3.org/2000/svg">
<rect width="300" height="160" rx="10" fill="#0C0E12"/>
<rect x="1" y="1" width="298" height="158" rx="9" stroke="white" stroke-opacity="0.07" stroke-width="2"/>
<path d="M73.88 43V29H76.02L84.8 39.78H83.74V29H86.32V43H84.18L75.4 32.22H76.46V43H73.88ZM94.6314 43.14C93.5381 43.14 92.5647 42.9067 91.7114 42.44C90.8581 41.96 90.1847 41.3067 89.6914 40.48C89.1981 39.6533 88.9514 38.7133 88.9514 37.66C88.9514 36.5933 89.1981 35.6533 89.6914 34.84C90.1847 34.0133 90.8581 33.3667 91.7114 32.9C92.5647 32.4333 93.5381 32.2 94.6314 32.2C95.7381 32.2 96.7181 32.4333 97.5714 32.9C98.4381 33.3667 99.1114 34.0067 99.5914 34.82C100.085 35.6333 100.331 36.58 100.331 37.66C100.331 38.7133 100.085 39.6533 99.5914 40.48C99.1114 41.3067 98.4381 41.96 97.5714 42.44C96.7181 42.9067 95.7381 43.14 94.6314 43.14ZM94.6314 41C95.2447 41 95.7914 40.8667 96.2714 40.6C96.7514 40.3333 97.1247 39.9467 97.3914 39.44C97.6714 38.9333 97.8114 38.34 97.8114 37.66C97.8114 36.9667 97.6714 36.3733 97.3914 35.88C97.1247 35.3733 96.7514 34.9867 96.2714 34.72C95.7914 34.4533 95.2514 34.32 94.6514 34.32C94.0381 34.32 93.4914 34.4533 93.0114 34.72C92.5447 34.9867 92.1714 35.3733 91.8914 35.88C91.6114 36.3733 91.4714 36.9667 91.4714 37.66C91.4714 38.34 91.6114 38.9333 91.8914 39.44C92.1714 39.9467 92.5447 40.3333 93.0114 40.6C93.4914 40.8667 94.0314 41 94.6314 41ZM106.742 43.14C105.569 43.14 104.662 42.84 104.022 42.24C103.382 41.6267 103.062 40.7267 103.062 39.54V29.96H105.562V39.48C105.562 39.9867 105.689 40.38 105.942 40.66C106.209 40.94 106.575 41.08 107.042 41.08C107.602 41.08 108.069 40.9333 108.442 40.64L109.142 42.42C108.849 42.66 108.489 42.84 108.062 42.96C107.635 43.08 107.195 43.14 106.742 43.14ZM101.302 34.4V32.4H108.422V34.4H101.302ZM111.199 43V32.32H113.699V43H111.199ZM112.459 30.56C111.992 30.56 111.605 30.4133 111.299 30.12C111.005 29.8267 110.859 29.4733 110.859 29.06C110.859 28.6333 111.005 28.28 111.299 28C111.605 27.7067 111.992 27.56 112.459 27.56C112.925 27.56 113.305 27.7 113.599 27.98C113.905 28.2467 114.059 28.5867 114.059 29C114.059 29.44 113.912 29.8133 113.619 30.12C113.325 30.4133 112.939 30.56 112.459 30.56ZM117.32 43V31.72C117.32 30.6 117.647 29.7067 118.3 29.04C118.967 28.36 119.913 28.02 121.14 28.02C121.58 28.02 121.993 28.0667 122.38 28.16C122.78 28.2533 123.113 28.4 123.38 28.6L122.7 30.48C122.513 30.3333 122.3 30.2267 122.06 30.16C121.82 30.08 121.573 30.04 121.32 30.04C120.8 30.04 120.407 30.1867 120.14 30.48C119.873 30.76 119.74 31.1867 119.74 31.76V32.96L119.82 34.08V43H117.32ZM115.56 34.4V32.4H122.68V34.4H115.56ZM124.44 43V32.32H126.94V43H124.44ZM125.7 30.56C125.233 30.56 124.847 30.4133 124.54 30.12C124.247 29.8267 124.1 29.4733 124.1 29.06C124.1 28.6333 124.247 28.28 124.54 28C124.847 27.7067 125.233 27.56 125.7 27.56C126.167 27.56 126.547 27.7 126.84 27.98C127.147 28.2467 127.3 28.5867 127.3 29C127.3 29.44 127.153 29.8133 126.86 30.12C126.567 30.4133 126.18 30.56 125.7 30.56ZM132.262 40.62L132.322 37.48L137.902 32.32H140.902L136.162 37.08L134.842 38.18L132.262 40.62ZM130.222 43V28.16H132.722V43H130.222ZM138.282 43L134.382 38.18L135.962 36.18L141.322 43H138.282ZM149.322 43V40.84L149.182 40.38V36.6C149.182 35.8667 148.962 35.3 148.522 34.9C148.082 34.4867 147.415 34.28 146.522 34.28C145.922 34.28 145.328 34.3733 144.742 34.56C144.168 34.7467 143.682 35.0067 143.282 35.34L142.302 33.52C142.875 33.08 143.555 32.7533 144.342 32.54C145.142 32.3133 145.968 32.2 146.822 32.2C148.368 32.2 149.562 32.5733 150.402 33.32C151.255 34.0533 151.682 35.1933 151.682 36.74V43H149.322ZM145.962 43.14C145.162 43.14 144.462 43.0067 143.862 42.74C143.262 42.46 142.795 42.08 142.462 41.6C142.142 41.1067 141.982 40.5533 141.982 39.94C141.982 39.34 142.122 38.8 142.402 38.32C142.695 37.84 143.168 37.46 143.822 37.18C144.475 36.9 145.342 36.76 146.422 36.76H149.522V38.42H146.602C145.748 38.42 145.175 38.56 144.882 38.84C144.588 39.1067 144.442 39.44 144.442 39.84C144.442 40.2933 144.622 40.6533 144.982 40.92C145.342 41.1867 145.842 41.32 146.482 41.32C147.095 41.32 147.642 41.18 148.122 40.9C148.615 40.62 148.968 40.2067 149.182 39.66L149.602 41.16C149.362 41.7867 148.928 42.2733 148.302 42.62C147.688 42.9667 146.908 43.14 145.962 43.14ZM158.19 43.14C157.297 43.14 156.437 43.0267 155.61 42.8C154.797 42.56 154.15 42.2733 153.67 41.94L154.63 40.04C155.11 40.3467 155.683 40.6 156.35 40.8C157.017 41 157.683 41.1 158.35 41.1C159.137 41.1 159.703 40.9933 160.05 40.78C160.41 40.5667 160.59 40.28 160.59 39.92C160.59 39.6267 160.47 39.4067 160.23 39.26C159.99 39.1 159.677 38.98 159.29 38.9C158.903 38.82 158.47 38.7467 157.99 38.68C157.523 38.6133 157.05 38.5267 156.57 38.42C156.103 38.3 155.677 38.1333 155.29 37.92C154.903 37.6933 154.59 37.3933 154.35 37.02C154.11 36.6467 153.99 36.1533 153.99 35.54C153.99 34.86 154.183 34.2733 154.57 33.78C154.957 33.2733 155.497 32.8867 156.19 32.62C156.897 32.34 157.73 32.2 158.69 32.2C159.41 32.2 160.137 32.28 160.87 32.44C161.603 32.6 162.21 32.8267 162.69 33.12L161.73 35.02C161.223 34.7133 160.71 34.5067 160.19 34.4C159.683 34.28 159.177 34.22 158.67 34.22C157.91 34.22 157.343 34.3333 156.97 34.56C156.61 34.7867 156.43 35.0733 156.43 35.42C156.43 35.74 156.55 35.98 156.79 36.14C157.03 36.3 157.343 36.4267 157.73 36.52C158.117 36.6133 158.543 36.6933 159.01 36.76C159.49 36.8133 159.963 36.9 160.43 37.02C160.897 37.14 161.323 37.3067 161.71 37.52C162.11 37.72 162.43 38.0067 162.67 38.38C162.91 38.7533 163.03 39.24 163.03 39.84C163.03 40.5067 162.83 41.0867 162.43 41.58C162.043 42.0733 161.49 42.46 160.77 42.74C160.05 43.0067 159.19 43.14 158.19 43.14ZM165.183 43V32.32H167.683V43H165.183ZM166.443 30.56C165.976 30.56 165.59 30.4133 165.283 30.12C164.99 29.8267 164.843 29.4733 164.843 29.06C164.843 28.6333 164.99 28.28 165.283 28C165.59 27.7067 165.976 27.56 166.443 27.56C166.91 27.56 167.29 27.7 167.583 27.98C167.89 28.2467 168.043 28.5867 168.043 29C168.043 29.44 167.896 29.8133 167.603 30.12C167.31 30.4133 166.923 30.56 166.443 30.56ZM176.732 43V29H182.492C183.732 29 184.792 29.2 185.672 29.6C186.565 30 187.252 30.5733 187.732 31.32C188.212 32.0667 188.452 32.9533 188.452 33.98C188.452 35.0067 188.212 35.8933 187.732 36.64C187.252 37.3733 186.565 37.94 185.672 38.34C184.792 38.7267 183.732 38.92 182.492 38.92H178.172L179.332 37.74V43H176.732ZM185.892 43L182.352 37.92H185.132L188.692 43H185.892ZM179.332 38.02L178.172 36.78H182.372C183.518 36.78 184.378 36.5333 184.952 36.04C185.538 35.5467 185.832 34.86 185.832 33.98C185.832 33.0867 185.538 32.4 184.952 31.92C184.378 31.44 183.518 31.2 182.372 31.2H178.172L179.332 29.92V38.02ZM196.14 43.14C194.954 43.14 193.914 42.9067 193.02 42.44C192.14 41.96 191.454 41.3067 190.96 40.48C190.48 39.6533 190.24 38.7133 190.24 37.66C190.24 36.5933 190.474 35.6533 190.94 34.84C191.42 34.0133 192.074 33.3667 192.9 32.9C193.74 32.4333 194.694 32.2 195.76 32.2C196.8 32.2 197.727 32.4267 198.54 32.88C199.354 33.3333 199.994 33.9733 200.46 34.8C200.927 35.6267 201.16 36.6 201.16 37.72C201.16 37.8267 201.154 37.9467 201.14 38.08C201.14 38.2133 201.134 38.34 201.12 38.46H192.22V36.8H199.8L198.82 37.32C198.834 36.7067 198.707 36.1667 198.44 35.7C198.174 35.2333 197.807 34.8667 197.34 34.6C196.887 34.3333 196.36 34.2 195.76 34.2C195.147 34.2 194.607 34.3333 194.14 34.6C193.687 34.8667 193.327 35.24 193.06 35.72C192.807 36.1867 192.68 36.74 192.68 37.38V37.78C192.68 38.42 192.827 38.9867 193.12 39.48C193.414 39.9733 193.827 40.3533 194.36 40.62C194.894 40.8867 195.507 41.02 196.2 41.02C196.8 41.02 197.34 40.9267 197.82 40.74C198.3 40.5533 198.727 40.26 199.1 39.86L200.44 41.4C199.96 41.96 199.354 42.3933 198.62 42.7C197.9 42.9933 197.074 43.14 196.14 43.14ZM209.849 43V40.84L209.709 40.38V36.6C209.709 35.8667 209.489 35.3 209.049 34.9C208.609 34.4867 207.942 34.28 207.049 34.28C206.449 34.28 205.856 34.3733 205.269 34.56C204.696 34.7467 204.209 35.0067 203.809 35.34L202.829 33.52C203.402 33.08 204.082 32.7533 204.869 32.54C205.669 32.3133 206.496 32.2 207.349 32.2C208.896 32.2 210.089 32.5733 210.929 33.32C211.782 34.0533 212.209 35.1933 212.209 36.74V43H209.849ZM206.489 43.14C205.689 43.14 204.989 43.0067 204.389 42.74C203.789 42.46 203.322 42.08 202.989 41.6C202.669 41.1067 202.509 40.5533 202.509 39.94C202.509 39.34 202.649 38.8 202.929 38.32C203.222 37.84 203.696 37.46 204.349 37.18C205.002 36.9 205.869 36.76 206.949 36.76H210.049V38.42H207.129C206.276 38.42 205.702 38.56 205.409 38.84C205.116 39.1067 204.969 39.44 204.969 39.84C204.969 40.2933 205.149 40.6533 205.509 40.92C205.869 41.1867 206.369 41.32 207.009 41.32C207.622 41.32 208.169 41.18 208.649 40.9C209.142 40.62 209.496 40.2067 209.709 39.66L210.129 41.16C209.889 41.7867 209.456 42.2733 208.829 42.62C208.216 42.9667 207.436 43.14 206.489 43.14ZM215.417 43V28.16H217.917V43H215.417ZM220.659 38.48V36.4H226.159V38.48H220.659ZM233.109 43.14C231.936 43.14 231.029 42.84 230.389 42.24C229.749 41.6267 229.429 40.7267 229.429 39.54V29.96H231.929V39.48C231.929 39.9867 232.056 40.38 232.309 40.66C232.576 40.94 232.943 41.08 233.409 41.08C233.969 41.08 234.436 40.9333 234.809 40.64L235.509 42.42C235.216 42.66 234.856 42.84 234.429 42.96C234.003 43.08 233.563 43.14 233.109 43.14ZM227.669 34.4V32.4H234.789V34.4H227.669ZM237.566 43V32.32H240.066V43H237.566ZM238.826 30.56C238.359 30.56 237.972 30.4133 237.666 30.12C237.372 29.8267 237.226 29.4733 237.226 29.06C237.226 28.6333 237.372 28.28 237.666 28C237.972 27.7067 238.359 27.56 238.826 27.56C239.292 27.56 239.672 27.7 239.966 27.98C240.272 28.2467 240.426 28.5867 240.426 29C240.426 29.44 240.279 29.8133 239.986 30.12C239.692 30.4133 239.306 30.56 238.826 30.56ZM256.827 32.2C257.68 32.2 258.434 32.3667 259.087 32.7C259.754 33.0333 260.274 33.5467 260.647 34.24C261.02 34.92 261.207 35.8 261.207 36.88V43H258.707V37.2C258.707 36.2533 258.5 35.5467 258.087 35.08C257.674 34.6133 257.08 34.38 256.307 34.38C255.76 34.38 255.274 34.5 254.847 34.74C254.434 34.98 254.107 35.3333 253.867 35.8C253.64 36.2667 253.527 36.86 253.527 37.58V43H251.027V37.2C251.027 36.2533 250.82 35.5467 250.407 35.08C249.994 34.6133 249.4 34.38 248.627 34.38C248.08 34.38 247.594 34.5 247.167 34.74C246.754 34.98 246.427 35.3333 246.187 35.8C245.96 36.2667 245.847 36.86 245.847 37.58V43H243.347V32.32H245.727V35.16L245.307 34.32C245.667 33.6267 246.187 33.1 246.867 32.74C247.56 32.38 248.347 32.2 249.227 32.2C250.227 32.2 251.094 32.4467 251.827 32.94C252.574 33.4333 253.067 34.18 253.307 35.18L252.327 34.84C252.674 34.04 253.247 33.4 254.047 32.92C254.847 32.44 255.774 32.2 256.827 32.2ZM269.441 43.14C268.255 43.14 267.215 42.9067 266.321 42.44C265.441 41.96 264.755 41.3067 264.261 40.48C263.781 39.6533 263.541 38.7133 263.541 37.66C263.541 36.5933 263.775 35.6533 264.241 34.84C264.721 34.0133 265.375 33.3667 266.201 32.9C267.041 32.4333 267.995 32.2 269.061 32.2C270.101 32.2 271.028 32.4267 271.841 32.88C272.655 33.3333 273.295 33.9733 273.761 34.8C274.228 35.6267 274.461 36.6 274.461 37.72C274.461 37.8267 274.455 37.9467 274.441 38.08C274.441 38.2133 274.435 38.34 274.421 38.46H265.521V36.8H273.101L272.121 37.32C272.135 36.7067 272.008 36.1667 271.741 35.7C271.475 35.2333 271.108 34.8667 270.641 34.6C270.188 34.3333 269.661 34.2 269.061 34.2C268.448 34.2 267.908 34.3333 267.441 34.6C266.988 34.8667 266.628 35.24 266.361 35.72C266.108 36.1867 265.981 36.74 265.981 37.38V37.78C265.981 38.42 266.128 38.9867 266.421 39.48C266.715 39.9733 267.128 40.3533 267.661 40.62C268.195 40.8867 268.808 41.02 269.501 41.02C270.101 41.02 270.641 40.9267 271.121 40.74C271.601 40.5533 272.028 40.26 272.401 39.86L273.741 41.4C273.261 41.96 272.655 42.3933 271.921 42.7C271.201 42.9933 270.375 43.14 269.441 43.14Z" fill="white"/>
<path d="M18.365 84V74.9H21.914C22.7113 74.9 23.3917 75.0257 23.955 75.277C24.5183 75.5283 24.9517 75.8923 25.255 76.369C25.5583 76.8457 25.71 77.4133 25.71 78.072C25.71 78.7307 25.5583 79.2983 25.255 79.775C24.9517 80.243 24.5183 80.607 23.955 80.867C23.3917 81.1183 22.7113 81.244 21.914 81.244H19.08L19.665 80.633V84H18.365ZM19.665 80.763L19.08 80.113H21.875C22.707 80.113 23.3353 79.9353 23.76 79.58C24.1933 79.2247 24.41 78.722 24.41 78.072C24.41 77.422 24.1933 76.9193 23.76 76.564C23.3353 76.2087 22.707 76.031 21.875 76.031H19.08L19.665 75.381V80.763ZM30.4805 84.078C29.7438 84.078 29.0938 83.9263 28.5305 83.623C27.9758 83.3197 27.5425 82.9037 27.2305 82.375C26.9272 81.8463 26.7755 81.2397 26.7755 80.555C26.7755 79.8703 26.9228 79.2637 27.2175 78.735C27.5208 78.2063 27.9325 77.7947 28.4525 77.5C28.9812 77.1967 29.5748 77.045 30.2335 77.045C30.9008 77.045 31.4902 77.1923 32.0015 77.487C32.5128 77.7817 32.9115 78.1977 33.1975 78.735C33.4922 79.2637 33.6395 79.8833 33.6395 80.594C33.6395 80.646 33.6352 80.7067 33.6265 80.776C33.6265 80.8453 33.6222 80.9103 33.6135 80.971H27.7505V80.074H32.9635L32.4565 80.386C32.4652 79.944 32.3742 79.5497 32.1835 79.203C31.9928 78.8563 31.7285 78.5877 31.3905 78.397C31.0612 78.1977 30.6755 78.098 30.2335 78.098C29.8002 78.098 29.4145 78.1977 29.0765 78.397C28.7385 78.5877 28.4742 78.8607 28.2835 79.216C28.0928 79.5627 27.9975 79.9613 27.9975 80.412V80.62C27.9975 81.0793 28.1015 81.491 28.3095 81.855C28.5262 82.2103 28.8252 82.4877 29.2065 82.687C29.5878 82.8863 30.0255 82.986 30.5195 82.986C30.9268 82.986 31.2952 82.9167 31.6245 82.778C31.9625 82.6393 32.2572 82.4313 32.5085 82.154L33.1975 82.96C32.8855 83.324 32.4955 83.6013 32.0275 83.792C31.5682 83.9827 31.0525 84.078 30.4805 84.078ZM39.0515 77.045C39.6148 77.045 40.1088 77.1533 40.5335 77.37C40.9668 77.5867 41.3048 77.916 41.5475 78.358C41.7901 78.8 41.9115 79.359 41.9115 80.035V84H40.6635V80.178C40.6635 79.5107 40.4988 79.008 40.1695 78.67C39.8488 78.332 39.3938 78.163 38.8045 78.163C38.3625 78.163 37.9768 78.2497 37.6475 78.423C37.3181 78.5963 37.0625 78.852 36.8805 79.19C36.7071 79.528 36.6205 79.9483 36.6205 80.451V84H35.3725V77.11H36.5685V78.969L36.3735 78.475C36.5988 78.0243 36.9455 77.6733 37.4135 77.422C37.8815 77.1707 38.4275 77.045 39.0515 77.045ZM47.2371 86.6C46.6044 86.6 45.9891 86.509 45.3911 86.327C44.8018 86.1537 44.3208 85.9023 43.9481 85.573L44.5461 84.611C44.8668 84.8883 45.2611 85.105 45.7291 85.261C46.1971 85.4257 46.6868 85.508 47.1981 85.508C48.0128 85.508 48.6108 85.3173 48.9921 84.936C49.3734 84.5547 49.5641 83.974 49.5641 83.194V81.738L49.6941 80.373L49.6291 78.995V77.11H50.8121V83.064C50.8121 84.2773 50.5088 85.17 49.9021 85.742C49.2954 86.314 48.4071 86.6 47.2371 86.6ZM47.0811 83.714C46.4138 83.714 45.8158 83.5753 45.2871 83.298C44.7671 83.012 44.3511 82.6177 44.0391 82.115C43.7358 81.6123 43.5841 81.0317 43.5841 80.373C43.5841 79.7057 43.7358 79.125 44.0391 78.631C44.3511 78.1283 44.7671 77.7383 45.2871 77.461C45.8158 77.1837 46.4138 77.045 47.0811 77.045C47.6704 77.045 48.2078 77.1663 48.6931 77.409C49.1784 77.643 49.5641 78.007 49.8501 78.501C50.1448 78.995 50.2921 79.619 50.2921 80.373C50.2921 81.1183 50.1448 81.738 49.8501 82.232C49.5641 82.726 49.1784 83.0987 48.6931 83.35C48.2078 83.5927 47.6704 83.714 47.0811 83.714ZM47.2241 82.622C47.6834 82.622 48.0908 82.5267 48.4461 82.336C48.8014 82.1453 49.0788 81.881 49.2781 81.543C49.4861 81.205 49.5901 80.815 49.5901 80.373C49.5901 79.931 49.4861 79.541 49.2781 79.203C49.0788 78.865 48.8014 78.605 48.4461 78.423C48.0908 78.2323 47.6834 78.137 47.2241 78.137C46.7648 78.137 46.3531 78.2323 45.9891 78.423C45.6338 78.605 45.3521 78.865 45.1441 79.203C44.9448 79.541 44.8451 79.931 44.8451 80.373C44.8451 80.815 44.9448 81.205 45.1441 81.543C45.3521 81.881 45.6338 82.1453 45.9891 82.336C46.3531 82.5267 46.7648 82.622 47.2241 82.622ZM56.2127 86.6C55.58 86.6 54.9647 86.509 54.3667 86.327C53.7773 86.1537 53.2963 85.9023 52.9237 85.573L53.5217 84.611C53.8423 84.8883 54.2367 85.105 54.7047 85.261C55.1727 85.4257 55.6623 85.508 56.1737 85.508C56.9883 85.508 57.5863 85.3173 57.9677 84.936C58.349 84.5547 58.5397 83.974 58.5397 83.194V81.738L58.6697 80.373L58.6047 78.995V77.11H59.7877V83.064C59.7877 84.2773 59.4843 85.17 58.8777 85.742C58.271 86.314 57.3827 86.6 56.2127 86.6ZM56.0567 83.714C55.3893 83.714 54.7913 83.5753 54.2627 83.298C53.7427 83.012 53.3267 82.6177 53.0147 82.115C52.7113 81.6123 52.5597 81.0317 52.5597 80.373C52.5597 79.7057 52.7113 79.125 53.0147 78.631C53.3267 78.1283 53.7427 77.7383 54.2627 77.461C54.7913 77.1837 55.3893 77.045 56.0567 77.045C56.646 77.045 57.1833 77.1663 57.6687 77.409C58.154 77.643 58.5397 78.007 58.8257 78.501C59.1203 78.995 59.2677 79.619 59.2677 80.373C59.2677 81.1183 59.1203 81.738 58.8257 82.232C58.5397 82.726 58.154 83.0987 57.6687 83.35C57.1833 83.5927 56.646 83.714 56.0567 83.714ZM56.1997 82.622C56.659 82.622 57.0663 82.5267 57.4217 82.336C57.777 82.1453 58.0543 81.881 58.2537 81.543C58.4617 81.205 58.5657 80.815 58.5657 80.373C58.5657 79.931 58.4617 79.541 58.2537 79.203C58.0543 78.865 57.777 78.605 57.4217 78.423C57.0663 78.2323 56.659 78.137 56.1997 78.137C55.7403 78.137 55.3287 78.2323 54.9647 78.423C54.6093 78.605 54.3277 78.865 54.1197 79.203C53.9203 79.541 53.8207 79.931 53.8207 80.373C53.8207 80.815 53.9203 81.205 54.1197 81.543C54.3277 81.881 54.6093 82.1453 54.9647 82.336C55.3287 82.5267 55.7403 82.622 56.1997 82.622ZM65.0713 84.078C64.4819 84.078 63.9619 83.9697 63.5113 83.753C63.0693 83.5363 62.7226 83.207 62.4713 82.765C62.2286 82.3143 62.1073 81.751 62.1073 81.075V77.11H63.3553V80.932C63.3553 81.608 63.5156 82.115 63.8363 82.453C64.1656 82.791 64.6249 82.96 65.2143 82.96C65.6476 82.96 66.0246 82.8733 66.3453 82.7C66.6659 82.518 66.9129 82.258 67.0863 81.92C67.2596 81.5733 67.3463 81.1573 67.3463 80.672V77.11H68.5943V84H67.4113V82.141L67.6063 82.635C67.3809 83.0943 67.0429 83.4497 66.5923 83.701C66.1416 83.9523 65.6346 84.078 65.0713 84.078ZM74.6491 77.045C75.2124 77.045 75.7064 77.1533 76.1311 77.37C76.5644 77.5867 76.9024 77.916 77.1451 78.358C77.3878 78.8 77.5091 79.359 77.5091 80.035V84H76.2611V80.178C76.2611 79.5107 76.0964 79.008 75.7671 78.67C75.4464 78.332 74.9914 78.163 74.4021 78.163C73.9601 78.163 73.5744 78.2497 73.2451 78.423C72.9158 78.5963 72.6601 78.852 72.4781 79.19C72.3048 79.528 72.2181 79.9483 72.2181 80.451V84H70.9701V77.11H72.1661V78.969L71.9711 78.475C72.1964 78.0243 72.5431 77.6733 73.0111 77.422C73.4791 77.1707 74.0251 77.045 74.6491 77.045ZM84.0957 84V82.544L84.0307 82.271V79.788C84.0307 79.2593 83.8747 78.852 83.5627 78.566C83.2594 78.2713 82.8001 78.124 82.1847 78.124C81.7774 78.124 81.3787 78.1933 80.9887 78.332C80.5987 78.462 80.2694 78.6397 80.0007 78.865L79.4807 77.929C79.8361 77.643 80.2607 77.4263 80.7547 77.279C81.2574 77.123 81.7817 77.045 82.3277 77.045C83.2724 77.045 84.0004 77.2747 84.5117 77.734C85.0231 78.1933 85.2787 78.8953 85.2787 79.84V84H84.0957ZM81.8337 84.078C81.3224 84.078 80.8717 83.9913 80.4817 83.818C80.1004 83.6447 79.8057 83.4063 79.5977 83.103C79.3897 82.791 79.2857 82.44 79.2857 82.05C79.2857 81.6773 79.3724 81.3393 79.5457 81.036C79.7277 80.7327 80.0181 80.49 80.4167 80.308C80.8241 80.126 81.3701 80.035 82.0547 80.035H84.2387V80.932H82.1067C81.4827 80.932 81.0624 81.036 80.8457 81.244C80.6291 81.452 80.5207 81.7033 80.5207 81.998C80.5207 82.336 80.6551 82.609 80.9237 82.817C81.1924 83.0163 81.5651 83.116 82.0417 83.116C82.5097 83.116 82.9171 83.012 83.2637 82.804C83.6191 82.596 83.8747 82.2927 84.0307 81.894L84.2777 82.752C84.1131 83.1593 83.8227 83.4843 83.4067 83.727C82.9907 83.961 82.4664 84.078 81.8337 84.078ZM95.3565 84V82.544L95.2915 82.271V79.788C95.2915 79.2593 95.1355 78.852 94.8235 78.566C94.5202 78.2713 94.0608 78.124 93.4455 78.124C93.0382 78.124 92.6395 78.1933 92.2495 78.332C91.8595 78.462 91.5302 78.6397 91.2615 78.865L90.7415 77.929C91.0968 77.643 91.5215 77.4263 92.0155 77.279C92.5182 77.123 93.0425 77.045 93.5885 77.045C94.5332 77.045 95.2612 77.2747 95.7725 77.734C96.2838 78.1933 96.5395 78.8953 96.5395 79.84V84H95.3565ZM93.0945 84.078C92.5832 84.078 92.1325 83.9913 91.7425 83.818C91.3612 83.6447 91.0665 83.4063 90.8585 83.103C90.6505 82.791 90.5465 82.44 90.5465 82.05C90.5465 81.6773 90.6332 81.3393 90.8065 81.036C90.9885 80.7327 91.2788 80.49 91.6775 80.308C92.0848 80.126 92.6308 80.035 93.3155 80.035H95.4995V80.932H93.3675C92.7435 80.932 92.3232 81.036 92.1065 81.244C91.8898 81.452 91.7815 81.7033 91.7815 81.998C91.7815 82.336 91.9158 82.609 92.1845 82.817C92.4532 83.0163 92.8258 83.116 93.3025 83.116C93.7705 83.116 94.1778 83.012 94.5245 82.804C94.8798 82.596 95.1355 82.2927 95.2915 81.894L95.5385 82.752C95.3738 83.1593 95.0835 83.4843 94.6675 83.727C94.2515 83.961 93.7272 84.078 93.0945 84.078ZM99.863 82.336L99.889 80.737L103.854 77.11H105.362L102.32 80.1L101.644 80.672L99.863 82.336ZM98.849 84V74.354H100.097V84H98.849ZM104.114 84L101.41 80.646L102.216 79.645L105.648 84H104.114ZM111.01 84V82.544L110.945 82.271V79.788C110.945 79.2593 110.789 78.852 110.477 78.566C110.173 78.2713 109.714 78.124 109.099 78.124C108.691 78.124 108.293 78.1933 107.903 78.332C107.513 78.462 107.183 78.6397 106.915 78.865L106.395 77.929C106.75 77.643 107.175 77.4263 107.669 77.279C108.171 77.123 108.696 77.045 109.242 77.045C110.186 77.045 110.914 77.2747 111.426 77.734C111.937 78.1933 112.193 78.8953 112.193 79.84V84H111.01ZM108.748 84.078C108.236 84.078 107.786 83.9913 107.396 83.818C107.014 83.6447 106.72 83.4063 106.512 83.103C106.304 82.791 106.2 82.44 106.2 82.05C106.2 81.6773 106.286 81.3393 106.46 81.036C106.642 80.7327 106.932 80.49 107.331 80.308C107.738 80.126 108.284 80.035 108.969 80.035H111.153V80.932H109.021C108.397 80.932 107.976 81.036 107.76 81.244C107.543 81.452 107.435 81.7033 107.435 81.998C107.435 82.336 107.569 82.609 107.838 82.817C108.106 83.0163 108.479 83.116 108.956 83.116C109.424 83.116 109.831 83.012 110.178 82.804C110.533 82.596 110.789 82.2927 110.945 81.894L111.192 82.752C111.027 83.1593 110.737 83.4843 110.321 83.727C109.905 83.961 109.38 84.078 108.748 84.078ZM118.181 77.045C118.745 77.045 119.239 77.1533 119.663 77.37C120.097 77.5867 120.435 77.916 120.677 78.358C120.92 78.8 121.041 79.359 121.041 80.035V84H119.793V80.178C119.793 79.5107 119.629 79.008 119.299 78.67C118.979 78.332 118.524 78.163 117.934 78.163C117.492 78.163 117.107 78.2497 116.777 78.423C116.448 78.5963 116.192 78.852 116.01 79.19C115.837 79.528 115.75 79.9483 115.75 80.451V84H114.502V77.11H115.698V78.969L115.503 78.475C115.729 78.0243 116.075 77.6733 116.543 77.422C117.011 77.1707 117.557 77.045 118.181 77.045ZM135.461 77.045C136.016 77.045 136.506 77.1533 136.93 77.37C137.355 77.5867 137.684 77.916 137.918 78.358C138.161 78.8 138.282 79.359 138.282 80.035V84H137.034V80.178C137.034 79.5107 136.878 79.008 136.566 78.67C136.254 78.332 135.817 78.163 135.253 78.163C134.837 78.163 134.473 78.2497 134.161 78.423C133.849 78.5963 133.607 78.852 133.433 79.19C133.269 79.528 133.186 79.9483 133.186 80.451V84H131.938V80.178C131.938 79.5107 131.782 79.008 131.47 78.67C131.167 78.332 130.729 78.163 130.157 78.163C129.75 78.163 129.39 78.2497 129.078 78.423C128.766 78.5963 128.524 78.852 128.35 79.19C128.177 79.528 128.09 79.9483 128.09 80.451V84H126.842V77.11H128.038V78.943L127.843 78.475C128.06 78.0243 128.394 77.6733 128.844 77.422C129.295 77.1707 129.819 77.045 130.417 77.045C131.076 77.045 131.644 77.2097 132.12 77.539C132.597 77.8597 132.909 78.3493 133.056 79.008L132.549 78.8C132.757 78.2713 133.121 77.8467 133.641 77.526C134.161 77.2053 134.768 77.045 135.461 77.045ZM143.647 84.078C142.91 84.078 142.26 83.9263 141.697 83.623C141.142 83.3197 140.709 82.9037 140.397 82.375C140.093 81.8463 139.942 81.2397 139.942 80.555C139.942 79.8703 140.089 79.2637 140.384 78.735C140.687 78.2063 141.099 77.7947 141.619 77.5C142.147 77.1967 142.741 77.045 143.4 77.045C144.067 77.045 144.656 77.1923 145.168 77.487C145.679 77.7817 146.078 78.1977 146.364 78.735C146.658 79.2637 146.806 79.8833 146.806 80.594C146.806 80.646 146.801 80.7067 146.793 80.776C146.793 80.8453 146.788 80.9103 146.78 80.971H140.917V80.074H146.13L145.623 80.386C145.631 79.944 145.54 79.5497 145.35 79.203C145.159 78.8563 144.895 78.5877 144.557 78.397C144.227 78.1977 143.842 78.098 143.4 78.098C142.966 78.098 142.581 78.1977 142.243 78.397C141.905 78.5877 141.64 78.8607 141.45 79.216C141.259 79.5627 141.164 79.9613 141.164 80.412V80.62C141.164 81.0793 141.268 81.491 141.476 81.855C141.692 82.2103 141.991 82.4877 142.373 82.687C142.754 82.8863 143.192 82.986 143.686 82.986C144.093 82.986 144.461 82.9167 144.791 82.778C145.129 82.6393 145.423 82.4313 145.675 82.154L146.364 82.96C146.052 83.324 145.662 83.6013 145.194 83.792C144.734 83.9827 144.219 84.078 143.647 84.078ZM152.217 77.045C152.781 77.045 153.275 77.1533 153.699 77.37C154.133 77.5867 154.471 77.916 154.713 78.358C154.956 78.8 155.077 79.359 155.077 80.035V84H153.829V80.178C153.829 79.5107 153.665 79.008 153.335 78.67C153.015 78.332 152.56 78.163 151.97 78.163C151.528 78.163 151.143 78.2497 150.813 78.423C150.484 78.5963 150.228 78.852 150.046 79.19C149.873 79.528 149.786 79.9483 149.786 80.451V84H148.538V77.11H149.734V78.969L149.539 78.475C149.765 78.0243 150.111 77.6733 150.579 77.422C151.047 77.1707 151.593 77.045 152.217 77.045ZM160.455 84.078C159.718 84.078 159.068 83.9263 158.505 83.623C157.95 83.3197 157.517 82.9037 157.205 82.375C156.902 81.8463 156.75 81.2397 156.75 80.555C156.75 79.8703 156.897 79.2637 157.192 78.735C157.495 78.2063 157.907 77.7947 158.427 77.5C158.956 77.1967 159.549 77.045 160.208 77.045C160.875 77.045 161.465 77.1923 161.976 77.487C162.487 77.7817 162.886 78.1977 163.172 78.735C163.467 79.2637 163.614 79.8833 163.614 80.594C163.614 80.646 163.61 80.7067 163.601 80.776C163.601 80.8453 163.597 80.9103 163.588 80.971H157.725V80.074H162.938L162.431 80.386C162.44 79.944 162.349 79.5497 162.158 79.203C161.967 78.8563 161.703 78.5877 161.365 78.397C161.036 78.1977 160.65 78.098 160.208 78.098C159.775 78.098 159.389 78.1977 159.051 78.397C158.713 78.5877 158.449 78.8607 158.258 79.216C158.067 79.5627 157.972 79.9613 157.972 80.412V80.62C157.972 81.0793 158.076 81.491 158.284 81.855C158.501 82.2103 158.8 82.4877 159.181 82.687C159.562 82.8863 160 82.986 160.494 82.986C160.901 82.986 161.27 82.9167 161.599 82.778C161.937 82.6393 162.232 82.4313 162.483 82.154L163.172 82.96C162.86 83.324 162.47 83.6013 162.002 83.792C161.543 83.9827 161.027 84.078 160.455 84.078ZM165.347 84V77.11H166.543V78.982L166.426 78.514C166.617 78.0373 166.937 77.6733 167.388 77.422C167.839 77.1707 168.393 77.045 169.052 77.045V78.254C169 78.2453 168.948 78.241 168.896 78.241C168.853 78.241 168.809 78.241 168.766 78.241C168.099 78.241 167.57 78.4403 167.18 78.839C166.79 79.2377 166.595 79.814 166.595 80.568V84H165.347ZM170.59 84V77.11H171.838V84H170.59ZM171.214 75.784C170.972 75.784 170.768 75.706 170.603 75.55C170.447 75.394 170.369 75.2033 170.369 74.978C170.369 74.744 170.447 74.549 170.603 74.393C170.768 74.237 170.972 74.159 171.214 74.159C171.457 74.159 171.656 74.237 171.812 74.393C171.977 74.5403 172.059 74.7267 172.059 74.952C172.059 75.186 171.981 75.3853 171.825 75.55C171.669 75.706 171.466 75.784 171.214 75.784ZM182.84 77.045C183.395 77.045 183.884 77.1533 184.309 77.37C184.734 77.5867 185.063 77.916 185.297 78.358C185.54 78.8 185.661 79.359 185.661 80.035V84H184.413V80.178C184.413 79.5107 184.257 79.008 183.945 78.67C183.633 78.332 183.195 78.163 182.632 78.163C182.216 78.163 181.852 78.2497 181.54 78.423C181.228 78.5963 180.985 78.852 180.812 79.19C180.647 79.528 180.565 79.9483 180.565 80.451V84H179.317V80.178C179.317 79.5107 179.161 79.008 178.849 78.67C178.546 78.332 178.108 78.163 177.536 78.163C177.129 78.163 176.769 78.2497 176.457 78.423C176.145 78.5963 175.902 78.852 175.729 79.19C175.556 79.528 175.469 79.9483 175.469 80.451V84H174.221V77.11H175.417V78.943L175.222 78.475C175.439 78.0243 175.772 77.6733 176.223 77.422C176.674 77.1707 177.198 77.045 177.796 77.045C178.455 77.045 179.022 77.2097 179.499 77.539C179.976 77.8597 180.288 78.3493 180.435 79.008L179.928 78.8C180.136 78.2713 180.5 77.8467 181.02 77.526C181.54 77.2053 182.147 77.045 182.84 77.045ZM192.234 84V82.544L192.169 82.271V79.788C192.169 79.2593 192.013 78.852 191.701 78.566C191.398 78.2713 190.939 78.124 190.323 78.124C189.916 78.124 189.517 78.1933 189.127 78.332C188.737 78.462 188.408 78.6397 188.139 78.865L187.619 77.929C187.975 77.643 188.399 77.4263 188.893 77.279C189.396 77.123 189.92 77.045 190.466 77.045C191.411 77.045 192.139 77.2747 192.65 77.734C193.162 78.1933 193.417 78.8953 193.417 79.84V84H192.234ZM189.972 84.078C189.461 84.078 189.01 83.9913 188.62 83.818C188.239 83.6447 187.944 83.4063 187.736 83.103C187.528 82.791 187.424 82.44 187.424 82.05C187.424 81.6773 187.511 81.3393 187.684 81.036C187.866 80.7327 188.157 80.49 188.555 80.308C188.963 80.126 189.509 80.035 190.193 80.035H192.377V80.932H190.245C189.621 80.932 189.201 81.036 188.984 81.244C188.768 81.452 188.659 81.7033 188.659 81.998C188.659 82.336 188.794 82.609 189.062 82.817C189.331 83.0163 189.704 83.116 190.18 83.116C190.648 83.116 191.056 83.012 191.402 82.804C191.758 82.596 192.013 82.2927 192.169 81.894L192.416 82.752C192.252 83.1593 191.961 83.4843 191.545 83.727C191.129 83.961 190.605 84.078 189.972 84.078ZM202.897 77.045C203.46 77.045 203.954 77.1533 204.379 77.37C204.812 77.5867 205.15 77.916 205.393 78.358C205.636 78.8 205.757 79.359 205.757 80.035V84H204.509V80.178C204.509 79.5107 204.344 79.008 204.015 78.67C203.694 78.332 203.239 78.163 202.65 78.163C202.208 78.163 201.822 78.2497 201.493 78.423C201.164 78.5963 200.908 78.852 200.726 79.19C200.553 79.528 200.466 79.9483 200.466 80.451V84H199.218V77.11H200.414V78.969L200.219 78.475C200.444 78.0243 200.791 77.6733 201.259 77.422C201.727 77.1707 202.273 77.045 202.897 77.045ZM211.018 84.078C210.324 84.078 209.709 83.9263 209.172 83.623C208.634 83.3197 208.21 82.9037 207.898 82.375C207.586 81.8377 207.43 81.231 207.43 80.555C207.43 79.8703 207.586 79.2637 207.898 78.735C208.21 78.2063 208.634 77.7947 209.172 77.5C209.709 77.1967 210.324 77.045 211.018 77.045C211.702 77.045 212.313 77.1967 212.851 77.5C213.397 77.7947 213.821 78.2063 214.125 78.735C214.437 79.255 214.593 79.8617 214.593 80.555C214.593 81.2397 214.437 81.8463 214.125 82.375C213.821 82.9037 213.397 83.3197 212.851 83.623C212.313 83.9263 211.702 84.078 211.018 84.078ZM211.018 82.986C211.46 82.986 211.854 82.8863 212.201 82.687C212.556 82.4877 212.833 82.206 213.033 81.842C213.232 81.4693 213.332 81.0403 213.332 80.555C213.332 80.061 213.232 79.6363 213.033 79.281C212.833 78.917 212.556 78.6353 212.201 78.436C211.854 78.2367 211.46 78.137 211.018 78.137C210.576 78.137 210.181 78.2367 209.835 78.436C209.488 78.6353 209.211 78.917 209.003 79.281C208.795 79.6363 208.691 80.061 208.691 80.555C208.691 81.0403 208.795 81.4693 209.003 81.842C209.211 82.206 209.488 82.4877 209.835 82.687C210.181 82.8863 210.576 82.986 211.018 82.986ZM218.685 84.078C217.991 84.078 217.454 83.8917 217.073 83.519C216.691 83.1463 216.501 82.6133 216.501 81.92V75.602H217.749V81.868C217.749 82.2407 217.84 82.5267 218.022 82.726C218.212 82.9253 218.481 83.025 218.828 83.025C219.218 83.025 219.543 82.9167 219.803 82.7L220.193 83.597C220.002 83.7617 219.772 83.883 219.504 83.961C219.244 84.039 218.971 84.078 218.685 84.078ZM215.331 78.137V77.11H219.725V78.137H215.331ZM221.702 84V77.11H222.95V84H221.702ZM222.326 75.784C222.083 75.784 221.879 75.706 221.715 75.55C221.559 75.394 221.481 75.2033 221.481 74.978C221.481 74.744 221.559 74.549 221.715 74.393C221.879 74.237 222.083 74.159 222.326 74.159C222.568 74.159 222.768 74.237 222.924 74.393C223.088 74.5403 223.171 74.7267 223.171 74.952C223.171 75.186 223.093 75.3853 222.937 75.55C222.781 75.706 222.577 75.784 222.326 75.784ZM225.514 84V76.499C225.514 75.823 225.709 75.2857 226.099 74.887C226.498 74.4797 227.061 74.276 227.789 74.276C228.058 74.276 228.314 74.3107 228.556 74.38C228.808 74.4407 229.02 74.5403 229.193 74.679L228.816 75.628C228.686 75.524 228.539 75.446 228.374 75.394C228.21 75.3333 228.036 75.303 227.854 75.303C227.49 75.303 227.213 75.407 227.022 75.615C226.832 75.8143 226.736 76.1133 226.736 76.512V77.435L226.762 78.007V84H225.514ZM224.344 78.137V77.11H228.738V78.137H224.344ZM229.921 84V77.11H231.169V84H229.921ZM230.545 75.784C230.303 75.784 230.099 75.706 229.934 75.55C229.778 75.394 229.7 75.2033 229.7 74.978C229.7 74.744 229.778 74.549 229.934 74.393C230.099 74.237 230.303 74.159 230.545 74.159C230.788 74.159 230.987 74.237 231.143 74.393C231.308 74.5403 231.39 74.7267 231.39 74.952C231.39 75.186 231.312 75.3853 231.156 75.55C231 75.706 230.797 75.784 230.545 75.784ZM234.56 82.336L234.586 80.737L238.551 77.11H240.059L237.017 80.1L236.341 80.672L234.56 82.336ZM233.546 84V74.354H234.794V84H233.546ZM238.811 84L236.107 80.646L236.913 79.645L240.345 84H238.811ZM245.707 84V82.544L245.642 82.271V79.788C245.642 79.2593 245.486 78.852 245.174 78.566C244.871 78.2713 244.411 78.124 243.796 78.124C243.389 78.124 242.99 78.1933 242.6 78.332C242.21 78.462 241.881 78.6397 241.612 78.865L241.092 77.929C241.447 77.643 241.872 77.4263 242.366 77.279C242.869 77.123 243.393 77.045 243.939 77.045C244.884 77.045 245.612 77.2747 246.123 77.734C246.634 78.1933 246.89 78.8953 246.89 79.84V84H245.707ZM243.445 84.078C242.934 84.078 242.483 83.9913 242.093 83.818C241.712 83.6447 241.417 83.4063 241.209 83.103C241.001 82.791 240.897 82.44 240.897 82.05C240.897 81.6773 240.984 81.3393 241.157 81.036C241.339 80.7327 241.629 80.49 242.028 80.308C242.435 80.126 242.981 80.035 243.666 80.035H245.85V80.932H243.718C243.094 80.932 242.674 81.036 242.457 81.244C242.24 81.452 242.132 81.7033 242.132 81.998C242.132 82.336 242.266 82.609 242.535 82.817C242.804 83.0163 243.176 83.116 243.653 83.116C244.121 83.116 244.528 83.012 244.875 82.804C245.23 82.596 245.486 82.2927 245.642 81.894L245.889 82.752C245.724 83.1593 245.434 83.4843 245.018 83.727C244.602 83.961 244.078 84.078 243.445 84.078ZM251.176 84.078C250.604 84.078 250.058 84 249.538 83.844C249.026 83.688 248.623 83.4973 248.329 83.272L248.849 82.284C249.143 82.4833 249.507 82.6523 249.941 82.791C250.374 82.9297 250.816 82.999 251.267 82.999C251.847 82.999 252.263 82.9167 252.515 82.752C252.775 82.5873 252.905 82.3577 252.905 82.063C252.905 81.8463 252.827 81.6773 252.671 81.556C252.515 81.4347 252.307 81.3437 252.047 81.283C251.795 81.2223 251.514 81.1703 251.202 81.127C250.89 81.075 250.578 81.0143 250.266 80.945C249.954 80.867 249.668 80.763 249.408 80.633C249.148 80.4943 248.94 80.308 248.784 80.074C248.628 79.8313 248.55 79.5107 248.55 79.112C248.55 78.696 248.667 78.332 248.901 78.02C249.135 77.708 249.464 77.4697 249.889 77.305C250.322 77.1317 250.833 77.045 251.423 77.045C251.873 77.045 252.328 77.1013 252.788 77.214C253.256 77.318 253.637 77.4697 253.932 77.669L253.399 78.657C253.087 78.449 252.762 78.306 252.424 78.228C252.086 78.15 251.748 78.111 251.41 78.111C250.864 78.111 250.456 78.202 250.188 78.384C249.919 78.5573 249.785 78.7827 249.785 79.06C249.785 79.294 249.863 79.476 250.019 79.606C250.183 79.7273 250.391 79.8227 250.643 79.892C250.903 79.9613 251.189 80.022 251.501 80.074C251.813 80.1173 252.125 80.178 252.437 80.256C252.749 80.3253 253.03 80.425 253.282 80.555C253.542 80.685 253.75 80.867 253.906 81.101C254.07 81.335 254.153 81.647 254.153 82.037C254.153 82.453 254.031 82.8127 253.789 83.116C253.546 83.4193 253.204 83.6577 252.762 83.831C252.32 83.9957 251.791 84.078 251.176 84.078ZM255.712 84V77.11H256.96V84H255.712ZM256.336 75.784C256.094 75.784 255.89 75.706 255.725 75.55C255.569 75.394 255.491 75.2033 255.491 74.978C255.491 74.744 255.569 74.549 255.725 74.393C255.89 74.237 256.094 74.159 256.336 74.159C256.579 74.159 256.778 74.237 256.934 74.393C257.099 74.5403 257.181 74.7267 257.181 74.952C257.181 75.186 257.103 75.3853 256.947 75.55C256.791 75.706 256.588 75.784 256.336 75.784ZM18.183 105V98.11H19.379V99.982L19.262 99.514C19.4527 99.0373 19.7733 98.6733 20.224 98.422C20.6747 98.1707 21.2293 98.045 21.888 98.045V99.254C21.836 99.2453 21.784 99.241 21.732 99.241C21.6887 99.241 21.6453 99.241 21.602 99.241C20.9347 99.241 20.406 99.4403 20.016 99.839C19.626 100.238 19.431 100.814 19.431 101.568V105H18.183ZM26.4307 105.078C25.694 105.078 25.044 104.926 24.4807 104.623C23.926 104.32 23.4927 103.904 23.1807 103.375C22.8774 102.846 22.7257 102.24 22.7257 101.555C22.7257 100.87 22.873 100.264 23.1677 99.735C23.471 99.2063 23.8827 98.7947 24.4027 98.5C24.9314 98.1967 25.525 98.045 26.1837 98.045C26.851 98.045 27.4404 98.1923 27.9517 98.487C28.463 98.7817 28.8617 99.1977 29.1477 99.735C29.4424 100.264 29.5897 100.883 29.5897 101.594C29.5897 101.646 29.5854 101.707 29.5767 101.776C29.5767 101.845 29.5724 101.91 29.5637 101.971H23.7007V101.074H28.9137L28.4067 101.386C28.4154 100.944 28.3244 100.55 28.1337 100.203C27.943 99.8563 27.6787 99.5877 27.3407 99.397C27.0114 99.1977 26.6257 99.098 26.1837 99.098C25.7504 99.098 25.3647 99.1977 25.0267 99.397C24.6887 99.5877 24.4244 99.8607 24.2337 100.216C24.043 100.563 23.9477 100.961 23.9477 101.412V101.62C23.9477 102.079 24.0517 102.491 24.2597 102.855C24.4764 103.21 24.7754 103.488 25.1567 103.687C25.538 103.886 25.9757 103.986 26.4697 103.986C26.877 103.986 27.2454 103.917 27.5747 103.778C27.9127 103.639 28.2074 103.431 28.4587 103.154L29.1477 103.96C28.8357 104.324 28.4457 104.601 27.9777 104.792C27.5184 104.983 27.0027 105.078 26.4307 105.078ZM35.4092 105V103.544L35.3442 103.271V100.788C35.3442 100.259 35.1882 99.852 34.8762 99.566C34.5729 99.2713 34.1136 99.124 33.4982 99.124C33.0909 99.124 32.6922 99.1933 32.3022 99.332C31.9122 99.462 31.5829 99.6397 31.3142 99.865L30.7942 98.929C31.1496 98.643 31.5742 98.4263 32.0682 98.279C32.5709 98.123 33.0952 98.045 33.6412 98.045C34.5859 98.045 35.3139 98.2747 35.8252 98.734C36.3366 99.1933 36.5922 99.8953 36.5922 100.84V105H35.4092ZM33.1472 105.078C32.6359 105.078 32.1852 104.991 31.7952 104.818C31.4139 104.645 31.1192 104.406 30.9112 104.103C30.7032 103.791 30.5992 103.44 30.5992 103.05C30.5992 102.677 30.6859 102.339 30.8592 102.036C31.0412 101.733 31.3316 101.49 31.7302 101.308C32.1376 101.126 32.6836 101.035 33.3682 101.035H35.5522V101.932H33.4202C32.7962 101.932 32.3759 102.036 32.1592 102.244C31.9426 102.452 31.8342 102.703 31.8342 102.998C31.8342 103.336 31.9686 103.609 32.2372 103.817C32.5059 104.016 32.8786 104.116 33.3552 104.116C33.8232 104.116 34.2306 104.012 34.5772 103.804C34.9326 103.596 35.1882 103.293 35.3442 102.894L35.5912 103.752C35.4266 104.159 35.1362 104.484 34.7202 104.727C34.3042 104.961 33.7799 105.078 33.1472 105.078ZM38.9018 105V95.354H40.1498V105H38.9018ZM42.0906 101.971V100.892H45.5876V101.971H42.0906ZM50.0021 105.078C49.3088 105.078 48.7715 104.892 48.3901 104.519C48.0088 104.146 47.8181 103.613 47.8181 102.92V96.602H49.0661V102.868C49.0661 103.241 49.1571 103.527 49.3391 103.726C49.5298 103.925 49.7985 104.025 50.1451 104.025C50.5351 104.025 50.8601 103.917 51.1201 103.7L51.5101 104.597C51.3195 104.762 51.0898 104.883 50.8211 104.961C50.5611 105.039 50.2881 105.078 50.0021 105.078ZM46.6481 99.137V98.11H51.0421V99.137H46.6481ZM53.0189 105V98.11H54.2669V105H53.0189ZM53.6429 96.784C53.4003 96.784 53.1966 96.706 53.0319 96.55C52.8759 96.394 52.7979 96.2033 52.7979 95.978C52.7979 95.744 52.8759 95.549 53.0319 95.393C53.1966 95.237 53.4003 95.159 53.6429 95.159C53.8856 95.159 54.0849 95.237 54.2409 95.393C54.4056 95.5403 54.4879 95.7267 54.4879 95.952C54.4879 96.186 54.4099 96.3853 54.2539 96.55C54.0979 96.706 53.8943 96.784 53.6429 96.784ZM65.2688 98.045C65.8235 98.045 66.3131 98.1533 66.7378 98.37C67.1625 98.5867 67.4918 98.916 67.7258 99.358C67.9685 99.8 68.0898 100.359 68.0898 101.035V105H66.8418V101.178C66.8418 100.511 66.6858 100.008 66.3738 99.67C66.0618 99.332 65.6241 99.163 65.0608 99.163C64.6448 99.163 64.2808 99.2497 63.9688 99.423C63.6568 99.5963 63.4141 99.852 63.2408 100.19C63.0761 100.528 62.9938 100.948 62.9938 101.451V105H61.7458V101.178C61.7458 100.511 61.5898 100.008 61.2778 99.67C60.9745 99.332 60.5368 99.163 59.9648 99.163C59.5575 99.163 59.1978 99.2497 58.8858 99.423C58.5738 99.5963 58.3311 99.852 58.1578 100.19C57.9845 100.528 57.8978 100.948 57.8978 101.451V105H56.6498V98.11H57.8458V99.943L57.6508 99.475C57.8675 99.0243 58.2011 98.6733 58.6518 98.422C59.1025 98.1707 59.6268 98.045 60.2248 98.045C60.8835 98.045 61.4511 98.2097 61.9278 98.539C62.4045 98.8597 62.7165 99.3493 62.8638 100.008L62.3568 99.8C62.5648 99.2713 62.9288 98.8467 63.4488 98.526C63.9688 98.2053 64.5755 98.045 65.2688 98.045ZM73.4541 105.078C72.7175 105.078 72.0675 104.926 71.5041 104.623C70.9495 104.32 70.5161 103.904 70.2041 103.375C69.9008 102.846 69.7491 102.24 69.7491 101.555C69.7491 100.87 69.8965 100.264 70.1911 99.735C70.4945 99.2063 70.9061 98.7947 71.4261 98.5C71.9548 98.1967 72.5485 98.045 73.2071 98.045C73.8745 98.045 74.4638 98.1923 74.9751 98.487C75.4865 98.7817 75.8851 99.1977 76.1711 99.735C76.4658 100.264 76.6131 100.883 76.6131 101.594C76.6131 101.646 76.6088 101.707 76.6001 101.776C76.6001 101.845 76.5958 101.91 76.5871 101.971H70.7241V101.074H75.9371L75.4301 101.386C75.4388 100.944 75.3478 100.55 75.1571 100.203C74.9665 99.8563 74.7021 99.5877 74.3641 99.397C74.0348 99.1977 73.6491 99.098 73.2071 99.098C72.7738 99.098 72.3881 99.1977 72.0501 99.397C71.7121 99.5877 71.4478 99.8607 71.2571 100.216C71.0665 100.563 70.9711 100.961 70.9711 101.412V101.62C70.9711 102.079 71.0751 102.491 71.2831 102.855C71.4998 103.21 71.7988 103.488 72.1801 103.687C72.5615 103.886 72.9991 103.986 73.4931 103.986C73.9005 103.986 74.2688 103.917 74.5981 103.778C74.9361 103.639 75.2308 103.431 75.4821 103.154L76.1711 103.96C75.8591 104.324 75.4691 104.601 75.0011 104.792C74.5418 104.983 74.0261 105.078 73.4541 105.078ZM90.4563 98.045C91.011 98.045 91.5006 98.1533 91.9253 98.37C92.35 98.5867 92.6793 98.916 92.9133 99.358C93.156 99.8 93.2773 100.359 93.2773 101.035V105H92.0293V101.178C92.0293 100.511 91.8733 100.008 91.5613 99.67C91.2493 99.332 90.8116 99.163 90.2483 99.163C89.8323 99.163 89.4683 99.2497 89.1563 99.423C88.8443 99.5963 88.6016 99.852 88.4283 100.19C88.2636 100.528 88.1813 100.948 88.1813 101.451V105H86.9333V101.178C86.9333 100.511 86.7773 100.008 86.4653 99.67C86.162 99.332 85.7243 99.163 85.1523 99.163C84.745 99.163 84.3853 99.2497 84.0733 99.423C83.7613 99.5963 83.5186 99.852 83.3453 100.19C83.172 100.528 83.0853 100.948 83.0853 101.451V105H81.8373V98.11H83.0333V99.943L82.8383 99.475C83.055 99.0243 83.3886 98.6733 83.8393 98.422C84.29 98.1707 84.8143 98.045 85.4123 98.045C86.071 98.045 86.6386 98.2097 87.1153 98.539C87.592 98.8597 87.904 99.3493 88.0513 100.008L87.5443 99.8C87.7523 99.2713 88.1163 98.8467 88.6363 98.526C89.1563 98.2053 89.763 98.045 90.4563 98.045ZM98.6416 105.078C97.905 105.078 97.255 104.926 96.6916 104.623C96.137 104.32 95.7036 103.904 95.3916 103.375C95.0883 102.846 94.9366 102.24 94.9366 101.555C94.9366 100.87 95.084 100.264 95.3786 99.735C95.682 99.2063 96.0936 98.7947 96.6136 98.5C97.1423 98.1967 97.736 98.045 98.3946 98.045C99.062 98.045 99.6513 98.1923 100.163 98.487C100.674 98.7817 101.073 99.1977 101.359 99.735C101.653 100.264 101.801 100.883 101.801 101.594C101.801 101.646 101.796 101.707 101.788 101.776C101.788 101.845 101.783 101.91 101.775 101.971H95.9116V101.074H101.125L100.618 101.386C100.626 100.944 100.535 100.55 100.345 100.203C100.154 99.8563 99.8896 99.5877 99.5516 99.397C99.2223 99.1977 98.8366 99.098 98.3946 99.098C97.9613 99.098 97.5756 99.1977 97.2376 99.397C96.8996 99.5877 96.6353 99.8607 96.4446 100.216C96.254 100.563 96.1586 100.961 96.1586 101.412V101.62C96.1586 102.079 96.2626 102.491 96.4706 102.855C96.6873 103.21 96.9863 103.488 97.3676 103.687C97.749 103.886 98.1866 103.986 98.6806 103.986C99.088 103.986 99.4563 103.917 99.7856 103.778C100.124 103.639 100.418 103.431 100.67 103.154L101.359 103.96C101.047 104.324 100.657 104.601 100.189 104.792C99.7293 104.983 99.2136 105.078 98.6416 105.078ZM107.213 98.045C107.776 98.045 108.27 98.1533 108.695 98.37C109.128 98.5867 109.466 98.916 109.709 99.358C109.951 99.8 110.073 100.359 110.073 101.035V105H108.825V101.178C108.825 100.511 108.66 100.008 108.331 99.67C108.01 99.332 107.555 99.163 106.966 99.163C106.524 99.163 106.138 99.2497 105.809 99.423C105.479 99.5963 105.224 99.852 105.042 100.19C104.868 100.528 104.782 100.948 104.782 101.451V105H103.534V98.11H104.73V99.969L104.535 99.475C104.76 99.0243 105.107 98.6733 105.575 98.422C106.043 98.1707 106.589 98.045 107.213 98.045ZM115.398 107.6C114.766 107.6 114.15 107.509 113.552 107.327C112.963 107.154 112.482 106.902 112.109 106.573L112.707 105.611C113.028 105.888 113.422 106.105 113.89 106.261C114.358 106.426 114.848 106.508 115.359 106.508C116.174 106.508 116.772 106.317 117.153 105.936C117.535 105.555 117.725 104.974 117.725 104.194V102.738L117.855 101.373L117.79 99.995V98.11H118.973V104.064C118.973 105.277 118.67 106.17 118.063 106.742C117.457 107.314 116.568 107.6 115.398 107.6ZM115.242 104.714C114.575 104.714 113.977 104.575 113.448 104.298C112.928 104.012 112.512 103.618 112.2 103.115C111.897 102.612 111.745 102.032 111.745 101.373C111.745 100.706 111.897 100.125 112.2 99.631C112.512 99.1283 112.928 98.7383 113.448 98.461C113.977 98.1837 114.575 98.045 115.242 98.045C115.832 98.045 116.369 98.1663 116.854 98.409C117.34 98.643 117.725 99.007 118.011 99.501C118.306 99.995 118.453 100.619 118.453 101.373C118.453 102.118 118.306 102.738 118.011 103.232C117.725 103.726 117.34 104.099 116.854 104.35C116.369 104.593 115.832 104.714 115.242 104.714ZM115.385 103.622C115.845 103.622 116.252 103.527 116.607 103.336C116.963 103.145 117.24 102.881 117.439 102.543C117.647 102.205 117.751 101.815 117.751 101.373C117.751 100.931 117.647 100.541 117.439 100.203C117.24 99.865 116.963 99.605 116.607 99.423C116.252 99.2323 115.845 99.137 115.385 99.137C114.926 99.137 114.514 99.2323 114.15 99.423C113.795 99.605 113.513 99.865 113.305 100.203C113.106 100.541 113.006 100.931 113.006 101.373C113.006 101.815 113.106 102.205 113.305 102.543C113.513 102.881 113.795 103.145 114.15 103.336C114.514 103.527 114.926 103.622 115.385 103.622ZM124.426 105.078C123.689 105.078 123.039 104.926 122.476 104.623C121.921 104.32 121.488 103.904 121.176 103.375C120.872 102.846 120.721 102.24 120.721 101.555C120.721 100.87 120.868 100.264 121.163 99.735C121.466 99.2063 121.878 98.7947 122.398 98.5C122.926 98.1967 123.52 98.045 124.179 98.045C124.846 98.045 125.435 98.1923 125.947 98.487C126.458 98.7817 126.857 99.1977 127.143 99.735C127.437 100.264 127.585 100.883 127.585 101.594C127.585 101.646 127.58 101.707 127.572 101.776C127.572 101.845 127.567 101.91 127.559 101.971H121.696V101.074H126.909L126.402 101.386C126.41 100.944 126.319 100.55 126.129 100.203C125.938 99.8563 125.674 99.5877 125.336 99.397C125.006 99.1977 124.621 99.098 124.179 99.098C123.745 99.098 123.36 99.1977 123.022 99.397C122.684 99.5877 122.419 99.8607 122.229 100.216C122.038 100.563 121.943 100.961 121.943 101.412V101.62C121.943 102.079 122.047 102.491 122.255 102.855C122.471 103.21 122.77 103.488 123.152 103.687C123.533 103.886 123.971 103.986 124.465 103.986C124.872 103.986 125.24 103.917 125.57 103.778C125.908 103.639 126.202 103.431 126.454 103.154L127.143 103.96C126.831 104.324 126.441 104.601 125.973 104.792C125.513 104.983 124.998 105.078 124.426 105.078ZM132.997 98.045C133.56 98.045 134.054 98.1533 134.479 98.37C134.912 98.5867 135.25 98.916 135.493 99.358C135.735 99.8 135.857 100.359 135.857 101.035V105H134.609V101.178C134.609 100.511 134.444 100.008 134.115 99.67C133.794 99.332 133.339 99.163 132.75 99.163C132.308 99.163 131.922 99.2497 131.593 99.423C131.263 99.5963 131.008 99.852 130.826 100.19C130.652 100.528 130.566 100.948 130.566 101.451V105H129.318V98.11H130.514V99.969L130.319 99.475C130.544 99.0243 130.891 98.6733 131.359 98.422C131.827 98.1707 132.373 98.045 132.997 98.045ZM142.443 105V103.544L142.378 103.271V100.788C142.378 100.259 142.222 99.852 141.91 99.566C141.607 99.2713 141.148 99.124 140.532 99.124C140.125 99.124 139.726 99.1933 139.336 99.332C138.946 99.462 138.617 99.6397 138.348 99.865L137.828 98.929C138.184 98.643 138.608 98.4263 139.102 98.279C139.605 98.123 140.129 98.045 140.675 98.045C141.62 98.045 142.348 98.2747 142.859 98.734C143.371 99.1933 143.626 99.8953 143.626 100.84V105H142.443ZM140.181 105.078C139.67 105.078 139.219 104.991 138.829 104.818C138.448 104.645 138.153 104.406 137.945 104.103C137.737 103.791 137.633 103.44 137.633 103.05C137.633 102.677 137.72 102.339 137.893 102.036C138.075 101.733 138.366 101.49 138.764 101.308C139.172 101.126 139.718 101.035 140.402 101.035H142.586V101.932H140.454C139.83 101.932 139.41 102.036 139.193 102.244C138.977 102.452 138.868 102.703 138.868 102.998C138.868 103.336 139.003 103.609 139.271 103.817C139.54 104.016 139.913 104.116 140.389 104.116C140.857 104.116 141.265 104.012 141.611 103.804C141.967 103.596 142.222 103.293 142.378 102.894L142.625 103.752C142.461 104.159 142.17 104.484 141.754 104.727C141.338 104.961 140.814 105.078 140.181 105.078ZM145.936 105V98.11H147.184V105H145.936ZM146.56 96.784C146.317 96.784 146.114 96.706 145.949 96.55C145.793 96.394 145.715 96.2033 145.715 95.978C145.715 95.744 145.793 95.549 145.949 95.393C146.114 95.237 146.317 95.159 146.56 95.159C146.803 95.159 147.002 95.237 147.158 95.393C147.323 95.5403 147.405 95.7267 147.405 95.952C147.405 96.186 147.327 96.3853 147.171 96.55C147.015 96.706 146.811 96.784 146.56 96.784ZM155.034 105.078C154.462 105.078 153.916 105 153.396 104.844C152.885 104.688 152.482 104.497 152.187 104.272L152.707 103.284C153.002 103.483 153.366 103.652 153.799 103.791C154.232 103.93 154.674 103.999 155.125 103.999C155.706 103.999 156.122 103.917 156.373 103.752C156.633 103.587 156.763 103.358 156.763 103.063C156.763 102.846 156.685 102.677 156.529 102.556C156.373 102.435 156.165 102.344 155.905 102.283C155.654 102.222 155.372 102.17 155.06 102.127C154.748 102.075 154.436 102.014 154.124 101.945C153.812 101.867 153.526 101.763 153.266 101.633C153.006 101.494 152.798 101.308 152.642 101.074C152.486 100.831 152.408 100.511 152.408 100.112C152.408 99.696 152.525 99.332 152.759 99.02C152.993 98.708 153.322 98.4697 153.747 98.305C154.18 98.1317 154.692 98.045 155.281 98.045C155.732 98.045 156.187 98.1013 156.646 98.214C157.114 98.318 157.495 98.4697 157.79 98.669L157.257 99.657C156.945 99.449 156.62 99.306 156.282 99.228C155.944 99.15 155.606 99.111 155.268 99.111C154.722 99.111 154.315 99.202 154.046 99.384C153.777 99.5573 153.643 99.7827 153.643 100.06C153.643 100.294 153.721 100.476 153.877 100.606C154.042 100.727 154.25 100.823 154.501 100.892C154.761 100.961 155.047 101.022 155.359 101.074C155.671 101.117 155.983 101.178 156.295 101.256C156.607 101.325 156.889 101.425 157.14 101.555C157.4 101.685 157.608 101.867 157.764 102.101C157.929 102.335 158.011 102.647 158.011 103.037C158.011 103.453 157.89 103.813 157.647 104.116C157.404 104.419 157.062 104.658 156.62 104.831C156.178 104.996 155.649 105.078 155.034 105.078ZM161.937 105.078C161.243 105.078 160.706 104.892 160.325 104.519C159.943 104.146 159.753 103.613 159.753 102.92V96.602H161.001V102.868C161.001 103.241 161.092 103.527 161.274 103.726C161.464 103.925 161.733 104.025 162.08 104.025C162.47 104.025 162.795 103.917 163.055 103.7L163.445 104.597C163.254 104.762 163.024 104.883 162.756 104.961C162.496 105.039 162.223 105.078 161.937 105.078ZM158.583 99.137V98.11H162.977V99.137H158.583ZM169.231 105V103.544L169.166 103.271V100.788C169.166 100.259 169.01 99.852 168.698 99.566C168.394 99.2713 167.935 99.124 167.32 99.124C166.912 99.124 166.514 99.1933 166.124 99.332C165.734 99.462 165.404 99.6397 165.136 99.865L164.616 98.929C164.971 98.643 165.396 98.4263 165.89 98.279C166.392 98.123 166.917 98.045 167.463 98.045C168.407 98.045 169.135 98.2747 169.647 98.734C170.158 99.1933 170.414 99.8953 170.414 100.84V105H169.231ZM166.969 105.078C166.457 105.078 166.007 104.991 165.617 104.818C165.235 104.645 164.941 104.406 164.733 104.103C164.525 103.791 164.421 103.44 164.421 103.05C164.421 102.677 164.507 102.339 164.681 102.036C164.863 101.733 165.153 101.49 165.552 101.308C165.959 101.126 166.505 101.035 167.19 101.035H169.374V101.932H167.242C166.618 101.932 166.197 102.036 165.981 102.244C165.764 102.452 165.656 102.703 165.656 102.998C165.656 103.336 165.79 103.609 166.059 103.817C166.327 104.016 166.7 104.116 167.177 104.116C167.645 104.116 168.052 104.012 168.399 103.804C168.754 103.596 169.01 103.293 169.166 102.894L169.413 103.752C169.248 104.159 168.958 104.484 168.542 104.727C168.126 104.961 167.601 105.078 166.969 105.078ZM175.089 105.078C174.396 105.078 173.858 104.892 173.477 104.519C173.096 104.146 172.905 103.613 172.905 102.92V96.602H174.153V102.868C174.153 103.241 174.244 103.527 174.426 103.726C174.617 103.925 174.885 104.025 175.232 104.025C175.622 104.025 175.947 103.917 176.207 103.7L176.597 104.597C176.406 104.762 176.177 104.883 175.908 104.961C175.648 105.039 175.375 105.078 175.089 105.078ZM171.735 99.137V98.11H176.129V99.137H171.735ZM181.005 105.078C180.416 105.078 179.896 104.97 179.445 104.753C179.003 104.536 178.656 104.207 178.405 103.765C178.162 103.314 178.041 102.751 178.041 102.075V98.11H179.289V101.932C179.289 102.608 179.449 103.115 179.77 103.453C180.099 103.791 180.559 103.96 181.148 103.96C181.581 103.96 181.958 103.873 182.279 103.7C182.6 103.518 182.847 103.258 183.02 102.92C183.193 102.573 183.28 102.157 183.28 101.672V98.11H184.528V105H183.345V103.141L183.54 103.635C183.315 104.094 182.977 104.45 182.526 104.701C182.075 104.952 181.568 105.078 181.005 105.078ZM188.88 105.078C188.308 105.078 187.762 105 187.242 104.844C186.73 104.688 186.327 104.497 186.033 104.272L186.553 103.284C186.847 103.483 187.211 103.652 187.645 103.791C188.078 103.93 188.52 103.999 188.971 103.999C189.551 103.999 189.967 103.917 190.219 103.752C190.479 103.587 190.609 103.358 190.609 103.063C190.609 102.846 190.531 102.677 190.375 102.556C190.219 102.435 190.011 102.344 189.751 102.283C189.499 102.222 189.218 102.17 188.906 102.127C188.594 102.075 188.282 102.014 187.97 101.945C187.658 101.867 187.372 101.763 187.112 101.633C186.852 101.494 186.644 101.308 186.488 101.074C186.332 100.831 186.254 100.511 186.254 100.112C186.254 99.696 186.371 99.332 186.605 99.02C186.839 98.708 187.168 98.4697 187.593 98.305C188.026 98.1317 188.537 98.045 189.127 98.045C189.577 98.045 190.032 98.1013 190.492 98.214C190.96 98.318 191.341 98.4697 191.636 98.669L191.103 99.657C190.791 99.449 190.466 99.306 190.128 99.228C189.79 99.15 189.452 99.111 189.114 99.111C188.568 99.111 188.16 99.202 187.892 99.384C187.623 99.5573 187.489 99.7827 187.489 100.06C187.489 100.294 187.567 100.476 187.723 100.606C187.887 100.727 188.095 100.823 188.347 100.892C188.607 100.961 188.893 101.022 189.205 101.074C189.517 101.117 189.829 101.178 190.141 101.256C190.453 101.325 190.734 101.425 190.986 101.555C191.246 101.685 191.454 101.867 191.61 102.101C191.774 102.335 191.857 102.647 191.857 103.037C191.857 103.453 191.735 103.813 191.493 104.116C191.25 104.419 190.908 104.658 190.466 104.831C190.024 104.996 189.495 105.078 188.88 105.078ZM200.561 105.078C199.989 105.078 199.464 104.948 198.988 104.688C198.52 104.419 198.143 104.025 197.857 103.505C197.579 102.985 197.441 102.335 197.441 101.555C197.441 100.775 197.575 100.125 197.844 99.605C198.121 99.085 198.494 98.695 198.962 98.435C199.438 98.175 199.971 98.045 200.561 98.045C201.237 98.045 201.835 98.1923 202.355 98.487C202.875 98.7817 203.286 99.1933 203.59 99.722C203.893 100.242 204.045 100.853 204.045 101.555C204.045 102.257 203.893 102.872 203.59 103.401C203.286 103.93 202.875 104.341 202.355 104.636C201.835 104.931 201.237 105.078 200.561 105.078ZM196.908 107.522V98.11H198.104V99.969L198.026 101.568L198.156 103.167V107.522H196.908ZM200.457 103.986C200.899 103.986 201.293 103.886 201.64 103.687C201.995 103.488 202.272 103.206 202.472 102.842C202.68 102.469 202.784 102.04 202.784 101.555C202.784 101.061 202.68 100.636 202.472 100.281C202.272 99.917 201.995 99.6353 201.64 99.436C201.293 99.2367 200.899 99.137 200.457 99.137C200.023 99.137 199.629 99.2367 199.274 99.436C198.927 99.6353 198.65 99.917 198.442 100.281C198.242 100.636 198.143 101.061 198.143 101.555C198.143 102.04 198.242 102.469 198.442 102.842C198.65 103.206 198.927 103.488 199.274 103.687C199.629 103.886 200.023 103.986 200.457 103.986ZM208.837 105.078C208.1 105.078 207.45 104.926 206.887 104.623C206.332 104.32 205.899 103.904 205.587 103.375C205.284 102.846 205.132 102.24 205.132 101.555C205.132 100.87 205.279 100.264 205.574 99.735C205.877 99.2063 206.289 98.7947 206.809 98.5C207.338 98.1967 207.931 98.045 208.59 98.045C209.257 98.045 209.847 98.1923 210.358 98.487C210.869 98.7817 211.268 99.1977 211.554 99.735C211.849 100.264 211.996 100.883 211.996 101.594C211.996 101.646 211.992 101.707 211.983 101.776C211.983 101.845 211.979 101.91 211.97 101.971H206.107V101.074H211.32L210.813 101.386C210.822 100.944 210.731 100.55 210.54 100.203C210.349 99.8563 210.085 99.5877 209.747 99.397C209.418 99.1977 209.032 99.098 208.59 99.098C208.157 99.098 207.771 99.1977 207.433 99.397C207.095 99.5877 206.831 99.8607 206.64 100.216C206.449 100.563 206.354 100.961 206.354 101.412V101.62C206.354 102.079 206.458 102.491 206.666 102.855C206.883 103.21 207.182 103.488 207.563 103.687C207.944 103.886 208.382 103.986 208.876 103.986C209.283 103.986 209.652 103.917 209.981 103.778C210.319 103.639 210.614 103.431 210.865 103.154L211.554 103.96C211.242 104.324 210.852 104.601 210.384 104.792C209.925 104.983 209.409 105.078 208.837 105.078ZM213.729 105V98.11H214.925V99.982L214.808 99.514C214.999 99.0373 215.319 98.6733 215.77 98.422C216.221 98.1707 216.775 98.045 217.434 98.045V99.254C217.382 99.2453 217.33 99.241 217.278 99.241C217.235 99.241 217.191 99.241 217.148 99.241C216.481 99.241 215.952 99.4403 215.562 99.839C215.172 100.238 214.977 100.814 214.977 101.568V105H213.729ZM227.591 98.045C228.146 98.045 228.635 98.1533 229.06 98.37C229.485 98.5867 229.814 98.916 230.048 99.358C230.291 99.8 230.412 100.359 230.412 101.035V105H229.164V101.178C229.164 100.511 229.008 100.008 228.696 99.67C228.384 99.332 227.946 99.163 227.383 99.163C226.967 99.163 226.603 99.2497 226.291 99.423C225.979 99.5963 225.736 99.852 225.563 100.19C225.398 100.528 225.316 100.948 225.316 101.451V105H224.068V101.178C224.068 100.511 223.912 100.008 223.6 99.67C223.297 99.332 222.859 99.163 222.287 99.163C221.88 99.163 221.52 99.2497 221.208 99.423C220.896 99.5963 220.653 99.852 220.48 100.19C220.307 100.528 220.22 100.948 220.22 101.451V105H218.972V98.11H220.168V99.943L219.973 99.475C220.19 99.0243 220.523 98.6733 220.974 98.422C221.425 98.1707 221.949 98.045 222.547 98.045C223.206 98.045 223.773 98.2097 224.25 98.539C224.727 98.8597 225.039 99.3493 225.186 100.008L224.679 99.8C224.887 99.2713 225.251 98.8467 225.771 98.526C226.291 98.2053 226.898 98.045 227.591 98.045ZM232.708 105V98.11H233.956V105H232.708ZM233.332 96.784C233.09 96.784 232.886 96.706 232.721 96.55C232.565 96.394 232.487 96.2033 232.487 95.978C232.487 95.744 232.565 95.549 232.721 95.393C232.886 95.237 233.09 95.159 233.332 95.159C233.575 95.159 233.774 95.237 233.93 95.393C234.095 95.5403 234.177 95.7267 234.177 95.952C234.177 96.186 234.099 96.3853 233.943 96.55C233.787 96.706 233.584 96.784 233.332 96.784ZM240.018 98.045C240.582 98.045 241.076 98.1533 241.5 98.37C241.934 98.5867 242.272 98.916 242.514 99.358C242.757 99.8 242.878 100.359 242.878 101.035V105H241.63V101.178C241.63 100.511 241.466 100.008 241.136 99.67C240.816 99.332 240.361 99.163 239.771 99.163C239.329 99.163 238.944 99.2497 238.614 99.423C238.285 99.5963 238.029 99.852 237.847 100.19C237.674 100.528 237.587 100.948 237.587 101.451V105H236.339V98.11H237.535V99.969L237.34 99.475C237.566 99.0243 237.912 98.6733 238.38 98.422C238.848 98.1707 239.394 98.045 240.018 98.045ZM247.554 105.078C246.861 105.078 246.323 104.892 245.942 104.519C245.561 104.146 245.37 103.613 245.37 102.92V96.602H246.618V102.868C246.618 103.241 246.709 103.527 246.891 103.726C247.082 103.925 247.35 104.025 247.697 104.025C248.087 104.025 248.412 103.917 248.672 103.7L249.062 104.597C248.871 104.762 248.642 104.883 248.373 104.961C248.113 105.039 247.84 105.078 247.554 105.078ZM244.2 99.137V98.11H248.594V99.137H244.2ZM254.848 105V103.544L254.783 103.271V100.788C254.783 100.259 254.627 99.852 254.315 99.566C254.011 99.2713 253.552 99.124 252.937 99.124C252.529 99.124 252.131 99.1933 251.741 99.332C251.351 99.462 251.021 99.6397 250.753 99.865L250.233 98.929C250.588 98.643 251.013 98.4263 251.507 98.279C252.009 98.123 252.534 98.045 253.08 98.045C254.024 98.045 254.752 98.2747 255.264 98.734C255.775 99.1933 256.031 99.8953 256.031 100.84V105H254.848ZM252.586 105.078C252.074 105.078 251.624 104.991 251.234 104.818C250.852 104.645 250.558 104.406 250.35 104.103C250.142 103.791 250.038 103.44 250.038 103.05C250.038 102.677 250.124 102.339 250.298 102.036C250.48 101.733 250.77 101.49 251.169 101.308C251.576 101.126 252.122 101.035 252.807 101.035H254.991V101.932H252.859C252.235 101.932 251.814 102.036 251.598 102.244C251.381 102.452 251.273 102.703 251.273 102.998C251.273 103.336 251.407 103.609 251.676 103.817C251.944 104.016 252.317 104.116 252.794 104.116C253.262 104.116 253.669 104.012 254.016 103.804C254.371 103.596 254.627 103.293 254.783 102.894L255.03 103.752C254.865 104.159 254.575 104.484 254.159 104.727C253.743 104.961 253.218 105.078 252.586 105.078ZM262.617 105V103.544L262.552 103.271V100.788C262.552 100.259 262.396 99.852 262.084 99.566C261.781 99.2713 261.322 99.124 260.706 99.124C260.299 99.124 259.9 99.1933 259.51 99.332C259.12 99.462 258.791 99.6397 258.522 99.865L258.002 98.929C258.358 98.643 258.782 98.4263 259.276 98.279C259.779 98.123 260.303 98.045 260.849 98.045C261.794 98.045 262.522 98.2747 263.033 98.734C263.545 99.1933 263.8 99.8953 263.8 100.84V105H262.617ZM260.355 105.078C259.844 105.078 259.393 104.991 259.003 104.818C258.622 104.645 258.327 104.406 258.119 104.103C257.911 103.791 257.807 103.44 257.807 103.05C257.807 102.677 257.894 102.339 258.067 102.036C258.249 101.733 258.54 101.49 258.938 101.308C259.346 101.126 259.892 101.035 260.576 101.035H262.76V101.932H260.628C260.004 101.932 259.584 102.036 259.367 102.244C259.151 102.452 259.042 102.703 259.042 102.998C259.042 103.336 259.177 103.609 259.445 103.817C259.714 104.016 260.087 104.116 260.563 104.116C261.031 104.116 261.439 104.012 261.785 103.804C262.141 103.596 262.396 103.293 262.552 102.894L262.799 103.752C262.635 104.159 262.344 104.484 261.928 104.727C261.512 104.961 260.988 105.078 260.355 105.078ZM269.789 98.045C270.352 98.045 270.846 98.1533 271.271 98.37C271.704 98.5867 272.042 98.916 272.285 99.358C272.527 99.8 272.649 100.359 272.649 101.035V105H271.401V101.178C271.401 100.511 271.236 100.008 270.907 99.67C270.586 99.332 270.131 99.163 269.542 99.163C269.1 99.163 268.714 99.2497 268.385 99.423C268.055 99.5963 267.8 99.852 267.618 100.19C267.444 100.528 267.358 100.948 267.358 101.451V105H266.11V98.11H267.306V99.969L267.111 99.475C267.336 99.0243 267.683 98.6733 268.151 98.422C268.619 98.1707 269.165 98.045 269.789 98.045ZM21.836 126.078C21.2467 126.078 20.7137 125.948 20.237 125.688C19.769 125.419 19.3963 125.025 19.119 124.505C18.8503 123.985 18.716 123.335 18.716 122.555C18.716 121.775 18.8547 121.125 19.132 120.605C19.418 120.085 19.795 119.695 20.263 119.435C20.7397 119.175 21.264 119.045 21.836 119.045C22.512 119.045 23.11 119.192 23.63 119.487C24.15 119.782 24.5617 120.193 24.865 120.722C25.1683 121.242 25.32 121.853 25.32 122.555C25.32 123.257 25.1683 123.872 24.865 124.401C24.5617 124.93 24.15 125.341 23.63 125.636C23.11 125.931 22.512 126.078 21.836 126.078ZM18.183 126V116.354H19.431V120.943L19.301 122.542L19.379 124.141V126H18.183ZM21.732 124.986C22.174 124.986 22.5683 124.886 22.915 124.687C23.2703 124.488 23.5477 124.206 23.747 123.842C23.955 123.469 24.059 123.04 24.059 122.555C24.059 122.061 23.955 121.636 23.747 121.281C23.5477 120.917 23.2703 120.635 22.915 120.436C22.5683 120.237 22.174 120.137 21.732 120.137C21.2987 120.137 20.9043 120.237 20.549 120.436C20.2023 120.635 19.925 120.917 19.717 121.281C19.5177 121.636 19.418 122.061 19.418 122.555C19.418 123.04 19.5177 123.469 19.717 123.842C19.925 124.206 20.2023 124.488 20.549 124.687C20.9043 124.886 21.2987 124.986 21.732 124.986ZM31.2579 126V124.544L31.1929 124.271V121.788C31.1929 121.259 31.0369 120.852 30.7249 120.566C30.4215 120.271 29.9622 120.124 29.3469 120.124C28.9395 120.124 28.5409 120.193 28.1509 120.332C27.7609 120.462 27.4315 120.64 27.1629 120.865L26.6429 119.929C26.9982 119.643 27.4229 119.426 27.9169 119.279C28.4195 119.123 28.9439 119.045 29.4899 119.045C30.4345 119.045 31.1625 119.275 31.6739 119.734C32.1852 120.193 32.4409 120.895 32.4409 121.84V126H31.2579ZM28.9959 126.078C28.4845 126.078 28.0339 125.991 27.6439 125.818C27.2625 125.645 26.9679 125.406 26.7599 125.103C26.5519 124.791 26.4479 124.44 26.4479 124.05C26.4479 123.677 26.5345 123.339 26.7079 123.036C26.8899 122.733 27.1802 122.49 27.5789 122.308C27.9862 122.126 28.5322 122.035 29.2169 122.035H31.4009V122.932H29.2689C28.6449 122.932 28.2245 123.036 28.0079 123.244C27.7912 123.452 27.6829 123.703 27.6829 123.998C27.6829 124.336 27.8172 124.609 28.0859 124.817C28.3545 125.016 28.7272 125.116 29.2039 125.116C29.6719 125.116 30.0792 125.012 30.4259 124.804C30.7812 124.596 31.0369 124.293 31.1929 123.894L31.4399 124.752C31.2752 125.159 30.9849 125.484 30.5689 125.727C30.1529 125.961 29.6285 126.078 28.9959 126.078ZM38.4294 119.045C38.9927 119.045 39.4867 119.153 39.9114 119.37C40.3447 119.587 40.6827 119.916 40.9254 120.358C41.1681 120.8 41.2894 121.359 41.2894 122.035V126H40.0414V122.178C40.0414 121.511 39.8767 121.008 39.5474 120.67C39.2267 120.332 38.7717 120.163 38.1824 120.163C37.7404 120.163 37.3547 120.25 37.0254 120.423C36.696 120.596 36.4404 120.852 36.2584 121.19C36.085 121.528 35.9984 121.948 35.9984 122.451V126H34.7504V119.11H35.9464V120.969L35.7514 120.475C35.9767 120.024 36.3234 119.673 36.7914 119.422C37.2594 119.171 37.8054 119.045 38.4294 119.045ZM45.965 126.078C45.2717 126.078 44.7343 125.892 44.353 125.519C43.9717 125.146 43.781 124.613 43.781 123.92V117.602H45.029V123.868C45.029 124.241 45.12 124.527 45.302 124.726C45.4927 124.925 45.7613 125.025 46.108 125.025C46.498 125.025 46.823 124.917 47.083 124.7L47.473 125.597C47.2823 125.762 47.0527 125.883 46.784 125.961C46.524 126.039 46.251 126.078 45.965 126.078ZM42.611 120.137V119.11H47.005V120.137H42.611ZM51.8808 126.078C51.2915 126.078 50.7715 125.97 50.3208 125.753C49.8788 125.536 49.5322 125.207 49.2808 124.765C49.0382 124.314 48.9168 123.751 48.9168 123.075V119.11H50.1648V122.932C50.1648 123.608 50.3252 124.115 50.6458 124.453C50.9752 124.791 51.4345 124.96 52.0238 124.96C52.4572 124.96 52.8342 124.873 53.1548 124.7C53.4755 124.518 53.7225 124.258 53.8958 123.92C54.0692 123.573 54.1558 123.157 54.1558 122.672V119.11H55.4038V126H54.2208V124.141L54.4158 124.635C54.1905 125.094 53.8525 125.45 53.4018 125.701C52.9512 125.952 52.4442 126.078 51.8808 126.078ZM62.0567 126V124.544L61.9917 124.271V121.788C61.9917 121.259 61.8357 120.852 61.5237 120.566C61.2203 120.271 60.761 120.124 60.1457 120.124C59.7383 120.124 59.3397 120.193 58.9497 120.332C58.5597 120.462 58.2303 120.64 57.9617 120.865L57.4417 119.929C57.797 119.643 58.2217 119.426 58.7157 119.279C59.2183 119.123 59.7427 119.045 60.2887 119.045C61.2333 119.045 61.9613 119.275 62.4727 119.734C62.984 120.193 63.2397 120.895 63.2397 121.84V126H62.0567ZM59.7947 126.078C59.2833 126.078 58.8327 125.991 58.4427 125.818C58.0613 125.645 57.7667 125.406 57.5587 125.103C57.3507 124.791 57.2467 124.44 57.2467 124.05C57.2467 123.677 57.3333 123.339 57.5067 123.036C57.6887 122.733 57.979 122.49 58.3777 122.308C58.785 122.126 59.331 122.035 60.0157 122.035H62.1997V122.932H60.0677C59.4437 122.932 59.0233 123.036 58.8067 123.244C58.59 123.452 58.4817 123.703 58.4817 123.998C58.4817 124.336 58.616 124.609 58.8847 124.817C59.1533 125.016 59.526 125.116 60.0027 125.116C60.4707 125.116 60.878 125.012 61.2247 124.804C61.58 124.596 61.8357 124.293 61.9917 123.894L62.2387 124.752C62.074 125.159 61.7837 125.484 61.3677 125.727C60.9517 125.961 60.4273 126.078 59.7947 126.078ZM69.2282 119.045C69.7915 119.045 70.2855 119.153 70.7102 119.37C71.1435 119.587 71.4815 119.916 71.7242 120.358C71.9669 120.8 72.0882 121.359 72.0882 122.035V126H70.8402V122.178C70.8402 121.511 70.6755 121.008 70.3462 120.67C70.0255 120.332 69.5705 120.163 68.9812 120.163C68.5392 120.163 68.1535 120.25 67.8242 120.423C67.4949 120.596 67.2392 120.852 67.0572 121.19C66.8839 121.528 66.7972 121.948 66.7972 122.451V126H65.5492V119.11H66.7452V120.969L66.5502 120.475C66.7755 120.024 67.1222 119.673 67.5902 119.422C68.0582 119.171 68.6042 119.045 69.2282 119.045ZM86.5081 119.045C87.0627 119.045 87.5524 119.153 87.9771 119.37C88.4017 119.587 88.7311 119.916 88.9651 120.358C89.2077 120.8 89.3291 121.359 89.3291 122.035V126H88.0811V122.178C88.0811 121.511 87.9251 121.008 87.6131 120.67C87.3011 120.332 86.8634 120.163 86.3001 120.163C85.8841 120.163 85.5201 120.25 85.2081 120.423C84.8961 120.596 84.6534 120.852 84.4801 121.19C84.3154 121.528 84.2331 121.948 84.2331 122.451V126H82.9851V122.178C82.9851 121.511 82.8291 121.008 82.5171 120.67C82.2137 120.332 81.7761 120.163 81.2041 120.163C80.7967 120.163 80.4371 120.25 80.1251 120.423C79.8131 120.596 79.5704 120.852 79.3971 121.19C79.2237 121.528 79.1371 121.948 79.1371 122.451V126H77.8891V119.11H79.0851V120.943L78.8901 120.475C79.1067 120.024 79.4404 119.673 79.8911 119.422C80.3417 119.171 80.8661 119.045 81.4641 119.045C82.1227 119.045 82.6904 119.21 83.1671 119.539C83.6437 119.86 83.9557 120.349 84.1031 121.008L83.5961 120.8C83.8041 120.271 84.1681 119.847 84.6881 119.526C85.2081 119.205 85.8147 119.045 86.5081 119.045ZM94.6934 126.078C93.9567 126.078 93.3067 125.926 92.7434 125.623C92.1887 125.32 91.7554 124.904 91.4434 124.375C91.14 123.846 90.9884 123.24 90.9884 122.555C90.9884 121.87 91.1357 121.264 91.4304 120.735C91.7337 120.206 92.1454 119.795 92.6654 119.5C93.194 119.197 93.7877 119.045 94.4464 119.045C95.1137 119.045 95.703 119.192 96.2144 119.487C96.7257 119.782 97.1244 120.198 97.4104 120.735C97.705 121.264 97.8524 121.883 97.8524 122.594C97.8524 122.646 97.848 122.707 97.8394 122.776C97.8394 122.845 97.835 122.91 97.8264 122.971H91.9634V122.074H97.1764L96.6694 122.386C96.678 121.944 96.587 121.55 96.3964 121.203C96.2057 120.856 95.9414 120.588 95.6034 120.397C95.274 120.198 94.8884 120.098 94.4464 120.098C94.013 120.098 93.6274 120.198 93.2894 120.397C92.9514 120.588 92.687 120.861 92.4964 121.216C92.3057 121.563 92.2104 121.961 92.2104 122.412V122.62C92.2104 123.079 92.3144 123.491 92.5224 123.855C92.739 124.21 93.038 124.488 93.4194 124.687C93.8007 124.886 94.2384 124.986 94.7324 124.986C95.1397 124.986 95.508 124.917 95.8374 124.778C96.1754 124.639 96.47 124.431 96.7214 124.154L97.4104 124.96C97.0984 125.324 96.7084 125.601 96.2404 125.792C95.781 125.983 95.2654 126.078 94.6934 126.078ZM99.5853 126V119.11H100.781V120.982L100.664 120.514C100.855 120.037 101.176 119.673 101.626 119.422C102.077 119.171 102.632 119.045 103.29 119.045V120.254C103.238 120.245 103.186 120.241 103.134 120.241C103.091 120.241 103.048 120.241 103.004 120.241C102.337 120.241 101.808 120.44 101.418 120.839C101.028 121.238 100.833 121.814 100.833 122.568V126H99.5853ZM107.833 126.078C107.096 126.078 106.446 125.926 105.883 125.623C105.328 125.32 104.895 124.904 104.583 124.375C104.28 123.846 104.128 123.24 104.128 122.555C104.128 121.87 104.275 121.264 104.57 120.735C104.873 120.206 105.285 119.795 105.805 119.5C106.334 119.197 106.927 119.045 107.586 119.045C108.253 119.045 108.843 119.192 109.354 119.487C109.865 119.782 110.264 120.198 110.55 120.735C110.845 121.264 110.992 121.883 110.992 122.594C110.992 122.646 110.988 122.707 110.979 122.776C110.979 122.845 110.975 122.91 110.966 122.971H105.103V122.074H110.316L109.809 122.386C109.818 121.944 109.727 121.55 109.536 121.203C109.345 120.856 109.081 120.588 108.743 120.397C108.414 120.198 108.028 120.098 107.586 120.098C107.153 120.098 106.767 120.198 106.429 120.397C106.091 120.588 105.827 120.861 105.636 121.216C105.445 121.563 105.35 121.961 105.35 122.412V122.62C105.35 123.079 105.454 123.491 105.662 123.855C105.879 124.21 106.178 124.488 106.559 124.687C106.94 124.886 107.378 124.986 107.872 124.986C108.279 124.986 108.648 124.917 108.977 124.778C109.315 124.639 109.61 124.431 109.861 124.154L110.55 124.96C110.238 125.324 109.848 125.601 109.38 125.792C108.921 125.983 108.405 126.078 107.833 126.078ZM113.739 124.336L113.765 122.737L117.73 119.11H119.238L116.196 122.1L115.52 122.672L113.739 124.336ZM112.725 126V116.354H113.973V126H112.725ZM117.99 126L115.286 122.646L116.092 121.645L119.524 126H117.99ZM124.886 126V124.544L124.821 124.271V121.788C124.821 121.259 124.665 120.852 124.353 120.566C124.049 120.271 123.59 120.124 122.975 120.124C122.567 120.124 122.169 120.193 121.779 120.332C121.389 120.462 121.059 120.64 120.791 120.865L120.271 119.929C120.626 119.643 121.051 119.426 121.545 119.279C122.047 119.123 122.572 119.045 123.118 119.045C124.062 119.045 124.79 119.275 125.302 119.734C125.813 120.193 126.069 120.895 126.069 121.84V126H124.886ZM122.624 126.078C122.112 126.078 121.662 125.991 121.272 125.818C120.89 125.645 120.596 125.406 120.388 125.103C120.18 124.791 120.076 124.44 120.076 124.05C120.076 123.677 120.162 123.339 120.336 123.036C120.518 122.733 120.808 122.49 121.207 122.308C121.614 122.126 122.16 122.035 122.845 122.035H125.029V122.932H122.897C122.273 122.932 121.852 123.036 121.636 123.244C121.419 123.452 121.311 123.703 121.311 123.998C121.311 124.336 121.445 124.609 121.714 124.817C121.982 125.016 122.355 125.116 122.832 125.116C123.3 125.116 123.707 125.012 124.054 124.804C124.409 124.596 124.665 124.293 124.821 123.894L125.068 124.752C124.903 125.159 124.613 125.484 124.197 125.727C123.781 125.961 123.256 126.078 122.624 126.078ZM128.677 126.078C128.435 126.078 128.227 125.996 128.053 125.831C127.88 125.658 127.793 125.441 127.793 125.181C127.793 124.921 127.88 124.709 128.053 124.544C128.227 124.379 128.435 124.297 128.677 124.297C128.911 124.297 129.111 124.379 129.275 124.544C129.449 124.709 129.535 124.921 129.535 125.181C129.535 125.441 129.449 125.658 129.275 125.831C129.111 125.996 128.911 126.078 128.677 126.078Z" fill="white" fill-opacity="0.8"/>
<circle cx="37" cy="36" r="20" fill="white" fill-opacity="0.1"/>
<path d="M44.965 32.521C44.988 32.347 45 32.173 45 32C45 29.621 42.857 27.712 40.479 28.035C39.786 26.802 38.466 26 37 26C35.534 26 34.214 26.802 33.521 28.035C31.138 27.712 29 29.621 29 32C29 32.173 29.012 32.347 29.035 32.521C27.802 33.215 27 34.535 27 36C27 37.465 27.802 38.785 29.035 39.479C29.0119 39.6517 29.0002 39.8258 29 40C29 42.379 31.138 44.283 33.521 43.965C34.214 45.198 35.534 46 37 46C38.466 46 39.786 45.198 40.479 43.965C42.857 44.283 45 42.379 45 40C45 39.827 44.988 39.653 44.965 39.479C46.198 38.785 47 37.465 47 36C47 34.535 46.198 33.215 44.965 32.521ZM35.955 40.416L32.288 36.702L33.712 35.298L35.969 37.584L40.296 33.29L41.704 34.71L35.955 40.416Z" fill="white" fill-opacity="0.5"/>
</svg>
