<svg width="300" height="160" viewBox="0 0 300 160" fill="none" xmlns="http://www.w3.org/2000/svg">
<rect width="300" height="160" rx="10" fill="#0C0E12"/>
<rect x="1" y="1" width="298" height="158" rx="9" stroke="white" stroke-opacity="0.07" stroke-width="2"/>
<path d="M76.2 39.7L76.06 36.62L83.4 29H86.32L80.22 35.48L78.78 37.06L76.2 39.7ZM73.88 43V29H76.48V43H73.88ZM83.64 43L78.28 36.62L80 34.72L86.68 43H83.64ZM92.7616 43.14C91.5749 43.14 90.5349 42.9067 89.6416 42.44C88.7616 41.96 88.0749 41.3067 87.5816 40.48C87.1016 39.6533 86.8616 38.7133 86.8616 37.66C86.8616 36.5933 87.0949 35.6533 87.5616 34.84C88.0416 34.0133 88.6949 33.3667 89.5216 32.9C90.3616 32.4333 91.3149 32.2 92.3816 32.2C93.4216 32.2 94.3482 32.4267 95.1616 32.88C95.9749 33.3333 96.6149 33.9733 97.0816 34.8C97.5482 35.6267 97.7816 36.6 97.7816 37.72C97.7816 37.8267 97.7749 37.9467 97.7616 38.08C97.7616 38.2133 97.7549 38.34 97.7416 38.46H88.8416V36.8H96.4216L95.4416 37.32C95.4549 36.7067 95.3282 36.1667 95.0616 35.7C94.7949 35.2333 94.4282 34.8667 93.9616 34.6C93.5082 34.3333 92.9816 34.2 92.3816 34.2C91.7682 34.2 91.2282 34.3333 90.7616 34.6C90.3082 34.8667 89.9482 35.24 89.6816 35.72C89.4282 36.1867 89.3016 36.74 89.3016 37.38V37.78C89.3016 38.42 89.4482 38.9867 89.7416 39.48C90.0349 39.9733 90.4482 40.3533 90.9816 40.62C91.5149 40.8867 92.1282 41.02 92.8216 41.02C93.4216 41.02 93.9616 40.9267 94.4416 40.74C94.9216 40.5533 95.3482 40.26 95.7216 39.86L97.0616 41.4C96.5816 41.96 95.9749 42.3933 95.2416 42.7C94.5216 42.9933 93.6949 43.14 92.7616 43.14ZM106.47 43V40.84L106.33 40.38V36.6C106.33 35.8667 106.11 35.3 105.67 34.9C105.23 34.4867 104.563 34.28 103.67 34.28C103.07 34.28 102.477 34.3733 101.89 34.56C101.317 34.7467 100.83 35.0067 100.43 35.34L99.45 33.52C100.023 33.08 100.703 32.7533 101.49 32.54C102.29 32.3133 103.117 32.2 103.97 32.2C105.517 32.2 106.71 32.5733 107.55 33.32C108.403 34.0533 108.83 35.1933 108.83 36.74V43H106.47ZM103.11 43.14C102.31 43.14 101.61 43.0067 101.01 42.74C100.41 42.46 99.9433 42.08 99.61 41.6C99.29 41.1067 99.13 40.5533 99.13 39.94C99.13 39.34 99.27 38.8 99.55 38.32C99.8433 37.84 100.317 37.46 100.97 37.18C101.623 36.9 102.49 36.76 103.57 36.76H106.67V38.42H103.75C102.897 38.42 102.323 38.56 102.03 38.84C101.737 39.1067 101.59 39.44 101.59 39.84C101.59 40.2933 101.77 40.6533 102.13 40.92C102.49 41.1867 102.99 41.32 103.63 41.32C104.243 41.32 104.79 41.18 105.27 40.9C105.763 40.62 106.117 40.2067 106.33 39.66L106.75 41.16C106.51 41.7867 106.077 42.2733 105.45 42.62C104.837 42.9667 104.057 43.14 103.11 43.14ZM125.518 32.2C126.372 32.2 127.125 32.3667 127.778 32.7C128.445 33.0333 128.965 33.5467 129.338 34.24C129.712 34.92 129.898 35.8 129.898 36.88V43H127.398V37.2C127.398 36.2533 127.192 35.5467 126.778 35.08C126.365 34.6133 125.772 34.38 124.998 34.38C124.452 34.38 123.965 34.5 123.538 34.74C123.125 34.98 122.798 35.3333 122.558 35.8C122.332 36.2667 122.218 36.86 122.218 37.58V43H119.718V37.2C119.718 36.2533 119.512 35.5467 119.098 35.08C118.685 34.6133 118.092 34.38 117.318 34.38C116.772 34.38 116.285 34.5 115.858 34.74C115.445 34.98 115.118 35.3333 114.878 35.8C114.652 36.2667 114.538 36.86 114.538 37.58V43H112.038V32.32H114.418V35.16L113.998 34.32C114.358 33.6267 114.878 33.1 115.558 32.74C116.252 32.38 117.038 32.2 117.918 32.2C118.918 32.2 119.785 32.4467 120.518 32.94C121.265 33.4333 121.758 34.18 121.998 35.18L121.018 34.84C121.365 34.04 121.938 33.4 122.738 32.92C123.538 32.44 124.465 32.2 125.518 32.2ZM139.673 43V40.84L139.533 40.38V36.6C139.533 35.8667 139.313 35.3 138.873 34.9C138.433 34.4867 137.766 34.28 136.873 34.28C136.273 34.28 135.68 34.3733 135.093 34.56C134.52 34.7467 134.033 35.0067 133.633 35.34L132.653 33.52C133.226 33.08 133.906 32.7533 134.693 32.54C135.493 32.3133 136.32 32.2 137.173 32.2C138.72 32.2 139.913 32.5733 140.753 33.32C141.606 34.0533 142.033 35.1933 142.033 36.74V43H139.673ZM136.313 43.14C135.513 43.14 134.813 43.0067 134.213 42.74C133.613 42.46 133.146 42.08 132.813 41.6C132.493 41.1067 132.333 40.5533 132.333 39.94C132.333 39.34 132.473 38.8 132.753 38.32C133.046 37.84 133.52 37.46 134.173 37.18C134.826 36.9 135.693 36.76 136.773 36.76H139.873V38.42H136.953C136.1 38.42 135.526 38.56 135.233 38.84C134.94 39.1067 134.793 39.44 134.793 39.84C134.793 40.2933 134.973 40.6533 135.333 40.92C135.693 41.1867 136.193 41.32 136.833 41.32C137.446 41.32 137.993 41.18 138.473 40.9C138.966 40.62 139.32 40.2067 139.533 39.66L139.953 41.16C139.713 41.7867 139.28 42.2733 138.653 42.62C138.04 42.9667 137.26 43.14 136.313 43.14ZM151.302 32.2C152.155 32.2 152.915 32.3667 153.582 32.7C154.262 33.0333 154.795 33.5467 155.182 34.24C155.568 34.92 155.762 35.8 155.762 36.88V43H153.262V37.2C153.262 36.2533 153.035 35.5467 152.582 35.08C152.142 34.6133 151.522 34.38 150.722 34.38C150.135 34.38 149.615 34.5 149.162 34.74C148.708 34.98 148.355 35.34 148.102 35.82C147.862 36.2867 147.742 36.88 147.742 37.6V43H145.242V32.32H147.622V35.2L147.202 34.32C147.575 33.64 148.115 33.12 148.822 32.76C149.542 32.3867 150.368 32.2 151.302 32.2ZM165.513 43V40.84L165.373 40.38V36.6C165.373 35.8667 165.153 35.3 164.713 34.9C164.273 34.4867 163.606 34.28 162.713 34.28C162.113 34.28 161.52 34.3733 160.933 34.56C160.36 34.7467 159.873 35.0067 159.473 35.34L158.493 33.52C159.066 33.08 159.746 32.7533 160.533 32.54C161.333 32.3133 162.16 32.2 163.013 32.2C164.56 32.2 165.753 32.5733 166.593 33.32C167.446 34.0533 167.873 35.1933 167.873 36.74V43H165.513ZM162.153 43.14C161.353 43.14 160.653 43.0067 160.053 42.74C159.453 42.46 158.986 42.08 158.653 41.6C158.333 41.1067 158.173 40.5533 158.173 39.94C158.173 39.34 158.313 38.8 158.593 38.32C158.886 37.84 159.36 37.46 160.013 37.18C160.666 36.9 161.533 36.76 162.613 36.76H165.713V38.42H162.793C161.94 38.42 161.366 38.56 161.073 38.84C160.78 39.1067 160.633 39.44 160.633 39.84C160.633 40.2933 160.813 40.6533 161.173 40.92C161.533 41.1867 162.033 41.32 162.673 41.32C163.286 41.32 163.833 41.18 164.313 40.9C164.806 40.62 165.16 40.2067 165.373 39.66L165.793 41.16C165.553 41.7867 165.12 42.2733 164.493 42.62C163.88 42.9667 163.1 43.14 162.153 43.14ZM177.141 32.2C177.995 32.2 178.755 32.3667 179.421 32.7C180.101 33.0333 180.635 33.5467 181.021 34.24C181.408 34.92 181.601 35.8 181.601 36.88V43H179.101V37.2C179.101 36.2533 178.875 35.5467 178.421 35.08C177.981 34.6133 177.361 34.38 176.561 34.38C175.975 34.38 175.455 34.5 175.001 34.74C174.548 34.98 174.195 35.34 173.941 35.82C173.701 36.2867 173.581 36.88 173.581 37.6V43H171.081V32.32H173.461V35.2L173.041 34.32C173.415 33.64 173.955 33.12 174.661 32.76C175.381 32.3867 176.208 32.2 177.141 32.2ZM190.54 43V29H196.66C198.18 29 199.513 29.2933 200.66 29.88C201.807 30.4667 202.7 31.28 203.34 32.32C203.98 33.36 204.3 34.5867 204.3 36C204.3 37.4 203.98 38.6267 203.34 39.68C202.7 40.72 201.807 41.5333 200.66 42.12C199.513 42.7067 198.18 43 196.66 43H190.54ZM193.14 40.8H196.54C197.593 40.8 198.5 40.6 199.26 40.2C200.033 39.8 200.627 39.24 201.04 38.52C201.467 37.8 201.68 36.96 201.68 36C201.68 35.0267 201.467 34.1867 201.04 33.48C200.627 32.76 200.033 32.2 199.26 31.8C198.5 31.4 197.593 31.2 196.54 31.2H193.14V40.8ZM213.404 43V40.84L213.264 40.38V36.6C213.264 35.8667 213.044 35.3 212.604 34.9C212.164 34.4867 211.497 34.28 210.604 34.28C210.004 34.28 209.41 34.3733 208.824 34.56C208.25 34.7467 207.764 35.0067 207.364 35.34L206.384 33.52C206.957 33.08 207.637 32.7533 208.424 32.54C209.224 32.3133 210.05 32.2 210.904 32.2C212.45 32.2 213.644 32.5733 214.484 33.32C215.337 34.0533 215.764 35.1933 215.764 36.74V43H213.404ZM210.044 43.14C209.244 43.14 208.544 43.0067 207.944 42.74C207.344 42.46 206.877 42.08 206.544 41.6C206.224 41.1067 206.064 40.5533 206.064 39.94C206.064 39.34 206.204 38.8 206.484 38.32C206.777 37.84 207.25 37.46 207.904 37.18C208.557 36.9 209.424 36.76 210.504 36.76H213.604V38.42H210.684C209.83 38.42 209.257 38.56 208.964 38.84C208.67 39.1067 208.524 39.44 208.524 39.84C208.524 40.2933 208.704 40.6533 209.064 40.92C209.424 41.1867 209.924 41.32 210.564 41.32C211.177 41.32 211.724 41.18 212.204 40.9C212.697 40.62 213.05 40.2067 213.264 39.66L213.684 41.16C213.444 41.7867 213.01 42.2733 212.384 42.62C211.77 42.9667 210.99 43.14 210.044 43.14ZM222.992 43.14C221.819 43.14 220.912 42.84 220.272 42.24C219.632 41.6267 219.312 40.7267 219.312 39.54V29.96H221.812V39.48C221.812 39.9867 221.939 40.38 222.192 40.66C222.459 40.94 222.825 41.08 223.292 41.08C223.852 41.08 224.319 40.9333 224.692 40.64L225.392 42.42C225.099 42.66 224.739 42.84 224.312 42.96C223.885 43.08 223.445 43.14 222.992 43.14ZM217.552 34.4V32.4H224.672V34.4H217.552ZM234.029 43V40.84L233.889 40.38V36.6C233.889 35.8667 233.669 35.3 233.229 34.9C232.789 34.4867 232.122 34.28 231.229 34.28C230.629 34.28 230.035 34.3733 229.449 34.56C228.875 34.7467 228.389 35.0067 227.989 35.34L227.009 33.52C227.582 33.08 228.262 32.7533 229.049 32.54C229.849 32.3133 230.675 32.2 231.529 32.2C233.075 32.2 234.269 32.5733 235.109 33.32C235.962 34.0533 236.389 35.1933 236.389 36.74V43H234.029ZM230.669 43.14C229.869 43.14 229.169 43.0067 228.569 42.74C227.969 42.46 227.502 42.08 227.169 41.6C226.849 41.1067 226.689 40.5533 226.689 39.94C226.689 39.34 226.829 38.8 227.109 38.32C227.402 37.84 227.875 37.46 228.529 37.18C229.182 36.9 230.049 36.76 231.129 36.76H234.229V38.42H231.309C230.455 38.42 229.882 38.56 229.589 38.84C229.295 39.1067 229.149 39.44 229.149 39.84C229.149 40.2933 229.329 40.6533 229.689 40.92C230.049 41.1867 230.549 41.32 231.189 41.32C231.802 41.32 232.349 41.18 232.829 40.9C233.322 40.62 233.675 40.2067 233.889 39.66L234.309 41.16C234.069 41.7867 233.635 42.2733 233.009 42.62C232.395 42.9667 231.615 43.14 230.669 43.14Z" fill="white"/>
<path d="M21.017 84.104C20.3237 84.104 19.6607 84 19.028 83.792C18.3953 83.5753 17.897 83.298 17.533 82.96L18.014 81.946C18.3607 82.2493 18.8027 82.5007 19.34 82.7C19.8773 82.8993 20.4363 82.999 21.017 82.999C21.5457 82.999 21.9747 82.9383 22.304 82.817C22.6333 82.6957 22.876 82.531 23.032 82.323C23.188 82.1063 23.266 81.8637 23.266 81.595C23.266 81.283 23.162 81.0317 22.954 80.841C22.7547 80.6503 22.4903 80.4987 22.161 80.386C21.8403 80.2647 21.485 80.1607 21.095 80.074C20.705 79.9873 20.3107 79.8877 19.912 79.775C19.522 79.6537 19.1623 79.502 18.833 79.32C18.5123 79.138 18.2523 78.8953 18.053 78.592C17.8537 78.28 17.754 77.8813 17.754 77.396C17.754 76.928 17.8753 76.499 18.118 76.109C18.3693 75.7103 18.7507 75.394 19.262 75.16C19.782 74.9173 20.4407 74.796 21.238 74.796C21.7667 74.796 22.291 74.8653 22.811 75.004C23.331 75.1427 23.7817 75.342 24.163 75.602L23.734 76.642C23.344 76.382 22.9323 76.1957 22.499 76.083C22.0657 75.9617 21.6453 75.901 21.238 75.901C20.7267 75.901 20.3063 75.966 19.977 76.096C19.6477 76.226 19.405 76.3993 19.249 76.616C19.1017 76.8327 19.028 77.0753 19.028 77.344C19.028 77.6647 19.1277 77.9203 19.327 78.111C19.535 78.3017 19.7993 78.4533 20.12 78.566C20.4493 78.6787 20.809 78.7827 21.199 78.878C21.589 78.9647 21.979 79.0643 22.369 79.177C22.7677 79.2897 23.1273 79.437 23.448 79.619C23.7773 79.801 24.0417 80.0437 24.241 80.347C24.4403 80.6503 24.54 81.0403 24.54 81.517C24.54 81.9763 24.4143 82.4053 24.163 82.804C23.9117 83.194 23.5217 83.5103 22.993 83.753C22.473 83.987 21.8143 84.104 21.017 84.104ZM29.3252 84.078C28.5886 84.078 27.9386 83.9263 27.3752 83.623C26.8206 83.3197 26.3872 82.9037 26.0752 82.375C25.7719 81.8463 25.6202 81.2397 25.6202 80.555C25.6202 79.8703 25.7676 79.2637 26.0622 78.735C26.3656 78.2063 26.7772 77.7947 27.2972 77.5C27.8259 77.1967 28.4196 77.045 29.0782 77.045C29.7456 77.045 30.3349 77.1923 30.8462 77.487C31.3576 77.7817 31.7562 78.1977 32.0422 78.735C32.3369 79.2637 32.4842 79.8833 32.4842 80.594C32.4842 80.646 32.4799 80.7067 32.4712 80.776C32.4712 80.8453 32.4669 80.9103 32.4582 80.971H26.5952V80.074H31.8082L31.3012 80.386C31.3099 79.944 31.2189 79.5497 31.0282 79.203C30.8376 78.8563 30.5732 78.5877 30.2352 78.397C29.9059 78.1977 29.5202 78.098 29.0782 78.098C28.6449 78.098 28.2592 78.1977 27.9212 78.397C27.5832 78.5877 27.3189 78.8607 27.1282 79.216C26.9376 79.5627 26.8422 79.9613 26.8422 80.412V80.62C26.8422 81.0793 26.9462 81.491 27.1542 81.855C27.3709 82.2103 27.6699 82.4877 28.0512 82.687C28.4326 82.8863 28.8702 82.986 29.3642 82.986C29.7716 82.986 30.1399 82.9167 30.4692 82.778C30.8072 82.6393 31.1019 82.4313 31.3532 82.154L32.0422 82.96C31.7302 83.324 31.3402 83.6013 30.8722 83.792C30.4129 83.9827 29.8972 84.078 29.3252 84.078ZM37.8962 77.045C38.4595 77.045 38.9535 77.1533 39.3782 77.37C39.8115 77.5867 40.1495 77.916 40.3922 78.358C40.6348 78.8 40.7562 79.359 40.7562 80.035V84H39.5082V80.178C39.5082 79.5107 39.3435 79.008 39.0142 78.67C38.6935 78.332 38.2385 78.163 37.6492 78.163C37.2072 78.163 36.8215 78.2497 36.4922 78.423C36.1628 78.5963 35.9072 78.852 35.7252 79.19C35.5518 79.528 35.4652 79.9483 35.4652 80.451V84H34.2172V77.11H35.4132V78.969L35.2182 78.475C35.4435 78.0243 35.7902 77.6733 36.2582 77.422C36.7262 77.1707 37.2722 77.045 37.8962 77.045ZM45.4318 84.078C44.7385 84.078 44.2011 83.8917 43.8198 83.519C43.4385 83.1463 43.2478 82.6133 43.2478 81.92V75.602H44.4958V81.868C44.4958 82.2407 44.5868 82.5267 44.7688 82.726C44.9595 82.9253 45.2281 83.025 45.5748 83.025C45.9648 83.025 46.2898 82.9167 46.5498 82.7L46.9398 83.597C46.7491 83.7617 46.5195 83.883 46.2508 83.961C45.9908 84.039 45.7178 84.078 45.4318 84.078ZM42.0778 78.137V77.11H46.4718V78.137H42.0778ZM48.4486 84V77.11H49.6446V78.982L49.5276 78.514C49.7183 78.0373 50.039 77.6733 50.4896 77.422C50.9403 77.1707 51.495 77.045 52.1536 77.045V78.254C52.1016 78.2453 52.0496 78.241 51.9976 78.241C51.9543 78.241 51.911 78.241 51.8676 78.241C51.2003 78.241 50.6716 78.4403 50.2816 78.839C49.8916 79.2377 49.6966 79.814 49.6966 80.568V84H48.4486ZM57.461 84V82.544L57.396 82.271V79.788C57.396 79.2593 57.24 78.852 56.928 78.566C56.6246 78.2713 56.1653 78.124 55.55 78.124C55.1426 78.124 54.744 78.1933 54.354 78.332C53.964 78.462 53.6346 78.6397 53.366 78.865L52.846 77.929C53.2013 77.643 53.626 77.4263 54.12 77.279C54.6226 77.123 55.147 77.045 55.693 77.045C56.6376 77.045 57.3656 77.2747 57.877 77.734C58.3883 78.1933 58.644 78.8953 58.644 79.84V84H57.461ZM55.199 84.078C54.6876 84.078 54.237 83.9913 53.847 83.818C53.4656 83.6447 53.171 83.4063 52.963 83.103C52.755 82.791 52.651 82.44 52.651 82.05C52.651 81.6773 52.7376 81.3393 52.911 81.036C53.093 80.7327 53.3833 80.49 53.782 80.308C54.1893 80.126 54.7353 80.035 55.42 80.035H57.604V80.932H55.472C54.848 80.932 54.4276 81.036 54.211 81.244C53.9943 81.452 53.886 81.7033 53.886 81.998C53.886 82.336 54.0203 82.609 54.289 82.817C54.5576 83.0163 54.9303 83.116 55.407 83.116C55.875 83.116 56.2823 83.012 56.629 82.804C56.9843 82.596 57.24 82.2927 57.396 81.894L57.643 82.752C57.4783 83.1593 57.188 83.4843 56.772 83.727C56.356 83.961 55.8316 84.078 55.199 84.078ZM64.6267 84V74.9H68.4617C69.4324 74.9 70.2861 75.0907 71.0227 75.472C71.7681 75.8533 72.3444 76.3863 72.7517 77.071C73.1677 77.7557 73.3757 78.5487 73.3757 79.45C73.3757 80.3513 73.1677 81.1443 72.7517 81.829C72.3444 82.5137 71.7681 83.0467 71.0227 83.428C70.2861 83.8093 69.4324 84 68.4617 84H64.6267ZM65.9267 82.869H68.3837C69.1377 82.869 69.7877 82.726 70.3337 82.44C70.8884 82.154 71.3174 81.7553 71.6207 81.244C71.9241 80.724 72.0757 80.126 72.0757 79.45C72.0757 78.7653 71.9241 78.1673 71.6207 77.656C71.3174 77.1447 70.8884 76.746 70.3337 76.46C69.7877 76.174 69.1377 76.031 68.3837 76.031H65.9267V82.869ZM79.462 84V82.544L79.397 82.271V79.788C79.397 79.2593 79.241 78.852 78.929 78.566C78.6256 78.2713 78.1663 78.124 77.551 78.124C77.1436 78.124 76.745 78.1933 76.355 78.332C75.965 78.462 75.6356 78.6397 75.367 78.865L74.847 77.929C75.2023 77.643 75.627 77.4263 76.121 77.279C76.6236 77.123 77.148 77.045 77.694 77.045C78.6386 77.045 79.3666 77.2747 79.878 77.734C80.3893 78.1933 80.645 78.8953 80.645 79.84V84H79.462ZM77.2 84.078C76.6886 84.078 76.238 83.9913 75.848 83.818C75.4666 83.6447 75.172 83.4063 74.964 83.103C74.756 82.791 74.652 82.44 74.652 82.05C74.652 81.6773 74.7386 81.3393 74.912 81.036C75.094 80.7327 75.3843 80.49 75.783 80.308C76.1903 80.126 76.7363 80.035 77.421 80.035H79.605V80.932H77.473C76.849 80.932 76.4286 81.036 76.212 81.244C75.9953 81.452 75.887 81.7033 75.887 81.998C75.887 82.336 76.0213 82.609 76.29 82.817C76.5586 83.0163 76.9313 83.116 77.408 83.116C77.876 83.116 78.2833 83.012 78.63 82.804C78.9853 82.596 79.241 82.2927 79.397 81.894L79.644 82.752C79.4793 83.1593 79.189 83.4843 78.773 83.727C78.357 83.961 77.8326 84.078 77.2 84.078ZM82.9545 84V77.11H84.1505V78.982L84.0335 78.514C84.2242 78.0373 84.5448 77.6733 84.9955 77.422C85.4462 77.1707 86.0008 77.045 86.6595 77.045V78.254C86.6075 78.2453 86.5555 78.241 86.5035 78.241C86.4602 78.241 86.4168 78.241 86.3735 78.241C85.7062 78.241 85.1775 78.4403 84.7875 78.839C84.3975 79.2377 84.2025 79.814 84.2025 80.568V84H82.9545ZM91.1855 84.078C90.5962 84.078 90.0762 83.9697 89.6255 83.753C89.1835 83.5363 88.8368 83.207 88.5855 82.765C88.3428 82.3143 88.2215 81.751 88.2215 81.075V77.11H89.4695V80.932C89.4695 81.608 89.6298 82.115 89.9505 82.453C90.2798 82.791 90.7392 82.96 91.3285 82.96C91.7618 82.96 92.1388 82.8733 92.4595 82.7C92.7802 82.518 93.0272 82.258 93.2005 81.92C93.3738 81.5733 93.4605 81.1573 93.4605 80.672V77.11H94.7085V84H93.5255V82.141L93.7205 82.635C93.4952 83.0943 93.1572 83.4497 92.7065 83.701C92.2558 83.9523 91.7488 84.078 91.1855 84.078ZM97.0844 84V77.11H98.2804V78.982L98.1634 78.514C98.354 78.0373 98.6747 77.6733 99.1254 77.422C99.576 77.1707 100.131 77.045 100.789 77.045V78.254C100.737 78.2453 100.685 78.241 100.633 78.241C100.59 78.241 100.547 78.241 100.503 78.241C99.836 78.241 99.3074 78.4403 98.9174 78.839C98.5274 79.2377 98.3324 79.814 98.3324 80.568V84H97.0844ZM106.097 84V82.544L106.032 82.271V79.788C106.032 79.2593 105.876 78.852 105.564 78.566C105.26 78.2713 104.801 78.124 104.186 78.124C103.778 78.124 103.38 78.1933 102.99 78.332C102.6 78.462 102.27 78.6397 102.002 78.865L101.482 77.929C101.837 77.643 102.262 77.4263 102.756 77.279C103.258 77.123 103.783 77.045 104.329 77.045C105.273 77.045 106.001 77.2747 106.513 77.734C107.024 78.1933 107.28 78.8953 107.28 79.84V84H106.097ZM103.835 84.078C103.323 84.078 102.873 83.9913 102.483 83.818C102.101 83.6447 101.807 83.4063 101.599 83.103C101.391 82.791 101.287 82.44 101.287 82.05C101.287 81.6773 101.373 81.3393 101.547 81.036C101.729 80.7327 102.019 80.49 102.418 80.308C102.825 80.126 103.371 80.035 104.056 80.035H106.24V80.932H104.108C103.484 80.932 103.063 81.036 102.847 81.244C102.63 81.452 102.522 81.7033 102.522 81.998C102.522 82.336 102.656 82.609 102.925 82.817C103.193 83.0163 103.566 83.116 104.043 83.116C104.511 83.116 104.918 83.012 105.265 82.804C105.62 82.596 105.876 82.2927 106.032 81.894L106.279 82.752C106.114 83.1593 105.824 83.4843 105.408 83.727C104.992 83.961 104.467 84.078 103.835 84.078ZM111.955 84.078C111.262 84.078 110.725 83.8917 110.343 83.519C109.962 83.1463 109.771 82.6133 109.771 81.92V75.602H111.019V81.868C111.019 82.2407 111.11 82.5267 111.292 82.726C111.483 82.9253 111.752 83.025 112.098 83.025C112.488 83.025 112.813 82.9167 113.073 82.7L113.463 83.597C113.273 83.7617 113.043 83.883 112.774 83.961C112.514 84.039 112.241 84.078 111.955 84.078ZM108.601 78.137V77.11H112.995V78.137H108.601ZM127.082 77.045C127.637 77.045 128.127 77.1533 128.551 77.37C128.976 77.5867 129.305 77.916 129.539 78.358C129.782 78.8 129.903 79.359 129.903 80.035V84H128.655V80.178C128.655 79.5107 128.499 79.008 128.187 78.67C127.875 78.332 127.438 78.163 126.874 78.163C126.458 78.163 126.094 78.2497 125.782 78.423C125.47 78.5963 125.228 78.852 125.054 79.19C124.89 79.528 124.807 79.9483 124.807 80.451V84H123.559V80.178C123.559 79.5107 123.403 79.008 123.091 78.67C122.788 78.332 122.35 78.163 121.778 78.163C121.371 78.163 121.011 78.2497 120.699 78.423C120.387 78.5963 120.145 78.852 119.971 79.19C119.798 79.528 119.711 79.9483 119.711 80.451V84H118.463V77.11H119.659V78.943L119.464 78.475C119.681 78.0243 120.015 77.6733 120.465 77.422C120.916 77.1707 121.44 77.045 122.038 77.045C122.697 77.045 123.265 77.2097 123.741 77.539C124.218 77.8597 124.53 78.3493 124.677 79.008L124.17 78.8C124.378 78.2713 124.742 77.8467 125.262 77.526C125.782 77.2053 126.389 77.045 127.082 77.045ZM135.268 84.078C134.531 84.078 133.881 83.9263 133.318 83.623C132.763 83.3197 132.33 82.9037 132.018 82.375C131.714 81.8463 131.563 81.2397 131.563 80.555C131.563 79.8703 131.71 79.2637 132.005 78.735C132.308 78.2063 132.72 77.7947 133.24 77.5C133.768 77.1967 134.362 77.045 135.021 77.045C135.688 77.045 136.277 77.1923 136.789 77.487C137.3 77.7817 137.699 78.1977 137.985 78.735C138.279 79.2637 138.427 79.8833 138.427 80.594C138.427 80.646 138.422 80.7067 138.414 80.776C138.414 80.8453 138.409 80.9103 138.401 80.971H132.538V80.074H137.751L137.244 80.386C137.252 79.944 137.161 79.5497 136.971 79.203C136.78 78.8563 136.516 78.5877 136.178 78.397C135.848 78.1977 135.463 78.098 135.021 78.098C134.587 78.098 134.202 78.1977 133.864 78.397C133.526 78.5877 133.261 78.8607 133.071 79.216C132.88 79.5627 132.785 79.9613 132.785 80.412V80.62C132.785 81.0793 132.889 81.491 133.097 81.855C133.313 82.2103 133.612 82.4877 133.994 82.687C134.375 82.8863 134.813 82.986 135.307 82.986C135.714 82.986 136.082 82.9167 136.412 82.778C136.75 82.6393 137.044 82.4313 137.296 82.154L137.985 82.96C137.673 83.324 137.283 83.6013 136.815 83.792C136.355 83.9827 135.84 84.078 135.268 84.078ZM143.839 77.045C144.402 77.045 144.896 77.1533 145.321 77.37C145.754 77.5867 146.092 77.916 146.335 78.358C146.577 78.8 146.699 79.359 146.699 80.035V84H145.451V80.178C145.451 79.5107 145.286 79.008 144.957 78.67C144.636 78.332 144.181 78.163 143.592 78.163C143.15 78.163 142.764 78.2497 142.435 78.423C142.105 78.5963 141.85 78.852 141.668 79.19C141.494 79.528 141.408 79.9483 141.408 80.451V84H140.16V77.11H141.356V78.969L141.161 78.475C141.386 78.0243 141.733 77.6733 142.201 77.422C142.669 77.1707 143.215 77.045 143.839 77.045ZM148.124 86.6C147.838 86.6 147.565 86.5653 147.305 86.496C147.037 86.4267 146.811 86.3227 146.629 86.184L147.032 85.222C147.292 85.4387 147.63 85.547 148.046 85.547C148.376 85.547 148.627 85.443 148.8 85.235C148.982 85.0357 149.073 84.7367 149.073 84.338V77.11H150.321V84.312C150.321 85.014 150.131 85.5687 149.749 85.976C149.377 86.392 148.835 86.6 148.124 86.6ZM149.697 75.784C149.455 75.784 149.251 75.706 149.086 75.55C148.93 75.394 148.852 75.2033 148.852 74.978C148.852 74.744 148.93 74.549 149.086 74.393C149.251 74.237 149.455 74.159 149.697 74.159C149.94 74.159 150.139 74.237 150.295 74.393C150.46 74.5403 150.542 74.7267 150.542 74.952C150.542 75.186 150.464 75.3853 150.308 75.55C150.152 75.706 149.949 75.784 149.697 75.784ZM156.98 84V82.544L156.915 82.271V79.788C156.915 79.2593 156.759 78.852 156.447 78.566C156.143 78.2713 155.684 78.124 155.069 78.124C154.661 78.124 154.263 78.1933 153.873 78.332C153.483 78.462 153.153 78.6397 152.885 78.865L152.365 77.929C152.72 77.643 153.145 77.4263 153.639 77.279C154.141 77.123 154.666 77.045 155.212 77.045C156.156 77.045 156.884 77.2747 157.396 77.734C157.907 78.1933 158.163 78.8953 158.163 79.84V84H156.98ZM154.718 84.078C154.206 84.078 153.756 83.9913 153.366 83.818C152.984 83.6447 152.69 83.4063 152.482 83.103C152.274 82.791 152.17 82.44 152.17 82.05C152.17 81.6773 152.256 81.3393 152.43 81.036C152.612 80.7327 152.902 80.49 153.301 80.308C153.708 80.126 154.254 80.035 154.939 80.035H157.123V80.932H154.991C154.367 80.932 153.946 81.036 153.73 81.244C153.513 81.452 153.405 81.7033 153.405 81.998C153.405 82.336 153.539 82.609 153.808 82.817C154.076 83.0163 154.449 83.116 154.926 83.116C155.394 83.116 155.801 83.012 156.148 82.804C156.503 82.596 156.759 82.2927 156.915 81.894L157.162 82.752C156.997 83.1593 156.707 83.4843 156.291 83.727C155.875 83.961 155.35 84.078 154.718 84.078ZM169.091 77.045C169.646 77.045 170.135 77.1533 170.56 77.37C170.985 77.5867 171.314 77.916 171.548 78.358C171.791 78.8 171.912 79.359 171.912 80.035V84H170.664V80.178C170.664 79.5107 170.508 79.008 170.196 78.67C169.884 78.332 169.446 78.163 168.883 78.163C168.467 78.163 168.103 78.2497 167.791 78.423C167.479 78.5963 167.236 78.852 167.063 79.19C166.898 79.528 166.816 79.9483 166.816 80.451V84H165.568V80.178C165.568 79.5107 165.412 79.008 165.1 78.67C164.797 78.332 164.359 78.163 163.787 78.163C163.38 78.163 163.02 78.2497 162.708 78.423C162.396 78.5963 162.153 78.852 161.98 79.19C161.807 79.528 161.72 79.9483 161.72 80.451V84H160.472V77.11H161.668V78.943L161.473 78.475C161.69 78.0243 162.023 77.6733 162.474 77.422C162.925 77.1707 163.449 77.045 164.047 77.045C164.706 77.045 165.273 77.2097 165.75 77.539C166.227 77.8597 166.539 78.3493 166.686 79.008L166.179 78.8C166.387 78.2713 166.751 77.8467 167.271 77.526C167.791 77.2053 168.398 77.045 169.091 77.045ZM174.208 84V77.11H175.456V84H174.208ZM174.832 75.784C174.59 75.784 174.386 75.706 174.221 75.55C174.065 75.394 173.987 75.2033 173.987 74.978C173.987 74.744 174.065 74.549 174.221 74.393C174.386 74.237 174.59 74.159 174.832 74.159C175.075 74.159 175.274 74.237 175.43 74.393C175.595 74.5403 175.677 74.7267 175.677 74.952C175.677 75.186 175.599 75.3853 175.443 75.55C175.287 75.706 175.084 75.784 174.832 75.784ZM181.518 77.045C182.082 77.045 182.576 77.1533 183 77.37C183.434 77.5867 183.772 77.916 184.014 78.358C184.257 78.8 184.378 79.359 184.378 80.035V84H183.13V80.178C183.13 79.5107 182.966 79.008 182.636 78.67C182.316 78.332 181.861 78.163 181.271 78.163C180.829 78.163 180.444 78.2497 180.114 78.423C179.785 78.5963 179.529 78.852 179.347 79.19C179.174 79.528 179.087 79.9483 179.087 80.451V84H177.839V77.11H179.035V78.969L178.84 78.475C179.066 78.0243 179.412 77.6733 179.88 77.422C180.348 77.1707 180.894 77.045 181.518 77.045ZM191.193 82.336L191.219 80.737L195.184 77.11H196.692L193.65 80.1L192.974 80.672L191.193 82.336ZM190.179 84V74.354H191.427V84H190.179ZM195.444 84L192.74 80.646L193.546 79.645L196.978 84H195.444ZM200.979 84.078C200.242 84.078 199.592 83.9263 199.029 83.623C198.474 83.3197 198.041 82.9037 197.729 82.375C197.425 81.8463 197.274 81.2397 197.274 80.555C197.274 79.8703 197.421 79.2637 197.716 78.735C198.019 78.2063 198.431 77.7947 198.951 77.5C199.479 77.1967 200.073 77.045 200.732 77.045C201.399 77.045 201.988 77.1923 202.5 77.487C203.011 77.7817 203.41 78.1977 203.696 78.735C203.99 79.2637 204.138 79.8833 204.138 80.594C204.138 80.646 204.133 80.7067 204.125 80.776C204.125 80.8453 204.12 80.9103 204.112 80.971H198.249V80.074H203.462L202.955 80.386C202.963 79.944 202.872 79.5497 202.682 79.203C202.491 78.8563 202.227 78.5877 201.889 78.397C201.559 78.1977 201.174 78.098 200.732 78.098C200.298 78.098 199.913 78.1977 199.575 78.397C199.237 78.5877 198.972 78.8607 198.782 79.216C198.591 79.5627 198.496 79.9613 198.496 80.412V80.62C198.496 81.0793 198.6 81.491 198.808 81.855C199.024 82.2103 199.323 82.4877 199.705 82.687C200.086 82.8863 200.524 82.986 201.018 82.986C201.425 82.986 201.793 82.9167 202.123 82.778C202.461 82.6393 202.755 82.4313 203.007 82.154L203.696 82.96C203.384 83.324 202.994 83.6013 202.526 83.792C202.066 83.9827 201.551 84.078 200.979 84.078ZM209.957 84V82.544L209.892 82.271V79.788C209.892 79.2593 209.736 78.852 209.424 78.566C209.121 78.2713 208.661 78.124 208.046 78.124C207.639 78.124 207.24 78.1933 206.85 78.332C206.46 78.462 206.131 78.6397 205.862 78.865L205.342 77.929C205.697 77.643 206.122 77.4263 206.616 77.279C207.119 77.123 207.643 77.045 208.189 77.045C209.134 77.045 209.862 77.2747 210.373 77.734C210.884 78.1933 211.14 78.8953 211.14 79.84V84H209.957ZM207.695 84.078C207.184 84.078 206.733 83.9913 206.343 83.818C205.962 83.6447 205.667 83.4063 205.459 83.103C205.251 82.791 205.147 82.44 205.147 82.05C205.147 81.6773 205.234 81.3393 205.407 81.036C205.589 80.7327 205.879 80.49 206.278 80.308C206.685 80.126 207.231 80.035 207.916 80.035H210.1V80.932H207.968C207.344 80.932 206.924 81.036 206.707 81.244C206.49 81.452 206.382 81.7033 206.382 81.998C206.382 82.336 206.516 82.609 206.785 82.817C207.054 83.0163 207.426 83.116 207.903 83.116C208.371 83.116 208.778 83.012 209.125 82.804C209.48 82.596 209.736 82.2927 209.892 81.894L210.139 82.752C209.974 83.1593 209.684 83.4843 209.268 83.727C208.852 83.961 208.328 84.078 207.695 84.078ZM222.069 77.045C222.623 77.045 223.113 77.1533 223.538 77.37C223.962 77.5867 224.292 77.916 224.526 78.358C224.768 78.8 224.89 79.359 224.89 80.035V84H223.642V80.178C223.642 79.5107 223.486 79.008 223.174 78.67C222.862 78.332 222.424 78.163 221.861 78.163C221.445 78.163 221.081 78.2497 220.769 78.423C220.457 78.5963 220.214 78.852 220.041 79.19C219.876 79.528 219.794 79.9483 219.794 80.451V84H218.546V80.178C218.546 79.5107 218.39 79.008 218.078 78.67C217.774 78.332 217.337 78.163 216.765 78.163C216.357 78.163 215.998 78.2497 215.686 78.423C215.374 78.5963 215.131 78.852 214.958 79.19C214.784 79.528 214.698 79.9483 214.698 80.451V84H213.45V77.11H214.646V78.943L214.451 78.475C214.667 78.0243 215.001 77.6733 215.452 77.422C215.902 77.1707 216.427 77.045 217.025 77.045C217.683 77.045 218.251 77.2097 218.728 77.539C219.204 77.8597 219.516 78.3493 219.664 79.008L219.157 78.8C219.365 78.2713 219.729 77.8467 220.249 77.526C220.769 77.2053 221.375 77.045 222.069 77.045ZM231.463 84V82.544L231.398 82.271V79.788C231.398 79.2593 231.242 78.852 230.93 78.566C230.627 78.2713 230.167 78.124 229.552 78.124C229.145 78.124 228.746 78.1933 228.356 78.332C227.966 78.462 227.637 78.6397 227.368 78.865L226.848 77.929C227.203 77.643 227.628 77.4263 228.122 77.279C228.625 77.123 229.149 77.045 229.695 77.045C230.64 77.045 231.368 77.2747 231.879 77.734C232.39 78.1933 232.646 78.8953 232.646 79.84V84H231.463ZM229.201 84.078C228.69 84.078 228.239 83.9913 227.849 83.818C227.468 83.6447 227.173 83.4063 226.965 83.103C226.757 82.791 226.653 82.44 226.653 82.05C226.653 81.6773 226.74 81.3393 226.913 81.036C227.095 80.7327 227.385 80.49 227.784 80.308C228.191 80.126 228.737 80.035 229.422 80.035H231.606V80.932H229.474C228.85 80.932 228.43 81.036 228.213 81.244C227.996 81.452 227.888 81.7033 227.888 81.998C227.888 82.336 228.022 82.609 228.291 82.817C228.56 83.0163 228.932 83.116 229.409 83.116C229.877 83.116 230.284 83.012 230.631 82.804C230.986 82.596 231.242 82.2927 231.398 81.894L231.645 82.752C231.48 83.1593 231.19 83.4843 230.774 83.727C230.358 83.961 229.834 84.078 229.201 84.078ZM238.634 77.045C239.198 77.045 239.692 77.1533 240.116 77.37C240.55 77.5867 240.888 77.916 241.13 78.358C241.373 78.8 241.494 79.359 241.494 80.035V84H240.246V80.178C240.246 79.5107 240.082 79.008 239.752 78.67C239.432 78.332 238.977 78.163 238.387 78.163C237.945 78.163 237.56 78.2497 237.23 78.423C236.901 78.5963 236.645 78.852 236.463 79.19C236.29 79.528 236.203 79.9483 236.203 80.451V84H234.955V77.11H236.151V78.969L235.956 78.475C236.182 78.0243 236.528 77.6733 236.996 77.422C237.464 77.1707 238.01 77.045 238.634 77.045ZM248.081 84V82.544L248.016 82.271V79.788C248.016 79.2593 247.86 78.852 247.548 78.566C247.245 78.2713 246.785 78.124 246.17 78.124C245.763 78.124 245.364 78.1933 244.974 78.332C244.584 78.462 244.255 78.6397 243.986 78.865L243.466 77.929C243.821 77.643 244.246 77.4263 244.74 77.279C245.243 77.123 245.767 77.045 246.313 77.045C247.258 77.045 247.986 77.2747 248.497 77.734C249.008 78.1933 249.264 78.8953 249.264 79.84V84H248.081ZM245.819 84.078C245.308 84.078 244.857 83.9913 244.467 83.818C244.086 83.6447 243.791 83.4063 243.583 83.103C243.375 82.791 243.271 82.44 243.271 82.05C243.271 81.6773 243.358 81.3393 243.531 81.036C243.713 80.7327 244.003 80.49 244.402 80.308C244.809 80.126 245.355 80.035 246.04 80.035H248.224V80.932H246.092C245.468 80.932 245.048 81.036 244.831 81.244C244.614 81.452 244.506 81.7033 244.506 81.998C244.506 82.336 244.64 82.609 244.909 82.817C245.178 83.0163 245.55 83.116 246.027 83.116C246.495 83.116 246.902 83.012 247.249 82.804C247.604 82.596 247.86 82.2927 248.016 81.894L248.263 82.752C248.098 83.1593 247.808 83.4843 247.392 83.727C246.976 83.961 246.452 84.078 245.819 84.078ZM255.253 77.045C255.816 77.045 256.31 77.1533 256.735 77.37C257.168 77.5867 257.506 77.916 257.749 78.358C257.991 78.8 258.113 79.359 258.113 80.035V84H256.865V80.178C256.865 79.5107 256.7 79.008 256.371 78.67C256.05 78.332 255.595 78.163 255.006 78.163C254.564 78.163 254.178 78.2497 253.849 78.423C253.519 78.5963 253.264 78.852 253.082 79.19C252.908 79.528 252.822 79.9483 252.822 80.451V84H251.574V77.11H252.77V78.969L252.575 78.475C252.8 78.0243 253.147 77.6733 253.615 77.422C254.083 77.1707 254.629 77.045 255.253 77.045ZM21.03 105.078C20.3627 105.078 19.7647 104.931 19.236 104.636C18.716 104.341 18.3043 103.93 18.001 103.401C17.6977 102.872 17.546 102.257 17.546 101.555C17.546 100.853 17.6977 100.242 18.001 99.722C18.3043 99.1933 18.716 98.7817 19.236 98.487C19.7647 98.1923 20.3627 98.045 21.03 98.045C21.6107 98.045 22.135 98.175 22.603 98.435C23.071 98.695 23.4437 99.085 23.721 99.605C24.007 100.125 24.15 100.775 24.15 101.555C24.15 102.335 24.0113 102.985 23.734 103.505C23.4653 104.025 23.097 104.419 22.629 104.688C22.161 104.948 21.628 105.078 21.03 105.078ZM21.134 103.986C21.5673 103.986 21.9573 103.886 22.304 103.687C22.6593 103.488 22.9367 103.206 23.136 102.842C23.344 102.469 23.448 102.04 23.448 101.555C23.448 101.061 23.344 100.636 23.136 100.281C22.9367 99.917 22.6593 99.6353 22.304 99.436C21.9573 99.2367 21.5673 99.137 21.134 99.137C20.692 99.137 20.2977 99.2367 19.951 99.436C19.6043 99.6353 19.327 99.917 19.119 100.281C18.911 100.636 18.807 101.061 18.807 101.555C18.807 102.04 18.911 102.469 19.119 102.842C19.327 103.206 19.6043 103.488 19.951 103.687C20.2977 103.886 20.692 103.986 21.134 103.986ZM23.487 105V103.141L23.565 101.542L23.435 99.943V95.354H24.683V105H23.487ZM31.3213 105V103.544L31.2563 103.271V100.788C31.2563 100.259 31.1003 99.852 30.7883 99.566C30.485 99.2713 30.0257 99.124 29.4103 99.124C29.003 99.124 28.6043 99.1933 28.2143 99.332C27.8243 99.462 27.495 99.6397 27.2263 99.865L26.7063 98.929C27.0617 98.643 27.4863 98.4263 27.9803 98.279C28.483 98.123 29.0073 98.045 29.5533 98.045C30.498 98.045 31.226 98.2747 31.7373 98.734C32.2487 99.1933 32.5043 99.8953 32.5043 100.84V105H31.3213ZM29.0593 105.078C28.548 105.078 28.0973 104.991 27.7073 104.818C27.326 104.645 27.0313 104.406 26.8233 104.103C26.6153 103.791 26.5113 103.44 26.5113 103.05C26.5113 102.677 26.598 102.339 26.7713 102.036C26.9533 101.733 27.2437 101.49 27.6423 101.308C28.0497 101.126 28.5957 101.035 29.2803 101.035H31.4643V101.932H29.3323C28.7083 101.932 28.288 102.036 28.0713 102.244C27.8547 102.452 27.7463 102.703 27.7463 102.998C27.7463 103.336 27.8807 103.609 28.1493 103.817C28.418 104.016 28.7907 104.116 29.2673 104.116C29.7353 104.116 30.1427 104.012 30.4893 103.804C30.8447 103.596 31.1003 103.293 31.2563 102.894L31.5033 103.752C31.3387 104.159 31.0483 104.484 30.6323 104.727C30.2163 104.961 29.692 105.078 29.0593 105.078ZM37.1799 105.078C36.4865 105.078 35.9492 104.892 35.5679 104.519C35.1865 104.146 34.9959 103.613 34.9959 102.92V96.602H36.2439V102.868C36.2439 103.241 36.3349 103.527 36.5169 103.726C36.7075 103.925 36.9762 104.025 37.3229 104.025C37.7129 104.025 38.0379 103.917 38.2979 103.7L38.6879 104.597C38.4972 104.762 38.2675 104.883 37.9989 104.961C37.7389 105.039 37.4659 105.078 37.1799 105.078ZM33.8259 99.137V98.11H38.2199V99.137H33.8259ZM44.4737 105V103.544L44.4087 103.271V100.788C44.4087 100.259 44.2527 99.852 43.9407 99.566C43.6373 99.2713 43.178 99.124 42.5627 99.124C42.1553 99.124 41.7567 99.1933 41.3667 99.332C40.9767 99.462 40.6473 99.6397 40.3787 99.865L39.8587 98.929C40.214 98.643 40.6387 98.4263 41.1327 98.279C41.6353 98.123 42.1597 98.045 42.7057 98.045C43.6503 98.045 44.3783 98.2747 44.8897 98.734C45.401 99.1933 45.6567 99.8953 45.6567 100.84V105H44.4737ZM42.2117 105.078C41.7003 105.078 41.2497 104.991 40.8597 104.818C40.4783 104.645 40.1837 104.406 39.9757 104.103C39.7677 103.791 39.6637 103.44 39.6637 103.05C39.6637 102.677 39.7503 102.339 39.9237 102.036C40.1057 101.733 40.396 101.49 40.7947 101.308C41.202 101.126 41.748 101.035 42.4327 101.035H44.6167V101.932H42.4847C41.8607 101.932 41.4403 102.036 41.2237 102.244C41.007 102.452 40.8987 102.703 40.8987 102.998C40.8987 103.336 41.033 103.609 41.3017 103.817C41.5703 104.016 41.943 104.116 42.4197 104.116C42.8877 104.116 43.295 104.012 43.6417 103.804C43.997 103.596 44.2527 103.293 44.4087 102.894L44.6557 103.752C44.491 104.159 44.2007 104.484 43.7847 104.727C43.3687 104.961 42.8443 105.078 42.2117 105.078ZM55.1104 105.078C54.5384 105.078 54.0141 104.948 53.5374 104.688C53.0694 104.419 52.6924 104.025 52.4064 103.505C52.1291 102.985 51.9904 102.335 51.9904 101.555C51.9904 100.775 52.1247 100.125 52.3934 99.605C52.6707 99.085 53.0434 98.695 53.5114 98.435C53.9881 98.175 54.5211 98.045 55.1104 98.045C55.7864 98.045 56.3844 98.1923 56.9044 98.487C57.4244 98.7817 57.8361 99.1933 58.1394 99.722C58.4427 100.242 58.5944 100.853 58.5944 101.555C58.5944 102.257 58.4427 102.872 58.1394 103.401C57.8361 103.93 57.4244 104.341 56.9044 104.636C56.3844 104.931 55.7864 105.078 55.1104 105.078ZM51.4574 107.522V98.11H52.6534V99.969L52.5754 101.568L52.7054 103.167V107.522H51.4574ZM55.0064 103.986C55.4484 103.986 55.8427 103.886 56.1894 103.687C56.5447 103.488 56.8221 103.206 57.0214 102.842C57.2294 102.469 57.3334 102.04 57.3334 101.555C57.3334 101.061 57.2294 100.636 57.0214 100.281C56.8221 99.917 56.5447 99.6353 56.1894 99.436C55.8427 99.2367 55.4484 99.137 55.0064 99.137C54.5731 99.137 54.1787 99.2367 53.8234 99.436C53.4767 99.6353 53.1994 99.917 52.9914 100.281C52.7921 100.636 52.6924 101.061 52.6924 101.555C52.6924 102.04 52.7921 102.469 52.9914 102.842C53.1994 103.206 53.4767 103.488 53.8234 103.687C54.1787 103.886 54.5731 103.986 55.0064 103.986ZM63.3867 105.078C62.6501 105.078 62.0001 104.926 61.4367 104.623C60.8821 104.32 60.4487 103.904 60.1367 103.375C59.8334 102.846 59.6817 102.24 59.6817 101.555C59.6817 100.87 59.8291 100.264 60.1237 99.735C60.4271 99.2063 60.8387 98.7947 61.3587 98.5C61.8874 98.1967 62.4811 98.045 63.1397 98.045C63.8071 98.045 64.3964 98.1923 64.9077 98.487C65.4191 98.7817 65.8177 99.1977 66.1037 99.735C66.3984 100.264 66.5457 100.883 66.5457 101.594C66.5457 101.646 66.5414 101.707 66.5327 101.776C66.5327 101.845 66.5284 101.91 66.5197 101.971H60.6567V101.074H65.8697L65.3627 101.386C65.3714 100.944 65.2804 100.55 65.0897 100.203C64.8991 99.8563 64.6347 99.5877 64.2967 99.397C63.9674 99.1977 63.5817 99.098 63.1397 99.098C62.7064 99.098 62.3207 99.1977 61.9827 99.397C61.6447 99.5877 61.3804 99.8607 61.1897 100.216C60.9991 100.563 60.9037 100.961 60.9037 101.412V101.62C60.9037 102.079 61.0077 102.491 61.2157 102.855C61.4324 103.21 61.7314 103.488 62.1127 103.687C62.4941 103.886 62.9317 103.986 63.4257 103.986C63.8331 103.986 64.2014 103.917 64.5307 103.778C64.8687 103.639 65.1634 103.431 65.4147 103.154L66.1037 103.96C65.7917 104.324 65.4017 104.601 64.9337 104.792C64.4744 104.983 63.9587 105.078 63.3867 105.078ZM71.9577 98.045C72.521 98.045 73.015 98.1533 73.4397 98.37C73.873 98.5867 74.211 98.916 74.4537 99.358C74.6964 99.8 74.8177 100.359 74.8177 101.035V105H73.5697V101.178C73.5697 100.511 73.405 100.008 73.0757 99.67C72.755 99.332 72.3 99.163 71.7107 99.163C71.2687 99.163 70.883 99.2497 70.5537 99.423C70.2244 99.5963 69.9687 99.852 69.7867 100.19C69.6134 100.528 69.5267 100.948 69.5267 101.451V105H68.2787V98.11H69.4747V99.969L69.2797 99.475C69.505 99.0243 69.8517 98.6733 70.3197 98.422C70.7877 98.1707 71.3337 98.045 71.9577 98.045ZM80.1433 107.6C79.5107 107.6 78.8953 107.509 78.2973 107.327C77.708 107.154 77.227 106.902 76.8543 106.573L77.4523 105.611C77.773 105.888 78.1673 106.105 78.6353 106.261C79.1033 106.426 79.593 106.508 80.1043 106.508C80.919 106.508 81.517 106.317 81.8983 105.936C82.2797 105.555 82.4703 104.974 82.4703 104.194V102.738L82.6003 101.373L82.5353 99.995V98.11H83.7183V104.064C83.7183 105.277 83.415 106.17 82.8083 106.742C82.2017 107.314 81.3133 107.6 80.1433 107.6ZM79.9873 104.714C79.32 104.714 78.722 104.575 78.1933 104.298C77.6733 104.012 77.2573 103.618 76.9453 103.115C76.642 102.612 76.4903 102.032 76.4903 101.373C76.4903 100.706 76.642 100.125 76.9453 99.631C77.2573 99.1283 77.6733 98.7383 78.1933 98.461C78.722 98.1837 79.32 98.045 79.9873 98.045C80.5767 98.045 81.114 98.1663 81.5993 98.409C82.0847 98.643 82.4703 99.007 82.7563 99.501C83.051 99.995 83.1983 100.619 83.1983 101.373C83.1983 102.118 83.051 102.738 82.7563 103.232C82.4703 103.726 82.0847 104.099 81.5993 104.35C81.114 104.593 80.5767 104.714 79.9873 104.714ZM80.1303 103.622C80.5897 103.622 80.997 103.527 81.3523 103.336C81.7077 103.145 81.985 102.881 82.1843 102.543C82.3923 102.205 82.4963 101.815 82.4963 101.373C82.4963 100.931 82.3923 100.541 82.1843 100.203C81.985 99.865 81.7077 99.605 81.3523 99.423C80.997 99.2323 80.5897 99.137 80.1303 99.137C79.671 99.137 79.2593 99.2323 78.8953 99.423C78.54 99.605 78.2583 99.865 78.0503 100.203C77.851 100.541 77.7513 100.931 77.7513 101.373C77.7513 101.815 77.851 102.205 78.0503 102.543C78.2583 102.881 78.54 103.145 78.8953 103.336C79.2593 103.527 79.671 103.622 80.1303 103.622ZM89.1189 107.6C88.4863 107.6 87.8709 107.509 87.2729 107.327C86.6836 107.154 86.2026 106.902 85.8299 106.573L86.4279 105.611C86.7486 105.888 87.1429 106.105 87.6109 106.261C88.0789 106.426 88.5686 106.508 89.0799 106.508C89.8946 106.508 90.4926 106.317 90.8739 105.936C91.2553 105.555 91.4459 104.974 91.4459 104.194V102.738L91.5759 101.373L91.5109 99.995V98.11H92.6939V104.064C92.6939 105.277 92.3906 106.17 91.7839 106.742C91.1773 107.314 90.2889 107.6 89.1189 107.6ZM88.9629 104.714C88.2956 104.714 87.6976 104.575 87.1689 104.298C86.6489 104.012 86.2329 103.618 85.9209 103.115C85.6176 102.612 85.4659 102.032 85.4659 101.373C85.4659 100.706 85.6176 100.125 85.9209 99.631C86.2329 99.1283 86.6489 98.7383 87.1689 98.461C87.6976 98.1837 88.2956 98.045 88.9629 98.045C89.5523 98.045 90.0896 98.1663 90.5749 98.409C91.0603 98.643 91.4459 99.007 91.7319 99.501C92.0266 99.995 92.1739 100.619 92.1739 101.373C92.1739 102.118 92.0266 102.738 91.7319 103.232C91.4459 103.726 91.0603 104.099 90.5749 104.35C90.0896 104.593 89.5523 104.714 88.9629 104.714ZM89.1059 103.622C89.5653 103.622 89.9726 103.527 90.3279 103.336C90.6833 103.145 90.9606 102.881 91.1599 102.543C91.3679 102.205 91.4719 101.815 91.4719 101.373C91.4719 100.931 91.3679 100.541 91.1599 100.203C90.9606 99.865 90.6833 99.605 90.3279 99.423C89.9726 99.2323 89.5653 99.137 89.1059 99.137C88.6466 99.137 88.2349 99.2323 87.8709 99.423C87.5156 99.605 87.2339 99.865 87.0259 100.203C86.8266 100.541 86.7269 100.931 86.7269 101.373C86.7269 101.815 86.8266 102.205 87.0259 102.543C87.2339 102.881 87.5156 103.145 87.8709 103.336C88.2349 103.527 88.6466 103.622 89.1059 103.622ZM97.9775 105.078C97.3882 105.078 96.8682 104.97 96.4175 104.753C95.9755 104.536 95.6288 104.207 95.3775 103.765C95.1348 103.314 95.0135 102.751 95.0135 102.075V98.11H96.2615V101.932C96.2615 102.608 96.4218 103.115 96.7425 103.453C97.0718 103.791 97.5312 103.96 98.1205 103.96C98.5538 103.96 98.9308 103.873 99.2515 103.7C99.5722 103.518 99.8192 103.258 99.9925 102.92C100.166 102.573 100.253 102.157 100.253 101.672V98.11H101.501V105H100.318V103.141L100.513 103.635C100.287 104.094 99.9492 104.45 99.4985 104.701C99.0478 104.952 98.5408 105.078 97.9775 105.078ZM107.555 98.045C108.119 98.045 108.613 98.1533 109.037 98.37C109.471 98.5867 109.809 98.916 110.051 99.358C110.294 99.8 110.415 100.359 110.415 101.035V105H109.167V101.178C109.167 100.511 109.003 100.008 108.673 99.67C108.353 99.332 107.898 99.163 107.308 99.163C106.866 99.163 106.481 99.2497 106.151 99.423C105.822 99.5963 105.566 99.852 105.384 100.19C105.211 100.528 105.124 100.948 105.124 101.451V105H103.876V98.11H105.072V99.969L104.877 99.475C105.103 99.0243 105.449 98.6733 105.917 98.422C106.385 98.1707 106.931 98.045 107.555 98.045ZM117.002 105V103.544L116.937 103.271V100.788C116.937 100.259 116.781 99.852 116.469 99.566C116.166 99.2713 115.706 99.124 115.091 99.124C114.684 99.124 114.285 99.1933 113.895 99.332C113.505 99.462 113.176 99.6397 112.907 99.865L112.387 98.929C112.742 98.643 113.167 98.4263 113.661 98.279C114.164 98.123 114.688 98.045 115.234 98.045C116.179 98.045 116.907 98.2747 117.418 98.734C117.929 99.1933 118.185 99.8953 118.185 100.84V105H117.002ZM114.74 105.078C114.229 105.078 113.778 104.991 113.388 104.818C113.007 104.645 112.712 104.406 112.504 104.103C112.296 103.791 112.192 103.44 112.192 103.05C112.192 102.677 112.279 102.339 112.452 102.036C112.634 101.733 112.924 101.49 113.323 101.308C113.73 101.126 114.276 101.035 114.961 101.035H117.145V101.932H115.013C114.389 101.932 113.969 102.036 113.752 102.244C113.535 102.452 113.427 102.703 113.427 102.998C113.427 103.336 113.561 103.609 113.83 103.817C114.099 104.016 114.471 104.116 114.948 104.116C115.416 104.116 115.823 104.012 116.17 103.804C116.525 103.596 116.781 103.293 116.937 102.894L117.184 103.752C117.019 104.159 116.729 104.484 116.313 104.727C115.897 104.961 115.373 105.078 114.74 105.078ZM126.833 105.078C126.165 105.078 125.567 104.931 125.039 104.636C124.519 104.341 124.107 103.93 123.804 103.401C123.5 102.872 123.349 102.257 123.349 101.555C123.349 100.853 123.5 100.242 123.804 99.722C124.107 99.1933 124.519 98.7817 125.039 98.487C125.567 98.1923 126.165 98.045 126.833 98.045C127.413 98.045 127.938 98.175 128.406 98.435C128.874 98.695 129.246 99.085 129.524 99.605C129.81 100.125 129.953 100.775 129.953 101.555C129.953 102.335 129.814 102.985 129.537 103.505C129.268 104.025 128.9 104.419 128.432 104.688C127.964 104.948 127.431 105.078 126.833 105.078ZM126.937 103.986C127.37 103.986 127.76 103.886 128.107 103.687C128.462 103.488 128.739 103.206 128.939 102.842C129.147 102.469 129.251 102.04 129.251 101.555C129.251 101.061 129.147 100.636 128.939 100.281C128.739 99.917 128.462 99.6353 128.107 99.436C127.76 99.2367 127.37 99.137 126.937 99.137C126.495 99.137 126.1 99.2367 125.754 99.436C125.407 99.6353 125.13 99.917 124.922 100.281C124.714 100.636 124.61 101.061 124.61 101.555C124.61 102.04 124.714 102.469 124.922 102.842C125.13 103.206 125.407 103.488 125.754 103.687C126.1 103.886 126.495 103.986 126.937 103.986ZM129.29 105V103.141L129.368 101.542L129.238 99.943V95.354H130.486V105H129.29ZM135.915 105.078C135.178 105.078 134.528 104.926 133.965 104.623C133.41 104.32 132.977 103.904 132.665 103.375C132.362 102.846 132.21 102.24 132.21 101.555C132.21 100.87 132.357 100.264 132.652 99.735C132.955 99.2063 133.367 98.7947 133.887 98.5C134.416 98.1967 135.009 98.045 135.668 98.045C136.335 98.045 136.925 98.1923 137.436 98.487C137.947 98.7817 138.346 99.1977 138.632 99.735C138.927 100.264 139.074 100.883 139.074 101.594C139.074 101.646 139.07 101.707 139.061 101.776C139.061 101.845 139.057 101.91 139.048 101.971H133.185V101.074H138.398L137.891 101.386C137.9 100.944 137.809 100.55 137.618 100.203C137.427 99.8563 137.163 99.5877 136.825 99.397C136.496 99.1977 136.11 99.098 135.668 99.098C135.235 99.098 134.849 99.1977 134.511 99.397C134.173 99.5877 133.909 99.8607 133.718 100.216C133.527 100.563 133.432 100.961 133.432 101.412V101.62C133.432 102.079 133.536 102.491 133.744 102.855C133.961 103.21 134.26 103.488 134.641 103.687C135.022 103.886 135.46 103.986 135.954 103.986C136.361 103.986 136.73 103.917 137.059 103.778C137.397 103.639 137.692 103.431 137.943 103.154L138.632 103.96C138.32 104.324 137.93 104.601 137.462 104.792C137.003 104.983 136.487 105.078 135.915 105.078ZM144.486 98.045C145.049 98.045 145.543 98.1533 145.968 98.37C146.401 98.5867 146.739 98.916 146.982 99.358C147.225 99.8 147.346 100.359 147.346 101.035V105H146.098V101.178C146.098 100.511 145.933 100.008 145.604 99.67C145.283 99.332 144.828 99.163 144.239 99.163C143.797 99.163 143.411 99.2497 143.082 99.423C142.753 99.5963 142.497 99.852 142.315 100.19C142.142 100.528 142.055 100.948 142.055 101.451V105H140.807V98.11H142.003V99.969L141.808 99.475C142.033 99.0243 142.38 98.6733 142.848 98.422C143.316 98.1707 143.862 98.045 144.486 98.045ZM152.672 107.6C152.039 107.6 151.424 107.509 150.826 107.327C150.236 107.154 149.755 106.902 149.383 106.573L149.981 105.611C150.301 105.888 150.696 106.105 151.164 106.261C151.632 106.426 152.121 106.508 152.633 106.508C153.447 106.508 154.045 106.317 154.427 105.936C154.808 105.555 154.999 104.974 154.999 104.194V102.738L155.129 101.373L155.064 99.995V98.11H156.247V104.064C156.247 105.277 155.943 106.17 155.337 106.742C154.73 107.314 153.842 107.6 152.672 107.6ZM152.516 104.714C151.848 104.714 151.25 104.575 150.722 104.298C150.202 104.012 149.786 103.618 149.474 103.115C149.17 102.612 149.019 102.032 149.019 101.373C149.019 100.706 149.17 100.125 149.474 99.631C149.786 99.1283 150.202 98.7383 150.722 98.461C151.25 98.1837 151.848 98.045 152.516 98.045C153.105 98.045 153.642 98.1663 154.128 98.409C154.613 98.643 154.999 99.007 155.285 99.501C155.579 99.995 155.727 100.619 155.727 101.373C155.727 102.118 155.579 102.738 155.285 103.232C154.999 103.726 154.613 104.099 154.128 104.35C153.642 104.593 153.105 104.714 152.516 104.714ZM152.659 103.622C153.118 103.622 153.525 103.527 153.881 103.336C154.236 103.145 154.513 102.881 154.713 102.543C154.921 102.205 155.025 101.815 155.025 101.373C155.025 100.931 154.921 100.541 154.713 100.203C154.513 99.865 154.236 99.605 153.881 99.423C153.525 99.2323 153.118 99.137 152.659 99.137C152.199 99.137 151.788 99.2323 151.424 99.423C151.068 99.605 150.787 99.865 150.579 100.203C150.379 100.541 150.28 100.931 150.28 101.373C150.28 101.815 150.379 102.205 150.579 102.543C150.787 102.881 151.068 103.145 151.424 103.336C151.788 103.527 152.199 103.622 152.659 103.622ZM162.908 105V103.544L162.843 103.271V100.788C162.843 100.259 162.687 99.852 162.375 99.566C162.072 99.2713 161.613 99.124 160.997 99.124C160.59 99.124 160.191 99.1933 159.801 99.332C159.411 99.462 159.082 99.6397 158.813 99.865L158.293 98.929C158.649 98.643 159.073 98.4263 159.567 98.279C160.07 98.123 160.594 98.045 161.14 98.045C162.085 98.045 162.813 98.2747 163.324 98.734C163.836 99.1933 164.091 99.8953 164.091 100.84V105H162.908ZM160.646 105.078C160.135 105.078 159.684 104.991 159.294 104.818C158.913 104.645 158.618 104.406 158.41 104.103C158.202 103.791 158.098 103.44 158.098 103.05C158.098 102.677 158.185 102.339 158.358 102.036C158.54 101.733 158.831 101.49 159.229 101.308C159.637 101.126 160.183 101.035 160.867 101.035H163.051V101.932H160.919C160.295 101.932 159.875 102.036 159.658 102.244C159.442 102.452 159.333 102.703 159.333 102.998C159.333 103.336 159.468 103.609 159.736 103.817C160.005 104.016 160.378 104.116 160.854 104.116C161.322 104.116 161.73 104.012 162.076 103.804C162.432 103.596 162.687 103.293 162.843 102.894L163.09 103.752C162.926 104.159 162.635 104.484 162.219 104.727C161.803 104.961 161.279 105.078 160.646 105.078ZM170.08 98.045C170.643 98.045 171.137 98.1533 171.562 98.37C171.995 98.5867 172.333 98.916 172.576 99.358C172.818 99.8 172.94 100.359 172.94 101.035V105H171.692V101.178C171.692 100.511 171.527 100.008 171.198 99.67C170.877 99.332 170.422 99.163 169.833 99.163C169.391 99.163 169.005 99.2497 168.676 99.423C168.346 99.5963 168.091 99.852 167.909 100.19C167.735 100.528 167.649 100.948 167.649 101.451V105H166.401V98.11H167.597V99.969L167.402 99.475C167.627 99.0243 167.974 98.6733 168.442 98.422C168.91 98.1707 169.456 98.045 170.08 98.045ZM180.717 105.078C180.145 105.078 179.599 105 179.079 104.844C178.567 104.688 178.164 104.497 177.87 104.272L178.39 103.284C178.684 103.483 179.048 103.652 179.482 103.791C179.915 103.93 180.357 103.999 180.808 103.999C181.388 103.999 181.804 103.917 182.056 103.752C182.316 103.587 182.446 103.358 182.446 103.063C182.446 102.846 182.368 102.677 182.212 102.556C182.056 102.435 181.848 102.344 181.588 102.283C181.336 102.222 181.055 102.17 180.743 102.127C180.431 102.075 180.119 102.014 179.807 101.945C179.495 101.867 179.209 101.763 178.949 101.633C178.689 101.494 178.481 101.308 178.325 101.074C178.169 100.831 178.091 100.511 178.091 100.112C178.091 99.696 178.208 99.332 178.442 99.02C178.676 98.708 179.005 98.4697 179.43 98.305C179.863 98.1317 180.374 98.045 180.964 98.045C181.414 98.045 181.869 98.1013 182.329 98.214C182.797 98.318 183.178 98.4697 183.473 98.669L182.94 99.657C182.628 99.449 182.303 99.306 181.965 99.228C181.627 99.15 181.289 99.111 180.951 99.111C180.405 99.111 179.997 99.202 179.729 99.384C179.46 99.5573 179.326 99.7827 179.326 100.06C179.326 100.294 179.404 100.476 179.56 100.606C179.724 100.727 179.932 100.823 180.184 100.892C180.444 100.961 180.73 101.022 181.042 101.074C181.354 101.117 181.666 101.178 181.978 101.256C182.29 101.325 182.571 101.425 182.823 101.555C183.083 101.685 183.291 101.867 183.447 102.101C183.611 102.335 183.694 102.647 183.694 103.037C183.694 103.453 183.572 103.813 183.33 104.116C183.087 104.419 182.745 104.658 182.303 104.831C181.861 104.996 181.332 105.078 180.717 105.078ZM185.253 105V98.11H186.501V105H185.253ZM185.877 96.784C185.635 96.784 185.431 96.706 185.266 96.55C185.11 96.394 185.032 96.2033 185.032 95.978C185.032 95.744 185.11 95.549 185.266 95.393C185.431 95.237 185.635 95.159 185.877 95.159C186.12 95.159 186.319 95.237 186.475 95.393C186.64 95.5403 186.722 95.7267 186.722 95.952C186.722 96.186 186.644 96.3853 186.488 96.55C186.332 96.706 186.129 96.784 185.877 96.784ZM190.86 105.078C190.288 105.078 189.742 105 189.222 104.844C188.711 104.688 188.308 104.497 188.013 104.272L188.533 103.284C188.828 103.483 189.192 103.652 189.625 103.791C190.059 103.93 190.501 103.999 190.951 103.999C191.532 103.999 191.948 103.917 192.199 103.752C192.459 103.587 192.589 103.358 192.589 103.063C192.589 102.846 192.511 102.677 192.355 102.556C192.199 102.435 191.991 102.344 191.731 102.283C191.48 102.222 191.198 102.17 190.886 102.127C190.574 102.075 190.262 102.014 189.95 101.945C189.638 101.867 189.352 101.763 189.092 101.633C188.832 101.494 188.624 101.308 188.468 101.074C188.312 100.831 188.234 100.511 188.234 100.112C188.234 99.696 188.351 99.332 188.585 99.02C188.819 98.708 189.149 98.4697 189.573 98.305C190.007 98.1317 190.518 98.045 191.107 98.045C191.558 98.045 192.013 98.1013 192.472 98.214C192.94 98.318 193.322 98.4697 193.616 98.669L193.083 99.657C192.771 99.449 192.446 99.306 192.108 99.228C191.77 99.15 191.432 99.111 191.094 99.111C190.548 99.111 190.141 99.202 189.872 99.384C189.604 99.5573 189.469 99.7827 189.469 100.06C189.469 100.294 189.547 100.476 189.703 100.606C189.868 100.727 190.076 100.823 190.327 100.892C190.587 100.961 190.873 101.022 191.185 101.074C191.497 101.117 191.809 101.178 192.121 101.256C192.433 101.325 192.715 101.425 192.966 101.555C193.226 101.685 193.434 101.867 193.59 102.101C193.755 102.335 193.837 102.647 193.837 103.037C193.837 103.453 193.716 103.813 193.473 104.116C193.231 104.419 192.888 104.658 192.446 104.831C192.004 104.996 191.476 105.078 190.86 105.078ZM197.763 105.078C197.07 105.078 196.532 104.892 196.151 104.519C195.77 104.146 195.579 103.613 195.579 102.92V96.602H196.827V102.868C196.827 103.241 196.918 103.527 197.1 103.726C197.291 103.925 197.559 104.025 197.906 104.025C198.296 104.025 198.621 103.917 198.881 103.7L199.271 104.597C199.08 104.762 198.851 104.883 198.582 104.961C198.322 105.039 198.049 105.078 197.763 105.078ZM194.409 99.137V98.11H198.803V99.137H194.409ZM203.619 105.078C202.882 105.078 202.232 104.926 201.669 104.623C201.114 104.32 200.681 103.904 200.369 103.375C200.066 102.846 199.914 102.24 199.914 101.555C199.914 100.87 200.061 100.264 200.356 99.735C200.659 99.2063 201.071 98.7947 201.591 98.5C202.12 98.1967 202.713 98.045 203.372 98.045C204.039 98.045 204.629 98.1923 205.14 98.487C205.651 98.7817 206.05 99.1977 206.336 99.735C206.631 100.264 206.778 100.883 206.778 101.594C206.778 101.646 206.774 101.707 206.765 101.776C206.765 101.845 206.761 101.91 206.752 101.971H200.889V101.074H206.102L205.595 101.386C205.604 100.944 205.513 100.55 205.322 100.203C205.131 99.8563 204.867 99.5877 204.529 99.397C204.2 99.1977 203.814 99.098 203.372 99.098C202.939 99.098 202.553 99.1977 202.215 99.397C201.877 99.5877 201.613 99.8607 201.422 100.216C201.231 100.563 201.136 100.961 201.136 101.412V101.62C201.136 102.079 201.24 102.491 201.448 102.855C201.665 103.21 201.964 103.488 202.345 103.687C202.726 103.886 203.164 103.986 203.658 103.986C204.065 103.986 204.434 103.917 204.763 103.778C205.101 103.639 205.396 103.431 205.647 103.154L206.336 103.96C206.024 104.324 205.634 104.601 205.166 104.792C204.707 104.983 204.191 105.078 203.619 105.078ZM217.13 98.045C217.685 98.045 218.174 98.1533 218.599 98.37C219.024 98.5867 219.353 98.916 219.587 99.358C219.83 99.8 219.951 100.359 219.951 101.035V105H218.703V101.178C218.703 100.511 218.547 100.008 218.235 99.67C217.923 99.332 217.485 99.163 216.922 99.163C216.506 99.163 216.142 99.2497 215.83 99.423C215.518 99.5963 215.275 99.852 215.102 100.19C214.937 100.528 214.855 100.948 214.855 101.451V105H213.607V101.178C213.607 100.511 213.451 100.008 213.139 99.67C212.836 99.332 212.398 99.163 211.826 99.163C211.419 99.163 211.059 99.2497 210.747 99.423C210.435 99.5963 210.192 99.852 210.019 100.19C209.846 100.528 209.759 100.948 209.759 101.451V105H208.511V98.11H209.707V99.943L209.512 99.475C209.729 99.0243 210.062 98.6733 210.513 98.422C210.964 98.1707 211.488 98.045 212.086 98.045C212.745 98.045 213.312 98.2097 213.789 98.539C214.266 98.8597 214.578 99.3493 214.725 100.008L214.218 99.8C214.426 99.2713 214.79 98.8467 215.31 98.526C215.83 98.2053 216.437 98.045 217.13 98.045ZM228.807 105.078C228.07 105.078 227.42 104.926 226.857 104.623C226.302 104.32 225.869 103.904 225.557 103.375C225.253 102.846 225.102 102.24 225.102 101.555C225.102 100.87 225.249 100.264 225.544 99.735C225.847 99.2063 226.259 98.7947 226.779 98.5C227.307 98.1967 227.901 98.045 228.56 98.045C229.227 98.045 229.816 98.1923 230.328 98.487C230.839 98.7817 231.238 99.1977 231.524 99.735C231.818 100.264 231.966 100.883 231.966 101.594C231.966 101.646 231.961 101.707 231.953 101.776C231.953 101.845 231.948 101.91 231.94 101.971H226.077V101.074H231.29L230.783 101.386C230.791 100.944 230.7 100.55 230.51 100.203C230.319 99.8563 230.055 99.5877 229.717 99.397C229.387 99.1977 229.002 99.098 228.56 99.098C228.126 99.098 227.741 99.1977 227.403 99.397C227.065 99.5877 226.8 99.8607 226.61 100.216C226.419 100.563 226.324 100.961 226.324 101.412V101.62C226.324 102.079 226.428 102.491 226.636 102.855C226.852 103.21 227.151 103.488 227.533 103.687C227.914 103.886 228.352 103.986 228.846 103.986C229.253 103.986 229.621 103.917 229.951 103.778C230.289 103.639 230.583 103.431 230.835 103.154L231.524 103.96C231.212 104.324 230.822 104.601 230.354 104.792C229.894 104.983 229.379 105.078 228.807 105.078ZM237.378 98.045C237.941 98.045 238.435 98.1533 238.86 98.37C239.293 98.5867 239.631 98.916 239.874 99.358C240.116 99.8 240.238 100.359 240.238 101.035V105H238.99V101.178C238.99 100.511 238.825 100.008 238.496 99.67C238.175 99.332 237.72 99.163 237.131 99.163C236.689 99.163 236.303 99.2497 235.974 99.423C235.644 99.5963 235.389 99.852 235.207 100.19C235.033 100.528 234.947 100.948 234.947 101.451V105H233.699V98.11H234.895V99.969L234.7 99.475C234.925 99.0243 235.272 98.6733 235.74 98.422C236.208 98.1707 236.754 98.045 237.378 98.045ZM243.561 103.336L243.587 101.737L247.552 98.11H249.06L246.018 101.1L245.342 101.672L243.561 103.336ZM242.547 105V95.354H243.795V105H242.547ZM247.812 105L245.108 101.646L245.914 100.645L249.346 105H247.812ZM250.469 105V98.11H251.665V99.982L251.548 99.514C251.739 99.0373 252.059 98.6733 252.51 98.422C252.961 98.1707 253.515 98.045 254.174 98.045V99.254C254.122 99.2453 254.07 99.241 254.018 99.241C253.975 99.241 253.931 99.241 253.888 99.241C253.221 99.241 252.692 99.4403 252.302 99.839C251.912 100.238 251.717 100.814 251.717 101.568V105H250.469ZM255.712 105V98.11H256.96V105H255.712ZM256.336 96.784C256.094 96.784 255.89 96.706 255.725 96.55C255.569 96.394 255.491 96.2033 255.491 95.978C255.491 95.744 255.569 95.549 255.725 95.393C255.89 95.237 256.094 95.159 256.336 95.159C256.579 95.159 256.778 95.237 256.934 95.393C257.099 95.5403 257.181 95.7267 257.181 95.952C257.181 96.186 257.103 96.3853 256.947 96.55C256.791 96.706 256.588 96.784 256.336 96.784ZM262.996 105.078C262.424 105.078 261.9 104.948 261.423 104.688C260.955 104.419 260.578 104.025 260.292 103.505C260.015 102.985 259.876 102.335 259.876 101.555C259.876 100.775 260.01 100.125 260.279 99.605C260.556 99.085 260.929 98.695 261.397 98.435C261.874 98.175 262.407 98.045 262.996 98.045C263.672 98.045 264.27 98.1923 264.79 98.487C265.31 98.7817 265.722 99.1933 266.025 99.722C266.328 100.242 266.48 100.853 266.48 101.555C266.48 102.257 266.328 102.872 266.025 103.401C265.722 103.93 265.31 104.341 264.79 104.636C264.27 104.931 263.672 105.078 262.996 105.078ZM259.343 107.522V98.11H260.539V99.969L260.461 101.568L260.591 103.167V107.522H259.343ZM262.892 103.986C263.334 103.986 263.728 103.886 264.075 103.687C264.43 103.488 264.708 103.206 264.907 102.842C265.115 102.469 265.219 102.04 265.219 101.555C265.219 101.061 265.115 100.636 264.907 100.281C264.708 99.917 264.43 99.6353 264.075 99.436C263.728 99.2367 263.334 99.137 262.892 99.137C262.459 99.137 262.064 99.2367 261.709 99.436C261.362 99.6353 261.085 99.917 260.877 100.281C260.678 100.636 260.578 101.061 260.578 101.555C260.578 102.04 260.678 102.469 260.877 102.842C261.085 103.206 261.362 103.488 261.709 103.687C262.064 103.886 262.459 103.986 262.892 103.986ZM270.18 105.078C269.608 105.078 269.062 105 268.542 104.844C268.031 104.688 267.628 104.497 267.333 104.272L267.853 103.284C268.148 103.483 268.512 103.652 268.945 103.791C269.379 103.93 269.821 103.999 270.271 103.999C270.852 103.999 271.268 103.917 271.519 103.752C271.779 103.587 271.909 103.358 271.909 103.063C271.909 102.846 271.831 102.677 271.675 102.556C271.519 102.435 271.311 102.344 271.051 102.283C270.8 102.222 270.518 102.17 270.206 102.127C269.894 102.075 269.582 102.014 269.27 101.945C268.958 101.867 268.672 101.763 268.412 101.633C268.152 101.494 267.944 101.308 267.788 101.074C267.632 100.831 267.554 100.511 267.554 100.112C267.554 99.696 267.671 99.332 267.905 99.02C268.139 98.708 268.469 98.4697 268.893 98.305C269.327 98.1317 269.838 98.045 270.427 98.045C270.878 98.045 271.333 98.1013 271.792 98.214C272.26 98.318 272.642 98.4697 272.936 98.669L272.403 99.657C272.091 99.449 271.766 99.306 271.428 99.228C271.09 99.15 270.752 99.111 270.414 99.111C269.868 99.111 269.461 99.202 269.192 99.384C268.924 99.5573 268.789 99.7827 268.789 100.06C268.789 100.294 268.867 100.476 269.023 100.606C269.188 100.727 269.396 100.823 269.647 100.892C269.907 100.961 270.193 101.022 270.505 101.074C270.817 101.117 271.129 101.178 271.441 101.256C271.753 101.325 272.035 101.425 272.286 101.555C272.546 101.685 272.754 101.867 272.91 102.101C273.075 102.335 273.157 102.647 273.157 103.037C273.157 103.453 273.036 103.813 272.793 104.116C272.551 104.419 272.208 104.658 271.766 104.831C271.324 104.996 270.796 105.078 270.18 105.078ZM274.717 105V98.11H275.965V105H274.717ZM275.341 96.784C275.099 96.784 274.895 96.706 274.73 96.55C274.574 96.394 274.496 96.2033 274.496 95.978C274.496 95.744 274.574 95.549 274.73 95.393C274.895 95.237 275.099 95.159 275.341 95.159C275.584 95.159 275.783 95.237 275.939 95.393C276.104 95.5403 276.186 95.7267 276.186 95.952C276.186 96.186 276.108 96.3853 275.952 96.55C275.796 96.706 275.593 96.784 275.341 96.784ZM18.482 128.6C18.1527 128.6 17.832 128.544 17.52 128.431C17.208 128.327 16.9393 128.171 16.714 127.963L17.247 127.027C17.4203 127.192 17.611 127.317 17.819 127.404C18.027 127.491 18.248 127.534 18.482 127.534C18.7853 127.534 19.0367 127.456 19.236 127.3C19.4353 127.144 19.6217 126.867 19.795 126.468L20.224 125.519L20.354 125.363L23.058 119.11H24.28L20.939 126.689C20.7397 127.174 20.5143 127.556 20.263 127.833C20.0203 128.11 19.7517 128.305 19.457 128.418C19.1623 128.539 18.8373 128.6 18.482 128.6ZM20.12 126.221L16.974 119.11H18.274L20.952 125.246L20.12 126.221ZM29.5059 126V124.544L29.4409 124.271V121.788C29.4409 121.259 29.2849 120.852 28.9729 120.566C28.6696 120.271 28.2102 120.124 27.5949 120.124C27.1876 120.124 26.7889 120.193 26.3989 120.332C26.0089 120.462 25.6796 120.64 25.4109 120.865L24.8909 119.929C25.2462 119.643 25.6709 119.426 26.1649 119.279C26.6676 119.123 27.1919 119.045 27.7379 119.045C28.6826 119.045 29.4106 119.275 29.9219 119.734C30.4332 120.193 30.6889 120.895 30.6889 121.84V126H29.5059ZM27.2439 126.078C26.7326 126.078 26.2819 125.991 25.8919 125.818C25.5106 125.645 25.2159 125.406 25.0079 125.103C24.7999 124.791 24.6959 124.44 24.6959 124.05C24.6959 123.677 24.7826 123.339 24.9559 123.036C25.1379 122.733 25.4282 122.49 25.8269 122.308C26.2342 122.126 26.7802 122.035 27.4649 122.035H29.6489V122.932H27.5169C26.8929 122.932 26.4726 123.036 26.2559 123.244C26.0392 123.452 25.9309 123.703 25.9309 123.998C25.9309 124.336 26.0652 124.609 26.3339 124.817C26.6026 125.016 26.9752 125.116 27.4519 125.116C27.9199 125.116 28.3272 125.012 28.6739 124.804C29.0292 124.596 29.2849 124.293 29.4409 123.894L29.6879 124.752C29.5232 125.159 29.2329 125.484 28.8169 125.727C28.4009 125.961 27.8766 126.078 27.2439 126.078ZM36.6774 119.045C37.2408 119.045 37.7348 119.153 38.1594 119.37C38.5928 119.587 38.9308 119.916 39.1734 120.358C39.4161 120.8 39.5374 121.359 39.5374 122.035V126H38.2894V122.178C38.2894 121.511 38.1248 121.008 37.7954 120.67C37.4748 120.332 37.0198 120.163 36.4304 120.163C35.9884 120.163 35.6028 120.25 35.2734 120.423C34.9441 120.596 34.6884 120.852 34.5064 121.19C34.3331 121.528 34.2464 121.948 34.2464 122.451V126H32.9984V119.11H34.1944V120.969L33.9994 120.475C34.2248 120.024 34.5714 119.673 35.0394 119.422C35.5074 119.171 36.0534 119.045 36.6774 119.045ZM44.8631 128.6C44.2304 128.6 43.6151 128.509 43.0171 128.327C42.4277 128.154 41.9467 127.902 41.5741 127.573L42.1721 126.611C42.4927 126.888 42.8871 127.105 43.3551 127.261C43.8231 127.426 44.3127 127.508 44.8241 127.508C45.6387 127.508 46.2367 127.317 46.6181 126.936C46.9994 126.555 47.1901 125.974 47.1901 125.194V123.738L47.3201 122.373L47.2551 120.995V119.11H48.4381V125.064C48.4381 126.277 48.1347 127.17 47.5281 127.742C46.9214 128.314 46.0331 128.6 44.8631 128.6ZM44.7071 125.714C44.0397 125.714 43.4417 125.575 42.9131 125.298C42.3931 125.012 41.9771 124.618 41.6651 124.115C41.3617 123.612 41.2101 123.032 41.2101 122.373C41.2101 121.706 41.3617 121.125 41.6651 120.631C41.9771 120.128 42.3931 119.738 42.9131 119.461C43.4417 119.184 44.0397 119.045 44.7071 119.045C45.2964 119.045 45.8337 119.166 46.3191 119.409C46.8044 119.643 47.1901 120.007 47.4761 120.501C47.7707 120.995 47.9181 121.619 47.9181 122.373C47.9181 123.118 47.7707 123.738 47.4761 124.232C47.1901 124.726 46.8044 125.099 46.3191 125.35C45.8337 125.593 45.2964 125.714 44.7071 125.714ZM44.8501 124.622C45.3094 124.622 45.7167 124.527 46.0721 124.336C46.4274 124.145 46.7047 123.881 46.9041 123.543C47.1121 123.205 47.2161 122.815 47.2161 122.373C47.2161 121.931 47.1121 121.541 46.9041 121.203C46.7047 120.865 46.4274 120.605 46.0721 120.423C45.7167 120.232 45.3094 120.137 44.8501 120.137C44.3907 120.137 43.9791 120.232 43.6151 120.423C43.2597 120.605 42.9781 120.865 42.7701 121.203C42.5707 121.541 42.4711 121.931 42.4711 122.373C42.4711 122.815 42.5707 123.205 42.7701 123.543C42.9781 123.881 43.2597 124.145 43.6151 124.336C43.9791 124.527 44.3907 124.622 44.8501 124.622ZM57.3169 126.078C56.6149 126.078 55.9865 125.926 55.4319 125.623C54.8859 125.32 54.4569 124.904 54.1449 124.375C53.8329 123.846 53.6769 123.24 53.6769 122.555C53.6769 121.87 53.8329 121.264 54.1449 120.735C54.4569 120.206 54.8859 119.795 55.4319 119.5C55.9865 119.197 56.6149 119.045 57.3169 119.045C57.9409 119.045 58.4955 119.171 58.9809 119.422C59.4749 119.665 59.8562 120.029 60.1249 120.514L59.1759 121.125C58.9505 120.787 58.6732 120.54 58.3439 120.384C58.0232 120.219 57.6765 120.137 57.3039 120.137C56.8532 120.137 56.4502 120.237 56.0949 120.436C55.7395 120.635 55.4579 120.917 55.2499 121.281C55.0419 121.636 54.9379 122.061 54.9379 122.555C54.9379 123.049 55.0419 123.478 55.2499 123.842C55.4579 124.206 55.7395 124.488 56.0949 124.687C56.4502 124.886 56.8532 124.986 57.3039 124.986C57.6765 124.986 58.0232 124.908 58.3439 124.752C58.6732 124.587 58.9505 124.336 59.1759 123.998L60.1249 124.596C59.8562 125.073 59.4749 125.441 58.9809 125.701C58.4955 125.952 57.9409 126.078 57.3169 126.078ZM66.0176 126V124.544L65.9526 124.271V121.788C65.9526 121.259 65.7966 120.852 65.4846 120.566C65.1813 120.271 64.722 120.124 64.1066 120.124C63.6993 120.124 63.3006 120.193 62.9106 120.332C62.5206 120.462 62.1913 120.64 61.9226 120.865L61.4026 119.929C61.758 119.643 62.1826 119.426 62.6766 119.279C63.1793 119.123 63.7036 119.045 64.2496 119.045C65.1943 119.045 65.9223 119.275 66.4336 119.734C66.945 120.193 67.2006 120.895 67.2006 121.84V126H66.0176ZM63.7556 126.078C63.2443 126.078 62.7936 125.991 62.4036 125.818C62.0223 125.645 61.7276 125.406 61.5196 125.103C61.3116 124.791 61.2076 124.44 61.2076 124.05C61.2076 123.677 61.2943 123.339 61.4676 123.036C61.6496 122.733 61.94 122.49 62.3386 122.308C62.746 122.126 63.292 122.035 63.9766 122.035H66.1606V122.932H64.0286C63.4046 122.932 62.9843 123.036 62.7676 123.244C62.551 123.452 62.4426 123.703 62.4426 123.998C62.4426 124.336 62.577 124.609 62.8456 124.817C63.1143 125.016 63.487 125.116 63.9636 125.116C64.4316 125.116 64.839 125.012 65.1856 124.804C65.541 124.596 65.7966 124.293 65.9526 123.894L66.1996 124.752C66.035 125.159 65.7446 125.484 65.3286 125.727C64.9126 125.961 64.3883 126.078 63.7556 126.078ZM73.1891 119.045C73.7525 119.045 74.2465 119.153 74.6711 119.37C75.1045 119.587 75.4425 119.916 75.6851 120.358C75.9278 120.8 76.0491 121.359 76.0491 122.035V126H74.8011V122.178C74.8011 121.511 74.6365 121.008 74.3071 120.67C73.9865 120.332 73.5315 120.163 72.9421 120.163C72.5001 120.163 72.1145 120.25 71.7851 120.423C71.4558 120.596 71.2001 120.852 71.0181 121.19C70.8448 121.528 70.7581 121.948 70.7581 122.451V126H69.5101V119.11H70.7061V120.969L70.5111 120.475C70.7365 120.024 71.0831 119.673 71.5511 119.422C72.0191 119.171 72.5651 119.045 73.1891 119.045ZM81.3748 128.6C80.7421 128.6 80.1268 128.509 79.5288 128.327C78.9394 128.154 78.4584 127.902 78.0858 127.573L78.6838 126.611C79.0044 126.888 79.3988 127.105 79.8668 127.261C80.3348 127.426 80.8244 127.508 81.3358 127.508C82.1504 127.508 82.7484 127.317 83.1298 126.936C83.5111 126.555 83.7018 125.974 83.7018 125.194V123.738L83.8318 122.373L83.7668 120.995V119.11H84.9498V125.064C84.9498 126.277 84.6464 127.17 84.0398 127.742C83.4331 128.314 82.5448 128.6 81.3748 128.6ZM81.2188 125.714C80.5514 125.714 79.9534 125.575 79.4248 125.298C78.9048 125.012 78.4888 124.618 78.1768 124.115C77.8734 123.612 77.7218 123.032 77.7218 122.373C77.7218 121.706 77.8734 121.125 78.1768 120.631C78.4888 120.128 78.9048 119.738 79.4248 119.461C79.9534 119.184 80.5514 119.045 81.2188 119.045C81.8081 119.045 82.3454 119.166 82.8308 119.409C83.3161 119.643 83.7018 120.007 83.9878 120.501C84.2824 120.995 84.4298 121.619 84.4298 122.373C84.4298 123.118 84.2824 123.738 83.9878 124.232C83.7018 124.726 83.3161 125.099 82.8308 125.35C82.3454 125.593 81.8081 125.714 81.2188 125.714ZM81.3618 124.622C81.8211 124.622 82.2284 124.527 82.5838 124.336C82.9391 124.145 83.2164 123.881 83.4158 123.543C83.6238 123.205 83.7278 122.815 83.7278 122.373C83.7278 121.931 83.6238 121.541 83.4158 121.203C83.2164 120.865 82.9391 120.605 82.5838 120.423C82.2284 120.232 81.8211 120.137 81.3618 120.137C80.9024 120.137 80.4908 120.232 80.1268 120.423C79.7714 120.605 79.4898 120.865 79.2818 121.203C79.0824 121.541 78.9828 121.931 78.9828 122.373C78.9828 122.815 79.0824 123.205 79.2818 123.543C79.4898 123.881 79.7714 124.145 80.1268 124.336C80.4908 124.527 80.9024 124.622 81.3618 124.622ZM90.3504 128.6C89.7177 128.6 89.1024 128.509 88.5044 128.327C87.915 128.154 87.434 127.902 87.0614 127.573L87.6594 126.611C87.98 126.888 88.3744 127.105 88.8424 127.261C89.3104 127.426 89.8 127.508 90.3114 127.508C91.126 127.508 91.724 127.317 92.1054 126.936C92.4867 126.555 92.6774 125.974 92.6774 125.194V123.738L92.8074 122.373L92.7424 120.995V119.11H93.9254V125.064C93.9254 126.277 93.622 127.17 93.0154 127.742C92.4087 128.314 91.5204 128.6 90.3504 128.6ZM90.1944 125.714C89.527 125.714 88.929 125.575 88.4004 125.298C87.8804 125.012 87.4644 124.618 87.1524 124.115C86.849 123.612 86.6974 123.032 86.6974 122.373C86.6974 121.706 86.849 121.125 87.1524 120.631C87.4644 120.128 87.8804 119.738 88.4004 119.461C88.929 119.184 89.527 119.045 90.1944 119.045C90.7837 119.045 91.321 119.166 91.8064 119.409C92.2917 119.643 92.6774 120.007 92.9634 120.501C93.258 120.995 93.4054 121.619 93.4054 122.373C93.4054 123.118 93.258 123.738 92.9634 124.232C92.6774 124.726 92.2917 125.099 91.8064 125.35C91.321 125.593 90.7837 125.714 90.1944 125.714ZM90.3374 124.622C90.7967 124.622 91.204 124.527 91.5594 124.336C91.9147 124.145 92.192 123.881 92.3914 123.543C92.5994 123.205 92.7034 122.815 92.7034 122.373C92.7034 121.931 92.5994 121.541 92.3914 121.203C92.192 120.865 91.9147 120.605 91.5594 120.423C91.204 120.232 90.7967 120.137 90.3374 120.137C89.878 120.137 89.4664 120.232 89.1024 120.423C88.747 120.605 88.4654 120.865 88.2574 121.203C88.058 121.541 87.9584 121.931 87.9584 122.373C87.9584 122.815 88.058 123.205 88.2574 123.543C88.4654 123.881 88.747 124.145 89.1024 124.336C89.4664 124.527 89.878 124.622 90.3374 124.622ZM96.31 126V119.11H97.558V126H96.31ZM96.934 117.784C96.6913 117.784 96.4876 117.706 96.323 117.55C96.167 117.394 96.089 117.203 96.089 116.978C96.089 116.744 96.167 116.549 96.323 116.393C96.4876 116.237 96.6913 116.159 96.934 116.159C97.1766 116.159 97.376 116.237 97.532 116.393C97.6966 116.54 97.779 116.727 97.779 116.952C97.779 117.186 97.701 117.385 97.545 117.55C97.389 117.706 97.1853 117.784 96.934 117.784ZM103.62 119.045C104.183 119.045 104.677 119.153 105.102 119.37C105.535 119.587 105.873 119.916 106.116 120.358C106.358 120.8 106.48 121.359 106.48 122.035V126H105.232V122.178C105.232 121.511 105.067 121.008 104.738 120.67C104.417 120.332 103.962 120.163 103.373 120.163C102.931 120.163 102.545 120.25 102.216 120.423C101.886 120.596 101.631 120.852 101.449 121.19C101.275 121.528 101.189 121.948 101.189 122.451V126H99.9408V116.354H101.189V120.969L100.942 120.475C101.167 120.024 101.514 119.673 101.982 119.422C102.45 119.171 102.996 119.045 103.62 119.045ZM109.088 126.078C108.846 126.078 108.638 125.996 108.464 125.831C108.291 125.658 108.204 125.441 108.204 125.181C108.204 124.921 108.291 124.709 108.464 124.544C108.638 124.379 108.846 124.297 109.088 124.297C109.322 124.297 109.522 124.379 109.686 124.544C109.86 124.709 109.946 124.921 109.946 125.181C109.946 125.441 109.86 125.658 109.686 125.831C109.522 125.996 109.322 126.078 109.088 126.078Z" fill="white" fill-opacity="0.8"/>
<circle cx="37" cy="36" r="20" fill="#26272A"/>
<path d="M44.965 32.521C44.988 32.347 45 32.173 45 32C45 29.621 42.857 27.712 40.479 28.035C39.786 26.802 38.466 26 37 26C35.534 26 34.214 26.802 33.521 28.035C31.138 27.712 29 29.621 29 32C29 32.173 29.012 32.347 29.035 32.521C27.802 33.215 27 34.535 27 36C27 37.465 27.802 38.785 29.035 39.479C29.0119 39.6517 29.0002 39.8258 29 40C29 42.379 31.138 44.283 33.521 43.965C34.214 45.198 35.534 46 37 46C38.466 46 39.786 45.198 40.479 43.965C42.857 44.283 45 42.379 45 40C45 39.827 44.988 39.653 44.965 39.479C46.198 38.785 47 37.465 47 36C47 34.535 46.198 33.215 44.965 32.521ZM35.955 40.416L32.288 36.702L33.712 35.298L35.969 37.584L40.296 33.29L41.704 34.71L35.955 40.416Z" fill="#939395"/>
</svg>
