<svg width="300" height="160" viewBox="0 0 300 160" fill="none" xmlns="http://www.w3.org/2000/svg">
<rect width="300" height="160" rx="10" fill="#0C0E12"/>
<rect x="1" y="1" width="298" height="158" rx="9" stroke="white" stroke-opacity="0.07" stroke-width="2"/>
<path d="M73.88 43V29H79.64C80.88 29 81.94 29.2 82.82 29.6C83.7133 30 84.4 30.5733 84.88 31.32C85.36 32.0667 85.6 32.9533 85.6 33.98C85.6 35.0067 85.36 35.8933 84.88 36.64C84.4 37.3733 83.7133 37.94 82.82 38.34C81.94 38.7267 80.88 38.92 79.64 38.92H75.32L76.48 37.74V43H73.88ZM83.04 43L79.5 37.92H82.28L85.84 43H83.04ZM76.48 38.02L75.32 36.78H79.52C80.6667 36.78 81.5267 36.5333 82.1 36.04C82.6867 35.5467 82.98 34.86 82.98 33.98C82.98 33.0867 82.6867 32.4 82.1 31.92C81.5267 31.44 80.6667 31.2 79.52 31.2H75.32L76.48 29.92V38.02ZM93.2889 43.14C92.1022 43.14 91.0622 42.9067 90.1689 42.44C89.2889 41.96 88.6022 41.3067 88.1089 40.48C87.6289 39.6533 87.3889 38.7133 87.3889 37.66C87.3889 36.5933 87.6222 35.6533 88.0889 34.84C88.5689 34.0133 89.2222 33.3667 90.0489 32.9C90.8889 32.4333 91.8422 32.2 92.9089 32.2C93.9489 32.2 94.8756 32.4267 95.6889 32.88C96.5022 33.3333 97.1422 33.9733 97.6089 34.8C98.0756 35.6267 98.3089 36.6 98.3089 37.72C98.3089 37.8267 98.3022 37.9467 98.2889 38.08C98.2889 38.2133 98.2822 38.34 98.2689 38.46H89.3689V36.8H96.9489L95.9689 37.32C95.9822 36.7067 95.8556 36.1667 95.5889 35.7C95.3222 35.2333 94.9556 34.8667 94.4889 34.6C94.0356 34.3333 93.5089 34.2 92.9089 34.2C92.2956 34.2 91.7556 34.3333 91.2889 34.6C90.8356 34.8667 90.4756 35.24 90.2089 35.72C89.9556 36.1867 89.8289 36.74 89.8289 37.38V37.78C89.8289 38.42 89.9756 38.9867 90.2689 39.48C90.5622 39.9733 90.9756 40.3533 91.5089 40.62C92.0422 40.8867 92.6556 41.02 93.3489 41.02C93.9489 41.02 94.4889 40.9267 94.9689 40.74C95.4489 40.5533 95.8756 40.26 96.2489 39.86L97.5889 41.4C97.1089 41.96 96.5022 42.3933 95.7689 42.7C95.0489 42.9933 94.2222 43.14 93.2889 43.14ZM104.01 43.14C103.117 43.14 102.257 43.0267 101.43 42.8C100.617 42.56 99.9703 42.2733 99.4903 41.94L100.45 40.04C100.93 40.3467 101.504 40.6 102.17 40.8C102.837 41 103.504 41.1 104.17 41.1C104.957 41.1 105.524 40.9933 105.87 40.78C106.23 40.5667 106.41 40.28 106.41 39.92C106.41 39.6267 106.29 39.4067 106.05 39.26C105.81 39.1 105.497 38.98 105.11 38.9C104.724 38.82 104.29 38.7467 103.81 38.68C103.344 38.6133 102.87 38.5267 102.39 38.42C101.924 38.3 101.497 38.1333 101.11 37.92C100.724 37.6933 100.41 37.3933 100.17 37.02C99.9303 36.6467 99.8103 36.1533 99.8103 35.54C99.8103 34.86 100.004 34.2733 100.39 33.78C100.777 33.2733 101.317 32.8867 102.01 32.62C102.717 32.34 103.55 32.2 104.51 32.2C105.23 32.2 105.957 32.28 106.69 32.44C107.424 32.6 108.03 32.8267 108.51 33.12L107.55 35.02C107.044 34.7133 106.53 34.5067 106.01 34.4C105.504 34.28 104.997 34.22 104.49 34.22C103.73 34.22 103.164 34.3333 102.79 34.56C102.43 34.7867 102.25 35.0733 102.25 35.42C102.25 35.74 102.37 35.98 102.61 36.14C102.85 36.3 103.164 36.4267 103.55 36.52C103.937 36.6133 104.364 36.6933 104.83 36.76C105.31 36.8133 105.784 36.9 106.25 37.02C106.717 37.14 107.144 37.3067 107.53 37.52C107.93 37.72 108.25 38.0067 108.49 38.38C108.73 38.7533 108.85 39.24 108.85 39.84C108.85 40.5067 108.65 41.0867 108.25 41.58C107.864 42.0733 107.31 42.46 106.59 42.74C105.87 43.0067 105.01 43.14 104.01 43.14ZM116.923 43.14C116.057 43.14 115.263 42.94 114.543 42.54C113.837 42.14 113.27 41.54 112.843 40.74C112.43 39.9267 112.223 38.9 112.223 37.66C112.223 36.4067 112.423 35.38 112.823 34.58C113.237 33.78 113.797 33.1867 114.503 32.8C115.21 32.4 116.017 32.2 116.923 32.2C117.977 32.2 118.903 32.4267 119.703 32.88C120.517 33.3333 121.157 33.9667 121.623 34.78C122.103 35.5933 122.343 36.5533 122.343 37.66C122.343 38.7667 122.103 39.7333 121.623 40.56C121.157 41.3733 120.517 42.0067 119.703 42.46C118.903 42.9133 117.977 43.14 116.923 43.14ZM111.003 46.88V32.32H113.383V34.84L113.303 37.68L113.503 40.52V46.88H111.003ZM116.643 41C117.243 41 117.777 40.8667 118.243 40.6C118.723 40.3333 119.103 39.9467 119.383 39.44C119.663 38.9333 119.803 38.34 119.803 37.66C119.803 36.9667 119.663 36.3733 119.383 35.88C119.103 35.3733 118.723 34.9867 118.243 34.72C117.777 34.4533 117.243 34.32 116.643 34.32C116.043 34.32 115.503 34.4533 115.023 34.72C114.543 34.9867 114.163 35.3733 113.883 35.88C113.603 36.3733 113.463 36.9667 113.463 37.66C113.463 38.34 113.603 38.9333 113.883 39.44C114.163 39.9467 114.543 40.3333 115.023 40.6C115.503 40.8667 116.043 41 116.643 41ZM129.514 43.14C128.421 43.14 127.448 42.9067 126.594 42.44C125.741 41.96 125.068 41.3067 124.574 40.48C124.081 39.6533 123.834 38.7133 123.834 37.66C123.834 36.5933 124.081 35.6533 124.574 34.84C125.068 34.0133 125.741 33.3667 126.594 32.9C127.448 32.4333 128.421 32.2 129.514 32.2C130.621 32.2 131.601 32.4333 132.454 32.9C133.321 33.3667 133.994 34.0067 134.474 34.82C134.968 35.6333 135.214 36.58 135.214 37.66C135.214 38.7133 134.968 39.6533 134.474 40.48C133.994 41.3067 133.321 41.96 132.454 42.44C131.601 42.9067 130.621 43.14 129.514 43.14ZM129.514 41C130.128 41 130.674 40.8667 131.154 40.6C131.634 40.3333 132.008 39.9467 132.274 39.44C132.554 38.9333 132.694 38.34 132.694 37.66C132.694 36.9667 132.554 36.3733 132.274 35.88C132.008 35.3733 131.634 34.9867 131.154 34.72C130.674 34.4533 130.134 34.32 129.534 34.32C128.921 34.32 128.374 34.4533 127.894 34.72C127.428 34.9867 127.054 35.3733 126.774 35.88C126.494 36.3733 126.354 36.9667 126.354 37.66C126.354 38.34 126.494 38.9333 126.774 39.44C127.054 39.9467 127.428 40.3333 127.894 40.6C128.374 40.8667 128.914 41 129.514 41ZM143.665 32.2C144.518 32.2 145.278 32.3667 145.945 32.7C146.625 33.0333 147.158 33.5467 147.545 34.24C147.932 34.92 148.125 35.8 148.125 36.88V43H145.625V37.2C145.625 36.2533 145.398 35.5467 144.945 35.08C144.505 34.6133 143.885 34.38 143.085 34.38C142.498 34.38 141.978 34.5 141.525 34.74C141.072 34.98 140.718 35.34 140.465 35.82C140.225 36.2867 140.105 36.88 140.105 37.6V43H137.605V32.32H139.985V35.2L139.565 34.32C139.938 33.64 140.478 33.12 141.185 32.76C141.905 32.3867 142.732 32.2 143.665 32.2ZM163.544 43.2C162.477 43.2 161.484 43.0267 160.564 42.68C159.657 42.32 158.864 41.82 158.184 41.18C157.517 40.5267 156.997 39.76 156.624 38.88C156.25 38 156.064 37.04 156.064 36C156.064 34.96 156.25 34 156.624 33.12C156.997 32.24 157.524 31.48 158.204 30.84C158.884 30.1867 159.677 29.6867 160.584 29.34C161.49 28.98 162.484 28.8 163.564 28.8C164.71 28.8 165.757 29 166.704 29.4C167.65 29.7867 168.45 30.3667 169.104 31.14L167.424 32.72C166.917 32.1733 166.35 31.7667 165.724 31.5C165.097 31.22 164.417 31.08 163.684 31.08C162.95 31.08 162.277 31.2 161.664 31.44C161.064 31.68 160.537 32.02 160.084 32.46C159.644 32.9 159.297 33.42 159.044 34.02C158.804 34.62 158.684 35.28 158.684 36C158.684 36.72 158.804 37.38 159.044 37.98C159.297 38.58 159.644 39.1 160.084 39.54C160.537 39.98 161.064 40.32 161.664 40.56C162.277 40.8 162.95 40.92 163.684 40.92C164.417 40.92 165.097 40.7867 165.724 40.52C166.35 40.24 166.917 39.82 167.424 39.26L169.104 40.86C168.45 41.62 167.65 42.2 166.704 42.6C165.757 43 164.704 43.2 163.544 43.2ZM175.965 43.14C174.778 43.14 173.738 42.9067 172.845 42.44C171.965 41.96 171.278 41.3067 170.785 40.48C170.305 39.6533 170.065 38.7133 170.065 37.66C170.065 36.5933 170.298 35.6533 170.765 34.84C171.245 34.0133 171.898 33.3667 172.725 32.9C173.565 32.4333 174.518 32.2 175.585 32.2C176.625 32.2 177.551 32.4267 178.365 32.88C179.178 33.3333 179.818 33.9733 180.285 34.8C180.751 35.6267 180.985 36.6 180.985 37.72C180.985 37.8267 180.978 37.9467 180.965 38.08C180.965 38.2133 180.958 38.34 180.945 38.46H172.045V36.8H179.625L178.645 37.32C178.658 36.7067 178.531 36.1667 178.265 35.7C177.998 35.2333 177.631 34.8667 177.165 34.6C176.711 34.3333 176.185 34.2 175.585 34.2C174.971 34.2 174.431 34.3333 173.965 34.6C173.511 34.8667 173.151 35.24 172.885 35.72C172.631 36.1867 172.505 36.74 172.505 37.38V37.78C172.505 38.42 172.651 38.9867 172.945 39.48C173.238 39.9733 173.651 40.3533 174.185 40.62C174.718 40.8867 175.331 41.02 176.025 41.02C176.625 41.02 177.165 40.9267 177.645 40.74C178.125 40.5533 178.551 40.26 178.925 39.86L180.265 41.4C179.785 41.96 179.178 42.3933 178.445 42.7C177.725 42.9933 176.898 43.14 175.965 43.14ZM189.306 43.14C188.439 43.14 187.646 42.94 186.926 42.54C186.219 42.14 185.653 41.54 185.226 40.74C184.813 39.9267 184.606 38.9 184.606 37.66C184.606 36.4067 184.806 35.38 185.206 34.58C185.619 33.78 186.179 33.1867 186.886 32.8C187.593 32.4 188.399 32.2 189.306 32.2C190.359 32.2 191.286 32.4267 192.086 32.88C192.899 33.3333 193.539 33.9667 194.006 34.78C194.486 35.5933 194.726 36.5533 194.726 37.66C194.726 38.7667 194.486 39.7333 194.006 40.56C193.539 41.3733 192.899 42.0067 192.086 42.46C191.286 42.9133 190.359 43.14 189.306 43.14ZM183.386 46.88V32.32H185.766V34.84L185.686 37.68L185.886 40.52V46.88H183.386ZM189.026 41C189.626 41 190.159 40.8667 190.626 40.6C191.106 40.3333 191.486 39.9467 191.766 39.44C192.046 38.9333 192.186 38.34 192.186 37.66C192.186 36.9667 192.046 36.3733 191.766 35.88C191.486 35.3733 191.106 34.9867 190.626 34.72C190.159 34.4533 189.626 34.32 189.026 34.32C188.426 34.32 187.886 34.4533 187.406 34.72C186.926 34.9867 186.546 35.3733 186.266 35.88C185.986 36.3733 185.846 36.9667 185.846 37.66C185.846 38.34 185.986 38.9333 186.266 39.44C186.546 39.9467 186.926 40.3333 187.406 40.6C187.886 40.8667 188.426 41 189.026 41ZM203.54 43V40.84L203.4 40.38V36.6C203.4 35.8667 203.18 35.3 202.74 34.9C202.3 34.4867 201.634 34.28 200.74 34.28C200.14 34.28 199.547 34.3733 198.96 34.56C198.387 34.7467 197.9 35.0067 197.5 35.34L196.52 33.52C197.094 33.08 197.774 32.7533 198.56 32.54C199.36 32.3133 200.187 32.2 201.04 32.2C202.587 32.2 203.78 32.5733 204.62 33.32C205.474 34.0533 205.9 35.1933 205.9 36.74V43H203.54ZM200.18 43.14C199.38 43.14 198.68 43.0067 198.08 42.74C197.48 42.46 197.014 42.08 196.68 41.6C196.36 41.1067 196.2 40.5533 196.2 39.94C196.2 39.34 196.34 38.8 196.62 38.32C196.914 37.84 197.387 37.46 198.04 37.18C198.694 36.9 199.56 36.76 200.64 36.76H203.74V38.42H200.82C199.967 38.42 199.394 38.56 199.1 38.84C198.807 39.1067 198.66 39.44 198.66 39.84C198.66 40.2933 198.84 40.6533 199.2 40.92C199.56 41.1867 200.06 41.32 200.7 41.32C201.314 41.32 201.86 41.18 202.34 40.9C202.834 40.62 203.187 40.2067 203.4 39.66L203.82 41.16C203.58 41.7867 203.147 42.2733 202.52 42.62C201.907 42.9667 201.127 43.14 200.18 43.14ZM213.129 43.14C211.955 43.14 211.049 42.84 210.409 42.24C209.769 41.6267 209.449 40.7267 209.449 39.54V29.96H211.949V39.48C211.949 39.9867 212.075 40.38 212.329 40.66C212.595 40.94 212.962 41.08 213.429 41.08C213.989 41.08 214.455 40.9333 214.829 40.64L215.529 42.42C215.235 42.66 214.875 42.84 214.449 42.96C214.022 43.08 213.582 43.14 213.129 43.14ZM207.689 34.4V32.4H214.809V34.4H207.689Z" fill="white"/>
<path d="M19.509 81.803L19.444 80.217L24.605 74.9H26.087L22.096 79.112L21.368 79.918L19.509 81.803ZM18.365 84V74.9H19.665V84H18.365ZM24.813 84L21.082 79.658L21.953 78.696L26.334 84H24.813ZM31.6387 84V82.544L31.5737 82.271V79.788C31.5737 79.2593 31.4177 78.852 31.1057 78.566C30.8024 78.2713 30.343 78.124 29.7277 78.124C29.3204 78.124 28.9217 78.1933 28.5317 78.332C28.1417 78.462 27.8124 78.6397 27.5437 78.865L27.0237 77.929C27.379 77.643 27.8037 77.4263 28.2977 77.279C28.8004 77.123 29.3247 77.045 29.8707 77.045C30.8154 77.045 31.5434 77.2747 32.0547 77.734C32.566 78.1933 32.8217 78.8953 32.8217 79.84V84H31.6387ZM29.3767 84.078C28.8654 84.078 28.4147 83.9913 28.0247 83.818C27.6434 83.6447 27.3487 83.4063 27.1407 83.103C26.9327 82.791 26.8287 82.44 26.8287 82.05C26.8287 81.6773 26.9154 81.3393 27.0887 81.036C27.2707 80.7327 27.561 80.49 27.9597 80.308C28.367 80.126 28.913 80.035 29.5977 80.035H31.7817V80.932H29.6497C29.0257 80.932 28.6054 81.036 28.3887 81.244C28.172 81.452 28.0637 81.7033 28.0637 81.998C28.0637 82.336 28.198 82.609 28.4667 82.817C28.7354 83.0163 29.108 83.116 29.5847 83.116C30.0527 83.116 30.46 83.012 30.8067 82.804C31.162 82.596 31.4177 82.2927 31.5737 81.894L31.8207 82.752C31.656 83.1593 31.3657 83.4843 30.9497 83.727C30.5337 83.961 30.0094 84.078 29.3767 84.078ZM43.7502 77.045C44.3049 77.045 44.7946 77.1533 45.2192 77.37C45.6439 77.5867 45.9732 77.916 46.2072 78.358C46.4499 78.8 46.5712 79.359 46.5712 80.035V84H45.3232V80.178C45.3232 79.5107 45.1672 79.008 44.8552 78.67C44.5432 78.332 44.1056 78.163 43.5422 78.163C43.1262 78.163 42.7622 78.2497 42.4502 78.423C42.1382 78.5963 41.8956 78.852 41.7222 79.19C41.5576 79.528 41.4752 79.9483 41.4752 80.451V84H40.2272V80.178C40.2272 79.5107 40.0712 79.008 39.7592 78.67C39.4559 78.332 39.0182 78.163 38.4462 78.163C38.0389 78.163 37.6792 78.2497 37.3672 78.423C37.0552 78.5963 36.8126 78.852 36.6392 79.19C36.4659 79.528 36.3792 79.9483 36.3792 80.451V84H35.1312V77.11H36.3272V78.943L36.1322 78.475C36.3489 78.0243 36.6826 77.6733 37.1332 77.422C37.5839 77.1707 38.1082 77.045 38.7062 77.045C39.3649 77.045 39.9326 77.2097 40.4092 77.539C40.8859 77.8597 41.1979 78.3493 41.3452 79.008L40.8382 78.8C41.0462 78.2713 41.4102 77.8467 41.9302 77.526C42.4502 77.2053 43.0569 77.045 43.7502 77.045ZM48.8676 84V77.11H50.1156V84H48.8676ZM49.4916 75.784C49.2489 75.784 49.0452 75.706 48.8806 75.55C48.7246 75.394 48.6466 75.2033 48.6466 74.978C48.6466 74.744 48.7246 74.549 48.8806 74.393C49.0452 74.237 49.2489 74.159 49.4916 74.159C49.7342 74.159 49.9336 74.237 50.0896 74.393C50.2542 74.5403 50.3366 74.7267 50.3366 74.952C50.3366 75.186 50.2586 75.3853 50.1026 75.55C49.9466 75.706 49.7429 75.784 49.4916 75.784ZM64.6086 77.045C65.1633 77.045 65.653 77.1533 66.0776 77.37C66.5023 77.5867 66.8316 77.916 67.0656 78.358C67.3083 78.8 67.4296 79.359 67.4296 80.035V84H66.1816V80.178C66.1816 79.5107 66.0256 79.008 65.7136 78.67C65.4016 78.332 64.964 78.163 64.4006 78.163C63.9846 78.163 63.6206 78.2497 63.3086 78.423C62.9966 78.5963 62.754 78.852 62.5806 79.19C62.416 79.528 62.3336 79.9483 62.3336 80.451V84H61.0856V80.178C61.0856 79.5107 60.9296 79.008 60.6176 78.67C60.3143 78.332 59.8766 78.163 59.3046 78.163C58.8973 78.163 58.5376 78.2497 58.2256 78.423C57.9136 78.5963 57.671 78.852 57.4976 79.19C57.3243 79.528 57.2376 79.9483 57.2376 80.451V84H55.9896V77.11H57.1856V78.943L56.9906 78.475C57.2073 78.0243 57.541 77.6733 57.9916 77.422C58.4423 77.1707 58.9666 77.045 59.5646 77.045C60.2233 77.045 60.791 77.2097 61.2676 77.539C61.7443 77.8597 62.0563 78.3493 62.2036 79.008L61.6966 78.8C61.9046 78.2713 62.2686 77.8467 62.7886 77.526C63.3086 77.2053 63.9153 77.045 64.6086 77.045ZM72.794 84.078C72.0573 84.078 71.4073 83.9263 70.844 83.623C70.2893 83.3197 69.856 82.9037 69.544 82.375C69.2406 81.8463 69.089 81.2397 69.089 80.555C69.089 79.8703 69.2363 79.2637 69.531 78.735C69.8343 78.2063 70.246 77.7947 70.766 77.5C71.2946 77.1967 71.8883 77.045 72.547 77.045C73.2143 77.045 73.8036 77.1923 74.315 77.487C74.8263 77.7817 75.225 78.1977 75.511 78.735C75.8056 79.2637 75.953 79.8833 75.953 80.594C75.953 80.646 75.9486 80.7067 75.94 80.776C75.94 80.8453 75.9356 80.9103 75.927 80.971H70.064V80.074H75.277L74.77 80.386C74.7786 79.944 74.6876 79.5497 74.497 79.203C74.3063 78.8563 74.042 78.5877 73.704 78.397C73.3746 78.1977 72.989 78.098 72.547 78.098C72.1136 78.098 71.728 78.1977 71.39 78.397C71.052 78.5877 70.7876 78.8607 70.597 79.216C70.4063 79.5627 70.311 79.9613 70.311 80.412V80.62C70.311 81.0793 70.415 81.491 70.623 81.855C70.8396 82.2103 71.1386 82.4877 71.52 82.687C71.9013 82.8863 72.339 82.986 72.833 82.986C73.2403 82.986 73.6086 82.9167 73.938 82.778C74.276 82.6393 74.5706 82.4313 74.822 82.154L75.511 82.96C75.199 83.324 74.809 83.6013 74.341 83.792C73.8816 83.9827 73.366 84.078 72.794 84.078ZM81.3649 77.045C81.9283 77.045 82.4223 77.1533 82.8469 77.37C83.2803 77.5867 83.6183 77.916 83.8609 78.358C84.1036 78.8 84.2249 79.359 84.2249 80.035V84H82.9769V80.178C82.9769 79.5107 82.8123 79.008 82.4829 78.67C82.1623 78.332 81.7073 78.163 81.1179 78.163C80.6759 78.163 80.2903 78.2497 79.9609 78.423C79.6316 78.5963 79.3759 78.852 79.1939 79.19C79.0206 79.528 78.9339 79.9483 78.9339 80.451V84H77.6859V77.11H78.8819V78.969L78.6869 78.475C78.9123 78.0243 79.2589 77.6733 79.7269 77.422C80.1949 77.1707 80.7409 77.045 81.3649 77.045ZM89.5506 86.6C88.9179 86.6 88.3026 86.509 87.7046 86.327C87.1152 86.1537 86.6342 85.9023 86.2616 85.573L86.8596 84.611C87.1802 84.8883 87.5746 85.105 88.0426 85.261C88.5106 85.4257 89.0002 85.508 89.5116 85.508C90.3262 85.508 90.9242 85.3173 91.3056 84.936C91.6869 84.5547 91.8776 83.974 91.8776 83.194V81.738L92.0076 80.373L91.9426 78.995V77.11H93.1256V83.064C93.1256 84.2773 92.8222 85.17 92.2156 85.742C91.6089 86.314 90.7206 86.6 89.5506 86.6ZM89.3946 83.714C88.7272 83.714 88.1292 83.5753 87.6006 83.298C87.0806 83.012 86.6646 82.6177 86.3526 82.115C86.0492 81.6123 85.8976 81.0317 85.8976 80.373C85.8976 79.7057 86.0492 79.125 86.3526 78.631C86.6646 78.1283 87.0806 77.7383 87.6006 77.461C88.1292 77.1837 88.7272 77.045 89.3946 77.045C89.9839 77.045 90.5212 77.1663 91.0066 77.409C91.4919 77.643 91.8776 78.007 92.1636 78.501C92.4582 78.995 92.6056 79.619 92.6056 80.373C92.6056 81.1183 92.4582 81.738 92.1636 82.232C91.8776 82.726 91.4919 83.0987 91.0066 83.35C90.5212 83.5927 89.9839 83.714 89.3946 83.714ZM89.5376 82.622C89.9969 82.622 90.4042 82.5267 90.7596 82.336C91.1149 82.1453 91.3922 81.881 91.5916 81.543C91.7996 81.205 91.9036 80.815 91.9036 80.373C91.9036 79.931 91.7996 79.541 91.5916 79.203C91.3922 78.865 91.1149 78.605 90.7596 78.423C90.4042 78.2323 89.9969 78.137 89.5376 78.137C89.0782 78.137 88.6666 78.2323 88.3026 78.423C87.9472 78.605 87.6656 78.865 87.4576 79.203C87.2582 79.541 87.1586 79.931 87.1586 80.373C87.1586 80.815 87.2582 81.205 87.4576 81.543C87.6656 81.881 87.9472 82.1453 88.3026 82.336C88.6666 82.5267 89.0782 82.622 89.5376 82.622ZM98.4091 84.078C97.8198 84.078 97.2998 83.9697 96.8491 83.753C96.4071 83.5363 96.0605 83.207 95.8091 82.765C95.5665 82.3143 95.4451 81.751 95.4451 81.075V77.11H96.6931V80.932C96.6931 81.608 96.8535 82.115 97.1741 82.453C97.5035 82.791 97.9628 82.96 98.5521 82.96C98.9855 82.96 99.3625 82.8733 99.6831 82.7C100.004 82.518 100.251 82.258 100.424 81.92C100.597 81.5733 100.684 81.1573 100.684 80.672V77.11H101.932V84H100.749V82.141L100.944 82.635C100.719 83.0943 100.381 83.4497 99.9301 83.701C99.4795 83.9523 98.9725 84.078 98.4091 84.078ZM106.674 84.078C105.981 84.078 105.443 83.8917 105.062 83.519C104.681 83.1463 104.49 82.6133 104.49 81.92V75.602H105.738V81.868C105.738 82.2407 105.829 82.5267 106.011 82.726C106.202 82.9253 106.47 83.025 106.817 83.025C107.207 83.025 107.532 82.9167 107.792 82.7L108.182 83.597C107.991 83.7617 107.762 83.883 107.493 83.961C107.233 84.039 106.96 84.078 106.674 84.078ZM103.32 78.137V77.11H107.714V78.137H103.32ZM113.968 84V82.544L113.903 82.271V79.788C113.903 79.2593 113.747 78.852 113.435 78.566C113.131 78.2713 112.672 78.124 112.057 78.124C111.649 78.124 111.251 78.1933 110.861 78.332C110.471 78.462 110.141 78.6397 109.873 78.865L109.353 77.929C109.708 77.643 110.133 77.4263 110.627 77.279C111.129 77.123 111.654 77.045 112.2 77.045C113.144 77.045 113.872 77.2747 114.384 77.734C114.895 78.1933 115.151 78.8953 115.151 79.84V84H113.968ZM111.706 84.078C111.194 84.078 110.744 83.9913 110.354 83.818C109.972 83.6447 109.678 83.4063 109.47 83.103C109.262 82.791 109.158 82.44 109.158 82.05C109.158 81.6773 109.244 81.3393 109.418 81.036C109.6 80.7327 109.89 80.49 110.289 80.308C110.696 80.126 111.242 80.035 111.927 80.035H114.111V80.932H111.979C111.355 80.932 110.934 81.036 110.718 81.244C110.501 81.452 110.393 81.7033 110.393 81.998C110.393 82.336 110.527 82.609 110.796 82.817C111.064 83.0163 111.437 83.116 111.914 83.116C112.382 83.116 112.789 83.012 113.136 82.804C113.491 82.596 113.747 82.2927 113.903 81.894L114.15 82.752C113.985 83.1593 113.695 83.4843 113.279 83.727C112.863 83.961 112.338 84.078 111.706 84.078ZM126.079 77.045C126.634 77.045 127.124 77.1533 127.548 77.37C127.973 77.5867 128.302 77.916 128.536 78.358C128.779 78.8 128.9 79.359 128.9 80.035V84H127.652V80.178C127.652 79.5107 127.496 79.008 127.184 78.67C126.872 78.332 126.435 78.163 125.871 78.163C125.455 78.163 125.091 78.2497 124.779 78.423C124.467 78.5963 124.225 78.852 124.051 79.19C123.887 79.528 123.804 79.9483 123.804 80.451V84H122.556V80.178C122.556 79.5107 122.4 79.008 122.088 78.67C121.785 78.332 121.347 78.163 120.775 78.163C120.368 78.163 120.008 78.2497 119.696 78.423C119.384 78.5963 119.142 78.852 118.968 79.19C118.795 79.528 118.708 79.9483 118.708 80.451V84H117.46V77.11H118.656V78.943L118.461 78.475C118.678 78.0243 119.012 77.6733 119.462 77.422C119.913 77.1707 120.437 77.045 121.035 77.045C121.694 77.045 122.262 77.2097 122.738 77.539C123.215 77.8597 123.527 78.3493 123.674 79.008L123.167 78.8C123.375 78.2713 123.739 77.8467 124.259 77.526C124.779 77.2053 125.386 77.045 126.079 77.045ZM135.474 84V82.544L135.409 82.271V79.788C135.409 79.2593 135.253 78.852 134.941 78.566C134.637 78.2713 134.178 78.124 133.563 78.124C133.155 78.124 132.757 78.1933 132.367 78.332C131.977 78.462 131.647 78.6397 131.379 78.865L130.859 77.929C131.214 77.643 131.639 77.4263 132.133 77.279C132.635 77.123 133.16 77.045 133.706 77.045C134.65 77.045 135.378 77.2747 135.89 77.734C136.401 78.1933 136.657 78.8953 136.657 79.84V84H135.474ZM133.212 84.078C132.7 84.078 132.25 83.9913 131.86 83.818C131.478 83.6447 131.184 83.4063 130.976 83.103C130.768 82.791 130.664 82.44 130.664 82.05C130.664 81.6773 130.75 81.3393 130.924 81.036C131.106 80.7327 131.396 80.49 131.795 80.308C132.202 80.126 132.748 80.035 133.433 80.035H135.617V80.932H133.485C132.861 80.932 132.44 81.036 132.224 81.244C132.007 81.452 131.899 81.7033 131.899 81.998C131.899 82.336 132.033 82.609 132.302 82.817C132.57 83.0163 132.943 83.116 133.42 83.116C133.888 83.116 134.295 83.012 134.642 82.804C134.997 82.596 135.253 82.2927 135.409 81.894L135.656 82.752C135.491 83.1593 135.201 83.4843 134.785 83.727C134.369 83.961 133.844 84.078 133.212 84.078ZM139.98 82.336L140.006 80.737L143.971 77.11H145.479L142.437 80.1L141.761 80.672L139.98 82.336ZM138.966 84V74.354H140.214V84H138.966ZM144.231 84L141.527 80.646L142.333 79.645L145.765 84H144.231ZM151.127 84V82.544L151.062 82.271V79.788C151.062 79.2593 150.906 78.852 150.594 78.566C150.291 78.2713 149.831 78.124 149.216 78.124C148.809 78.124 148.41 78.1933 148.02 78.332C147.63 78.462 147.301 78.6397 147.032 78.865L146.512 77.929C146.867 77.643 147.292 77.4263 147.786 77.279C148.289 77.123 148.813 77.045 149.359 77.045C150.304 77.045 151.032 77.2747 151.543 77.734C152.054 78.1933 152.31 78.8953 152.31 79.84V84H151.127ZM148.865 84.078C148.354 84.078 147.903 83.9913 147.513 83.818C147.132 83.6447 146.837 83.4063 146.629 83.103C146.421 82.791 146.317 82.44 146.317 82.05C146.317 81.6773 146.404 81.3393 146.577 81.036C146.759 80.7327 147.049 80.49 147.448 80.308C147.855 80.126 148.401 80.035 149.086 80.035H151.27V80.932H149.138C148.514 80.932 148.094 81.036 147.877 81.244C147.66 81.452 147.552 81.7033 147.552 81.998C147.552 82.336 147.686 82.609 147.955 82.817C148.224 83.0163 148.596 83.116 149.073 83.116C149.541 83.116 149.948 83.012 150.295 82.804C150.65 82.596 150.906 82.2927 151.062 81.894L151.309 82.752C151.144 83.1593 150.854 83.4843 150.438 83.727C150.022 83.961 149.498 84.078 148.865 84.078ZM158.299 77.045C158.862 77.045 159.356 77.1533 159.781 77.37C160.214 77.5867 160.552 77.916 160.795 78.358C161.037 78.8 161.159 79.359 161.159 80.035V84H159.911V80.178C159.911 79.5107 159.746 79.008 159.417 78.67C159.096 78.332 158.641 78.163 158.052 78.163C157.61 78.163 157.224 78.2497 156.895 78.423C156.565 78.5963 156.31 78.852 156.128 79.19C155.954 79.528 155.868 79.9483 155.868 80.451V84H154.62V77.11H155.816V78.969L155.621 78.475C155.846 78.0243 156.193 77.6733 156.661 77.422C157.129 77.1707 157.675 77.045 158.299 77.045ZM167.973 82.336L167.999 80.737L171.964 77.11H173.472L170.43 80.1L169.754 80.672L167.973 82.336ZM166.959 84V74.354H168.207V84H166.959ZM172.224 84L169.52 80.646L170.326 79.645L173.758 84H172.224ZM177.759 84.078C177.022 84.078 176.372 83.9263 175.809 83.623C175.254 83.3197 174.821 82.9037 174.509 82.375C174.205 81.8463 174.054 81.2397 174.054 80.555C174.054 79.8703 174.201 79.2637 174.496 78.735C174.799 78.2063 175.211 77.7947 175.731 77.5C176.259 77.1967 176.853 77.045 177.512 77.045C178.179 77.045 178.768 77.1923 179.28 77.487C179.791 77.7817 180.19 78.1977 180.476 78.735C180.77 79.2637 180.918 79.8833 180.918 80.594C180.918 80.646 180.913 80.7067 180.905 80.776C180.905 80.8453 180.9 80.9103 180.892 80.971H175.029V80.074H180.242L179.735 80.386C179.743 79.944 179.652 79.5497 179.462 79.203C179.271 78.8563 179.007 78.5877 178.669 78.397C178.339 78.1977 177.954 78.098 177.512 78.098C177.078 78.098 176.693 78.1977 176.355 78.397C176.017 78.5877 175.752 78.8607 175.562 79.216C175.371 79.5627 175.276 79.9613 175.276 80.412V80.62C175.276 81.0793 175.38 81.491 175.588 81.855C175.804 82.2103 176.103 82.4877 176.485 82.687C176.866 82.8863 177.304 82.986 177.798 82.986C178.205 82.986 178.573 82.9167 178.903 82.778C179.241 82.6393 179.535 82.4313 179.787 82.154L180.476 82.96C180.164 83.324 179.774 83.6013 179.306 83.792C178.846 83.9827 178.331 84.078 177.759 84.078ZM185.654 84.078C184.952 84.078 184.323 83.9263 183.769 83.623C183.223 83.3197 182.794 82.9037 182.482 82.375C182.17 81.8463 182.014 81.2397 182.014 80.555C182.014 79.8703 182.17 79.2637 182.482 78.735C182.794 78.2063 183.223 77.7947 183.769 77.5C184.323 77.1967 184.952 77.045 185.654 77.045C186.278 77.045 186.832 77.1707 187.318 77.422C187.812 77.6647 188.193 78.0287 188.462 78.514L187.513 79.125C187.287 78.787 187.01 78.54 186.681 78.384C186.36 78.2193 186.013 78.137 185.641 78.137C185.19 78.137 184.787 78.2367 184.432 78.436C184.076 78.6353 183.795 78.917 183.587 79.281C183.379 79.6363 183.275 80.061 183.275 80.555C183.275 81.049 183.379 81.478 183.587 81.842C183.795 82.206 184.076 82.4877 184.432 82.687C184.787 82.8863 185.19 82.986 185.641 82.986C186.013 82.986 186.36 82.908 186.681 82.752C187.01 82.5873 187.287 82.336 187.513 81.998L188.462 82.596C188.193 83.0727 187.812 83.441 187.318 83.701C186.832 83.9523 186.278 84.078 185.654 84.078ZM193.044 84.078C192.307 84.078 191.657 83.9263 191.094 83.623C190.539 83.3197 190.106 82.9037 189.794 82.375C189.491 81.8463 189.339 81.2397 189.339 80.555C189.339 79.8703 189.486 79.2637 189.781 78.735C190.084 78.2063 190.496 77.7947 191.016 77.5C191.545 77.1967 192.138 77.045 192.797 77.045C193.464 77.045 194.054 77.1923 194.565 77.487C195.076 77.7817 195.475 78.1977 195.761 78.735C196.056 79.2637 196.203 79.8833 196.203 80.594C196.203 80.646 196.199 80.7067 196.19 80.776C196.19 80.8453 196.186 80.9103 196.177 80.971H190.314V80.074H195.527L195.02 80.386C195.029 79.944 194.938 79.5497 194.747 79.203C194.556 78.8563 194.292 78.5877 193.954 78.397C193.625 78.1977 193.239 78.098 192.797 78.098C192.364 78.098 191.978 78.1977 191.64 78.397C191.302 78.5877 191.038 78.8607 190.847 79.216C190.656 79.5627 190.561 79.9613 190.561 80.412V80.62C190.561 81.0793 190.665 81.491 190.873 81.855C191.09 82.2103 191.389 82.4877 191.77 82.687C192.151 82.8863 192.589 82.986 193.083 82.986C193.49 82.986 193.859 82.9167 194.188 82.778C194.526 82.6393 194.821 82.4313 195.072 82.154L195.761 82.96C195.449 83.324 195.059 83.6013 194.591 83.792C194.132 83.9827 193.616 84.078 193.044 84.078ZM201.589 84.078C201.017 84.078 200.493 83.948 200.016 83.688C199.548 83.4193 199.171 83.025 198.885 82.505C198.608 81.985 198.469 81.335 198.469 80.555C198.469 79.775 198.603 79.125 198.872 78.605C199.149 78.085 199.522 77.695 199.99 77.435C200.467 77.175 201 77.045 201.589 77.045C202.265 77.045 202.863 77.1923 203.383 77.487C203.903 77.7817 204.315 78.1933 204.618 78.722C204.921 79.242 205.073 79.853 205.073 80.555C205.073 81.257 204.921 81.8723 204.618 82.401C204.315 82.9297 203.903 83.3413 203.383 83.636C202.863 83.9307 202.265 84.078 201.589 84.078ZM197.936 86.522V77.11H199.132V78.969L199.054 80.568L199.184 82.167V86.522H197.936ZM201.485 82.986C201.927 82.986 202.321 82.8863 202.668 82.687C203.023 82.4877 203.301 82.206 203.5 81.842C203.708 81.4693 203.812 81.0403 203.812 80.555C203.812 80.061 203.708 79.6363 203.5 79.281C203.301 78.917 203.023 78.6353 202.668 78.436C202.321 78.2367 201.927 78.137 201.485 78.137C201.052 78.137 200.657 78.2367 200.302 78.436C199.955 78.6353 199.678 78.917 199.47 79.281C199.271 79.6363 199.171 80.061 199.171 80.555C199.171 81.0403 199.271 81.4693 199.47 81.842C199.678 82.206 199.955 82.4877 200.302 82.687C200.657 82.8863 201.052 82.986 201.485 82.986ZM211.011 84V82.544L210.946 82.271V79.788C210.946 79.2593 210.79 78.852 210.478 78.566C210.174 78.2713 209.715 78.124 209.1 78.124C208.692 78.124 208.294 78.1933 207.904 78.332C207.514 78.462 207.184 78.6397 206.916 78.865L206.396 77.929C206.751 77.643 207.176 77.4263 207.67 77.279C208.172 77.123 208.697 77.045 209.243 77.045C210.187 77.045 210.915 77.2747 211.427 77.734C211.938 78.1933 212.194 78.8953 212.194 79.84V84H211.011ZM208.749 84.078C208.237 84.078 207.787 83.9913 207.397 83.818C207.015 83.6447 206.721 83.4063 206.513 83.103C206.305 82.791 206.201 82.44 206.201 82.05C206.201 81.6773 206.287 81.3393 206.461 81.036C206.643 80.7327 206.933 80.49 207.332 80.308C207.739 80.126 208.285 80.035 208.97 80.035H211.154V80.932H209.022C208.398 80.932 207.977 81.036 207.761 81.244C207.544 81.452 207.436 81.7033 207.436 81.998C207.436 82.336 207.57 82.609 207.839 82.817C208.107 83.0163 208.48 83.116 208.957 83.116C209.425 83.116 209.832 83.012 210.179 82.804C210.534 82.596 210.79 82.2927 210.946 81.894L211.193 82.752C211.028 83.1593 210.738 83.4843 210.322 83.727C209.906 83.961 209.381 84.078 208.749 84.078ZM216.869 84.078C216.176 84.078 215.639 83.8917 215.257 83.519C214.876 83.1463 214.685 82.6133 214.685 81.92V75.602H215.933V81.868C215.933 82.2407 216.024 82.5267 216.206 82.726C216.397 82.9253 216.666 83.025 217.012 83.025C217.402 83.025 217.727 82.9167 217.987 82.7L218.377 83.597C218.187 83.7617 217.957 83.883 217.688 83.961C217.428 84.039 217.155 84.078 216.869 84.078ZM213.515 78.137V77.11H217.909V78.137H213.515ZM224.163 84V82.544L224.098 82.271V79.788C224.098 79.2593 223.942 78.852 223.63 78.566C223.327 78.2713 222.867 78.124 222.252 78.124C221.845 78.124 221.446 78.1933 221.056 78.332C220.666 78.462 220.337 78.6397 220.068 78.865L219.548 77.929C219.903 77.643 220.328 77.4263 220.822 77.279C221.325 77.123 221.849 77.045 222.395 77.045C223.34 77.045 224.068 77.2747 224.579 77.734C225.09 78.1933 225.346 78.8953 225.346 79.84V84H224.163ZM221.901 84.078C221.39 84.078 220.939 83.9913 220.549 83.818C220.168 83.6447 219.873 83.4063 219.665 83.103C219.457 82.791 219.353 82.44 219.353 82.05C219.353 81.6773 219.44 81.3393 219.613 81.036C219.795 80.7327 220.085 80.49 220.484 80.308C220.891 80.126 221.437 80.035 222.122 80.035H224.306V80.932H222.174C221.55 80.932 221.13 81.036 220.913 81.244C220.696 81.452 220.588 81.7033 220.588 81.998C220.588 82.336 220.722 82.609 220.991 82.817C221.26 83.0163 221.632 83.116 222.109 83.116C222.577 83.116 222.984 83.012 223.331 82.804C223.686 82.596 223.942 82.2927 224.098 81.894L224.345 82.752C224.18 83.1593 223.89 83.4843 223.474 83.727C223.058 83.961 222.534 84.078 221.901 84.078ZM231.335 77.045C231.898 77.045 232.392 77.1533 232.817 77.37C233.25 77.5867 233.588 77.916 233.831 78.358C234.073 78.8 234.195 79.359 234.195 80.035V84H232.947V80.178C232.947 79.5107 232.782 79.008 232.453 78.67C232.132 78.332 231.677 78.163 231.088 78.163C230.646 78.163 230.26 78.2497 229.931 78.423C229.601 78.5963 229.346 78.852 229.164 79.19C228.99 79.528 228.904 79.9483 228.904 80.451V84H227.656V77.11H228.852V78.969L228.657 78.475C228.882 78.0243 229.229 77.6733 229.697 77.422C230.165 77.1707 230.711 77.045 231.335 77.045ZM242.843 84.078C242.175 84.078 241.577 83.9307 241.049 83.636C240.529 83.3413 240.117 82.9297 239.814 82.401C239.51 81.8723 239.359 81.257 239.359 80.555C239.359 79.853 239.51 79.242 239.814 78.722C240.117 78.1933 240.529 77.7817 241.049 77.487C241.577 77.1923 242.175 77.045 242.843 77.045C243.423 77.045 243.948 77.175 244.416 77.435C244.884 77.695 245.256 78.085 245.534 78.605C245.82 79.125 245.963 79.775 245.963 80.555C245.963 81.335 245.824 81.985 245.547 82.505C245.278 83.025 244.91 83.4193 244.442 83.688C243.974 83.948 243.441 84.078 242.843 84.078ZM242.947 82.986C243.38 82.986 243.77 82.8863 244.117 82.687C244.472 82.4877 244.749 82.206 244.949 81.842C245.157 81.4693 245.261 81.0403 245.261 80.555C245.261 80.061 245.157 79.6363 244.949 79.281C244.749 78.917 244.472 78.6353 244.117 78.436C243.77 78.2367 243.38 78.137 242.947 78.137C242.505 78.137 242.11 78.2367 241.764 78.436C241.417 78.6353 241.14 78.917 240.932 79.281C240.724 79.6363 240.62 80.061 240.62 80.555C240.62 81.0403 240.724 81.4693 240.932 81.842C241.14 82.206 241.417 82.4877 241.764 82.687C242.11 82.8863 242.505 82.986 242.947 82.986ZM245.3 84V82.141L245.377 80.542L245.248 78.943V74.354H246.496V84H245.3ZM253.134 84V82.544L253.069 82.271V79.788C253.069 79.2593 252.913 78.852 252.601 78.566C252.297 78.2713 251.838 78.124 251.223 78.124C250.815 78.124 250.417 78.1933 250.027 78.332C249.637 78.462 249.307 78.6397 249.039 78.865L248.519 77.929C248.874 77.643 249.299 77.4263 249.793 77.279C250.295 77.123 250.82 77.045 251.366 77.045C252.31 77.045 253.038 77.2747 253.55 77.734C254.061 78.1933 254.317 78.8953 254.317 79.84V84H253.134ZM250.872 84.078C250.36 84.078 249.91 83.9913 249.52 83.818C249.138 83.6447 248.844 83.4063 248.636 83.103C248.428 82.791 248.324 82.44 248.324 82.05C248.324 81.6773 248.41 81.3393 248.584 81.036C248.766 80.7327 249.056 80.49 249.455 80.308C249.862 80.126 250.408 80.035 251.093 80.035H253.277V80.932H251.145C250.521 80.932 250.1 81.036 249.884 81.244C249.667 81.452 249.559 81.7033 249.559 81.998C249.559 82.336 249.693 82.609 249.962 82.817C250.23 83.0163 250.603 83.116 251.08 83.116C251.548 83.116 251.955 83.012 252.302 82.804C252.657 82.596 252.913 82.2927 253.069 81.894L253.316 82.752C253.151 83.1593 252.861 83.4843 252.445 83.727C252.029 83.961 251.504 84.078 250.872 84.078ZM256.626 84V74.354H257.874V84H256.626ZM264.534 84V82.544L264.469 82.271V79.788C264.469 79.2593 264.313 78.852 264.001 78.566C263.698 78.2713 263.239 78.124 262.623 78.124C262.216 78.124 261.817 78.1933 261.427 78.332C261.037 78.462 260.708 78.6397 260.439 78.865L259.919 77.929C260.275 77.643 260.699 77.4263 261.193 77.279C261.696 77.123 262.22 77.045 262.766 77.045C263.711 77.045 264.439 77.2747 264.95 77.734C265.462 78.1933 265.717 78.8953 265.717 79.84V84H264.534ZM262.272 84.078C261.761 84.078 261.31 83.9913 260.92 83.818C260.539 83.6447 260.244 83.4063 260.036 83.103C259.828 82.791 259.724 82.44 259.724 82.05C259.724 81.6773 259.811 81.3393 259.984 81.036C260.166 80.7327 260.457 80.49 260.855 80.308C261.263 80.126 261.809 80.035 262.493 80.035H264.677V80.932H262.545C261.921 80.932 261.501 81.036 261.284 81.244C261.068 81.452 260.959 81.7033 260.959 81.998C260.959 82.336 261.094 82.609 261.362 82.817C261.631 83.0163 262.004 83.116 262.48 83.116C262.948 83.116 263.356 83.012 263.702 82.804C264.058 82.596 264.313 82.2927 264.469 81.894L264.716 82.752C264.552 83.1593 264.261 83.4843 263.845 83.727C263.429 83.961 262.905 84.078 262.272 84.078ZM276.646 77.045C277.2 77.045 277.69 77.1533 278.115 77.37C278.539 77.5867 278.869 77.916 279.103 78.358C279.345 78.8 279.467 79.359 279.467 80.035V84H278.219V80.178C278.219 79.5107 278.063 79.008 277.751 78.67C277.439 78.332 277.001 78.163 276.438 78.163C276.022 78.163 275.658 78.2497 275.346 78.423C275.034 78.5963 274.791 78.852 274.618 79.19C274.453 79.528 274.371 79.9483 274.371 80.451V84H273.123V80.178C273.123 79.5107 272.967 79.008 272.655 78.67C272.351 78.332 271.914 78.163 271.342 78.163C270.934 78.163 270.575 78.2497 270.263 78.423C269.951 78.5963 269.708 78.852 269.535 79.19C269.361 79.528 269.275 79.9483 269.275 80.451V84H268.027V77.11H269.223V78.943L269.028 78.475C269.244 78.0243 269.578 77.6733 270.029 77.422C270.479 77.1707 271.004 77.045 271.602 77.045C272.26 77.045 272.828 77.2097 273.305 77.539C273.781 77.8597 274.093 78.3493 274.241 79.008L273.734 78.8C273.942 78.2713 274.306 77.8467 274.826 77.526C275.346 77.2053 275.952 77.045 276.646 77.045ZM26.802 98.045C27.3567 98.045 27.8463 98.1533 28.271 98.37C28.6957 98.5867 29.025 98.916 29.259 99.358C29.5017 99.8 29.623 100.359 29.623 101.035V105H28.375V101.178C28.375 100.511 28.219 100.008 27.907 99.67C27.595 99.332 27.1573 99.163 26.594 99.163C26.178 99.163 25.814 99.2497 25.502 99.423C25.19 99.5963 24.9473 99.852 24.774 100.19C24.6093 100.528 24.527 100.948 24.527 101.451V105H23.279V101.178C23.279 100.511 23.123 100.008 22.811 99.67C22.5077 99.332 22.07 99.163 21.498 99.163C21.0907 99.163 20.731 99.2497 20.419 99.423C20.107 99.5963 19.8643 99.852 19.691 100.19C19.5177 100.528 19.431 100.948 19.431 101.451V105H18.183V98.11H19.379V99.943L19.184 99.475C19.4007 99.0243 19.7343 98.6733 20.185 98.422C20.6357 98.1707 21.16 98.045 21.758 98.045C22.4167 98.045 22.9843 98.2097 23.461 98.539C23.9377 98.8597 24.2497 99.3493 24.397 100.008L23.89 99.8C24.098 99.2713 24.462 98.8467 24.982 98.526C25.502 98.2053 26.1087 98.045 26.802 98.045ZM34.9873 105.078C34.2507 105.078 33.6007 104.926 33.0373 104.623C32.4827 104.32 32.0493 103.904 31.7373 103.375C31.434 102.846 31.2823 102.24 31.2823 101.555C31.2823 100.87 31.4297 100.264 31.7243 99.735C32.0277 99.2063 32.4393 98.7947 32.9593 98.5C33.488 98.1967 34.0817 98.045 34.7403 98.045C35.4077 98.045 35.997 98.1923 36.5083 98.487C37.0197 98.7817 37.4183 99.1977 37.7043 99.735C37.999 100.264 38.1463 100.883 38.1463 101.594C38.1463 101.646 38.142 101.707 38.1333 101.776C38.1333 101.845 38.129 101.91 38.1203 101.971H32.2573V101.074H37.4703L36.9633 101.386C36.972 100.944 36.881 100.55 36.6903 100.203C36.4997 99.8563 36.2353 99.5877 35.8973 99.397C35.568 99.1977 35.1823 99.098 34.7403 99.098C34.307 99.098 33.9213 99.1977 33.5833 99.397C33.2453 99.5877 32.981 99.8607 32.7903 100.216C32.5997 100.563 32.5043 100.961 32.5043 101.412V101.62C32.5043 102.079 32.6083 102.491 32.8163 102.855C33.033 103.21 33.332 103.488 33.7133 103.687C34.0947 103.886 34.5323 103.986 35.0263 103.986C35.4337 103.986 35.802 103.917 36.1313 103.778C36.4693 103.639 36.764 103.431 37.0153 103.154L37.7043 103.96C37.3923 104.324 37.0023 104.601 36.5343 104.792C36.075 104.983 35.5593 105.078 34.9873 105.078ZM39.8793 105V98.11H41.0753V99.982L40.9583 99.514C41.149 99.0373 41.4696 98.6733 41.9203 98.422C42.371 98.1707 42.9256 98.045 43.5843 98.045V99.254C43.5323 99.2453 43.4803 99.241 43.4283 99.241C43.385 99.241 43.3416 99.241 43.2983 99.241C42.631 99.241 42.1023 99.4403 41.7123 99.839C41.3223 100.238 41.1273 100.814 41.1273 101.568V105H39.8793ZM48.127 105.078C47.3903 105.078 46.7403 104.926 46.177 104.623C45.6223 104.32 45.189 103.904 44.877 103.375C44.5736 102.846 44.422 102.24 44.422 101.555C44.422 100.87 44.5693 100.264 44.864 99.735C45.1673 99.2063 45.579 98.7947 46.099 98.5C46.6276 98.1967 47.2213 98.045 47.88 98.045C48.5473 98.045 49.1366 98.1923 49.648 98.487C50.1593 98.7817 50.558 99.1977 50.844 99.735C51.1386 100.264 51.286 100.883 51.286 101.594C51.286 101.646 51.2816 101.707 51.273 101.776C51.273 101.845 51.2686 101.91 51.26 101.971H45.397V101.074H50.61L50.103 101.386C50.1116 100.944 50.0206 100.55 49.83 100.203C49.6393 99.8563 49.375 99.5877 49.037 99.397C48.7076 99.1977 48.322 99.098 47.88 99.098C47.4466 99.098 47.061 99.1977 46.723 99.397C46.385 99.5877 46.1206 99.8607 45.93 100.216C45.7393 100.563 45.644 100.961 45.644 101.412V101.62C45.644 102.079 45.748 102.491 45.956 102.855C46.1726 103.21 46.4716 103.488 46.853 103.687C47.2343 103.886 47.672 103.986 48.166 103.986C48.5733 103.986 48.9416 103.917 49.271 103.778C49.609 103.639 49.9036 103.431 50.155 103.154L50.844 103.96C50.532 104.324 50.142 104.601 49.674 104.792C49.2146 104.983 48.699 105.078 48.127 105.078ZM54.9949 105.078C54.4229 105.078 53.8769 105 53.3569 104.844C52.8456 104.688 52.4426 104.497 52.1479 104.272L52.6679 103.284C52.9626 103.483 53.3266 103.652 53.7599 103.791C54.1933 103.93 54.6353 103.999 55.0859 103.999C55.6666 103.999 56.0826 103.917 56.3339 103.752C56.5939 103.587 56.7239 103.358 56.7239 103.063C56.7239 102.846 56.6459 102.677 56.4899 102.556C56.3339 102.435 56.1259 102.344 55.8659 102.283C55.6146 102.222 55.3329 102.17 55.0209 102.127C54.7089 102.075 54.3969 102.014 54.0849 101.945C53.7729 101.867 53.4869 101.763 53.2269 101.633C52.9669 101.494 52.7589 101.308 52.6029 101.074C52.4469 100.831 52.3689 100.511 52.3689 100.112C52.3689 99.696 52.4859 99.332 52.7199 99.02C52.9539 98.708 53.2833 98.4697 53.7079 98.305C54.1413 98.1317 54.6526 98.045 55.2419 98.045C55.6926 98.045 56.1476 98.1013 56.6069 98.214C57.0749 98.318 57.4563 98.4697 57.7509 98.669L57.2179 99.657C56.9059 99.449 56.5809 99.306 56.2429 99.228C55.9049 99.15 55.5669 99.111 55.2289 99.111C54.6829 99.111 54.2756 99.202 54.0069 99.384C53.7383 99.5573 53.6039 99.7827 53.6039 100.06C53.6039 100.294 53.6819 100.476 53.8379 100.606C54.0026 100.727 54.2106 100.823 54.4619 100.892C54.7219 100.961 55.0079 101.022 55.3199 101.074C55.6319 101.117 55.9439 101.178 56.2559 101.256C56.5679 101.325 56.8496 101.425 57.1009 101.555C57.3609 101.685 57.5689 101.867 57.7249 102.101C57.8896 102.335 57.9719 102.647 57.9719 103.037C57.9719 103.453 57.8506 103.813 57.6079 104.116C57.3653 104.419 57.0229 104.658 56.5809 104.831C56.1389 104.996 55.6103 105.078 54.9949 105.078ZM63.1846 105.078C62.6126 105.078 62.0883 104.948 61.6116 104.688C61.1436 104.419 60.7666 104.025 60.4806 103.505C60.2033 102.985 60.0646 102.335 60.0646 101.555C60.0646 100.775 60.199 100.125 60.4676 99.605C60.745 99.085 61.1176 98.695 61.5856 98.435C62.0623 98.175 62.5953 98.045 63.1846 98.045C63.8606 98.045 64.4586 98.1923 64.9786 98.487C65.4986 98.7817 65.9103 99.1933 66.2136 99.722C66.517 100.242 66.6686 100.853 66.6686 101.555C66.6686 102.257 66.517 102.872 66.2136 103.401C65.9103 103.93 65.4986 104.341 64.9786 104.636C64.4586 104.931 63.8606 105.078 63.1846 105.078ZM59.5316 107.522V98.11H60.7276V99.969L60.6496 101.568L60.7796 103.167V107.522H59.5316ZM63.0806 103.986C63.5226 103.986 63.917 103.886 64.2636 103.687C64.619 103.488 64.8963 103.206 65.0956 102.842C65.3036 102.469 65.4076 102.04 65.4076 101.555C65.4076 101.061 65.3036 100.636 65.0956 100.281C64.8963 99.917 64.619 99.6353 64.2636 99.436C63.917 99.2367 63.5226 99.137 63.0806 99.137C62.6473 99.137 62.253 99.2367 61.8976 99.436C61.551 99.6353 61.2736 99.917 61.0656 100.281C60.8663 100.636 60.7666 101.061 60.7666 101.555C60.7666 102.04 60.8663 102.469 61.0656 102.842C61.2736 103.206 61.551 103.488 61.8976 103.687C62.253 103.886 62.6473 103.986 63.0806 103.986ZM71.344 105.078C70.6506 105.078 70.0353 104.926 69.498 104.623C68.9606 104.32 68.536 103.904 68.224 103.375C67.912 102.838 67.756 102.231 67.756 101.555C67.756 100.87 67.912 100.264 68.224 99.735C68.536 99.2063 68.9606 98.7947 69.498 98.5C70.0353 98.1967 70.6506 98.045 71.344 98.045C72.0286 98.045 72.6396 98.1967 73.177 98.5C73.723 98.7947 74.1476 99.2063 74.451 99.735C74.763 100.255 74.919 100.862 74.919 101.555C74.919 102.24 74.763 102.846 74.451 103.375C74.1476 103.904 73.723 104.32 73.177 104.623C72.6396 104.926 72.0286 105.078 71.344 105.078ZM71.344 103.986C71.786 103.986 72.1803 103.886 72.527 103.687C72.8823 103.488 73.1596 103.206 73.359 102.842C73.5583 102.469 73.658 102.04 73.658 101.555C73.658 101.061 73.5583 100.636 73.359 100.281C73.1596 99.917 72.8823 99.6353 72.527 99.436C72.1803 99.2367 71.786 99.137 71.344 99.137C70.902 99.137 70.5076 99.2367 70.161 99.436C69.8143 99.6353 69.537 99.917 69.329 100.281C69.121 100.636 69.017 101.061 69.017 101.555C69.017 102.04 69.121 102.469 69.329 102.842C69.537 103.206 69.8143 103.488 70.161 103.687C70.5076 103.886 70.902 103.986 71.344 103.986ZM80.3239 98.045C80.8872 98.045 81.3812 98.1533 81.8059 98.37C82.2392 98.5867 82.5772 98.916 82.8199 99.358C83.0626 99.8 83.1839 100.359 83.1839 101.035V105H81.9359V101.178C81.9359 100.511 81.7712 100.008 81.4419 99.67C81.1212 99.332 80.6662 99.163 80.0769 99.163C79.6349 99.163 79.2492 99.2497 78.9199 99.423C78.5906 99.5963 78.3349 99.852 78.1529 100.19C77.9796 100.528 77.8929 100.948 77.8929 101.451V105H76.6449V98.11H77.8409V99.969L77.6459 99.475C77.8712 99.0243 78.2179 98.6733 78.6859 98.422C79.1539 98.1707 79.6999 98.045 80.3239 98.045ZM87.4695 105.078C86.8975 105.078 86.3515 105 85.8315 104.844C85.3202 104.688 84.9172 104.497 84.6225 104.272L85.1425 103.284C85.4372 103.483 85.8012 103.652 86.2345 103.791C86.6679 103.93 87.1099 103.999 87.5605 103.999C88.1412 103.999 88.5572 103.917 88.8085 103.752C89.0685 103.587 89.1985 103.358 89.1985 103.063C89.1985 102.846 89.1205 102.677 88.9645 102.556C88.8085 102.435 88.6005 102.344 88.3405 102.283C88.0892 102.222 87.8075 102.17 87.4955 102.127C87.1835 102.075 86.8715 102.014 86.5595 101.945C86.2475 101.867 85.9615 101.763 85.7015 101.633C85.4415 101.494 85.2335 101.308 85.0775 101.074C84.9215 100.831 84.8435 100.511 84.8435 100.112C84.8435 99.696 84.9605 99.332 85.1945 99.02C85.4285 98.708 85.7579 98.4697 86.1825 98.305C86.6159 98.1317 87.1272 98.045 87.7165 98.045C88.1672 98.045 88.6222 98.1013 89.0815 98.214C89.5495 98.318 89.9309 98.4697 90.2255 98.669L89.6925 99.657C89.3805 99.449 89.0555 99.306 88.7175 99.228C88.3795 99.15 88.0415 99.111 87.7035 99.111C87.1575 99.111 86.7502 99.202 86.4815 99.384C86.2129 99.5573 86.0785 99.7827 86.0785 100.06C86.0785 100.294 86.1565 100.476 86.3125 100.606C86.4772 100.727 86.6852 100.823 86.9365 100.892C87.1965 100.961 87.4825 101.022 87.7945 101.074C88.1065 101.117 88.4185 101.178 88.7305 101.256C89.0425 101.325 89.3242 101.425 89.5755 101.555C89.8355 101.685 90.0435 101.867 90.1995 102.101C90.3642 102.335 90.4465 102.647 90.4465 103.037C90.4465 103.453 90.3252 103.813 90.0825 104.116C89.8399 104.419 89.4975 104.658 89.0555 104.831C88.6135 104.996 88.0849 105.078 87.4695 105.078ZM97.4735 105.078C96.9015 105.078 96.3555 105 95.8355 104.844C95.3241 104.688 94.9211 104.497 94.6265 104.272L95.1465 103.284C95.4411 103.483 95.8051 103.652 96.2385 103.791C96.6718 103.93 97.1138 103.999 97.5645 103.999C98.1451 103.999 98.5611 103.917 98.8125 103.752C99.0725 103.587 99.2025 103.358 99.2025 103.063C99.2025 102.846 99.1245 102.677 98.9685 102.556C98.8125 102.435 98.6045 102.344 98.3445 102.283C98.0931 102.222 97.8115 102.17 97.4995 102.127C97.1875 102.075 96.8755 102.014 96.5635 101.945C96.2515 101.867 95.9655 101.763 95.7055 101.633C95.4455 101.494 95.2375 101.308 95.0815 101.074C94.9255 100.831 94.8475 100.511 94.8475 100.112C94.8475 99.696 94.9645 99.332 95.1985 99.02C95.4325 98.708 95.7618 98.4697 96.1865 98.305C96.6198 98.1317 97.1311 98.045 97.7205 98.045C98.1711 98.045 98.6261 98.1013 99.0855 98.214C99.5535 98.318 99.9348 98.4697 100.229 98.669L99.6965 99.657C99.3845 99.449 99.0595 99.306 98.7215 99.228C98.3835 99.15 98.0455 99.111 97.7075 99.111C97.1615 99.111 96.7541 99.202 96.4855 99.384C96.2168 99.5573 96.0825 99.7827 96.0825 100.06C96.0825 100.294 96.1605 100.476 96.3165 100.606C96.4811 100.727 96.6891 100.823 96.9405 100.892C97.2005 100.961 97.4865 101.022 97.7985 101.074C98.1105 101.117 98.4225 101.178 98.7345 101.256C99.0465 101.325 99.3281 101.425 99.5795 101.555C99.8395 101.685 100.047 101.867 100.203 102.101C100.368 102.335 100.45 102.647 100.45 103.037C100.45 103.453 100.329 103.813 100.086 104.116C99.8438 104.419 99.5015 104.658 99.0595 104.831C98.6175 104.996 98.0888 105.078 97.4735 105.078ZM105.078 105.078C104.341 105.078 103.691 104.926 103.128 104.623C102.573 104.32 102.14 103.904 101.828 103.375C101.525 102.846 101.373 102.24 101.373 101.555C101.373 100.87 101.52 100.264 101.815 99.735C102.118 99.2063 102.53 98.7947 103.05 98.5C103.579 98.1967 104.172 98.045 104.831 98.045C105.498 98.045 106.088 98.1923 106.599 98.487C107.11 98.7817 107.509 99.1977 107.795 99.735C108.09 100.264 108.237 100.883 108.237 101.594C108.237 101.646 108.233 101.707 108.224 101.776C108.224 101.845 108.22 101.91 108.211 101.971H102.348V101.074H107.561L107.054 101.386C107.063 100.944 106.972 100.55 106.781 100.203C106.59 99.8563 106.326 99.5877 105.988 99.397C105.659 99.1977 105.273 99.098 104.831 99.098C104.398 99.098 104.012 99.1977 103.674 99.397C103.336 99.5877 103.072 99.8607 102.881 100.216C102.69 100.563 102.595 100.961 102.595 101.412V101.62C102.595 102.079 102.699 102.491 102.907 102.855C103.124 103.21 103.423 103.488 103.804 103.687C104.185 103.886 104.623 103.986 105.117 103.986C105.524 103.986 105.893 103.917 106.222 103.778C106.56 103.639 106.855 103.431 107.106 103.154L107.795 103.96C107.483 104.324 107.093 104.601 106.625 104.792C106.166 104.983 105.65 105.078 105.078 105.078ZM112.336 105.078C111.643 105.078 111.105 104.892 110.724 104.519C110.343 104.146 110.152 103.613 110.152 102.92V96.602H111.4V102.868C111.4 103.241 111.491 103.527 111.673 103.726C111.864 103.925 112.132 104.025 112.479 104.025C112.869 104.025 113.194 103.917 113.454 103.7L113.844 104.597C113.653 104.762 113.424 104.883 113.155 104.961C112.895 105.039 112.622 105.078 112.336 105.078ZM108.982 99.137V98.11H113.376V99.137H108.982ZM115.353 105V98.11H116.601V105H115.353ZM115.977 96.784C115.734 96.784 115.531 96.706 115.366 96.55C115.21 96.394 115.132 96.2033 115.132 95.978C115.132 95.744 115.21 95.549 115.366 95.393C115.531 95.237 115.734 95.159 115.977 95.159C116.22 95.159 116.419 95.237 116.575 95.393C116.74 95.5403 116.822 95.7267 116.822 95.952C116.822 96.186 116.744 96.3853 116.588 96.55C116.432 96.706 116.228 96.784 115.977 96.784ZM123.261 105V103.544L123.196 103.271V100.788C123.196 100.259 123.04 99.852 122.728 99.566C122.424 99.2713 121.965 99.124 121.35 99.124C120.942 99.124 120.544 99.1933 120.154 99.332C119.764 99.462 119.434 99.6397 119.166 99.865L118.646 98.929C119.001 98.643 119.426 98.4263 119.92 98.279C120.422 98.123 120.947 98.045 121.493 98.045C122.437 98.045 123.165 98.2747 123.677 98.734C124.188 99.1933 124.444 99.8953 124.444 100.84V105H123.261ZM120.999 105.078C120.487 105.078 120.037 104.991 119.647 104.818C119.265 104.645 118.971 104.406 118.763 104.103C118.555 103.791 118.451 103.44 118.451 103.05C118.451 102.677 118.537 102.339 118.711 102.036C118.893 101.733 119.183 101.49 119.582 101.308C119.989 101.126 120.535 101.035 121.22 101.035H123.404V101.932H121.272C120.648 101.932 120.227 102.036 120.011 102.244C119.794 102.452 119.686 102.703 119.686 102.998C119.686 103.336 119.82 103.609 120.089 103.817C120.357 104.016 120.73 104.116 121.207 104.116C121.675 104.116 122.082 104.012 122.429 103.804C122.784 103.596 123.04 103.293 123.196 102.894L123.443 103.752C123.278 104.159 122.988 104.484 122.572 104.727C122.156 104.961 121.631 105.078 120.999 105.078ZM130.406 105.078C129.834 105.078 129.31 104.948 128.833 104.688C128.365 104.419 127.988 104.025 127.702 103.505C127.425 102.985 127.286 102.335 127.286 101.555C127.286 100.775 127.421 100.125 127.689 99.605C127.967 99.085 128.339 98.695 128.807 98.435C129.284 98.175 129.817 98.045 130.406 98.045C131.082 98.045 131.68 98.1923 132.2 98.487C132.72 98.7817 133.132 99.1933 133.435 99.722C133.739 100.242 133.89 100.853 133.89 101.555C133.89 102.257 133.739 102.872 133.435 103.401C133.132 103.93 132.72 104.341 132.2 104.636C131.68 104.931 131.082 105.078 130.406 105.078ZM126.753 107.522V98.11H127.949V99.969L127.871 101.568L128.001 103.167V107.522H126.753ZM130.302 103.986C130.744 103.986 131.139 103.886 131.485 103.687C131.841 103.488 132.118 103.206 132.317 102.842C132.525 102.469 132.629 102.04 132.629 101.555C132.629 101.061 132.525 100.636 132.317 100.281C132.118 99.917 131.841 99.6353 131.485 99.436C131.139 99.2367 130.744 99.137 130.302 99.137C129.869 99.137 129.475 99.2367 129.119 99.436C128.773 99.6353 128.495 99.917 128.287 100.281C128.088 100.636 127.988 101.061 127.988 101.555C127.988 102.04 128.088 102.469 128.287 102.842C128.495 103.206 128.773 103.488 129.119 103.687C129.475 103.886 129.869 103.986 130.302 103.986ZM142.759 105.078C142.187 105.078 141.663 104.948 141.186 104.688C140.718 104.419 140.341 104.025 140.055 103.505C139.778 102.985 139.639 102.335 139.639 101.555C139.639 100.775 139.773 100.125 140.042 99.605C140.319 99.085 140.692 98.695 141.16 98.435C141.637 98.175 142.17 98.045 142.759 98.045C143.435 98.045 144.033 98.1923 144.553 98.487C145.073 98.7817 145.485 99.1933 145.788 99.722C146.091 100.242 146.243 100.853 146.243 101.555C146.243 102.257 146.091 102.872 145.788 103.401C145.485 103.93 145.073 104.341 144.553 104.636C144.033 104.931 143.435 105.078 142.759 105.078ZM139.106 107.522V98.11H140.302V99.969L140.224 101.568L140.354 103.167V107.522H139.106ZM142.655 103.986C143.097 103.986 143.491 103.886 143.838 103.687C144.193 103.488 144.471 103.206 144.67 102.842C144.878 102.469 144.982 102.04 144.982 101.555C144.982 101.061 144.878 100.636 144.67 100.281C144.471 99.917 144.193 99.6353 143.838 99.436C143.491 99.2367 143.097 99.137 142.655 99.137C142.222 99.137 141.827 99.2367 141.472 99.436C141.125 99.6353 140.848 99.917 140.64 100.281C140.441 100.636 140.341 101.061 140.341 101.555C140.341 102.04 140.441 102.469 140.64 102.842C140.848 103.206 141.125 103.488 141.472 103.687C141.827 103.886 142.222 103.986 142.655 103.986ZM151.035 105.078C150.299 105.078 149.649 104.926 149.085 104.623C148.531 104.32 148.097 103.904 147.785 103.375C147.482 102.846 147.33 102.24 147.33 101.555C147.33 100.87 147.478 100.264 147.772 99.735C148.076 99.2063 148.487 98.7947 149.007 98.5C149.536 98.1967 150.13 98.045 150.788 98.045C151.456 98.045 152.045 98.1923 152.556 98.487C153.068 98.7817 153.466 99.1977 153.752 99.735C154.047 100.264 154.194 100.883 154.194 101.594C154.194 101.646 154.19 101.707 154.181 101.776C154.181 101.845 154.177 101.91 154.168 101.971H148.305V101.074H153.518L153.011 101.386C153.02 100.944 152.929 100.55 152.738 100.203C152.548 99.8563 152.283 99.5877 151.945 99.397C151.616 99.1977 151.23 99.098 150.788 99.098C150.355 99.098 149.969 99.1977 149.631 99.397C149.293 99.5877 149.029 99.8607 148.838 100.216C148.648 100.563 148.552 100.961 148.552 101.412V101.62C148.552 102.079 148.656 102.491 148.864 102.855C149.081 103.21 149.38 103.488 149.761 103.687C150.143 103.886 150.58 103.986 151.074 103.986C151.482 103.986 151.85 103.917 152.179 103.778C152.517 103.639 152.812 103.431 153.063 103.154L153.752 103.96C153.44 104.324 153.05 104.601 152.582 104.792C152.123 104.983 151.607 105.078 151.035 105.078ZM155.927 105V98.11H157.123V99.982L157.006 99.514C157.197 99.0373 157.517 98.6733 157.968 98.422C158.419 98.1707 158.973 98.045 159.632 98.045V99.254C159.58 99.2453 159.528 99.241 159.476 99.241C159.433 99.241 159.389 99.241 159.346 99.241C158.679 99.241 158.15 99.4403 157.76 99.839C157.37 100.238 157.175 100.814 157.175 101.568V105H155.927ZM169.789 98.045C170.344 98.045 170.834 98.1533 171.258 98.37C171.683 98.5867 172.012 98.916 172.246 99.358C172.489 99.8 172.61 100.359 172.61 101.035V105H171.362V101.178C171.362 100.511 171.206 100.008 170.894 99.67C170.582 99.332 170.145 99.163 169.581 99.163C169.165 99.163 168.801 99.2497 168.489 99.423C168.177 99.5963 167.935 99.852 167.761 100.19C167.597 100.528 167.514 100.948 167.514 101.451V105H166.266V101.178C166.266 100.511 166.11 100.008 165.798 99.67C165.495 99.332 165.057 99.163 164.485 99.163C164.078 99.163 163.718 99.2497 163.406 99.423C163.094 99.5963 162.852 99.852 162.678 100.19C162.505 100.528 162.418 100.948 162.418 101.451V105H161.17V98.11H162.366V99.943L162.171 99.475C162.388 99.0243 162.722 98.6733 163.172 98.422C163.623 98.1707 164.147 98.045 164.745 98.045C165.404 98.045 165.972 98.2097 166.448 98.539C166.925 98.8597 167.237 99.3493 167.384 100.008L166.877 99.8C167.085 99.2713 167.449 98.8467 167.969 98.526C168.489 98.2053 169.096 98.045 169.789 98.045ZM174.907 105V98.11H176.155V105H174.907ZM175.531 96.784C175.288 96.784 175.084 96.706 174.92 96.55C174.764 96.394 174.686 96.2033 174.686 95.978C174.686 95.744 174.764 95.549 174.92 95.393C175.084 95.237 175.288 95.159 175.531 95.159C175.773 95.159 175.973 95.237 176.129 95.393C176.293 95.5403 176.376 95.7267 176.376 95.952C176.376 96.186 176.298 96.3853 176.142 96.55C175.986 96.706 175.782 96.784 175.531 96.784ZM182.216 98.045C182.78 98.045 183.274 98.1533 183.698 98.37C184.132 98.5867 184.47 98.916 184.712 99.358C184.955 99.8 185.076 100.359 185.076 101.035V105H183.828V101.178C183.828 100.511 183.664 100.008 183.334 99.67C183.014 99.332 182.559 99.163 181.969 99.163C181.527 99.163 181.142 99.2497 180.812 99.423C180.483 99.5963 180.227 99.852 180.045 100.19C179.872 100.528 179.785 100.948 179.785 101.451V105H178.537V98.11H179.733V99.969L179.538 99.475C179.764 99.0243 180.11 98.6733 180.578 98.422C181.046 98.1707 181.592 98.045 182.216 98.045ZM189.752 105.078C189.059 105.078 188.521 104.892 188.14 104.519C187.759 104.146 187.568 103.613 187.568 102.92V96.602H188.816V102.868C188.816 103.241 188.907 103.527 189.089 103.726C189.28 103.925 189.548 104.025 189.895 104.025C190.285 104.025 190.61 103.917 190.87 103.7L191.26 104.597C191.069 104.762 190.84 104.883 190.571 104.961C190.311 105.039 190.038 105.078 189.752 105.078ZM186.398 99.137V98.11H190.792V99.137H186.398ZM197.046 105V103.544L196.981 103.271V100.788C196.981 100.259 196.825 99.852 196.513 99.566C196.21 99.2713 195.75 99.124 195.135 99.124C194.728 99.124 194.329 99.1933 193.939 99.332C193.549 99.462 193.22 99.6397 192.951 99.865L192.431 98.929C192.786 98.643 193.211 98.4263 193.705 98.279C194.208 98.123 194.732 98.045 195.278 98.045C196.223 98.045 196.951 98.2747 197.462 98.734C197.973 99.1933 198.229 99.8953 198.229 100.84V105H197.046ZM194.784 105.078C194.273 105.078 193.822 104.991 193.432 104.818C193.051 104.645 192.756 104.406 192.548 104.103C192.34 103.791 192.236 103.44 192.236 103.05C192.236 102.677 192.323 102.339 192.496 102.036C192.678 101.733 192.968 101.49 193.367 101.308C193.774 101.126 194.32 101.035 195.005 101.035H197.189V101.932H195.057C194.433 101.932 194.013 102.036 193.796 102.244C193.579 102.452 193.471 102.703 193.471 102.998C193.471 103.336 193.605 103.609 193.874 103.817C194.143 104.016 194.515 104.116 194.992 104.116C195.46 104.116 195.867 104.012 196.214 103.804C196.569 103.596 196.825 103.293 196.981 102.894L197.228 103.752C197.063 104.159 196.773 104.484 196.357 104.727C195.941 104.961 195.417 105.078 194.784 105.078ZM204.815 105V103.544L204.75 103.271V100.788C204.75 100.259 204.594 99.852 204.282 99.566C203.979 99.2713 203.52 99.124 202.904 99.124C202.497 99.124 202.098 99.1933 201.708 99.332C201.318 99.462 200.989 99.6397 200.72 99.865L200.2 98.929C200.556 98.643 200.98 98.4263 201.474 98.279C201.977 98.123 202.501 98.045 203.047 98.045C203.992 98.045 204.72 98.2747 205.231 98.734C205.743 99.1933 205.998 99.8953 205.998 100.84V105H204.815ZM202.553 105.078C202.042 105.078 201.591 104.991 201.201 104.818C200.82 104.645 200.525 104.406 200.317 104.103C200.109 103.791 200.005 103.44 200.005 103.05C200.005 102.677 200.092 102.339 200.265 102.036C200.447 101.733 200.738 101.49 201.136 101.308C201.544 101.126 202.09 101.035 202.774 101.035H204.958V101.932H202.826C202.202 101.932 201.782 102.036 201.565 102.244C201.349 102.452 201.24 102.703 201.24 102.998C201.24 103.336 201.375 103.609 201.643 103.817C201.912 104.016 202.285 104.116 202.761 104.116C203.229 104.116 203.637 104.012 203.983 103.804C204.339 103.596 204.594 103.293 204.75 102.894L204.997 103.752C204.833 104.159 204.542 104.484 204.126 104.727C203.71 104.961 203.186 105.078 202.553 105.078ZM211.987 98.045C212.55 98.045 213.044 98.1533 213.469 98.37C213.902 98.5867 214.24 98.916 214.483 99.358C214.726 99.8 214.847 100.359 214.847 101.035V105H213.599V101.178C213.599 100.511 213.434 100.008 213.105 99.67C212.784 99.332 212.329 99.163 211.74 99.163C211.298 99.163 210.912 99.2497 210.583 99.423C210.254 99.5963 209.998 99.852 209.816 100.19C209.643 100.528 209.556 100.948 209.556 101.451V105H208.308V98.11H209.504V99.969L209.309 99.475C209.534 99.0243 209.881 98.6733 210.349 98.422C210.817 98.1707 211.363 98.045 211.987 98.045ZM223.495 105.078C222.828 105.078 222.23 104.931 221.701 104.636C221.181 104.341 220.769 103.93 220.466 103.401C220.163 102.872 220.011 102.257 220.011 101.555C220.011 100.853 220.163 100.242 220.466 99.722C220.769 99.1933 221.181 98.7817 221.701 98.487C222.23 98.1923 222.828 98.045 223.495 98.045C224.076 98.045 224.6 98.175 225.068 98.435C225.536 98.695 225.909 99.085 226.186 99.605C226.472 100.125 226.615 100.775 226.615 101.555C226.615 102.335 226.476 102.985 226.199 103.505C225.93 104.025 225.562 104.419 225.094 104.688C224.626 104.948 224.093 105.078 223.495 105.078ZM223.599 103.986C224.032 103.986 224.422 103.886 224.769 103.687C225.124 103.488 225.402 103.206 225.601 102.842C225.809 102.469 225.913 102.04 225.913 101.555C225.913 101.061 225.809 100.636 225.601 100.281C225.402 99.917 225.124 99.6353 224.769 99.436C224.422 99.2367 224.032 99.137 223.599 99.137C223.157 99.137 222.763 99.2367 222.416 99.436C222.069 99.6353 221.792 99.917 221.584 100.281C221.376 100.636 221.272 101.061 221.272 101.555C221.272 102.04 221.376 102.469 221.584 102.842C221.792 103.206 222.069 103.488 222.416 103.687C222.763 103.886 223.157 103.986 223.599 103.986ZM225.952 105V103.141L226.03 101.542L225.9 99.943V95.354H227.148V105H225.952ZM229.509 105V98.11H230.757V105H229.509ZM230.133 96.784C229.891 96.784 229.687 96.706 229.522 96.55C229.366 96.394 229.288 96.2033 229.288 95.978C229.288 95.744 229.366 95.549 229.522 95.393C229.687 95.237 229.891 95.159 230.133 95.159C230.376 95.159 230.575 95.237 230.731 95.393C230.896 95.5403 230.978 95.7267 230.978 95.952C230.978 96.186 230.9 96.3853 230.744 96.55C230.588 96.706 230.385 96.784 230.133 96.784ZM20.159 126.078C19.587 126.078 19.041 126 18.521 125.844C18.0097 125.688 17.6067 125.497 17.312 125.272L17.832 124.284C18.1267 124.483 18.4907 124.652 18.924 124.791C19.3573 124.93 19.7993 124.999 20.25 124.999C20.8307 124.999 21.2467 124.917 21.498 124.752C21.758 124.587 21.888 124.358 21.888 124.063C21.888 123.846 21.81 123.677 21.654 123.556C21.498 123.435 21.29 123.344 21.03 123.283C20.7787 123.222 20.497 123.17 20.185 123.127C19.873 123.075 19.561 123.014 19.249 122.945C18.937 122.867 18.651 122.763 18.391 122.633C18.131 122.494 17.923 122.308 17.767 122.074C17.611 121.831 17.533 121.511 17.533 121.112C17.533 120.696 17.65 120.332 17.884 120.02C18.118 119.708 18.4473 119.47 18.872 119.305C19.3053 119.132 19.8167 119.045 20.406 119.045C20.8567 119.045 21.3117 119.101 21.771 119.214C22.239 119.318 22.6203 119.47 22.915 119.669L22.382 120.657C22.07 120.449 21.745 120.306 21.407 120.228C21.069 120.15 20.731 120.111 20.393 120.111C19.847 120.111 19.4397 120.202 19.171 120.384C18.9023 120.557 18.768 120.783 18.768 121.06C18.768 121.294 18.846 121.476 19.002 121.606C19.1667 121.727 19.3747 121.823 19.626 121.892C19.886 121.961 20.172 122.022 20.484 122.074C20.796 122.117 21.108 122.178 21.42 122.256C21.732 122.325 22.0137 122.425 22.265 122.555C22.525 122.685 22.733 122.867 22.889 123.101C23.0537 123.335 23.136 123.647 23.136 124.037C23.136 124.453 23.0147 124.813 22.772 125.116C22.5293 125.419 22.187 125.658 21.745 125.831C21.303 125.996 20.7743 126.078 20.159 126.078ZM24.6957 126V119.11H25.9437V126H24.6957ZM25.3197 117.784C25.077 117.784 24.8734 117.706 24.7087 117.55C24.5527 117.394 24.4747 117.203 24.4747 116.978C24.4747 116.744 24.5527 116.549 24.7087 116.393C24.8734 116.237 25.077 116.159 25.3197 116.159C25.5624 116.159 25.7617 116.237 25.9177 116.393C26.0824 116.54 26.1647 116.727 26.1647 116.952C26.1647 117.186 26.0867 117.385 25.9307 117.55C25.7747 117.706 25.571 117.784 25.3197 117.784ZM30.6926 126.078C29.9992 126.078 29.4619 125.892 29.0806 125.519C28.6992 125.146 28.5086 124.613 28.5086 123.92V117.602H29.7566V123.868C29.7566 124.241 29.8476 124.527 30.0296 124.726C30.2202 124.925 30.4889 125.025 30.8356 125.025C31.2256 125.025 31.5506 124.917 31.8106 124.7L32.2006 125.597C32.0099 125.762 31.7802 125.883 31.5116 125.961C31.2516 126.039 30.9786 126.078 30.6926 126.078ZM27.3386 120.137V119.11H31.7326V120.137H27.3386ZM36.6084 126.078C36.019 126.078 35.499 125.97 35.0484 125.753C34.6064 125.536 34.2597 125.207 34.0084 124.765C33.7657 124.314 33.6444 123.751 33.6444 123.075V119.11H34.8924V122.932C34.8924 123.608 35.0527 124.115 35.3734 124.453C35.7027 124.791 36.162 124.96 36.7514 124.96C37.1847 124.96 37.5617 124.873 37.8824 124.7C38.203 124.518 38.45 124.258 38.6234 123.92C38.7967 123.573 38.8834 123.157 38.8834 122.672V119.11H40.1314V126H38.9484V124.141L39.1434 124.635C38.918 125.094 38.58 125.45 38.1294 125.701C37.6787 125.952 37.1717 126.078 36.6084 126.078ZM46.7842 126V124.544L46.7192 124.271V121.788C46.7192 121.259 46.5632 120.852 46.2512 120.566C45.9479 120.271 45.4886 120.124 44.8732 120.124C44.4659 120.124 44.0672 120.193 43.6772 120.332C43.2872 120.462 42.9579 120.64 42.6892 120.865L42.1692 119.929C42.5246 119.643 42.9492 119.426 43.4432 119.279C43.9459 119.123 44.4702 119.045 45.0162 119.045C45.9609 119.045 46.6889 119.275 47.2002 119.734C47.7116 120.193 47.9672 120.895 47.9672 121.84V126H46.7842ZM44.5222 126.078C44.0109 126.078 43.5602 125.991 43.1702 125.818C42.7889 125.645 42.4942 125.406 42.2862 125.103C42.0782 124.791 41.9742 124.44 41.9742 124.05C41.9742 123.677 42.0609 123.339 42.2342 123.036C42.4162 122.733 42.7066 122.49 43.1052 122.308C43.5126 122.126 44.0586 122.035 44.7432 122.035H46.9272V122.932H44.7952C44.1712 122.932 43.7509 123.036 43.5342 123.244C43.3176 123.452 43.2092 123.703 43.2092 123.998C43.2092 124.336 43.3436 124.609 43.6122 124.817C43.8809 125.016 44.2536 125.116 44.7302 125.116C45.1982 125.116 45.6056 125.012 45.9522 124.804C46.3076 124.596 46.5632 124.293 46.7192 123.894L46.9662 124.752C46.8016 125.159 46.5112 125.484 46.0952 125.727C45.6792 125.961 45.1549 126.078 44.5222 126.078ZM52.2528 126.078C51.6808 126.078 51.1348 126 50.6148 125.844C50.1034 125.688 49.7004 125.497 49.4058 125.272L49.9258 124.284C50.2204 124.483 50.5844 124.652 51.0178 124.791C51.4511 124.93 51.8931 124.999 52.3438 124.999C52.9244 124.999 53.3404 124.917 53.5918 124.752C53.8518 124.587 53.9818 124.358 53.9818 124.063C53.9818 123.846 53.9038 123.677 53.7478 123.556C53.5918 123.435 53.3838 123.344 53.1238 123.283C52.8724 123.222 52.5908 123.17 52.2788 123.127C51.9668 123.075 51.6548 123.014 51.3428 122.945C51.0308 122.867 50.7448 122.763 50.4848 122.633C50.2248 122.494 50.0168 122.308 49.8608 122.074C49.7048 121.831 49.6268 121.511 49.6268 121.112C49.6268 120.696 49.7438 120.332 49.9778 120.02C50.2118 119.708 50.5411 119.47 50.9658 119.305C51.3991 119.132 51.9104 119.045 52.4998 119.045C52.9504 119.045 53.4054 119.101 53.8648 119.214C54.3328 119.318 54.7141 119.47 55.0088 119.669L54.4758 120.657C54.1638 120.449 53.8388 120.306 53.5008 120.228C53.1628 120.15 52.8248 120.111 52.4868 120.111C51.9408 120.111 51.5334 120.202 51.2648 120.384C50.9961 120.557 50.8618 120.783 50.8618 121.06C50.8618 121.294 50.9398 121.476 51.0958 121.606C51.2604 121.727 51.4684 121.823 51.7198 121.892C51.9798 121.961 52.2658 122.022 52.5778 122.074C52.8898 122.117 53.2018 122.178 53.5138 122.256C53.8258 122.325 54.1074 122.425 54.3588 122.555C54.6188 122.685 54.8268 122.867 54.9828 123.101C55.1474 123.335 55.2298 123.647 55.2298 124.037C55.2298 124.453 55.1084 124.813 54.8658 125.116C54.6231 125.419 54.2808 125.658 53.8388 125.831C53.3968 125.996 52.8681 126.078 52.2528 126.078ZM56.7894 126V119.11H58.0374V126H56.7894ZM57.4134 117.784C57.1708 117.784 56.9671 117.706 56.8024 117.55C56.6464 117.394 56.5684 117.203 56.5684 116.978C56.5684 116.744 56.6464 116.549 56.8024 116.393C56.9671 116.237 57.1708 116.159 57.4134 116.159C57.6561 116.159 57.8554 116.237 58.0114 116.393C58.1761 116.54 58.2584 116.727 58.2584 116.952C58.2584 117.186 58.1804 117.385 58.0244 117.55C57.8684 117.706 57.6648 117.784 57.4134 117.784ZM66.7585 126.078C66.0912 126.078 65.4932 125.931 64.9645 125.636C64.4445 125.341 64.0328 124.93 63.7295 124.401C63.4262 123.872 63.2745 123.257 63.2745 122.555C63.2745 121.853 63.4262 121.242 63.7295 120.722C64.0328 120.193 64.4445 119.782 64.9645 119.487C65.4932 119.192 66.0912 119.045 66.7585 119.045C67.3392 119.045 67.8635 119.175 68.3315 119.435C68.7995 119.695 69.1722 120.085 69.4495 120.605C69.7355 121.125 69.8785 121.775 69.8785 122.555C69.8785 123.335 69.7398 123.985 69.4625 124.505C69.1938 125.025 68.8255 125.419 68.3575 125.688C67.8895 125.948 67.3565 126.078 66.7585 126.078ZM66.8625 124.986C67.2958 124.986 67.6858 124.886 68.0325 124.687C68.3878 124.488 68.6652 124.206 68.8645 123.842C69.0725 123.469 69.1765 123.04 69.1765 122.555C69.1765 122.061 69.0725 121.636 68.8645 121.281C68.6652 120.917 68.3878 120.635 68.0325 120.436C67.6858 120.237 67.2958 120.137 66.8625 120.137C66.4205 120.137 66.0262 120.237 65.6795 120.436C65.3328 120.635 65.0555 120.917 64.8475 121.281C64.6395 121.636 64.5355 122.061 64.5355 122.555C64.5355 123.04 64.6395 123.469 64.8475 123.842C65.0555 124.206 65.3328 124.488 65.6795 124.687C66.0262 124.886 66.4205 124.986 66.8625 124.986ZM69.2155 126V124.141L69.2935 122.542L69.1635 120.943V116.354H70.4115V126H69.2155ZM77.0498 126V124.544L76.9848 124.271V121.788C76.9848 121.259 76.8288 120.852 76.5168 120.566C76.2135 120.271 75.7542 120.124 75.1388 120.124C74.7315 120.124 74.3328 120.193 73.9428 120.332C73.5528 120.462 73.2235 120.64 72.9548 120.865L72.4348 119.929C72.7902 119.643 73.2148 119.426 73.7088 119.279C74.2115 119.123 74.7358 119.045 75.2818 119.045C76.2265 119.045 76.9545 119.275 77.4658 119.734C77.9772 120.193 78.2328 120.895 78.2328 121.84V126H77.0498ZM74.7878 126.078C74.2765 126.078 73.8258 125.991 73.4358 125.818C73.0545 125.645 72.7598 125.406 72.5518 125.103C72.3438 124.791 72.2398 124.44 72.2398 124.05C72.2398 123.677 72.3265 123.339 72.4998 123.036C72.6818 122.733 72.9722 122.49 73.3708 122.308C73.7782 122.126 74.3242 122.035 75.0088 122.035H77.1928V122.932H75.0608C74.4368 122.932 74.0165 123.036 73.7998 123.244C73.5832 123.452 73.4748 123.703 73.4748 123.998C73.4748 124.336 73.6092 124.609 73.8778 124.817C74.1465 125.016 74.5192 125.116 74.9958 125.116C75.4638 125.116 75.8712 125.012 76.2178 124.804C76.5732 124.596 76.8288 124.293 76.9848 123.894L77.2318 124.752C77.0672 125.159 76.7768 125.484 76.3608 125.727C75.9448 125.961 75.4205 126.078 74.7878 126.078ZM80.5424 126V119.11H81.7384V120.982L81.6214 120.514C81.812 120.037 82.1327 119.673 82.5834 119.422C83.034 119.171 83.5887 119.045 84.2474 119.045V120.254C84.1954 120.245 84.1434 120.241 84.0914 120.241C84.048 120.241 84.0047 120.241 83.9614 120.241C83.294 120.241 82.7654 120.44 82.3754 120.839C81.9854 121.238 81.7904 121.814 81.7904 122.568V126H80.5424ZM88.7734 126.078C88.1841 126.078 87.6641 125.97 87.2134 125.753C86.7714 125.536 86.4247 125.207 86.1734 124.765C85.9307 124.314 85.8094 123.751 85.8094 123.075V119.11H87.0574V122.932C87.0574 123.608 87.2177 124.115 87.5384 124.453C87.8677 124.791 88.3271 124.96 88.9164 124.96C89.3497 124.96 89.7267 124.873 90.0474 124.7C90.3681 124.518 90.6151 124.258 90.7884 123.92C90.9617 123.573 91.0484 123.157 91.0484 122.672V119.11H92.2964V126H91.1134V124.141L91.3084 124.635C91.0831 125.094 90.7451 125.45 90.2944 125.701C89.8437 125.952 89.3367 126.078 88.7734 126.078ZM94.6723 126V119.11H95.8683V120.982L95.7513 120.514C95.9419 120.037 96.2626 119.673 96.7133 119.422C97.1639 119.171 97.7186 119.045 98.3773 119.045V120.254C98.3253 120.245 98.2733 120.241 98.2213 120.241C98.1779 120.241 98.1346 120.241 98.0913 120.241C97.4239 120.241 96.8953 120.44 96.5053 120.839C96.1153 121.238 95.9203 121.814 95.9203 122.568V126H94.6723ZM103.685 126V124.544L103.62 124.271V121.788C103.62 121.259 103.464 120.852 103.152 120.566C102.848 120.271 102.389 120.124 101.774 120.124C101.366 120.124 100.968 120.193 100.578 120.332C100.188 120.462 99.8583 120.64 99.5896 120.865L99.0696 119.929C99.4249 119.643 99.8496 119.426 100.344 119.279C100.846 119.123 101.371 119.045 101.917 119.045C102.861 119.045 103.589 119.275 104.101 119.734C104.612 120.193 104.868 120.895 104.868 121.84V126H103.685ZM101.423 126.078C100.911 126.078 100.461 125.991 100.071 125.818C99.6893 125.645 99.3946 125.406 99.1866 125.103C98.9786 124.791 98.8746 124.44 98.8746 124.05C98.8746 123.677 98.9613 123.339 99.1346 123.036C99.3166 122.733 99.6069 122.49 100.006 122.308C100.413 122.126 100.959 122.035 101.644 122.035H103.828V122.932H101.696C101.072 122.932 100.651 123.036 100.435 123.244C100.218 123.452 100.11 123.703 100.11 123.998C100.11 124.336 100.244 124.609 100.513 124.817C100.781 125.016 101.154 125.116 101.631 125.116C102.099 125.116 102.506 125.012 102.853 124.804C103.208 124.596 103.464 124.293 103.62 123.894L103.867 124.752C103.702 125.159 103.412 125.484 102.996 125.727C102.58 125.961 102.055 126.078 101.423 126.078ZM109.543 126.078C108.85 126.078 108.312 125.892 107.931 125.519C107.55 125.146 107.359 124.613 107.359 123.92V117.602H108.607V123.868C108.607 124.241 108.698 124.527 108.88 124.726C109.071 124.925 109.339 125.025 109.686 125.025C110.076 125.025 110.401 124.917 110.661 124.7L111.051 125.597C110.86 125.762 110.631 125.883 110.362 125.961C110.102 126.039 109.829 126.078 109.543 126.078ZM106.189 120.137V119.11H110.583V120.137H106.189ZM112.986 126.078C112.743 126.078 112.535 125.996 112.362 125.831C112.189 125.658 112.102 125.441 112.102 125.181C112.102 124.921 112.189 124.709 112.362 124.544C112.535 124.379 112.743 124.297 112.986 124.297C113.22 124.297 113.419 124.379 113.584 124.544C113.757 124.709 113.844 124.921 113.844 125.181C113.844 125.441 113.757 125.658 113.584 125.831C113.419 125.996 113.22 126.078 112.986 126.078Z" fill="white" fill-opacity="0.8"/>
<circle cx="37" cy="36" r="20" fill="white" fill-opacity="0.1"/>
<path d="M44.965 32.521C44.988 32.347 45 32.173 45 32C45 29.621 42.857 27.712 40.479 28.035C39.786 26.802 38.466 26 37 26C35.534 26 34.214 26.802 33.521 28.035C31.138 27.712 29 29.621 29 32C29 32.173 29.012 32.347 29.035 32.521C27.802 33.215 27 34.535 27 36C27 37.465 27.802 38.785 29.035 39.479C29.0119 39.6517 29.0002 39.8258 29 40C29 42.379 31.138 44.283 33.521 43.965C34.214 45.198 35.534 46 37 46C38.466 46 39.786 45.198 40.479 43.965C42.857 44.283 45 42.379 45 40C45 39.827 44.988 39.653 44.965 39.479C46.198 38.785 47 37.465 47 36C47 34.535 46.198 33.215 44.965 32.521ZM35.955 40.416L32.288 36.702L33.712 35.298L35.969 37.584L40.296 33.29L41.704 34.71L35.955 40.416Z" fill="white" fill-opacity="0.5"/>
</svg>
