<svg width="300" height="160" viewBox="0 0 300 160" fill="none" xmlns="http://www.w3.org/2000/svg">
<rect width="300" height="160" rx="10" fill="#0C0E12"/>
<rect x="1" y="1" width="298" height="158" rx="9" stroke="white" stroke-opacity="0.07" stroke-width="2"/>
<path d="M73.88 43V29H76.48V43H73.88ZM86.0867 32.2C86.9401 32.2 87.7001 32.3667 88.3667 32.7C89.0467 33.0333 89.5801 33.5467 89.9667 34.24C90.3534 34.92 90.5467 35.8 90.5467 36.88V43H88.0467V37.2C88.0467 36.2533 87.8201 35.5467 87.3667 35.08C86.9267 34.6133 86.3067 34.38 85.5067 34.38C84.9201 34.38 84.4001 34.5 83.9467 34.74C83.4934 34.98 83.1401 35.34 82.8867 35.82C82.6467 36.2867 82.5267 36.88 82.5267 37.6V43H80.0267V32.32H82.4067V35.2L81.9867 34.32C82.3601 33.64 82.9001 33.12 83.6067 32.76C84.3267 32.3867 85.1534 32.2 86.0867 32.2ZM97.7381 43.14C96.5648 43.14 95.6581 42.84 95.0181 42.24C94.3781 41.6267 94.0581 40.7267 94.0581 39.54V29.96H96.5581V39.48C96.5581 39.9867 96.6848 40.38 96.9381 40.66C97.2048 40.94 97.5715 41.08 98.0381 41.08C98.5981 41.08 99.0648 40.9333 99.4381 40.64L100.138 42.42C99.8448 42.66 99.4848 42.84 99.0581 42.96C98.6315 43.08 98.1915 43.14 97.7381 43.14ZM92.2981 34.4V32.4H99.4181V34.4H92.2981ZM106.863 43.14C105.676 43.14 104.636 42.9067 103.743 42.44C102.863 41.96 102.176 41.3067 101.683 40.48C101.203 39.6533 100.963 38.7133 100.963 37.66C100.963 36.5933 101.196 35.6533 101.663 34.84C102.143 34.0133 102.796 33.3667 103.623 32.9C104.463 32.4333 105.416 32.2 106.483 32.2C107.523 32.2 108.45 32.4267 109.263 32.88C110.076 33.3333 110.716 33.9733 111.183 34.8C111.65 35.6267 111.883 36.6 111.883 37.72C111.883 37.8267 111.876 37.9467 111.863 38.08C111.863 38.2133 111.856 38.34 111.843 38.46H102.943V36.8H110.523L109.543 37.32C109.556 36.7067 109.43 36.1667 109.163 35.7C108.896 35.2333 108.53 34.8667 108.063 34.6C107.61 34.3333 107.083 34.2 106.483 34.2C105.87 34.2 105.33 34.3333 104.863 34.6C104.41 34.8667 104.05 35.24 103.783 35.72C103.53 36.1867 103.403 36.74 103.403 37.38V37.78C103.403 38.42 103.55 38.9867 103.843 39.48C104.136 39.9733 104.55 40.3533 105.083 40.62C105.616 40.8867 106.23 41.02 106.923 41.02C107.523 41.02 108.063 40.9267 108.543 40.74C109.023 40.5533 109.45 40.26 109.823 39.86L111.163 41.4C110.683 41.96 110.076 42.3933 109.343 42.7C108.623 42.9933 107.796 43.14 106.863 43.14ZM119.125 47.02C118.138 47.02 117.171 46.8867 116.225 46.62C115.291 46.3667 114.525 45.9933 113.925 45.5L115.045 43.62C115.511 44.0067 116.098 44.3133 116.805 44.54C117.525 44.78 118.251 44.9 118.985 44.9C120.158 44.9 121.018 44.6267 121.565 44.08C122.111 43.5467 122.385 42.74 122.385 41.66V39.76L122.585 37.34L122.505 34.92V32.32H124.885V41.38C124.885 43.3133 124.391 44.7333 123.405 45.64C122.418 46.56 120.991 47.02 119.125 47.02ZM118.805 42.52C117.791 42.52 116.871 42.3067 116.045 41.88C115.231 41.44 114.585 40.8333 114.105 40.06C113.638 39.2867 113.405 38.38 113.405 37.34C113.405 36.3133 113.638 35.4133 114.105 34.64C114.585 33.8667 115.231 33.2667 116.045 32.84C116.871 32.4133 117.791 32.2 118.805 32.2C119.711 32.2 120.525 32.38 121.245 32.74C121.965 33.1 122.538 33.66 122.965 34.42C123.405 35.18 123.625 36.1533 123.625 37.34C123.625 38.5267 123.405 39.5067 122.965 40.28C122.538 41.04 121.965 41.6067 121.245 41.98C120.525 42.34 119.711 42.52 118.805 42.52ZM119.185 40.4C119.811 40.4 120.371 40.2733 120.865 40.02C121.358 39.7533 121.738 39.3933 122.005 38.94C122.285 38.4733 122.425 37.94 122.425 37.34C122.425 36.74 122.285 36.2133 122.005 35.76C121.738 35.2933 121.358 34.94 120.865 34.7C120.371 34.4467 119.811 34.32 119.185 34.32C118.558 34.32 117.991 34.4467 117.485 34.7C116.991 34.94 116.605 35.2933 116.325 35.76C116.058 36.2133 115.925 36.74 115.925 37.34C115.925 37.94 116.058 38.4733 116.325 38.94C116.605 39.3933 116.991 39.7533 117.485 40.02C117.991 40.2733 118.558 40.4 119.185 40.4ZM128.171 43V32.32H130.551V35.26L130.271 34.4C130.591 33.68 131.091 33.1333 131.771 32.76C132.465 32.3867 133.325 32.2 134.351 32.2V34.58C134.245 34.5533 134.145 34.54 134.051 34.54C133.958 34.5267 133.865 34.52 133.771 34.52C132.825 34.52 132.071 34.8 131.511 35.36C130.951 35.9067 130.671 36.7267 130.671 37.82V43H128.171ZM142.29 43V40.84L142.15 40.38V36.6C142.15 35.8667 141.93 35.3 141.49 34.9C141.05 34.4867 140.384 34.28 139.49 34.28C138.89 34.28 138.297 34.3733 137.71 34.56C137.137 34.7467 136.65 35.0067 136.25 35.34L135.27 33.52C135.844 33.08 136.524 32.7533 137.31 32.54C138.11 32.3133 138.937 32.2 139.79 32.2C141.337 32.2 142.53 32.5733 143.37 33.32C144.224 34.0533 144.65 35.1933 144.65 36.74V43H142.29ZM138.93 43.14C138.13 43.14 137.43 43.0067 136.83 42.74C136.23 42.46 135.764 42.08 135.43 41.6C135.11 41.1067 134.95 40.5533 134.95 39.94C134.95 39.34 135.09 38.8 135.37 38.32C135.664 37.84 136.137 37.46 136.79 37.18C137.444 36.9 138.31 36.76 139.39 36.76H142.49V38.42H139.57C138.717 38.42 138.144 38.56 137.85 38.84C137.557 39.1067 137.41 39.44 137.41 39.84C137.41 40.2933 137.59 40.6533 137.95 40.92C138.31 41.1867 138.81 41.32 139.45 41.32C140.064 41.32 140.61 41.18 141.09 40.9C141.584 40.62 141.937 40.2067 142.15 39.66L142.57 41.16C142.33 41.7867 141.897 42.2733 141.27 42.62C140.657 42.9667 139.877 43.14 138.93 43.14ZM151.159 43.14C150.265 43.14 149.405 43.0267 148.579 42.8C147.765 42.56 147.119 42.2733 146.639 41.94L147.599 40.04C148.079 40.3467 148.652 40.6 149.319 40.8C149.985 41 150.652 41.1 151.319 41.1C152.105 41.1 152.672 40.9933 153.019 40.78C153.379 40.5667 153.559 40.28 153.559 39.92C153.559 39.6267 153.439 39.4067 153.199 39.26C152.959 39.1 152.645 38.98 152.259 38.9C151.872 38.82 151.439 38.7467 150.959 38.68C150.492 38.6133 150.019 38.5267 149.539 38.42C149.072 38.3 148.645 38.1333 148.259 37.92C147.872 37.6933 147.559 37.3933 147.319 37.02C147.079 36.6467 146.959 36.1533 146.959 35.54C146.959 34.86 147.152 34.2733 147.539 33.78C147.925 33.2733 148.465 32.8867 149.159 32.62C149.865 32.34 150.699 32.2 151.659 32.2C152.379 32.2 153.105 32.28 153.839 32.44C154.572 32.6 155.179 32.8267 155.659 33.12L154.699 35.02C154.192 34.7133 153.679 34.5067 153.159 34.4C152.652 34.28 152.145 34.22 151.639 34.22C150.879 34.22 150.312 34.3333 149.939 34.56C149.579 34.7867 149.399 35.0733 149.399 35.42C149.399 35.74 149.519 35.98 149.759 36.14C149.999 36.3 150.312 36.4267 150.699 36.52C151.085 36.6133 151.512 36.6933 151.979 36.76C152.459 36.8133 152.932 36.9 153.399 37.02C153.865 37.14 154.292 37.3067 154.679 37.52C155.079 37.72 155.399 38.0067 155.639 38.38C155.879 38.7533 155.999 39.24 155.999 39.84C155.999 40.5067 155.799 41.0867 155.399 41.58C155.012 42.0733 154.459 42.46 153.739 42.74C153.019 43.0067 152.159 43.14 151.159 43.14ZM158.152 43V32.32H160.652V43H158.152ZM159.412 30.56C158.945 30.56 158.558 30.4133 158.252 30.12C157.958 29.8267 157.812 29.4733 157.812 29.06C157.812 28.6333 157.958 28.28 158.252 28C158.558 27.7067 158.945 27.56 159.412 27.56C159.878 27.56 160.258 27.7 160.552 27.98C160.858 28.2467 161.012 28.5867 161.012 29C161.012 29.44 160.865 29.8133 160.572 30.12C160.278 30.4133 159.892 30.56 159.412 30.56ZM176.24 43.2C175.147 43.2 174.14 43.0267 173.22 42.68C172.314 42.32 171.52 41.82 170.84 41.18C170.16 40.5267 169.634 39.76 169.26 38.88C168.887 38 168.7 37.04 168.7 36C168.7 34.96 168.887 34 169.26 33.12C169.634 32.24 170.16 31.48 170.84 30.84C171.534 30.1867 172.34 29.6867 173.26 29.34C174.18 28.98 175.187 28.8 176.28 28.8C177.467 28.8 178.534 28.9933 179.48 29.38C180.44 29.7667 181.247 30.3333 181.9 31.08L180.26 32.68C179.714 32.1333 179.12 31.7333 178.48 31.48C177.854 31.2133 177.16 31.08 176.4 31.08C175.667 31.08 174.987 31.2 174.36 31.44C173.734 31.68 173.194 32.02 172.74 32.46C172.287 32.9 171.934 33.42 171.68 34.02C171.44 34.62 171.32 35.28 171.32 36C171.32 36.7067 171.44 37.36 171.68 37.96C171.934 38.56 172.287 39.0867 172.74 39.54C173.194 39.98 173.727 40.32 174.34 40.56C174.954 40.8 175.634 40.92 176.38 40.92C177.074 40.92 177.74 40.8133 178.38 40.6C179.034 40.3733 179.654 40 180.24 39.48L181.72 41.42C180.987 42.0067 180.134 42.4533 179.16 42.76C178.2 43.0533 177.227 43.2 176.24 43.2ZM179.26 41.08V35.84H181.72V41.42L179.26 41.08ZM185.15 43V29H190.91C192.15 29 193.21 29.2 194.09 29.6C194.983 30 195.67 30.5733 196.15 31.32C196.63 32.0667 196.87 32.9533 196.87 33.98C196.87 35.0067 196.63 35.8933 196.15 36.64C195.67 37.3867 194.983 37.96 194.09 38.36C193.21 38.76 192.15 38.96 190.91 38.96H186.59L187.75 37.74V43H185.15ZM187.75 38.02L186.59 36.76H190.79C191.936 36.76 192.796 36.52 193.37 36.04C193.956 35.5467 194.25 34.86 194.25 33.98C194.25 33.0867 193.956 32.4 193.37 31.92C192.796 31.44 191.936 31.2 190.79 31.2H186.59L187.75 29.92V38.02ZM204.001 43.2C202.908 43.2 201.861 43.0467 200.861 42.74C199.861 42.42 199.068 42.0133 198.481 41.52L199.381 39.5C199.941 39.94 200.635 40.3067 201.461 40.6C202.288 40.8933 203.135 41.04 204.001 41.04C204.735 41.04 205.328 40.96 205.781 40.8C206.235 40.64 206.568 40.4267 206.781 40.16C206.995 39.88 207.101 39.5667 207.101 39.22C207.101 38.7933 206.948 38.4533 206.641 38.2C206.335 37.9333 205.935 37.7267 205.441 37.58C204.961 37.42 204.421 37.2733 203.821 37.14C203.235 37.0067 202.641 36.8533 202.041 36.68C201.455 36.4933 200.915 36.26 200.421 35.98C199.941 35.6867 199.548 35.3 199.241 34.82C198.935 34.34 198.781 33.7267 198.781 32.98C198.781 32.22 198.981 31.5267 199.381 30.9C199.795 30.26 200.415 29.7533 201.241 29.38C202.081 28.9933 203.141 28.8 204.421 28.8C205.261 28.8 206.095 28.9067 206.921 29.12C207.748 29.3333 208.468 29.64 209.081 30.04L208.261 32.06C207.635 31.6867 206.988 31.4133 206.321 31.24C205.655 31.0533 205.015 30.96 204.401 30.96C203.681 30.96 203.095 31.0467 202.641 31.22C202.201 31.3933 201.875 31.62 201.661 31.9C201.461 32.18 201.361 32.5 201.361 32.86C201.361 33.2867 201.508 33.6333 201.801 33.9C202.108 34.1533 202.501 34.3533 202.981 34.5C203.475 34.6467 204.021 34.7933 204.621 34.94C205.221 35.0733 205.815 35.2267 206.401 35.4C207.001 35.5733 207.541 35.8 208.021 36.08C208.515 36.36 208.908 36.74 209.201 37.22C209.508 37.7 209.661 38.3067 209.661 39.04C209.661 39.7867 209.455 40.48 209.041 41.12C208.641 41.7467 208.021 42.2533 207.181 42.64C206.341 43.0133 205.281 43.2 204.001 43.2Z" fill="white"/>
<path d="M18.365 84V74.9H22.2C23.1707 74.9 24.0243 75.0907 24.761 75.472C25.5063 75.8533 26.0827 76.3863 26.49 77.071C26.906 77.7557 27.114 78.5487 27.114 79.45C27.114 80.3513 26.906 81.1443 26.49 81.829C26.0827 82.5137 25.5063 83.0467 24.761 83.428C24.0243 83.8093 23.1707 84 22.2 84H18.365ZM19.665 82.869H22.122C22.876 82.869 23.526 82.726 24.072 82.44C24.6267 82.154 25.0557 81.7553 25.359 81.244C25.6623 80.724 25.814 80.126 25.814 79.45C25.814 78.7653 25.6623 78.1673 25.359 77.656C25.0557 77.1447 24.6267 76.746 24.072 76.46C23.526 76.174 22.876 76.031 22.122 76.031H19.665V82.869ZM31.9912 84.078C31.2546 84.078 30.6046 83.9263 30.0412 83.623C29.4866 83.3197 29.0532 82.9037 28.7412 82.375C28.4379 81.8463 28.2862 81.2397 28.2862 80.555C28.2862 79.8703 28.4336 79.2637 28.7282 78.735C29.0316 78.2063 29.4432 77.7947 29.9632 77.5C30.4919 77.1967 31.0856 77.045 31.7442 77.045C32.4116 77.045 33.0009 77.1923 33.5122 77.487C34.0236 77.7817 34.4222 78.1977 34.7082 78.735C35.0029 79.2637 35.1502 79.8833 35.1502 80.594C35.1502 80.646 35.1459 80.7067 35.1372 80.776C35.1372 80.8453 35.1329 80.9103 35.1242 80.971H29.2612V80.074H34.4742L33.9672 80.386C33.9759 79.944 33.8849 79.5497 33.6942 79.203C33.5036 78.8563 33.2392 78.5877 32.9012 78.397C32.5719 78.1977 32.1862 78.098 31.7442 78.098C31.3109 78.098 30.9252 78.1977 30.5872 78.397C30.2492 78.5877 29.9849 78.8607 29.7942 79.216C29.6036 79.5627 29.5082 79.9613 29.5082 80.412V80.62C29.5082 81.0793 29.6122 81.491 29.8202 81.855C30.0369 82.2103 30.3359 82.4877 30.7172 82.687C31.0986 82.8863 31.5362 82.986 32.0302 82.986C32.4376 82.986 32.8059 82.9167 33.1352 82.778C33.4732 82.6393 33.7679 82.4313 34.0192 82.154L34.7082 82.96C34.3962 83.324 34.0062 83.6013 33.5382 83.792C33.0789 83.9827 32.5632 84.078 31.9912 84.078ZM40.5622 77.045C41.1255 77.045 41.6195 77.1533 42.0442 77.37C42.4775 77.5867 42.8155 77.916 43.0582 78.358C43.3009 78.8 43.4222 79.359 43.4222 80.035V84H42.1742V80.178C42.1742 79.5107 42.0095 79.008 41.6802 78.67C41.3595 78.332 40.9045 78.163 40.3152 78.163C39.8732 78.163 39.4875 78.2497 39.1582 78.423C38.8289 78.5963 38.5732 78.852 38.3912 79.19C38.2179 79.528 38.1312 79.9483 38.1312 80.451V84H36.8832V77.11H38.0792V78.969L37.8842 78.475C38.1095 78.0243 38.4562 77.6733 38.9242 77.422C39.3922 77.1707 39.9382 77.045 40.5622 77.045ZM48.7478 86.6C48.1152 86.6 47.4998 86.509 46.9018 86.327C46.3125 86.1537 45.8315 85.9023 45.4588 85.573L46.0568 84.611C46.3775 84.8883 46.7718 85.105 47.2398 85.261C47.7078 85.4257 48.1975 85.508 48.7088 85.508C49.5235 85.508 50.1215 85.3173 50.5028 84.936C50.8842 84.5547 51.0748 83.974 51.0748 83.194V81.738L51.2048 80.373L51.1398 78.995V77.11H52.3228V83.064C52.3228 84.2773 52.0195 85.17 51.4128 85.742C50.8062 86.314 49.9178 86.6 48.7478 86.6ZM48.5918 83.714C47.9245 83.714 47.3265 83.5753 46.7978 83.298C46.2778 83.012 45.8618 82.6177 45.5498 82.115C45.2465 81.6123 45.0948 81.0317 45.0948 80.373C45.0948 79.7057 45.2465 79.125 45.5498 78.631C45.8618 78.1283 46.2778 77.7383 46.7978 77.461C47.3265 77.1837 47.9245 77.045 48.5918 77.045C49.1812 77.045 49.7185 77.1663 50.2038 77.409C50.6892 77.643 51.0748 78.007 51.3608 78.501C51.6555 78.995 51.8028 79.619 51.8028 80.373C51.8028 81.1183 51.6555 81.738 51.3608 82.232C51.0748 82.726 50.6892 83.0987 50.2038 83.35C49.7185 83.5927 49.1812 83.714 48.5918 83.714ZM48.7348 82.622C49.1942 82.622 49.6015 82.5267 49.9568 82.336C50.3122 82.1453 50.5895 81.881 50.7888 81.543C50.9968 81.205 51.1008 80.815 51.1008 80.373C51.1008 79.931 50.9968 79.541 50.7888 79.203C50.5895 78.865 50.3122 78.605 49.9568 78.423C49.6015 78.2323 49.1942 78.137 48.7348 78.137C48.2755 78.137 47.8638 78.2323 47.4998 78.423C47.1445 78.605 46.8628 78.865 46.6548 79.203C46.4555 79.541 46.3558 79.931 46.3558 80.373C46.3558 80.815 46.4555 81.205 46.6548 81.543C46.8628 81.881 47.1445 82.1453 47.4998 82.336C47.8638 82.5267 48.2755 82.622 48.7348 82.622ZM58.9844 84V82.544L58.9194 82.271V79.788C58.9194 79.2593 58.7634 78.852 58.4514 78.566C58.1481 78.2713 57.6887 78.124 57.0734 78.124C56.6661 78.124 56.2674 78.1933 55.8774 78.332C55.4874 78.462 55.1581 78.6397 54.8894 78.865L54.3694 77.929C54.7247 77.643 55.1494 77.4263 55.6434 77.279C56.1461 77.123 56.6704 77.045 57.2164 77.045C58.1611 77.045 58.8891 77.2747 59.4004 77.734C59.9117 78.1933 60.1674 78.8953 60.1674 79.84V84H58.9844ZM56.7224 84.078C56.2111 84.078 55.7604 83.9913 55.3704 83.818C54.9891 83.6447 54.6944 83.4063 54.4864 83.103C54.2784 82.791 54.1744 82.44 54.1744 82.05C54.1744 81.6773 54.2611 81.3393 54.4344 81.036C54.6164 80.7327 54.9067 80.49 55.3054 80.308C55.7127 80.126 56.2587 80.035 56.9434 80.035H59.1274V80.932H56.9954C56.3714 80.932 55.9511 81.036 55.7344 81.244C55.5177 81.452 55.4094 81.7033 55.4094 81.998C55.4094 82.336 55.5437 82.609 55.8124 82.817C56.0811 83.0163 56.4537 83.116 56.9304 83.116C57.3984 83.116 57.8057 83.012 58.1524 82.804C58.5077 82.596 58.7634 82.2927 58.9194 81.894L59.1664 82.752C59.0017 83.1593 58.7114 83.4843 58.2954 83.727C57.8794 83.961 57.3551 84.078 56.7224 84.078ZM66.1559 77.045C66.7193 77.045 67.2133 77.1533 67.6379 77.37C68.0713 77.5867 68.4093 77.916 68.6519 78.358C68.8946 78.8 69.0159 79.359 69.0159 80.035V84H67.7679V80.178C67.7679 79.5107 67.6033 79.008 67.2739 78.67C66.9533 78.332 66.4983 78.163 65.9089 78.163C65.4669 78.163 65.0813 78.2497 64.7519 78.423C64.4226 78.5963 64.1669 78.852 63.9849 79.19C63.8116 79.528 63.7249 79.9483 63.7249 80.451V84H62.4769V77.11H63.6729V78.969L63.4779 78.475C63.7033 78.0243 64.0499 77.6733 64.5179 77.422C64.9859 77.1707 65.5319 77.045 66.1559 77.045ZM74.9988 84V76.499C74.9988 75.823 75.1938 75.2857 75.5838 74.887C75.9825 74.4797 76.5458 74.276 77.2738 74.276C77.5425 74.276 77.7981 74.3107 78.0408 74.38C78.2921 74.4407 78.5045 74.5403 78.6778 74.679L78.3008 75.628C78.1708 75.524 78.0235 75.446 77.8588 75.394C77.6941 75.3333 77.5208 75.303 77.3388 75.303C76.9748 75.303 76.6975 75.407 76.5068 75.615C76.3161 75.8143 76.2208 76.1133 76.2208 76.512V77.435L76.2468 78.007V84H74.9988ZM73.8288 78.137V77.11H78.2228V78.137H73.8288ZM79.4058 84V77.11H80.6538V84H79.4058ZM80.0298 75.784C79.7871 75.784 79.5835 75.706 79.4188 75.55C79.2628 75.394 79.1848 75.2033 79.1848 74.978C79.1848 74.744 79.2628 74.549 79.4188 74.393C79.5835 74.237 79.7871 74.159 80.0298 74.159C80.2725 74.159 80.4718 74.237 80.6278 74.393C80.7925 74.5403 80.8748 74.7267 80.8748 74.952C80.8748 75.186 80.7968 75.3853 80.6408 75.55C80.4848 75.706 80.2811 75.784 80.0298 75.784ZM85.3967 84.078C84.7033 84.078 84.166 83.8917 83.7847 83.519C83.4033 83.1463 83.2127 82.6133 83.2127 81.92V75.602H84.4607V81.868C84.4607 82.2407 84.5517 82.5267 84.7337 82.726C84.9243 82.9253 85.193 83.025 85.5397 83.025C85.9297 83.025 86.2547 82.9167 86.5147 82.7L86.9047 83.597C86.714 83.7617 86.4843 83.883 86.2157 83.961C85.9557 84.039 85.6827 84.078 85.3967 84.078ZM82.0427 78.137V77.11H86.4367V78.137H82.0427ZM91.3125 84.078C90.7231 84.078 90.2031 83.9697 89.7525 83.753C89.3105 83.5363 88.9638 83.207 88.7125 82.765C88.4698 82.3143 88.3485 81.751 88.3485 81.075V77.11H89.5965V80.932C89.5965 81.608 89.7568 82.115 90.0775 82.453C90.4068 82.791 90.8661 82.96 91.4555 82.96C91.8888 82.96 92.2658 82.8733 92.5865 82.7C92.9071 82.518 93.1541 82.258 93.3275 81.92C93.5008 81.5733 93.5875 81.1573 93.5875 80.672V77.11H94.8355V84H93.6525V82.141L93.8475 82.635C93.6221 83.0943 93.2841 83.4497 92.8335 83.701C92.3828 83.9523 91.8758 84.078 91.3125 84.078ZM97.2113 84V77.11H98.4073V78.982L98.2903 78.514C98.481 78.0373 98.8017 77.6733 99.2523 77.422C99.703 77.1707 100.258 77.045 100.916 77.045V78.254C100.864 78.2453 100.812 78.241 100.76 78.241C100.717 78.241 100.674 78.241 100.63 78.241C99.963 78.241 99.4343 78.4403 99.0443 78.839C98.6543 79.2377 98.4593 79.814 98.4593 80.568V84H97.2113ZM109.051 86.6C108.418 86.6 107.803 86.509 107.205 86.327C106.615 86.1537 106.134 85.9023 105.762 85.573L106.36 84.611C106.68 84.8883 107.075 85.105 107.543 85.261C108.011 85.4257 108.5 85.508 109.012 85.508C109.826 85.508 110.424 85.3173 110.806 84.936C111.187 84.5547 111.378 83.974 111.378 83.194V81.738L111.508 80.373L111.443 78.995V77.11H112.626V83.064C112.626 84.2773 112.322 85.17 111.716 85.742C111.109 86.314 110.221 86.6 109.051 86.6ZM108.895 83.714C108.227 83.714 107.629 83.5753 107.101 83.298C106.581 83.012 106.165 82.6177 105.853 82.115C105.549 81.6123 105.398 81.0317 105.398 80.373C105.398 79.7057 105.549 79.125 105.853 78.631C106.165 78.1283 106.581 77.7383 107.101 77.461C107.629 77.1837 108.227 77.045 108.895 77.045C109.484 77.045 110.021 77.1663 110.507 77.409C110.992 77.643 111.378 78.007 111.664 78.501C111.958 78.995 112.106 79.619 112.106 80.373C112.106 81.1183 111.958 81.738 111.664 82.232C111.378 82.726 110.992 83.0987 110.507 83.35C110.021 83.5927 109.484 83.714 108.895 83.714ZM109.038 82.622C109.497 82.622 109.904 82.5267 110.26 82.336C110.615 82.1453 110.892 81.881 111.092 81.543C111.3 81.205 111.404 80.815 111.404 80.373C111.404 79.931 111.3 79.541 111.092 79.203C110.892 78.865 110.615 78.605 110.26 78.423C109.904 78.2323 109.497 78.137 109.038 78.137C108.578 78.137 108.167 78.2323 107.803 78.423C107.447 78.605 107.166 78.865 106.958 79.203C106.758 79.541 106.659 79.931 106.659 80.373C106.659 80.815 106.758 81.205 106.958 81.543C107.166 81.881 107.447 82.1453 107.803 82.336C108.167 82.5267 108.578 82.622 109.038 82.622ZM118.663 84.078C118.091 84.078 117.567 83.948 117.09 83.688C116.622 83.4193 116.245 83.025 115.959 82.505C115.682 81.985 115.543 81.335 115.543 80.555C115.543 79.775 115.677 79.125 115.946 78.605C116.223 78.085 116.596 77.695 117.064 77.435C117.541 77.175 118.074 77.045 118.663 77.045C119.339 77.045 119.937 77.1923 120.457 77.487C120.977 77.7817 121.389 78.1933 121.692 78.722C121.995 79.242 122.147 79.853 122.147 80.555C122.147 81.257 121.995 81.8723 121.692 82.401C121.389 82.9297 120.977 83.3413 120.457 83.636C119.937 83.9307 119.339 84.078 118.663 84.078ZM115.01 86.522V77.11H116.206V78.969L116.128 80.568L116.258 82.167V86.522H115.01ZM118.559 82.986C119.001 82.986 119.395 82.8863 119.742 82.687C120.097 82.4877 120.375 82.206 120.574 81.842C120.782 81.4693 120.886 81.0403 120.886 80.555C120.886 80.061 120.782 79.6363 120.574 79.281C120.375 78.917 120.097 78.6353 119.742 78.436C119.395 78.2367 119.001 78.137 118.559 78.137C118.126 78.137 117.731 78.2367 117.376 78.436C117.029 78.6353 116.752 78.917 116.544 79.281C116.345 79.6363 116.245 80.061 116.245 80.555C116.245 81.0403 116.345 81.4693 116.544 81.842C116.752 82.206 117.029 82.4877 117.376 82.687C117.731 82.8863 118.126 82.986 118.559 82.986ZM125.847 84.078C125.275 84.078 124.729 84 124.209 83.844C123.698 83.688 123.295 83.4973 123 83.272L123.52 82.284C123.815 82.4833 124.179 82.6523 124.612 82.791C125.046 82.9297 125.488 82.999 125.938 82.999C126.519 82.999 126.935 82.9167 127.186 82.752C127.446 82.5873 127.576 82.3577 127.576 82.063C127.576 81.8463 127.498 81.6773 127.342 81.556C127.186 81.4347 126.978 81.3437 126.718 81.283C126.467 81.2223 126.185 81.1703 125.873 81.127C125.561 81.075 125.249 81.0143 124.937 80.945C124.625 80.867 124.339 80.763 124.079 80.633C123.819 80.4943 123.611 80.308 123.455 80.074C123.299 79.8313 123.221 79.5107 123.221 79.112C123.221 78.696 123.338 78.332 123.572 78.02C123.806 77.708 124.136 77.4697 124.56 77.305C124.994 77.1317 125.505 77.045 126.094 77.045C126.545 77.045 127 77.1013 127.459 77.214C127.927 77.318 128.309 77.4697 128.603 77.669L128.07 78.657C127.758 78.449 127.433 78.306 127.095 78.228C126.757 78.15 126.419 78.111 126.081 78.111C125.535 78.111 125.128 78.202 124.859 78.384C124.591 78.5573 124.456 78.7827 124.456 79.06C124.456 79.294 124.534 79.476 124.69 79.606C124.855 79.7273 125.063 79.8227 125.314 79.892C125.574 79.9613 125.86 80.022 126.172 80.074C126.484 80.1173 126.796 80.178 127.108 80.256C127.42 80.3253 127.702 80.425 127.953 80.555C128.213 80.685 128.421 80.867 128.577 81.101C128.742 81.335 128.824 81.647 128.824 82.037C128.824 82.453 128.703 82.8127 128.46 83.116C128.218 83.4193 127.875 83.6577 127.433 83.831C126.991 83.9957 126.463 84.078 125.847 84.078ZM134.174 86.6C133.845 86.6 133.524 86.5437 133.212 86.431C132.9 86.327 132.632 86.171 132.406 85.963L132.939 85.027C133.113 85.1917 133.303 85.3173 133.511 85.404C133.719 85.4907 133.94 85.534 134.174 85.534C134.478 85.534 134.729 85.456 134.928 85.3C135.128 85.144 135.314 84.8667 135.487 84.468L135.916 83.519L136.046 83.363L138.75 77.11H139.972L136.631 84.689C136.432 85.1743 136.207 85.5557 135.955 85.833C135.713 86.1103 135.444 86.3053 135.149 86.418C134.855 86.5393 134.53 86.6 134.174 86.6ZM135.812 84.221L132.666 77.11H133.966L136.644 83.246L135.812 84.221ZM145.198 84V82.544L145.133 82.271V79.788C145.133 79.2593 144.977 78.852 144.665 78.566C144.362 78.2713 143.903 78.124 143.287 78.124C142.88 78.124 142.481 78.1933 142.091 78.332C141.701 78.462 141.372 78.6397 141.103 78.865L140.583 77.929C140.939 77.643 141.363 77.4263 141.857 77.279C142.36 77.123 142.884 77.045 143.43 77.045C144.375 77.045 145.103 77.2747 145.614 77.734C146.126 78.1933 146.381 78.8953 146.381 79.84V84H145.198ZM142.936 84.078C142.425 84.078 141.974 83.9913 141.584 83.818C141.203 83.6447 140.908 83.4063 140.7 83.103C140.492 82.791 140.388 82.44 140.388 82.05C140.388 81.6773 140.475 81.3393 140.648 81.036C140.83 80.7327 141.121 80.49 141.519 80.308C141.927 80.126 142.473 80.035 143.157 80.035H145.341V80.932H143.209C142.585 80.932 142.165 81.036 141.948 81.244C141.732 81.452 141.623 81.7033 141.623 81.998C141.623 82.336 141.758 82.609 142.026 82.817C142.295 83.0163 142.668 83.116 143.144 83.116C143.612 83.116 144.02 83.012 144.366 82.804C144.722 82.596 144.977 82.2927 145.133 81.894L145.38 82.752C145.216 83.1593 144.925 83.4843 144.509 83.727C144.093 83.961 143.569 84.078 142.936 84.078ZM152.37 77.045C152.933 77.045 153.427 77.1533 153.852 77.37C154.285 77.5867 154.623 77.916 154.866 78.358C155.108 78.8 155.23 79.359 155.23 80.035V84H153.982V80.178C153.982 79.5107 153.817 79.008 153.488 78.67C153.167 78.332 152.712 78.163 152.123 78.163C151.681 78.163 151.295 78.2497 150.966 78.423C150.636 78.5963 150.381 78.852 150.199 79.19C150.025 79.528 149.939 79.9483 149.939 80.451V84H148.691V77.11H149.887V78.969L149.692 78.475C149.917 78.0243 150.264 77.6733 150.732 77.422C151.2 77.1707 151.746 77.045 152.37 77.045ZM160.555 86.6C159.923 86.6 159.307 86.509 158.709 86.327C158.12 86.1537 157.639 85.9023 157.266 85.573L157.864 84.611C158.185 84.8883 158.579 85.105 159.047 85.261C159.515 85.4257 160.005 85.508 160.516 85.508C161.331 85.508 161.929 85.3173 162.31 84.936C162.692 84.5547 162.882 83.974 162.882 83.194V81.738L163.012 80.373L162.947 78.995V77.11H164.13V83.064C164.13 84.2773 163.827 85.17 163.22 85.742C162.614 86.314 161.725 86.6 160.555 86.6ZM160.399 83.714C159.732 83.714 159.134 83.5753 158.605 83.298C158.085 83.012 157.669 82.6177 157.357 82.115C157.054 81.6123 156.902 81.0317 156.902 80.373C156.902 79.7057 157.054 79.125 157.357 78.631C157.669 78.1283 158.085 77.7383 158.605 77.461C159.134 77.1837 159.732 77.045 160.399 77.045C160.989 77.045 161.526 77.1663 162.011 77.409C162.497 77.643 162.882 78.007 163.168 78.501C163.463 78.995 163.61 79.619 163.61 80.373C163.61 81.1183 163.463 81.738 163.168 82.232C162.882 82.726 162.497 83.0987 162.011 83.35C161.526 83.5927 160.989 83.714 160.399 83.714ZM160.542 82.622C161.002 82.622 161.409 82.5267 161.764 82.336C162.12 82.1453 162.397 81.881 162.596 81.543C162.804 81.205 162.908 80.815 162.908 80.373C162.908 79.931 162.804 79.541 162.596 79.203C162.397 78.865 162.12 78.605 161.764 78.423C161.409 78.2323 161.002 78.137 160.542 78.137C160.083 78.137 159.671 78.2323 159.307 78.423C158.952 78.605 158.67 78.865 158.462 79.203C158.263 79.541 158.163 79.931 158.163 80.373C158.163 80.815 158.263 81.205 158.462 81.543C158.67 81.881 158.952 82.1453 159.307 82.336C159.671 82.5267 160.083 82.622 160.542 82.622ZM172.372 84.078C171.679 84.078 171.142 83.8917 170.76 83.519C170.379 83.1463 170.188 82.6133 170.188 81.92V75.602H171.436V81.868C171.436 82.2407 171.527 82.5267 171.709 82.726C171.9 82.9253 172.169 83.025 172.515 83.025C172.905 83.025 173.23 82.9167 173.49 82.7L173.88 83.597C173.69 83.7617 173.46 83.883 173.191 83.961C172.931 84.039 172.658 84.078 172.372 84.078ZM169.018 78.137V77.11H173.412V78.137H169.018ZM178.229 84.078C177.492 84.078 176.842 83.9263 176.279 83.623C175.724 83.3197 175.291 82.9037 174.979 82.375C174.675 81.8463 174.524 81.2397 174.524 80.555C174.524 79.8703 174.671 79.2637 174.966 78.735C175.269 78.2063 175.681 77.7947 176.201 77.5C176.729 77.1967 177.323 77.045 177.982 77.045C178.649 77.045 179.238 77.1923 179.75 77.487C180.261 77.7817 180.66 78.1977 180.946 78.735C181.24 79.2637 181.388 79.8833 181.388 80.594C181.388 80.646 181.383 80.7067 181.375 80.776C181.375 80.8453 181.37 80.9103 181.362 80.971H175.499V80.074H180.712L180.205 80.386C180.213 79.944 180.122 79.5497 179.932 79.203C179.741 78.8563 179.477 78.5877 179.139 78.397C178.809 78.1977 178.424 78.098 177.982 78.098C177.548 78.098 177.163 78.1977 176.825 78.397C176.487 78.5877 176.222 78.8607 176.032 79.216C175.841 79.5627 175.746 79.9613 175.746 80.412V80.62C175.746 81.0793 175.85 81.491 176.058 81.855C176.274 82.2103 176.573 82.4877 176.955 82.687C177.336 82.8863 177.774 82.986 178.268 82.986C178.675 82.986 179.043 82.9167 179.373 82.778C179.711 82.6393 180.005 82.4313 180.257 82.154L180.946 82.96C180.634 83.324 180.244 83.6013 179.776 83.792C179.316 83.9827 178.801 84.078 178.229 84.078ZM183.121 84V77.11H184.317V78.982L184.2 78.514C184.39 78.0373 184.711 77.6733 185.162 77.422C185.612 77.1707 186.167 77.045 186.826 77.045V78.254C186.774 78.2453 186.722 78.241 186.67 78.241C186.626 78.241 186.583 78.241 186.54 78.241C185.872 78.241 185.344 78.4403 184.954 78.839C184.564 79.2377 184.369 79.814 184.369 80.568V84H183.121ZM188.364 84V77.11H189.612V84H188.364ZM188.988 75.784C188.745 75.784 188.541 75.706 188.377 75.55C188.221 75.394 188.143 75.2033 188.143 74.978C188.143 74.744 188.221 74.549 188.377 74.393C188.541 74.237 188.745 74.159 188.988 74.159C189.23 74.159 189.43 74.237 189.586 74.393C189.75 74.5403 189.833 74.7267 189.833 74.952C189.833 75.186 189.755 75.3853 189.599 75.55C189.443 75.706 189.239 75.784 188.988 75.784ZM195.674 77.045C196.237 77.045 196.731 77.1533 197.156 77.37C197.589 77.5867 197.927 77.916 198.17 78.358C198.412 78.8 198.534 79.359 198.534 80.035V84H197.286V80.178C197.286 79.5107 197.121 79.008 196.792 78.67C196.471 78.332 196.016 78.163 195.427 78.163C194.985 78.163 194.599 78.2497 194.27 78.423C193.94 78.5963 193.685 78.852 193.503 79.19C193.329 79.528 193.243 79.9483 193.243 80.451V84H191.995V77.11H193.191V78.969L192.996 78.475C193.221 78.0243 193.568 77.6733 194.036 77.422C194.504 77.1707 195.05 77.045 195.674 77.045ZM203.209 84.078C202.516 84.078 201.978 83.8917 201.597 83.519C201.216 83.1463 201.025 82.6133 201.025 81.92V75.602H202.273V81.868C202.273 82.2407 202.364 82.5267 202.546 82.726C202.737 82.9253 203.005 83.025 203.352 83.025C203.742 83.025 204.067 82.9167 204.327 82.7L204.717 83.597C204.526 83.7617 204.297 83.883 204.028 83.961C203.768 84.039 203.495 84.078 203.209 84.078ZM199.855 78.137V77.11H204.249V78.137H199.855ZM209.065 84.078C208.329 84.078 207.679 83.9263 207.115 83.623C206.561 83.3197 206.127 82.9037 205.815 82.375C205.512 81.8463 205.36 81.2397 205.36 80.555C205.36 79.8703 205.508 79.2637 205.802 78.735C206.106 78.2063 206.517 77.7947 207.037 77.5C207.566 77.1967 208.16 77.045 208.818 77.045C209.486 77.045 210.075 77.1923 210.586 77.487C211.098 77.7817 211.496 78.1977 211.782 78.735C212.077 79.2637 212.224 79.8833 212.224 80.594C212.224 80.646 212.22 80.7067 212.211 80.776C212.211 80.8453 212.207 80.9103 212.198 80.971H206.335V80.074H211.548L211.041 80.386C211.05 79.944 210.959 79.5497 210.768 79.203C210.578 78.8563 210.313 78.5877 209.975 78.397C209.646 78.1977 209.26 78.098 208.818 78.098C208.385 78.098 207.999 78.1977 207.661 78.397C207.323 78.5877 207.059 78.8607 206.868 79.216C206.678 79.5627 206.582 79.9613 206.582 80.412V80.62C206.582 81.0793 206.686 81.491 206.894 81.855C207.111 82.2103 207.41 82.4877 207.791 82.687C208.173 82.8863 208.61 82.986 209.104 82.986C209.512 82.986 209.88 82.9167 210.209 82.778C210.547 82.6393 210.842 82.4313 211.093 82.154L211.782 82.96C211.47 83.324 211.08 83.6013 210.612 83.792C210.153 83.9827 209.637 84.078 209.065 84.078ZM216.973 86.6C216.341 86.6 215.725 86.509 215.127 86.327C214.538 86.1537 214.057 85.9023 213.684 85.573L214.282 84.611C214.603 84.8883 214.997 85.105 215.465 85.261C215.933 85.4257 216.423 85.508 216.934 85.508C217.749 85.508 218.347 85.3173 218.728 84.936C219.11 84.5547 219.3 83.974 219.3 83.194V81.738L219.43 80.373L219.365 78.995V77.11H220.548V83.064C220.548 84.2773 220.245 85.17 219.638 85.742C219.032 86.314 218.143 86.6 216.973 86.6ZM216.817 83.714C216.15 83.714 215.552 83.5753 215.023 83.298C214.503 83.012 214.087 82.6177 213.775 82.115C213.472 81.6123 213.32 81.0317 213.32 80.373C213.32 79.7057 213.472 79.125 213.775 78.631C214.087 78.1283 214.503 77.7383 215.023 77.461C215.552 77.1837 216.15 77.045 216.817 77.045C217.407 77.045 217.944 77.1663 218.429 77.409C218.915 77.643 219.3 78.007 219.586 78.501C219.881 78.995 220.028 79.619 220.028 80.373C220.028 81.1183 219.881 81.738 219.586 82.232C219.3 82.726 218.915 83.0987 218.429 83.35C217.944 83.5927 217.407 83.714 216.817 83.714ZM216.96 82.622C217.42 82.622 217.827 82.5267 218.182 82.336C218.538 82.1453 218.815 81.881 219.014 81.543C219.222 81.205 219.326 80.815 219.326 80.373C219.326 79.931 219.222 79.541 219.014 79.203C218.815 78.865 218.538 78.605 218.182 78.423C217.827 78.2323 217.42 78.137 216.96 78.137C216.501 78.137 216.089 78.2323 215.725 78.423C215.37 78.605 215.088 78.865 214.88 79.203C214.681 79.541 214.581 79.931 214.581 80.373C214.581 80.815 214.681 81.205 214.88 81.543C215.088 81.881 215.37 82.1453 215.725 82.336C216.089 82.5267 216.501 82.622 216.96 82.622ZM222.933 84V77.11H224.129V78.982L224.012 78.514C224.203 78.0373 224.523 77.6733 224.974 77.422C225.425 77.1707 225.979 77.045 226.638 77.045V78.254C226.586 78.2453 226.534 78.241 226.482 78.241C226.439 78.241 226.395 78.241 226.352 78.241C225.685 78.241 225.156 78.4403 224.766 78.839C224.376 79.2377 224.181 79.814 224.181 80.568V84H222.933ZM231.945 84V82.544L231.88 82.271V79.788C231.88 79.2593 231.724 78.852 231.412 78.566C231.109 78.2713 230.65 78.124 230.034 78.124C229.627 78.124 229.228 78.1933 228.838 78.332C228.448 78.462 228.119 78.6397 227.85 78.865L227.33 77.929C227.686 77.643 228.11 77.4263 228.604 77.279C229.107 77.123 229.631 77.045 230.177 77.045C231.122 77.045 231.85 77.2747 232.361 77.734C232.873 78.1933 233.128 78.8953 233.128 79.84V84H231.945ZM229.683 84.078C229.172 84.078 228.721 83.9913 228.331 83.818C227.95 83.6447 227.655 83.4063 227.447 83.103C227.239 82.791 227.135 82.44 227.135 82.05C227.135 81.6773 227.222 81.3393 227.395 81.036C227.577 80.7327 227.868 80.49 228.266 80.308C228.674 80.126 229.22 80.035 229.904 80.035H232.088V80.932H229.956C229.332 80.932 228.912 81.036 228.695 81.244C228.479 81.452 228.37 81.7033 228.37 81.998C228.37 82.336 228.505 82.609 228.773 82.817C229.042 83.0163 229.415 83.116 229.891 83.116C230.359 83.116 230.767 83.012 231.113 82.804C231.469 82.596 231.724 82.2927 231.88 81.894L232.127 82.752C231.963 83.1593 231.672 83.4843 231.256 83.727C230.84 83.961 230.316 84.078 229.683 84.078ZM237.414 84.078C236.842 84.078 236.296 84 235.776 83.844C235.265 83.688 234.862 83.4973 234.567 83.272L235.087 82.284C235.382 82.4833 235.746 82.6523 236.179 82.791C236.612 82.9297 237.054 82.999 237.505 82.999C238.086 82.999 238.502 82.9167 238.753 82.752C239.013 82.5873 239.143 82.3577 239.143 82.063C239.143 81.8463 239.065 81.6773 238.909 81.556C238.753 81.4347 238.545 81.3437 238.285 81.283C238.034 81.2223 237.752 81.1703 237.44 81.127C237.128 81.075 236.816 81.0143 236.504 80.945C236.192 80.867 235.906 80.763 235.646 80.633C235.386 80.4943 235.178 80.308 235.022 80.074C234.866 79.8313 234.788 79.5107 234.788 79.112C234.788 78.696 234.905 78.332 235.139 78.02C235.373 77.708 235.702 77.4697 236.127 77.305C236.56 77.1317 237.072 77.045 237.661 77.045C238.112 77.045 238.567 77.1013 239.026 77.214C239.494 77.318 239.875 77.4697 240.17 77.669L239.637 78.657C239.325 78.449 239 78.306 238.662 78.228C238.324 78.15 237.986 78.111 237.648 78.111C237.102 78.111 236.695 78.202 236.426 78.384C236.157 78.5573 236.023 78.7827 236.023 79.06C236.023 79.294 236.101 79.476 236.257 79.606C236.422 79.7273 236.63 79.8227 236.881 79.892C237.141 79.9613 237.427 80.022 237.739 80.074C238.051 80.1173 238.363 80.178 238.675 80.256C238.987 80.3253 239.269 80.425 239.52 80.555C239.78 80.685 239.988 80.867 240.144 81.101C240.309 81.335 240.391 81.647 240.391 82.037C240.391 82.453 240.27 82.8127 240.027 83.116C239.784 83.4193 239.442 83.6577 239 83.831C238.558 83.9957 238.029 84.078 237.414 84.078ZM241.951 84V77.11H243.199V84H241.951ZM242.575 75.784C242.332 75.784 242.128 75.706 241.964 75.55C241.808 75.394 241.73 75.2033 241.73 74.978C241.73 74.744 241.808 74.549 241.964 74.393C242.128 74.237 242.332 74.159 242.575 74.159C242.817 74.159 243.017 74.237 243.173 74.393C243.337 74.5403 243.42 74.7267 243.42 74.952C243.42 75.186 243.342 75.3853 243.186 75.55C243.03 75.706 242.826 75.784 242.575 75.784ZM245.087 85.924L245.737 83.298L245.906 84.052C245.655 84.052 245.443 83.974 245.269 83.818C245.105 83.662 245.022 83.4497 245.022 83.181C245.022 82.921 245.105 82.7087 245.269 82.544C245.443 82.3793 245.651 82.297 245.893 82.297C246.145 82.297 246.348 82.3837 246.504 82.557C246.66 82.7217 246.738 82.9297 246.738 83.181C246.738 83.2677 246.73 83.3543 246.712 83.441C246.704 83.519 246.682 83.6143 246.647 83.727C246.621 83.831 246.578 83.961 246.517 84.117L245.906 85.924H245.087ZM19.197 103.336L19.223 101.737L23.188 98.11H24.696L21.654 101.1L20.978 101.672L19.197 103.336ZM18.183 105V95.354H19.431V105H18.183ZM23.448 105L20.744 101.646L21.55 100.645L24.982 105H23.448ZM30.3438 105V103.544L30.2788 103.271V100.788C30.2788 100.259 30.1228 99.852 29.8108 99.566C29.5075 99.2713 29.0481 99.124 28.4328 99.124C28.0255 99.124 27.6268 99.1933 27.2368 99.332C26.8468 99.462 26.5175 99.6397 26.2488 99.865L25.7288 98.929C26.0841 98.643 26.5088 98.4263 27.0028 98.279C27.5055 98.123 28.0298 98.045 28.5758 98.045C29.5205 98.045 30.2485 98.2747 30.7598 98.734C31.2711 99.1933 31.5268 99.8953 31.5268 100.84V105H30.3438ZM28.0818 105.078C27.5705 105.078 27.1198 104.991 26.7298 104.818C26.3485 104.645 26.0538 104.406 25.8458 104.103C25.6378 103.791 25.5338 103.44 25.5338 103.05C25.5338 102.677 25.6205 102.339 25.7938 102.036C25.9758 101.733 26.2661 101.49 26.6648 101.308C27.0721 101.126 27.6181 101.035 28.3028 101.035H30.4868V101.932H28.3548C27.7308 101.932 27.3105 102.036 27.0938 102.244C26.8771 102.452 26.7688 102.703 26.7688 102.998C26.7688 103.336 26.9031 103.609 27.1718 103.817C27.4405 104.016 27.8131 104.116 28.2898 104.116C28.7578 104.116 29.1651 104.012 29.5118 103.804C29.8671 103.596 30.1228 103.293 30.2788 102.894L30.5258 103.752C30.3611 104.159 30.0708 104.484 29.6548 104.727C29.2388 104.961 28.7145 105.078 28.0818 105.078ZM42.4553 98.045C43.01 98.045 43.4997 98.1533 43.9243 98.37C44.349 98.5867 44.6783 98.916 44.9123 99.358C45.155 99.8 45.2763 100.359 45.2763 101.035V105H44.0283V101.178C44.0283 100.511 43.8723 100.008 43.5603 99.67C43.2483 99.332 42.8107 99.163 42.2473 99.163C41.8313 99.163 41.4673 99.2497 41.1553 99.423C40.8433 99.5963 40.6007 99.852 40.4273 100.19C40.2627 100.528 40.1803 100.948 40.1803 101.451V105H38.9323V101.178C38.9323 100.511 38.7763 100.008 38.4643 99.67C38.161 99.332 37.7233 99.163 37.1513 99.163C36.744 99.163 36.3843 99.2497 36.0723 99.423C35.7603 99.5963 35.5177 99.852 35.3443 100.19C35.171 100.528 35.0843 100.948 35.0843 101.451V105H33.8363V98.11H35.0323V99.943L34.8373 99.475C35.054 99.0243 35.3877 98.6733 35.8383 98.422C36.289 98.1707 36.8133 98.045 37.4113 98.045C38.07 98.045 38.6377 98.2097 39.1143 98.539C39.591 98.8597 39.903 99.3493 40.0503 100.008L39.5433 99.8C39.7513 99.2713 40.1153 98.8467 40.6353 98.526C41.1553 98.2053 41.762 98.045 42.4553 98.045ZM47.5726 105V98.11H48.8206V105H47.5726ZM48.1966 96.784C47.954 96.784 47.7503 96.706 47.5856 96.55C47.4296 96.394 47.3516 96.2033 47.3516 95.978C47.3516 95.744 47.4296 95.549 47.5856 95.393C47.7503 95.237 47.954 95.159 48.1966 95.159C48.4393 95.159 48.6386 95.237 48.7946 95.393C48.9593 95.5403 49.0416 95.7267 49.0416 95.952C49.0416 96.186 48.9636 96.3853 48.8076 96.55C48.6516 96.706 48.448 96.784 48.1966 96.784ZM57.5417 105.078C56.8744 105.078 56.2764 104.931 55.7477 104.636C55.2277 104.341 54.8161 103.93 54.5127 103.401C54.2094 102.872 54.0577 102.257 54.0577 101.555C54.0577 100.853 54.2094 100.242 54.5127 99.722C54.8161 99.1933 55.2277 98.7817 55.7477 98.487C56.2764 98.1923 56.8744 98.045 57.5417 98.045C58.1224 98.045 58.6467 98.175 59.1147 98.435C59.5827 98.695 59.9554 99.085 60.2327 99.605C60.5187 100.125 60.6617 100.775 60.6617 101.555C60.6617 102.335 60.5231 102.985 60.2457 103.505C59.9771 104.025 59.6087 104.419 59.1407 104.688C58.6727 104.948 58.1397 105.078 57.5417 105.078ZM57.6457 103.986C58.0791 103.986 58.4691 103.886 58.8157 103.687C59.1711 103.488 59.4484 103.206 59.6477 102.842C59.8557 102.469 59.9597 102.04 59.9597 101.555C59.9597 101.061 59.8557 100.636 59.6477 100.281C59.4484 99.917 59.1711 99.6353 58.8157 99.436C58.4691 99.2367 58.0791 99.137 57.6457 99.137C57.2037 99.137 56.8094 99.2367 56.4627 99.436C56.1161 99.6353 55.8387 99.917 55.6307 100.281C55.4227 100.636 55.3187 101.061 55.3187 101.555C55.3187 102.04 55.4227 102.469 55.6307 102.842C55.8387 103.206 56.1161 103.488 56.4627 103.687C56.8094 103.886 57.2037 103.986 57.6457 103.986ZM59.9987 105V103.141L60.0767 101.542L59.9467 99.943V95.354H61.1947V105H59.9987ZM67.833 105V103.544L67.768 103.271V100.788C67.768 100.259 67.612 99.852 67.3 99.566C66.9967 99.2713 66.5374 99.124 65.922 99.124C65.5147 99.124 65.116 99.1933 64.726 99.332C64.336 99.462 64.0067 99.6397 63.738 99.865L63.218 98.929C63.5734 98.643 63.998 98.4263 64.492 98.279C64.9947 98.123 65.519 98.045 66.065 98.045C67.0097 98.045 67.7377 98.2747 68.249 98.734C68.7604 99.1933 69.016 99.8953 69.016 100.84V105H67.833ZM65.571 105.078C65.0597 105.078 64.609 104.991 64.219 104.818C63.8377 104.645 63.543 104.406 63.335 104.103C63.127 103.791 63.023 103.44 63.023 103.05C63.023 102.677 63.1097 102.339 63.283 102.036C63.465 101.733 63.7554 101.49 64.154 101.308C64.5614 101.126 65.1074 101.035 65.792 101.035H67.976V101.932H65.844C65.22 101.932 64.7997 102.036 64.583 102.244C64.3664 102.452 64.258 102.703 64.258 102.998C64.258 103.336 64.3924 103.609 64.661 103.817C64.9297 104.016 65.3024 104.116 65.779 104.116C66.247 104.116 66.6544 104.012 67.001 103.804C67.3564 103.596 67.612 103.293 67.768 102.894L68.015 103.752C67.8504 104.159 67.56 104.484 67.144 104.727C66.728 104.961 66.2037 105.078 65.571 105.078ZM74.9786 105.078C74.4066 105.078 73.8822 104.948 73.4056 104.688C72.9376 104.419 72.5606 104.025 72.2746 103.505C71.9972 102.985 71.8586 102.335 71.8586 101.555C71.8586 100.775 71.9929 100.125 72.2616 99.605C72.5389 99.085 72.9116 98.695 73.3796 98.435C73.8562 98.175 74.3892 98.045 74.9786 98.045C75.6546 98.045 76.2526 98.1923 76.7726 98.487C77.2926 98.7817 77.7042 99.1933 78.0076 99.722C78.3109 100.242 78.4626 100.853 78.4626 101.555C78.4626 102.257 78.3109 102.872 78.0076 103.401C77.7042 103.93 77.2926 104.341 76.7726 104.636C76.2526 104.931 75.6546 105.078 74.9786 105.078ZM71.3256 107.522V98.11H72.5216V99.969L72.4436 101.568L72.5736 103.167V107.522H71.3256ZM74.8746 103.986C75.3166 103.986 75.7109 103.886 76.0576 103.687C76.4129 103.488 76.6902 103.206 76.8896 102.842C77.0976 102.469 77.2016 102.04 77.2016 101.555C77.2016 101.061 77.0976 100.636 76.8896 100.281C76.6902 99.917 76.4129 99.6353 76.0576 99.436C75.7109 99.2367 75.3166 99.137 74.8746 99.137C74.4412 99.137 74.0469 99.2367 73.6916 99.436C73.3449 99.6353 73.0676 99.917 72.8596 100.281C72.6602 100.636 72.5606 101.061 72.5606 101.555C72.5606 102.04 72.6602 102.469 72.8596 102.842C73.0676 103.206 73.3449 103.488 73.6916 103.687C74.0469 103.886 74.4412 103.986 74.8746 103.986ZM84.4004 105V103.544L84.3354 103.271V100.788C84.3354 100.259 84.1794 99.852 83.8674 99.566C83.5641 99.2713 83.1048 99.124 82.4894 99.124C82.0821 99.124 81.6834 99.1933 81.2934 99.332C80.9034 99.462 80.5741 99.6397 80.3054 99.865L79.7854 98.929C80.1408 98.643 80.5654 98.4263 81.0594 98.279C81.5621 98.123 82.0864 98.045 82.6324 98.045C83.5771 98.045 84.3051 98.2747 84.8164 98.734C85.3278 99.1933 85.5834 99.8953 85.5834 100.84V105H84.4004ZM82.1384 105.078C81.6271 105.078 81.1764 104.991 80.7864 104.818C80.4051 104.645 80.1104 104.406 79.9024 104.103C79.6944 103.791 79.5904 103.44 79.5904 103.05C79.5904 102.677 79.6771 102.339 79.8504 102.036C80.0324 101.733 80.3228 101.49 80.7214 101.308C81.1288 101.126 81.6748 101.035 82.3594 101.035H84.5434V101.932H82.4114C81.7874 101.932 81.3671 102.036 81.1504 102.244C80.9338 102.452 80.8254 102.703 80.8254 102.998C80.8254 103.336 80.9598 103.609 81.2284 103.817C81.4971 104.016 81.8698 104.116 82.3464 104.116C82.8144 104.116 83.2218 104.012 83.5684 103.804C83.9238 103.596 84.1794 103.293 84.3354 102.894L84.5824 103.752C84.4178 104.159 84.1274 104.484 83.7114 104.727C83.2954 104.961 82.7711 105.078 82.1384 105.078ZM90.259 105.078C89.5656 105.078 89.0283 104.892 88.647 104.519C88.2656 104.146 88.075 103.613 88.075 102.92V96.602H89.323V102.868C89.323 103.241 89.414 103.527 89.596 103.726C89.7866 103.925 90.0553 104.025 90.402 104.025C90.792 104.025 91.117 103.917 91.377 103.7L91.767 104.597C91.5763 104.762 91.3466 104.883 91.078 104.961C90.818 105.039 90.545 105.078 90.259 105.078ZM86.905 99.137V98.11H91.299V99.137H86.905ZM105.386 98.045C105.941 98.045 106.43 98.1533 106.855 98.37C107.28 98.5867 107.609 98.916 107.843 99.358C108.086 99.8 108.207 100.359 108.207 101.035V105H106.959V101.178C106.959 100.511 106.803 100.008 106.491 99.67C106.179 99.332 105.741 99.163 105.178 99.163C104.762 99.163 104.398 99.2497 104.086 99.423C103.774 99.5963 103.531 99.852 103.358 100.19C103.193 100.528 103.111 100.948 103.111 101.451V105H101.863V101.178C101.863 100.511 101.707 100.008 101.395 99.67C101.092 99.332 100.654 99.163 100.082 99.163C99.6747 99.163 99.315 99.2497 99.003 99.423C98.691 99.5963 98.4483 99.852 98.275 100.19C98.1017 100.528 98.015 100.948 98.015 101.451V105H96.767V98.11H97.963V99.943L97.768 99.475C97.9847 99.0243 98.3183 98.6733 98.769 98.422C99.2197 98.1707 99.744 98.045 100.342 98.045C101.001 98.045 101.568 98.2097 102.045 98.539C102.522 98.8597 102.834 99.3493 102.981 100.008L102.474 99.8C102.682 99.2713 103.046 98.8467 103.566 98.526C104.086 98.2053 104.693 98.045 105.386 98.045ZM113.571 105.078C112.835 105.078 112.185 104.926 111.621 104.623C111.067 104.32 110.633 103.904 110.321 103.375C110.018 102.846 109.866 102.24 109.866 101.555C109.866 100.87 110.014 100.264 110.308 99.735C110.612 99.2063 111.023 98.7947 111.543 98.5C112.072 98.1967 112.666 98.045 113.324 98.045C113.992 98.045 114.581 98.1923 115.092 98.487C115.604 98.7817 116.002 99.1977 116.288 99.735C116.583 100.264 116.73 100.883 116.73 101.594C116.73 101.646 116.726 101.707 116.717 101.776C116.717 101.845 116.713 101.91 116.704 101.971H110.841V101.074H116.054L115.547 101.386C115.556 100.944 115.465 100.55 115.274 100.203C115.084 99.8563 114.819 99.5877 114.481 99.397C114.152 99.1977 113.766 99.098 113.324 99.098C112.891 99.098 112.505 99.1977 112.167 99.397C111.829 99.5877 111.565 99.8607 111.374 100.216C111.184 100.563 111.088 100.961 111.088 101.412V101.62C111.088 102.079 111.192 102.491 111.4 102.855C111.617 103.21 111.916 103.488 112.297 103.687C112.679 103.886 113.116 103.986 113.61 103.986C114.018 103.986 114.386 103.917 114.715 103.778C115.053 103.639 115.348 103.431 115.599 103.154L116.288 103.96C115.976 104.324 115.586 104.601 115.118 104.792C114.659 104.983 114.143 105.078 113.571 105.078ZM122.142 98.045C122.706 98.045 123.2 98.1533 123.624 98.37C124.058 98.5867 124.396 98.916 124.638 99.358C124.881 99.8 125.002 100.359 125.002 101.035V105H123.754V101.178C123.754 100.511 123.59 100.008 123.26 99.67C122.94 99.332 122.485 99.163 121.895 99.163C121.453 99.163 121.068 99.2497 120.738 99.423C120.409 99.5963 120.153 99.852 119.971 100.19C119.798 100.528 119.711 100.948 119.711 101.451V105H118.463V98.11H119.659V99.969L119.464 99.475C119.69 99.0243 120.036 98.6733 120.504 98.422C120.972 98.1707 121.518 98.045 122.142 98.045ZM130.38 105.078C129.643 105.078 128.993 104.926 128.43 104.623C127.875 104.32 127.442 103.904 127.13 103.375C126.827 102.846 126.675 102.24 126.675 101.555C126.675 100.87 126.822 100.264 127.117 99.735C127.42 99.2063 127.832 98.7947 128.352 98.5C128.881 98.1967 129.474 98.045 130.133 98.045C130.8 98.045 131.39 98.1923 131.901 98.487C132.412 98.7817 132.811 99.1977 133.097 99.735C133.392 100.264 133.539 100.883 133.539 101.594C133.539 101.646 133.535 101.707 133.526 101.776C133.526 101.845 133.522 101.91 133.513 101.971H127.65V101.074H132.863L132.356 101.386C132.365 100.944 132.274 100.55 132.083 100.203C131.892 99.8563 131.628 99.5877 131.29 99.397C130.961 99.1977 130.575 99.098 130.133 99.098C129.7 99.098 129.314 99.1977 128.976 99.397C128.638 99.5877 128.374 99.8607 128.183 100.216C127.992 100.563 127.897 100.961 127.897 101.412V101.62C127.897 102.079 128.001 102.491 128.209 102.855C128.426 103.21 128.725 103.488 129.106 103.687C129.487 103.886 129.925 103.986 130.419 103.986C130.826 103.986 131.195 103.917 131.524 103.778C131.862 103.639 132.157 103.431 132.408 103.154L133.097 103.96C132.785 104.324 132.395 104.601 131.927 104.792C131.468 104.983 130.952 105.078 130.38 105.078ZM143.891 98.045C144.446 98.045 144.935 98.1533 145.36 98.37C145.785 98.5867 146.114 98.916 146.348 99.358C146.591 99.8 146.712 100.359 146.712 101.035V105H145.464V101.178C145.464 100.511 145.308 100.008 144.996 99.67C144.684 99.332 144.246 99.163 143.683 99.163C143.267 99.163 142.903 99.2497 142.591 99.423C142.279 99.5963 142.036 99.852 141.863 100.19C141.698 100.528 141.616 100.948 141.616 101.451V105H140.368V101.178C140.368 100.511 140.212 100.008 139.9 99.67C139.597 99.332 139.159 99.163 138.587 99.163C138.18 99.163 137.82 99.2497 137.508 99.423C137.196 99.5963 136.953 99.852 136.78 100.19C136.607 100.528 136.52 100.948 136.52 101.451V105H135.272V98.11H136.468V99.943L136.273 99.475C136.49 99.0243 136.823 98.6733 137.274 98.422C137.725 98.1707 138.249 98.045 138.847 98.045C139.506 98.045 140.073 98.2097 140.55 98.539C141.027 98.8597 141.339 99.3493 141.486 100.008L140.979 99.8C141.187 99.2713 141.551 98.8467 142.071 98.526C142.591 98.2053 143.198 98.045 143.891 98.045ZM151.907 105.078C151.318 105.078 150.798 104.97 150.347 104.753C149.905 104.536 149.559 104.207 149.307 103.765C149.065 103.314 148.943 102.751 148.943 102.075V98.11H150.191V101.932C150.191 102.608 150.352 103.115 150.672 103.453C151.002 103.791 151.461 103.96 152.05 103.96C152.484 103.96 152.861 103.873 153.181 103.7C153.502 103.518 153.749 103.258 153.922 102.92C154.096 102.573 154.182 102.157 154.182 101.672V98.11H155.43V105H154.247V103.141L154.442 103.635C154.217 104.094 153.879 104.45 153.428 104.701C152.978 104.952 152.471 105.078 151.907 105.078ZM158.82 103.336L158.846 101.737L162.811 98.11H164.319L161.277 101.1L160.601 101.672L158.82 103.336ZM157.806 105V95.354H159.054V105H157.806ZM163.071 105L160.367 101.646L161.173 100.645L164.605 105H163.071ZM169.967 105V103.544L169.902 103.271V100.788C169.902 100.259 169.746 99.852 169.434 99.566C169.131 99.2713 168.671 99.124 168.056 99.124C167.649 99.124 167.25 99.1933 166.86 99.332C166.47 99.462 166.141 99.6397 165.872 99.865L165.352 98.929C165.707 98.643 166.132 98.4263 166.626 98.279C167.129 98.123 167.653 98.045 168.199 98.045C169.144 98.045 169.872 98.2747 170.383 98.734C170.894 99.1933 171.15 99.8953 171.15 100.84V105H169.967ZM167.705 105.078C167.194 105.078 166.743 104.991 166.353 104.818C165.972 104.645 165.677 104.406 165.469 104.103C165.261 103.791 165.157 103.44 165.157 103.05C165.157 102.677 165.244 102.339 165.417 102.036C165.599 101.733 165.889 101.49 166.288 101.308C166.695 101.126 167.241 101.035 167.926 101.035H170.11V101.932H167.978C167.354 101.932 166.934 102.036 166.717 102.244C166.5 102.452 166.392 102.703 166.392 102.998C166.392 103.336 166.526 103.609 166.795 103.817C167.064 104.016 167.436 104.116 167.913 104.116C168.381 104.116 168.788 104.012 169.135 103.804C169.49 103.596 169.746 103.293 169.902 102.894L170.149 103.752C169.984 104.159 169.694 104.484 169.278 104.727C168.862 104.961 168.338 105.078 167.705 105.078ZM177.138 98.045C177.702 98.045 178.196 98.1533 178.62 98.37C179.054 98.5867 179.392 98.916 179.634 99.358C179.877 99.8 179.998 100.359 179.998 101.035V105H178.75V101.178C178.75 100.511 178.586 100.008 178.256 99.67C177.936 99.332 177.481 99.163 176.891 99.163C176.449 99.163 176.064 99.2497 175.734 99.423C175.405 99.5963 175.149 99.852 174.967 100.19C174.794 100.528 174.707 100.948 174.707 101.451V105H173.459V98.11H174.655V99.969L174.46 99.475C174.686 99.0243 175.032 98.6733 175.5 98.422C175.968 98.1707 176.514 98.045 177.138 98.045ZM185.799 105V95.354H187.047V105H185.799ZM192.381 105.078C191.688 105.078 191.072 104.926 190.535 104.623C189.998 104.32 189.573 103.904 189.261 103.375C188.949 102.838 188.793 102.231 188.793 101.555C188.793 100.87 188.949 100.264 189.261 99.735C189.573 99.2063 189.998 98.7947 190.535 98.5C191.072 98.1967 191.688 98.045 192.381 98.045C193.066 98.045 193.677 98.1967 194.214 98.5C194.76 98.7947 195.185 99.2063 195.488 99.735C195.8 100.255 195.956 100.862 195.956 101.555C195.956 102.24 195.8 102.846 195.488 103.375C195.185 103.904 194.76 104.32 194.214 104.623C193.677 104.926 193.066 105.078 192.381 105.078ZM192.381 103.986C192.823 103.986 193.217 103.886 193.564 103.687C193.919 103.488 194.197 103.206 194.396 102.842C194.595 102.469 194.695 102.04 194.695 101.555C194.695 101.061 194.595 100.636 194.396 100.281C194.197 99.917 193.919 99.6353 193.564 99.436C193.217 99.2367 192.823 99.137 192.381 99.137C191.939 99.137 191.545 99.2367 191.198 99.436C190.851 99.6353 190.574 99.917 190.366 100.281C190.158 100.636 190.054 101.061 190.054 101.555C190.054 102.04 190.158 102.469 190.366 102.842C190.574 103.206 190.851 103.488 191.198 103.687C191.545 103.886 191.939 103.986 192.381 103.986ZM198.696 103.336L198.722 101.737L202.687 98.11H204.195L201.153 101.1L200.477 101.672L198.696 103.336ZM197.682 105V95.354H198.93V105H197.682ZM202.947 105L200.243 101.646L201.049 100.645L204.481 105H202.947ZM209.843 105V103.544L209.778 103.271V100.788C209.778 100.259 209.622 99.852 209.31 99.566C209.006 99.2713 208.547 99.124 207.932 99.124C207.524 99.124 207.126 99.1933 206.736 99.332C206.346 99.462 206.016 99.6397 205.748 99.865L205.228 98.929C205.583 98.643 206.008 98.4263 206.502 98.279C207.004 98.123 207.529 98.045 208.075 98.045C209.019 98.045 209.747 98.2747 210.259 98.734C210.77 99.1933 211.026 99.8953 211.026 100.84V105H209.843ZM207.581 105.078C207.069 105.078 206.619 104.991 206.229 104.818C205.847 104.645 205.553 104.406 205.345 104.103C205.137 103.791 205.033 103.44 205.033 103.05C205.033 102.677 205.119 102.339 205.293 102.036C205.475 101.733 205.765 101.49 206.164 101.308C206.571 101.126 207.117 101.035 207.802 101.035H209.986V101.932H207.854C207.23 101.932 206.809 102.036 206.593 102.244C206.376 102.452 206.268 102.703 206.268 102.998C206.268 103.336 206.402 103.609 206.671 103.817C206.939 104.016 207.312 104.116 207.789 104.116C208.257 104.116 208.664 104.012 209.011 103.804C209.366 103.596 209.622 103.293 209.778 102.894L210.025 103.752C209.86 104.159 209.57 104.484 209.154 104.727C208.738 104.961 208.213 105.078 207.581 105.078ZM215.311 105.078C214.739 105.078 214.193 105 213.673 104.844C213.162 104.688 212.759 104.497 212.464 104.272L212.984 103.284C213.279 103.483 213.643 103.652 214.076 103.791C214.51 103.93 214.952 103.999 215.402 103.999C215.983 103.999 216.399 103.917 216.65 103.752C216.91 103.587 217.04 103.358 217.04 103.063C217.04 102.846 216.962 102.677 216.806 102.556C216.65 102.435 216.442 102.344 216.182 102.283C215.931 102.222 215.649 102.17 215.337 102.127C215.025 102.075 214.713 102.014 214.401 101.945C214.089 101.867 213.803 101.763 213.543 101.633C213.283 101.494 213.075 101.308 212.919 101.074C212.763 100.831 212.685 100.511 212.685 100.112C212.685 99.696 212.802 99.332 213.036 99.02C213.27 98.708 213.6 98.4697 214.024 98.305C214.458 98.1317 214.969 98.045 215.558 98.045C216.009 98.045 216.464 98.1013 216.923 98.214C217.391 98.318 217.773 98.4697 218.067 98.669L217.534 99.657C217.222 99.449 216.897 99.306 216.559 99.228C216.221 99.15 215.883 99.111 215.545 99.111C214.999 99.111 214.592 99.202 214.323 99.384C214.055 99.5573 213.92 99.7827 213.92 100.06C213.92 100.294 213.998 100.476 214.154 100.606C214.319 100.727 214.527 100.823 214.778 100.892C215.038 100.961 215.324 101.022 215.636 101.074C215.948 101.117 216.26 101.178 216.572 101.256C216.884 101.325 217.166 101.425 217.417 101.555C217.677 101.685 217.885 101.867 218.041 102.101C218.206 102.335 218.288 102.647 218.288 103.037C218.288 103.453 218.167 103.813 217.924 104.116C217.682 104.419 217.339 104.658 216.897 104.831C216.455 104.996 215.927 105.078 215.311 105.078ZM219.848 105V98.11H221.096V105H219.848ZM220.472 96.784C220.229 96.784 220.026 96.706 219.861 96.55C219.705 96.394 219.627 96.2033 219.627 95.978C219.627 95.744 219.705 95.549 219.861 95.393C220.026 95.237 220.229 95.159 220.472 95.159C220.715 95.159 220.914 95.237 221.07 95.393C221.235 95.5403 221.317 95.7267 221.317 95.952C221.317 96.186 221.239 96.3853 221.083 96.55C220.927 96.706 220.723 96.784 220.472 96.784ZM231.247 105V103.544L231.182 103.271V100.788C231.182 100.259 231.026 99.852 230.714 99.566C230.411 99.2713 229.951 99.124 229.336 99.124C228.929 99.124 228.53 99.1933 228.14 99.332C227.75 99.462 227.421 99.6397 227.152 99.865L226.632 98.929C226.987 98.643 227.412 98.4263 227.906 98.279C228.409 98.123 228.933 98.045 229.479 98.045C230.424 98.045 231.152 98.2747 231.663 98.734C232.174 99.1933 232.43 99.8953 232.43 100.84V105H231.247ZM228.985 105.078C228.474 105.078 228.023 104.991 227.633 104.818C227.252 104.645 226.957 104.406 226.749 104.103C226.541 103.791 226.437 103.44 226.437 103.05C226.437 102.677 226.524 102.339 226.697 102.036C226.879 101.733 227.169 101.49 227.568 101.308C227.975 101.126 228.521 101.035 229.206 101.035H231.39V101.932H229.258C228.634 101.932 228.214 102.036 227.997 102.244C227.78 102.452 227.672 102.703 227.672 102.998C227.672 103.336 227.806 103.609 228.075 103.817C228.344 104.016 228.716 104.116 229.193 104.116C229.661 104.116 230.068 104.012 230.415 103.804C230.77 103.596 231.026 103.293 231.182 102.894L231.429 103.752C231.264 104.159 230.974 104.484 230.558 104.727C230.142 104.961 229.618 105.078 228.985 105.078ZM238.419 98.045C238.982 98.045 239.476 98.1533 239.901 98.37C240.334 98.5867 240.672 98.916 240.915 99.358C241.157 99.8 241.279 100.359 241.279 101.035V105H240.031V101.178C240.031 100.511 239.866 100.008 239.537 99.67C239.216 99.332 238.761 99.163 238.172 99.163C237.73 99.163 237.344 99.2497 237.015 99.423C236.685 99.5963 236.43 99.852 236.248 100.19C236.074 100.528 235.988 100.948 235.988 101.451V105H234.74V98.11H235.936V99.969L235.741 99.475C235.966 99.0243 236.313 98.6733 236.781 98.422C237.249 98.1707 237.795 98.045 238.419 98.045ZM246.435 105.078C245.768 105.078 245.17 104.931 244.641 104.636C244.121 104.341 243.71 103.93 243.406 103.401C243.103 102.872 242.951 102.257 242.951 101.555C242.951 100.853 243.103 100.242 243.406 99.722C243.71 99.1933 244.121 98.7817 244.641 98.487C245.17 98.1923 245.768 98.045 246.435 98.045C247.016 98.045 247.54 98.175 248.008 98.435C248.476 98.695 248.849 99.085 249.126 99.605C249.412 100.125 249.555 100.775 249.555 101.555C249.555 102.335 249.417 102.985 249.139 103.505C248.871 104.025 248.502 104.419 248.034 104.688C247.566 104.948 247.033 105.078 246.435 105.078ZM246.539 103.986C246.973 103.986 247.363 103.886 247.709 103.687C248.065 103.488 248.342 103.206 248.541 102.842C248.749 102.469 248.853 102.04 248.853 101.555C248.853 101.061 248.749 100.636 248.541 100.281C248.342 99.917 248.065 99.6353 247.709 99.436C247.363 99.2367 246.973 99.137 246.539 99.137C246.097 99.137 245.703 99.2367 245.356 99.436C245.01 99.6353 244.732 99.917 244.524 100.281C244.316 100.636 244.212 101.061 244.212 101.555C244.212 102.04 244.316 102.469 244.524 102.842C244.732 103.206 245.01 103.488 245.356 103.687C245.703 103.886 246.097 103.986 246.539 103.986ZM248.892 105V103.141L248.97 101.542L248.84 99.943V95.354H250.088V105H248.892ZM256.727 105V103.544L256.662 103.271V100.788C256.662 100.259 256.506 99.852 256.194 99.566C255.89 99.2713 255.431 99.124 254.816 99.124C254.408 99.124 254.01 99.1933 253.62 99.332C253.23 99.462 252.9 99.6397 252.632 99.865L252.112 98.929C252.467 98.643 252.892 98.4263 253.386 98.279C253.888 98.123 254.413 98.045 254.959 98.045C255.903 98.045 256.631 98.2747 257.143 98.734C257.654 99.1933 257.91 99.8953 257.91 100.84V105H256.727ZM254.465 105.078C253.953 105.078 253.503 104.991 253.113 104.818C252.731 104.645 252.437 104.406 252.229 104.103C252.021 103.791 251.917 103.44 251.917 103.05C251.917 102.677 252.003 102.339 252.177 102.036C252.359 101.733 252.649 101.49 253.048 101.308C253.455 101.126 254.001 101.035 254.686 101.035H256.87V101.932H254.738C254.114 101.932 253.693 102.036 253.477 102.244C253.26 102.452 253.152 102.703 253.152 102.998C253.152 103.336 253.286 103.609 253.555 103.817C253.823 104.016 254.196 104.116 254.673 104.116C255.141 104.116 255.548 104.012 255.895 103.804C256.25 103.596 256.506 103.293 256.662 102.894L256.909 103.752C256.744 104.159 256.454 104.484 256.038 104.727C255.622 104.961 255.097 105.078 254.465 105.078ZM20.159 126.078C19.587 126.078 19.041 126 18.521 125.844C18.0097 125.688 17.6067 125.497 17.312 125.272L17.832 124.284C18.1267 124.483 18.4907 124.652 18.924 124.791C19.3573 124.93 19.7993 124.999 20.25 124.999C20.8307 124.999 21.2467 124.917 21.498 124.752C21.758 124.587 21.888 124.358 21.888 124.063C21.888 123.846 21.81 123.677 21.654 123.556C21.498 123.435 21.29 123.344 21.03 123.283C20.7787 123.222 20.497 123.17 20.185 123.127C19.873 123.075 19.561 123.014 19.249 122.945C18.937 122.867 18.651 122.763 18.391 122.633C18.131 122.494 17.923 122.308 17.767 122.074C17.611 121.831 17.533 121.511 17.533 121.112C17.533 120.696 17.65 120.332 17.884 120.02C18.118 119.708 18.4473 119.47 18.872 119.305C19.3053 119.132 19.8167 119.045 20.406 119.045C20.8567 119.045 21.3117 119.101 21.771 119.214C22.239 119.318 22.6203 119.47 22.915 119.669L22.382 120.657C22.07 120.449 21.745 120.306 21.407 120.228C21.069 120.15 20.731 120.111 20.393 120.111C19.847 120.111 19.4397 120.202 19.171 120.384C18.9023 120.557 18.768 120.783 18.768 121.06C18.768 121.294 18.846 121.476 19.002 121.606C19.1667 121.727 19.3747 121.823 19.626 121.892C19.886 121.961 20.172 122.022 20.484 122.074C20.796 122.117 21.108 122.178 21.42 122.256C21.732 122.325 22.0137 122.425 22.265 122.555C22.525 122.685 22.733 122.867 22.889 123.101C23.0537 123.335 23.136 123.647 23.136 124.037C23.136 124.453 23.0147 124.813 22.772 125.116C22.5293 125.419 22.187 125.658 21.745 125.831C21.303 125.996 20.7743 126.078 20.159 126.078ZM27.7637 126.078C27.027 126.078 26.377 125.926 25.8137 125.623C25.259 125.32 24.8257 124.904 24.5137 124.375C24.2104 123.846 24.0587 123.24 24.0587 122.555C24.0587 121.87 24.206 121.264 24.5007 120.735C24.804 120.206 25.2157 119.795 25.7357 119.5C26.2644 119.197 26.858 119.045 27.5167 119.045C28.184 119.045 28.7734 119.192 29.2847 119.487C29.796 119.782 30.1947 120.198 30.4807 120.735C30.7754 121.264 30.9227 121.883 30.9227 122.594C30.9227 122.646 30.9184 122.707 30.9097 122.776C30.9097 122.845 30.9054 122.91 30.8967 122.971H25.0337V122.074H30.2467L29.7397 122.386C29.7484 121.944 29.6574 121.55 29.4667 121.203C29.276 120.856 29.0117 120.588 28.6737 120.397C28.3444 120.198 27.9587 120.098 27.5167 120.098C27.0834 120.098 26.6977 120.198 26.3597 120.397C26.0217 120.588 25.7574 120.861 25.5667 121.216C25.376 121.563 25.2807 121.961 25.2807 122.412V122.62C25.2807 123.079 25.3847 123.491 25.5927 123.855C25.8094 124.21 26.1084 124.488 26.4897 124.687C26.871 124.886 27.3087 124.986 27.8027 124.986C28.21 124.986 28.5784 124.917 28.9077 124.778C29.2457 124.639 29.5404 124.431 29.7917 124.154L30.4807 124.96C30.1687 125.324 29.7787 125.601 29.3107 125.792C28.8514 125.983 28.3357 126.078 27.7637 126.078ZM35.6587 126.078C34.9567 126.078 34.3283 125.926 33.7737 125.623C33.2277 125.32 32.7987 124.904 32.4867 124.375C32.1747 123.846 32.0187 123.24 32.0187 122.555C32.0187 121.87 32.1747 121.264 32.4867 120.735C32.7987 120.206 33.2277 119.795 33.7737 119.5C34.3283 119.197 34.9567 119.045 35.6587 119.045C36.2827 119.045 36.8373 119.171 37.3227 119.422C37.8167 119.665 38.198 120.029 38.4667 120.514L37.5177 121.125C37.2923 120.787 37.015 120.54 36.6857 120.384C36.365 120.219 36.0183 120.137 35.6457 120.137C35.195 120.137 34.792 120.237 34.4367 120.436C34.0813 120.635 33.7997 120.917 33.5917 121.281C33.3837 121.636 33.2797 122.061 33.2797 122.555C33.2797 123.049 33.3837 123.478 33.5917 123.842C33.7997 124.206 34.0813 124.488 34.4367 124.687C34.792 124.886 35.195 124.986 35.6457 124.986C36.0183 124.986 36.365 124.908 36.6857 124.752C37.015 124.587 37.2923 124.336 37.5177 123.998L38.4667 124.596C38.198 125.073 37.8167 125.441 37.3227 125.701C36.8373 125.952 36.2827 126.078 35.6587 126.078ZM44.3594 126V124.544L44.2944 124.271V121.788C44.2944 121.259 44.1384 120.852 43.8264 120.566C43.5231 120.271 43.0637 120.124 42.4484 120.124C42.0411 120.124 41.6424 120.193 41.2524 120.332C40.8624 120.462 40.5331 120.64 40.2644 120.865L39.7444 119.929C40.0997 119.643 40.5244 119.426 41.0184 119.279C41.5211 119.123 42.0454 119.045 42.5914 119.045C43.5361 119.045 44.2641 119.275 44.7754 119.734C45.2867 120.193 45.5424 120.895 45.5424 121.84V126H44.3594ZM42.0974 126.078C41.5861 126.078 41.1354 125.991 40.7454 125.818C40.3641 125.645 40.0694 125.406 39.8614 125.103C39.6534 124.791 39.5494 124.44 39.5494 124.05C39.5494 123.677 39.6361 123.339 39.8094 123.036C39.9914 122.733 40.2817 122.49 40.6804 122.308C41.0877 122.126 41.6337 122.035 42.3184 122.035H44.5024V122.932H42.3704C41.7464 122.932 41.3261 123.036 41.1094 123.244C40.8927 123.452 40.7844 123.703 40.7844 123.998C40.7844 124.336 40.9187 124.609 41.1874 124.817C41.4561 125.016 41.8287 125.116 42.3054 125.116C42.7734 125.116 43.1807 125.012 43.5274 124.804C43.8827 124.596 44.1384 124.293 44.2944 123.894L44.5414 124.752C44.3767 125.159 44.0864 125.484 43.6704 125.727C43.2544 125.961 42.7301 126.078 42.0974 126.078ZM47.8519 126V119.11H49.0479V120.982L48.9309 120.514C49.1216 120.037 49.4423 119.673 49.8929 119.422C50.3436 119.171 50.8983 119.045 51.5569 119.045V120.254C51.5049 120.245 51.4529 120.241 51.4009 120.241C51.3576 120.241 51.3143 120.241 51.2709 120.241C50.6036 120.241 50.0749 120.44 49.6849 120.839C49.2949 121.238 49.0999 121.814 49.0999 122.568V126H47.8519ZM56.8643 126V124.544L56.7993 124.271V121.788C56.7993 121.259 56.6433 120.852 56.3313 120.566C56.028 120.271 55.5686 120.124 54.9533 120.124C54.546 120.124 54.1473 120.193 53.7573 120.332C53.3673 120.462 53.038 120.64 52.7693 120.865L52.2493 119.929C52.6046 119.643 53.0293 119.426 53.5233 119.279C54.026 119.123 54.5503 119.045 55.0963 119.045C56.041 119.045 56.769 119.275 57.2803 119.734C57.7916 120.193 58.0473 120.895 58.0473 121.84V126H56.8643ZM54.6023 126.078C54.091 126.078 53.6403 125.991 53.2503 125.818C52.869 125.645 52.5743 125.406 52.3663 125.103C52.1583 124.791 52.0543 124.44 52.0543 124.05C52.0543 123.677 52.141 123.339 52.3143 123.036C52.4963 122.733 52.7866 122.49 53.1853 122.308C53.5926 122.126 54.1386 122.035 54.8233 122.035H57.0073V122.932H54.8753C54.2513 122.932 53.831 123.036 53.6143 123.244C53.3976 123.452 53.2893 123.703 53.2893 123.998C53.2893 124.336 53.4236 124.609 53.6923 124.817C53.961 125.016 54.3336 125.116 54.8103 125.116C55.2783 125.116 55.6856 125.012 56.0323 124.804C56.3876 124.596 56.6433 124.293 56.7993 123.894L57.0463 124.752C56.8816 125.159 56.5913 125.484 56.1753 125.727C55.7593 125.961 55.235 126.078 54.6023 126.078ZM68.125 126V124.544L68.06 124.271V121.788C68.06 121.259 67.904 120.852 67.592 120.566C67.2887 120.271 66.8294 120.124 66.214 120.124C65.8067 120.124 65.408 120.193 65.018 120.332C64.628 120.462 64.2987 120.64 64.03 120.865L63.51 119.929C63.8654 119.643 64.29 119.426 64.784 119.279C65.2867 119.123 65.811 119.045 66.357 119.045C67.3017 119.045 68.0297 119.275 68.541 119.734C69.0524 120.193 69.308 120.895 69.308 121.84V126H68.125ZM65.863 126.078C65.3517 126.078 64.901 125.991 64.511 125.818C64.1297 125.645 63.835 125.406 63.627 125.103C63.419 124.791 63.315 124.44 63.315 124.05C63.315 123.677 63.4017 123.339 63.575 123.036C63.757 122.733 64.0474 122.49 64.446 122.308C64.8534 122.126 65.3994 122.035 66.084 122.035H68.268V122.932H66.136C65.512 122.932 65.0917 123.036 64.875 123.244C64.6584 123.452 64.55 123.703 64.55 123.998C64.55 124.336 64.6844 124.609 64.953 124.817C65.2217 125.016 65.5944 125.116 66.071 125.116C66.539 125.116 66.9464 125.012 67.293 124.804C67.6484 124.596 67.904 124.293 68.06 123.894L68.307 124.752C68.1424 125.159 67.852 125.484 67.436 125.727C67.02 125.961 66.4957 126.078 65.863 126.078ZM72.6316 124.336L72.6576 122.737L76.6226 119.11H78.1306L75.0886 122.1L74.4126 122.672L72.6316 124.336ZM71.6176 126V116.354H72.8656V126H71.6176ZM76.8826 126L74.1786 122.646L74.9846 121.645L78.4166 126H76.8826ZM82.4004 126.078C81.811 126.078 81.291 125.97 80.8404 125.753C80.3984 125.536 80.0517 125.207 79.8004 124.765C79.5577 124.314 79.4364 123.751 79.4364 123.075V119.11H80.6844V122.932C80.6844 123.608 80.8447 124.115 81.1654 124.453C81.4947 124.791 81.954 124.96 82.5434 124.96C82.9767 124.96 83.3537 124.873 83.6744 124.7C83.995 124.518 84.242 124.258 84.4154 123.92C84.5887 123.573 84.6754 123.157 84.6754 122.672V119.11H85.9234V126H84.7404V124.141L84.9354 124.635C84.71 125.094 84.372 125.45 83.9214 125.701C83.4707 125.952 82.9637 126.078 82.4004 126.078ZM88.2992 126V119.11H89.4952V120.982L89.3782 120.514C89.5689 120.037 89.8895 119.673 90.3402 119.422C90.7909 119.171 91.3455 119.045 92.0042 119.045V120.254C91.9522 120.245 91.9002 120.241 91.8482 120.241C91.8049 120.241 91.7615 120.241 91.7182 120.241C91.0509 120.241 90.5222 120.44 90.1322 120.839C89.7422 121.238 89.5472 121.814 89.5472 122.568V126H88.2992ZM97.3116 126V124.544L97.2466 124.271V121.788C97.2466 121.259 97.0906 120.852 96.7786 120.566C96.4752 120.271 96.0159 120.124 95.4006 120.124C94.9932 120.124 94.5946 120.193 94.2046 120.332C93.8146 120.462 93.4852 120.64 93.2166 120.865L92.6966 119.929C93.0519 119.643 93.4766 119.426 93.9706 119.279C94.4732 119.123 94.9976 119.045 95.5436 119.045C96.4882 119.045 97.2162 119.275 97.7276 119.734C98.2389 120.193 98.4946 120.895 98.4946 121.84V126H97.3116ZM95.0496 126.078C94.5382 126.078 94.0876 125.991 93.6976 125.818C93.3162 125.645 93.0216 125.406 92.8136 125.103C92.6056 124.791 92.5016 124.44 92.5016 124.05C92.5016 123.677 92.5882 123.339 92.7616 123.036C92.9436 122.733 93.2339 122.49 93.6326 122.308C94.0399 122.126 94.5859 122.035 95.2706 122.035H97.4546V122.932H95.3226C94.6986 122.932 94.2782 123.036 94.0616 123.244C93.8449 123.452 93.7366 123.703 93.7366 123.998C93.7366 124.336 93.8709 124.609 94.1396 124.817C94.4082 125.016 94.7809 125.116 95.2576 125.116C95.7256 125.116 96.1329 125.012 96.4796 124.804C96.8349 124.596 97.0906 124.293 97.2466 123.894L97.4936 124.752C97.3289 125.159 97.0386 125.484 96.6226 125.727C96.2066 125.961 95.6822 126.078 95.0496 126.078ZM103.17 126.078C102.477 126.078 101.939 125.892 101.558 125.519C101.177 125.146 100.986 124.613 100.986 123.92V117.602H102.234V123.868C102.234 124.241 102.325 124.527 102.507 124.726C102.698 124.925 102.966 125.025 103.313 125.025C103.703 125.025 104.028 124.917 104.288 124.7L104.678 125.597C104.487 125.762 104.258 125.883 103.989 125.961C103.729 126.039 103.456 126.078 103.17 126.078ZM99.8161 120.137V119.11H104.21V120.137H99.8161ZM112.525 126.078C111.858 126.078 111.26 125.931 110.731 125.636C110.211 125.341 109.799 124.93 109.496 124.401C109.193 123.872 109.041 123.257 109.041 122.555C109.041 121.853 109.193 121.242 109.496 120.722C109.799 120.193 110.211 119.782 110.731 119.487C111.26 119.192 111.858 119.045 112.525 119.045C113.106 119.045 113.63 119.175 114.098 119.435C114.566 119.695 114.939 120.085 115.216 120.605C115.502 121.125 115.645 121.775 115.645 122.555C115.645 123.335 115.506 123.985 115.229 124.505C114.96 125.025 114.592 125.419 114.124 125.688C113.656 125.948 113.123 126.078 112.525 126.078ZM112.629 124.986C113.062 124.986 113.452 124.886 113.799 124.687C114.154 124.488 114.432 124.206 114.631 123.842C114.839 123.469 114.943 123.04 114.943 122.555C114.943 122.061 114.839 121.636 114.631 121.281C114.432 120.917 114.154 120.635 113.799 120.436C113.452 120.237 113.062 120.137 112.629 120.137C112.187 120.137 111.793 120.237 111.446 120.436C111.099 120.635 110.822 120.917 110.614 121.281C110.406 121.636 110.302 122.061 110.302 122.555C110.302 123.04 110.406 123.469 110.614 123.842C110.822 124.206 111.099 124.488 111.446 124.687C111.793 124.886 112.187 124.986 112.629 124.986ZM114.982 126V124.141L115.06 122.542L114.93 120.943V116.354H116.178V126H114.982ZM122.816 126V124.544L122.751 124.271V121.788C122.751 121.259 122.595 120.852 122.283 120.566C121.98 120.271 121.521 120.124 120.905 120.124C120.498 120.124 120.099 120.193 119.709 120.332C119.319 120.462 118.99 120.64 118.721 120.865L118.201 119.929C118.557 119.643 118.981 119.426 119.475 119.279C119.978 119.123 120.502 119.045 121.048 119.045C121.993 119.045 122.721 119.275 123.232 119.734C123.744 120.193 123.999 120.895 123.999 121.84V126H122.816ZM120.554 126.078C120.043 126.078 119.592 125.991 119.202 125.818C118.821 125.645 118.526 125.406 118.318 125.103C118.11 124.791 118.006 124.44 118.006 124.05C118.006 123.677 118.093 123.339 118.266 123.036C118.448 122.733 118.739 122.49 119.137 122.308C119.545 122.126 120.091 122.035 120.775 122.035H122.959V122.932H120.827C120.203 122.932 119.783 123.036 119.566 123.244C119.35 123.452 119.241 123.703 119.241 123.998C119.241 124.336 119.376 124.609 119.644 124.817C119.913 125.016 120.286 125.116 120.762 125.116C121.23 125.116 121.638 125.012 121.984 124.804C122.34 124.596 122.595 124.293 122.751 123.894L122.998 124.752C122.834 125.159 122.543 125.484 122.127 125.727C121.711 125.961 121.187 126.078 120.554 126.078ZM129.988 119.045C130.551 119.045 131.045 119.153 131.47 119.37C131.903 119.587 132.241 119.916 132.484 120.358C132.727 120.8 132.848 121.359 132.848 122.035V126H131.6V122.178C131.6 121.511 131.435 121.008 131.106 120.67C130.785 120.332 130.33 120.163 129.741 120.163C129.299 120.163 128.913 120.25 128.584 120.423C128.255 120.596 127.999 120.852 127.817 121.19C127.644 121.528 127.557 121.948 127.557 122.451V126H126.309V119.11H127.505V120.969L127.31 120.475C127.535 120.024 127.882 119.673 128.35 119.422C128.818 119.171 129.364 119.045 129.988 119.045ZM141.652 126.078C140.95 126.078 140.321 125.926 139.767 125.623C139.221 125.32 138.792 124.904 138.48 124.375C138.168 123.846 138.012 123.24 138.012 122.555C138.012 121.87 138.168 121.264 138.48 120.735C138.792 120.206 139.221 119.795 139.767 119.5C140.321 119.197 140.95 119.045 141.652 119.045C142.276 119.045 142.83 119.171 143.316 119.422C143.81 119.665 144.191 120.029 144.46 120.514L143.511 121.125C143.285 120.787 143.008 120.54 142.679 120.384C142.358 120.219 142.011 120.137 141.639 120.137C141.188 120.137 140.785 120.237 140.43 120.436C140.074 120.635 139.793 120.917 139.585 121.281C139.377 121.636 139.273 122.061 139.273 122.555C139.273 123.049 139.377 123.478 139.585 123.842C139.793 124.206 140.074 124.488 140.43 124.687C140.785 124.886 141.188 124.986 141.639 124.986C142.011 124.986 142.358 124.908 142.679 124.752C143.008 124.587 143.285 124.336 143.511 123.998L144.46 124.596C144.191 125.073 143.81 125.441 143.316 125.701C142.83 125.952 142.276 126.078 141.652 126.078ZM149.042 126.078C148.305 126.078 147.655 125.926 147.092 125.623C146.537 125.32 146.104 124.904 145.792 124.375C145.489 123.846 145.337 123.24 145.337 122.555C145.337 121.87 145.484 121.264 145.779 120.735C146.082 120.206 146.494 119.795 147.014 119.5C147.543 119.197 148.136 119.045 148.795 119.045C149.462 119.045 150.052 119.192 150.563 119.487C151.074 119.782 151.473 120.198 151.759 120.735C152.054 121.264 152.201 121.883 152.201 122.594C152.201 122.646 152.197 122.707 152.188 122.776C152.188 122.845 152.184 122.91 152.175 122.971H146.312V122.074H151.525L151.018 122.386C151.027 121.944 150.936 121.55 150.745 121.203C150.554 120.856 150.29 120.588 149.952 120.397C149.623 120.198 149.237 120.098 148.795 120.098C148.362 120.098 147.976 120.198 147.638 120.397C147.3 120.588 147.036 120.861 146.845 121.216C146.654 121.563 146.559 121.961 146.559 122.412V122.62C146.559 123.079 146.663 123.491 146.871 123.855C147.088 124.21 147.387 124.488 147.768 124.687C148.149 124.886 148.587 124.986 149.081 124.986C149.488 124.986 149.857 124.917 150.186 124.778C150.524 124.639 150.819 124.431 151.07 124.154L151.759 124.96C151.447 125.324 151.057 125.601 150.589 125.792C150.13 125.983 149.614 126.078 149.042 126.078ZM157.587 126.078C157.015 126.078 156.491 125.948 156.014 125.688C155.546 125.419 155.169 125.025 154.883 124.505C154.606 123.985 154.467 123.335 154.467 122.555C154.467 121.775 154.601 121.125 154.87 120.605C155.147 120.085 155.52 119.695 155.988 119.435C156.465 119.175 156.998 119.045 157.587 119.045C158.263 119.045 158.861 119.192 159.381 119.487C159.901 119.782 160.313 120.193 160.616 120.722C160.919 121.242 161.071 121.853 161.071 122.555C161.071 123.257 160.919 123.872 160.616 124.401C160.313 124.93 159.901 125.341 159.381 125.636C158.861 125.931 158.263 126.078 157.587 126.078ZM153.934 128.522V119.11H155.13V120.969L155.052 122.568L155.182 124.167V128.522H153.934ZM157.483 124.986C157.925 124.986 158.319 124.886 158.666 124.687C159.021 124.488 159.299 124.206 159.498 123.842C159.706 123.469 159.81 123.04 159.81 122.555C159.81 122.061 159.706 121.636 159.498 121.281C159.299 120.917 159.021 120.635 158.666 120.436C158.319 120.237 157.925 120.137 157.483 120.137C157.05 120.137 156.655 120.237 156.3 120.436C155.953 120.635 155.676 120.917 155.468 121.281C155.269 121.636 155.169 122.061 155.169 122.555C155.169 123.04 155.269 123.469 155.468 123.842C155.676 124.206 155.953 124.488 156.3 124.687C156.655 124.886 157.05 124.986 157.483 124.986ZM167.009 126V124.544L166.944 124.271V121.788C166.944 121.259 166.788 120.852 166.476 120.566C166.172 120.271 165.713 120.124 165.098 120.124C164.69 120.124 164.292 120.193 163.902 120.332C163.512 120.462 163.182 120.64 162.914 120.865L162.394 119.929C162.749 119.643 163.174 119.426 163.668 119.279C164.17 119.123 164.695 119.045 165.241 119.045C166.185 119.045 166.913 119.275 167.425 119.734C167.936 120.193 168.192 120.895 168.192 121.84V126H167.009ZM164.747 126.078C164.235 126.078 163.785 125.991 163.395 125.818C163.013 125.645 162.719 125.406 162.511 125.103C162.303 124.791 162.199 124.44 162.199 124.05C162.199 123.677 162.285 123.339 162.459 123.036C162.641 122.733 162.931 122.49 163.33 122.308C163.737 122.126 164.283 122.035 164.968 122.035H167.152V122.932H165.02C164.396 122.932 163.975 123.036 163.759 123.244C163.542 123.452 163.434 123.703 163.434 123.998C163.434 124.336 163.568 124.609 163.837 124.817C164.105 125.016 164.478 125.116 164.955 125.116C165.423 125.116 165.83 125.012 166.177 124.804C166.532 124.596 166.788 124.293 166.944 123.894L167.191 124.752C167.026 125.159 166.736 125.484 166.32 125.727C165.904 125.961 165.379 126.078 164.747 126.078ZM172.867 126.078C172.174 126.078 171.637 125.892 171.255 125.519C170.874 125.146 170.683 124.613 170.683 123.92V117.602H171.931V123.868C171.931 124.241 172.022 124.527 172.204 124.726C172.395 124.925 172.664 125.025 173.01 125.025C173.4 125.025 173.725 124.917 173.985 124.7L174.375 125.597C174.185 125.762 173.955 125.883 173.686 125.961C173.426 126.039 173.153 126.078 172.867 126.078ZM169.513 120.137V119.11H173.907V120.137H169.513ZM176.31 126.078C176.067 126.078 175.859 125.996 175.686 125.831C175.513 125.658 175.426 125.441 175.426 125.181C175.426 124.921 175.513 124.709 175.686 124.544C175.859 124.379 176.067 124.297 176.31 124.297C176.544 124.297 176.743 124.379 176.908 124.544C177.081 124.709 177.168 124.921 177.168 125.181C177.168 125.441 177.081 125.658 176.908 125.831C176.743 125.996 176.544 126.078 176.31 126.078Z" fill="white" fill-opacity="0.8"/>
<circle cx="37" cy="36" r="20" fill="white" fill-opacity="0.1"/>
<path d="M44.965 32.521C44.988 32.347 45 32.173 45 32C45 29.621 42.857 27.712 40.479 28.035C39.786 26.802 38.466 26 37 26C35.534 26 34.214 26.802 33.521 28.035C31.138 27.712 29 29.621 29 32C29 32.173 29.012 32.347 29.035 32.521C27.802 33.215 27 34.535 27 36C27 37.465 27.802 38.785 29.035 39.479C29.0119 39.6517 29.0002 39.8258 29 40C29 42.379 31.138 44.283 33.521 43.965C34.214 45.198 35.534 46 37 46C38.466 46 39.786 45.198 40.479 43.965C42.857 44.283 45 42.379 45 40C45 39.827 44.988 39.653 44.965 39.479C46.198 38.785 47 37.465 47 36C47 34.535 46.198 33.215 44.965 32.521ZM35.955 40.416L32.288 36.702L33.712 35.298L35.969 37.584L40.296 33.29L41.704 34.71L35.955 40.416Z" fill="white" fill-opacity="0.5"/>
</svg>
