<svg width="300" height="160" viewBox="0 0 300 160" fill="none" xmlns="http://www.w3.org/2000/svg">
<rect width="300" height="160" rx="10" fill="#0C0E12"/>
<rect x="1" y="1" width="298" height="158" rx="9" stroke="white" stroke-opacity="0.07" stroke-width="2"/>
<path d="M73.88 43V29H76.02L82.14 39.22H81.02L87.04 29H89.18L89.2 43H86.74L86.72 32.86H87.24L82.12 41.4H80.96L75.76 32.86H76.36V43H73.88ZM97.2616 43.14C96.3549 43.14 95.5549 42.9733 94.8616 42.64C94.1682 42.2933 93.6282 41.7733 93.2416 41.08C92.8549 40.3733 92.6616 39.4867 92.6616 38.42V32.32H95.1616V38.08C95.1616 39.04 95.3749 39.76 95.8016 40.24C96.2416 40.7067 96.8616 40.94 97.6616 40.94C98.2482 40.94 98.7549 40.82 99.1816 40.58C99.6216 40.34 99.9616 39.98 100.202 39.5C100.455 39.02 100.582 38.4267 100.582 37.72V32.32H103.082V43H100.702V40.12L101.122 41C100.762 41.6933 100.235 42.2267 99.5416 42.6C98.8482 42.96 98.0882 43.14 97.2616 43.14ZM110.875 43.14C109.848 43.14 108.922 42.9133 108.095 42.46C107.282 41.9933 106.642 41.3533 106.175 40.54C105.708 39.7267 105.475 38.7667 105.475 37.66C105.475 36.5533 105.708 35.5933 106.175 34.78C106.642 33.9667 107.282 33.3333 108.095 32.88C108.922 32.4267 109.848 32.2 110.875 32.2C111.768 32.2 112.568 32.4 113.275 32.8C113.982 33.1867 114.542 33.78 114.955 34.58C115.368 35.38 115.575 36.4067 115.575 37.66C115.575 38.9 115.375 39.9267 114.975 40.74C114.575 41.54 114.022 42.14 113.315 42.54C112.608 42.94 111.795 43.14 110.875 43.14ZM111.175 41C111.775 41 112.308 40.8667 112.775 40.6C113.255 40.3333 113.635 39.9467 113.915 39.44C114.208 38.9333 114.355 38.34 114.355 37.66C114.355 36.9667 114.208 36.3733 113.915 35.88C113.635 35.3733 113.255 34.9867 112.775 34.72C112.308 34.4533 111.775 34.32 111.175 34.32C110.575 34.32 110.035 34.4533 109.555 34.72C109.088 34.9867 108.708 35.3733 108.415 35.88C108.135 36.3733 107.995 36.9667 107.995 37.66C107.995 38.34 108.135 38.9333 108.415 39.44C108.708 39.9467 109.088 40.3333 109.555 40.6C110.035 40.8667 110.575 41 111.175 41ZM114.415 43V40.48L114.515 37.64L114.315 34.8V28.16H116.795V43H114.415ZM126.665 43V40.84L126.525 40.38V36.6C126.525 35.8667 126.305 35.3 125.865 34.9C125.425 34.4867 124.759 34.28 123.865 34.28C123.265 34.28 122.672 34.3733 122.085 34.56C121.512 34.7467 121.025 35.0067 120.625 35.34L119.645 33.52C120.219 33.08 120.899 32.7533 121.685 32.54C122.485 32.3133 123.312 32.2 124.165 32.2C125.712 32.2 126.905 32.5733 127.745 33.32C128.599 34.0533 129.025 35.1933 129.025 36.74V43H126.665ZM123.305 43.14C122.505 43.14 121.805 43.0067 121.205 42.74C120.605 42.46 120.139 42.08 119.805 41.6C119.485 41.1067 119.325 40.5533 119.325 39.94C119.325 39.34 119.465 38.8 119.745 38.32C120.039 37.84 120.512 37.46 121.165 37.18C121.819 36.9 122.685 36.76 123.765 36.76H126.865V38.42H123.945C123.092 38.42 122.519 38.56 122.225 38.84C121.932 39.1067 121.785 39.44 121.785 39.84C121.785 40.2933 121.965 40.6533 122.325 40.92C122.685 41.1867 123.185 41.32 123.825 41.32C124.439 41.32 124.985 41.18 125.465 40.9C125.959 40.62 126.312 40.2067 126.525 39.66L126.945 41.16C126.705 41.7867 126.272 42.2733 125.645 42.62C125.032 42.9667 124.252 43.14 123.305 43.14ZM138.294 32.2C139.147 32.2 139.907 32.3667 140.574 32.7C141.254 33.0333 141.787 33.5467 142.174 34.24C142.56 34.92 142.754 35.8 142.754 36.88V43H140.254V37.2C140.254 36.2533 140.027 35.5467 139.574 35.08C139.134 34.6133 138.514 34.38 137.714 34.38C137.127 34.38 136.607 34.5 136.154 34.74C135.7 34.98 135.347 35.34 135.094 35.82C134.854 36.2867 134.734 36.88 134.734 37.6V43H132.234V28.16H134.734V35.2L134.194 34.32C134.567 33.64 135.107 33.12 135.814 32.76C136.534 32.3867 137.36 32.2 138.294 32.2ZM151.693 43V29H157.813C159.333 29 160.666 29.2933 161.813 29.88C162.959 30.4667 163.853 31.28 164.493 32.32C165.133 33.36 165.453 34.5867 165.453 36C165.453 37.4 165.133 38.6267 164.493 39.68C163.853 40.72 162.959 41.5333 161.813 42.12C160.666 42.7067 159.333 43 157.813 43H151.693ZM154.293 40.8H157.693C158.746 40.8 159.653 40.6 160.413 40.2C161.186 39.8 161.779 39.24 162.193 38.52C162.619 37.8 162.833 36.96 162.833 36C162.833 35.0267 162.619 34.1867 162.193 33.48C161.779 32.76 161.186 32.2 160.413 31.8C159.653 31.4 158.746 31.2 157.693 31.2H154.293V40.8ZM167.976 43V32.32H170.476V43H167.976ZM169.236 30.56C168.769 30.56 168.383 30.4133 168.076 30.12C167.783 29.8267 167.636 29.4733 167.636 29.06C167.636 28.6333 167.783 28.28 168.076 28C168.383 27.7067 168.769 27.56 169.236 27.56C169.703 27.56 170.083 27.7 170.376 27.98C170.683 28.2467 170.836 28.5867 170.836 29C170.836 29.44 170.689 29.8133 170.396 30.12C170.103 30.4133 169.716 30.56 169.236 30.56ZM178.597 47.02C177.611 47.02 176.644 46.8867 175.697 46.62C174.764 46.3667 173.997 45.9933 173.397 45.5L174.517 43.62C174.984 44.0067 175.571 44.3133 176.277 44.54C176.997 44.78 177.724 44.9 178.457 44.9C179.631 44.9 180.491 44.6267 181.037 44.08C181.584 43.5467 181.857 42.74 181.857 41.66V39.76L182.057 37.34L181.977 34.92V32.32H184.357V41.38C184.357 43.3133 183.864 44.7333 182.877 45.64C181.891 46.56 180.464 47.02 178.597 47.02ZM178.277 42.52C177.264 42.52 176.344 42.3067 175.517 41.88C174.704 41.44 174.057 40.8333 173.577 40.06C173.111 39.2867 172.877 38.38 172.877 37.34C172.877 36.3133 173.111 35.4133 173.577 34.64C174.057 33.8667 174.704 33.2667 175.517 32.84C176.344 32.4133 177.264 32.2 178.277 32.2C179.184 32.2 179.997 32.38 180.717 32.74C181.437 33.1 182.011 33.66 182.437 34.42C182.877 35.18 183.097 36.1533 183.097 37.34C183.097 38.5267 182.877 39.5067 182.437 40.28C182.011 41.04 181.437 41.6067 180.717 41.98C179.997 42.34 179.184 42.52 178.277 42.52ZM178.657 40.4C179.284 40.4 179.844 40.2733 180.337 40.02C180.831 39.7533 181.211 39.3933 181.477 38.94C181.757 38.4733 181.897 37.94 181.897 37.34C181.897 36.74 181.757 36.2133 181.477 35.76C181.211 35.2933 180.831 34.94 180.337 34.7C179.844 34.4467 179.284 34.32 178.657 34.32C178.031 34.32 177.464 34.4467 176.957 34.7C176.464 34.94 176.077 35.2933 175.797 35.76C175.531 36.2133 175.397 36.74 175.397 37.34C175.397 37.94 175.531 38.4733 175.797 38.94C176.077 39.3933 176.464 39.7533 176.957 40.02C177.464 40.2733 178.031 40.4 178.657 40.4ZM192.164 43.14C191.257 43.14 190.457 42.9733 189.764 42.64C189.071 42.2933 188.531 41.7733 188.144 41.08C187.757 40.3733 187.564 39.4867 187.564 38.42V32.32H190.064V38.08C190.064 39.04 190.277 39.76 190.704 40.24C191.144 40.7067 191.764 40.94 192.564 40.94C193.151 40.94 193.657 40.82 194.084 40.58C194.524 40.34 194.864 39.98 195.104 39.5C195.357 39.02 195.484 38.4267 195.484 37.72V32.32H197.984V43H195.604V40.12L196.024 41C195.664 41.6933 195.137 42.2267 194.444 42.6C193.751 42.96 192.991 43.14 192.164 43.14ZM207.317 32.2C208.171 32.2 208.931 32.3667 209.597 32.7C210.277 33.0333 210.811 33.5467 211.197 34.24C211.584 34.92 211.777 35.8 211.777 36.88V43H209.277V37.2C209.277 36.2533 209.051 35.5467 208.597 35.08C208.157 34.6133 207.537 34.38 206.737 34.38C206.151 34.38 205.631 34.5 205.177 34.74C204.724 34.98 204.371 35.34 204.117 35.82C203.877 36.2867 203.757 36.88 203.757 37.6V43H201.257V32.32H203.637V35.2L203.217 34.32C203.591 33.64 204.131 33.12 204.837 32.76C205.557 32.3867 206.384 32.2 207.317 32.2ZM221.529 43V40.84L221.389 40.38V36.6C221.389 35.8667 221.169 35.3 220.729 34.9C220.289 34.4867 219.622 34.28 218.729 34.28C218.129 34.28 217.535 34.3733 216.949 34.56C216.375 34.7467 215.889 35.0067 215.489 35.34L214.509 33.52C215.082 33.08 215.762 32.7533 216.549 32.54C217.349 32.3133 218.175 32.2 219.029 32.2C220.575 32.2 221.769 32.5733 222.609 33.32C223.462 34.0533 223.889 35.1933 223.889 36.74V43H221.529ZM218.169 43.14C217.369 43.14 216.669 43.0067 216.069 42.74C215.469 42.46 215.002 42.08 214.669 41.6C214.349 41.1067 214.189 40.5533 214.189 39.94C214.189 39.34 214.329 38.8 214.609 38.32C214.902 37.84 215.375 37.46 216.029 37.18C216.682 36.9 217.549 36.76 218.629 36.76H221.729V38.42H218.809C217.955 38.42 217.382 38.56 217.089 38.84C216.795 39.1067 216.649 39.44 216.649 39.84C216.649 40.2933 216.829 40.6533 217.189 40.92C217.549 41.1867 218.049 41.32 218.689 41.32C219.302 41.32 219.849 41.18 220.329 40.9C220.822 40.62 221.175 40.2067 221.389 39.66L221.809 41.16C221.569 41.7867 221.135 42.2733 220.509 42.62C219.895 42.9667 219.115 43.14 218.169 43.14ZM229.137 40.62L229.197 37.48L234.777 32.32H237.777L233.037 37.08L231.717 38.18L229.137 40.62ZM227.097 43V28.16H229.597V43H227.097ZM235.157 43L231.257 38.18L232.837 36.18L238.197 43H235.157ZM246.197 43V40.84L246.057 40.38V36.6C246.057 35.8667 245.837 35.3 245.397 34.9C244.957 34.4867 244.29 34.28 243.397 34.28C242.797 34.28 242.203 34.3733 241.617 34.56C241.043 34.7467 240.557 35.0067 240.157 35.34L239.177 33.52C239.75 33.08 240.43 32.7533 241.217 32.54C242.017 32.3133 242.843 32.2 243.697 32.2C245.243 32.2 246.437 32.5733 247.277 33.32C248.13 34.0533 248.557 35.1933 248.557 36.74V43H246.197ZM242.837 43.14C242.037 43.14 241.337 43.0067 240.737 42.74C240.137 42.46 239.67 42.08 239.337 41.6C239.017 41.1067 238.857 40.5533 238.857 39.94C238.857 39.34 238.997 38.8 239.277 38.32C239.57 37.84 240.043 37.46 240.697 37.18C241.35 36.9 242.217 36.76 243.297 36.76H246.397V38.42H243.477C242.623 38.42 242.05 38.56 241.757 38.84C241.463 39.1067 241.317 39.44 241.317 39.84C241.317 40.2933 241.497 40.6533 241.857 40.92C242.217 41.1867 242.717 41.32 243.357 41.32C243.97 41.32 244.517 41.18 244.997 40.9C245.49 40.62 245.843 40.2067 246.057 39.66L246.477 41.16C246.237 41.7867 245.803 42.2733 245.177 42.62C244.563 42.9667 243.783 43.14 242.837 43.14ZM257.825 32.2C258.678 32.2 259.438 32.3667 260.105 32.7C260.785 33.0333 261.318 33.5467 261.705 34.24C262.092 34.92 262.285 35.8 262.285 36.88V43H259.785V37.2C259.785 36.2533 259.558 35.5467 259.105 35.08C258.665 34.6133 258.045 34.38 257.245 34.38C256.658 34.38 256.138 34.5 255.685 34.74C255.232 34.98 254.878 35.34 254.625 35.82C254.385 36.2867 254.265 36.88 254.265 37.6V43H251.765V32.32H254.145V35.2L253.725 34.32C254.098 33.64 254.638 33.12 255.345 32.76C256.065 32.3867 256.892 32.2 257.825 32.2Z" fill="white"/>
<path d="M21.017 84.104C20.3237 84.104 19.6607 84 19.028 83.792C18.3953 83.5753 17.897 83.298 17.533 82.96L18.014 81.946C18.3607 82.2493 18.8027 82.5007 19.34 82.7C19.8773 82.8993 20.4363 82.999 21.017 82.999C21.5457 82.999 21.9747 82.9383 22.304 82.817C22.6333 82.6957 22.876 82.531 23.032 82.323C23.188 82.1063 23.266 81.8637 23.266 81.595C23.266 81.283 23.162 81.0317 22.954 80.841C22.7547 80.6503 22.4903 80.4987 22.161 80.386C21.8403 80.2647 21.485 80.1607 21.095 80.074C20.705 79.9873 20.3107 79.8877 19.912 79.775C19.522 79.6537 19.1623 79.502 18.833 79.32C18.5123 79.138 18.2523 78.8953 18.053 78.592C17.8537 78.28 17.754 77.8813 17.754 77.396C17.754 76.928 17.8753 76.499 18.118 76.109C18.3693 75.7103 18.7507 75.394 19.262 75.16C19.782 74.9173 20.4407 74.796 21.238 74.796C21.7667 74.796 22.291 74.8653 22.811 75.004C23.331 75.1427 23.7817 75.342 24.163 75.602L23.734 76.642C23.344 76.382 22.9323 76.1957 22.499 76.083C22.0657 75.9617 21.6453 75.901 21.238 75.901C20.7267 75.901 20.3063 75.966 19.977 76.096C19.6477 76.226 19.405 76.3993 19.249 76.616C19.1017 76.8327 19.028 77.0753 19.028 77.344C19.028 77.6647 19.1277 77.9203 19.327 78.111C19.535 78.3017 19.7993 78.4533 20.12 78.566C20.4493 78.6787 20.809 78.7827 21.199 78.878C21.589 78.9647 21.979 79.0643 22.369 79.177C22.7677 79.2897 23.1273 79.437 23.448 79.619C23.7773 79.801 24.0417 80.0437 24.241 80.347C24.4403 80.6503 24.54 81.0403 24.54 81.517C24.54 81.9763 24.4143 82.4053 24.163 82.804C23.9117 83.194 23.5217 83.5103 22.993 83.753C22.473 83.987 21.8143 84.104 21.017 84.104ZM29.3252 84.078C28.5886 84.078 27.9386 83.9263 27.3752 83.623C26.8206 83.3197 26.3872 82.9037 26.0752 82.375C25.7719 81.8463 25.6202 81.2397 25.6202 80.555C25.6202 79.8703 25.7676 79.2637 26.0622 78.735C26.3656 78.2063 26.7772 77.7947 27.2972 77.5C27.8259 77.1967 28.4196 77.045 29.0782 77.045C29.7456 77.045 30.3349 77.1923 30.8462 77.487C31.3576 77.7817 31.7562 78.1977 32.0422 78.735C32.3369 79.2637 32.4842 79.8833 32.4842 80.594C32.4842 80.646 32.4799 80.7067 32.4712 80.776C32.4712 80.8453 32.4669 80.9103 32.4582 80.971H26.5952V80.074H31.8082L31.3012 80.386C31.3099 79.944 31.2189 79.5497 31.0282 79.203C30.8376 78.8563 30.5732 78.5877 30.2352 78.397C29.9059 78.1977 29.5202 78.098 29.0782 78.098C28.6449 78.098 28.2592 78.1977 27.9212 78.397C27.5832 78.5877 27.3189 78.8607 27.1282 79.216C26.9376 79.5627 26.8422 79.9613 26.8422 80.412V80.62C26.8422 81.0793 26.9462 81.491 27.1542 81.855C27.3709 82.2103 27.6699 82.4877 28.0512 82.687C28.4326 82.8863 28.8702 82.986 29.3642 82.986C29.7716 82.986 30.1399 82.9167 30.4692 82.778C30.8072 82.6393 31.1019 82.4313 31.3532 82.154L32.0422 82.96C31.7302 83.324 31.3402 83.6013 30.8722 83.792C30.4129 83.9827 29.8972 84.078 29.3252 84.078ZM37.8962 77.045C38.4595 77.045 38.9535 77.1533 39.3782 77.37C39.8115 77.5867 40.1495 77.916 40.3922 78.358C40.6348 78.8 40.7562 79.359 40.7562 80.035V84H39.5082V80.178C39.5082 79.5107 39.3435 79.008 39.0142 78.67C38.6935 78.332 38.2385 78.163 37.6492 78.163C37.2072 78.163 36.8215 78.2497 36.4922 78.423C36.1628 78.5963 35.9072 78.852 35.7252 79.19C35.5518 79.528 35.4652 79.9483 35.4652 80.451V84H34.2172V77.11H35.4132V78.969L35.2182 78.475C35.4435 78.0243 35.7902 77.6733 36.2582 77.422C36.7262 77.1707 37.2722 77.045 37.8962 77.045ZM45.4318 84.078C44.7385 84.078 44.2011 83.8917 43.8198 83.519C43.4385 83.1463 43.2478 82.6133 43.2478 81.92V75.602H44.4958V81.868C44.4958 82.2407 44.5868 82.5267 44.7688 82.726C44.9595 82.9253 45.2281 83.025 45.5748 83.025C45.9648 83.025 46.2898 82.9167 46.5498 82.7L46.9398 83.597C46.7491 83.7617 46.5195 83.883 46.2508 83.961C45.9908 84.039 45.7178 84.078 45.4318 84.078ZM42.0778 78.137V77.11H46.4718V78.137H42.0778ZM48.4486 84V77.11H49.6446V78.982L49.5276 78.514C49.7183 78.0373 50.039 77.6733 50.4896 77.422C50.9403 77.1707 51.495 77.045 52.1536 77.045V78.254C52.1016 78.2453 52.0496 78.241 51.9976 78.241C51.9543 78.241 51.911 78.241 51.8676 78.241C51.2003 78.241 50.6716 78.4403 50.2816 78.839C49.8916 79.2377 49.6966 79.814 49.6966 80.568V84H48.4486ZM57.461 84V82.544L57.396 82.271V79.788C57.396 79.2593 57.24 78.852 56.928 78.566C56.6246 78.2713 56.1653 78.124 55.55 78.124C55.1426 78.124 54.744 78.1933 54.354 78.332C53.964 78.462 53.6346 78.6397 53.366 78.865L52.846 77.929C53.2013 77.643 53.626 77.4263 54.12 77.279C54.6226 77.123 55.147 77.045 55.693 77.045C56.6376 77.045 57.3656 77.2747 57.877 77.734C58.3883 78.1933 58.644 78.8953 58.644 79.84V84H57.461ZM55.199 84.078C54.6876 84.078 54.237 83.9913 53.847 83.818C53.4656 83.6447 53.171 83.4063 52.963 83.103C52.755 82.791 52.651 82.44 52.651 82.05C52.651 81.6773 52.7376 81.3393 52.911 81.036C53.093 80.7327 53.3833 80.49 53.782 80.308C54.1893 80.126 54.7353 80.035 55.42 80.035H57.604V80.932H55.472C54.848 80.932 54.4276 81.036 54.211 81.244C53.9943 81.452 53.886 81.7033 53.886 81.998C53.886 82.336 54.0203 82.609 54.289 82.817C54.5576 83.0163 54.9303 83.116 55.407 83.116C55.875 83.116 56.2823 83.012 56.629 82.804C56.9843 82.596 57.24 82.2927 57.396 81.894L57.643 82.752C57.4783 83.1593 57.188 83.4843 56.772 83.727C56.356 83.961 55.8316 84.078 55.199 84.078ZM64.6267 84V74.9H68.4617C69.4324 74.9 70.2861 75.0907 71.0227 75.472C71.7681 75.8533 72.3444 76.3863 72.7517 77.071C73.1677 77.7557 73.3757 78.5487 73.3757 79.45C73.3757 80.3513 73.1677 81.1443 72.7517 81.829C72.3444 82.5137 71.7681 83.0467 71.0227 83.428C70.2861 83.8093 69.4324 84 68.4617 84H64.6267ZM65.9267 82.869H68.3837C69.1377 82.869 69.7877 82.726 70.3337 82.44C70.8884 82.154 71.3174 81.7553 71.6207 81.244C71.9241 80.724 72.0757 80.126 72.0757 79.45C72.0757 78.7653 71.9241 78.1673 71.6207 77.656C71.3174 77.1447 70.8884 76.746 70.3337 76.46C69.7877 76.174 69.1377 76.031 68.3837 76.031H65.9267V82.869ZM79.462 84V82.544L79.397 82.271V79.788C79.397 79.2593 79.241 78.852 78.929 78.566C78.6256 78.2713 78.1663 78.124 77.551 78.124C77.1436 78.124 76.745 78.1933 76.355 78.332C75.965 78.462 75.6356 78.6397 75.367 78.865L74.847 77.929C75.2023 77.643 75.627 77.4263 76.121 77.279C76.6236 77.123 77.148 77.045 77.694 77.045C78.6386 77.045 79.3666 77.2747 79.878 77.734C80.3893 78.1933 80.645 78.8953 80.645 79.84V84H79.462ZM77.2 84.078C76.6886 84.078 76.238 83.9913 75.848 83.818C75.4666 83.6447 75.172 83.4063 74.964 83.103C74.756 82.791 74.652 82.44 74.652 82.05C74.652 81.6773 74.7386 81.3393 74.912 81.036C75.094 80.7327 75.3843 80.49 75.783 80.308C76.1903 80.126 76.7363 80.035 77.421 80.035H79.605V80.932H77.473C76.849 80.932 76.4286 81.036 76.212 81.244C75.9953 81.452 75.887 81.7033 75.887 81.998C75.887 82.336 76.0213 82.609 76.29 82.817C76.5586 83.0163 76.9313 83.116 77.408 83.116C77.876 83.116 78.2833 83.012 78.63 82.804C78.9853 82.596 79.241 82.2927 79.397 81.894L79.644 82.752C79.4793 83.1593 79.189 83.4843 78.773 83.727C78.357 83.961 77.8326 84.078 77.2 84.078ZM82.9545 84V77.11H84.1505V78.982L84.0335 78.514C84.2242 78.0373 84.5448 77.6733 84.9955 77.422C85.4462 77.1707 86.0008 77.045 86.6595 77.045V78.254C86.6075 78.2453 86.5555 78.241 86.5035 78.241C86.4602 78.241 86.4168 78.241 86.3735 78.241C85.7062 78.241 85.1775 78.4403 84.7875 78.839C84.3975 79.2377 84.2025 79.814 84.2025 80.568V84H82.9545ZM91.1855 84.078C90.5962 84.078 90.0762 83.9697 89.6255 83.753C89.1835 83.5363 88.8368 83.207 88.5855 82.765C88.3428 82.3143 88.2215 81.751 88.2215 81.075V77.11H89.4695V80.932C89.4695 81.608 89.6298 82.115 89.9505 82.453C90.2798 82.791 90.7392 82.96 91.3285 82.96C91.7618 82.96 92.1388 82.8733 92.4595 82.7C92.7802 82.518 93.0272 82.258 93.2005 81.92C93.3738 81.5733 93.4605 81.1573 93.4605 80.672V77.11H94.7085V84H93.5255V82.141L93.7205 82.635C93.4952 83.0943 93.1572 83.4497 92.7065 83.701C92.2558 83.9523 91.7488 84.078 91.1855 84.078ZM97.0844 84V77.11H98.2804V78.982L98.1634 78.514C98.354 78.0373 98.6747 77.6733 99.1254 77.422C99.576 77.1707 100.131 77.045 100.789 77.045V78.254C100.737 78.2453 100.685 78.241 100.633 78.241C100.59 78.241 100.547 78.241 100.503 78.241C99.836 78.241 99.3074 78.4403 98.9174 78.839C98.5274 79.2377 98.3324 79.814 98.3324 80.568V84H97.0844ZM106.097 84V82.544L106.032 82.271V79.788C106.032 79.2593 105.876 78.852 105.564 78.566C105.26 78.2713 104.801 78.124 104.186 78.124C103.778 78.124 103.38 78.1933 102.99 78.332C102.6 78.462 102.27 78.6397 102.002 78.865L101.482 77.929C101.837 77.643 102.262 77.4263 102.756 77.279C103.258 77.123 103.783 77.045 104.329 77.045C105.273 77.045 106.001 77.2747 106.513 77.734C107.024 78.1933 107.28 78.8953 107.28 79.84V84H106.097ZM103.835 84.078C103.323 84.078 102.873 83.9913 102.483 83.818C102.101 83.6447 101.807 83.4063 101.599 83.103C101.391 82.791 101.287 82.44 101.287 82.05C101.287 81.6773 101.373 81.3393 101.547 81.036C101.729 80.7327 102.019 80.49 102.418 80.308C102.825 80.126 103.371 80.035 104.056 80.035H106.24V80.932H104.108C103.484 80.932 103.063 81.036 102.847 81.244C102.63 81.452 102.522 81.7033 102.522 81.998C102.522 82.336 102.656 82.609 102.925 82.817C103.193 83.0163 103.566 83.116 104.043 83.116C104.511 83.116 104.918 83.012 105.265 82.804C105.62 82.596 105.876 82.2927 106.032 81.894L106.279 82.752C106.114 83.1593 105.824 83.4843 105.408 83.727C104.992 83.961 104.467 84.078 103.835 84.078ZM111.955 84.078C111.262 84.078 110.725 83.8917 110.343 83.519C109.962 83.1463 109.771 82.6133 109.771 81.92V75.602H111.019V81.868C111.019 82.2407 111.11 82.5267 111.292 82.726C111.483 82.9253 111.752 83.025 112.098 83.025C112.488 83.025 112.813 82.9167 113.073 82.7L113.463 83.597C113.273 83.7617 113.043 83.883 112.774 83.961C112.514 84.039 112.241 84.078 111.955 84.078ZM108.601 78.137V77.11H112.995V78.137H108.601ZM121.31 84.078C120.643 84.078 120.045 83.9307 119.516 83.636C118.996 83.3413 118.585 82.9297 118.281 82.401C117.978 81.8723 117.826 81.257 117.826 80.555C117.826 79.853 117.978 79.242 118.281 78.722C118.585 78.1933 118.996 77.7817 119.516 77.487C120.045 77.1923 120.643 77.045 121.31 77.045C121.891 77.045 122.415 77.175 122.883 77.435C123.351 77.695 123.724 78.085 124.001 78.605C124.287 79.125 124.43 79.775 124.43 80.555C124.43 81.335 124.292 81.985 124.014 82.505C123.746 83.025 123.377 83.4193 122.909 83.688C122.441 83.948 121.908 84.078 121.31 84.078ZM121.414 82.986C121.848 82.986 122.238 82.8863 122.584 82.687C122.94 82.4877 123.217 82.206 123.416 81.842C123.624 81.4693 123.728 81.0403 123.728 80.555C123.728 80.061 123.624 79.6363 123.416 79.281C123.217 78.917 122.94 78.6353 122.584 78.436C122.238 78.2367 121.848 78.137 121.414 78.137C120.972 78.137 120.578 78.2367 120.231 78.436C119.885 78.6353 119.607 78.917 119.399 79.281C119.191 79.6363 119.087 80.061 119.087 80.555C119.087 81.0403 119.191 81.4693 119.399 81.842C119.607 82.206 119.885 82.4877 120.231 82.687C120.578 82.8863 120.972 82.986 121.414 82.986ZM123.767 84V82.141L123.845 80.542L123.715 78.943V74.354H124.963V84H123.767ZM127.325 84V77.11H128.573V84H127.325ZM127.949 75.784C127.706 75.784 127.502 75.706 127.338 75.55C127.182 75.394 127.104 75.2033 127.104 74.978C127.104 74.744 127.182 74.549 127.338 74.393C127.502 74.237 127.706 74.159 127.949 74.159C128.191 74.159 128.391 74.237 128.547 74.393C128.711 74.5403 128.794 74.7267 128.794 74.952C128.794 75.186 128.716 75.3853 128.56 75.55C128.404 75.706 128.2 75.784 127.949 75.784ZM130.955 84V77.11H132.151V78.982L132.034 78.514C132.225 78.0373 132.546 77.6733 132.996 77.422C133.447 77.1707 134.002 77.045 134.66 77.045V78.254C134.608 78.2453 134.556 78.241 134.504 78.241C134.461 78.241 134.418 78.241 134.374 78.241C133.707 78.241 133.178 78.4403 132.788 78.839C132.398 79.2377 132.203 79.814 132.203 80.568V84H130.955ZM139.968 84V82.544L139.903 82.271V79.788C139.903 79.2593 139.747 78.852 139.435 78.566C139.131 78.2713 138.672 78.124 138.057 78.124C137.649 78.124 137.251 78.1933 136.861 78.332C136.471 78.462 136.141 78.6397 135.873 78.865L135.353 77.929C135.708 77.643 136.133 77.4263 136.627 77.279C137.129 77.123 137.654 77.045 138.2 77.045C139.144 77.045 139.872 77.2747 140.384 77.734C140.895 78.1933 141.151 78.8953 141.151 79.84V84H139.968ZM137.706 84.078C137.194 84.078 136.744 83.9913 136.354 83.818C135.972 83.6447 135.678 83.4063 135.47 83.103C135.262 82.791 135.158 82.44 135.158 82.05C135.158 81.6773 135.244 81.3393 135.418 81.036C135.6 80.7327 135.89 80.49 136.289 80.308C136.696 80.126 137.242 80.035 137.927 80.035H140.111V80.932H137.979C137.355 80.932 136.934 81.036 136.718 81.244C136.501 81.452 136.393 81.7033 136.393 81.998C136.393 82.336 136.527 82.609 136.796 82.817C137.064 83.0163 137.437 83.116 137.914 83.116C138.382 83.116 138.789 83.012 139.136 82.804C139.491 82.596 139.747 82.2927 139.903 81.894L140.15 82.752C139.985 83.1593 139.695 83.4843 139.279 83.727C138.863 83.961 138.338 84.078 137.706 84.078ZM147.139 77.045C147.703 77.045 148.197 77.1533 148.621 77.37C149.055 77.5867 149.393 77.916 149.635 78.358C149.878 78.8 149.999 79.359 149.999 80.035V84H148.751V80.178C148.751 79.5107 148.587 79.008 148.257 78.67C147.937 78.332 147.482 78.163 146.892 78.163C146.45 78.163 146.065 78.2497 145.735 78.423C145.406 78.5963 145.15 78.852 144.968 79.19C144.795 79.528 144.708 79.9483 144.708 80.451V84H143.46V77.11H144.656V78.969L144.461 78.475C144.687 78.0243 145.033 77.6733 145.501 77.422C145.969 77.1707 146.515 77.045 147.139 77.045ZM155.312 84.078C154.61 84.078 153.982 83.9263 153.427 83.623C152.881 83.3197 152.452 82.9037 152.14 82.375C151.828 81.8463 151.672 81.2397 151.672 80.555C151.672 79.8703 151.828 79.2637 152.14 78.735C152.452 78.2063 152.881 77.7947 153.427 77.5C153.982 77.1967 154.61 77.045 155.312 77.045C155.936 77.045 156.491 77.1707 156.976 77.422C157.47 77.6647 157.851 78.0287 158.12 78.514L157.171 79.125C156.946 78.787 156.668 78.54 156.339 78.384C156.018 78.2193 155.672 78.137 155.299 78.137C154.848 78.137 154.445 78.2367 154.09 78.436C153.735 78.6353 153.453 78.917 153.245 79.281C153.037 79.6363 152.933 80.061 152.933 80.555C152.933 81.049 153.037 81.478 153.245 81.842C153.453 82.206 153.735 82.4877 154.09 82.687C154.445 82.8863 154.848 82.986 155.299 82.986C155.672 82.986 156.018 82.908 156.339 82.752C156.668 82.5873 156.946 82.336 157.171 81.998L158.12 82.596C157.851 83.0727 157.47 83.441 156.976 83.701C156.491 83.9523 155.936 84.078 155.312 84.078ZM164.013 84V82.544L163.948 82.271V79.788C163.948 79.2593 163.792 78.852 163.48 78.566C163.176 78.2713 162.717 78.124 162.102 78.124C161.694 78.124 161.296 78.1933 160.906 78.332C160.516 78.462 160.186 78.6397 159.918 78.865L159.398 77.929C159.753 77.643 160.178 77.4263 160.672 77.279C161.174 77.123 161.699 77.045 162.245 77.045C163.189 77.045 163.917 77.2747 164.429 77.734C164.94 78.1933 165.196 78.8953 165.196 79.84V84H164.013ZM161.751 84.078C161.239 84.078 160.789 83.9913 160.399 83.818C160.017 83.6447 159.723 83.4063 159.515 83.103C159.307 82.791 159.203 82.44 159.203 82.05C159.203 81.6773 159.289 81.3393 159.463 81.036C159.645 80.7327 159.935 80.49 160.334 80.308C160.741 80.126 161.287 80.035 161.972 80.035H164.156V80.932H162.024C161.4 80.932 160.979 81.036 160.763 81.244C160.546 81.452 160.438 81.7033 160.438 81.998C160.438 82.336 160.572 82.609 160.841 82.817C161.109 83.0163 161.482 83.116 161.959 83.116C162.427 83.116 162.834 83.012 163.181 82.804C163.536 82.596 163.792 82.2927 163.948 81.894L164.195 82.752C164.03 83.1593 163.74 83.4843 163.324 83.727C162.908 83.961 162.383 84.078 161.751 84.078ZM171.184 77.045C171.748 77.045 172.242 77.1533 172.666 77.37C173.1 77.5867 173.438 77.916 173.68 78.358C173.923 78.8 174.044 79.359 174.044 80.035V84H172.796V80.178C172.796 79.5107 172.632 79.008 172.302 78.67C171.982 78.332 171.527 78.163 170.937 78.163C170.495 78.163 170.11 78.2497 169.78 78.423C169.451 78.5963 169.195 78.852 169.013 79.19C168.84 79.528 168.753 79.9483 168.753 80.451V84H167.505V77.11H168.701V78.969L168.506 78.475C168.732 78.0243 169.078 77.6733 169.546 77.422C170.014 77.1707 170.56 77.045 171.184 77.045ZM179.37 86.6C178.737 86.6 178.122 86.509 177.524 86.327C176.935 86.1537 176.454 85.9023 176.081 85.573L176.679 84.611C177 84.8883 177.394 85.105 177.862 85.261C178.33 85.4257 178.82 85.508 179.331 85.508C180.146 85.508 180.744 85.3173 181.125 84.936C181.506 84.5547 181.697 83.974 181.697 83.194V81.738L181.827 80.373L181.762 78.995V77.11H182.945V83.064C182.945 84.2773 182.642 85.17 182.035 85.742C181.428 86.314 180.54 86.6 179.37 86.6ZM179.214 83.714C178.547 83.714 177.949 83.5753 177.42 83.298C176.9 83.012 176.484 82.6177 176.172 82.115C175.869 81.6123 175.717 81.0317 175.717 80.373C175.717 79.7057 175.869 79.125 176.172 78.631C176.484 78.1283 176.9 77.7383 177.42 77.461C177.949 77.1837 178.547 77.045 179.214 77.045C179.803 77.045 180.341 77.1663 180.826 77.409C181.311 77.643 181.697 78.007 181.983 78.501C182.278 78.995 182.425 79.619 182.425 80.373C182.425 81.1183 182.278 81.738 181.983 82.232C181.697 82.726 181.311 83.0987 180.826 83.35C180.341 83.5927 179.803 83.714 179.214 83.714ZM179.357 82.622C179.816 82.622 180.224 82.5267 180.579 82.336C180.934 82.1453 181.212 81.881 181.411 81.543C181.619 81.205 181.723 80.815 181.723 80.373C181.723 79.931 181.619 79.541 181.411 79.203C181.212 78.865 180.934 78.605 180.579 78.423C180.224 78.2323 179.816 78.137 179.357 78.137C178.898 78.137 178.486 78.2323 178.122 78.423C177.767 78.605 177.485 78.865 177.277 79.203C177.078 79.541 176.978 79.931 176.978 80.373C176.978 80.815 177.078 81.205 177.277 81.543C177.485 81.881 177.767 82.1453 178.122 82.336C178.486 82.5267 178.898 82.622 179.357 82.622ZM191.668 84.078C191 84.078 190.402 83.9307 189.874 83.636C189.354 83.3413 188.942 82.9297 188.639 82.401C188.335 81.8723 188.184 81.257 188.184 80.555C188.184 79.853 188.335 79.242 188.639 78.722C188.942 78.1933 189.354 77.7817 189.874 77.487C190.402 77.1923 191 77.045 191.668 77.045C192.248 77.045 192.773 77.175 193.241 77.435C193.709 77.695 194.081 78.085 194.359 78.605C194.645 79.125 194.788 79.775 194.788 80.555C194.788 81.335 194.649 81.985 194.372 82.505C194.103 83.025 193.735 83.4193 193.267 83.688C192.799 83.948 192.266 84.078 191.668 84.078ZM191.772 82.986C192.205 82.986 192.595 82.8863 192.942 82.687C193.297 82.4877 193.574 82.206 193.774 81.842C193.982 81.4693 194.086 81.0403 194.086 80.555C194.086 80.061 193.982 79.6363 193.774 79.281C193.574 78.917 193.297 78.6353 192.942 78.436C192.595 78.2367 192.205 78.137 191.772 78.137C191.33 78.137 190.935 78.2367 190.589 78.436C190.242 78.6353 189.965 78.917 189.757 79.281C189.549 79.6363 189.445 80.061 189.445 80.555C189.445 81.0403 189.549 81.4693 189.757 81.842C189.965 82.206 190.242 82.4877 190.589 82.687C190.935 82.8863 191.33 82.986 191.772 82.986ZM194.125 84V82.141L194.203 80.542L194.073 78.943V74.354H195.321V84H194.125ZM200.75 84.078C200.013 84.078 199.363 83.9263 198.8 83.623C198.245 83.3197 197.812 82.9037 197.5 82.375C197.197 81.8463 197.045 81.2397 197.045 80.555C197.045 79.8703 197.192 79.2637 197.487 78.735C197.79 78.2063 198.202 77.7947 198.722 77.5C199.251 77.1967 199.844 77.045 200.503 77.045C201.17 77.045 201.76 77.1923 202.271 77.487C202.782 77.7817 203.181 78.1977 203.467 78.735C203.762 79.2637 203.909 79.8833 203.909 80.594C203.909 80.646 203.905 80.7067 203.896 80.776C203.896 80.8453 203.892 80.9103 203.883 80.971H198.02V80.074H203.233L202.726 80.386C202.735 79.944 202.644 79.5497 202.453 79.203C202.262 78.8563 201.998 78.5877 201.66 78.397C201.331 78.1977 200.945 78.098 200.503 78.098C200.07 78.098 199.684 78.1977 199.346 78.397C199.008 78.5877 198.744 78.8607 198.553 79.216C198.362 79.5627 198.267 79.9613 198.267 80.412V80.62C198.267 81.0793 198.371 81.491 198.579 81.855C198.796 82.2103 199.095 82.4877 199.476 82.687C199.857 82.8863 200.295 82.986 200.789 82.986C201.196 82.986 201.565 82.9167 201.894 82.778C202.232 82.6393 202.527 82.4313 202.778 82.154L203.467 82.96C203.155 83.324 202.765 83.6013 202.297 83.792C201.838 83.9827 201.322 84.078 200.75 84.078ZM209.321 77.045C209.884 77.045 210.378 77.1533 210.803 77.37C211.236 77.5867 211.574 77.916 211.817 78.358C212.06 78.8 212.181 79.359 212.181 80.035V84H210.933V80.178C210.933 79.5107 210.768 79.008 210.439 78.67C210.118 78.332 209.663 78.163 209.074 78.163C208.632 78.163 208.246 78.2497 207.917 78.423C207.588 78.5963 207.332 78.852 207.15 79.19C206.977 79.528 206.89 79.9483 206.89 80.451V84H205.642V77.11H206.838V78.969L206.643 78.475C206.868 78.0243 207.215 77.6733 207.683 77.422C208.151 77.1707 208.697 77.045 209.321 77.045ZM217.507 86.6C216.874 86.6 216.259 86.509 215.661 86.327C215.071 86.1537 214.59 85.9023 214.218 85.573L214.816 84.611C215.136 84.8883 215.531 85.105 215.999 85.261C216.467 85.4257 216.956 85.508 217.468 85.508C218.282 85.508 218.88 85.3173 219.262 84.936C219.643 84.5547 219.834 83.974 219.834 83.194V81.738L219.964 80.373L219.899 78.995V77.11H221.082V83.064C221.082 84.2773 220.778 85.17 220.172 85.742C219.565 86.314 218.677 86.6 217.507 86.6ZM217.351 83.714C216.683 83.714 216.085 83.5753 215.557 83.298C215.037 83.012 214.621 82.6177 214.309 82.115C214.005 81.6123 213.854 81.0317 213.854 80.373C213.854 79.7057 214.005 79.125 214.309 78.631C214.621 78.1283 215.037 77.7383 215.557 77.461C216.085 77.1837 216.683 77.045 217.351 77.045C217.94 77.045 218.477 77.1663 218.963 77.409C219.448 77.643 219.834 78.007 220.12 78.501C220.414 78.995 220.562 79.619 220.562 80.373C220.562 81.1183 220.414 81.738 220.12 82.232C219.834 82.726 219.448 83.0987 218.963 83.35C218.477 83.5927 217.94 83.714 217.351 83.714ZM217.494 82.622C217.953 82.622 218.36 82.5267 218.716 82.336C219.071 82.1453 219.348 81.881 219.548 81.543C219.756 81.205 219.86 80.815 219.86 80.373C219.86 79.931 219.756 79.541 219.548 79.203C219.348 78.865 219.071 78.605 218.716 78.423C218.36 78.2323 217.953 78.137 217.494 78.137C217.034 78.137 216.623 78.2323 216.259 78.423C215.903 78.605 215.622 78.865 215.414 79.203C215.214 79.541 215.115 79.931 215.115 80.373C215.115 80.815 215.214 81.205 215.414 81.543C215.622 81.881 215.903 82.1453 216.259 82.336C216.623 82.5267 217.034 82.622 217.494 82.622ZM227.743 84V82.544L227.678 82.271V79.788C227.678 79.2593 227.522 78.852 227.21 78.566C226.907 78.2713 226.448 78.124 225.832 78.124C225.425 78.124 225.026 78.1933 224.636 78.332C224.246 78.462 223.917 78.6397 223.648 78.865L223.128 77.929C223.484 77.643 223.908 77.4263 224.402 77.279C224.905 77.123 225.429 77.045 225.975 77.045C226.92 77.045 227.648 77.2747 228.159 77.734C228.671 78.1933 228.926 78.8953 228.926 79.84V84H227.743ZM225.481 84.078C224.97 84.078 224.519 83.9913 224.129 83.818C223.748 83.6447 223.453 83.4063 223.245 83.103C223.037 82.791 222.933 82.44 222.933 82.05C222.933 81.6773 223.02 81.3393 223.193 81.036C223.375 80.7327 223.666 80.49 224.064 80.308C224.472 80.126 225.018 80.035 225.702 80.035H227.886V80.932H225.754C225.13 80.932 224.71 81.036 224.493 81.244C224.277 81.452 224.168 81.7033 224.168 81.998C224.168 82.336 224.303 82.609 224.571 82.817C224.84 83.0163 225.213 83.116 225.689 83.116C226.157 83.116 226.565 83.012 226.911 82.804C227.267 82.596 227.522 82.2927 227.678 81.894L227.925 82.752C227.761 83.1593 227.47 83.4843 227.054 83.727C226.638 83.961 226.114 84.078 225.481 84.078ZM234.915 77.045C235.478 77.045 235.972 77.1533 236.397 77.37C236.83 77.5867 237.168 77.916 237.411 78.358C237.653 78.8 237.775 79.359 237.775 80.035V84H236.527V80.178C236.527 79.5107 236.362 79.008 236.033 78.67C235.712 78.332 235.257 78.163 234.668 78.163C234.226 78.163 233.84 78.2497 233.511 78.423C233.181 78.5963 232.926 78.852 232.744 79.19C232.57 79.528 232.484 79.9483 232.484 80.451V84H231.236V77.11H232.432V78.969L232.237 78.475C232.462 78.0243 232.809 77.6733 233.277 77.422C233.745 77.1707 234.291 77.045 234.915 77.045ZM22.46 105V103.544L22.395 103.271V100.788C22.395 100.259 22.239 99.852 21.927 99.566C21.6237 99.2713 21.1643 99.124 20.549 99.124C20.1417 99.124 19.743 99.1933 19.353 99.332C18.963 99.462 18.6337 99.6397 18.365 99.865L17.845 98.929C18.2003 98.643 18.625 98.4263 19.119 98.279C19.6217 98.123 20.146 98.045 20.692 98.045C21.6367 98.045 22.3647 98.2747 22.876 98.734C23.3873 99.1933 23.643 99.8953 23.643 100.84V105H22.46ZM20.198 105.078C19.6867 105.078 19.236 104.991 18.846 104.818C18.4647 104.645 18.17 104.406 17.962 104.103C17.754 103.791 17.65 103.44 17.65 103.05C17.65 102.677 17.7367 102.339 17.91 102.036C18.092 101.733 18.3823 101.49 18.781 101.308C19.1883 101.126 19.7343 101.035 20.419 101.035H22.603V101.932H20.471C19.847 101.932 19.4267 102.036 19.21 102.244C18.9933 102.452 18.885 102.703 18.885 102.998C18.885 103.336 19.0193 103.609 19.288 103.817C19.5567 104.016 19.9293 104.116 20.406 104.116C20.874 104.116 21.2813 104.012 21.628 103.804C21.9833 103.596 22.239 103.293 22.395 102.894L22.642 103.752C22.4773 104.159 22.187 104.484 21.771 104.727C21.355 104.961 20.8307 105.078 20.198 105.078ZM29.6315 98.045C30.1949 98.045 30.6889 98.1533 31.1135 98.37C31.5469 98.5867 31.8849 98.916 32.1275 99.358C32.3702 99.8 32.4915 100.359 32.4915 101.035V105H31.2435V101.178C31.2435 100.511 31.0789 100.008 30.7495 99.67C30.4289 99.332 29.9739 99.163 29.3845 99.163C28.9425 99.163 28.5569 99.2497 28.2275 99.423C27.8982 99.5963 27.6425 99.852 27.4605 100.19C27.2872 100.528 27.2005 100.948 27.2005 101.451V105H25.9525V98.11H27.1485V99.969L26.9535 99.475C27.1789 99.0243 27.5255 98.6733 27.9935 98.422C28.4615 98.1707 29.0075 98.045 29.6315 98.045ZM37.1672 105.078C36.4738 105.078 35.9365 104.892 35.5552 104.519C35.1738 104.146 34.9832 103.613 34.9832 102.92V96.602H36.2312V102.868C36.2312 103.241 36.3222 103.527 36.5042 103.726C36.6948 103.925 36.9635 104.025 37.3102 104.025C37.7002 104.025 38.0252 103.917 38.2852 103.7L38.6752 104.597C38.4845 104.762 38.2548 104.883 37.9862 104.961C37.7262 105.039 37.4532 105.078 37.1672 105.078ZM33.8132 99.137V98.11H38.2072V99.137H33.8132ZM44.461 105V103.544L44.396 103.271V100.788C44.396 100.259 44.24 99.852 43.928 99.566C43.6246 99.2713 43.1653 99.124 42.55 99.124C42.1426 99.124 41.744 99.1933 41.354 99.332C40.964 99.462 40.6346 99.6397 40.366 99.865L39.846 98.929C40.2013 98.643 40.626 98.4263 41.12 98.279C41.6226 98.123 42.147 98.045 42.693 98.045C43.6376 98.045 44.3656 98.2747 44.877 98.734C45.3883 99.1933 45.644 99.8953 45.644 100.84V105H44.461ZM42.199 105.078C41.6876 105.078 41.237 104.991 40.847 104.818C40.4656 104.645 40.171 104.406 39.963 104.103C39.755 103.791 39.651 103.44 39.651 103.05C39.651 102.677 39.7376 102.339 39.911 102.036C40.093 101.733 40.3833 101.49 40.782 101.308C41.1893 101.126 41.7353 101.035 42.42 101.035H44.604V101.932H42.472C41.848 101.932 41.4276 102.036 41.211 102.244C40.9943 102.452 40.886 102.703 40.886 102.998C40.886 103.336 41.0203 103.609 41.289 103.817C41.5576 104.016 41.9303 104.116 42.407 104.116C42.875 104.116 43.2823 104.012 43.629 103.804C43.9843 103.596 44.24 103.293 44.396 102.894L44.643 103.752C44.4783 104.159 44.188 104.484 43.772 104.727C43.356 104.961 42.8316 105.078 42.199 105.078ZM47.9535 105V98.11H49.1495V99.982L49.0325 99.514C49.2232 99.0373 49.5438 98.6733 49.9945 98.422C50.4452 98.1707 50.9998 98.045 51.6585 98.045V99.254C51.6065 99.2453 51.5545 99.241 51.5025 99.241C51.4592 99.241 51.4158 99.241 51.3725 99.241C50.7052 99.241 50.1765 99.4403 49.7865 99.839C49.3965 100.238 49.2015 100.814 49.2015 101.568V105H47.9535ZM61.8157 98.045C62.3703 98.045 62.86 98.1533 63.2847 98.37C63.7093 98.5867 64.0387 98.916 64.2727 99.358C64.5153 99.8 64.6367 100.359 64.6367 101.035V105H63.3887V101.178C63.3887 100.511 63.2327 100.008 62.9207 99.67C62.6087 99.332 62.171 99.163 61.6077 99.163C61.1917 99.163 60.8277 99.2497 60.5157 99.423C60.2037 99.5963 59.961 99.852 59.7877 100.19C59.623 100.528 59.5407 100.948 59.5407 101.451V105H58.2927V101.178C58.2927 100.511 58.1367 100.008 57.8247 99.67C57.5213 99.332 57.0837 99.163 56.5117 99.163C56.1043 99.163 55.7447 99.2497 55.4327 99.423C55.1207 99.5963 54.878 99.852 54.7047 100.19C54.5313 100.528 54.4447 100.948 54.4447 101.451V105H53.1967V98.11H54.3927V99.943L54.1977 99.475C54.4143 99.0243 54.748 98.6733 55.1987 98.422C55.6493 98.1707 56.1737 98.045 56.7717 98.045C57.4303 98.045 57.998 98.2097 58.4747 98.539C58.9513 98.8597 59.2633 99.3493 59.4107 100.008L58.9037 99.8C59.1117 99.2713 59.4757 98.8467 59.9957 98.526C60.5157 98.2053 61.1223 98.045 61.8157 98.045ZM69.832 105.078C69.2427 105.078 68.7227 104.97 68.272 104.753C67.83 104.536 67.4833 104.207 67.232 103.765C66.9893 103.314 66.868 102.751 66.868 102.075V98.11H68.116V101.932C68.116 102.608 68.2763 103.115 68.597 103.453C68.9263 103.791 69.3857 103.96 69.975 103.96C70.4083 103.96 70.7853 103.873 71.106 103.7C71.4267 103.518 71.6737 103.258 71.847 102.92C72.0203 102.573 72.107 102.157 72.107 101.672V98.11H73.355V105H72.172V103.141L72.367 103.635C72.1417 104.094 71.8037 104.45 71.353 104.701C70.9023 104.952 70.3953 105.078 69.832 105.078ZM76.7449 103.336L76.7709 101.737L80.7359 98.11H82.2439L79.2019 101.1L78.5259 101.672L76.7449 103.336ZM75.7309 105V95.354H76.9789V105H75.7309ZM80.9959 105L78.2919 101.646L79.0979 100.645L82.5299 105H80.9959ZM87.8916 105V103.544L87.8266 103.271V100.788C87.8266 100.259 87.6706 99.852 87.3586 99.566C87.0553 99.2713 86.596 99.124 85.9806 99.124C85.5733 99.124 85.1746 99.1933 84.7846 99.332C84.3946 99.462 84.0653 99.6397 83.7966 99.865L83.2766 98.929C83.632 98.643 84.0566 98.4263 84.5506 98.279C85.0533 98.123 85.5776 98.045 86.1236 98.045C87.0683 98.045 87.7963 98.2747 88.3076 98.734C88.819 99.1933 89.0746 99.8953 89.0746 100.84V105H87.8916ZM85.6296 105.078C85.1183 105.078 84.6676 104.991 84.2776 104.818C83.8963 104.645 83.6016 104.406 83.3936 104.103C83.1856 103.791 83.0816 103.44 83.0816 103.05C83.0816 102.677 83.1683 102.339 83.3416 102.036C83.5236 101.733 83.814 101.49 84.2126 101.308C84.62 101.126 85.166 101.035 85.8506 101.035H88.0346V101.932H85.9026C85.2786 101.932 84.8583 102.036 84.6416 102.244C84.425 102.452 84.3166 102.703 84.3166 102.998C84.3166 103.336 84.451 103.609 84.7196 103.817C84.9883 104.016 85.361 104.116 85.8376 104.116C86.3056 104.116 86.713 104.012 87.0596 103.804C87.415 103.596 87.6706 103.293 87.8266 102.894L88.0736 103.752C87.909 104.159 87.6186 104.484 87.2026 104.727C86.7866 104.961 86.2623 105.078 85.6296 105.078ZM95.1744 107.6C94.845 107.6 94.5244 107.544 94.2124 107.431C93.9004 107.327 93.6317 107.171 93.4064 106.963L93.9394 106.027C94.1127 106.192 94.3034 106.317 94.5114 106.404C94.7194 106.491 94.9404 106.534 95.1744 106.534C95.4777 106.534 95.729 106.456 95.9284 106.3C96.1277 106.144 96.314 105.867 96.4874 105.468L96.9164 104.519L97.0464 104.363L99.7504 98.11H100.972L97.6314 105.689C97.432 106.174 97.2067 106.556 96.9554 106.833C96.7127 107.11 96.444 107.305 96.1494 107.418C95.8547 107.539 95.5297 107.6 95.1744 107.6ZM96.8124 105.221L93.6664 98.11H94.9664L97.6444 104.246L96.8124 105.221ZM106.198 105V103.544L106.133 103.271V100.788C106.133 100.259 105.977 99.852 105.665 99.566C105.362 99.2713 104.903 99.124 104.287 99.124C103.88 99.124 103.481 99.1933 103.091 99.332C102.701 99.462 102.372 99.6397 102.103 99.865L101.583 98.929C101.939 98.643 102.363 98.4263 102.857 98.279C103.36 98.123 103.884 98.045 104.43 98.045C105.375 98.045 106.103 98.2747 106.614 98.734C107.126 99.1933 107.381 99.8953 107.381 100.84V105H106.198ZM103.936 105.078C103.425 105.078 102.974 104.991 102.584 104.818C102.203 104.645 101.908 104.406 101.7 104.103C101.492 103.791 101.388 103.44 101.388 103.05C101.388 102.677 101.475 102.339 101.648 102.036C101.83 101.733 102.121 101.49 102.519 101.308C102.927 101.126 103.473 101.035 104.157 101.035H106.341V101.932H104.209C103.585 101.932 103.165 102.036 102.948 102.244C102.732 102.452 102.623 102.703 102.623 102.998C102.623 103.336 102.758 103.609 103.026 103.817C103.295 104.016 103.668 104.116 104.144 104.116C104.612 104.116 105.02 104.012 105.366 103.804C105.722 103.596 105.977 103.293 106.133 102.894L106.38 103.752C106.216 104.159 105.925 104.484 105.509 104.727C105.093 104.961 104.569 105.078 103.936 105.078ZM113.37 98.045C113.933 98.045 114.427 98.1533 114.852 98.37C115.285 98.5867 115.623 98.916 115.866 99.358C116.108 99.8 116.23 100.359 116.23 101.035V105H114.982V101.178C114.982 100.511 114.817 100.008 114.488 99.67C114.167 99.332 113.712 99.163 113.123 99.163C112.681 99.163 112.295 99.2497 111.966 99.423C111.636 99.5963 111.381 99.852 111.199 100.19C111.025 100.528 110.939 100.948 110.939 101.451V105H109.691V98.11H110.887V99.969L110.692 99.475C110.917 99.0243 111.264 98.6733 111.732 98.422C112.2 98.1707 112.746 98.045 113.37 98.045ZM121.555 107.6C120.923 107.6 120.307 107.509 119.709 107.327C119.12 107.154 118.639 106.902 118.266 106.573L118.864 105.611C119.185 105.888 119.579 106.105 120.047 106.261C120.515 106.426 121.005 106.508 121.516 106.508C122.331 106.508 122.929 106.317 123.31 105.936C123.692 105.555 123.882 104.974 123.882 104.194V102.738L124.012 101.373L123.947 99.995V98.11H125.13V104.064C125.13 105.277 124.827 106.17 124.22 106.742C123.614 107.314 122.725 107.6 121.555 107.6ZM121.399 104.714C120.732 104.714 120.134 104.575 119.605 104.298C119.085 104.012 118.669 103.618 118.357 103.115C118.054 102.612 117.902 102.032 117.902 101.373C117.902 100.706 118.054 100.125 118.357 99.631C118.669 99.1283 119.085 98.7383 119.605 98.461C120.134 98.1837 120.732 98.045 121.399 98.045C121.989 98.045 122.526 98.1663 123.011 98.409C123.497 98.643 123.882 99.007 124.168 99.501C124.463 99.995 124.61 100.619 124.61 101.373C124.61 102.118 124.463 102.738 124.168 103.232C123.882 103.726 123.497 104.099 123.011 104.35C122.526 104.593 121.989 104.714 121.399 104.714ZM121.542 103.622C122.002 103.622 122.409 103.527 122.764 103.336C123.12 103.145 123.397 102.881 123.596 102.543C123.804 102.205 123.908 101.815 123.908 101.373C123.908 100.931 123.804 100.541 123.596 100.203C123.397 99.865 123.12 99.605 122.764 99.423C122.409 99.2323 122.002 99.137 121.542 99.137C121.083 99.137 120.671 99.2323 120.307 99.423C119.952 99.605 119.67 99.865 119.462 100.203C119.263 100.541 119.163 100.931 119.163 101.373C119.163 101.815 119.263 102.205 119.462 102.543C119.67 102.881 119.952 103.145 120.307 103.336C120.671 103.527 121.083 103.622 121.542 103.622ZM131.006 105V98.11H132.254V105H131.006ZM131.63 96.784C131.388 96.784 131.184 96.706 131.019 96.55C130.863 96.394 130.785 96.2033 130.785 95.978C130.785 95.744 130.863 95.549 131.019 95.393C131.184 95.237 131.388 95.159 131.63 95.159C131.873 95.159 132.072 95.237 132.228 95.393C132.393 95.5403 132.475 95.7267 132.475 95.952C132.475 96.186 132.397 96.3853 132.241 96.55C132.085 96.706 131.882 96.784 131.63 96.784ZM138.316 98.045C138.879 98.045 139.373 98.1533 139.798 98.37C140.231 98.5867 140.569 98.916 140.812 99.358C141.055 99.8 141.176 100.359 141.176 101.035V105H139.928V101.178C139.928 100.511 139.763 100.008 139.434 99.67C139.113 99.332 138.658 99.163 138.069 99.163C137.627 99.163 137.241 99.2497 136.912 99.423C136.583 99.5963 136.327 99.852 136.145 100.19C135.972 100.528 135.885 100.948 135.885 101.451V105H134.637V98.11H135.833V99.969L135.638 99.475C135.863 99.0243 136.21 98.6733 136.678 98.422C137.146 98.1707 137.692 98.045 138.316 98.045ZM145.852 105.078C145.158 105.078 144.621 104.892 144.24 104.519C143.858 104.146 143.668 103.613 143.668 102.92V96.602H144.916V102.868C144.916 103.241 145.007 103.527 145.189 103.726C145.379 103.925 145.648 104.025 145.995 104.025C146.385 104.025 146.71 103.917 146.97 103.7L147.36 104.597C147.169 104.762 146.939 104.883 146.671 104.961C146.411 105.039 146.138 105.078 145.852 105.078ZM142.498 99.137V98.11H146.892V99.137H142.498ZM151.768 105.078C151.178 105.078 150.658 104.97 150.208 104.753C149.766 104.536 149.419 104.207 149.168 103.765C148.925 103.314 148.804 102.751 148.804 102.075V98.11H150.052V101.932C150.052 102.608 150.212 103.115 150.533 103.453C150.862 103.791 151.321 103.96 151.911 103.96C152.344 103.96 152.721 103.873 153.042 103.7C153.362 103.518 153.609 103.258 153.783 102.92C153.956 102.573 154.043 102.157 154.043 101.672V98.11H155.291V105H154.108V103.141L154.303 103.635C154.077 104.094 153.739 104.45 153.289 104.701C152.838 104.952 152.331 105.078 151.768 105.078ZM157.666 105V98.11H158.914V105H157.666ZM158.29 96.784C158.048 96.784 157.844 96.706 157.679 96.55C157.523 96.394 157.445 96.2033 157.445 95.978C157.445 95.744 157.523 95.549 157.679 95.393C157.844 95.237 158.048 95.159 158.29 95.159C158.533 95.159 158.732 95.237 158.888 95.393C159.053 95.5403 159.135 95.7267 159.135 95.952C159.135 96.186 159.057 96.3853 158.901 96.55C158.745 96.706 158.542 96.784 158.29 96.784ZM163.663 105.078C162.97 105.078 162.433 104.892 162.051 104.519C161.67 104.146 161.479 103.613 161.479 102.92V96.602H162.727V102.868C162.727 103.241 162.818 103.527 163 103.726C163.191 103.925 163.46 104.025 163.806 104.025C164.196 104.025 164.521 103.917 164.781 103.7L165.171 104.597C164.981 104.762 164.751 104.883 164.482 104.961C164.222 105.039 163.949 105.078 163.663 105.078ZM160.309 99.137V98.11H164.703V99.137H160.309ZM166.68 105V98.11H167.928V105H166.68ZM167.304 96.784C167.061 96.784 166.858 96.706 166.693 96.55C166.537 96.394 166.459 96.2033 166.459 95.978C166.459 95.744 166.537 95.549 166.693 95.393C166.858 95.237 167.061 95.159 167.304 95.159C167.547 95.159 167.746 95.237 167.902 95.393C168.067 95.5403 168.149 95.7267 168.149 95.952C168.149 96.186 168.071 96.3853 167.915 96.55C167.759 96.706 167.555 96.784 167.304 96.784ZM170.493 105V97.499C170.493 96.823 170.688 96.2857 171.078 95.887C171.477 95.4797 172.04 95.276 172.768 95.276C173.037 95.276 173.292 95.3107 173.535 95.38C173.786 95.4407 173.999 95.5403 174.172 95.679L173.795 96.628C173.665 96.524 173.518 96.446 173.353 96.394C173.188 96.3333 173.015 96.303 172.833 96.303C172.469 96.303 172.192 96.407 172.001 96.615C171.81 96.8143 171.715 97.1133 171.715 97.512V98.435L171.741 99.007V105H170.493ZM169.323 99.137V98.11H173.717V99.137H169.323ZM180.361 105.078C179.789 105.078 179.243 105 178.723 104.844C178.212 104.688 177.809 104.497 177.514 104.272L178.034 103.284C178.329 103.483 178.693 103.652 179.126 103.791C179.559 103.93 180.001 103.999 180.452 103.999C181.033 103.999 181.449 103.917 181.7 103.752C181.96 103.587 182.09 103.358 182.09 103.063C182.09 102.846 182.012 102.677 181.856 102.556C181.7 102.435 181.492 102.344 181.232 102.283C180.981 102.222 180.699 102.17 180.387 102.127C180.075 102.075 179.763 102.014 179.451 101.945C179.139 101.867 178.853 101.763 178.593 101.633C178.333 101.494 178.125 101.308 177.969 101.074C177.813 100.831 177.735 100.511 177.735 100.112C177.735 99.696 177.852 99.332 178.086 99.02C178.32 98.708 178.649 98.4697 179.074 98.305C179.507 98.1317 180.019 98.045 180.608 98.045C181.059 98.045 181.514 98.1013 181.973 98.214C182.441 98.318 182.822 98.4697 183.117 98.669L182.584 99.657C182.272 99.449 181.947 99.306 181.609 99.228C181.271 99.15 180.933 99.111 180.595 99.111C180.049 99.111 179.642 99.202 179.373 99.384C179.104 99.5573 178.97 99.7827 178.97 100.06C178.97 100.294 179.048 100.476 179.204 100.606C179.369 100.727 179.577 100.823 179.828 100.892C180.088 100.961 180.374 101.022 180.686 101.074C180.998 101.117 181.31 101.178 181.622 101.256C181.934 101.325 182.216 101.425 182.467 101.555C182.727 101.685 182.935 101.867 183.091 102.101C183.256 102.335 183.338 102.647 183.338 103.037C183.338 103.453 183.217 103.813 182.974 104.116C182.731 104.419 182.389 104.658 181.947 104.831C181.505 104.996 180.976 105.078 180.361 105.078ZM187.966 105.078C187.229 105.078 186.579 104.926 186.016 104.623C185.461 104.32 185.028 103.904 184.716 103.375C184.413 102.846 184.261 102.24 184.261 101.555C184.261 100.87 184.408 100.264 184.703 99.735C185.006 99.2063 185.418 98.7947 185.938 98.5C186.467 98.1967 187.06 98.045 187.719 98.045C188.386 98.045 188.976 98.1923 189.487 98.487C189.998 98.7817 190.397 99.1977 190.683 99.735C190.978 100.264 191.125 100.883 191.125 101.594C191.125 101.646 191.121 101.707 191.112 101.776C191.112 101.845 191.108 101.91 191.099 101.971H185.236V101.074H190.449L189.942 101.386C189.951 100.944 189.86 100.55 189.669 100.203C189.478 99.8563 189.214 99.5877 188.876 99.397C188.547 99.1977 188.161 99.098 187.719 99.098C187.286 99.098 186.9 99.1977 186.562 99.397C186.224 99.5877 185.96 99.8607 185.769 100.216C185.578 100.563 185.483 100.961 185.483 101.412V101.62C185.483 102.079 185.587 102.491 185.795 102.855C186.012 103.21 186.311 103.488 186.692 103.687C187.073 103.886 187.511 103.986 188.005 103.986C188.412 103.986 188.781 103.917 189.11 103.778C189.448 103.639 189.743 103.431 189.994 103.154L190.683 103.96C190.371 104.324 189.981 104.601 189.513 104.792C189.054 104.983 188.538 105.078 187.966 105.078ZM196.537 98.045C197.1 98.045 197.594 98.1533 198.019 98.37C198.452 98.5867 198.79 98.916 199.033 99.358C199.275 99.8 199.397 100.359 199.397 101.035V105H198.149V101.178C198.149 100.511 197.984 100.008 197.655 99.67C197.334 99.332 196.879 99.163 196.29 99.163C195.848 99.163 195.462 99.2497 195.133 99.423C194.803 99.5963 194.548 99.852 194.366 100.19C194.192 100.528 194.106 100.948 194.106 101.451V105H192.858V95.354H194.106V99.969L193.859 99.475C194.084 99.0243 194.431 98.6733 194.899 98.422C195.367 98.1707 195.913 98.045 196.537 98.045ZM201.706 105V98.11H202.954V105H201.706ZM202.33 96.784C202.088 96.784 201.884 96.706 201.719 96.55C201.563 96.394 201.485 96.2033 201.485 95.978C201.485 95.744 201.563 95.549 201.719 95.393C201.884 95.237 202.088 95.159 202.33 95.159C202.573 95.159 202.772 95.237 202.928 95.393C203.093 95.5403 203.175 95.7267 203.175 95.952C203.175 96.186 203.097 96.3853 202.941 96.55C202.785 96.706 202.582 96.784 202.33 96.784ZM209.016 98.045C209.58 98.045 210.074 98.1533 210.498 98.37C210.932 98.5867 211.27 98.916 211.512 99.358C211.755 99.8 211.876 100.359 211.876 101.035V105H210.628V101.178C210.628 100.511 210.464 100.008 210.134 99.67C209.814 99.332 209.359 99.163 208.769 99.163C208.327 99.163 207.942 99.2497 207.612 99.423C207.283 99.5963 207.027 99.852 206.845 100.19C206.672 100.528 206.585 100.948 206.585 101.451V105H205.337V98.11H206.533V99.969L206.338 99.475C206.564 99.0243 206.91 98.6733 207.378 98.422C207.846 98.1707 208.392 98.045 209.016 98.045ZM217.202 107.6C216.569 107.6 215.954 107.509 215.356 107.327C214.767 107.154 214.286 106.902 213.913 106.573L214.511 105.611C214.832 105.888 215.226 106.105 215.694 106.261C216.162 106.426 216.652 106.508 217.163 106.508C217.978 106.508 218.576 106.317 218.957 105.936C219.338 105.555 219.529 104.974 219.529 104.194V102.738L219.659 101.373L219.594 99.995V98.11H220.777V104.064C220.777 105.277 220.474 106.17 219.867 106.742C219.26 107.314 218.372 107.6 217.202 107.6ZM217.046 104.714C216.379 104.714 215.781 104.575 215.252 104.298C214.732 104.012 214.316 103.618 214.004 103.115C213.701 102.612 213.549 102.032 213.549 101.373C213.549 100.706 213.701 100.125 214.004 99.631C214.316 99.1283 214.732 98.7383 215.252 98.461C215.781 98.1837 216.379 98.045 217.046 98.045C217.635 98.045 218.173 98.1663 218.658 98.409C219.143 98.643 219.529 99.007 219.815 99.501C220.11 99.995 220.257 100.619 220.257 101.373C220.257 102.118 220.11 102.738 219.815 103.232C219.529 103.726 219.143 104.099 218.658 104.35C218.173 104.593 217.635 104.714 217.046 104.714ZM217.189 103.622C217.648 103.622 218.056 103.527 218.411 103.336C218.766 103.145 219.044 102.881 219.243 102.543C219.451 102.205 219.555 101.815 219.555 101.373C219.555 100.931 219.451 100.541 219.243 100.203C219.044 99.865 218.766 99.605 218.411 99.423C218.056 99.2323 217.648 99.137 217.189 99.137C216.73 99.137 216.318 99.2323 215.954 99.423C215.599 99.605 215.317 99.865 215.109 100.203C214.91 100.541 214.81 100.931 214.81 101.373C214.81 101.815 214.91 102.205 215.109 102.543C215.317 102.881 215.599 103.145 215.954 103.336C216.318 103.527 216.73 103.622 217.189 103.622ZM226.178 107.6C225.545 107.6 224.93 107.509 224.332 107.327C223.742 107.154 223.261 106.902 222.889 106.573L223.487 105.611C223.807 105.888 224.202 106.105 224.67 106.261C225.138 106.426 225.627 106.508 226.139 106.508C226.953 106.508 227.551 106.317 227.933 105.936C228.314 105.555 228.505 104.974 228.505 104.194V102.738L228.635 101.373L228.57 99.995V98.11H229.753V104.064C229.753 105.277 229.449 106.17 228.843 106.742C228.236 107.314 227.348 107.6 226.178 107.6ZM226.022 104.714C225.354 104.714 224.756 104.575 224.228 104.298C223.708 104.012 223.292 103.618 222.98 103.115C222.676 102.612 222.525 102.032 222.525 101.373C222.525 100.706 222.676 100.125 222.98 99.631C223.292 99.1283 223.708 98.7383 224.228 98.461C224.756 98.1837 225.354 98.045 226.022 98.045C226.611 98.045 227.148 98.1663 227.634 98.409C228.119 98.643 228.505 99.007 228.791 99.501C229.085 99.995 229.233 100.619 229.233 101.373C229.233 102.118 229.085 102.738 228.791 103.232C228.505 103.726 228.119 104.099 227.634 104.35C227.148 104.593 226.611 104.714 226.022 104.714ZM226.165 103.622C226.624 103.622 227.031 103.527 227.387 103.336C227.742 103.145 228.019 102.881 228.219 102.543C228.427 102.205 228.531 101.815 228.531 101.373C228.531 100.931 228.427 100.541 228.219 100.203C228.019 99.865 227.742 99.605 227.387 99.423C227.031 99.2323 226.624 99.137 226.165 99.137C225.705 99.137 225.294 99.2323 224.93 99.423C224.574 99.605 224.293 99.865 224.085 100.203C223.885 100.541 223.786 100.931 223.786 101.373C223.786 101.815 223.885 102.205 224.085 102.543C224.293 102.881 224.574 103.145 224.93 103.336C225.294 103.527 225.705 103.622 226.165 103.622ZM236.414 105V103.544L236.349 103.271V100.788C236.349 100.259 236.193 99.852 235.881 99.566C235.578 99.2713 235.118 99.124 234.503 99.124C234.096 99.124 233.697 99.1933 233.307 99.332C232.917 99.462 232.588 99.6397 232.319 99.865L231.799 98.929C232.154 98.643 232.579 98.4263 233.073 98.279C233.576 98.123 234.1 98.045 234.646 98.045C235.591 98.045 236.319 98.2747 236.83 98.734C237.341 99.1933 237.597 99.8953 237.597 100.84V105H236.414ZM234.152 105.078C233.641 105.078 233.19 104.991 232.8 104.818C232.419 104.645 232.124 104.406 231.916 104.103C231.708 103.791 231.604 103.44 231.604 103.05C231.604 102.677 231.691 102.339 231.864 102.036C232.046 101.733 232.336 101.49 232.735 101.308C233.142 101.126 233.688 101.035 234.373 101.035H236.557V101.932H234.425C233.801 101.932 233.381 102.036 233.164 102.244C232.947 102.452 232.839 102.703 232.839 102.998C232.839 103.336 232.973 103.609 233.242 103.817C233.511 104.016 233.883 104.116 234.36 104.116C234.828 104.116 235.235 104.012 235.582 103.804C235.937 103.596 236.193 103.293 236.349 102.894L236.596 103.752C236.431 104.159 236.141 104.484 235.725 104.727C235.309 104.961 234.785 105.078 234.152 105.078ZM26.802 119.045C27.3567 119.045 27.8463 119.153 28.271 119.37C28.6957 119.587 29.025 119.916 29.259 120.358C29.5017 120.8 29.623 121.359 29.623 122.035V126H28.375V122.178C28.375 121.511 28.219 121.008 27.907 120.67C27.595 120.332 27.1573 120.163 26.594 120.163C26.178 120.163 25.814 120.25 25.502 120.423C25.19 120.596 24.9473 120.852 24.774 121.19C24.6093 121.528 24.527 121.948 24.527 122.451V126H23.279V122.178C23.279 121.511 23.123 121.008 22.811 120.67C22.5077 120.332 22.07 120.163 21.498 120.163C21.0907 120.163 20.731 120.25 20.419 120.423C20.107 120.596 19.8643 120.852 19.691 121.19C19.5177 121.528 19.431 121.948 19.431 122.451V126H18.183V119.11H19.379V120.943L19.184 120.475C19.4007 120.024 19.7343 119.673 20.185 119.422C20.6357 119.171 21.16 119.045 21.758 119.045C22.4167 119.045 22.9843 119.21 23.461 119.539C23.9377 119.86 24.2497 120.349 24.397 121.008L23.89 120.8C24.098 120.271 24.462 119.847 24.982 119.526C25.502 119.205 26.1087 119.045 26.802 119.045ZM34.8183 126.078C34.229 126.078 33.709 125.97 33.2583 125.753C32.8163 125.536 32.4697 125.207 32.2183 124.765C31.9757 124.314 31.8543 123.751 31.8543 123.075V119.11H33.1023V122.932C33.1023 123.608 33.2627 124.115 33.5833 124.453C33.9127 124.791 34.372 124.96 34.9613 124.96C35.3947 124.96 35.7717 124.873 36.0923 124.7C36.413 124.518 36.66 124.258 36.8333 123.92C37.0067 123.573 37.0933 123.157 37.0933 122.672V119.11H38.3413V126H37.1583V124.141L37.3533 124.635C37.128 125.094 36.79 125.45 36.3393 125.701C35.8887 125.952 35.3817 126.078 34.8183 126.078ZM43.5642 126.078C42.8968 126.078 42.2988 125.931 41.7702 125.636C41.2502 125.341 40.8385 124.93 40.5352 124.401C40.2318 123.872 40.0802 123.257 40.0802 122.555C40.0802 121.853 40.2318 121.242 40.5352 120.722C40.8385 120.193 41.2502 119.782 41.7702 119.487C42.2988 119.192 42.8968 119.045 43.5642 119.045C44.1448 119.045 44.6692 119.175 45.1372 119.435C45.6052 119.695 45.9778 120.085 46.2552 120.605C46.5412 121.125 46.6842 121.775 46.6842 122.555C46.6842 123.335 46.5455 123.985 46.2682 124.505C45.9995 125.025 45.6312 125.419 45.1632 125.688C44.6952 125.948 44.1622 126.078 43.5642 126.078ZM43.6682 124.986C44.1015 124.986 44.4915 124.886 44.8382 124.687C45.1935 124.488 45.4708 124.206 45.6702 123.842C45.8782 123.469 45.9822 123.04 45.9822 122.555C45.9822 122.061 45.8782 121.636 45.6702 121.281C45.4708 120.917 45.1935 120.635 44.8382 120.436C44.4915 120.237 44.1015 120.137 43.6682 120.137C43.2262 120.137 42.8318 120.237 42.4852 120.436C42.1385 120.635 41.8612 120.917 41.6532 121.281C41.4452 121.636 41.3412 122.061 41.3412 122.555C41.3412 123.04 41.4452 123.469 41.6532 123.842C41.8612 124.206 42.1385 124.488 42.4852 124.687C42.8318 124.886 43.2262 124.986 43.6682 124.986ZM46.0212 126V124.141L46.0992 122.542L45.9692 120.943V116.354H47.2172V126H46.0212ZM53.8555 126V124.544L53.7905 124.271V121.788C53.7905 121.259 53.6345 120.852 53.3225 120.566C53.0192 120.271 52.5598 120.124 51.9445 120.124C51.5372 120.124 51.1385 120.193 50.7485 120.332C50.3585 120.462 50.0292 120.64 49.7605 120.865L49.2405 119.929C49.5958 119.643 50.0205 119.426 50.5145 119.279C51.0172 119.123 51.5415 119.045 52.0875 119.045C53.0322 119.045 53.7602 119.275 54.2715 119.734C54.7828 120.193 55.0385 120.895 55.0385 121.84V126H53.8555ZM51.5935 126.078C51.0822 126.078 50.6315 125.991 50.2415 125.818C49.8602 125.645 49.5655 125.406 49.3575 125.103C49.1495 124.791 49.0455 124.44 49.0455 124.05C49.0455 123.677 49.1322 123.339 49.3055 123.036C49.4875 122.733 49.7778 122.49 50.1765 122.308C50.5838 122.126 51.1298 122.035 51.8145 122.035H53.9985V122.932H51.8665C51.2425 122.932 50.8222 123.036 50.6055 123.244C50.3888 123.452 50.2805 123.703 50.2805 123.998C50.2805 124.336 50.4148 124.609 50.6835 124.817C50.9522 125.016 51.3248 125.116 51.8015 125.116C52.2695 125.116 52.6768 125.012 53.0235 124.804C53.3788 124.596 53.6345 124.293 53.7905 123.894L54.0375 124.752C53.8728 125.159 53.5825 125.484 53.1665 125.727C52.7505 125.961 52.2262 126.078 51.5935 126.078ZM61.027 119.045C61.5904 119.045 62.0844 119.153 62.509 119.37C62.9424 119.587 63.2804 119.916 63.523 120.358C63.7657 120.8 63.887 121.359 63.887 122.035V126H62.639V122.178C62.639 121.511 62.4744 121.008 62.145 120.67C61.8244 120.332 61.3694 120.163 60.78 120.163C60.338 120.163 59.9524 120.25 59.623 120.423C59.2937 120.596 59.038 120.852 58.856 121.19C58.6827 121.528 58.596 121.948 58.596 122.451V126H57.348V116.354H58.596V120.969L58.349 120.475C58.5744 120.024 58.921 119.673 59.389 119.422C59.857 119.171 60.403 119.045 61.027 119.045ZM72.5349 126.078C71.8675 126.078 71.2695 125.931 70.7409 125.636C70.2209 125.341 69.8092 124.93 69.5059 124.401C69.2025 123.872 69.0509 123.257 69.0509 122.555C69.0509 121.853 69.2025 121.242 69.5059 120.722C69.8092 120.193 70.2209 119.782 70.7409 119.487C71.2695 119.192 71.8675 119.045 72.5349 119.045C73.1155 119.045 73.6399 119.175 74.1079 119.435C74.5759 119.695 74.9485 120.085 75.2259 120.605C75.5119 121.125 75.6549 121.775 75.6549 122.555C75.6549 123.335 75.5162 123.985 75.2389 124.505C74.9702 125.025 74.6019 125.419 74.1339 125.688C73.6659 125.948 73.1329 126.078 72.5349 126.078ZM72.6389 124.986C73.0722 124.986 73.4622 124.886 73.8089 124.687C74.1642 124.488 74.4415 124.206 74.6409 123.842C74.8489 123.469 74.9529 123.04 74.9529 122.555C74.9529 122.061 74.8489 121.636 74.6409 121.281C74.4415 120.917 74.1642 120.635 73.8089 120.436C73.4622 120.237 73.0722 120.137 72.6389 120.137C72.1969 120.137 71.8025 120.237 71.4559 120.436C71.1092 120.635 70.8319 120.917 70.6239 121.281C70.4159 121.636 70.3119 122.061 70.3119 122.555C70.3119 123.04 70.4159 123.469 70.6239 123.842C70.8319 124.206 71.1092 124.488 71.4559 124.687C71.8025 124.886 72.1969 124.986 72.6389 124.986ZM74.9919 126V124.141L75.0699 122.542L74.9399 120.943V116.354H76.1879V126H74.9919ZM78.5492 126V119.11H79.7972V126H78.5492ZM79.1732 117.784C78.9305 117.784 78.7269 117.706 78.5622 117.55C78.4062 117.394 78.3282 117.203 78.3282 116.978C78.3282 116.744 78.4062 116.549 78.5622 116.393C78.7269 116.237 78.9305 116.159 79.1732 116.159C79.4159 116.159 79.6152 116.237 79.7712 116.393C79.9359 116.54 80.0182 116.727 80.0182 116.952C80.0182 117.186 79.9402 117.385 79.7842 117.55C79.6282 117.706 79.4245 117.784 79.1732 117.784ZM85.1961 128.6C84.5634 128.6 83.9481 128.509 83.3501 128.327C82.7607 128.154 82.2797 127.902 81.9071 127.573L82.5051 126.611C82.8257 126.888 83.2201 127.105 83.6881 127.261C84.1561 127.426 84.6457 127.508 85.1571 127.508C85.9717 127.508 86.5697 127.317 86.9511 126.936C87.3324 126.555 87.5231 125.974 87.5231 125.194V123.738L87.6531 122.373L87.5881 120.995V119.11H88.7711V125.064C88.7711 126.277 88.4677 127.17 87.8611 127.742C87.2544 128.314 86.3661 128.6 85.1961 128.6ZM85.0401 125.714C84.3727 125.714 83.7747 125.575 83.2461 125.298C82.7261 125.012 82.3101 124.618 81.9981 124.115C81.6947 123.612 81.5431 123.032 81.5431 122.373C81.5431 121.706 81.6947 121.125 81.9981 120.631C82.3101 120.128 82.7261 119.738 83.2461 119.461C83.7747 119.184 84.3727 119.045 85.0401 119.045C85.6294 119.045 86.1667 119.166 86.6521 119.409C87.1374 119.643 87.5231 120.007 87.8091 120.501C88.1037 120.995 88.2511 121.619 88.2511 122.373C88.2511 123.118 88.1037 123.738 87.8091 124.232C87.5231 124.726 87.1374 125.099 86.6521 125.35C86.1667 125.593 85.6294 125.714 85.0401 125.714ZM85.1831 124.622C85.6424 124.622 86.0497 124.527 86.4051 124.336C86.7604 124.145 87.0377 123.881 87.2371 123.543C87.4451 123.205 87.5491 122.815 87.5491 122.373C87.5491 121.931 87.4451 121.541 87.2371 121.203C87.0377 120.865 86.7604 120.605 86.4051 120.423C86.0497 120.232 85.6424 120.137 85.1831 120.137C84.7237 120.137 84.3121 120.232 83.9481 120.423C83.5927 120.605 83.3111 120.865 83.1031 121.203C82.9037 121.541 82.8041 121.931 82.8041 122.373C82.8041 122.815 82.9037 123.205 83.1031 123.543C83.3111 123.881 83.5927 124.145 83.9481 124.336C84.3121 124.527 84.7237 124.622 85.1831 124.622ZM94.0547 126.078C93.4653 126.078 92.9453 125.97 92.4947 125.753C92.0527 125.536 91.706 125.207 91.4547 124.765C91.212 124.314 91.0907 123.751 91.0907 123.075V119.11H92.3387V122.932C92.3387 123.608 92.499 124.115 92.8197 124.453C93.149 124.791 93.6083 124.96 94.1977 124.96C94.631 124.96 95.008 124.873 95.3287 124.7C95.6493 124.518 95.8963 124.258 96.0697 123.92C96.243 123.573 96.3297 123.157 96.3297 122.672V119.11H97.5777V126H96.3947V124.141L96.5897 124.635C96.3643 125.094 96.0263 125.45 95.5757 125.701C95.125 125.952 94.618 126.078 94.0547 126.078ZM103.633 119.045C104.196 119.045 104.69 119.153 105.115 119.37C105.548 119.587 105.886 119.916 106.129 120.358C106.371 120.8 106.493 121.359 106.493 122.035V126H105.245V122.178C105.245 121.511 105.08 121.008 104.751 120.67C104.43 120.332 103.975 120.163 103.386 120.163C102.944 120.163 102.558 120.25 102.229 120.423C101.899 120.596 101.644 120.852 101.462 121.19C101.288 121.528 101.202 121.948 101.202 122.451V126H99.9535V119.11H101.15V120.969L100.955 120.475C101.18 120.024 101.527 119.673 101.995 119.422C102.463 119.171 103.009 119.045 103.633 119.045ZM113.079 126V124.544L113.014 124.271V121.788C113.014 121.259 112.858 120.852 112.546 120.566C112.243 120.271 111.783 120.124 111.168 120.124C110.761 120.124 110.362 120.193 109.972 120.332C109.582 120.462 109.253 120.64 108.984 120.865L108.464 119.929C108.819 119.643 109.244 119.426 109.738 119.279C110.241 119.123 110.765 119.045 111.311 119.045C112.256 119.045 112.984 119.275 113.495 119.734C114.006 120.193 114.262 120.895 114.262 121.84V126H113.079ZM110.817 126.078C110.306 126.078 109.855 125.991 109.465 125.818C109.084 125.645 108.789 125.406 108.581 125.103C108.373 124.791 108.269 124.44 108.269 124.05C108.269 123.677 108.356 123.339 108.529 123.036C108.711 122.733 109.001 122.49 109.4 122.308C109.807 122.126 110.353 122.035 111.038 122.035H113.222V122.932H111.09C110.466 122.932 110.046 123.036 109.829 123.244C109.612 123.452 109.504 123.703 109.504 123.998C109.504 124.336 109.638 124.609 109.907 124.817C110.176 125.016 110.548 125.116 111.025 125.116C111.493 125.116 111.9 125.012 112.247 124.804C112.602 124.596 112.858 124.293 113.014 123.894L113.261 124.752C113.096 125.159 112.806 125.484 112.39 125.727C111.974 125.961 111.45 126.078 110.817 126.078ZM117.586 124.336L117.612 122.737L121.577 119.11H123.085L120.043 122.1L119.367 122.672L117.586 124.336ZM116.572 126V116.354H117.82V126H116.572ZM121.837 126L119.133 122.646L119.939 121.645L123.371 126H121.837ZM128.732 126V124.544L128.667 124.271V121.788C128.667 121.259 128.511 120.852 128.199 120.566C127.896 120.271 127.437 120.124 126.821 120.124C126.414 120.124 126.015 120.193 125.625 120.332C125.235 120.462 124.906 120.64 124.637 120.865L124.117 119.929C124.473 119.643 124.897 119.426 125.391 119.279C125.894 119.123 126.418 119.045 126.964 119.045C127.909 119.045 128.637 119.275 129.148 119.734C129.66 120.193 129.915 120.895 129.915 121.84V126H128.732ZM126.47 126.078C125.959 126.078 125.508 125.991 125.118 125.818C124.737 125.645 124.442 125.406 124.234 125.103C124.026 124.791 123.922 124.44 123.922 124.05C123.922 123.677 124.009 123.339 124.182 123.036C124.364 122.733 124.655 122.49 125.053 122.308C125.461 122.126 126.007 122.035 126.691 122.035H128.875V122.932H126.743C126.119 122.932 125.699 123.036 125.482 123.244C125.266 123.452 125.157 123.703 125.157 123.998C125.157 124.336 125.292 124.609 125.56 124.817C125.829 125.016 126.202 125.116 126.678 125.116C127.146 125.116 127.554 125.012 127.9 124.804C128.256 124.596 128.511 124.293 128.667 123.894L128.914 124.752C128.75 125.159 128.459 125.484 128.043 125.727C127.627 125.961 127.103 126.078 126.47 126.078ZM135.904 119.045C136.467 119.045 136.961 119.153 137.386 119.37C137.819 119.587 138.157 119.916 138.4 120.358C138.643 120.8 138.764 121.359 138.764 122.035V126H137.516V122.178C137.516 121.511 137.351 121.008 137.022 120.67C136.701 120.332 136.246 120.163 135.657 120.163C135.215 120.163 134.829 120.25 134.5 120.423C134.171 120.596 133.915 120.852 133.733 121.19C133.56 121.528 133.473 121.948 133.473 122.451V126H132.225V119.11H133.421V120.969L133.226 120.475C133.451 120.024 133.798 119.673 134.266 119.422C134.734 119.171 135.28 119.045 135.904 119.045ZM141.373 126.078C141.13 126.078 140.922 125.996 140.749 125.831C140.575 125.658 140.489 125.441 140.489 125.181C140.489 124.921 140.575 124.709 140.749 124.544C140.922 124.379 141.13 124.297 141.373 124.297C141.607 124.297 141.806 124.379 141.971 124.544C142.144 124.709 142.231 124.921 142.231 125.181C142.231 125.441 142.144 125.658 141.971 125.831C141.806 125.996 141.607 126.078 141.373 126.078Z" fill="white" fill-opacity="0.8"/>
<circle cx="37" cy="36" r="20" fill="white" fill-opacity="0.1"/>
<path d="M44.965 32.521C44.988 32.347 45 32.173 45 32C45 29.621 42.857 27.712 40.479 28.035C39.786 26.802 38.466 26 37 26C35.534 26 34.214 26.802 33.521 28.035C31.138 27.712 29 29.621 29 32C29 32.173 29.012 32.347 29.035 32.521C27.802 33.215 27 34.535 27 36C27 37.465 27.802 38.785 29.035 39.479C29.0119 39.6517 29.0002 39.8258 29 40C29 42.379 31.138 44.283 33.521 43.965C34.214 45.198 35.534 46 37 46C38.466 46 39.786 45.198 40.479 43.965C42.857 44.283 45 42.379 45 40C45 39.827 44.988 39.653 44.965 39.479C46.198 38.785 47 37.465 47 36C47 34.535 46.198 33.215 44.965 32.521ZM35.955 40.416L32.288 36.702L33.712 35.298L35.969 37.584L40.296 33.29L41.704 34.71L35.955 40.416Z" fill="white" fill-opacity="0.5"/>
</svg>
