<svg width="300" height="160" viewBox="0 0 300 160" fill="none" xmlns="http://www.w3.org/2000/svg">
<rect width="300" height="160" rx="10" fill="#0C0E12"/>
<rect x="1" y="1" width="298" height="158" rx="9" stroke="white" stroke-opacity="0.07" stroke-width="2"/>
<path d="M73.88 43V29H76.48V40.8H83.8V43H73.88ZM92.2122 43V40.84L92.0722 40.38V36.6C92.0722 35.8667 91.8522 35.3 91.4122 34.9C90.9722 34.4867 90.3055 34.28 89.4122 34.28C88.8122 34.28 88.2189 34.3733 87.6322 34.56C87.0589 34.7467 86.5722 35.0067 86.1722 35.34L85.1922 33.52C85.7655 33.08 86.4455 32.7533 87.2322 32.54C88.0322 32.3133 88.8589 32.2 89.7122 32.2C91.2589 32.2 92.4522 32.5733 93.2922 33.32C94.1455 34.0533 94.5722 35.1933 94.5722 36.74V43H92.2122ZM88.8522 43.14C88.0522 43.14 87.3522 43.0067 86.7522 42.74C86.1522 42.46 85.6855 42.08 85.3522 41.6C85.0322 41.1067 84.8722 40.5533 84.8722 39.94C84.8722 39.34 85.0122 38.8 85.2922 38.32C85.5855 37.84 86.0589 37.46 86.7122 37.18C87.3655 36.9 88.2322 36.76 89.3122 36.76H92.4122V38.42H89.4922C88.6389 38.42 88.0655 38.56 87.7722 38.84C87.4789 39.1067 87.3322 39.44 87.3322 39.84C87.3322 40.2933 87.5122 40.6533 87.8722 40.92C88.2322 41.1867 88.7322 41.32 89.3722 41.32C89.9855 41.32 90.5322 41.18 91.0122 40.9C91.5055 40.62 91.8589 40.2067 92.0722 39.66L92.4922 41.16C92.2522 41.7867 91.8189 42.2733 91.1922 42.62C90.5789 42.9667 89.7989 43.14 88.8522 43.14ZM98.4653 47.02C97.9453 47.02 97.4253 46.9333 96.9053 46.76C96.3853 46.5867 95.952 46.3467 95.6053 46.04L96.6053 44.2C96.8586 44.4267 97.1453 44.6067 97.4653 44.74C97.7853 44.8733 98.112 44.94 98.4453 44.94C98.8986 44.94 99.2653 44.8267 99.5453 44.6C99.8253 44.3733 100.085 43.9933 100.325 43.46L100.945 42.06L101.145 41.76L105.185 32.32H107.585L102.585 43.86C102.252 44.66 101.879 45.2933 101.465 45.76C101.065 46.2267 100.612 46.5533 100.105 46.74C99.612 46.9267 99.0653 47.02 98.4653 47.02ZM100.665 43.38L95.8453 32.32H98.4453L102.365 41.54L100.665 43.38ZM115.396 43V40.84L115.256 40.38V36.6C115.256 35.8667 115.036 35.3 114.596 34.9C114.156 34.4867 113.489 34.28 112.596 34.28C111.996 34.28 111.402 34.3733 110.816 34.56C110.242 34.7467 109.756 35.0067 109.356 35.34L108.376 33.52C108.949 33.08 109.629 32.7533 110.416 32.54C111.216 32.3133 112.042 32.2 112.896 32.2C114.442 32.2 115.636 32.5733 116.476 33.32C117.329 34.0533 117.756 35.1933 117.756 36.74V43H115.396ZM112.036 43.14C111.236 43.14 110.536 43.0067 109.936 42.74C109.336 42.46 108.869 42.08 108.536 41.6C108.216 41.1067 108.056 40.5533 108.056 39.94C108.056 39.34 108.196 38.8 108.476 38.32C108.769 37.84 109.242 37.46 109.896 37.18C110.549 36.9 111.416 36.76 112.496 36.76H115.596V38.42H112.676C111.822 38.42 111.249 38.56 110.956 38.84C110.662 39.1067 110.516 39.44 110.516 39.84C110.516 40.2933 110.696 40.6533 111.056 40.92C111.416 41.1867 111.916 41.32 112.556 41.32C113.169 41.32 113.716 41.18 114.196 40.9C114.689 40.62 115.042 40.2067 115.256 39.66L115.676 41.16C115.436 41.7867 115.002 42.2733 114.376 42.62C113.762 42.9667 112.982 43.14 112.036 43.14ZM127.024 32.2C127.878 32.2 128.638 32.3667 129.304 32.7C129.984 33.0333 130.518 33.5467 130.904 34.24C131.291 34.92 131.484 35.8 131.484 36.88V43H128.984V37.2C128.984 36.2533 128.758 35.5467 128.304 35.08C127.864 34.6133 127.244 34.38 126.444 34.38C125.858 34.38 125.338 34.5 124.884 34.74C124.431 34.98 124.078 35.34 123.824 35.82C123.584 36.2867 123.464 36.88 123.464 37.6V43H120.964V32.32H123.344V35.2L122.924 34.32C123.298 33.64 123.838 33.12 124.544 32.76C125.264 32.3867 126.091 32.2 127.024 32.2ZM141.236 43V40.84L141.096 40.38V36.6C141.096 35.8667 140.876 35.3 140.436 34.9C139.996 34.4867 139.329 34.28 138.436 34.28C137.836 34.28 137.242 34.3733 136.656 34.56C136.082 34.7467 135.596 35.0067 135.196 35.34L134.216 33.52C134.789 33.08 135.469 32.7533 136.256 32.54C137.056 32.3133 137.882 32.2 138.736 32.2C140.282 32.2 141.476 32.5733 142.316 33.32C143.169 34.0533 143.596 35.1933 143.596 36.74V43H141.236ZM137.876 43.14C137.076 43.14 136.376 43.0067 135.776 42.74C135.176 42.46 134.709 42.08 134.376 41.6C134.056 41.1067 133.896 40.5533 133.896 39.94C133.896 39.34 134.036 38.8 134.316 38.32C134.609 37.84 135.082 37.46 135.736 37.18C136.389 36.9 137.256 36.76 138.336 36.76H141.436V38.42H138.516C137.662 38.42 137.089 38.56 136.796 38.84C136.502 39.1067 136.356 39.44 136.356 39.84C136.356 40.2933 136.536 40.6533 136.896 40.92C137.256 41.1867 137.756 41.32 138.396 41.32C139.009 41.32 139.556 41.18 140.036 40.9C140.529 40.62 140.882 40.2067 141.096 39.66L141.516 41.16C141.276 41.7867 140.842 42.2733 140.216 42.62C139.602 42.9667 138.822 43.14 137.876 43.14ZM152.864 32.2C153.717 32.2 154.477 32.3667 155.144 32.7C155.824 33.0333 156.357 33.5467 156.744 34.24C157.131 34.92 157.324 35.8 157.324 36.88V43H154.824V37.2C154.824 36.2533 154.597 35.5467 154.144 35.08C153.704 34.6133 153.084 34.38 152.284 34.38C151.697 34.38 151.177 34.5 150.724 34.74C150.271 34.98 149.917 35.34 149.664 35.82C149.424 36.2867 149.304 36.88 149.304 37.6V43H146.804V32.32H149.184V35.2L148.764 34.32C149.137 33.64 149.677 33.12 150.384 32.76C151.104 32.3867 151.931 32.2 152.864 32.2ZM165.083 43V41.26L170.643 35.98C171.109 35.54 171.456 35.1533 171.683 34.82C171.909 34.4867 172.056 34.18 172.123 33.9C172.203 33.6067 172.243 33.3333 172.243 33.08C172.243 32.44 172.023 31.9467 171.583 31.6C171.143 31.24 170.496 31.06 169.643 31.06C168.963 31.06 168.343 31.18 167.783 31.42C167.236 31.66 166.763 32.0267 166.363 32.52L164.543 31.12C165.089 30.3867 165.823 29.82 166.743 29.42C167.676 29.0067 168.716 28.8 169.863 28.8C170.876 28.8 171.756 28.9667 172.503 29.3C173.263 29.62 173.843 30.08 174.243 30.68C174.656 31.28 174.863 31.9933 174.863 32.82C174.863 33.2733 174.803 33.7267 174.683 34.18C174.563 34.62 174.336 35.0867 174.003 35.58C173.669 36.0733 173.183 36.6267 172.543 37.24L167.763 41.78L167.223 40.8H175.403V43H165.083ZM176.41 39.82V38.02L183.31 29H186.09L179.29 38.02L177.99 37.62H189.09V39.82H176.41ZM184.09 43V39.82L184.17 37.62V34.8H186.61V43H184.09ZM189.212 45L195.813 26.16H198.053L191.453 45H189.212ZM200.63 43L206.41 30.04L207.09 31.2H199.15L200.39 29.94V33.58H197.97V29H208.85V30.74L203.41 43H200.63Z" fill="white"/>
<path d="M21.017 84.104C20.3237 84.104 19.6607 84 19.028 83.792C18.3953 83.5753 17.897 83.298 17.533 82.96L18.014 81.946C18.3607 82.2493 18.8027 82.5007 19.34 82.7C19.8773 82.8993 20.4363 82.999 21.017 82.999C21.5457 82.999 21.9747 82.9383 22.304 82.817C22.6333 82.6957 22.876 82.531 23.032 82.323C23.188 82.1063 23.266 81.8637 23.266 81.595C23.266 81.283 23.162 81.0317 22.954 80.841C22.7547 80.6503 22.4903 80.4987 22.161 80.386C21.8403 80.2647 21.485 80.1607 21.095 80.074C20.705 79.9873 20.3107 79.8877 19.912 79.775C19.522 79.6537 19.1623 79.502 18.833 79.32C18.5123 79.138 18.2523 78.8953 18.053 78.592C17.8537 78.28 17.754 77.8813 17.754 77.396C17.754 76.928 17.8753 76.499 18.118 76.109C18.3693 75.7103 18.7507 75.394 19.262 75.16C19.782 74.9173 20.4407 74.796 21.238 74.796C21.7667 74.796 22.291 74.8653 22.811 75.004C23.331 75.1427 23.7817 75.342 24.163 75.602L23.734 76.642C23.344 76.382 22.9323 76.1957 22.499 76.083C22.0657 75.9617 21.6453 75.901 21.238 75.901C20.7267 75.901 20.3063 75.966 19.977 76.096C19.6477 76.226 19.405 76.3993 19.249 76.616C19.1017 76.8327 19.028 77.0753 19.028 77.344C19.028 77.6647 19.1277 77.9203 19.327 78.111C19.535 78.3017 19.7993 78.4533 20.12 78.566C20.4493 78.6787 20.809 78.7827 21.199 78.878C21.589 78.9647 21.979 79.0643 22.369 79.177C22.7677 79.2897 23.1273 79.437 23.448 79.619C23.7773 79.801 24.0417 80.0437 24.241 80.347C24.4403 80.6503 24.54 81.0403 24.54 81.517C24.54 81.9763 24.4143 82.4053 24.163 82.804C23.9117 83.194 23.5217 83.5103 22.993 83.753C22.473 83.987 21.8143 84.104 21.017 84.104ZM29.3252 84.078C28.5886 84.078 27.9386 83.9263 27.3752 83.623C26.8206 83.3197 26.3872 82.9037 26.0752 82.375C25.7719 81.8463 25.6202 81.2397 25.6202 80.555C25.6202 79.8703 25.7676 79.2637 26.0622 78.735C26.3656 78.2063 26.7772 77.7947 27.2972 77.5C27.8259 77.1967 28.4196 77.045 29.0782 77.045C29.7456 77.045 30.3349 77.1923 30.8462 77.487C31.3576 77.7817 31.7562 78.1977 32.0422 78.735C32.3369 79.2637 32.4842 79.8833 32.4842 80.594C32.4842 80.646 32.4799 80.7067 32.4712 80.776C32.4712 80.8453 32.4669 80.9103 32.4582 80.971H26.5952V80.074H31.8082L31.3012 80.386C31.3099 79.944 31.2189 79.5497 31.0282 79.203C30.8376 78.8563 30.5732 78.5877 30.2352 78.397C29.9059 78.1977 29.5202 78.098 29.0782 78.098C28.6449 78.098 28.2592 78.1977 27.9212 78.397C27.5832 78.5877 27.3189 78.8607 27.1282 79.216C26.9376 79.5627 26.8422 79.9613 26.8422 80.412V80.62C26.8422 81.0793 26.9462 81.491 27.1542 81.855C27.3709 82.2103 27.6699 82.4877 28.0512 82.687C28.4326 82.8863 28.8702 82.986 29.3642 82.986C29.7716 82.986 30.1399 82.9167 30.4692 82.778C30.8072 82.6393 31.1019 82.4313 31.3532 82.154L32.0422 82.96C31.7302 83.324 31.3402 83.6013 30.8722 83.792C30.4129 83.9827 29.8972 84.078 29.3252 84.078ZM37.8962 77.045C38.4595 77.045 38.9535 77.1533 39.3782 77.37C39.8115 77.5867 40.1495 77.916 40.3922 78.358C40.6348 78.8 40.7562 79.359 40.7562 80.035V84H39.5082V80.178C39.5082 79.5107 39.3435 79.008 39.0142 78.67C38.6935 78.332 38.2385 78.163 37.6492 78.163C37.2072 78.163 36.8215 78.2497 36.4922 78.423C36.1628 78.5963 35.9072 78.852 35.7252 79.19C35.5518 79.528 35.4652 79.9483 35.4652 80.451V84H34.2172V77.11H35.4132V78.969L35.2182 78.475C35.4435 78.0243 35.7902 77.6733 36.2582 77.422C36.7262 77.1707 37.2722 77.045 37.8962 77.045ZM45.4318 84.078C44.7385 84.078 44.2011 83.8917 43.8198 83.519C43.4385 83.1463 43.2478 82.6133 43.2478 81.92V75.602H44.4958V81.868C44.4958 82.2407 44.5868 82.5267 44.7688 82.726C44.9595 82.9253 45.2281 83.025 45.5748 83.025C45.9648 83.025 46.2898 82.9167 46.5498 82.7L46.9398 83.597C46.7491 83.7617 46.5195 83.883 46.2508 83.961C45.9908 84.039 45.7178 84.078 45.4318 84.078ZM42.0778 78.137V77.11H46.4718V78.137H42.0778ZM48.4486 84V77.11H49.6446V78.982L49.5276 78.514C49.7183 78.0373 50.039 77.6733 50.4896 77.422C50.9403 77.1707 51.495 77.045 52.1536 77.045V78.254C52.1016 78.2453 52.0496 78.241 51.9976 78.241C51.9543 78.241 51.911 78.241 51.8676 78.241C51.2003 78.241 50.6716 78.4403 50.2816 78.839C49.8916 79.2377 49.6966 79.814 49.6966 80.568V84H48.4486ZM57.461 84V82.544L57.396 82.271V79.788C57.396 79.2593 57.24 78.852 56.928 78.566C56.6246 78.2713 56.1653 78.124 55.55 78.124C55.1426 78.124 54.744 78.1933 54.354 78.332C53.964 78.462 53.6346 78.6397 53.366 78.865L52.846 77.929C53.2013 77.643 53.626 77.4263 54.12 77.279C54.6226 77.123 55.147 77.045 55.693 77.045C56.6376 77.045 57.3656 77.2747 57.877 77.734C58.3883 78.1933 58.644 78.8953 58.644 79.84V84H57.461ZM55.199 84.078C54.6876 84.078 54.237 83.9913 53.847 83.818C53.4656 83.6447 53.171 83.4063 52.963 83.103C52.755 82.791 52.651 82.44 52.651 82.05C52.651 81.6773 52.7376 81.3393 52.911 81.036C53.093 80.7327 53.3833 80.49 53.782 80.308C54.1893 80.126 54.7353 80.035 55.42 80.035H57.604V80.932H55.472C54.848 80.932 54.4276 81.036 54.211 81.244C53.9943 81.452 53.886 81.7033 53.886 81.998C53.886 82.336 54.0203 82.609 54.289 82.817C54.5576 83.0163 54.9303 83.116 55.407 83.116C55.875 83.116 56.2823 83.012 56.629 82.804C56.9843 82.596 57.24 82.2927 57.396 81.894L57.643 82.752C57.4783 83.1593 57.188 83.4843 56.772 83.727C56.356 83.961 55.8316 84.078 55.199 84.078ZM64.6267 84V74.9H68.4617C69.4324 74.9 70.2861 75.0907 71.0227 75.472C71.7681 75.8533 72.3444 76.3863 72.7517 77.071C73.1677 77.7557 73.3757 78.5487 73.3757 79.45C73.3757 80.3513 73.1677 81.1443 72.7517 81.829C72.3444 82.5137 71.7681 83.0467 71.0227 83.428C70.2861 83.8093 69.4324 84 68.4617 84H64.6267ZM65.9267 82.869H68.3837C69.1377 82.869 69.7877 82.726 70.3337 82.44C70.8884 82.154 71.3174 81.7553 71.6207 81.244C71.9241 80.724 72.0757 80.126 72.0757 79.45C72.0757 78.7653 71.9241 78.1673 71.6207 77.656C71.3174 77.1447 70.8884 76.746 70.3337 76.46C69.7877 76.174 69.1377 76.031 68.3837 76.031H65.9267V82.869ZM79.462 84V82.544L79.397 82.271V79.788C79.397 79.2593 79.241 78.852 78.929 78.566C78.6256 78.2713 78.1663 78.124 77.551 78.124C77.1436 78.124 76.745 78.1933 76.355 78.332C75.965 78.462 75.6356 78.6397 75.367 78.865L74.847 77.929C75.2023 77.643 75.627 77.4263 76.121 77.279C76.6236 77.123 77.148 77.045 77.694 77.045C78.6386 77.045 79.3666 77.2747 79.878 77.734C80.3893 78.1933 80.645 78.8953 80.645 79.84V84H79.462ZM77.2 84.078C76.6886 84.078 76.238 83.9913 75.848 83.818C75.4666 83.6447 75.172 83.4063 74.964 83.103C74.756 82.791 74.652 82.44 74.652 82.05C74.652 81.6773 74.7386 81.3393 74.912 81.036C75.094 80.7327 75.3843 80.49 75.783 80.308C76.1903 80.126 76.7363 80.035 77.421 80.035H79.605V80.932H77.473C76.849 80.932 76.4286 81.036 76.212 81.244C75.9953 81.452 75.887 81.7033 75.887 81.998C75.887 82.336 76.0213 82.609 76.29 82.817C76.5586 83.0163 76.9313 83.116 77.408 83.116C77.876 83.116 78.2833 83.012 78.63 82.804C78.9853 82.596 79.241 82.2927 79.397 81.894L79.644 82.752C79.4793 83.1593 79.189 83.4843 78.773 83.727C78.357 83.961 77.8326 84.078 77.2 84.078ZM82.9545 84V77.11H84.1505V78.982L84.0335 78.514C84.2242 78.0373 84.5448 77.6733 84.9955 77.422C85.4462 77.1707 86.0008 77.045 86.6595 77.045V78.254C86.6075 78.2453 86.5555 78.241 86.5035 78.241C86.4602 78.241 86.4168 78.241 86.3735 78.241C85.7062 78.241 85.1775 78.4403 84.7875 78.839C84.3975 79.2377 84.2025 79.814 84.2025 80.568V84H82.9545ZM91.1855 84.078C90.5962 84.078 90.0762 83.9697 89.6255 83.753C89.1835 83.5363 88.8368 83.207 88.5855 82.765C88.3428 82.3143 88.2215 81.751 88.2215 81.075V77.11H89.4695V80.932C89.4695 81.608 89.6298 82.115 89.9505 82.453C90.2798 82.791 90.7392 82.96 91.3285 82.96C91.7618 82.96 92.1388 82.8733 92.4595 82.7C92.7802 82.518 93.0272 82.258 93.2005 81.92C93.3738 81.5733 93.4605 81.1573 93.4605 80.672V77.11H94.7085V84H93.5255V82.141L93.7205 82.635C93.4952 83.0943 93.1572 83.4497 92.7065 83.701C92.2558 83.9523 91.7488 84.078 91.1855 84.078ZM97.0844 84V77.11H98.2804V78.982L98.1634 78.514C98.354 78.0373 98.6747 77.6733 99.1254 77.422C99.576 77.1707 100.131 77.045 100.789 77.045V78.254C100.737 78.2453 100.685 78.241 100.633 78.241C100.59 78.241 100.547 78.241 100.503 78.241C99.836 78.241 99.3074 78.4403 98.9174 78.839C98.5274 79.2377 98.3324 79.814 98.3324 80.568V84H97.0844ZM106.097 84V82.544L106.032 82.271V79.788C106.032 79.2593 105.876 78.852 105.564 78.566C105.26 78.2713 104.801 78.124 104.186 78.124C103.778 78.124 103.38 78.1933 102.99 78.332C102.6 78.462 102.27 78.6397 102.002 78.865L101.482 77.929C101.837 77.643 102.262 77.4263 102.756 77.279C103.258 77.123 103.783 77.045 104.329 77.045C105.273 77.045 106.001 77.2747 106.513 77.734C107.024 78.1933 107.28 78.8953 107.28 79.84V84H106.097ZM103.835 84.078C103.323 84.078 102.873 83.9913 102.483 83.818C102.101 83.6447 101.807 83.4063 101.599 83.103C101.391 82.791 101.287 82.44 101.287 82.05C101.287 81.6773 101.373 81.3393 101.547 81.036C101.729 80.7327 102.019 80.49 102.418 80.308C102.825 80.126 103.371 80.035 104.056 80.035H106.24V80.932H104.108C103.484 80.932 103.063 81.036 102.847 81.244C102.63 81.452 102.522 81.7033 102.522 81.998C102.522 82.336 102.656 82.609 102.925 82.817C103.193 83.0163 103.566 83.116 104.043 83.116C104.511 83.116 104.918 83.012 105.265 82.804C105.62 82.596 105.876 82.2927 106.032 81.894L106.279 82.752C106.114 83.1593 105.824 83.4843 105.408 83.727C104.992 83.961 104.467 84.078 103.835 84.078ZM111.955 84.078C111.262 84.078 110.725 83.8917 110.343 83.519C109.962 83.1463 109.771 82.6133 109.771 81.92V75.602H111.019V81.868C111.019 82.2407 111.11 82.5267 111.292 82.726C111.483 82.9253 111.752 83.025 112.098 83.025C112.488 83.025 112.813 82.9167 113.073 82.7L113.463 83.597C113.273 83.7617 113.043 83.883 112.774 83.961C112.514 84.039 112.241 84.078 111.955 84.078ZM108.601 78.137V77.11H112.995V78.137H108.601ZM127.082 77.045C127.637 77.045 128.127 77.1533 128.551 77.37C128.976 77.5867 129.305 77.916 129.539 78.358C129.782 78.8 129.903 79.359 129.903 80.035V84H128.655V80.178C128.655 79.5107 128.499 79.008 128.187 78.67C127.875 78.332 127.438 78.163 126.874 78.163C126.458 78.163 126.094 78.2497 125.782 78.423C125.47 78.5963 125.228 78.852 125.054 79.19C124.89 79.528 124.807 79.9483 124.807 80.451V84H123.559V80.178C123.559 79.5107 123.403 79.008 123.091 78.67C122.788 78.332 122.35 78.163 121.778 78.163C121.371 78.163 121.011 78.2497 120.699 78.423C120.387 78.5963 120.145 78.852 119.971 79.19C119.798 79.528 119.711 79.9483 119.711 80.451V84H118.463V77.11H119.659V78.943L119.464 78.475C119.681 78.0243 120.015 77.6733 120.465 77.422C120.916 77.1707 121.44 77.045 122.038 77.045C122.697 77.045 123.265 77.2097 123.741 77.539C124.218 77.8597 124.53 78.3493 124.677 79.008L124.17 78.8C124.378 78.2713 124.742 77.8467 125.262 77.526C125.782 77.2053 126.389 77.045 127.082 77.045ZM135.268 84.078C134.531 84.078 133.881 83.9263 133.318 83.623C132.763 83.3197 132.33 82.9037 132.018 82.375C131.714 81.8463 131.563 81.2397 131.563 80.555C131.563 79.8703 131.71 79.2637 132.005 78.735C132.308 78.2063 132.72 77.7947 133.24 77.5C133.768 77.1967 134.362 77.045 135.021 77.045C135.688 77.045 136.277 77.1923 136.789 77.487C137.3 77.7817 137.699 78.1977 137.985 78.735C138.279 79.2637 138.427 79.8833 138.427 80.594C138.427 80.646 138.422 80.7067 138.414 80.776C138.414 80.8453 138.409 80.9103 138.401 80.971H132.538V80.074H137.751L137.244 80.386C137.252 79.944 137.161 79.5497 136.971 79.203C136.78 78.8563 136.516 78.5877 136.178 78.397C135.848 78.1977 135.463 78.098 135.021 78.098C134.587 78.098 134.202 78.1977 133.864 78.397C133.526 78.5877 133.261 78.8607 133.071 79.216C132.88 79.5627 132.785 79.9613 132.785 80.412V80.62C132.785 81.0793 132.889 81.491 133.097 81.855C133.313 82.2103 133.612 82.4877 133.994 82.687C134.375 82.8863 134.813 82.986 135.307 82.986C135.714 82.986 136.082 82.9167 136.412 82.778C136.75 82.6393 137.044 82.4313 137.296 82.154L137.985 82.96C137.673 83.324 137.283 83.6013 136.815 83.792C136.355 83.9827 135.84 84.078 135.268 84.078ZM143.839 77.045C144.402 77.045 144.896 77.1533 145.321 77.37C145.754 77.5867 146.092 77.916 146.335 78.358C146.577 78.8 146.699 79.359 146.699 80.035V84H145.451V80.178C145.451 79.5107 145.286 79.008 144.957 78.67C144.636 78.332 144.181 78.163 143.592 78.163C143.15 78.163 142.764 78.2497 142.435 78.423C142.105 78.5963 141.85 78.852 141.668 79.19C141.494 79.528 141.408 79.9483 141.408 80.451V84H140.16V77.11H141.356V78.969L141.161 78.475C141.386 78.0243 141.733 77.6733 142.201 77.422C142.669 77.1707 143.215 77.045 143.839 77.045ZM149.18 86.6C148.851 86.6 148.53 86.5437 148.218 86.431C147.906 86.327 147.638 86.171 147.412 85.963L147.945 85.027C148.119 85.1917 148.309 85.3173 148.517 85.404C148.725 85.4907 148.946 85.534 149.18 85.534C149.484 85.534 149.735 85.456 149.934 85.3C150.134 85.144 150.32 84.8667 150.493 84.468L150.922 83.519L151.052 83.363L153.756 77.11H154.978L151.637 84.689C151.438 85.1743 151.213 85.5557 150.961 85.833C150.719 86.1103 150.45 86.3053 150.155 86.418C149.861 86.5393 149.536 86.6 149.18 86.6ZM150.818 84.221L147.672 77.11H148.972L151.65 83.246L150.818 84.221ZM159.021 84.078C158.284 84.078 157.634 83.9263 157.071 83.623C156.516 83.3197 156.083 82.9037 155.771 82.375C155.467 81.8463 155.316 81.2397 155.316 80.555C155.316 79.8703 155.463 79.2637 155.758 78.735C156.061 78.2063 156.473 77.7947 156.993 77.5C157.521 77.1967 158.115 77.045 158.774 77.045C159.441 77.045 160.03 77.1923 160.542 77.487C161.053 77.7817 161.452 78.1977 161.738 78.735C162.032 79.2637 162.18 79.8833 162.18 80.594C162.18 80.646 162.175 80.7067 162.167 80.776C162.167 80.8453 162.162 80.9103 162.154 80.971H156.291V80.074H161.504L160.997 80.386C161.005 79.944 160.914 79.5497 160.724 79.203C160.533 78.8563 160.269 78.5877 159.931 78.397C159.601 78.1977 159.216 78.098 158.774 78.098C158.34 78.098 157.955 78.1977 157.617 78.397C157.279 78.5877 157.014 78.8607 156.824 79.216C156.633 79.5627 156.538 79.9613 156.538 80.412V80.62C156.538 81.0793 156.642 81.491 156.85 81.855C157.066 82.2103 157.365 82.4877 157.747 82.687C158.128 82.8863 158.566 82.986 159.06 82.986C159.467 82.986 159.835 82.9167 160.165 82.778C160.503 82.6393 160.797 82.4313 161.049 82.154L161.738 82.96C161.426 83.324 161.036 83.6013 160.568 83.792C160.108 83.9827 159.593 84.078 159.021 84.078ZM166.759 84.078C166.092 84.078 165.494 83.9307 164.965 83.636C164.445 83.3413 164.034 82.9297 163.73 82.401C163.427 81.8723 163.275 81.257 163.275 80.555C163.275 79.853 163.427 79.242 163.73 78.722C164.034 78.1933 164.445 77.7817 164.965 77.487C165.494 77.1923 166.092 77.045 166.759 77.045C167.34 77.045 167.864 77.175 168.332 77.435C168.8 77.695 169.173 78.085 169.45 78.605C169.736 79.125 169.879 79.775 169.879 80.555C169.879 81.335 169.741 81.985 169.463 82.505C169.195 83.025 168.826 83.4193 168.358 83.688C167.89 83.948 167.357 84.078 166.759 84.078ZM166.863 82.986C167.297 82.986 167.687 82.8863 168.033 82.687C168.389 82.4877 168.666 82.206 168.865 81.842C169.073 81.4693 169.177 81.0403 169.177 80.555C169.177 80.061 169.073 79.6363 168.865 79.281C168.666 78.917 168.389 78.6353 168.033 78.436C167.687 78.2367 167.297 78.137 166.863 78.137C166.421 78.137 166.027 78.2367 165.68 78.436C165.334 78.6353 165.056 78.917 164.848 79.281C164.64 79.6363 164.536 80.061 164.536 80.555C164.536 81.0403 164.64 81.4693 164.848 81.842C165.056 82.206 165.334 82.4877 165.68 82.687C166.027 82.8863 166.421 82.986 166.863 82.986ZM169.216 84V82.141L169.294 80.542L169.164 78.943V74.354H170.412V84H169.216ZM172.774 84V77.11H174.022V84H172.774ZM173.398 75.784C173.155 75.784 172.951 75.706 172.787 75.55C172.631 75.394 172.553 75.2033 172.553 74.978C172.553 74.744 172.631 74.549 172.787 74.393C172.951 74.237 173.155 74.159 173.398 74.159C173.64 74.159 173.84 74.237 173.996 74.393C174.16 74.5403 174.243 74.7267 174.243 74.952C174.243 75.186 174.165 75.3853 174.009 75.55C173.853 75.706 173.649 75.784 173.398 75.784ZM180.682 84V82.544L180.617 82.271V79.788C180.617 79.2593 180.461 78.852 180.149 78.566C179.845 78.2713 179.386 78.124 178.771 78.124C178.363 78.124 177.965 78.1933 177.575 78.332C177.185 78.462 176.855 78.6397 176.587 78.865L176.067 77.929C176.422 77.643 176.847 77.4263 177.341 77.279C177.843 77.123 178.368 77.045 178.914 77.045C179.858 77.045 180.586 77.2747 181.098 77.734C181.609 78.1933 181.865 78.8953 181.865 79.84V84H180.682ZM178.42 84.078C177.908 84.078 177.458 83.9913 177.068 83.818C176.686 83.6447 176.392 83.4063 176.184 83.103C175.976 82.791 175.872 82.44 175.872 82.05C175.872 81.6773 175.958 81.3393 176.132 81.036C176.314 80.7327 176.604 80.49 177.003 80.308C177.41 80.126 177.956 80.035 178.641 80.035H180.825V80.932H178.693C178.069 80.932 177.648 81.036 177.432 81.244C177.215 81.452 177.107 81.7033 177.107 81.998C177.107 82.336 177.241 82.609 177.51 82.817C177.778 83.0163 178.151 83.116 178.628 83.116C179.096 83.116 179.503 83.012 179.85 82.804C180.205 82.596 180.461 82.2927 180.617 81.894L180.864 82.752C180.699 83.1593 180.409 83.4843 179.993 83.727C179.577 83.961 179.052 84.078 178.42 84.078ZM185.188 82.336L185.214 80.737L189.179 77.11H190.687L187.645 80.1L186.969 80.672L185.188 82.336ZM184.174 84V74.354H185.422V84H184.174ZM189.439 84L186.735 80.646L187.541 79.645L190.973 84H189.439ZM196.335 84V82.544L196.27 82.271V79.788C196.27 79.2593 196.114 78.852 195.802 78.566C195.499 78.2713 195.039 78.124 194.424 78.124C194.017 78.124 193.618 78.1933 193.228 78.332C192.838 78.462 192.509 78.6397 192.24 78.865L191.72 77.929C192.075 77.643 192.5 77.4263 192.994 77.279C193.497 77.123 194.021 77.045 194.567 77.045C195.512 77.045 196.24 77.2747 196.751 77.734C197.262 78.1933 197.518 78.8953 197.518 79.84V84H196.335ZM194.073 84.078C193.562 84.078 193.111 83.9913 192.721 83.818C192.34 83.6447 192.045 83.4063 191.837 83.103C191.629 82.791 191.525 82.44 191.525 82.05C191.525 81.6773 191.612 81.3393 191.785 81.036C191.967 80.7327 192.257 80.49 192.656 80.308C193.063 80.126 193.609 80.035 194.294 80.035H196.478V80.932H194.346C193.722 80.932 193.302 81.036 193.085 81.244C192.868 81.452 192.76 81.7033 192.76 81.998C192.76 82.336 192.894 82.609 193.163 82.817C193.432 83.0163 193.804 83.116 194.281 83.116C194.749 83.116 195.156 83.012 195.503 82.804C195.858 82.596 196.114 82.2927 196.27 81.894L196.517 82.752C196.352 83.1593 196.062 83.4843 195.646 83.727C195.23 83.961 194.706 84.078 194.073 84.078ZM203.507 77.045C204.07 77.045 204.564 77.1533 204.989 77.37C205.422 77.5867 205.76 77.916 206.003 78.358C206.245 78.8 206.367 79.359 206.367 80.035V84H205.119V80.178C205.119 79.5107 204.954 79.008 204.625 78.67C204.304 78.332 203.849 78.163 203.26 78.163C202.818 78.163 202.432 78.2497 202.103 78.423C201.773 78.5963 201.518 78.852 201.336 79.19C201.162 79.528 201.076 79.9483 201.076 80.451V84H199.828V77.11H201.024V78.969L200.829 78.475C201.054 78.0243 201.401 77.6733 201.869 77.422C202.337 77.1707 202.883 77.045 203.507 77.045ZM212.167 84V74.354H213.415V84H212.167ZM220.075 84V82.544L220.01 82.271V79.788C220.01 79.2593 219.854 78.852 219.542 78.566C219.239 78.2713 218.78 78.124 218.164 78.124C217.757 78.124 217.358 78.1933 216.968 78.332C216.578 78.462 216.249 78.6397 215.98 78.865L215.46 77.929C215.816 77.643 216.24 77.4263 216.734 77.279C217.237 77.123 217.761 77.045 218.307 77.045C219.252 77.045 219.98 77.2747 220.491 77.734C221.003 78.1933 221.258 78.8953 221.258 79.84V84H220.075ZM217.813 84.078C217.302 84.078 216.851 83.9913 216.461 83.818C216.08 83.6447 215.785 83.4063 215.577 83.103C215.369 82.791 215.265 82.44 215.265 82.05C215.265 81.6773 215.352 81.3393 215.525 81.036C215.707 80.7327 215.998 80.49 216.396 80.308C216.804 80.126 217.35 80.035 218.034 80.035H220.218V80.932H218.086C217.462 80.932 217.042 81.036 216.825 81.244C216.609 81.452 216.5 81.7033 216.5 81.998C216.5 82.336 216.635 82.609 216.903 82.817C217.172 83.0163 217.545 83.116 218.021 83.116C218.489 83.116 218.897 83.012 219.243 82.804C219.599 82.596 219.854 82.2927 220.01 81.894L220.257 82.752C220.093 83.1593 219.802 83.4843 219.386 83.727C218.97 83.961 218.446 84.078 217.813 84.078ZM223.74 86.6C223.41 86.6 223.09 86.5437 222.778 86.431C222.466 86.327 222.197 86.171 221.972 85.963L222.505 85.027C222.678 85.1917 222.869 85.3173 223.077 85.404C223.285 85.4907 223.506 85.534 223.74 85.534C224.043 85.534 224.294 85.456 224.494 85.3C224.693 85.144 224.879 84.8667 225.053 84.468L225.482 83.519L225.612 83.363L228.316 77.11H229.538L226.197 84.689C225.997 85.1743 225.772 85.5557 225.521 85.833C225.278 86.1103 225.009 86.3053 224.715 86.418C224.42 86.5393 224.095 86.6 223.74 86.6ZM225.378 84.221L222.232 77.11H223.532L226.21 83.246L225.378 84.221ZM234.764 84V82.544L234.699 82.271V79.788C234.699 79.2593 234.543 78.852 234.231 78.566C233.927 78.2713 233.468 78.124 232.853 78.124C232.445 78.124 232.047 78.1933 231.657 78.332C231.267 78.462 230.937 78.6397 230.669 78.865L230.149 77.929C230.504 77.643 230.929 77.4263 231.423 77.279C231.925 77.123 232.45 77.045 232.996 77.045C233.94 77.045 234.668 77.2747 235.18 77.734C235.691 78.1933 235.947 78.8953 235.947 79.84V84H234.764ZM232.502 84.078C231.99 84.078 231.54 83.9913 231.15 83.818C230.768 83.6447 230.474 83.4063 230.266 83.103C230.058 82.791 229.954 82.44 229.954 82.05C229.954 81.6773 230.04 81.3393 230.214 81.036C230.396 80.7327 230.686 80.49 231.085 80.308C231.492 80.126 232.038 80.035 232.723 80.035H234.907V80.932H232.775C232.151 80.932 231.73 81.036 231.514 81.244C231.297 81.452 231.189 81.7033 231.189 81.998C231.189 82.336 231.323 82.609 231.592 82.817C231.86 83.0163 232.233 83.116 232.71 83.116C233.178 83.116 233.585 83.012 233.932 82.804C234.287 82.596 234.543 82.2927 234.699 81.894L234.946 82.752C234.781 83.1593 234.491 83.4843 234.075 83.727C233.659 83.961 233.134 84.078 232.502 84.078ZM241.935 77.045C242.499 77.045 242.993 77.1533 243.417 77.37C243.851 77.5867 244.189 77.916 244.431 78.358C244.674 78.8 244.795 79.359 244.795 80.035V84H243.547V80.178C243.547 79.5107 243.383 79.008 243.053 78.67C242.733 78.332 242.278 78.163 241.688 78.163C241.246 78.163 240.861 78.2497 240.531 78.423C240.202 78.5963 239.946 78.852 239.764 79.19C239.591 79.528 239.504 79.9483 239.504 80.451V84H238.256V77.11H239.452V78.969L239.257 78.475C239.483 78.0243 239.829 77.6733 240.297 77.422C240.765 77.1707 241.311 77.045 241.935 77.045ZM251.382 84V82.544L251.317 82.271V79.788C251.317 79.2593 251.161 78.852 250.849 78.566C250.546 78.2713 250.086 78.124 249.471 78.124C249.064 78.124 248.665 78.1933 248.275 78.332C247.885 78.462 247.556 78.6397 247.287 78.865L246.767 77.929C247.122 77.643 247.547 77.4263 248.041 77.279C248.544 77.123 249.068 77.045 249.614 77.045C250.559 77.045 251.287 77.2747 251.798 77.734C252.309 78.1933 252.565 78.8953 252.565 79.84V84H251.382ZM249.12 84.078C248.609 84.078 248.158 83.9913 247.768 83.818C247.387 83.6447 247.092 83.4063 246.884 83.103C246.676 82.791 246.572 82.44 246.572 82.05C246.572 81.6773 246.659 81.3393 246.832 81.036C247.014 80.7327 247.304 80.49 247.703 80.308C248.11 80.126 248.656 80.035 249.341 80.035H251.525V80.932H249.393C248.769 80.932 248.349 81.036 248.132 81.244C247.915 81.452 247.807 81.7033 247.807 81.998C247.807 82.336 247.941 82.609 248.21 82.817C248.479 83.0163 248.851 83.116 249.328 83.116C249.796 83.116 250.203 83.012 250.55 82.804C250.905 82.596 251.161 82.2927 251.317 81.894L251.564 82.752C251.399 83.1593 251.109 83.4843 250.693 83.727C250.277 83.961 249.753 84.078 249.12 84.078ZM258.553 77.045C259.117 77.045 259.611 77.1533 260.035 77.37C260.469 77.5867 260.807 77.916 261.049 78.358C261.292 78.8 261.413 79.359 261.413 80.035V84H260.165V80.178C260.165 79.5107 260.001 79.008 259.671 78.67C259.351 78.332 258.896 78.163 258.306 78.163C257.864 78.163 257.479 78.2497 257.149 78.423C256.82 78.5963 256.564 78.852 256.382 79.19C256.209 79.528 256.122 79.9483 256.122 80.451V84H254.874V77.11H256.07V78.969L255.875 78.475C256.101 78.0243 256.447 77.6733 256.915 77.422C257.383 77.1707 257.929 77.045 258.553 77.045ZM18.482 107.6C18.1527 107.6 17.832 107.544 17.52 107.431C17.208 107.327 16.9393 107.171 16.714 106.963L17.247 106.027C17.4203 106.192 17.611 106.317 17.819 106.404C18.027 106.491 18.248 106.534 18.482 106.534C18.7853 106.534 19.0367 106.456 19.236 106.3C19.4353 106.144 19.6217 105.867 19.795 105.468L20.224 104.519L20.354 104.363L23.058 98.11H24.28L20.939 105.689C20.7397 106.174 20.5143 106.556 20.263 106.833C20.0203 107.11 19.7517 107.305 19.457 107.418C19.1623 107.539 18.8373 107.6 18.482 107.6ZM20.12 105.221L16.974 98.11H18.274L20.952 104.246L20.12 105.221ZM29.5059 105V103.544L29.4409 103.271V100.788C29.4409 100.259 29.2849 99.852 28.9729 99.566C28.6696 99.2713 28.2102 99.124 27.5949 99.124C27.1876 99.124 26.7889 99.1933 26.3989 99.332C26.0089 99.462 25.6796 99.6397 25.4109 99.865L24.8909 98.929C25.2462 98.643 25.6709 98.4263 26.1649 98.279C26.6676 98.123 27.1919 98.045 27.7379 98.045C28.6826 98.045 29.4106 98.2747 29.9219 98.734C30.4332 99.1933 30.6889 99.8953 30.6889 100.84V105H29.5059ZM27.2439 105.078C26.7326 105.078 26.2819 104.991 25.8919 104.818C25.5106 104.645 25.2159 104.406 25.0079 104.103C24.7999 103.791 24.6959 103.44 24.6959 103.05C24.6959 102.677 24.7826 102.339 24.9559 102.036C25.1379 101.733 25.4282 101.49 25.8269 101.308C26.2342 101.126 26.7802 101.035 27.4649 101.035H29.6489V101.932H27.5169C26.8929 101.932 26.4726 102.036 26.2559 102.244C26.0392 102.452 25.9309 102.703 25.9309 102.998C25.9309 103.336 26.0652 103.609 26.3339 103.817C26.6026 104.016 26.9752 104.116 27.4519 104.116C27.9199 104.116 28.3272 104.012 28.6739 103.804C29.0292 103.596 29.2849 103.293 29.4409 102.894L29.6879 103.752C29.5232 104.159 29.2329 104.484 28.8169 104.727C28.4009 104.961 27.8766 105.078 27.2439 105.078ZM36.6774 98.045C37.2408 98.045 37.7348 98.1533 38.1594 98.37C38.5928 98.5867 38.9308 98.916 39.1734 99.358C39.4161 99.8 39.5374 100.359 39.5374 101.035V105H38.2894V101.178C38.2894 100.511 38.1248 100.008 37.7954 99.67C37.4748 99.332 37.0198 99.163 36.4304 99.163C35.9884 99.163 35.6028 99.2497 35.2734 99.423C34.9441 99.5963 34.6884 99.852 34.5064 100.19C34.3331 100.528 34.2464 100.948 34.2464 101.451V105H32.9984V98.11H34.1944V99.969L33.9994 99.475C34.2248 99.0243 34.5714 98.6733 35.0394 98.422C35.5074 98.1707 36.0534 98.045 36.6774 98.045ZM44.8631 107.6C44.2304 107.6 43.6151 107.509 43.0171 107.327C42.4277 107.154 41.9467 106.902 41.5741 106.573L42.1721 105.611C42.4927 105.888 42.8871 106.105 43.3551 106.261C43.8231 106.426 44.3127 106.508 44.8241 106.508C45.6387 106.508 46.2367 106.317 46.6181 105.936C46.9994 105.555 47.1901 104.974 47.1901 104.194V102.738L47.3201 101.373L47.2551 99.995V98.11H48.4381V104.064C48.4381 105.277 48.1347 106.17 47.5281 106.742C46.9214 107.314 46.0331 107.6 44.8631 107.6ZM44.7071 104.714C44.0397 104.714 43.4417 104.575 42.9131 104.298C42.3931 104.012 41.9771 103.618 41.6651 103.115C41.3617 102.612 41.2101 102.032 41.2101 101.373C41.2101 100.706 41.3617 100.125 41.6651 99.631C41.9771 99.1283 42.3931 98.7383 42.9131 98.461C43.4417 98.1837 44.0397 98.045 44.7071 98.045C45.2964 98.045 45.8337 98.1663 46.3191 98.409C46.8044 98.643 47.1901 99.007 47.4761 99.501C47.7707 99.995 47.9181 100.619 47.9181 101.373C47.9181 102.118 47.7707 102.738 47.4761 103.232C47.1901 103.726 46.8044 104.099 46.3191 104.35C45.8337 104.593 45.2964 104.714 44.7071 104.714ZM44.8501 103.622C45.3094 103.622 45.7167 103.527 46.0721 103.336C46.4274 103.145 46.7047 102.881 46.9041 102.543C47.1121 102.205 47.2161 101.815 47.2161 101.373C47.2161 100.931 47.1121 100.541 46.9041 100.203C46.7047 99.865 46.4274 99.605 46.0721 99.423C45.7167 99.2323 45.3094 99.137 44.8501 99.137C44.3907 99.137 43.9791 99.2323 43.6151 99.423C43.2597 99.605 42.9781 99.865 42.7701 100.203C42.5707 100.541 42.4711 100.931 42.4711 101.373C42.4711 101.815 42.5707 102.205 42.7701 102.543C42.9781 102.881 43.2597 103.145 43.6151 103.336C43.9791 103.527 44.3907 103.622 44.8501 103.622ZM56.2899 105.078C55.7179 105.078 55.1719 105 54.6519 104.844C54.1405 104.688 53.7375 104.497 53.4429 104.272L53.9629 103.284C54.2575 103.483 54.6215 103.652 55.0549 103.791C55.4882 103.93 55.9302 103.999 56.3809 103.999C56.9615 103.999 57.3775 103.917 57.6289 103.752C57.8889 103.587 58.0189 103.358 58.0189 103.063C58.0189 102.846 57.9409 102.677 57.7849 102.556C57.6289 102.435 57.4209 102.344 57.1609 102.283C56.9095 102.222 56.6279 102.17 56.3159 102.127C56.0039 102.075 55.6919 102.014 55.3799 101.945C55.0679 101.867 54.7819 101.763 54.5219 101.633C54.2619 101.494 54.0539 101.308 53.8979 101.074C53.7419 100.831 53.6639 100.511 53.6639 100.112C53.6639 99.696 53.7809 99.332 54.0149 99.02C54.2489 98.708 54.5782 98.4697 55.0029 98.305C55.4362 98.1317 55.9475 98.045 56.5369 98.045C56.9875 98.045 57.4425 98.1013 57.9019 98.214C58.3699 98.318 58.7512 98.4697 59.0459 98.669L58.5129 99.657C58.2009 99.449 57.8759 99.306 57.5379 99.228C57.1999 99.15 56.8619 99.111 56.5239 99.111C55.9779 99.111 55.5705 99.202 55.3019 99.384C55.0332 99.5573 54.8989 99.7827 54.8989 100.06C54.8989 100.294 54.9769 100.476 55.1329 100.606C55.2975 100.727 55.5055 100.823 55.7569 100.892C56.0169 100.961 56.3029 101.022 56.6149 101.074C56.9269 101.117 57.2389 101.178 57.5509 101.256C57.8629 101.325 58.1445 101.425 58.3959 101.555C58.6559 101.685 58.8639 101.867 59.0199 102.101C59.1845 102.335 59.2669 102.647 59.2669 103.037C59.2669 103.453 59.1455 103.813 58.9029 104.116C58.6602 104.419 58.3179 104.658 57.8759 104.831C57.4339 104.996 56.9052 105.078 56.2899 105.078ZM60.8266 105V98.11H62.0746V105H60.8266ZM61.4506 96.784C61.2079 96.784 61.0042 96.706 60.8396 96.55C60.6836 96.394 60.6056 96.2033 60.6056 95.978C60.6056 95.744 60.6836 95.549 60.8396 95.393C61.0042 95.237 61.2079 95.159 61.4506 95.159C61.6932 95.159 61.8926 95.237 62.0486 95.393C62.2132 95.5403 62.2956 95.7267 62.2956 95.952C62.2956 96.186 62.2176 96.3853 62.0616 96.55C61.9056 96.706 61.7019 96.784 61.4506 96.784ZM68.7344 105V103.544L68.6694 103.271V100.788C68.6694 100.259 68.5134 99.852 68.2014 99.566C67.8981 99.2713 67.4387 99.124 66.8234 99.124C66.4161 99.124 66.0174 99.1933 65.6274 99.332C65.2374 99.462 64.9081 99.6397 64.6394 99.865L64.1194 98.929C64.4747 98.643 64.8994 98.4263 65.3934 98.279C65.8961 98.123 66.4204 98.045 66.9664 98.045C67.9111 98.045 68.6391 98.2747 69.1504 98.734C69.6617 99.1933 69.9174 99.8953 69.9174 100.84V105H68.7344ZM66.4724 105.078C65.9611 105.078 65.5104 104.991 65.1204 104.818C64.7391 104.645 64.4444 104.406 64.2364 104.103C64.0284 103.791 63.9244 103.44 63.9244 103.05C63.9244 102.677 64.0111 102.339 64.1844 102.036C64.3664 101.733 64.6567 101.49 65.0554 101.308C65.4627 101.126 66.0087 101.035 66.6934 101.035H68.8774V101.932H66.7454C66.1214 101.932 65.7011 102.036 65.4844 102.244C65.2677 102.452 65.1594 102.703 65.1594 102.998C65.1594 103.336 65.2937 103.609 65.5624 103.817C65.8311 104.016 66.2037 104.116 66.6804 104.116C67.1484 104.116 67.5557 104.012 67.9024 103.804C68.2577 103.596 68.5134 103.293 68.6694 102.894L68.9164 103.752C68.7517 104.159 68.4614 104.484 68.0454 104.727C67.6294 104.961 67.1051 105.078 66.4724 105.078ZM75.8799 105.078C75.3079 105.078 74.7836 104.948 74.3069 104.688C73.8389 104.419 73.4619 104.025 73.1759 103.505C72.8986 102.985 72.7599 102.335 72.7599 101.555C72.7599 100.775 72.8943 100.125 73.1629 99.605C73.4403 99.085 73.8129 98.695 74.2809 98.435C74.7576 98.175 75.2906 98.045 75.8799 98.045C76.5559 98.045 77.1539 98.1923 77.6739 98.487C78.1939 98.7817 78.6056 99.1933 78.9089 99.722C79.2123 100.242 79.3639 100.853 79.3639 101.555C79.3639 102.257 79.2123 102.872 78.9089 103.401C78.6056 103.93 78.1939 104.341 77.6739 104.636C77.1539 104.931 76.5559 105.078 75.8799 105.078ZM72.2269 107.522V98.11H73.4229V99.969L73.3449 101.568L73.4749 103.167V107.522H72.2269ZM75.7759 103.986C76.2179 103.986 76.6123 103.886 76.9589 103.687C77.3143 103.488 77.5916 103.206 77.7909 102.842C77.9989 102.469 78.1029 102.04 78.1029 101.555C78.1029 101.061 77.9989 100.636 77.7909 100.281C77.5916 99.917 77.3143 99.6353 76.9589 99.436C76.6123 99.2367 76.2179 99.137 75.7759 99.137C75.3426 99.137 74.9483 99.2367 74.5929 99.436C74.2463 99.6353 73.9689 99.917 73.7609 100.281C73.5616 100.636 73.4619 101.061 73.4619 101.555C73.4619 102.04 73.5616 102.469 73.7609 102.842C73.9689 103.206 74.2463 103.488 74.5929 103.687C74.9483 103.886 75.3426 103.986 75.7759 103.986ZM93.1985 98.045C93.7532 98.045 94.2428 98.1533 94.6675 98.37C95.0922 98.5867 95.4215 98.916 95.6555 99.358C95.8982 99.8 96.0195 100.359 96.0195 101.035V105H94.7715V101.178C94.7715 100.511 94.6155 100.008 94.3035 99.67C93.9915 99.332 93.5538 99.163 92.9905 99.163C92.5745 99.163 92.2105 99.2497 91.8985 99.423C91.5865 99.5963 91.3438 99.852 91.1705 100.19C91.0058 100.528 90.9235 100.948 90.9235 101.451V105H89.6755V101.178C89.6755 100.511 89.5195 100.008 89.2075 99.67C88.9042 99.332 88.4665 99.163 87.8945 99.163C87.4872 99.163 87.1275 99.2497 86.8155 99.423C86.5035 99.5963 86.2608 99.852 86.0875 100.19C85.9142 100.528 85.8275 100.948 85.8275 101.451V105H84.5795V98.11H85.7755V99.943L85.5805 99.475C85.7972 99.0243 86.1308 98.6733 86.5815 98.422C87.0322 98.1707 87.5565 98.045 88.1545 98.045C88.8132 98.045 89.3808 98.2097 89.8575 98.539C90.3342 98.8597 90.6462 99.3493 90.7935 100.008L90.2865 99.8C90.4945 99.2713 90.8585 98.8467 91.3785 98.526C91.8985 98.2053 92.5052 98.045 93.1985 98.045ZM101.384 105.078C100.647 105.078 99.9971 104.926 99.4338 104.623C98.8791 104.32 98.4458 103.904 98.1338 103.375C97.8305 102.846 97.6788 102.24 97.6788 101.555C97.6788 100.87 97.8261 100.264 98.1208 99.735C98.4241 99.2063 98.8358 98.7947 99.3558 98.5C99.8845 98.1967 100.478 98.045 101.137 98.045C101.804 98.045 102.393 98.1923 102.905 98.487C103.416 98.7817 103.815 99.1977 104.101 99.735C104.395 100.264 104.543 100.883 104.543 101.594C104.543 101.646 104.538 101.707 104.53 101.776C104.53 101.845 104.525 101.91 104.517 101.971H98.6538V101.074H103.867L103.36 101.386C103.368 100.944 103.277 100.55 103.087 100.203C102.896 99.8563 102.632 99.5877 102.294 99.397C101.964 99.1977 101.579 99.098 101.137 99.098C100.703 99.098 100.318 99.1977 99.9798 99.397C99.6418 99.5877 99.3775 99.8607 99.1868 100.216C98.9961 100.563 98.9008 100.961 98.9008 101.412V101.62C98.9008 102.079 99.0048 102.491 99.2128 102.855C99.4295 103.21 99.7285 103.488 100.11 103.687C100.491 103.886 100.929 103.986 101.423 103.986C101.83 103.986 102.198 103.917 102.528 103.778C102.866 103.639 103.16 103.431 103.412 103.154L104.101 103.96C103.789 104.324 103.399 104.601 102.931 104.792C102.471 104.983 101.956 105.078 101.384 105.078ZM114.895 98.045C115.449 98.045 115.939 98.1533 116.364 98.37C116.788 98.5867 117.118 98.916 117.352 99.358C117.594 99.8 117.716 100.359 117.716 101.035V105H116.468V101.178C116.468 100.511 116.312 100.008 116 99.67C115.688 99.332 115.25 99.163 114.687 99.163C114.271 99.163 113.907 99.2497 113.595 99.423C113.283 99.5963 113.04 99.852 112.867 100.19C112.702 100.528 112.62 100.948 112.62 101.451V105H111.372V101.178C111.372 100.511 111.216 100.008 110.904 99.67C110.6 99.332 110.163 99.163 109.591 99.163C109.183 99.163 108.824 99.2497 108.512 99.423C108.2 99.5963 107.957 99.852 107.784 100.19C107.61 100.528 107.524 100.948 107.524 101.451V105H106.276V98.11H107.472V99.943L107.277 99.475C107.493 99.0243 107.827 98.6733 108.278 98.422C108.728 98.1707 109.253 98.045 109.851 98.045C110.509 98.045 111.077 98.2097 111.554 98.539C112.03 98.8597 112.342 99.3493 112.49 100.008L111.983 99.8C112.191 99.2713 112.555 98.8467 113.075 98.526C113.595 98.2053 114.201 98.045 114.895 98.045ZM123.665 105.078C123.076 105.078 122.543 104.948 122.066 104.688C121.598 104.419 121.225 104.025 120.948 103.505C120.679 102.985 120.545 102.335 120.545 101.555C120.545 100.775 120.684 100.125 120.961 99.605C121.247 99.085 121.624 98.695 122.092 98.435C122.569 98.175 123.093 98.045 123.665 98.045C124.341 98.045 124.939 98.1923 125.459 98.487C125.979 98.7817 126.391 99.1933 126.694 99.722C126.997 100.242 127.149 100.853 127.149 101.555C127.149 102.257 126.997 102.872 126.694 103.401C126.391 103.93 125.979 104.341 125.459 104.636C124.939 104.931 124.341 105.078 123.665 105.078ZM120.012 105V95.354H121.26V99.943L121.13 101.542L121.208 103.141V105H120.012ZM123.561 103.986C124.003 103.986 124.397 103.886 124.744 103.687C125.099 103.488 125.377 103.206 125.576 102.842C125.784 102.469 125.888 102.04 125.888 101.555C125.888 101.061 125.784 100.636 125.576 100.281C125.377 99.917 125.099 99.6353 124.744 99.436C124.397 99.2367 124.003 99.137 123.561 99.137C123.128 99.137 122.733 99.2367 122.378 99.436C122.031 99.6353 121.754 99.917 121.546 100.281C121.347 100.636 121.247 101.061 121.247 101.555C121.247 102.04 121.347 102.469 121.546 102.842C121.754 103.206 122.031 103.488 122.378 103.687C122.733 103.886 123.128 103.986 123.561 103.986ZM133.087 105V103.544L133.022 103.271V100.788C133.022 100.259 132.866 99.852 132.554 99.566C132.251 99.2713 131.791 99.124 131.176 99.124C130.769 99.124 130.37 99.1933 129.98 99.332C129.59 99.462 129.261 99.6397 128.992 99.865L128.472 98.929C128.827 98.643 129.252 98.4263 129.746 98.279C130.249 98.123 130.773 98.045 131.319 98.045C132.264 98.045 132.992 98.2747 133.503 98.734C134.014 99.1933 134.27 99.8953 134.27 100.84V105H133.087ZM130.825 105.078C130.314 105.078 129.863 104.991 129.473 104.818C129.092 104.645 128.797 104.406 128.589 104.103C128.381 103.791 128.277 103.44 128.277 103.05C128.277 102.677 128.364 102.339 128.537 102.036C128.719 101.733 129.009 101.49 129.408 101.308C129.815 101.126 130.361 101.035 131.046 101.035H133.23V101.932H131.098C130.474 101.932 130.054 102.036 129.837 102.244C129.62 102.452 129.512 102.703 129.512 102.998C129.512 103.336 129.646 103.609 129.915 103.817C130.184 104.016 130.556 104.116 131.033 104.116C131.501 104.116 131.908 104.012 132.255 103.804C132.61 103.596 132.866 103.293 133.022 102.894L133.269 103.752C133.104 104.159 132.814 104.484 132.398 104.727C131.982 104.961 131.458 105.078 130.825 105.078ZM140.258 98.045C140.822 98.045 141.316 98.1533 141.74 98.37C142.174 98.5867 142.512 98.916 142.754 99.358C142.997 99.8 143.118 100.359 143.118 101.035V105H141.87V101.178C141.87 100.511 141.706 100.008 141.376 99.67C141.056 99.332 140.601 99.163 140.011 99.163C139.569 99.163 139.184 99.2497 138.854 99.423C138.525 99.5963 138.269 99.852 138.087 100.19C137.914 100.528 137.827 100.948 137.827 101.451V105H136.579V98.11H137.775V99.969L137.58 99.475C137.806 99.0243 138.152 98.6733 138.62 98.422C139.088 98.1707 139.634 98.045 140.258 98.045ZM147.794 105.078C147.101 105.078 146.563 104.892 146.182 104.519C145.801 104.146 145.61 103.613 145.61 102.92V96.602H146.858V102.868C146.858 103.241 146.949 103.527 147.131 103.726C147.322 103.925 147.59 104.025 147.937 104.025C148.327 104.025 148.652 103.917 148.912 103.7L149.302 104.597C149.111 104.762 148.882 104.883 148.613 104.961C148.353 105.039 148.08 105.078 147.794 105.078ZM144.44 99.137V98.11H148.834V99.137H144.44ZM153.71 105.078C153.121 105.078 152.601 104.97 152.15 104.753C151.708 104.536 151.361 104.207 151.11 103.765C150.867 103.314 150.746 102.751 150.746 102.075V98.11H151.994V101.932C151.994 102.608 152.154 103.115 152.475 103.453C152.804 103.791 153.264 103.96 153.853 103.96C154.286 103.96 154.663 103.873 154.984 103.7C155.305 103.518 155.552 103.258 155.725 102.92C155.898 102.573 155.985 102.157 155.985 101.672V98.11H157.233V105H156.05V103.141L156.245 103.635C156.02 104.094 155.682 104.45 155.231 104.701C154.78 104.952 154.273 105.078 153.71 105.078ZM161.904 105L166.025 95.9H167.312L171.446 105H170.081L166.402 96.628H166.922L163.243 105H161.904ZM163.659 102.725L164.01 101.685H169.132L169.509 102.725H163.659ZM176.3 98.045C176.864 98.045 177.358 98.1533 177.782 98.37C178.216 98.5867 178.554 98.916 178.796 99.358C179.039 99.8 179.16 100.359 179.16 101.035V105H177.912V101.178C177.912 100.511 177.748 100.008 177.418 99.67C177.098 99.332 176.643 99.163 176.053 99.163C175.611 99.163 175.226 99.2497 174.896 99.423C174.567 99.5963 174.311 99.852 174.129 100.19C173.956 100.528 173.869 100.948 173.869 101.451V105H172.621V98.11H173.817V99.969L173.622 99.475C173.848 99.0243 174.194 98.6733 174.662 98.422C175.13 98.1707 175.676 98.045 176.3 98.045ZM184.317 105.078C183.65 105.078 183.052 104.931 182.523 104.636C182.003 104.341 181.591 103.93 181.288 103.401C180.985 102.872 180.833 102.257 180.833 101.555C180.833 100.853 180.985 100.242 181.288 99.722C181.591 99.1933 182.003 98.7817 182.523 98.487C183.052 98.1923 183.65 98.045 184.317 98.045C184.898 98.045 185.422 98.175 185.89 98.435C186.358 98.695 186.731 99.085 187.008 99.605C187.294 100.125 187.437 100.775 187.437 101.555C187.437 102.335 187.298 102.985 187.021 103.505C186.752 104.025 186.384 104.419 185.916 104.688C185.448 104.948 184.915 105.078 184.317 105.078ZM184.421 103.986C184.854 103.986 185.244 103.886 185.591 103.687C185.946 103.488 186.224 103.206 186.423 102.842C186.631 102.469 186.735 102.04 186.735 101.555C186.735 101.061 186.631 100.636 186.423 100.281C186.224 99.917 185.946 99.6353 185.591 99.436C185.244 99.2367 184.854 99.137 184.421 99.137C183.979 99.137 183.585 99.2367 183.238 99.436C182.891 99.6353 182.614 99.917 182.406 100.281C182.198 100.636 182.094 101.061 182.094 101.555C182.094 102.04 182.198 102.469 182.406 102.842C182.614 103.206 182.891 103.488 183.238 103.687C183.585 103.886 183.979 103.986 184.421 103.986ZM186.774 105V103.141L186.852 101.542L186.722 99.943V95.354H187.97V105H186.774ZM194.608 105V103.544L194.543 103.271V100.788C194.543 100.259 194.387 99.852 194.075 99.566C193.772 99.2713 193.313 99.124 192.697 99.124C192.29 99.124 191.891 99.1933 191.501 99.332C191.111 99.462 190.782 99.6397 190.513 99.865L189.993 98.929C190.349 98.643 190.773 98.4263 191.267 98.279C191.77 98.123 192.294 98.045 192.84 98.045C193.785 98.045 194.513 98.2747 195.024 98.734C195.536 99.1933 195.791 99.8953 195.791 100.84V105H194.608ZM192.346 105.078C191.835 105.078 191.384 104.991 190.994 104.818C190.613 104.645 190.318 104.406 190.11 104.103C189.902 103.791 189.798 103.44 189.798 103.05C189.798 102.677 189.885 102.339 190.058 102.036C190.24 101.733 190.531 101.49 190.929 101.308C191.337 101.126 191.883 101.035 192.567 101.035H194.751V101.932H192.619C191.995 101.932 191.575 102.036 191.358 102.244C191.142 102.452 191.033 102.703 191.033 102.998C191.033 103.336 191.168 103.609 191.436 103.817C191.705 104.016 192.078 104.116 192.554 104.116C193.022 104.116 193.43 104.012 193.776 103.804C194.132 103.596 194.387 103.293 194.543 102.894L194.79 103.752C194.626 104.159 194.335 104.484 193.919 104.727C193.503 104.961 192.979 105.078 192.346 105.078ZM202.606 103.336L202.632 101.737L206.597 98.11H208.105L205.063 101.1L204.387 101.672L202.606 103.336ZM201.592 105V95.354H202.84V105H201.592ZM206.857 105L204.153 101.646L204.959 100.645L208.391 105H206.857ZM213.753 105V103.544L213.688 103.271V100.788C213.688 100.259 213.532 99.852 213.22 99.566C212.917 99.2713 212.457 99.124 211.842 99.124C211.435 99.124 211.036 99.1933 210.646 99.332C210.256 99.462 209.927 99.6397 209.658 99.865L209.138 98.929C209.493 98.643 209.918 98.4263 210.412 98.279C210.915 98.123 211.439 98.045 211.985 98.045C212.93 98.045 213.658 98.2747 214.169 98.734C214.68 99.1933 214.936 99.8953 214.936 100.84V105H213.753ZM211.491 105.078C210.98 105.078 210.529 104.991 210.139 104.818C209.758 104.645 209.463 104.406 209.255 104.103C209.047 103.791 208.943 103.44 208.943 103.05C208.943 102.677 209.03 102.339 209.203 102.036C209.385 101.733 209.675 101.49 210.074 101.308C210.481 101.126 211.027 101.035 211.712 101.035H213.896V101.932H211.764C211.14 101.932 210.72 102.036 210.503 102.244C210.286 102.452 210.178 102.703 210.178 102.998C210.178 103.336 210.312 103.609 210.581 103.817C210.85 104.016 211.222 104.116 211.699 104.116C212.167 104.116 212.574 104.012 212.921 103.804C213.276 103.596 213.532 103.293 213.688 102.894L213.935 103.752C213.77 104.159 213.48 104.484 213.064 104.727C212.648 104.961 212.124 105.078 211.491 105.078ZM220.899 105.078C220.327 105.078 219.802 104.948 219.326 104.688C218.858 104.419 218.481 104.025 218.195 103.505C217.917 102.985 217.778 102.335 217.778 101.555C217.778 100.775 217.913 100.125 218.182 99.605C218.459 99.085 218.832 98.695 219.3 98.435C219.776 98.175 220.309 98.045 220.899 98.045C221.575 98.045 222.173 98.1923 222.693 98.487C223.213 98.7817 223.624 99.1933 223.928 99.722C224.231 100.242 224.383 100.853 224.383 101.555C224.383 102.257 224.231 102.872 223.928 103.401C223.624 103.93 223.213 104.341 222.693 104.636C222.173 104.931 221.575 105.078 220.899 105.078ZM217.246 107.522V98.11H218.442V99.969L218.364 101.568L218.494 103.167V107.522H217.246ZM220.795 103.986C221.237 103.986 221.631 103.886 221.978 103.687C222.333 103.488 222.61 103.206 222.81 102.842C223.018 102.469 223.122 102.04 223.122 101.555C223.122 101.061 223.018 100.636 222.81 100.281C222.61 99.917 222.333 99.6353 221.978 99.436C221.631 99.2367 221.237 99.137 220.795 99.137C220.361 99.137 219.967 99.2367 219.612 99.436C219.265 99.6353 218.988 99.917 218.78 100.281C218.58 100.636 218.481 101.061 218.481 101.555C218.481 102.04 218.58 102.469 218.78 102.842C218.988 103.206 219.265 103.488 219.612 103.687C219.967 103.886 220.361 103.986 220.795 103.986ZM230.32 105V103.544L230.255 103.271V100.788C230.255 100.259 230.099 99.852 229.787 99.566C229.484 99.2713 229.025 99.124 228.409 99.124C228.002 99.124 227.603 99.1933 227.213 99.332C226.823 99.462 226.494 99.6397 226.225 99.865L225.705 98.929C226.061 98.643 226.485 98.4263 226.979 98.279C227.482 98.123 228.006 98.045 228.552 98.045C229.497 98.045 230.225 98.2747 230.736 98.734C231.248 99.1933 231.503 99.8953 231.503 100.84V105H230.32ZM228.058 105.078C227.547 105.078 227.096 104.991 226.706 104.818C226.325 104.645 226.03 104.406 225.822 104.103C225.614 103.791 225.51 103.44 225.51 103.05C225.51 102.677 225.597 102.339 225.77 102.036C225.952 101.733 226.243 101.49 226.641 101.308C227.049 101.126 227.595 101.035 228.279 101.035H230.463V101.932H228.331C227.707 101.932 227.287 102.036 227.07 102.244C226.854 102.452 226.745 102.703 226.745 102.998C226.745 103.336 226.88 103.609 227.148 103.817C227.417 104.016 227.79 104.116 228.266 104.116C228.734 104.116 229.142 104.012 229.488 103.804C229.844 103.596 230.099 103.293 230.255 102.894L230.502 103.752C230.338 104.159 230.047 104.484 229.631 104.727C229.215 104.961 228.691 105.078 228.058 105.078ZM237.492 98.045C238.055 98.045 238.549 98.1533 238.974 98.37C239.407 98.5867 239.745 98.916 239.988 99.358C240.231 99.8 240.352 100.359 240.352 101.035V105H239.104V101.178C239.104 100.511 238.939 100.008 238.61 99.67C238.289 99.332 237.834 99.163 237.245 99.163C236.803 99.163 236.417 99.2497 236.088 99.423C235.759 99.5963 235.503 99.852 235.321 100.19C235.148 100.528 235.061 100.948 235.061 101.451V105H233.813V98.11H235.009V99.969L234.814 99.475C235.039 99.0243 235.386 98.6733 235.854 98.422C236.322 98.1707 236.868 98.045 237.492 98.045ZM248.129 105.078C247.557 105.078 247.011 105 246.491 104.844C245.979 104.688 245.576 104.497 245.282 104.272L245.802 103.284C246.096 103.483 246.46 103.652 246.894 103.791C247.327 103.93 247.769 103.999 248.22 103.999C248.8 103.999 249.216 103.917 249.468 103.752C249.728 103.587 249.858 103.358 249.858 103.063C249.858 102.846 249.78 102.677 249.624 102.556C249.468 102.435 249.26 102.344 249 102.283C248.748 102.222 248.467 102.17 248.155 102.127C247.843 102.075 247.531 102.014 247.219 101.945C246.907 101.867 246.621 101.763 246.361 101.633C246.101 101.494 245.893 101.308 245.737 101.074C245.581 100.831 245.503 100.511 245.503 100.112C245.503 99.696 245.62 99.332 245.854 99.02C246.088 98.708 246.417 98.4697 246.842 98.305C247.275 98.1317 247.786 98.045 248.376 98.045C248.826 98.045 249.281 98.1013 249.741 98.214C250.209 98.318 250.59 98.4697 250.885 98.669L250.352 99.657C250.04 99.449 249.715 99.306 249.377 99.228C249.039 99.15 248.701 99.111 248.363 99.111C247.817 99.111 247.409 99.202 247.141 99.384C246.872 99.5573 246.738 99.7827 246.738 100.06C246.738 100.294 246.816 100.476 246.972 100.606C247.136 100.727 247.344 100.823 247.596 100.892C247.856 100.961 248.142 101.022 248.454 101.074C248.766 101.117 249.078 101.178 249.39 101.256C249.702 101.325 249.983 101.425 250.235 101.555C250.495 101.685 250.703 101.867 250.859 102.101C251.023 102.335 251.106 102.647 251.106 103.037C251.106 103.453 250.984 103.813 250.742 104.116C250.499 104.419 250.157 104.658 249.715 104.831C249.273 104.996 248.744 105.078 248.129 105.078ZM256.942 105V103.544L256.877 103.271V100.788C256.877 100.259 256.721 99.852 256.409 99.566C256.106 99.2713 255.647 99.124 255.031 99.124C254.624 99.124 254.225 99.1933 253.835 99.332C253.445 99.462 253.116 99.6397 252.847 99.865L252.327 98.929C252.683 98.643 253.107 98.4263 253.601 98.279C254.104 98.123 254.628 98.045 255.174 98.045C256.119 98.045 256.847 98.2747 257.358 98.734C257.87 99.1933 258.125 99.8953 258.125 100.84V105H256.942ZM254.68 105.078C254.169 105.078 253.718 104.991 253.328 104.818C252.947 104.645 252.652 104.406 252.444 104.103C252.236 103.791 252.132 103.44 252.132 103.05C252.132 102.677 252.219 102.339 252.392 102.036C252.574 101.733 252.865 101.49 253.263 101.308C253.671 101.126 254.217 101.035 254.901 101.035H257.085V101.932H254.953C254.329 101.932 253.909 102.036 253.692 102.244C253.476 102.452 253.367 102.703 253.367 102.998C253.367 103.336 253.502 103.609 253.77 103.817C254.039 104.016 254.412 104.116 254.888 104.116C255.356 104.116 255.764 104.012 256.11 103.804C256.466 103.596 256.721 103.293 256.877 102.894L257.124 103.752C256.96 104.159 256.669 104.484 256.253 104.727C255.837 104.961 255.313 105.078 254.68 105.078ZM259.551 107.6C259.265 107.6 258.992 107.565 258.732 107.496C258.463 107.427 258.238 107.323 258.056 107.184L258.459 106.222C258.719 106.439 259.057 106.547 259.473 106.547C259.802 106.547 260.054 106.443 260.227 106.235C260.409 106.036 260.5 105.737 260.5 105.338V98.11H261.748V105.312C261.748 106.014 261.557 106.569 261.176 106.976C260.803 107.392 260.262 107.6 259.551 107.6ZM261.124 96.784C260.881 96.784 260.678 96.706 260.513 96.55C260.357 96.394 260.279 96.2033 260.279 95.978C260.279 95.744 260.357 95.549 260.513 95.393C260.678 95.237 260.881 95.159 261.124 95.159C261.367 95.159 261.566 95.237 261.722 95.393C261.887 95.5403 261.969 95.7267 261.969 95.952C261.969 96.186 261.891 96.3853 261.735 96.55C261.579 96.706 261.375 96.784 261.124 96.784ZM268.406 105V103.544L268.341 103.271V100.788C268.341 100.259 268.185 99.852 267.873 99.566C267.57 99.2713 267.111 99.124 266.495 99.124C266.088 99.124 265.689 99.1933 265.299 99.332C264.909 99.462 264.58 99.6397 264.311 99.865L263.791 98.929C264.147 98.643 264.571 98.4263 265.065 98.279C265.568 98.123 266.092 98.045 266.638 98.045C267.583 98.045 268.311 98.2747 268.822 98.734C269.334 99.1933 269.589 99.8953 269.589 100.84V105H268.406ZM266.144 105.078C265.633 105.078 265.182 104.991 264.792 104.818C264.411 104.645 264.116 104.406 263.908 104.103C263.7 103.791 263.596 103.44 263.596 103.05C263.596 102.677 263.683 102.339 263.856 102.036C264.038 101.733 264.329 101.49 264.727 101.308C265.135 101.126 265.681 101.035 266.365 101.035H268.549V101.932H266.417C265.793 101.932 265.373 102.036 265.156 102.244C264.94 102.452 264.831 102.703 264.831 102.998C264.831 103.336 264.966 103.609 265.234 103.817C265.503 104.016 265.876 104.116 266.352 104.116C266.82 104.116 267.228 104.012 267.574 103.804C267.93 103.596 268.185 103.293 268.341 102.894L268.588 103.752C268.424 104.159 268.133 104.484 267.717 104.727C267.301 104.961 266.777 105.078 266.144 105.078ZM271.405 106.924L272.055 104.298L272.224 105.052C271.972 105.052 271.76 104.974 271.587 104.818C271.422 104.662 271.34 104.45 271.34 104.181C271.34 103.921 271.422 103.709 271.587 103.544C271.76 103.379 271.968 103.297 272.211 103.297C272.462 103.297 272.666 103.384 272.822 103.557C272.978 103.722 273.056 103.93 273.056 104.181C273.056 104.268 273.047 104.354 273.03 104.441C273.021 104.519 272.999 104.614 272.965 104.727C272.939 104.831 272.895 104.961 272.835 105.117L272.224 106.924H271.405ZM20.159 126.078C19.587 126.078 19.041 126 18.521 125.844C18.0097 125.688 17.6067 125.497 17.312 125.272L17.832 124.284C18.1267 124.483 18.4907 124.652 18.924 124.791C19.3573 124.93 19.7993 124.999 20.25 124.999C20.8307 124.999 21.2467 124.917 21.498 124.752C21.758 124.587 21.888 124.358 21.888 124.063C21.888 123.846 21.81 123.677 21.654 123.556C21.498 123.435 21.29 123.344 21.03 123.283C20.7787 123.222 20.497 123.17 20.185 123.127C19.873 123.075 19.561 123.014 19.249 122.945C18.937 122.867 18.651 122.763 18.391 122.633C18.131 122.494 17.923 122.308 17.767 122.074C17.611 121.831 17.533 121.511 17.533 121.112C17.533 120.696 17.65 120.332 17.884 120.02C18.118 119.708 18.4473 119.47 18.872 119.305C19.3053 119.132 19.8167 119.045 20.406 119.045C20.8567 119.045 21.3117 119.101 21.771 119.214C22.239 119.318 22.6203 119.47 22.915 119.669L22.382 120.657C22.07 120.449 21.745 120.306 21.407 120.228C21.069 120.15 20.731 120.111 20.393 120.111C19.847 120.111 19.4397 120.202 19.171 120.384C18.9023 120.557 18.768 120.783 18.768 121.06C18.768 121.294 18.846 121.476 19.002 121.606C19.1667 121.727 19.3747 121.823 19.626 121.892C19.886 121.961 20.172 122.022 20.484 122.074C20.796 122.117 21.108 122.178 21.42 122.256C21.732 122.325 22.0137 122.425 22.265 122.555C22.525 122.685 22.733 122.867 22.889 123.101C23.0537 123.335 23.136 123.647 23.136 124.037C23.136 124.453 23.0147 124.813 22.772 125.116C22.5293 125.419 22.187 125.658 21.745 125.831C21.303 125.996 20.7743 126.078 20.159 126.078ZM27.7637 126.078C27.027 126.078 26.377 125.926 25.8137 125.623C25.259 125.32 24.8257 124.904 24.5137 124.375C24.2104 123.846 24.0587 123.24 24.0587 122.555C24.0587 121.87 24.206 121.264 24.5007 120.735C24.804 120.206 25.2157 119.795 25.7357 119.5C26.2644 119.197 26.858 119.045 27.5167 119.045C28.184 119.045 28.7734 119.192 29.2847 119.487C29.796 119.782 30.1947 120.198 30.4807 120.735C30.7754 121.264 30.9227 121.883 30.9227 122.594C30.9227 122.646 30.9184 122.707 30.9097 122.776C30.9097 122.845 30.9054 122.91 30.8967 122.971H25.0337V122.074H30.2467L29.7397 122.386C29.7484 121.944 29.6574 121.55 29.4667 121.203C29.276 120.856 29.0117 120.588 28.6737 120.397C28.3444 120.198 27.9587 120.098 27.5167 120.098C27.0834 120.098 26.6977 120.198 26.3597 120.397C26.0217 120.588 25.7574 120.861 25.5667 121.216C25.376 121.563 25.2807 121.961 25.2807 122.412V122.62C25.2807 123.079 25.3847 123.491 25.5927 123.855C25.8094 124.21 26.1084 124.488 26.4897 124.687C26.871 124.886 27.3087 124.986 27.8027 124.986C28.21 124.986 28.5784 124.917 28.9077 124.778C29.2457 124.639 29.5404 124.431 29.7917 124.154L30.4807 124.96C30.1687 125.324 29.7787 125.601 29.3107 125.792C28.8514 125.983 28.3357 126.078 27.7637 126.078ZM36.3087 126.078C35.7367 126.078 35.2123 125.948 34.7357 125.688C34.2677 125.419 33.8907 125.025 33.6047 124.505C33.3273 123.985 33.1887 123.335 33.1887 122.555C33.1887 121.775 33.323 121.125 33.5917 120.605C33.869 120.085 34.2417 119.695 34.7097 119.435C35.1863 119.175 35.7193 119.045 36.3087 119.045C36.9847 119.045 37.5827 119.192 38.1027 119.487C38.6227 119.782 39.0343 120.193 39.3377 120.722C39.641 121.242 39.7927 121.853 39.7927 122.555C39.7927 123.257 39.641 123.872 39.3377 124.401C39.0343 124.93 38.6227 125.341 38.1027 125.636C37.5827 125.931 36.9847 126.078 36.3087 126.078ZM32.6557 128.522V119.11H33.8517V120.969L33.7737 122.568L33.9037 124.167V128.522H32.6557ZM36.2047 124.986C36.6467 124.986 37.041 124.886 37.3877 124.687C37.743 124.488 38.0203 124.206 38.2197 123.842C38.4277 123.469 38.5317 123.04 38.5317 122.555C38.5317 122.061 38.4277 121.636 38.2197 121.281C38.0203 120.917 37.743 120.635 37.3877 120.436C37.041 120.237 36.6467 120.137 36.2047 120.137C35.7713 120.137 35.377 120.237 35.0217 120.436C34.675 120.635 34.3977 120.917 34.1897 121.281C33.9903 121.636 33.8907 122.061 33.8907 122.555C33.8907 123.04 33.9903 123.469 34.1897 123.842C34.3977 124.206 34.675 124.488 35.0217 124.687C35.377 124.886 35.7713 124.986 36.2047 124.986ZM45.7305 126V124.544L45.6655 124.271V121.788C45.6655 121.259 45.5095 120.852 45.1975 120.566C44.8942 120.271 44.4348 120.124 43.8195 120.124C43.4122 120.124 43.0135 120.193 42.6235 120.332C42.2335 120.462 41.9042 120.64 41.6355 120.865L41.1155 119.929C41.4708 119.643 41.8955 119.426 42.3895 119.279C42.8922 119.123 43.4165 119.045 43.9625 119.045C44.9072 119.045 45.6352 119.275 46.1465 119.734C46.6578 120.193 46.9135 120.895 46.9135 121.84V126H45.7305ZM43.4685 126.078C42.9572 126.078 42.5065 125.991 42.1165 125.818C41.7352 125.645 41.4405 125.406 41.2325 125.103C41.0245 124.791 40.9205 124.44 40.9205 124.05C40.9205 123.677 41.0072 123.339 41.1805 123.036C41.3625 122.733 41.6528 122.49 42.0515 122.308C42.4588 122.126 43.0048 122.035 43.6895 122.035H45.8735V122.932H43.7415C43.1175 122.932 42.6972 123.036 42.4805 123.244C42.2638 123.452 42.1555 123.703 42.1555 123.998C42.1555 124.336 42.2898 124.609 42.5585 124.817C42.8272 125.016 43.1998 125.116 43.6765 125.116C44.1445 125.116 44.5518 125.012 44.8985 124.804C45.2538 124.596 45.5095 124.293 45.6655 123.894L45.9125 124.752C45.7478 125.159 45.4575 125.484 45.0415 125.727C44.6255 125.961 44.1012 126.078 43.4685 126.078ZM52.902 119.045C53.4654 119.045 53.9594 119.153 54.384 119.37C54.8174 119.587 55.1554 119.916 55.398 120.358C55.6407 120.8 55.762 121.359 55.762 122.035V126H54.514V122.178C54.514 121.511 54.3494 121.008 54.02 120.67C53.6994 120.332 53.2444 120.163 52.655 120.163C52.213 120.163 51.8274 120.25 51.498 120.423C51.1687 120.596 50.913 120.852 50.731 121.19C50.5577 121.528 50.471 121.948 50.471 122.451V126H49.223V119.11H50.419V120.969L50.224 120.475C50.4494 120.024 50.796 119.673 51.264 119.422C51.732 119.171 52.278 119.045 52.902 119.045ZM57.1877 128.6C56.9017 128.6 56.6287 128.565 56.3687 128.496C56.1 128.427 55.8747 128.323 55.6927 128.184L56.0957 127.222C56.3557 127.439 56.6937 127.547 57.1097 127.547C57.439 127.547 57.6903 127.443 57.8637 127.235C58.0457 127.036 58.1367 126.737 58.1367 126.338V119.11H59.3847V126.312C59.3847 127.014 59.194 127.569 58.8127 127.976C58.44 128.392 57.8983 128.6 57.1877 128.6ZM58.7607 117.784C58.518 117.784 58.3143 117.706 58.1497 117.55C57.9937 117.394 57.9157 117.203 57.9157 116.978C57.9157 116.744 57.9937 116.549 58.1497 116.393C58.3143 116.237 58.518 116.159 58.7607 116.159C59.0033 116.159 59.2027 116.237 59.3587 116.393C59.5233 116.54 59.6057 116.727 59.6057 116.952C59.6057 117.186 59.5277 117.385 59.3717 117.55C59.2157 117.706 59.012 117.784 58.7607 117.784ZM66.043 126V124.544L65.978 124.271V121.788C65.978 121.259 65.822 120.852 65.51 120.566C65.2067 120.271 64.7473 120.124 64.132 120.124C63.7247 120.124 63.326 120.193 62.936 120.332C62.546 120.462 62.2167 120.64 61.948 120.865L61.428 119.929C61.7833 119.643 62.208 119.426 62.702 119.279C63.2047 119.123 63.729 119.045 64.275 119.045C65.2197 119.045 65.9477 119.275 66.459 119.734C66.9703 120.193 67.226 120.895 67.226 121.84V126H66.043ZM63.781 126.078C63.2697 126.078 62.819 125.991 62.429 125.818C62.0477 125.645 61.753 125.406 61.545 125.103C61.337 124.791 61.233 124.44 61.233 124.05C61.233 123.677 61.3197 123.339 61.493 123.036C61.675 122.733 61.9653 122.49 62.364 122.308C62.7713 122.126 63.3173 122.035 64.002 122.035H66.186V122.932H64.054C63.43 122.932 63.0097 123.036 62.793 123.244C62.5763 123.452 62.468 123.703 62.468 123.998C62.468 124.336 62.6023 124.609 62.871 124.817C63.1397 125.016 63.5123 125.116 63.989 125.116C64.457 125.116 64.8643 125.012 65.211 124.804C65.5663 124.596 65.822 124.293 65.978 123.894L66.225 124.752C66.0603 125.159 65.77 125.484 65.354 125.727C64.938 125.961 64.4137 126.078 63.781 126.078ZM73.2145 119.045C73.7779 119.045 74.2719 119.153 74.6965 119.37C75.1299 119.587 75.4679 119.916 75.7105 120.358C75.9532 120.8 76.0745 121.359 76.0745 122.035V126H74.8265V122.178C74.8265 121.511 74.6619 121.008 74.3325 120.67C74.0119 120.332 73.5569 120.163 72.9675 120.163C72.5255 120.163 72.1399 120.25 71.8105 120.423C71.4812 120.596 71.2255 120.852 71.0435 121.19C70.8702 121.528 70.7835 121.948 70.7835 122.451V126H69.5355V119.11H70.7315V120.969L70.5365 120.475C70.7619 120.024 71.1085 119.673 71.5765 119.422C72.0445 119.171 72.5905 119.045 73.2145 119.045ZM81.4002 128.6C80.7675 128.6 80.1522 128.509 79.5542 128.327C78.9648 128.154 78.4838 127.902 78.1112 127.573L78.7092 126.611C79.0298 126.888 79.4242 127.105 79.8922 127.261C80.3602 127.426 80.8498 127.508 81.3612 127.508C82.1758 127.508 82.7738 127.317 83.1552 126.936C83.5365 126.555 83.7272 125.974 83.7272 125.194V123.738L83.8572 122.373L83.7922 120.995V119.11H84.9752V125.064C84.9752 126.277 84.6718 127.17 84.0652 127.742C83.4585 128.314 82.5702 128.6 81.4002 128.6ZM81.2442 125.714C80.5768 125.714 79.9788 125.575 79.4502 125.298C78.9302 125.012 78.5142 124.618 78.2022 124.115C77.8988 123.612 77.7472 123.032 77.7472 122.373C77.7472 121.706 77.8988 121.125 78.2022 120.631C78.5142 120.128 78.9302 119.738 79.4502 119.461C79.9788 119.184 80.5768 119.045 81.2442 119.045C81.8335 119.045 82.3708 119.166 82.8562 119.409C83.3415 119.643 83.7272 120.007 84.0132 120.501C84.3078 120.995 84.4552 121.619 84.4552 122.373C84.4552 123.118 84.3078 123.738 84.0132 124.232C83.7272 124.726 83.3415 125.099 82.8562 125.35C82.3708 125.593 81.8335 125.714 81.2442 125.714ZM81.3872 124.622C81.8465 124.622 82.2538 124.527 82.6092 124.336C82.9645 124.145 83.2418 123.881 83.4412 123.543C83.6492 123.205 83.7532 122.815 83.7532 122.373C83.7532 121.931 83.6492 121.541 83.4412 121.203C83.2418 120.865 82.9645 120.605 82.6092 120.423C82.2538 120.232 81.8465 120.137 81.3872 120.137C80.9278 120.137 80.5162 120.232 80.1522 120.423C79.7968 120.605 79.5152 120.865 79.3072 121.203C79.1078 121.541 79.0082 121.931 79.0082 122.373C79.0082 122.815 79.1078 123.205 79.3072 123.543C79.5152 123.881 79.7968 124.145 80.1522 124.336C80.5162 124.527 80.9278 124.622 81.3872 124.622ZM92.307 126L89.746 119.11H90.929L93.204 125.35H92.645L95.011 119.11H96.064L98.378 125.35H97.832L100.159 119.11H101.277L98.703 126H97.507L95.336 120.306H95.7L93.503 126H92.307ZM106.605 126V124.544L106.54 124.271V121.788C106.54 121.259 106.384 120.852 106.072 120.566C105.768 120.271 105.309 120.124 104.694 120.124C104.286 120.124 103.888 120.193 103.498 120.332C103.108 120.462 102.778 120.64 102.51 120.865L101.99 119.929C102.345 119.643 102.77 119.426 103.264 119.279C103.766 119.123 104.291 119.045 104.837 119.045C105.781 119.045 106.509 119.275 107.021 119.734C107.532 120.193 107.788 120.895 107.788 121.84V126H106.605ZM104.343 126.078C103.831 126.078 103.381 125.991 102.991 125.818C102.609 125.645 102.315 125.406 102.107 125.103C101.899 124.791 101.795 124.44 101.795 124.05C101.795 123.677 101.881 123.339 102.055 123.036C102.237 122.733 102.527 122.49 102.926 122.308C103.333 122.126 103.879 122.035 104.564 122.035H106.748V122.932H104.616C103.992 122.932 103.571 123.036 103.355 123.244C103.138 123.452 103.03 123.703 103.03 123.998C103.03 124.336 103.164 124.609 103.433 124.817C103.701 125.016 104.074 125.116 104.551 125.116C105.019 125.116 105.426 125.012 105.773 124.804C106.128 124.596 106.384 124.293 106.54 123.894L106.787 124.752C106.622 125.159 106.332 125.484 105.916 125.727C105.5 125.961 104.975 126.078 104.343 126.078ZM111.111 124.336L111.137 122.737L115.102 119.11H116.61L113.568 122.1L112.892 122.672L111.111 124.336ZM110.097 126V116.354H111.345V126H110.097ZM115.362 126L112.658 122.646L113.464 121.645L116.896 126H115.362ZM120.474 126.078C119.78 126.078 119.243 125.892 118.862 125.519C118.48 125.146 118.29 124.613 118.29 123.92V117.602H119.538V123.868C119.538 124.241 119.629 124.527 119.811 124.726C120.001 124.925 120.27 125.025 120.617 125.025C121.007 125.025 121.332 124.917 121.592 124.7L121.982 125.597C121.791 125.762 121.561 125.883 121.293 125.961C121.033 126.039 120.76 126.078 120.474 126.078ZM117.12 120.137V119.11H121.514V120.137H117.12ZM126.39 126.078C125.8 126.078 125.28 125.97 124.83 125.753C124.388 125.536 124.041 125.207 123.79 124.765C123.547 124.314 123.426 123.751 123.426 123.075V119.11H124.674V122.932C124.674 123.608 124.834 124.115 125.155 124.453C125.484 124.791 125.943 124.96 126.533 124.96C126.966 124.96 127.343 124.873 127.664 124.7C127.984 124.518 128.231 124.258 128.405 123.92C128.578 123.573 128.665 123.157 128.665 122.672V119.11H129.913V126H128.73V124.141L128.925 124.635C128.699 125.094 128.361 125.45 127.911 125.701C127.46 125.952 126.953 126.078 126.39 126.078ZM132.587 126.078C132.345 126.078 132.137 125.996 131.963 125.831C131.79 125.658 131.703 125.441 131.703 125.181C131.703 124.921 131.79 124.709 131.963 124.544C132.137 124.379 132.345 124.297 132.587 124.297C132.821 124.297 133.021 124.379 133.185 124.544C133.359 124.709 133.445 124.921 133.445 125.181C133.445 125.441 133.359 125.658 133.185 125.831C133.021 125.996 132.821 126.078 132.587 126.078Z" fill="white" fill-opacity="0.8"/>
<circle cx="37" cy="36" r="20" fill="white" fill-opacity="0.1"/>
<path d="M44.965 32.521C44.988 32.347 45 32.173 45 32C45 29.621 42.857 27.712 40.479 28.035C39.786 26.802 38.466 26 37 26C35.534 26 34.214 26.802 33.521 28.035C31.138 27.712 29 29.621 29 32C29 32.173 29.012 32.347 29.035 32.521C27.802 33.215 27 34.535 27 36C27 37.465 27.802 38.785 29.035 39.479C29.0119 39.6517 29.0002 39.8258 29 40C29 42.379 31.138 44.283 33.521 43.965C34.214 45.198 35.534 46 37 46C38.466 46 39.786 45.198 40.479 43.965C42.857 44.283 45 42.379 45 40C45 39.827 44.988 39.653 44.965 39.479C46.198 38.785 47 37.465 47 36C47 34.535 46.198 33.215 44.965 32.521ZM35.955 40.416L32.288 36.702L33.712 35.298L35.969 37.584L40.296 33.29L41.704 34.71L35.955 40.416Z" fill="white" fill-opacity="0.5"/>
</svg>
