<svg width="300" height="160" viewBox="0 0 300 160" fill="none" xmlns="http://www.w3.org/2000/svg">
<rect width="300" height="160" rx="10" fill="#0C0E12"/>
<rect x="1" y="1" width="298" height="158" rx="9" stroke="white" stroke-opacity="0.07" stroke-width="2"/>
<path d="M73.88 43V29H79.64C80.88 29 81.94 29.2 82.82 29.6C83.7133 30 84.4 30.5733 84.88 31.32C85.36 32.0667 85.6 32.9533 85.6 33.98C85.6 35.0067 85.36 35.8933 84.88 36.64C84.4 37.3733 83.7133 37.94 82.82 38.34C81.94 38.7267 80.88 38.92 79.64 38.92H75.32L76.48 37.74V43H73.88ZM83.04 43L79.5 37.92H82.28L85.84 43H83.04ZM76.48 38.02L75.32 36.78H79.52C80.6667 36.78 81.5267 36.5333 82.1 36.04C82.6867 35.5467 82.98 34.86 82.98 33.98C82.98 33.0867 82.6867 32.4 82.1 31.92C81.5267 31.44 80.6667 31.2 79.52 31.2H75.32L76.48 29.92V38.02ZM88.2689 43V32.32H90.7689V43H88.2689ZM89.5289 30.56C89.0622 30.56 88.6756 30.4133 88.3689 30.12C88.0756 29.8267 87.9289 29.4733 87.9289 29.06C87.9289 28.6333 88.0756 28.28 88.3689 28C88.6756 27.7067 89.0622 27.56 89.5289 27.56C89.9956 27.56 90.3756 27.7 90.6689 27.98C90.9756 28.2467 91.1289 28.5867 91.1289 29C91.1289 29.44 90.9822 29.8133 90.6889 30.12C90.3956 30.4133 90.0089 30.56 89.5289 30.56ZM96.4102 43L92.4902 32.32H94.8502L98.2102 41.74H97.0902L100.61 32.32H102.71L106.13 41.74H105.03L108.49 32.32H110.71L106.77 43H104.37L101.25 34.66H101.99L98.8102 43H96.4102ZM118.677 43V40.84L118.537 40.38V36.6C118.537 35.8667 118.317 35.3 117.877 34.9C117.437 34.4867 116.77 34.28 115.877 34.28C115.277 34.28 114.684 34.3733 114.097 34.56C113.524 34.7467 113.037 35.0067 112.637 35.34L111.657 33.52C112.23 33.08 112.91 32.7533 113.697 32.54C114.497 32.3133 115.324 32.2 116.177 32.2C117.724 32.2 118.917 32.5733 119.757 33.32C120.61 34.0533 121.037 35.1933 121.037 36.74V43H118.677ZM115.317 43.14C114.517 43.14 113.817 43.0067 113.217 42.74C112.617 42.46 112.15 42.08 111.817 41.6C111.497 41.1067 111.337 40.5533 111.337 39.94C111.337 39.34 111.477 38.8 111.757 38.32C112.05 37.84 112.524 37.46 113.177 37.18C113.83 36.9 114.697 36.76 115.777 36.76H118.877V38.42H115.957C115.104 38.42 114.53 38.56 114.237 38.84C113.944 39.1067 113.797 39.44 113.797 39.84C113.797 40.2933 113.977 40.6533 114.337 40.92C114.697 41.1867 115.197 41.32 115.837 41.32C116.45 41.32 116.997 41.18 117.477 40.9C117.97 40.62 118.324 40.2067 118.537 39.66L118.957 41.16C118.717 41.7867 118.284 42.2733 117.657 42.62C117.044 42.9667 116.264 43.14 115.317 43.14ZM124.93 47.02C124.41 47.02 123.89 46.9333 123.37 46.76C122.85 46.5867 122.417 46.3467 122.07 46.04L123.07 44.2C123.323 44.4267 123.61 44.6067 123.93 44.74C124.25 44.8733 124.577 44.94 124.91 44.94C125.363 44.94 125.73 44.8267 126.01 44.6C126.29 44.3733 126.55 43.9933 126.79 43.46L127.41 42.06L127.61 41.76L131.65 32.32H134.05L129.05 43.86C128.717 44.66 128.343 45.2933 127.93 45.76C127.53 46.2267 127.077 46.5533 126.57 46.74C126.077 46.9267 125.53 47.02 124.93 47.02ZM127.13 43.38L122.31 32.32H124.91L128.83 41.54L127.13 43.38ZM141.861 43V40.84L141.721 40.38V36.6C141.721 35.8667 141.501 35.3 141.061 34.9C140.621 34.4867 139.954 34.28 139.061 34.28C138.461 34.28 137.867 34.3733 137.281 34.56C136.707 34.7467 136.221 35.0067 135.821 35.34L134.841 33.52C135.414 33.08 136.094 32.7533 136.881 32.54C137.681 32.3133 138.507 32.2 139.361 32.2C140.907 32.2 142.101 32.5733 142.941 33.32C143.794 34.0533 144.221 35.1933 144.221 36.74V43H141.861ZM138.501 43.14C137.701 43.14 137.001 43.0067 136.401 42.74C135.801 42.46 135.334 42.08 135.001 41.6C134.681 41.1067 134.521 40.5533 134.521 39.94C134.521 39.34 134.661 38.8 134.941 38.32C135.234 37.84 135.707 37.46 136.361 37.18C137.014 36.9 137.881 36.76 138.961 36.76H142.061V38.42H139.141C138.287 38.42 137.714 38.56 137.421 38.84C137.127 39.1067 136.981 39.44 136.981 39.84C136.981 40.2933 137.161 40.6533 137.521 40.92C137.881 41.1867 138.381 41.32 139.021 41.32C139.634 41.32 140.181 41.18 140.661 40.9C141.154 40.62 141.507 40.2067 141.721 39.66L142.141 41.16C141.901 41.7867 141.467 42.2733 140.841 42.62C140.227 42.9667 139.447 43.14 138.501 43.14ZM151.449 43.14C150.276 43.14 149.369 42.84 148.729 42.24C148.089 41.6267 147.769 40.7267 147.769 39.54V29.96H150.269V39.48C150.269 39.9867 150.396 40.38 150.649 40.66C150.916 40.94 151.282 41.08 151.749 41.08C152.309 41.08 152.776 40.9333 153.149 40.64L153.849 42.42C153.556 42.66 153.196 42.84 152.769 42.96C152.342 43.08 151.902 43.14 151.449 43.14ZM146.009 34.4V32.4H153.129V34.4H146.009ZM161.673 43V29H168.233C169.913 29 171.193 29.3333 172.073 30C172.953 30.6533 173.393 31.5333 173.393 32.64C173.393 33.3867 173.22 34.0267 172.873 34.56C172.526 35.08 172.06 35.4867 171.473 35.78C170.9 36.06 170.273 36.2 169.593 36.2L169.953 35.48C170.74 35.48 171.446 35.6267 172.073 35.92C172.7 36.2 173.193 36.6133 173.553 37.16C173.926 37.7067 174.113 38.3867 174.113 39.2C174.113 40.4 173.653 41.3333 172.733 42C171.813 42.6667 170.446 43 168.633 43H161.673ZM164.273 40.96H168.473C169.446 40.96 170.193 40.8 170.713 40.48C171.233 40.16 171.493 39.6467 171.493 38.94C171.493 38.2467 171.233 37.74 170.713 37.42C170.193 37.0867 169.446 36.92 168.473 36.92H164.073V34.9H167.953C168.86 34.9 169.553 34.74 170.033 34.42C170.526 34.1 170.773 33.62 170.773 32.98C170.773 32.3267 170.526 31.84 170.033 31.52C169.553 31.2 168.86 31.04 167.953 31.04H164.273V40.96ZM183.228 43V40.84L183.088 40.38V36.6C183.088 35.8667 182.868 35.3 182.428 34.9C181.988 34.4867 181.321 34.28 180.428 34.28C179.828 34.28 179.234 34.3733 178.648 34.56C178.074 34.7467 177.588 35.0067 177.188 35.34L176.208 33.52C176.781 33.08 177.461 32.7533 178.248 32.54C179.048 32.3133 179.874 32.2 180.728 32.2C182.274 32.2 183.468 32.5733 184.308 33.32C185.161 34.0533 185.588 35.1933 185.588 36.74V43H183.228ZM179.868 43.14C179.068 43.14 178.368 43.0067 177.768 42.74C177.168 42.46 176.701 42.08 176.368 41.6C176.048 41.1067 175.888 40.5533 175.888 39.94C175.888 39.34 176.028 38.8 176.308 38.32C176.601 37.84 177.074 37.46 177.728 37.18C178.381 36.9 179.248 36.76 180.328 36.76H183.428V38.42H180.508C179.654 38.42 179.081 38.56 178.788 38.84C178.494 39.1067 178.348 39.44 178.348 39.84C178.348 40.2933 178.528 40.6533 178.888 40.92C179.248 41.1867 179.748 41.32 180.388 41.32C181.001 41.32 181.548 41.18 182.028 40.9C182.521 40.62 182.874 40.2067 183.088 39.66L183.508 41.16C183.268 41.7867 182.834 42.2733 182.208 42.62C181.594 42.9667 180.814 43.14 179.868 43.14ZM194.856 32.2C195.71 32.2 196.47 32.3667 197.136 32.7C197.816 33.0333 198.35 33.5467 198.736 34.24C199.123 34.92 199.316 35.8 199.316 36.88V43H196.816V37.2C196.816 36.2533 196.59 35.5467 196.136 35.08C195.696 34.6133 195.076 34.38 194.276 34.38C193.69 34.38 193.17 34.5 192.716 34.74C192.263 34.98 191.91 35.34 191.656 35.82C191.416 36.2867 191.296 36.88 191.296 37.6V43H188.796V32.32H191.176V35.2L190.756 34.32C191.13 33.64 191.67 33.12 192.376 32.76C193.096 32.3867 193.923 32.2 194.856 32.2ZM206.508 43.14C205.334 43.14 204.428 42.84 203.788 42.24C203.148 41.6267 202.828 40.7267 202.828 39.54V29.96H205.328V39.48C205.328 39.9867 205.454 40.38 205.708 40.66C205.974 40.94 206.341 41.08 206.808 41.08C207.368 41.08 207.834 40.9333 208.208 40.64L208.908 42.42C208.614 42.66 208.254 42.84 207.828 42.96C207.401 43.08 206.961 43.14 206.508 43.14ZM201.068 34.4V32.4H208.188V34.4H201.068ZM215.484 43.14C214.578 43.14 213.778 42.9733 213.084 42.64C212.391 42.2933 211.851 41.7733 211.464 41.08C211.078 40.3733 210.884 39.4867 210.884 38.42V32.32H213.384V38.08C213.384 39.04 213.598 39.76 214.024 40.24C214.464 40.7067 215.084 40.94 215.884 40.94C216.471 40.94 216.978 40.82 217.404 40.58C217.844 40.34 218.184 39.98 218.424 39.5C218.678 39.02 218.804 38.4267 218.804 37.72V32.32H221.304V43H218.924V40.12L219.344 41C218.984 41.6933 218.458 42.2267 217.764 42.6C217.071 42.96 216.311 43.14 215.484 43.14ZM231.158 43V40.84L231.018 40.38V36.6C231.018 35.8667 230.798 35.3 230.358 34.9C229.918 34.4867 229.251 34.28 228.358 34.28C227.758 34.28 227.164 34.3733 226.578 34.56C226.004 34.7467 225.518 35.0067 225.118 35.34L224.138 33.52C224.711 33.08 225.391 32.7533 226.178 32.54C226.978 32.3133 227.804 32.2 228.658 32.2C230.204 32.2 231.398 32.5733 232.238 33.32C233.091 34.0533 233.518 35.1933 233.518 36.74V43H231.158ZM227.798 43.14C226.998 43.14 226.298 43.0067 225.698 42.74C225.098 42.46 224.631 42.08 224.298 41.6C223.978 41.1067 223.818 40.5533 223.818 39.94C223.818 39.34 223.958 38.8 224.238 38.32C224.531 37.84 225.004 37.46 225.658 37.18C226.311 36.9 227.178 36.76 228.258 36.76H231.358V38.42H228.438C227.584 38.42 227.011 38.56 226.718 38.84C226.424 39.1067 226.278 39.44 226.278 39.84C226.278 40.2933 226.458 40.6533 226.818 40.92C227.178 41.1867 227.678 41.32 228.318 41.32C228.931 41.32 229.478 41.18 229.958 40.9C230.451 40.62 230.804 40.2067 231.018 39.66L231.438 41.16C231.198 41.7867 230.764 42.2733 230.138 42.62C229.524 42.9667 228.744 43.14 227.798 43.14ZM242.786 32.2C243.639 32.2 244.399 32.3667 245.066 32.7C245.746 33.0333 246.279 33.5467 246.666 34.24C247.053 34.92 247.246 35.8 247.246 36.88V43H244.746V37.2C244.746 36.2533 244.519 35.5467 244.066 35.08C243.626 34.6133 243.006 34.38 242.206 34.38C241.619 34.38 241.099 34.5 240.646 34.74C240.193 34.98 239.839 35.34 239.586 35.82C239.346 36.2867 239.226 36.88 239.226 37.6V43H236.726V32.32H239.106V35.2L238.686 34.32C239.059 33.64 239.599 33.12 240.306 32.76C241.026 32.3867 241.853 32.2 242.786 32.2Z" fill="white"/>
<path d="M18.365 84V74.9H21.914C22.7113 74.9 23.3917 75.0257 23.955 75.277C24.5183 75.5283 24.9517 75.8923 25.255 76.369C25.5583 76.8457 25.71 77.4133 25.71 78.072C25.71 78.7307 25.5583 79.2983 25.255 79.775C24.9517 80.243 24.5183 80.607 23.955 80.867C23.3917 81.1183 22.7113 81.244 21.914 81.244H19.08L19.665 80.633V84H18.365ZM19.665 80.763L19.08 80.113H21.875C22.707 80.113 23.3353 79.9353 23.76 79.58C24.1933 79.2247 24.41 78.722 24.41 78.072C24.41 77.422 24.1933 76.9193 23.76 76.564C23.3353 76.2087 22.707 76.031 21.875 76.031H19.08L19.665 75.381V80.763ZM30.4805 84.078C29.7438 84.078 29.0938 83.9263 28.5305 83.623C27.9758 83.3197 27.5425 82.9037 27.2305 82.375C26.9272 81.8463 26.7755 81.2397 26.7755 80.555C26.7755 79.8703 26.9228 79.2637 27.2175 78.735C27.5208 78.2063 27.9325 77.7947 28.4525 77.5C28.9812 77.1967 29.5748 77.045 30.2335 77.045C30.9008 77.045 31.4902 77.1923 32.0015 77.487C32.5128 77.7817 32.9115 78.1977 33.1975 78.735C33.4922 79.2637 33.6395 79.8833 33.6395 80.594C33.6395 80.646 33.6352 80.7067 33.6265 80.776C33.6265 80.8453 33.6222 80.9103 33.6135 80.971H27.7505V80.074H32.9635L32.4565 80.386C32.4652 79.944 32.3742 79.5497 32.1835 79.203C31.9928 78.8563 31.7285 78.5877 31.3905 78.397C31.0612 78.1977 30.6755 78.098 30.2335 78.098C29.8002 78.098 29.4145 78.1977 29.0765 78.397C28.7385 78.5877 28.4742 78.8607 28.2835 79.216C28.0928 79.5627 27.9975 79.9613 27.9975 80.412V80.62C27.9975 81.0793 28.1015 81.491 28.3095 81.855C28.5262 82.2103 28.8252 82.4877 29.2065 82.687C29.5878 82.8863 30.0255 82.986 30.5195 82.986C30.9268 82.986 31.2952 82.9167 31.6245 82.778C31.9625 82.6393 32.2572 82.4313 32.5085 82.154L33.1975 82.96C32.8855 83.324 32.4955 83.6013 32.0275 83.792C31.5682 83.9827 31.0525 84.078 30.4805 84.078ZM39.0515 77.045C39.6148 77.045 40.1088 77.1533 40.5335 77.37C40.9668 77.5867 41.3048 77.916 41.5475 78.358C41.7901 78.8 41.9115 79.359 41.9115 80.035V84H40.6635V80.178C40.6635 79.5107 40.4988 79.008 40.1695 78.67C39.8488 78.332 39.3938 78.163 38.8045 78.163C38.3625 78.163 37.9768 78.2497 37.6475 78.423C37.3181 78.5963 37.0625 78.852 36.8805 79.19C36.7071 79.528 36.6205 79.9483 36.6205 80.451V84H35.3725V77.11H36.5685V78.969L36.3735 78.475C36.5988 78.0243 36.9455 77.6733 37.4135 77.422C37.8815 77.1707 38.4275 77.045 39.0515 77.045ZM47.2371 86.6C46.6044 86.6 45.9891 86.509 45.3911 86.327C44.8018 86.1537 44.3208 85.9023 43.9481 85.573L44.5461 84.611C44.8668 84.8883 45.2611 85.105 45.7291 85.261C46.1971 85.4257 46.6868 85.508 47.1981 85.508C48.0128 85.508 48.6108 85.3173 48.9921 84.936C49.3734 84.5547 49.5641 83.974 49.5641 83.194V81.738L49.6941 80.373L49.6291 78.995V77.11H50.8121V83.064C50.8121 84.2773 50.5088 85.17 49.9021 85.742C49.2954 86.314 48.4071 86.6 47.2371 86.6ZM47.0811 83.714C46.4138 83.714 45.8158 83.5753 45.2871 83.298C44.7671 83.012 44.3511 82.6177 44.0391 82.115C43.7358 81.6123 43.5841 81.0317 43.5841 80.373C43.5841 79.7057 43.7358 79.125 44.0391 78.631C44.3511 78.1283 44.7671 77.7383 45.2871 77.461C45.8158 77.1837 46.4138 77.045 47.0811 77.045C47.6704 77.045 48.2078 77.1663 48.6931 77.409C49.1784 77.643 49.5641 78.007 49.8501 78.501C50.1448 78.995 50.2921 79.619 50.2921 80.373C50.2921 81.1183 50.1448 81.738 49.8501 82.232C49.5641 82.726 49.1784 83.0987 48.6931 83.35C48.2078 83.5927 47.6704 83.714 47.0811 83.714ZM47.2241 82.622C47.6834 82.622 48.0908 82.5267 48.4461 82.336C48.8014 82.1453 49.0788 81.881 49.2781 81.543C49.4861 81.205 49.5901 80.815 49.5901 80.373C49.5901 79.931 49.4861 79.541 49.2781 79.203C49.0788 78.865 48.8014 78.605 48.4461 78.423C48.0908 78.2323 47.6834 78.137 47.2241 78.137C46.7648 78.137 46.3531 78.2323 45.9891 78.423C45.6338 78.605 45.3521 78.865 45.1441 79.203C44.9448 79.541 44.8451 79.931 44.8451 80.373C44.8451 80.815 44.9448 81.205 45.1441 81.543C45.3521 81.881 45.6338 82.1453 45.9891 82.336C46.3531 82.5267 46.7648 82.622 47.2241 82.622ZM56.2127 86.6C55.58 86.6 54.9647 86.509 54.3667 86.327C53.7773 86.1537 53.2963 85.9023 52.9237 85.573L53.5217 84.611C53.8423 84.8883 54.2367 85.105 54.7047 85.261C55.1727 85.4257 55.6623 85.508 56.1737 85.508C56.9883 85.508 57.5863 85.3173 57.9677 84.936C58.349 84.5547 58.5397 83.974 58.5397 83.194V81.738L58.6697 80.373L58.6047 78.995V77.11H59.7877V83.064C59.7877 84.2773 59.4843 85.17 58.8777 85.742C58.271 86.314 57.3827 86.6 56.2127 86.6ZM56.0567 83.714C55.3893 83.714 54.7913 83.5753 54.2627 83.298C53.7427 83.012 53.3267 82.6177 53.0147 82.115C52.7113 81.6123 52.5597 81.0317 52.5597 80.373C52.5597 79.7057 52.7113 79.125 53.0147 78.631C53.3267 78.1283 53.7427 77.7383 54.2627 77.461C54.7913 77.1837 55.3893 77.045 56.0567 77.045C56.646 77.045 57.1833 77.1663 57.6687 77.409C58.154 77.643 58.5397 78.007 58.8257 78.501C59.1203 78.995 59.2677 79.619 59.2677 80.373C59.2677 81.1183 59.1203 81.738 58.8257 82.232C58.5397 82.726 58.154 83.0987 57.6687 83.35C57.1833 83.5927 56.646 83.714 56.0567 83.714ZM56.1997 82.622C56.659 82.622 57.0663 82.5267 57.4217 82.336C57.777 82.1453 58.0543 81.881 58.2537 81.543C58.4617 81.205 58.5657 80.815 58.5657 80.373C58.5657 79.931 58.4617 79.541 58.2537 79.203C58.0543 78.865 57.777 78.605 57.4217 78.423C57.0663 78.2323 56.659 78.137 56.1997 78.137C55.7403 78.137 55.3287 78.2323 54.9647 78.423C54.6093 78.605 54.3277 78.865 54.1197 79.203C53.9203 79.541 53.8207 79.931 53.8207 80.373C53.8207 80.815 53.9203 81.205 54.1197 81.543C54.3277 81.881 54.6093 82.1453 54.9647 82.336C55.3287 82.5267 55.7403 82.622 56.1997 82.622ZM65.0713 84.078C64.4819 84.078 63.9619 83.9697 63.5113 83.753C63.0693 83.5363 62.7226 83.207 62.4713 82.765C62.2286 82.3143 62.1073 81.751 62.1073 81.075V77.11H63.3553V80.932C63.3553 81.608 63.5156 82.115 63.8363 82.453C64.1656 82.791 64.6249 82.96 65.2143 82.96C65.6476 82.96 66.0246 82.8733 66.3453 82.7C66.6659 82.518 66.9129 82.258 67.0863 81.92C67.2596 81.5733 67.3463 81.1573 67.3463 80.672V77.11H68.5943V84H67.4113V82.141L67.6063 82.635C67.3809 83.0943 67.0429 83.4497 66.5923 83.701C66.1416 83.9523 65.6346 84.078 65.0713 84.078ZM74.6491 77.045C75.2124 77.045 75.7064 77.1533 76.1311 77.37C76.5644 77.5867 76.9024 77.916 77.1451 78.358C77.3878 78.8 77.5091 79.359 77.5091 80.035V84H76.2611V80.178C76.2611 79.5107 76.0964 79.008 75.7671 78.67C75.4464 78.332 74.9914 78.163 74.4021 78.163C73.9601 78.163 73.5744 78.2497 73.2451 78.423C72.9158 78.5963 72.6601 78.852 72.4781 79.19C72.3048 79.528 72.2181 79.9483 72.2181 80.451V84H70.9701V77.11H72.1661V78.969L71.9711 78.475C72.1964 78.0243 72.5431 77.6733 73.0111 77.422C73.4791 77.1707 74.0251 77.045 74.6491 77.045ZM84.0957 84V82.544L84.0307 82.271V79.788C84.0307 79.2593 83.8747 78.852 83.5627 78.566C83.2594 78.2713 82.8001 78.124 82.1847 78.124C81.7774 78.124 81.3787 78.1933 80.9887 78.332C80.5987 78.462 80.2694 78.6397 80.0007 78.865L79.4807 77.929C79.8361 77.643 80.2607 77.4263 80.7547 77.279C81.2574 77.123 81.7817 77.045 82.3277 77.045C83.2724 77.045 84.0004 77.2747 84.5117 77.734C85.0231 78.1933 85.2787 78.8953 85.2787 79.84V84H84.0957ZM81.8337 84.078C81.3224 84.078 80.8717 83.9913 80.4817 83.818C80.1004 83.6447 79.8057 83.4063 79.5977 83.103C79.3897 82.791 79.2857 82.44 79.2857 82.05C79.2857 81.6773 79.3724 81.3393 79.5457 81.036C79.7277 80.7327 80.0181 80.49 80.4167 80.308C80.8241 80.126 81.3701 80.035 82.0547 80.035H84.2387V80.932H82.1067C81.4827 80.932 81.0624 81.036 80.8457 81.244C80.6291 81.452 80.5207 81.7033 80.5207 81.998C80.5207 82.336 80.6551 82.609 80.9237 82.817C81.1924 83.0163 81.5651 83.116 82.0417 83.116C82.5097 83.116 82.9171 83.012 83.2637 82.804C83.6191 82.596 83.8747 82.2927 84.0307 81.894L84.2777 82.752C84.1131 83.1593 83.8227 83.4843 83.4067 83.727C82.9907 83.961 82.4664 84.078 81.8337 84.078ZM93.9265 84.078C93.2592 84.078 92.6612 83.9307 92.1325 83.636C91.6125 83.3413 91.2008 82.9297 90.8975 82.401C90.5942 81.8723 90.4425 81.257 90.4425 80.555C90.4425 79.853 90.5942 79.242 90.8975 78.722C91.2008 78.1933 91.6125 77.7817 92.1325 77.487C92.6612 77.1923 93.2592 77.045 93.9265 77.045C94.5072 77.045 95.0315 77.175 95.4995 77.435C95.9675 77.695 96.3402 78.085 96.6175 78.605C96.9035 79.125 97.0465 79.775 97.0465 80.555C97.0465 81.335 96.9078 81.985 96.6305 82.505C96.3618 83.025 95.9935 83.4193 95.5255 83.688C95.0575 83.948 94.5245 84.078 93.9265 84.078ZM94.0305 82.986C94.4638 82.986 94.8538 82.8863 95.2005 82.687C95.5558 82.4877 95.8332 82.206 96.0325 81.842C96.2405 81.4693 96.3445 81.0403 96.3445 80.555C96.3445 80.061 96.2405 79.6363 96.0325 79.281C95.8332 78.917 95.5558 78.6353 95.2005 78.436C94.8538 78.2367 94.4638 78.137 94.0305 78.137C93.5885 78.137 93.1942 78.2367 92.8475 78.436C92.5008 78.6353 92.2235 78.917 92.0155 79.281C91.8075 79.6363 91.7035 80.061 91.7035 80.555C91.7035 81.0403 91.8075 81.4693 92.0155 81.842C92.2235 82.206 92.5008 82.4877 92.8475 82.687C93.1942 82.8863 93.5885 82.986 94.0305 82.986ZM96.3835 84V82.141L96.4615 80.542L96.3315 78.943V74.354H97.5795V84H96.3835ZM104.218 84V82.544L104.153 82.271V79.788C104.153 79.2593 103.997 78.852 103.685 78.566C103.381 78.2713 102.922 78.124 102.307 78.124C101.899 78.124 101.501 78.1933 101.111 78.332C100.721 78.462 100.391 78.6397 100.123 78.865L99.6028 77.929C99.9581 77.643 100.383 77.4263 100.877 77.279C101.379 77.123 101.904 77.045 102.45 77.045C103.394 77.045 104.122 77.2747 104.634 77.734C105.145 78.1933 105.401 78.8953 105.401 79.84V84H104.218ZM101.956 84.078C101.444 84.078 100.994 83.9913 100.604 83.818C100.222 83.6447 99.9278 83.4063 99.7198 83.103C99.5118 82.791 99.4078 82.44 99.4078 82.05C99.4078 81.6773 99.4945 81.3393 99.6678 81.036C99.8498 80.7327 100.14 80.49 100.539 80.308C100.946 80.126 101.492 80.035 102.177 80.035H104.361V80.932H102.229C101.605 80.932 101.184 81.036 100.968 81.244C100.751 81.452 100.643 81.7033 100.643 81.998C100.643 82.336 100.777 82.609 101.046 82.817C101.314 83.0163 101.687 83.116 102.164 83.116C102.632 83.116 103.039 83.012 103.386 82.804C103.741 82.596 103.997 82.2927 104.153 81.894L104.4 82.752C104.235 83.1593 103.945 83.4843 103.529 83.727C103.113 83.961 102.588 84.078 101.956 84.078ZM111.363 84.078C110.791 84.078 110.267 83.948 109.79 83.688C109.322 83.4193 108.945 83.025 108.659 82.505C108.382 81.985 108.243 81.335 108.243 80.555C108.243 79.775 108.378 79.125 108.646 78.605C108.924 78.085 109.296 77.695 109.764 77.435C110.241 77.175 110.774 77.045 111.363 77.045C112.039 77.045 112.637 77.1923 113.157 77.487C113.677 77.7817 114.089 78.1933 114.392 78.722C114.696 79.242 114.847 79.853 114.847 80.555C114.847 81.257 114.696 81.8723 114.392 82.401C114.089 82.9297 113.677 83.3413 113.157 83.636C112.637 83.9307 112.039 84.078 111.363 84.078ZM107.71 86.522V77.11H108.906V78.969L108.828 80.568L108.958 82.167V86.522H107.71ZM111.259 82.986C111.701 82.986 112.096 82.8863 112.442 82.687C112.798 82.4877 113.075 82.206 113.274 81.842C113.482 81.4693 113.586 81.0403 113.586 80.555C113.586 80.061 113.482 79.6363 113.274 79.281C113.075 78.917 112.798 78.6353 112.442 78.436C112.096 78.2367 111.701 78.137 111.259 78.137C110.826 78.137 110.432 78.2367 110.076 78.436C109.73 78.6353 109.452 78.917 109.244 79.281C109.045 79.6363 108.945 80.061 108.945 80.555C108.945 81.0403 109.045 81.4693 109.244 81.842C109.452 82.206 109.73 82.4877 110.076 82.687C110.432 82.8863 110.826 82.986 111.259 82.986ZM120.785 84V82.544L120.72 82.271V79.788C120.72 79.2593 120.564 78.852 120.252 78.566C119.949 78.2713 119.49 78.124 118.874 78.124C118.467 78.124 118.068 78.1933 117.678 78.332C117.288 78.462 116.959 78.6397 116.69 78.865L116.17 77.929C116.526 77.643 116.95 77.4263 117.444 77.279C117.947 77.123 118.471 77.045 119.017 77.045C119.962 77.045 120.69 77.2747 121.201 77.734C121.713 78.1933 121.968 78.8953 121.968 79.84V84H120.785ZM118.523 84.078C118.012 84.078 117.561 83.9913 117.171 83.818C116.79 83.6447 116.495 83.4063 116.287 83.103C116.079 82.791 115.975 82.44 115.975 82.05C115.975 81.6773 116.062 81.3393 116.235 81.036C116.417 80.7327 116.708 80.49 117.106 80.308C117.514 80.126 118.06 80.035 118.744 80.035H120.928V80.932H118.796C118.172 80.932 117.752 81.036 117.535 81.244C117.319 81.452 117.21 81.7033 117.21 81.998C117.21 82.336 117.345 82.609 117.613 82.817C117.882 83.0163 118.255 83.116 118.731 83.116C119.199 83.116 119.607 83.012 119.953 82.804C120.309 82.596 120.564 82.2927 120.72 81.894L120.967 82.752C120.803 83.1593 120.512 83.4843 120.096 83.727C119.68 83.961 119.156 84.078 118.523 84.078ZM126.644 84.078C125.95 84.078 125.413 83.8917 125.032 83.519C124.65 83.1463 124.46 82.6133 124.46 81.92V75.602H125.708V81.868C125.708 82.2407 125.799 82.5267 125.981 82.726C126.171 82.9253 126.44 83.025 126.787 83.025C127.177 83.025 127.502 82.9167 127.762 82.7L128.152 83.597C127.961 83.7617 127.731 83.883 127.463 83.961C127.203 84.039 126.93 84.078 126.644 84.078ZM123.29 78.137V77.11H127.684V78.137H123.29ZM141.771 77.045C142.325 77.045 142.815 77.1533 143.24 77.37C143.664 77.5867 143.994 77.916 144.228 78.358C144.47 78.8 144.592 79.359 144.592 80.035V84H143.344V80.178C143.344 79.5107 143.188 79.008 142.876 78.67C142.564 78.332 142.126 78.163 141.563 78.163C141.147 78.163 140.783 78.2497 140.471 78.423C140.159 78.5963 139.916 78.852 139.743 79.19C139.578 79.528 139.496 79.9483 139.496 80.451V84H138.248V80.178C138.248 79.5107 138.092 79.008 137.78 78.67C137.476 78.332 137.039 78.163 136.467 78.163C136.059 78.163 135.7 78.2497 135.388 78.423C135.076 78.5963 134.833 78.852 134.66 79.19C134.486 79.528 134.4 79.9483 134.4 80.451V84H133.152V77.11H134.348V78.943L134.153 78.475C134.369 78.0243 134.703 77.6733 135.154 77.422C135.604 77.1707 136.129 77.045 136.727 77.045C137.385 77.045 137.953 77.2097 138.43 77.539C138.906 77.8597 139.218 78.3493 139.366 79.008L138.859 78.8C139.067 78.2713 139.431 77.8467 139.951 77.526C140.471 77.2053 141.077 77.045 141.771 77.045ZM149.956 84.078C149.219 84.078 148.569 83.9263 148.006 83.623C147.451 83.3197 147.018 82.9037 146.706 82.375C146.403 81.8463 146.251 81.2397 146.251 80.555C146.251 79.8703 146.398 79.2637 146.693 78.735C146.996 78.2063 147.408 77.7947 147.928 77.5C148.457 77.1967 149.05 77.045 149.709 77.045C150.376 77.045 150.966 77.1923 151.477 77.487C151.988 77.7817 152.387 78.1977 152.673 78.735C152.968 79.2637 153.115 79.8833 153.115 80.594C153.115 80.646 153.111 80.7067 153.102 80.776C153.102 80.8453 153.098 80.9103 153.089 80.971H147.226V80.074H152.439L151.932 80.386C151.941 79.944 151.85 79.5497 151.659 79.203C151.468 78.8563 151.204 78.5877 150.866 78.397C150.537 78.1977 150.151 78.098 149.709 78.098C149.276 78.098 148.89 78.1977 148.552 78.397C148.214 78.5877 147.95 78.8607 147.759 79.216C147.568 79.5627 147.473 79.9613 147.473 80.412V80.62C147.473 81.0793 147.577 81.491 147.785 81.855C148.002 82.2103 148.301 82.4877 148.682 82.687C149.063 82.8863 149.501 82.986 149.995 82.986C150.402 82.986 150.771 82.9167 151.1 82.778C151.438 82.6393 151.733 82.4313 151.984 82.154L152.673 82.96C152.361 83.324 151.971 83.6013 151.503 83.792C151.044 83.9827 150.528 84.078 149.956 84.078ZM158.527 77.045C159.09 77.045 159.584 77.1533 160.009 77.37C160.442 77.5867 160.78 77.916 161.023 78.358C161.266 78.8 161.387 79.359 161.387 80.035V84H160.139V80.178C160.139 79.5107 159.974 79.008 159.645 78.67C159.324 78.332 158.869 78.163 158.28 78.163C157.838 78.163 157.452 78.2497 157.123 78.423C156.794 78.5963 156.538 78.852 156.356 79.19C156.183 79.528 156.096 79.9483 156.096 80.451V84H154.848V77.11H156.044V78.969L155.849 78.475C156.074 78.0243 156.421 77.6733 156.889 77.422C157.357 77.1707 157.903 77.045 158.527 77.045ZM166.713 86.6C166.08 86.6 165.465 86.509 164.867 86.327C164.277 86.1537 163.796 85.9023 163.424 85.573L164.022 84.611C164.342 84.8883 164.737 85.105 165.205 85.261C165.673 85.4257 166.162 85.508 166.674 85.508C167.488 85.508 168.086 85.3173 168.468 84.936C168.849 84.5547 169.04 83.974 169.04 83.194V81.738L169.17 80.373L169.105 78.995V77.11H170.288V83.064C170.288 84.2773 169.984 85.17 169.378 85.742C168.771 86.314 167.883 86.6 166.713 86.6ZM166.557 83.714C165.889 83.714 165.291 83.5753 164.763 83.298C164.243 83.012 163.827 82.6177 163.515 82.115C163.211 81.6123 163.06 81.0317 163.06 80.373C163.06 79.7057 163.211 79.125 163.515 78.631C163.827 78.1283 164.243 77.7383 164.763 77.461C165.291 77.1837 165.889 77.045 166.557 77.045C167.146 77.045 167.683 77.1663 168.169 77.409C168.654 77.643 169.04 78.007 169.326 78.501C169.62 78.995 169.768 79.619 169.768 80.373C169.768 81.1183 169.62 81.738 169.326 82.232C169.04 82.726 168.654 83.0987 168.169 83.35C167.683 83.5927 167.146 83.714 166.557 83.714ZM166.7 82.622C167.159 82.622 167.566 82.5267 167.922 82.336C168.277 82.1453 168.554 81.881 168.754 81.543C168.962 81.205 169.066 80.815 169.066 80.373C169.066 79.931 168.962 79.541 168.754 79.203C168.554 78.865 168.277 78.605 167.922 78.423C167.566 78.2323 167.159 78.137 166.7 78.137C166.24 78.137 165.829 78.2323 165.465 78.423C165.109 78.605 164.828 78.865 164.62 79.203C164.42 79.541 164.321 79.931 164.321 80.373C164.321 80.815 164.42 81.205 164.62 81.543C164.828 81.881 165.109 82.1453 165.465 82.336C165.829 82.5267 166.24 82.622 166.7 82.622ZM176.949 84V82.544L176.884 82.271V79.788C176.884 79.2593 176.728 78.852 176.416 78.566C176.113 78.2713 175.654 78.124 175.038 78.124C174.631 78.124 174.232 78.1933 173.842 78.332C173.452 78.462 173.123 78.6397 172.854 78.865L172.334 77.929C172.69 77.643 173.114 77.4263 173.608 77.279C174.111 77.123 174.635 77.045 175.181 77.045C176.126 77.045 176.854 77.2747 177.365 77.734C177.877 78.1933 178.132 78.8953 178.132 79.84V84H176.949ZM174.687 84.078C174.176 84.078 173.725 83.9913 173.335 83.818C172.954 83.6447 172.659 83.4063 172.451 83.103C172.243 82.791 172.139 82.44 172.139 82.05C172.139 81.6773 172.226 81.3393 172.399 81.036C172.581 80.7327 172.872 80.49 173.27 80.308C173.678 80.126 174.224 80.035 174.908 80.035H177.092V80.932H174.96C174.336 80.932 173.916 81.036 173.699 81.244C173.483 81.452 173.374 81.7033 173.374 81.998C173.374 82.336 173.509 82.609 173.777 82.817C174.046 83.0163 174.419 83.116 174.895 83.116C175.363 83.116 175.771 83.012 176.117 82.804C176.473 82.596 176.728 82.2927 176.884 81.894L177.131 82.752C176.967 83.1593 176.676 83.4843 176.26 83.727C175.844 83.961 175.32 84.078 174.687 84.078ZM181.456 82.336L181.482 80.737L185.447 77.11H186.955L183.913 80.1L183.237 80.672L181.456 82.336ZM180.442 84V74.354H181.69V84H180.442ZM185.707 84L183.003 80.646L183.809 79.645L187.241 84H185.707ZM190.213 84.078C189.641 84.078 189.095 84 188.575 83.844C188.063 83.688 187.66 83.4973 187.366 83.272L187.886 82.284C188.18 82.4833 188.544 82.6523 188.978 82.791C189.411 82.9297 189.853 82.999 190.304 82.999C190.884 82.999 191.3 82.9167 191.552 82.752C191.812 82.5873 191.942 82.3577 191.942 82.063C191.942 81.8463 191.864 81.6773 191.708 81.556C191.552 81.4347 191.344 81.3437 191.084 81.283C190.832 81.2223 190.551 81.1703 190.239 81.127C189.927 81.075 189.615 81.0143 189.303 80.945C188.991 80.867 188.705 80.763 188.445 80.633C188.185 80.4943 187.977 80.308 187.821 80.074C187.665 79.8313 187.587 79.5107 187.587 79.112C187.587 78.696 187.704 78.332 187.938 78.02C188.172 77.708 188.501 77.4697 188.926 77.305C189.359 77.1317 189.87 77.045 190.46 77.045C190.91 77.045 191.365 77.1013 191.825 77.214C192.293 77.318 192.674 77.4697 192.969 77.669L192.436 78.657C192.124 78.449 191.799 78.306 191.461 78.228C191.123 78.15 190.785 78.111 190.447 78.111C189.901 78.111 189.493 78.202 189.225 78.384C188.956 78.5573 188.822 78.7827 188.822 79.06C188.822 79.294 188.9 79.476 189.056 79.606C189.22 79.7273 189.428 79.8227 189.68 79.892C189.94 79.9613 190.226 80.022 190.538 80.074C190.85 80.1173 191.162 80.178 191.474 80.256C191.786 80.3253 192.067 80.425 192.319 80.555C192.579 80.685 192.787 80.867 192.943 81.101C193.107 81.335 193.19 81.647 193.19 82.037C193.19 82.453 193.068 82.8127 192.826 83.116C192.583 83.4193 192.241 83.6577 191.799 83.831C191.357 83.9957 190.828 84.078 190.213 84.078ZM197.817 84.078C197.081 84.078 196.431 83.9263 195.867 83.623C195.313 83.3197 194.879 82.9037 194.567 82.375C194.264 81.8463 194.112 81.2397 194.112 80.555C194.112 79.8703 194.26 79.2637 194.554 78.735C194.858 78.2063 195.269 77.7947 195.789 77.5C196.318 77.1967 196.912 77.045 197.57 77.045C198.238 77.045 198.827 77.1923 199.338 77.487C199.85 77.7817 200.248 78.1977 200.534 78.735C200.829 79.2637 200.976 79.8833 200.976 80.594C200.976 80.646 200.972 80.7067 200.963 80.776C200.963 80.8453 200.959 80.9103 200.95 80.971H195.087V80.074H200.3L199.793 80.386C199.802 79.944 199.711 79.5497 199.52 79.203C199.33 78.8563 199.065 78.5877 198.727 78.397C198.398 78.1977 198.012 78.098 197.57 78.098C197.137 78.098 196.751 78.1977 196.413 78.397C196.075 78.5877 195.811 78.8607 195.62 79.216C195.43 79.5627 195.334 79.9613 195.334 80.412V80.62C195.334 81.0793 195.438 81.491 195.646 81.855C195.863 82.2103 196.162 82.4877 196.543 82.687C196.925 82.8863 197.362 82.986 197.856 82.986C198.264 82.986 198.632 82.9167 198.961 82.778C199.299 82.6393 199.594 82.4313 199.845 82.154L200.534 82.96C200.222 83.324 199.832 83.6013 199.364 83.792C198.905 83.9827 198.389 84.078 197.817 84.078ZM204.685 84.078C204.113 84.078 203.567 84 203.047 83.844C202.536 83.688 202.133 83.4973 201.838 83.272L202.358 82.284C202.653 82.4833 203.017 82.6523 203.45 82.791C203.884 82.9297 204.326 82.999 204.776 82.999C205.357 82.999 205.773 82.9167 206.024 82.752C206.284 82.5873 206.414 82.3577 206.414 82.063C206.414 81.8463 206.336 81.6773 206.18 81.556C206.024 81.4347 205.816 81.3437 205.556 81.283C205.305 81.2223 205.023 81.1703 204.711 81.127C204.399 81.075 204.087 81.0143 203.775 80.945C203.463 80.867 203.177 80.763 202.917 80.633C202.657 80.4943 202.449 80.308 202.293 80.074C202.137 79.8313 202.059 79.5107 202.059 79.112C202.059 78.696 202.176 78.332 202.41 78.02C202.644 77.708 202.974 77.4697 203.398 77.305C203.832 77.1317 204.343 77.045 204.932 77.045C205.383 77.045 205.838 77.1013 206.297 77.214C206.765 77.318 207.147 77.4697 207.441 77.669L206.908 78.657C206.596 78.449 206.271 78.306 205.933 78.228C205.595 78.15 205.257 78.111 204.919 78.111C204.373 78.111 203.966 78.202 203.697 78.384C203.429 78.5573 203.294 78.7827 203.294 79.06C203.294 79.294 203.372 79.476 203.528 79.606C203.693 79.7273 203.901 79.8227 204.152 79.892C204.412 79.9613 204.698 80.022 205.01 80.074C205.322 80.1173 205.634 80.178 205.946 80.256C206.258 80.3253 206.54 80.425 206.791 80.555C207.051 80.685 207.259 80.867 207.415 81.101C207.58 81.335 207.662 81.647 207.662 82.037C207.662 82.453 207.541 82.8127 207.298 83.116C207.056 83.4193 206.713 83.6577 206.271 83.831C205.829 83.9957 205.301 84.078 204.685 84.078ZM212.713 84V77.11H213.909V78.982L213.792 78.514C213.983 78.0373 214.304 77.6733 214.754 77.422C215.205 77.1707 215.76 77.045 216.418 77.045V78.254C216.366 78.2453 216.314 78.241 216.262 78.241C216.219 78.241 216.176 78.241 216.132 78.241C215.465 78.241 214.936 78.4403 214.546 78.839C214.156 79.2377 213.961 79.814 213.961 80.568V84H212.713ZM217.956 84V77.11H219.204V84H217.956ZM218.58 75.784C218.338 75.784 218.134 75.706 217.969 75.55C217.813 75.394 217.735 75.2033 217.735 74.978C217.735 74.744 217.813 74.549 217.969 74.393C218.134 74.237 218.338 74.159 218.58 74.159C218.823 74.159 219.022 74.237 219.178 74.393C219.343 74.5403 219.425 74.7267 219.425 74.952C219.425 75.186 219.347 75.3853 219.191 75.55C219.035 75.706 218.832 75.784 218.58 75.784ZM223.043 84L220.482 77.11H221.665L223.94 83.35H223.381L225.747 77.11H226.8L229.114 83.35H228.568L230.895 77.11H232.013L229.439 84H228.243L226.072 78.306H226.436L224.239 84H223.043ZM237.341 84V82.544L237.276 82.271V79.788C237.276 79.2593 237.12 78.852 236.808 78.566C236.505 78.2713 236.045 78.124 235.43 78.124C235.023 78.124 234.624 78.1933 234.234 78.332C233.844 78.462 233.515 78.6397 233.246 78.865L232.726 77.929C233.081 77.643 233.506 77.4263 234 77.279C234.503 77.123 235.027 77.045 235.573 77.045C236.518 77.045 237.246 77.2747 237.757 77.734C238.268 78.1933 238.524 78.8953 238.524 79.84V84H237.341ZM235.079 84.078C234.568 84.078 234.117 83.9913 233.727 83.818C233.346 83.6447 233.051 83.4063 232.843 83.103C232.635 82.791 232.531 82.44 232.531 82.05C232.531 81.6773 232.618 81.3393 232.791 81.036C232.973 80.7327 233.263 80.49 233.662 80.308C234.069 80.126 234.615 80.035 235.3 80.035H237.484V80.932H235.352C234.728 80.932 234.308 81.036 234.091 81.244C233.874 81.452 233.766 81.7033 233.766 81.998C233.766 82.336 233.9 82.609 234.169 82.817C234.438 83.0163 234.81 83.116 235.287 83.116C235.755 83.116 236.162 83.012 236.509 82.804C236.864 82.596 237.12 82.2927 237.276 81.894L237.523 82.752C237.358 83.1593 237.068 83.4843 236.652 83.727C236.236 83.961 235.712 84.078 235.079 84.078ZM241.005 86.6C240.676 86.6 240.355 86.5437 240.043 86.431C239.731 86.327 239.463 86.171 239.237 85.963L239.77 85.027C239.944 85.1917 240.134 85.3173 240.342 85.404C240.55 85.4907 240.771 85.534 241.005 85.534C241.309 85.534 241.56 85.456 241.759 85.3C241.959 85.144 242.145 84.8667 242.318 84.468L242.747 83.519L242.877 83.363L245.581 77.11H246.803L243.462 84.689C243.263 85.1743 243.038 85.5557 242.786 85.833C242.544 86.1103 242.275 86.3053 241.98 86.418C241.686 86.5393 241.361 86.6 241.005 86.6ZM242.643 84.221L239.497 77.11H240.797L243.475 83.246L242.643 84.221ZM252.029 84V82.544L251.964 82.271V79.788C251.964 79.2593 251.808 78.852 251.496 78.566C251.193 78.2713 250.734 78.124 250.118 78.124C249.711 78.124 249.312 78.1933 248.922 78.332C248.532 78.462 248.203 78.6397 247.934 78.865L247.414 77.929C247.77 77.643 248.194 77.4263 248.688 77.279C249.191 77.123 249.715 77.045 250.261 77.045C251.206 77.045 251.934 77.2747 252.445 77.734C252.957 78.1933 253.212 78.8953 253.212 79.84V84H252.029ZM249.767 84.078C249.256 84.078 248.805 83.9913 248.415 83.818C248.034 83.6447 247.739 83.4063 247.531 83.103C247.323 82.791 247.219 82.44 247.219 82.05C247.219 81.6773 247.306 81.3393 247.479 81.036C247.661 80.7327 247.952 80.49 248.35 80.308C248.758 80.126 249.304 80.035 249.988 80.035H252.172V80.932H250.04C249.416 80.932 248.996 81.036 248.779 81.244C248.563 81.452 248.454 81.7033 248.454 81.998C248.454 82.336 248.589 82.609 248.857 82.817C249.126 83.0163 249.499 83.116 249.975 83.116C250.443 83.116 250.851 83.012 251.197 82.804C251.553 82.596 251.808 82.2927 251.964 81.894L252.211 82.752C252.047 83.1593 251.756 83.4843 251.34 83.727C250.924 83.961 250.4 84.078 249.767 84.078ZM257.888 84.078C257.195 84.078 256.657 83.8917 256.276 83.519C255.895 83.1463 255.704 82.6133 255.704 81.92V75.602H256.952V81.868C256.952 82.2407 257.043 82.5267 257.225 82.726C257.416 82.9253 257.684 83.025 258.031 83.025C258.421 83.025 258.746 82.9167 259.006 82.7L259.396 83.597C259.205 83.7617 258.976 83.883 258.707 83.961C258.447 84.039 258.174 84.078 257.888 84.078ZM254.534 78.137V77.11H258.928V78.137H254.534ZM21.836 105.078C21.2467 105.078 20.7137 104.948 20.237 104.688C19.769 104.419 19.3963 104.025 19.119 103.505C18.8503 102.985 18.716 102.335 18.716 101.555C18.716 100.775 18.8547 100.125 19.132 99.605C19.418 99.085 19.795 98.695 20.263 98.435C20.7397 98.175 21.264 98.045 21.836 98.045C22.512 98.045 23.11 98.1923 23.63 98.487C24.15 98.7817 24.5617 99.1933 24.865 99.722C25.1683 100.242 25.32 100.853 25.32 101.555C25.32 102.257 25.1683 102.872 24.865 103.401C24.5617 103.93 24.15 104.341 23.63 104.636C23.11 104.931 22.512 105.078 21.836 105.078ZM18.183 105V95.354H19.431V99.943L19.301 101.542L19.379 103.141V105H18.183ZM21.732 103.986C22.174 103.986 22.5683 103.886 22.915 103.687C23.2703 103.488 23.5477 103.206 23.747 102.842C23.955 102.469 24.059 102.04 24.059 101.555C24.059 101.061 23.955 100.636 23.747 100.281C23.5477 99.917 23.2703 99.6353 22.915 99.436C22.5683 99.2367 22.174 99.137 21.732 99.137C21.2987 99.137 20.9043 99.2367 20.549 99.436C20.2023 99.6353 19.925 99.917 19.717 100.281C19.5177 100.636 19.418 101.061 19.418 101.555C19.418 102.04 19.5177 102.469 19.717 102.842C19.925 103.206 20.2023 103.488 20.549 103.687C20.9043 103.886 21.2987 103.986 21.732 103.986ZM31.2579 105V103.544L31.1929 103.271V100.788C31.1929 100.259 31.0369 99.852 30.7249 99.566C30.4215 99.2713 29.9622 99.124 29.3469 99.124C28.9395 99.124 28.5409 99.1933 28.1509 99.332C27.7609 99.462 27.4315 99.6397 27.1629 99.865L26.6429 98.929C26.9982 98.643 27.4229 98.4263 27.9169 98.279C28.4195 98.123 28.9439 98.045 29.4899 98.045C30.4345 98.045 31.1625 98.2747 31.6739 98.734C32.1852 99.1933 32.4409 99.8953 32.4409 100.84V105H31.2579ZM28.9959 105.078C28.4845 105.078 28.0339 104.991 27.6439 104.818C27.2625 104.645 26.9679 104.406 26.7599 104.103C26.5519 103.791 26.4479 103.44 26.4479 103.05C26.4479 102.677 26.5345 102.339 26.7079 102.036C26.8899 101.733 27.1802 101.49 27.5789 101.308C27.9862 101.126 28.5322 101.035 29.2169 101.035H31.4009V101.932H29.2689C28.6449 101.932 28.2245 102.036 28.0079 102.244C27.7912 102.452 27.6829 102.703 27.6829 102.998C27.6829 103.336 27.8172 103.609 28.0859 103.817C28.3545 104.016 28.7272 104.116 29.2039 104.116C29.6719 104.116 30.0792 104.012 30.4259 103.804C30.7812 103.596 31.0369 103.293 31.1929 102.894L31.4399 103.752C31.2752 104.159 30.9849 104.484 30.5689 104.727C30.1529 104.961 29.6285 105.078 28.9959 105.078ZM38.4294 98.045C38.9927 98.045 39.4867 98.1533 39.9114 98.37C40.3447 98.5867 40.6827 98.916 40.9254 99.358C41.1681 99.8 41.2894 100.359 41.2894 101.035V105H40.0414V101.178C40.0414 100.511 39.8767 100.008 39.5474 99.67C39.2267 99.332 38.7717 99.163 38.1824 99.163C37.7404 99.163 37.3547 99.2497 37.0254 99.423C36.696 99.5963 36.4404 99.852 36.2584 100.19C36.085 100.528 35.9984 100.948 35.9984 101.451V105H34.7504V98.11H35.9464V99.969L35.7514 99.475C35.9767 99.0243 36.3234 98.6733 36.7914 98.422C37.2594 98.1707 37.8054 98.045 38.4294 98.045ZM45.965 105.078C45.2717 105.078 44.7343 104.892 44.353 104.519C43.9717 104.146 43.781 103.613 43.781 102.92V96.602H45.029V102.868C45.029 103.241 45.12 103.527 45.302 103.726C45.4927 103.925 45.7613 104.025 46.108 104.025C46.498 104.025 46.823 103.917 47.083 103.7L47.473 104.597C47.2823 104.762 47.0527 104.883 46.784 104.961C46.524 105.039 46.251 105.078 45.965 105.078ZM42.611 99.137V98.11H47.005V99.137H42.611ZM51.8808 105.078C51.2915 105.078 50.7715 104.97 50.3208 104.753C49.8788 104.536 49.5322 104.207 49.2808 103.765C49.0382 103.314 48.9168 102.751 48.9168 102.075V98.11H50.1648V101.932C50.1648 102.608 50.3252 103.115 50.6458 103.453C50.9752 103.791 51.4345 103.96 52.0238 103.96C52.4572 103.96 52.8342 103.873 53.1548 103.7C53.4755 103.518 53.7225 103.258 53.8958 102.92C54.0692 102.573 54.1558 102.157 54.1558 101.672V98.11H55.4038V105H54.2208V103.141L54.4158 103.635C54.1905 104.094 53.8525 104.45 53.4018 104.701C52.9512 104.952 52.4442 105.078 51.8808 105.078ZM62.0567 105V103.544L61.9917 103.271V100.788C61.9917 100.259 61.8357 99.852 61.5237 99.566C61.2203 99.2713 60.761 99.124 60.1457 99.124C59.7383 99.124 59.3397 99.1933 58.9497 99.332C58.5597 99.462 58.2303 99.6397 57.9617 99.865L57.4417 98.929C57.797 98.643 58.2217 98.4263 58.7157 98.279C59.2183 98.123 59.7427 98.045 60.2887 98.045C61.2333 98.045 61.9613 98.2747 62.4727 98.734C62.984 99.1933 63.2397 99.8953 63.2397 100.84V105H62.0567ZM59.7947 105.078C59.2833 105.078 58.8327 104.991 58.4427 104.818C58.0613 104.645 57.7667 104.406 57.5587 104.103C57.3507 103.791 57.2467 103.44 57.2467 103.05C57.2467 102.677 57.3333 102.339 57.5067 102.036C57.6887 101.733 57.979 101.49 58.3777 101.308C58.785 101.126 59.331 101.035 60.0157 101.035H62.1997V101.932H60.0677C59.4437 101.932 59.0233 102.036 58.8067 102.244C58.59 102.452 58.4817 102.703 58.4817 102.998C58.4817 103.336 58.616 103.609 58.8847 103.817C59.1533 104.016 59.526 104.116 60.0027 104.116C60.4707 104.116 60.878 104.012 61.2247 103.804C61.58 103.596 61.8357 103.293 61.9917 102.894L62.2387 103.752C62.074 104.159 61.7837 104.484 61.3677 104.727C60.9517 104.961 60.4273 105.078 59.7947 105.078ZM69.2282 98.045C69.7915 98.045 70.2855 98.1533 70.7102 98.37C71.1435 98.5867 71.4815 98.916 71.7242 99.358C71.9669 99.8 72.0882 100.359 72.0882 101.035V105H70.8402V101.178C70.8402 100.511 70.6755 100.008 70.3462 99.67C70.0255 99.332 69.5705 99.163 68.9812 99.163C68.5392 99.163 68.1535 99.2497 67.8242 99.423C67.4949 99.5963 67.2392 99.852 67.0572 100.19C66.8839 100.528 66.7972 100.948 66.7972 101.451V105H65.5492V98.11H66.7452V99.969L66.5502 99.475C66.7755 99.0243 67.1222 98.6733 67.5902 98.422C68.0582 98.1707 68.6042 98.045 69.2282 98.045ZM78.1881 107.6C77.8587 107.6 77.5381 107.544 77.2261 107.431C76.9141 107.327 76.6454 107.171 76.4201 106.963L76.9531 106.027C77.1264 106.192 77.3171 106.317 77.5251 106.404C77.7331 106.491 77.9541 106.534 78.1881 106.534C78.4914 106.534 78.7427 106.456 78.9421 106.3C79.1414 106.144 79.3277 105.867 79.5011 105.468L79.9301 104.519L80.0601 104.363L82.7641 98.11H83.9861L80.6451 105.689C80.4457 106.174 80.2204 106.556 79.9691 106.833C79.7264 107.11 79.4577 107.305 79.1631 107.418C78.8684 107.539 78.5434 107.6 78.1881 107.6ZM79.8261 105.221L76.6801 98.11H77.9801L80.6581 104.246L79.8261 105.221ZM89.212 105V103.544L89.147 103.271V100.788C89.147 100.259 88.991 99.852 88.679 99.566C88.3756 99.2713 87.9163 99.124 87.301 99.124C86.8936 99.124 86.495 99.1933 86.105 99.332C85.715 99.462 85.3856 99.6397 85.117 99.865L84.597 98.929C84.9523 98.643 85.377 98.4263 85.871 98.279C86.3736 98.123 86.898 98.045 87.444 98.045C88.3886 98.045 89.1166 98.2747 89.628 98.734C90.1393 99.1933 90.395 99.8953 90.395 100.84V105H89.212ZM86.95 105.078C86.4386 105.078 85.988 104.991 85.598 104.818C85.2166 104.645 84.922 104.406 84.714 104.103C84.506 103.791 84.402 103.44 84.402 103.05C84.402 102.677 84.4886 102.339 84.662 102.036C84.844 101.733 85.1343 101.49 85.533 101.308C85.9403 101.126 86.4863 101.035 87.171 101.035H89.355V101.932H87.223C86.599 101.932 86.1786 102.036 85.962 102.244C85.7453 102.452 85.637 102.703 85.637 102.998C85.637 103.336 85.7713 103.609 86.04 103.817C86.3086 104.016 86.6813 104.116 87.158 104.116C87.626 104.116 88.0333 104.012 88.38 103.804C88.7353 103.596 88.991 103.293 89.147 102.894L89.394 103.752C89.2293 104.159 88.939 104.484 88.523 104.727C88.107 104.961 87.5826 105.078 86.95 105.078ZM96.3835 98.045C96.9468 98.045 97.4408 98.1533 97.8655 98.37C98.2988 98.5867 98.6368 98.916 98.8795 99.358C99.1222 99.8 99.2435 100.359 99.2435 101.035V105H97.9955V101.178C97.9955 100.511 97.8308 100.008 97.5015 99.67C97.1808 99.332 96.7258 99.163 96.1365 99.163C95.6945 99.163 95.3088 99.2497 94.9795 99.423C94.6502 99.5963 94.3945 99.852 94.2125 100.19C94.0392 100.528 93.9525 100.948 93.9525 101.451V105H92.7045V98.11H93.9005V99.969L93.7055 99.475C93.9308 99.0243 94.2775 98.6733 94.7455 98.422C95.2135 98.1707 95.7595 98.045 96.3835 98.045ZM104.569 107.6C103.936 107.6 103.321 107.509 102.723 107.327C102.134 107.154 101.653 106.902 101.28 106.573L101.878 105.611C102.199 105.888 102.593 106.105 103.061 106.261C103.529 106.426 104.019 106.508 104.53 106.508C105.345 106.508 105.943 106.317 106.324 105.936C106.705 105.555 106.896 104.974 106.896 104.194V102.738L107.026 101.373L106.961 99.995V98.11H108.144V104.064C108.144 105.277 107.841 106.17 107.234 106.742C106.627 107.314 105.739 107.6 104.569 107.6ZM104.413 104.714C103.746 104.714 103.148 104.575 102.619 104.298C102.099 104.012 101.683 103.618 101.371 103.115C101.068 102.612 100.916 102.032 100.916 101.373C100.916 100.706 101.068 100.125 101.371 99.631C101.683 99.1283 102.099 98.7383 102.619 98.461C103.148 98.1837 103.746 98.045 104.413 98.045C105.002 98.045 105.54 98.1663 106.025 98.409C106.51 98.643 106.896 99.007 107.182 99.501C107.477 99.995 107.624 100.619 107.624 101.373C107.624 102.118 107.477 102.738 107.182 103.232C106.896 103.726 106.51 104.099 106.025 104.35C105.54 104.593 105.002 104.714 104.413 104.714ZM104.556 103.622C105.015 103.622 105.423 103.527 105.778 103.336C106.133 103.145 106.411 102.881 106.61 102.543C106.818 102.205 106.922 101.815 106.922 101.373C106.922 100.931 106.818 100.541 106.61 100.203C106.411 99.865 106.133 99.605 105.778 99.423C105.423 99.2323 105.015 99.137 104.556 99.137C104.097 99.137 103.685 99.2323 103.321 99.423C102.966 99.605 102.684 99.865 102.476 100.203C102.277 100.541 102.177 100.931 102.177 101.373C102.177 101.815 102.277 102.205 102.476 102.543C102.684 102.881 102.966 103.145 103.321 103.336C103.685 103.527 104.097 103.622 104.556 103.622ZM117.673 105.078C117.101 105.078 116.577 104.948 116.1 104.688C115.632 104.419 115.255 104.025 114.969 103.505C114.692 102.985 114.553 102.335 114.553 101.555C114.553 100.775 114.687 100.125 114.956 99.605C115.233 99.085 115.606 98.695 116.074 98.435C116.551 98.175 117.084 98.045 117.673 98.045C118.349 98.045 118.947 98.1923 119.467 98.487C119.987 98.7817 120.399 99.1933 120.702 99.722C121.005 100.242 121.157 100.853 121.157 101.555C121.157 102.257 121.005 102.872 120.702 103.401C120.399 103.93 119.987 104.341 119.467 104.636C118.947 104.931 118.349 105.078 117.673 105.078ZM114.02 107.522V98.11H115.216V99.969L115.138 101.568L115.268 103.167V107.522H114.02ZM117.569 103.986C118.011 103.986 118.405 103.886 118.752 103.687C119.107 103.488 119.385 103.206 119.584 102.842C119.792 102.469 119.896 102.04 119.896 101.555C119.896 101.061 119.792 100.636 119.584 100.281C119.385 99.917 119.107 99.6353 118.752 99.436C118.405 99.2367 118.011 99.137 117.569 99.137C117.136 99.137 116.741 99.2367 116.386 99.436C116.039 99.6353 115.762 99.917 115.554 100.281C115.355 100.636 115.255 101.061 115.255 101.555C115.255 102.04 115.355 102.469 115.554 102.842C115.762 103.206 116.039 103.488 116.386 103.687C116.741 103.886 117.136 103.986 117.569 103.986ZM125.949 105.078C125.213 105.078 124.563 104.926 123.999 104.623C123.445 104.32 123.011 103.904 122.699 103.375C122.396 102.846 122.244 102.24 122.244 101.555C122.244 100.87 122.392 100.264 122.686 99.735C122.99 99.2063 123.401 98.7947 123.921 98.5C124.45 98.1967 125.044 98.045 125.702 98.045C126.37 98.045 126.959 98.1923 127.47 98.487C127.982 98.7817 128.38 99.1977 128.666 99.735C128.961 100.264 129.108 100.883 129.108 101.594C129.108 101.646 129.104 101.707 129.095 101.776C129.095 101.845 129.091 101.91 129.082 101.971H123.219V101.074H128.432L127.925 101.386C127.934 100.944 127.843 100.55 127.652 100.203C127.462 99.8563 127.197 99.5877 126.859 99.397C126.53 99.1977 126.144 99.098 125.702 99.098C125.269 99.098 124.883 99.1977 124.545 99.397C124.207 99.5877 123.943 99.8607 123.752 100.216C123.562 100.563 123.466 100.961 123.466 101.412V101.62C123.466 102.079 123.57 102.491 123.778 102.855C123.995 103.21 124.294 103.488 124.675 103.687C125.057 103.886 125.494 103.986 125.988 103.986C126.396 103.986 126.764 103.917 127.093 103.778C127.431 103.639 127.726 103.431 127.977 103.154L128.666 103.96C128.354 104.324 127.964 104.601 127.496 104.792C127.037 104.983 126.521 105.078 125.949 105.078ZM130.841 105V98.11H132.037V99.982L131.92 99.514C132.111 99.0373 132.432 98.6733 132.882 98.422C133.333 98.1707 133.888 98.045 134.546 98.045V99.254C134.494 99.2453 134.442 99.241 134.39 99.241C134.347 99.241 134.304 99.241 134.26 99.241C133.593 99.241 133.064 99.4403 132.674 99.839C132.284 100.238 132.089 100.814 132.089 101.568V105H130.841ZM139.763 98.045C140.327 98.045 140.821 98.1533 141.245 98.37C141.679 98.5867 142.017 98.916 142.259 99.358C142.502 99.8 142.623 100.359 142.623 101.035V105H141.375V101.178C141.375 100.511 141.211 100.008 140.881 99.67C140.561 99.332 140.106 99.163 139.516 99.163C139.074 99.163 138.689 99.2497 138.359 99.423C138.03 99.5963 137.774 99.852 137.592 100.19C137.419 100.528 137.332 100.948 137.332 101.451V105H136.084V98.11H137.28V99.969L137.085 99.475C137.311 99.0243 137.657 98.6733 138.125 98.422C138.593 98.1707 139.139 98.045 139.763 98.045ZM149.21 105V103.544L149.145 103.271V100.788C149.145 100.259 148.989 99.852 148.677 99.566C148.374 99.2713 147.914 99.124 147.299 99.124C146.892 99.124 146.493 99.1933 146.103 99.332C145.713 99.462 145.384 99.6397 145.115 99.865L144.595 98.929C144.95 98.643 145.375 98.4263 145.869 98.279C146.372 98.123 146.896 98.045 147.442 98.045C148.387 98.045 149.115 98.2747 149.626 98.734C150.137 99.1933 150.393 99.8953 150.393 100.84V105H149.21ZM146.948 105.078C146.437 105.078 145.986 104.991 145.596 104.818C145.215 104.645 144.92 104.406 144.712 104.103C144.504 103.791 144.4 103.44 144.4 103.05C144.4 102.677 144.487 102.339 144.66 102.036C144.842 101.733 145.132 101.49 145.531 101.308C145.938 101.126 146.484 101.035 147.169 101.035H149.353V101.932H147.221C146.597 101.932 146.177 102.036 145.96 102.244C145.743 102.452 145.635 102.703 145.635 102.998C145.635 103.336 145.769 103.609 146.038 103.817C146.307 104.016 146.679 104.116 147.156 104.116C147.624 104.116 148.031 104.012 148.378 103.804C148.733 103.596 148.989 103.293 149.145 102.894L149.392 103.752C149.227 104.159 148.937 104.484 148.521 104.727C148.105 104.961 147.581 105.078 146.948 105.078ZM156.382 98.045C156.945 98.045 157.439 98.1533 157.864 98.37C158.297 98.5867 158.635 98.916 158.878 99.358C159.12 99.8 159.242 100.359 159.242 101.035V105H157.994V101.178C157.994 100.511 157.829 100.008 157.5 99.67C157.179 99.332 156.724 99.163 156.135 99.163C155.693 99.163 155.307 99.2497 154.978 99.423C154.648 99.5963 154.393 99.852 154.211 100.19C154.037 100.528 153.951 100.948 153.951 101.451V105H152.703V95.354H153.951V99.969L153.704 99.475C153.929 99.0243 154.276 98.6733 154.744 98.422C155.212 98.1707 155.758 98.045 156.382 98.045ZM173.661 98.045C174.216 98.045 174.706 98.1533 175.13 98.37C175.555 98.5867 175.884 98.916 176.118 99.358C176.361 99.8 176.482 100.359 176.482 101.035V105H175.234V101.178C175.234 100.511 175.078 100.008 174.766 99.67C174.454 99.332 174.017 99.163 173.453 99.163C173.037 99.163 172.673 99.2497 172.361 99.423C172.049 99.5963 171.807 99.852 171.633 100.19C171.469 100.528 171.386 100.948 171.386 101.451V105H170.138V101.178C170.138 100.511 169.982 100.008 169.67 99.67C169.367 99.332 168.929 99.163 168.357 99.163C167.95 99.163 167.59 99.2497 167.278 99.423C166.966 99.5963 166.724 99.852 166.55 100.19C166.377 100.528 166.29 100.948 166.29 101.451V105H165.042V98.11H166.238V99.943L166.043 99.475C166.26 99.0243 166.594 98.6733 167.044 98.422C167.495 98.1707 168.019 98.045 168.617 98.045C169.276 98.045 169.844 98.2097 170.32 98.539C170.797 98.8597 171.109 99.3493 171.256 100.008L170.749 99.8C170.957 99.2713 171.321 98.8467 171.841 98.526C172.361 98.2053 172.968 98.045 173.661 98.045ZM181.847 105.078C181.11 105.078 180.46 104.926 179.897 104.623C179.342 104.32 178.909 103.904 178.597 103.375C178.293 102.846 178.142 102.24 178.142 101.555C178.142 100.87 178.289 100.264 178.584 99.735C178.887 99.2063 179.299 98.7947 179.819 98.5C180.347 98.1967 180.941 98.045 181.6 98.045C182.267 98.045 182.856 98.1923 183.368 98.487C183.879 98.7817 184.278 99.1977 184.564 99.735C184.858 100.264 185.006 100.883 185.006 101.594C185.006 101.646 185.001 101.707 184.993 101.776C184.993 101.845 184.988 101.91 184.98 101.971H179.117V101.074H184.33L183.823 101.386C183.831 100.944 183.74 100.55 183.55 100.203C183.359 99.8563 183.095 99.5877 182.757 99.397C182.427 99.1977 182.042 99.098 181.6 99.098C181.166 99.098 180.781 99.1977 180.443 99.397C180.105 99.5877 179.84 99.8607 179.65 100.216C179.459 100.563 179.364 100.961 179.364 101.412V101.62C179.364 102.079 179.468 102.491 179.676 102.855C179.892 103.21 180.191 103.488 180.573 103.687C180.954 103.886 181.392 103.986 181.886 103.986C182.293 103.986 182.661 103.917 182.991 103.778C183.329 103.639 183.623 103.431 183.875 103.154L184.564 103.96C184.252 104.324 183.862 104.601 183.394 104.792C182.934 104.983 182.419 105.078 181.847 105.078ZM186.739 105V98.11H187.935V99.982L187.818 99.514C188.008 99.0373 188.329 98.6733 188.78 98.422C189.23 98.1707 189.785 98.045 190.444 98.045V99.254C190.392 99.2453 190.34 99.241 190.288 99.241C190.244 99.241 190.201 99.241 190.158 99.241C189.49 99.241 188.962 99.4403 188.572 99.839C188.182 100.238 187.987 100.814 187.987 101.568V105H186.739ZM194.986 105.078C194.25 105.078 193.6 104.926 193.036 104.623C192.482 104.32 192.048 103.904 191.736 103.375C191.433 102.846 191.281 102.24 191.281 101.555C191.281 100.87 191.429 100.264 191.723 99.735C192.027 99.2063 192.438 98.7947 192.958 98.5C193.487 98.1967 194.081 98.045 194.739 98.045C195.407 98.045 195.996 98.1923 196.507 98.487C197.019 98.7817 197.417 99.1977 197.703 99.735C197.998 100.264 198.145 100.883 198.145 101.594C198.145 101.646 198.141 101.707 198.132 101.776C198.132 101.845 198.128 101.91 198.119 101.971H192.256V101.074H197.469L196.962 101.386C196.971 100.944 196.88 100.55 196.689 100.203C196.499 99.8563 196.234 99.5877 195.896 99.397C195.567 99.1977 195.181 99.098 194.739 99.098C194.306 99.098 193.92 99.1977 193.582 99.397C193.244 99.5877 192.98 99.8607 192.789 100.216C192.599 100.563 192.503 100.961 192.503 101.412V101.62C192.503 102.079 192.607 102.491 192.815 102.855C193.032 103.21 193.331 103.488 193.712 103.687C194.094 103.886 194.531 103.986 195.025 103.986C195.433 103.986 195.801 103.917 196.13 103.778C196.468 103.639 196.763 103.431 197.014 103.154L197.703 103.96C197.391 104.324 197.001 104.601 196.533 104.792C196.074 104.983 195.558 105.078 194.986 105.078ZM200.892 103.336L200.918 101.737L204.883 98.11H206.391L203.349 101.1L202.673 101.672L200.892 103.336ZM199.878 105V95.354H201.126V105H199.878ZM205.143 105L202.439 101.646L203.245 100.645L206.677 105H205.143ZM212.039 105V103.544L211.974 103.271V100.788C211.974 100.259 211.818 99.852 211.506 99.566C211.203 99.2713 210.743 99.124 210.128 99.124C209.721 99.124 209.322 99.1933 208.932 99.332C208.542 99.462 208.213 99.6397 207.944 99.865L207.424 98.929C207.779 98.643 208.204 98.4263 208.698 98.279C209.201 98.123 209.725 98.045 210.271 98.045C211.216 98.045 211.944 98.2747 212.455 98.734C212.966 99.1933 213.222 99.8953 213.222 100.84V105H212.039ZM209.777 105.078C209.266 105.078 208.815 104.991 208.425 104.818C208.044 104.645 207.749 104.406 207.541 104.103C207.333 103.791 207.229 103.44 207.229 103.05C207.229 102.677 207.316 102.339 207.489 102.036C207.671 101.733 207.961 101.49 208.36 101.308C208.767 101.126 209.313 101.035 209.998 101.035H212.182V101.932H210.05C209.426 101.932 209.006 102.036 208.789 102.244C208.572 102.452 208.464 102.703 208.464 102.998C208.464 103.336 208.598 103.609 208.867 103.817C209.136 104.016 209.508 104.116 209.985 104.116C210.453 104.116 210.86 104.012 211.207 103.804C211.562 103.596 211.818 103.293 211.974 102.894L212.221 103.752C212.056 104.159 211.766 104.484 211.35 104.727C210.934 104.961 210.41 105.078 209.777 105.078ZM221.389 105.078C220.696 105.078 220.158 104.892 219.777 104.519C219.396 104.146 219.205 103.613 219.205 102.92V96.602H220.453V102.868C220.453 103.241 220.544 103.527 220.726 103.726C220.917 103.925 221.185 104.025 221.532 104.025C221.922 104.025 222.247 103.917 222.507 103.7L222.897 104.597C222.706 104.762 222.477 104.883 222.208 104.961C221.948 105.039 221.675 105.078 221.389 105.078ZM218.035 99.137V98.11H222.429V99.137H218.035ZM227.245 105.078C226.508 105.078 225.858 104.926 225.295 104.623C224.74 104.32 224.307 103.904 223.995 103.375C223.692 102.846 223.54 102.24 223.54 101.555C223.54 100.87 223.687 100.264 223.982 99.735C224.285 99.2063 224.697 98.7947 225.217 98.5C225.746 98.1967 226.339 98.045 226.998 98.045C227.665 98.045 228.255 98.1923 228.766 98.487C229.277 98.7817 229.676 99.1977 229.962 99.735C230.257 100.264 230.404 100.883 230.404 101.594C230.404 101.646 230.4 101.707 230.391 101.776C230.391 101.845 230.387 101.91 230.378 101.971H224.515V101.074H229.728L229.221 101.386C229.23 100.944 229.139 100.55 228.948 100.203C228.757 99.8563 228.493 99.5877 228.155 99.397C227.826 99.1977 227.44 99.098 226.998 99.098C226.565 99.098 226.179 99.1977 225.841 99.397C225.503 99.5877 225.239 99.8607 225.048 100.216C224.857 100.563 224.762 100.961 224.762 101.412V101.62C224.762 102.079 224.866 102.491 225.074 102.855C225.291 103.21 225.59 103.488 225.971 103.687C226.352 103.886 226.79 103.986 227.284 103.986C227.691 103.986 228.06 103.917 228.389 103.778C228.727 103.639 229.022 103.431 229.273 103.154L229.962 103.96C229.65 104.324 229.26 104.601 228.792 104.792C228.333 104.983 227.817 105.078 227.245 105.078ZM232.137 105V98.11H233.333V99.982L233.216 99.514C233.407 99.0373 233.727 98.6733 234.178 98.422C234.629 98.1707 235.183 98.045 235.842 98.045V99.254C235.79 99.2453 235.738 99.241 235.686 99.241C235.643 99.241 235.599 99.241 235.556 99.241C234.889 99.241 234.36 99.4403 233.97 99.839C233.58 100.238 233.385 100.814 233.385 101.568V105H232.137ZM237.38 105V98.11H238.628V105H237.38ZM238.004 96.784C237.762 96.784 237.558 96.706 237.393 96.55C237.237 96.394 237.159 96.2033 237.159 95.978C237.159 95.744 237.237 95.549 237.393 95.393C237.558 95.237 237.762 95.159 238.004 95.159C238.247 95.159 238.446 95.237 238.602 95.393C238.767 95.5403 238.849 95.7267 238.849 95.952C238.849 96.186 238.771 96.3853 238.615 96.55C238.459 96.706 238.256 96.784 238.004 96.784ZM249.63 98.045C250.185 98.045 250.674 98.1533 251.099 98.37C251.524 98.5867 251.853 98.916 252.087 99.358C252.33 99.8 252.451 100.359 252.451 101.035V105H251.203V101.178C251.203 100.511 251.047 100.008 250.735 99.67C250.423 99.332 249.985 99.163 249.422 99.163C249.006 99.163 248.642 99.2497 248.33 99.423C248.018 99.5963 247.775 99.852 247.602 100.19C247.437 100.528 247.355 100.948 247.355 101.451V105H246.107V101.178C246.107 100.511 245.951 100.008 245.639 99.67C245.336 99.332 244.898 99.163 244.326 99.163C243.919 99.163 243.559 99.2497 243.247 99.423C242.935 99.5963 242.692 99.852 242.519 100.19C242.346 100.528 242.259 100.948 242.259 101.451V105H241.011V98.11H242.207V99.943L242.012 99.475C242.229 99.0243 242.562 98.6733 243.013 98.422C243.464 98.1707 243.988 98.045 244.586 98.045C245.245 98.045 245.812 98.2097 246.289 98.539C246.766 98.8597 247.078 99.3493 247.225 100.008L246.718 99.8C246.926 99.2713 247.29 98.8467 247.81 98.526C248.33 98.2053 248.937 98.045 249.63 98.045ZM259.024 105V103.544L258.959 103.271V100.788C258.959 100.259 258.803 99.852 258.491 99.566C258.188 99.2713 257.729 99.124 257.113 99.124C256.706 99.124 256.307 99.1933 255.917 99.332C255.527 99.462 255.198 99.6397 254.929 99.865L254.409 98.929C254.765 98.643 255.189 98.4263 255.683 98.279C256.186 98.123 256.71 98.045 257.256 98.045C258.201 98.045 258.929 98.2747 259.44 98.734C259.952 99.1933 260.207 99.8953 260.207 100.84V105H259.024ZM256.762 105.078C256.251 105.078 255.8 104.991 255.41 104.818C255.029 104.645 254.734 104.406 254.526 104.103C254.318 103.791 254.214 103.44 254.214 103.05C254.214 102.677 254.301 102.339 254.474 102.036C254.656 101.733 254.947 101.49 255.345 101.308C255.753 101.126 256.299 101.035 256.983 101.035H259.167V101.932H257.035C256.411 101.932 255.991 102.036 255.774 102.244C255.558 102.452 255.449 102.703 255.449 102.998C255.449 103.336 255.584 103.609 255.852 103.817C256.121 104.016 256.494 104.116 256.97 104.116C257.438 104.116 257.846 104.012 258.192 103.804C258.548 103.596 258.803 103.293 258.959 102.894L259.206 103.752C259.042 104.159 258.751 104.484 258.335 104.727C257.919 104.961 257.395 105.078 256.762 105.078ZM26.802 119.045C27.3567 119.045 27.8463 119.153 28.271 119.37C28.6957 119.587 29.025 119.916 29.259 120.358C29.5017 120.8 29.623 121.359 29.623 122.035V126H28.375V122.178C28.375 121.511 28.219 121.008 27.907 120.67C27.595 120.332 27.1573 120.163 26.594 120.163C26.178 120.163 25.814 120.25 25.502 120.423C25.19 120.596 24.9473 120.852 24.774 121.19C24.6093 121.528 24.527 121.948 24.527 122.451V126H23.279V122.178C23.279 121.511 23.123 121.008 22.811 120.67C22.5077 120.332 22.07 120.163 21.498 120.163C21.0907 120.163 20.731 120.25 20.419 120.423C20.107 120.596 19.8643 120.852 19.691 121.19C19.5177 121.528 19.431 121.948 19.431 122.451V126H18.183V119.11H19.379V120.943L19.184 120.475C19.4007 120.024 19.7343 119.673 20.185 119.422C20.6357 119.171 21.16 119.045 21.758 119.045C22.4167 119.045 22.9843 119.21 23.461 119.539C23.9377 119.86 24.2497 120.349 24.397 121.008L23.89 120.8C24.098 120.271 24.462 119.847 24.982 119.526C25.502 119.205 26.1087 119.045 26.802 119.045ZM34.9873 126.078C34.2507 126.078 33.6007 125.926 33.0373 125.623C32.4827 125.32 32.0493 124.904 31.7373 124.375C31.434 123.846 31.2823 123.24 31.2823 122.555C31.2823 121.87 31.4297 121.264 31.7243 120.735C32.0277 120.206 32.4393 119.795 32.9593 119.5C33.488 119.197 34.0817 119.045 34.7403 119.045C35.4077 119.045 35.997 119.192 36.5083 119.487C37.0197 119.782 37.4183 120.198 37.7043 120.735C37.999 121.264 38.1463 121.883 38.1463 122.594C38.1463 122.646 38.142 122.707 38.1333 122.776C38.1333 122.845 38.129 122.91 38.1203 122.971H32.2573V122.074H37.4703L36.9633 122.386C36.972 121.944 36.881 121.55 36.6903 121.203C36.4997 120.856 36.2353 120.588 35.8973 120.397C35.568 120.198 35.1823 120.098 34.7403 120.098C34.307 120.098 33.9213 120.198 33.5833 120.397C33.2453 120.588 32.981 120.861 32.7903 121.216C32.5997 121.563 32.5043 121.961 32.5043 122.412V122.62C32.5043 123.079 32.6083 123.491 32.8163 123.855C33.033 124.21 33.332 124.488 33.7133 124.687C34.0947 124.886 34.5323 124.986 35.0263 124.986C35.4337 124.986 35.802 124.917 36.1313 124.778C36.4693 124.639 36.764 124.431 37.0153 124.154L37.7043 124.96C37.3923 125.324 37.0023 125.601 36.5343 125.792C36.075 125.983 35.5593 126.078 34.9873 126.078ZM39.8793 126V116.354H41.1273V126H39.8793ZM47.7871 126V124.544L47.7221 124.271V121.788C47.7221 121.259 47.5661 120.852 47.2541 120.566C46.9508 120.271 46.4915 120.124 45.8761 120.124C45.4688 120.124 45.0701 120.193 44.6801 120.332C44.2901 120.462 43.9608 120.64 43.6921 120.865L43.1721 119.929C43.5275 119.643 43.9521 119.426 44.4461 119.279C44.9488 119.123 45.4731 119.045 46.0191 119.045C46.9638 119.045 47.6918 119.275 48.2031 119.734C48.7145 120.193 48.9701 120.895 48.9701 121.84V126H47.7871ZM45.5251 126.078C45.0138 126.078 44.5631 125.991 44.1731 125.818C43.7918 125.645 43.4971 125.406 43.2891 125.103C43.0811 124.791 42.9771 124.44 42.9771 124.05C42.9771 123.677 43.0638 123.339 43.2371 123.036C43.4191 122.733 43.7095 122.49 44.1081 122.308C44.5155 122.126 45.0615 122.035 45.7461 122.035H47.9301V122.932H45.7981C45.1741 122.932 44.7538 123.036 44.5371 123.244C44.3205 123.452 44.2121 123.703 44.2121 123.998C44.2121 124.336 44.3465 124.609 44.6151 124.817C44.8838 125.016 45.2565 125.116 45.7331 125.116C46.2011 125.116 46.6085 125.012 46.9551 124.804C47.3105 124.596 47.5661 124.293 47.7221 123.894L47.9691 124.752C47.8045 125.159 47.5141 125.484 47.0981 125.727C46.6821 125.961 46.1578 126.078 45.5251 126.078ZM51.2797 126V116.354H52.5277V126H51.2797ZM57.8095 126.078C57.2202 126.078 56.7002 125.97 56.2495 125.753C55.8075 125.536 55.4609 125.207 55.2095 124.765C54.9669 124.314 54.8455 123.751 54.8455 123.075V119.11H56.0935V122.932C56.0935 123.608 56.2539 124.115 56.5745 124.453C56.9039 124.791 57.3632 124.96 57.9525 124.96C58.3859 124.96 58.7629 124.873 59.0835 124.7C59.4042 124.518 59.6512 124.258 59.8245 123.92C59.9979 123.573 60.0845 123.157 60.0845 122.672V119.11H61.3325V126H60.1495V124.141L60.3445 124.635C60.1192 125.094 59.7812 125.45 59.3305 125.701C58.8799 125.952 58.3729 126.078 57.8095 126.078ZM63.7084 126V119.11H64.9564V126H63.7084ZM64.3324 117.784C64.0897 117.784 63.8861 117.706 63.7214 117.55C63.5654 117.394 63.4874 117.203 63.4874 116.978C63.4874 116.744 63.5654 116.549 63.7214 116.393C63.8861 116.237 64.0897 116.159 64.3324 116.159C64.5751 116.159 64.7744 116.237 64.9304 116.393C65.0951 116.54 65.1774 116.727 65.1774 116.952C65.1774 117.186 65.0994 117.385 64.9434 117.55C64.7874 117.706 64.5837 117.784 64.3324 117.784ZM75.1075 126V124.544L75.0425 124.271V121.788C75.0425 121.259 74.8865 120.852 74.5745 120.566C74.2711 120.271 73.8118 120.124 73.1965 120.124C72.7891 120.124 72.3905 120.193 72.0005 120.332C71.6105 120.462 71.2811 120.64 71.0125 120.865L70.4925 119.929C70.8478 119.643 71.2725 119.426 71.7665 119.279C72.2691 119.123 72.7935 119.045 73.3395 119.045C74.2841 119.045 75.0121 119.275 75.5235 119.734C76.0348 120.193 76.2905 120.895 76.2905 121.84V126H75.1075ZM72.8455 126.078C72.3341 126.078 71.8835 125.991 71.4935 125.818C71.1121 125.645 70.8175 125.406 70.6095 125.103C70.4015 124.791 70.2975 124.44 70.2975 124.05C70.2975 123.677 70.3841 123.339 70.5575 123.036C70.7395 122.733 71.0298 122.49 71.4285 122.308C71.8358 122.126 72.3818 122.035 73.0665 122.035H75.2505V122.932H73.1185C72.4945 122.932 72.0741 123.036 71.8575 123.244C71.6408 123.452 71.5325 123.703 71.5325 123.998C71.5325 124.336 71.6668 124.609 71.9355 124.817C72.2041 125.016 72.5768 125.116 73.0535 125.116C73.5215 125.116 73.9288 125.012 74.2755 124.804C74.6308 124.596 74.8865 124.293 75.0425 123.894L75.2895 124.752C75.1248 125.159 74.8345 125.484 74.4185 125.727C74.0025 125.961 73.4781 126.078 72.8455 126.078ZM79.614 124.336L79.64 122.737L83.605 119.11H85.113L82.071 122.1L81.395 122.672L79.614 124.336ZM78.6 126V116.354H79.848V126H78.6ZM83.865 126L81.161 122.646L81.967 121.645L85.399 126H83.865ZM89.3828 126.078C88.7934 126.078 88.2734 125.97 87.8228 125.753C87.3808 125.536 87.0341 125.207 86.7828 124.765C86.5401 124.314 86.4188 123.751 86.4188 123.075V119.11H87.6668V122.932C87.6668 123.608 87.8271 124.115 88.1478 124.453C88.4771 124.791 88.9364 124.96 89.5258 124.96C89.9591 124.96 90.3361 124.873 90.6568 124.7C90.9774 124.518 91.2244 124.258 91.3978 123.92C91.5711 123.573 91.6578 123.157 91.6578 122.672V119.11H92.9058V126H91.7228V124.141L91.9178 124.635C91.6924 125.094 91.3544 125.45 90.9038 125.701C90.4531 125.952 89.9461 126.078 89.3828 126.078ZM98.9606 119.045C99.524 119.045 100.018 119.153 100.443 119.37C100.876 119.587 101.214 119.916 101.457 120.358C101.699 120.8 101.821 121.359 101.821 122.035V126H100.573V122.178C100.573 121.511 100.408 121.008 100.079 120.67C99.758 120.332 99.303 120.163 98.7136 120.163C98.2716 120.163 97.886 120.25 97.5566 120.423C97.2273 120.596 96.9716 120.852 96.7896 121.19C96.6163 121.528 96.5296 121.948 96.5296 122.451V126H95.2816V119.11H96.4776V120.969L96.2826 120.475C96.508 120.024 96.8546 119.673 97.3226 119.422C97.7906 119.171 98.3366 119.045 98.9606 119.045ZM116.24 119.045C116.795 119.045 117.285 119.153 117.709 119.37C118.134 119.587 118.463 119.916 118.697 120.358C118.94 120.8 119.061 121.359 119.061 122.035V126H117.813V122.178C117.813 121.511 117.657 121.008 117.345 120.67C117.033 120.332 116.596 120.163 116.032 120.163C115.616 120.163 115.252 120.25 114.94 120.423C114.628 120.596 114.386 120.852 114.212 121.19C114.048 121.528 113.965 121.948 113.965 122.451V126H112.717V122.178C112.717 121.511 112.561 121.008 112.249 120.67C111.946 120.332 111.508 120.163 110.936 120.163C110.529 120.163 110.169 120.25 109.857 120.423C109.545 120.596 109.303 120.852 109.129 121.19C108.956 121.528 108.869 121.948 108.869 122.451V126H107.621V119.11H108.817V120.943L108.622 120.475C108.839 120.024 109.173 119.673 109.623 119.422C110.074 119.171 110.598 119.045 111.196 119.045C111.855 119.045 112.423 119.21 112.899 119.539C113.376 119.86 113.688 120.349 113.835 121.008L113.328 120.8C113.536 120.271 113.9 119.847 114.42 119.526C114.94 119.205 115.547 119.045 116.24 119.045ZM124.426 126.078C123.689 126.078 123.039 125.926 122.476 125.623C121.921 125.32 121.488 124.904 121.176 124.375C120.872 123.846 120.721 123.24 120.721 122.555C120.721 121.87 120.868 121.264 121.163 120.735C121.466 120.206 121.878 119.795 122.398 119.5C122.926 119.197 123.52 119.045 124.179 119.045C124.846 119.045 125.435 119.192 125.947 119.487C126.458 119.782 126.857 120.198 127.143 120.735C127.437 121.264 127.585 121.883 127.585 122.594C127.585 122.646 127.58 122.707 127.572 122.776C127.572 122.845 127.567 122.91 127.559 122.971H121.696V122.074H126.909L126.402 122.386C126.41 121.944 126.319 121.55 126.129 121.203C125.938 120.856 125.674 120.588 125.336 120.397C125.006 120.198 124.621 120.098 124.179 120.098C123.745 120.098 123.36 120.198 123.022 120.397C122.684 120.588 122.419 120.861 122.229 121.216C122.038 121.563 121.943 121.961 121.943 122.412V122.62C121.943 123.079 122.047 123.491 122.255 123.855C122.471 124.21 122.77 124.488 123.152 124.687C123.533 124.886 123.971 124.986 124.465 124.986C124.872 124.986 125.24 124.917 125.57 124.778C125.908 124.639 126.202 124.431 126.454 124.154L127.143 124.96C126.831 125.324 126.441 125.601 125.973 125.792C125.513 125.983 124.998 126.078 124.426 126.078ZM129.318 126V119.11H130.514V120.982L130.397 120.514C130.587 120.037 130.908 119.673 131.359 119.422C131.809 119.171 132.364 119.045 133.023 119.045V120.254C132.971 120.245 132.919 120.241 132.867 120.241C132.823 120.241 132.78 120.241 132.737 120.241C132.069 120.241 131.541 120.44 131.151 120.839C130.761 121.238 130.566 121.814 130.566 122.568V126H129.318ZM137.565 126.078C136.829 126.078 136.179 125.926 135.615 125.623C135.061 125.32 134.627 124.904 134.315 124.375C134.012 123.846 133.86 123.24 133.86 122.555C133.86 121.87 134.008 121.264 134.302 120.735C134.606 120.206 135.017 119.795 135.537 119.5C136.066 119.197 136.66 119.045 137.318 119.045C137.986 119.045 138.575 119.192 139.086 119.487C139.598 119.782 139.996 120.198 140.282 120.735C140.577 121.264 140.724 121.883 140.724 122.594C140.724 122.646 140.72 122.707 140.711 122.776C140.711 122.845 140.707 122.91 140.698 122.971H134.835V122.074H140.048L139.541 122.386C139.55 121.944 139.459 121.55 139.268 121.203C139.078 120.856 138.813 120.588 138.475 120.397C138.146 120.198 137.76 120.098 137.318 120.098C136.885 120.098 136.499 120.198 136.161 120.397C135.823 120.588 135.559 120.861 135.368 121.216C135.178 121.563 135.082 121.961 135.082 122.412V122.62C135.082 123.079 135.186 123.491 135.394 123.855C135.611 124.21 135.91 124.488 136.291 124.687C136.673 124.886 137.11 124.986 137.604 124.986C138.012 124.986 138.38 124.917 138.709 124.778C139.047 124.639 139.342 124.431 139.593 124.154L140.282 124.96C139.97 125.324 139.58 125.601 139.112 125.792C138.653 125.983 138.137 126.078 137.565 126.078ZM143.471 124.336L143.497 122.737L147.462 119.11H148.97L145.928 122.1L145.252 122.672L143.471 124.336ZM142.457 126V116.354H143.705V126H142.457ZM147.722 126L145.018 122.646L145.824 121.645L149.256 126H147.722ZM154.618 126V124.544L154.553 124.271V121.788C154.553 121.259 154.397 120.852 154.085 120.566C153.782 120.271 153.323 120.124 152.707 120.124C152.3 120.124 151.901 120.193 151.511 120.332C151.121 120.462 150.792 120.64 150.523 120.865L150.003 119.929C150.359 119.643 150.783 119.426 151.277 119.279C151.78 119.123 152.304 119.045 152.85 119.045C153.795 119.045 154.523 119.275 155.034 119.734C155.546 120.193 155.801 120.895 155.801 121.84V126H154.618ZM152.356 126.078C151.845 126.078 151.394 125.991 151.004 125.818C150.623 125.645 150.328 125.406 150.12 125.103C149.912 124.791 149.808 124.44 149.808 124.05C149.808 123.677 149.895 123.339 150.068 123.036C150.25 122.733 150.541 122.49 150.939 122.308C151.347 122.126 151.893 122.035 152.577 122.035H154.761V122.932H152.629C152.005 122.932 151.585 123.036 151.368 123.244C151.152 123.452 151.043 123.703 151.043 123.998C151.043 124.336 151.178 124.609 151.446 124.817C151.715 125.016 152.088 125.116 152.564 125.116C153.032 125.116 153.44 125.012 153.786 124.804C154.142 124.596 154.397 124.293 154.553 123.894L154.8 124.752C154.636 125.159 154.345 125.484 153.929 125.727C153.513 125.961 152.989 126.078 152.356 126.078ZM158.41 126.078C158.167 126.078 157.959 125.996 157.786 125.831C157.612 125.658 157.526 125.441 157.526 125.181C157.526 124.921 157.612 124.709 157.786 124.544C157.959 124.379 158.167 124.297 158.41 124.297C158.644 124.297 158.843 124.379 159.008 124.544C159.181 124.709 159.268 124.921 159.268 125.181C159.268 125.441 159.181 125.658 159.008 125.831C158.843 125.996 158.644 126.078 158.41 126.078Z" fill="white" fill-opacity="0.8"/>
<circle cx="37" cy="36" r="20" fill="white" fill-opacity="0.1"/>
<path d="M44.965 32.521C44.988 32.347 45 32.173 45 32C45 29.621 42.857 27.712 40.479 28.035C39.786 26.802 38.466 26 37 26C35.534 26 34.214 26.802 33.521 28.035C31.138 27.712 29 29.621 29 32C29 32.173 29.012 32.347 29.035 32.521C27.802 33.215 27 34.535 27 36C27 37.465 27.802 38.785 29.035 39.479C29.0119 39.6517 29.0002 39.8258 29 40C29 42.379 31.138 44.283 33.521 43.965C34.214 45.198 35.534 46 37 46C38.466 46 39.786 45.198 40.479 43.965C42.857 44.283 45 42.379 45 40C45 39.827 44.988 39.653 44.965 39.479C46.198 38.785 47 37.465 47 36C47 34.535 46.198 33.215 44.965 32.521ZM35.955 40.416L32.288 36.702L33.712 35.298L35.969 37.584L40.296 33.29L41.704 34.71L35.955 40.416Z" fill="white" fill-opacity="0.5"/>
</svg>
