<svg width="300" height="160" viewBox="0 0 300 160" fill="none" xmlns="http://www.w3.org/2000/svg">
<rect width="300" height="160" rx="10" fill="#0C0E12"/>
<rect x="1" y="1" width="298" height="158" rx="9" stroke="white" stroke-opacity="0.07" stroke-width="2"/>
<path d="M71.9 43L78.2 29H80.76L87.08 43H84.36L78.94 30.38H79.98L74.58 43H71.9ZM74.8 39.76L75.5 37.72H83.06L83.76 39.76H74.8ZM88.6205 43V28.16H91.1205V43H88.6205ZM100.982 43V40.84L100.842 40.38V36.6C100.842 35.8667 100.622 35.3 100.182 34.9C99.7417 34.4867 99.0751 34.28 98.1817 34.28C97.5817 34.28 96.9884 34.3733 96.4017 34.56C95.8284 34.7467 95.3417 35.0067 94.9417 35.34L93.9617 33.52C94.5351 33.08 95.2151 32.7533 96.0017 32.54C96.8017 32.3133 97.6284 32.2 98.4817 32.2C100.028 32.2 101.222 32.5733 102.062 33.32C102.915 34.0533 103.342 35.1933 103.342 36.74V43H100.982ZM97.6217 43.14C96.8217 43.14 96.1217 43.0067 95.5217 42.74C94.9217 42.46 94.4551 42.08 94.1217 41.6C93.8017 41.1067 93.6417 40.5533 93.6417 39.94C93.6417 39.34 93.7817 38.8 94.0617 38.32C94.3551 37.84 94.8284 37.46 95.4817 37.18C96.1351 36.9 97.0017 36.76 98.0817 36.76H101.182V38.42H98.2617C97.4084 38.42 96.8351 38.56 96.5417 38.84C96.2484 39.1067 96.1017 39.44 96.1017 39.84C96.1017 40.2933 96.2817 40.6533 96.6417 40.92C97.0017 41.1867 97.5017 41.32 98.1417 41.32C98.7551 41.32 99.3017 41.18 99.7817 40.9C100.275 40.62 100.628 40.2067 100.842 39.66L101.262 41.16C101.022 41.7867 100.588 42.2733 99.9617 42.62C99.3484 42.9667 98.5684 43.14 97.6217 43.14ZM106.55 43V32.32H108.93V35.26L108.65 34.4C108.97 33.68 109.47 33.1333 110.15 32.76C110.843 32.3867 111.703 32.2 112.73 32.2V34.58C112.623 34.5533 112.523 34.54 112.43 34.54C112.337 34.5267 112.243 34.52 112.15 34.52C111.203 34.52 110.45 34.8 109.89 35.36C109.33 35.9067 109.05 36.7267 109.05 37.82V43H106.55ZM128.331 32.2C129.184 32.2 129.938 32.3667 130.591 32.7C131.258 33.0333 131.778 33.5467 132.151 34.24C132.524 34.92 132.711 35.8 132.711 36.88V43H130.211V37.2C130.211 36.2533 130.004 35.5467 129.591 35.08C129.178 34.6133 128.584 34.38 127.811 34.38C127.264 34.38 126.778 34.5 126.351 34.74C125.938 34.98 125.611 35.3333 125.371 35.8C125.144 36.2667 125.031 36.86 125.031 37.58V43H122.531V37.2C122.531 36.2533 122.324 35.5467 121.911 35.08C121.498 34.6133 120.904 34.38 120.131 34.38C119.584 34.38 119.098 34.5 118.671 34.74C118.258 34.98 117.931 35.3333 117.691 35.8C117.464 36.2667 117.351 36.86 117.351 37.58V43H114.851V32.32H117.231V35.16L116.811 34.32C117.171 33.6267 117.691 33.1 118.371 32.74C119.064 32.38 119.851 32.2 120.731 32.2C121.731 32.2 122.598 32.4467 123.331 32.94C124.078 33.4333 124.571 34.18 124.811 35.18L123.831 34.84C124.178 34.04 124.751 33.4 125.551 32.92C126.351 32.44 127.278 32.2 128.331 32.2ZM141.673 43V29H147.793C149.313 29 150.646 29.2933 151.793 29.88C152.94 30.4667 153.833 31.28 154.473 32.32C155.113 33.36 155.433 34.5867 155.433 36C155.433 37.4 155.113 38.6267 154.473 39.68C153.833 40.72 152.94 41.5333 151.793 42.12C150.646 42.7067 149.313 43 147.793 43H141.673ZM144.273 40.8H147.673C148.726 40.8 149.633 40.6 150.393 40.2C151.166 39.8 151.76 39.24 152.173 38.52C152.6 37.8 152.813 36.96 152.813 36C152.813 35.0267 152.6 34.1867 152.173 33.48C151.76 32.76 151.166 32.2 150.393 31.8C149.633 31.4 148.726 31.2 147.673 31.2H144.273V40.8ZM164.536 43V40.84L164.396 40.38V36.6C164.396 35.8667 164.176 35.3 163.736 34.9C163.296 34.4867 162.63 34.28 161.736 34.28C161.136 34.28 160.543 34.3733 159.956 34.56C159.383 34.7467 158.896 35.0067 158.496 35.34L157.516 33.52C158.09 33.08 158.77 32.7533 159.556 32.54C160.356 32.3133 161.183 32.2 162.036 32.2C163.583 32.2 164.776 32.5733 165.616 33.32C166.47 34.0533 166.896 35.1933 166.896 36.74V43H164.536ZM161.176 43.14C160.376 43.14 159.676 43.0067 159.076 42.74C158.476 42.46 158.01 42.08 157.676 41.6C157.356 41.1067 157.196 40.5533 157.196 39.94C157.196 39.34 157.336 38.8 157.616 38.32C157.91 37.84 158.383 37.46 159.036 37.18C159.69 36.9 160.556 36.76 161.636 36.76H164.736V38.42H161.816C160.963 38.42 160.39 38.56 160.096 38.84C159.803 39.1067 159.656 39.44 159.656 39.84C159.656 40.2933 159.836 40.6533 160.196 40.92C160.556 41.1867 161.056 41.32 161.696 41.32C162.31 41.32 162.856 41.18 163.336 40.9C163.83 40.62 164.183 40.2067 164.396 39.66L164.816 41.16C164.576 41.7867 164.143 42.2733 163.516 42.62C162.903 42.9667 162.123 43.14 161.176 43.14ZM170.105 43V32.32H172.485V35.26L172.205 34.4C172.525 33.68 173.025 33.1333 173.705 32.76C174.398 32.3867 175.258 32.2 176.285 32.2V34.58C176.178 34.5533 176.078 34.54 175.985 34.54C175.892 34.5267 175.798 34.52 175.705 34.52C174.758 34.52 174.005 34.8 173.445 35.36C172.885 35.9067 172.605 36.7267 172.605 37.82V43H170.105ZM183.023 43.14C182.117 43.14 181.317 42.9733 180.623 42.64C179.93 42.2933 179.39 41.7733 179.003 41.08C178.617 40.3733 178.423 39.4867 178.423 38.42V32.32H180.923V38.08C180.923 39.04 181.137 39.76 181.563 40.24C182.003 40.7067 182.623 40.94 183.423 40.94C184.01 40.94 184.517 40.82 184.943 40.58C185.383 40.34 185.723 39.98 185.963 39.5C186.217 39.02 186.343 38.4267 186.343 37.72V32.32H188.843V43H186.463V40.12L186.883 41C186.523 41.6933 185.997 42.2267 185.303 42.6C184.61 42.96 183.85 43.14 183.023 43.14ZM192.117 43V32.32H194.497V35.26L194.217 34.4C194.537 33.68 195.037 33.1333 195.717 32.76C196.41 32.3867 197.27 32.2 198.297 32.2V34.58C198.19 34.5533 198.09 34.54 197.997 34.54C197.903 34.5267 197.81 34.52 197.717 34.52C196.77 34.52 196.017 34.8 195.457 35.36C194.897 35.9067 194.617 36.7267 194.617 37.82V43H192.117ZM206.236 43V40.84L206.096 40.38V36.6C206.096 35.8667 205.876 35.3 205.436 34.9C204.996 34.4867 204.329 34.28 203.436 34.28C202.836 34.28 202.242 34.3733 201.656 34.56C201.082 34.7467 200.596 35.0067 200.196 35.34L199.216 33.52C199.789 33.08 200.469 32.7533 201.256 32.54C202.056 32.3133 202.882 32.2 203.736 32.2C205.282 32.2 206.476 32.5733 207.316 33.32C208.169 34.0533 208.596 35.1933 208.596 36.74V43H206.236ZM202.876 43.14C202.076 43.14 201.376 43.0067 200.776 42.74C200.176 42.46 199.709 42.08 199.376 41.6C199.056 41.1067 198.896 40.5533 198.896 39.94C198.896 39.34 199.036 38.8 199.316 38.32C199.609 37.84 200.082 37.46 200.736 37.18C201.389 36.9 202.256 36.76 203.336 36.76H206.436V38.42H203.516C202.662 38.42 202.089 38.56 201.796 38.84C201.502 39.1067 201.356 39.44 201.356 39.84C201.356 40.2933 201.536 40.6533 201.896 40.92C202.256 41.1867 202.756 41.32 203.396 41.32C204.009 41.32 204.556 41.18 205.036 40.9C205.529 40.62 205.882 40.2067 206.096 39.66L206.516 41.16C206.276 41.7867 205.842 42.2733 205.216 42.62C204.602 42.9667 203.822 43.14 202.876 43.14ZM215.824 43.14C214.651 43.14 213.744 42.84 213.104 42.24C212.464 41.6267 212.144 40.7267 212.144 39.54V29.96H214.644V39.48C214.644 39.9867 214.771 40.38 215.024 40.66C215.291 40.94 215.657 41.08 216.124 41.08C216.684 41.08 217.151 40.9333 217.524 40.64L218.224 42.42C217.931 42.66 217.571 42.84 217.144 42.96C216.717 43.08 216.277 43.14 215.824 43.14ZM210.384 34.4V32.4H217.504V34.4H210.384Z" fill="white"/>
<path d="M18.365 84V74.9H22.2C23.1707 74.9 24.0243 75.0907 24.761 75.472C25.5063 75.8533 26.0827 76.3863 26.49 77.071C26.906 77.7557 27.114 78.5487 27.114 79.45C27.114 80.3513 26.906 81.1443 26.49 81.829C26.0827 82.5137 25.5063 83.0467 24.761 83.428C24.0243 83.8093 23.1707 84 22.2 84H18.365ZM19.665 82.869H22.122C22.876 82.869 23.526 82.726 24.072 82.44C24.6267 82.154 25.0557 81.7553 25.359 81.244C25.6623 80.724 25.814 80.126 25.814 79.45C25.814 78.7653 25.6623 78.1673 25.359 77.656C25.0557 77.1447 24.6267 76.746 24.072 76.46C23.526 76.174 22.876 76.031 22.122 76.031H19.665V82.869ZM28.9232 84V77.11H30.1712V84H28.9232ZM29.5472 75.784C29.3046 75.784 29.1009 75.706 28.9362 75.55C28.7802 75.394 28.7022 75.2033 28.7022 74.978C28.7022 74.744 28.7802 74.549 28.9362 74.393C29.1009 74.237 29.3046 74.159 29.5472 74.159C29.7899 74.159 29.9892 74.237 30.1452 74.393C30.3099 74.5403 30.3922 74.7267 30.3922 74.952C30.3922 75.186 30.3142 75.3853 30.1582 75.55C30.0022 75.706 29.7986 75.784 29.5472 75.784ZM32.5541 84V74.354H33.8021V84H32.5541ZM39.253 84.078C38.5163 84.078 37.8663 83.9263 37.303 83.623C36.7483 83.3197 36.315 82.9037 36.003 82.375C35.6996 81.8463 35.548 81.2397 35.548 80.555C35.548 79.8703 35.6953 79.2637 35.99 78.735C36.2933 78.2063 36.705 77.7947 37.225 77.5C37.7536 77.1967 38.3473 77.045 39.006 77.045C39.6733 77.045 40.2626 77.1923 40.774 77.487C41.2853 77.7817 41.684 78.1977 41.97 78.735C42.2646 79.2637 42.412 79.8833 42.412 80.594C42.412 80.646 42.4076 80.7067 42.399 80.776C42.399 80.8453 42.3946 80.9103 42.386 80.971H36.523V80.074H41.736L41.229 80.386C41.2376 79.944 41.1466 79.5497 40.956 79.203C40.7653 78.8563 40.501 78.5877 40.163 78.397C39.8336 78.1977 39.448 78.098 39.006 78.098C38.5726 78.098 38.187 78.1977 37.849 78.397C37.511 78.5877 37.2466 78.8607 37.056 79.216C36.8653 79.5627 36.77 79.9613 36.77 80.412V80.62C36.77 81.0793 36.874 81.491 37.082 81.855C37.2986 82.2103 37.5976 82.4877 37.979 82.687C38.3603 82.8863 38.798 82.986 39.292 82.986C39.6993 82.986 40.0676 82.9167 40.397 82.778C40.735 82.6393 41.0296 82.4313 41.281 82.154L41.97 82.96C41.658 83.324 41.268 83.6013 40.8 83.792C40.3406 83.9827 39.825 84.078 39.253 84.078ZM47.8239 77.045C48.3872 77.045 48.8812 77.1533 49.3059 77.37C49.7392 77.5867 50.0772 77.916 50.3199 78.358C50.5626 78.8 50.6839 79.359 50.6839 80.035V84H49.4359V80.178C49.4359 79.5107 49.2712 79.008 48.9419 78.67C48.6212 78.332 48.1662 78.163 47.5769 78.163C47.1349 78.163 46.7492 78.2497 46.4199 78.423C46.0906 78.5963 45.8349 78.852 45.6529 79.19C45.4796 79.528 45.3929 79.9483 45.3929 80.451V84H44.1449V77.11H45.3409V78.969L45.1459 78.475C45.3712 78.0243 45.7179 77.6733 46.1859 77.422C46.6539 77.1707 47.1999 77.045 47.8239 77.045ZM56.0095 86.6C55.3769 86.6 54.7615 86.509 54.1635 86.327C53.5742 86.1537 53.0932 85.9023 52.7205 85.573L53.3185 84.611C53.6392 84.8883 54.0335 85.105 54.5015 85.261C54.9695 85.4257 55.4592 85.508 55.9705 85.508C56.7852 85.508 57.3832 85.3173 57.7645 84.936C58.1459 84.5547 58.3365 83.974 58.3365 83.194V81.738L58.4665 80.373L58.4015 78.995V77.11H59.5845V83.064C59.5845 84.2773 59.2812 85.17 58.6745 85.742C58.0679 86.314 57.1795 86.6 56.0095 86.6ZM55.8535 83.714C55.1862 83.714 54.5882 83.5753 54.0595 83.298C53.5395 83.012 53.1235 82.6177 52.8115 82.115C52.5082 81.6123 52.3565 81.0317 52.3565 80.373C52.3565 79.7057 52.5082 79.125 52.8115 78.631C53.1235 78.1283 53.5395 77.7383 54.0595 77.461C54.5882 77.1837 55.1862 77.045 55.8535 77.045C56.4429 77.045 56.9802 77.1663 57.4655 77.409C57.9509 77.643 58.3365 78.007 58.6225 78.501C58.9172 78.995 59.0645 79.619 59.0645 80.373C59.0645 81.1183 58.9172 81.738 58.6225 82.232C58.3365 82.726 57.9509 83.0987 57.4655 83.35C56.9802 83.5927 56.4429 83.714 55.8535 83.714ZM55.9965 82.622C56.4559 82.622 56.8632 82.5267 57.2185 82.336C57.5739 82.1453 57.8512 81.881 58.0505 81.543C58.2585 81.205 58.3625 80.815 58.3625 80.373C58.3625 79.931 58.2585 79.541 58.0505 79.203C57.8512 78.865 57.5739 78.605 57.2185 78.423C56.8632 78.2323 56.4559 78.137 55.9965 78.137C55.5372 78.137 55.1255 78.2323 54.7615 78.423C54.4062 78.605 54.1245 78.865 53.9165 79.203C53.7172 79.541 53.6175 79.931 53.6175 80.373C53.6175 80.815 53.7172 81.205 53.9165 81.543C54.1245 81.881 54.4062 82.1453 54.7615 82.336C55.1255 82.5267 55.5372 82.622 55.9965 82.622ZM62.9831 82.336L63.0091 80.737L66.9741 77.11H68.4821L65.4401 80.1L64.7641 80.672L62.9831 82.336ZM61.9691 84V74.354H63.2171V84H61.9691ZM67.2341 84L64.5301 80.646L65.3361 79.645L68.7681 84H67.2341ZM74.1299 84V82.544L74.0649 82.271V79.788C74.0649 79.2593 73.9089 78.852 73.5969 78.566C73.2936 78.2713 72.8343 78.124 72.2189 78.124C71.8116 78.124 71.4129 78.1933 71.0229 78.332C70.6329 78.462 70.3036 78.6397 70.0349 78.865L69.5149 77.929C69.8703 77.643 70.2949 77.4263 70.7889 77.279C71.2916 77.123 71.8159 77.045 72.3619 77.045C73.3066 77.045 74.0346 77.2747 74.5459 77.734C75.0573 78.1933 75.3129 78.8953 75.3129 79.84V84H74.1299ZM71.8679 84.078C71.3566 84.078 70.9059 83.9913 70.5159 83.818C70.1346 83.6447 69.8399 83.4063 69.6319 83.103C69.4239 82.791 69.3199 82.44 69.3199 82.05C69.3199 81.6773 69.4066 81.3393 69.5799 81.036C69.7619 80.7327 70.0523 80.49 70.4509 80.308C70.8583 80.126 71.4043 80.035 72.0889 80.035H74.2729V80.932H72.1409C71.5169 80.932 71.0966 81.036 70.8799 81.244C70.6633 81.452 70.5549 81.7033 70.5549 81.998C70.5549 82.336 70.6893 82.609 70.9579 82.817C71.2266 83.0163 71.5993 83.116 72.0759 83.116C72.5439 83.116 72.9513 83.012 73.2979 82.804C73.6533 82.596 73.9089 82.2927 74.0649 81.894L74.3119 82.752C74.1473 83.1593 73.8569 83.4843 73.4409 83.727C73.0249 83.961 72.5006 84.078 71.8679 84.078ZM81.2755 84.078C80.7035 84.078 80.1791 83.948 79.7025 83.688C79.2345 83.4193 78.8575 83.025 78.5715 82.505C78.2941 81.985 78.1555 81.335 78.1555 80.555C78.1555 79.775 78.2898 79.125 78.5585 78.605C78.8358 78.085 79.2085 77.695 79.6765 77.435C80.1531 77.175 80.6861 77.045 81.2755 77.045C81.9515 77.045 82.5495 77.1923 83.0695 77.487C83.5895 77.7817 84.0011 78.1933 84.3045 78.722C84.6078 79.242 84.7595 79.853 84.7595 80.555C84.7595 81.257 84.6078 81.8723 84.3045 82.401C84.0011 82.9297 83.5895 83.3413 83.0695 83.636C82.5495 83.9307 81.9515 84.078 81.2755 84.078ZM77.6225 86.522V77.11H78.8185V78.969L78.7405 80.568L78.8705 82.167V86.522H77.6225ZM81.1715 82.986C81.6135 82.986 82.0078 82.8863 82.3545 82.687C82.7098 82.4877 82.9871 82.206 83.1865 81.842C83.3945 81.4693 83.4985 81.0403 83.4985 80.555C83.4985 80.061 83.3945 79.6363 83.1865 79.281C82.9871 78.917 82.7098 78.6353 82.3545 78.436C82.0078 78.2367 81.6135 78.137 81.1715 78.137C80.7381 78.137 80.3438 78.2367 79.9885 78.436C79.6418 78.6353 79.3645 78.917 79.1565 79.281C78.9571 79.6363 78.8575 80.061 78.8575 80.555C78.8575 81.0403 78.9571 81.4693 79.1565 81.842C79.3645 82.206 79.6418 82.4877 79.9885 82.687C80.3438 82.8863 80.7381 82.986 81.1715 82.986ZM86.4838 84V77.11H87.7318V84H86.4838ZM87.1078 75.784C86.8651 75.784 86.6614 75.706 86.4968 75.55C86.3408 75.394 86.2628 75.2033 86.2628 74.978C86.2628 74.744 86.3408 74.549 86.4968 74.393C86.6614 74.237 86.8651 74.159 87.1078 74.159C87.3504 74.159 87.5498 74.237 87.7058 74.393C87.8704 74.5403 87.9528 74.7267 87.9528 74.952C87.9528 75.186 87.8748 75.3853 87.7188 75.55C87.5628 75.706 87.3591 75.784 87.1078 75.784ZM95.5819 84.078C95.0099 84.078 94.4639 84 93.9439 83.844C93.4325 83.688 93.0295 83.4973 92.7349 83.272L93.2549 82.284C93.5495 82.4833 93.9135 82.6523 94.3469 82.791C94.7802 82.9297 95.2222 82.999 95.6729 82.999C96.2535 82.999 96.6695 82.9167 96.9209 82.752C97.1809 82.5873 97.3109 82.3577 97.3109 82.063C97.3109 81.8463 97.2329 81.6773 97.0769 81.556C96.9209 81.4347 96.7129 81.3437 96.4529 81.283C96.2015 81.2223 95.9199 81.1703 95.6079 81.127C95.2959 81.075 94.9839 81.0143 94.6719 80.945C94.3599 80.867 94.0739 80.763 93.8139 80.633C93.5539 80.4943 93.3459 80.308 93.1899 80.074C93.0339 79.8313 92.9559 79.5107 92.9559 79.112C92.9559 78.696 93.0729 78.332 93.3069 78.02C93.5409 77.708 93.8702 77.4697 94.2949 77.305C94.7282 77.1317 95.2395 77.045 95.8289 77.045C96.2795 77.045 96.7345 77.1013 97.1939 77.214C97.6619 77.318 98.0432 77.4697 98.3379 77.669L97.8049 78.657C97.4929 78.449 97.1679 78.306 96.8299 78.228C96.4919 78.15 96.1539 78.111 95.8159 78.111C95.2699 78.111 94.8625 78.202 94.5939 78.384C94.3252 78.5573 94.1909 78.7827 94.1909 79.06C94.1909 79.294 94.2689 79.476 94.4249 79.606C94.5895 79.7273 94.7975 79.8227 95.0489 79.892C95.3089 79.9613 95.5949 80.022 95.9069 80.074C96.2189 80.1173 96.5309 80.178 96.8429 80.256C97.1549 80.3253 97.4365 80.425 97.6879 80.555C97.9479 80.685 98.1559 80.867 98.3119 81.101C98.4765 81.335 98.5589 81.647 98.5589 82.037C98.5589 82.453 98.4375 82.8127 98.1949 83.116C97.9522 83.4193 97.6099 83.6577 97.1679 83.831C96.7259 83.9957 96.1972 84.078 95.5819 84.078ZM100.119 84V77.11H101.367V84H100.119ZM100.743 75.784C100.5 75.784 100.296 75.706 100.132 75.55C99.9755 75.394 99.8975 75.2033 99.8975 74.978C99.8975 74.744 99.9755 74.549 100.132 74.393C100.296 74.237 100.5 74.159 100.743 74.159C100.985 74.159 101.185 74.237 101.341 74.393C101.505 74.5403 101.588 74.7267 101.588 74.952C101.588 75.186 101.51 75.3853 101.354 75.55C101.198 75.706 100.994 75.784 100.743 75.784ZM105.725 84.078C105.153 84.078 104.607 84 104.087 83.844C103.576 83.688 103.173 83.4973 102.878 83.272L103.398 82.284C103.693 82.4833 104.057 82.6523 104.49 82.791C104.924 82.9297 105.366 82.999 105.816 82.999C106.397 82.999 106.813 82.9167 107.064 82.752C107.324 82.5873 107.454 82.3577 107.454 82.063C107.454 81.8463 107.376 81.6773 107.22 81.556C107.064 81.4347 106.856 81.3437 106.596 81.283C106.345 81.2223 106.063 81.1703 105.751 81.127C105.439 81.075 105.127 81.0143 104.815 80.945C104.503 80.867 104.217 80.763 103.957 80.633C103.697 80.4943 103.489 80.308 103.333 80.074C103.177 79.8313 103.099 79.5107 103.099 79.112C103.099 78.696 103.216 78.332 103.45 78.02C103.684 77.708 104.014 77.4697 104.438 77.305C104.872 77.1317 105.383 77.045 105.972 77.045C106.423 77.045 106.878 77.1013 107.337 77.214C107.805 77.318 108.187 77.4697 108.481 77.669L107.948 78.657C107.636 78.449 107.311 78.306 106.973 78.228C106.635 78.15 106.297 78.111 105.959 78.111C105.413 78.111 105.006 78.202 104.737 78.384C104.469 78.5573 104.334 78.7827 104.334 79.06C104.334 79.294 104.412 79.476 104.568 79.606C104.733 79.7273 104.941 79.8227 105.192 79.892C105.452 79.9613 105.738 80.022 106.05 80.074C106.362 80.1173 106.674 80.178 106.986 80.256C107.298 80.3253 107.58 80.425 107.831 80.555C108.091 80.685 108.299 80.867 108.455 81.101C108.62 81.335 108.702 81.647 108.702 82.037C108.702 82.453 108.581 82.8127 108.338 83.116C108.096 83.4193 107.753 83.6577 107.311 83.831C106.869 83.9957 106.341 84.078 105.725 84.078ZM112.628 84.078C111.935 84.078 111.397 83.8917 111.016 83.519C110.635 83.1463 110.444 82.6133 110.444 81.92V75.602H111.692V81.868C111.692 82.2407 111.783 82.5267 111.965 82.726C112.156 82.9253 112.424 83.025 112.771 83.025C113.161 83.025 113.486 82.9167 113.746 82.7L114.136 83.597C113.945 83.7617 113.716 83.883 113.447 83.961C113.187 84.039 112.914 84.078 112.628 84.078ZM109.274 78.137V77.11H113.668V78.137H109.274ZM118.484 84.078C117.748 84.078 117.098 83.9263 116.534 83.623C115.98 83.3197 115.546 82.9037 115.234 82.375C114.931 81.8463 114.779 81.2397 114.779 80.555C114.779 79.8703 114.927 79.2637 115.221 78.735C115.525 78.2063 115.936 77.7947 116.456 77.5C116.985 77.1967 117.579 77.045 118.237 77.045C118.905 77.045 119.494 77.1923 120.005 77.487C120.517 77.7817 120.915 78.1977 121.201 78.735C121.496 79.2637 121.643 79.8833 121.643 80.594C121.643 80.646 121.639 80.7067 121.63 80.776C121.63 80.8453 121.626 80.9103 121.617 80.971H115.754V80.074H120.967L120.46 80.386C120.469 79.944 120.378 79.5497 120.187 79.203C119.997 78.8563 119.732 78.5877 119.394 78.397C119.065 78.1977 118.679 78.098 118.237 78.098C117.804 78.098 117.418 78.1977 117.08 78.397C116.742 78.5877 116.478 78.8607 116.287 79.216C116.097 79.5627 116.001 79.9613 116.001 80.412V80.62C116.001 81.0793 116.105 81.491 116.313 81.855C116.53 82.2103 116.829 82.4877 117.21 82.687C117.592 82.8863 118.029 82.986 118.523 82.986C118.931 82.986 119.299 82.9167 119.628 82.778C119.966 82.6393 120.261 82.4313 120.512 82.154L121.201 82.96C120.889 83.324 120.499 83.6013 120.031 83.792C119.572 83.9827 119.056 84.078 118.484 84.078ZM131.995 77.045C132.55 77.045 133.04 77.1533 133.464 77.37C133.889 77.5867 134.218 77.916 134.452 78.358C134.695 78.8 134.816 79.359 134.816 80.035V84H133.568V80.178C133.568 79.5107 133.412 79.008 133.1 78.67C132.788 78.332 132.351 78.163 131.787 78.163C131.371 78.163 131.007 78.2497 130.695 78.423C130.383 78.5963 130.141 78.852 129.967 79.19C129.803 79.528 129.72 79.9483 129.72 80.451V84H128.472V80.178C128.472 79.5107 128.316 79.008 128.004 78.67C127.701 78.332 127.263 78.163 126.691 78.163C126.284 78.163 125.924 78.2497 125.612 78.423C125.3 78.5963 125.058 78.852 124.884 79.19C124.711 79.528 124.624 79.9483 124.624 80.451V84H123.376V77.11H124.572V78.943L124.377 78.475C124.594 78.0243 124.928 77.6733 125.378 77.422C125.829 77.1707 126.353 77.045 126.951 77.045C127.61 77.045 128.178 77.2097 128.654 77.539C129.131 77.8597 129.443 78.3493 129.59 79.008L129.083 78.8C129.291 78.2713 129.655 77.8467 130.175 77.526C130.695 77.2053 131.302 77.045 131.995 77.045ZM144.881 84V82.544L144.816 82.271V79.788C144.816 79.2593 144.66 78.852 144.348 78.566C144.045 78.2713 143.585 78.124 142.97 78.124C142.563 78.124 142.164 78.1933 141.774 78.332C141.384 78.462 141.055 78.6397 140.786 78.865L140.266 77.929C140.621 77.643 141.046 77.4263 141.54 77.279C142.043 77.123 142.567 77.045 143.113 77.045C144.058 77.045 144.786 77.2747 145.297 77.734C145.808 78.1933 146.064 78.8953 146.064 79.84V84H144.881ZM142.619 84.078C142.108 84.078 141.657 83.9913 141.267 83.818C140.886 83.6447 140.591 83.4063 140.383 83.103C140.175 82.791 140.071 82.44 140.071 82.05C140.071 81.6773 140.158 81.3393 140.331 81.036C140.513 80.7327 140.803 80.49 141.202 80.308C141.609 80.126 142.155 80.035 142.84 80.035H145.024V80.932H142.892C142.268 80.932 141.848 81.036 141.631 81.244C141.414 81.452 141.306 81.7033 141.306 81.998C141.306 82.336 141.44 82.609 141.709 82.817C141.978 83.0163 142.35 83.116 142.827 83.116C143.295 83.116 143.702 83.012 144.049 82.804C144.404 82.596 144.66 82.2927 144.816 81.894L145.063 82.752C144.898 83.1593 144.608 83.4843 144.192 83.727C143.776 83.961 143.252 84.078 142.619 84.078ZM148.373 84V74.354H149.621V84H148.373ZM156.281 84V82.544L156.216 82.271V79.788C156.216 79.2593 156.06 78.852 155.748 78.566C155.445 78.2713 154.986 78.124 154.37 78.124C153.963 78.124 153.564 78.1933 153.174 78.332C152.784 78.462 152.455 78.6397 152.186 78.865L151.666 77.929C152.022 77.643 152.446 77.4263 152.94 77.279C153.443 77.123 153.967 77.045 154.513 77.045C155.458 77.045 156.186 77.2747 156.697 77.734C157.209 78.1933 157.464 78.8953 157.464 79.84V84H156.281ZM154.019 84.078C153.508 84.078 153.057 83.9913 152.667 83.818C152.286 83.6447 151.991 83.4063 151.783 83.103C151.575 82.791 151.471 82.44 151.471 82.05C151.471 81.6773 151.558 81.3393 151.731 81.036C151.913 80.7327 152.204 80.49 152.602 80.308C153.01 80.126 153.556 80.035 154.24 80.035H156.424V80.932H154.292C153.668 80.932 153.248 81.036 153.031 81.244C152.815 81.452 152.706 81.7033 152.706 81.998C152.706 82.336 152.841 82.609 153.109 82.817C153.378 83.0163 153.751 83.116 154.227 83.116C154.695 83.116 155.103 83.012 155.449 82.804C155.805 82.596 156.06 82.2927 156.216 81.894L156.463 82.752C156.299 83.1593 156.008 83.4843 155.592 83.727C155.176 83.961 154.652 84.078 154.019 84.078ZM159.774 84V77.11H160.97V78.982L160.853 78.514C161.043 78.0373 161.364 77.6733 161.815 77.422C162.265 77.1707 162.82 77.045 163.479 77.045V78.254C163.427 78.2453 163.375 78.241 163.323 78.241C163.279 78.241 163.236 78.241 163.193 78.241C162.525 78.241 161.997 78.4403 161.607 78.839C161.217 79.2377 161.022 79.814 161.022 80.568V84H159.774ZM173.636 77.045C174.191 77.045 174.68 77.1533 175.105 77.37C175.53 77.5867 175.859 77.916 176.093 78.358C176.336 78.8 176.457 79.359 176.457 80.035V84H175.209V80.178C175.209 79.5107 175.053 79.008 174.741 78.67C174.429 78.332 173.991 78.163 173.428 78.163C173.012 78.163 172.648 78.2497 172.336 78.423C172.024 78.5963 171.781 78.852 171.608 79.19C171.443 79.528 171.361 79.9483 171.361 80.451V84H170.113V80.178C170.113 79.5107 169.957 79.008 169.645 78.67C169.342 78.332 168.904 78.163 168.332 78.163C167.925 78.163 167.565 78.2497 167.253 78.423C166.941 78.5963 166.698 78.852 166.525 79.19C166.352 79.528 166.265 79.9483 166.265 80.451V84H165.017V77.11H166.213V78.943L166.018 78.475C166.235 78.0243 166.568 77.6733 167.019 77.422C167.47 77.1707 167.994 77.045 168.592 77.045C169.251 77.045 169.818 77.2097 170.295 77.539C170.772 77.8597 171.084 78.3493 171.231 79.008L170.724 78.8C170.932 78.2713 171.296 77.8467 171.816 77.526C172.336 77.2053 172.943 77.045 173.636 77.045ZM185.092 84.078C184.424 84.078 183.826 83.9307 183.298 83.636C182.778 83.3413 182.366 82.9297 182.063 82.401C181.759 81.8723 181.608 81.257 181.608 80.555C181.608 79.853 181.759 79.242 182.063 78.722C182.366 78.1933 182.778 77.7817 183.298 77.487C183.826 77.1923 184.424 77.045 185.092 77.045C185.672 77.045 186.197 77.175 186.665 77.435C187.133 77.695 187.505 78.085 187.783 78.605C188.069 79.125 188.212 79.775 188.212 80.555C188.212 81.335 188.073 81.985 187.796 82.505C187.527 83.025 187.159 83.4193 186.691 83.688C186.223 83.948 185.69 84.078 185.092 84.078ZM185.196 82.986C185.629 82.986 186.019 82.8863 186.366 82.687C186.721 82.4877 186.998 82.206 187.198 81.842C187.406 81.4693 187.51 81.0403 187.51 80.555C187.51 80.061 187.406 79.6363 187.198 79.281C186.998 78.917 186.721 78.6353 186.366 78.436C186.019 78.2367 185.629 78.137 185.196 78.137C184.754 78.137 184.359 78.2367 184.013 78.436C183.666 78.6353 183.389 78.917 183.181 79.281C182.973 79.6363 182.869 80.061 182.869 80.555C182.869 81.0403 182.973 81.4693 183.181 81.842C183.389 82.206 183.666 82.4877 184.013 82.687C184.359 82.8863 184.754 82.986 185.196 82.986ZM187.549 84V82.141L187.627 80.542L187.497 78.943V74.354H188.745V84H187.549ZM195.383 84V82.544L195.318 82.271V79.788C195.318 79.2593 195.162 78.852 194.85 78.566C194.547 78.2713 194.087 78.124 193.472 78.124C193.065 78.124 192.666 78.1933 192.276 78.332C191.886 78.462 191.557 78.6397 191.288 78.865L190.768 77.929C191.123 77.643 191.548 77.4263 192.042 77.279C192.545 77.123 193.069 77.045 193.615 77.045C194.56 77.045 195.288 77.2747 195.799 77.734C196.31 78.1933 196.566 78.8953 196.566 79.84V84H195.383ZM193.121 84.078C192.61 84.078 192.159 83.9913 191.769 83.818C191.388 83.6447 191.093 83.4063 190.885 83.103C190.677 82.791 190.573 82.44 190.573 82.05C190.573 81.6773 190.66 81.3393 190.833 81.036C191.015 80.7327 191.305 80.49 191.704 80.308C192.111 80.126 192.657 80.035 193.342 80.035H195.526V80.932H193.394C192.77 80.932 192.35 81.036 192.133 81.244C191.916 81.452 191.808 81.7033 191.808 81.998C191.808 82.336 191.942 82.609 192.211 82.817C192.48 83.0163 192.852 83.116 193.329 83.116C193.797 83.116 194.204 83.012 194.551 82.804C194.906 82.596 195.162 82.2927 195.318 81.894L195.565 82.752C195.4 83.1593 195.11 83.4843 194.694 83.727C194.278 83.961 193.754 84.078 193.121 84.078ZM198.875 84V77.11H200.071V78.982L199.954 78.514C200.145 78.0373 200.466 77.6733 200.916 77.422C201.367 77.1707 201.922 77.045 202.58 77.045V78.254C202.528 78.2453 202.476 78.241 202.424 78.241C202.381 78.241 202.338 78.241 202.294 78.241C201.627 78.241 201.098 78.4403 200.708 78.839C200.318 79.2377 200.123 79.814 200.123 80.568V84H198.875ZM207.106 84.078C206.517 84.078 205.997 83.9697 205.546 83.753C205.104 83.5363 204.758 83.207 204.506 82.765C204.264 82.3143 204.142 81.751 204.142 81.075V77.11H205.39V80.932C205.39 81.608 205.551 82.115 205.871 82.453C206.201 82.791 206.66 82.96 207.249 82.96C207.683 82.96 208.06 82.8733 208.38 82.7C208.701 82.518 208.948 82.258 209.121 81.92C209.295 81.5733 209.381 81.1573 209.381 80.672V77.11H210.629V84H209.446V82.141L209.641 82.635C209.416 83.0943 209.078 83.4497 208.627 83.701C208.177 83.9523 207.67 84.078 207.106 84.078ZM213.005 84V77.11H214.201V78.982L214.084 78.514C214.275 78.0373 214.596 77.6733 215.046 77.422C215.497 77.1707 216.052 77.045 216.71 77.045V78.254C216.658 78.2453 216.606 78.241 216.554 78.241C216.511 78.241 216.468 78.241 216.424 78.241C215.757 78.241 215.228 78.4403 214.838 78.839C214.448 79.2377 214.253 79.814 214.253 80.568V84H213.005ZM222.018 84V82.544L221.953 82.271V79.788C221.953 79.2593 221.797 78.852 221.485 78.566C221.181 78.2713 220.722 78.124 220.107 78.124C219.699 78.124 219.301 78.1933 218.911 78.332C218.521 78.462 218.191 78.6397 217.923 78.865L217.403 77.929C217.758 77.643 218.183 77.4263 218.677 77.279C219.179 77.123 219.704 77.045 220.25 77.045C221.194 77.045 221.922 77.2747 222.434 77.734C222.945 78.1933 223.201 78.8953 223.201 79.84V84H222.018ZM219.756 84.078C219.244 84.078 218.794 83.9913 218.404 83.818C218.022 83.6447 217.728 83.4063 217.52 83.103C217.312 82.791 217.208 82.44 217.208 82.05C217.208 81.6773 217.294 81.3393 217.468 81.036C217.65 80.7327 217.94 80.49 218.339 80.308C218.746 80.126 219.292 80.035 219.977 80.035H222.161V80.932H220.029C219.405 80.932 218.984 81.036 218.768 81.244C218.551 81.452 218.443 81.7033 218.443 81.998C218.443 82.336 218.577 82.609 218.846 82.817C219.114 83.0163 219.487 83.116 219.964 83.116C220.432 83.116 220.839 83.012 221.186 82.804C221.541 82.596 221.797 82.2927 221.953 81.894L222.2 82.752C222.035 83.1593 221.745 83.4843 221.329 83.727C220.913 83.961 220.388 84.078 219.756 84.078ZM227.876 84.078C227.183 84.078 226.645 83.8917 226.264 83.519C225.883 83.1463 225.692 82.6133 225.692 81.92V75.602H226.94V81.868C226.94 82.2407 227.031 82.5267 227.213 82.726C227.404 82.9253 227.672 83.025 228.019 83.025C228.409 83.025 228.734 82.9167 228.994 82.7L229.384 83.597C229.193 83.7617 228.964 83.883 228.695 83.961C228.435 84.039 228.162 84.078 227.876 84.078ZM224.522 78.137V77.11H228.916V78.137H224.522ZM234.683 86.6C234.354 86.6 234.033 86.5437 233.721 86.431C233.409 86.327 233.141 86.171 232.915 85.963L233.448 85.027C233.622 85.1917 233.812 85.3173 234.02 85.404C234.228 85.4907 234.449 85.534 234.683 85.534C234.987 85.534 235.238 85.456 235.437 85.3C235.637 85.144 235.823 84.8667 235.996 84.468L236.425 83.519L236.555 83.363L239.259 77.11H240.481L237.14 84.689C236.941 85.1743 236.716 85.5557 236.464 85.833C236.222 86.1103 235.953 86.3053 235.658 86.418C235.364 86.5393 235.039 86.6 234.683 86.6ZM236.321 84.221L233.175 77.11H234.475L237.153 83.246L236.321 84.221ZM245.707 84V82.544L245.642 82.271V79.788C245.642 79.2593 245.486 78.852 245.174 78.566C244.871 78.2713 244.411 78.124 243.796 78.124C243.389 78.124 242.99 78.1933 242.6 78.332C242.21 78.462 241.881 78.6397 241.612 78.865L241.092 77.929C241.447 77.643 241.872 77.4263 242.366 77.279C242.869 77.123 243.393 77.045 243.939 77.045C244.884 77.045 245.612 77.2747 246.123 77.734C246.634 78.1933 246.89 78.8953 246.89 79.84V84H245.707ZM243.445 84.078C242.934 84.078 242.483 83.9913 242.093 83.818C241.712 83.6447 241.417 83.4063 241.209 83.103C241.001 82.791 240.897 82.44 240.897 82.05C240.897 81.6773 240.984 81.3393 241.157 81.036C241.339 80.7327 241.629 80.49 242.028 80.308C242.435 80.126 242.981 80.035 243.666 80.035H245.85V80.932H243.718C243.094 80.932 242.674 81.036 242.457 81.244C242.24 81.452 242.132 81.7033 242.132 81.998C242.132 82.336 242.266 82.609 242.535 82.817C242.804 83.0163 243.176 83.116 243.653 83.116C244.121 83.116 244.528 83.012 244.875 82.804C245.23 82.596 245.486 82.2927 245.642 81.894L245.889 82.752C245.724 83.1593 245.434 83.4843 245.018 83.727C244.602 83.961 244.078 84.078 243.445 84.078ZM252.879 77.045C253.442 77.045 253.936 77.1533 254.361 77.37C254.794 77.5867 255.132 77.916 255.375 78.358C255.617 78.8 255.739 79.359 255.739 80.035V84H254.491V80.178C254.491 79.5107 254.326 79.008 253.997 78.67C253.676 78.332 253.221 78.163 252.632 78.163C252.19 78.163 251.804 78.2497 251.475 78.423C251.145 78.5963 250.89 78.852 250.708 79.19C250.534 79.528 250.448 79.9483 250.448 80.451V84H249.2V77.11H250.396V78.969L250.201 78.475C250.426 78.0243 250.773 77.6733 251.241 77.422C251.709 77.1707 252.255 77.045 252.879 77.045ZM261.064 86.6C260.432 86.6 259.816 86.509 259.218 86.327C258.629 86.1537 258.148 85.9023 257.775 85.573L258.373 84.611C258.694 84.8883 259.088 85.105 259.556 85.261C260.024 85.4257 260.514 85.508 261.025 85.508C261.84 85.508 262.438 85.3173 262.819 84.936C263.201 84.5547 263.391 83.974 263.391 83.194V81.738L263.521 80.373L263.456 78.995V77.11H264.639V83.064C264.639 84.2773 264.336 85.17 263.729 85.742C263.123 86.314 262.234 86.6 261.064 86.6ZM260.908 83.714C260.241 83.714 259.643 83.5753 259.114 83.298C258.594 83.012 258.178 82.6177 257.866 82.115C257.563 81.6123 257.411 81.0317 257.411 80.373C257.411 79.7057 257.563 79.125 257.866 78.631C258.178 78.1283 258.594 77.7383 259.114 77.461C259.643 77.1837 260.241 77.045 260.908 77.045C261.498 77.045 262.035 77.1663 262.52 77.409C263.006 77.643 263.391 78.007 263.677 78.501C263.972 78.995 264.119 79.619 264.119 80.373C264.119 81.1183 263.972 81.738 263.677 82.232C263.391 82.726 263.006 83.0987 262.52 83.35C262.035 83.5927 261.498 83.714 260.908 83.714ZM261.051 82.622C261.511 82.622 261.918 82.5267 262.273 82.336C262.629 82.1453 262.906 81.881 263.105 81.543C263.313 81.205 263.417 80.815 263.417 80.373C263.417 79.931 263.313 79.541 263.105 79.203C262.906 78.865 262.629 78.605 262.273 78.423C261.918 78.2323 261.511 78.137 261.051 78.137C260.592 78.137 260.18 78.2323 259.816 78.423C259.461 78.605 259.179 78.865 258.971 79.203C258.772 79.541 258.672 79.931 258.672 80.373C258.672 80.815 258.772 81.205 258.971 81.543C259.179 81.881 259.461 82.1453 259.816 82.336C260.18 82.5267 260.592 82.622 261.051 82.622ZM21.03 105.078C20.3627 105.078 19.7647 104.931 19.236 104.636C18.716 104.341 18.3043 103.93 18.001 103.401C17.6977 102.872 17.546 102.257 17.546 101.555C17.546 100.853 17.6977 100.242 18.001 99.722C18.3043 99.1933 18.716 98.7817 19.236 98.487C19.7647 98.1923 20.3627 98.045 21.03 98.045C21.6107 98.045 22.135 98.175 22.603 98.435C23.071 98.695 23.4437 99.085 23.721 99.605C24.007 100.125 24.15 100.775 24.15 101.555C24.15 102.335 24.0113 102.985 23.734 103.505C23.4653 104.025 23.097 104.419 22.629 104.688C22.161 104.948 21.628 105.078 21.03 105.078ZM21.134 103.986C21.5673 103.986 21.9573 103.886 22.304 103.687C22.6593 103.488 22.9367 103.206 23.136 102.842C23.344 102.469 23.448 102.04 23.448 101.555C23.448 101.061 23.344 100.636 23.136 100.281C22.9367 99.917 22.6593 99.6353 22.304 99.436C21.9573 99.2367 21.5673 99.137 21.134 99.137C20.692 99.137 20.2977 99.2367 19.951 99.436C19.6043 99.6353 19.327 99.917 19.119 100.281C18.911 100.636 18.807 101.061 18.807 101.555C18.807 102.04 18.911 102.469 19.119 102.842C19.327 103.206 19.6043 103.488 19.951 103.687C20.2977 103.886 20.692 103.986 21.134 103.986ZM23.487 105V103.141L23.565 101.542L23.435 99.943V95.354H24.683V105H23.487ZM31.3213 105V103.544L31.2563 103.271V100.788C31.2563 100.259 31.1003 99.852 30.7883 99.566C30.485 99.2713 30.0257 99.124 29.4103 99.124C29.003 99.124 28.6043 99.1933 28.2143 99.332C27.8243 99.462 27.495 99.6397 27.2263 99.865L26.7063 98.929C27.0617 98.643 27.4863 98.4263 27.9803 98.279C28.483 98.123 29.0073 98.045 29.5533 98.045C30.498 98.045 31.226 98.2747 31.7373 98.734C32.2487 99.1933 32.5043 99.8953 32.5043 100.84V105H31.3213ZM29.0593 105.078C28.548 105.078 28.0973 104.991 27.7073 104.818C27.326 104.645 27.0313 104.406 26.8233 104.103C26.6153 103.791 26.5113 103.44 26.5113 103.05C26.5113 102.677 26.598 102.339 26.7713 102.036C26.9533 101.733 27.2437 101.49 27.6423 101.308C28.0497 101.126 28.5957 101.035 29.2803 101.035H31.4643V101.932H29.3323C28.7083 101.932 28.288 102.036 28.0713 102.244C27.8547 102.452 27.7463 102.703 27.7463 102.998C27.7463 103.336 27.8807 103.609 28.1493 103.817C28.418 104.016 28.7907 104.116 29.2673 104.116C29.7353 104.116 30.1427 104.012 30.4893 103.804C30.8447 103.596 31.1003 103.293 31.2563 102.894L31.5033 103.752C31.3387 104.159 31.0483 104.484 30.6323 104.727C30.2163 104.961 29.692 105.078 29.0593 105.078ZM38.4669 105.078C37.8949 105.078 37.3705 104.948 36.8939 104.688C36.4259 104.419 36.0489 104.025 35.7629 103.505C35.4855 102.985 35.3469 102.335 35.3469 101.555C35.3469 100.775 35.4812 100.125 35.7499 99.605C36.0272 99.085 36.3999 98.695 36.8679 98.435C37.3445 98.175 37.8775 98.045 38.4669 98.045C39.1429 98.045 39.7409 98.1923 40.2609 98.487C40.7809 98.7817 41.1925 99.1933 41.4959 99.722C41.7992 100.242 41.9509 100.853 41.9509 101.555C41.9509 102.257 41.7992 102.872 41.4959 103.401C41.1925 103.93 40.7809 104.341 40.2609 104.636C39.7409 104.931 39.1429 105.078 38.4669 105.078ZM34.8139 107.522V98.11H36.0099V99.969L35.9319 101.568L36.0619 103.167V107.522H34.8139ZM38.3629 103.986C38.8049 103.986 39.1992 103.886 39.5459 103.687C39.9012 103.488 40.1785 103.206 40.3779 102.842C40.5859 102.469 40.6899 102.04 40.6899 101.555C40.6899 101.061 40.5859 100.636 40.3779 100.281C40.1785 99.917 39.9012 99.6353 39.5459 99.436C39.1992 99.2367 38.8049 99.137 38.3629 99.137C37.9295 99.137 37.5352 99.2367 37.1799 99.436C36.8332 99.6353 36.5559 99.917 36.3479 100.281C36.1485 100.636 36.0489 101.061 36.0489 101.555C36.0489 102.04 36.1485 102.469 36.3479 102.842C36.5559 103.206 36.8332 103.488 37.1799 103.687C37.5352 103.886 37.9295 103.986 38.3629 103.986ZM47.8887 105V103.544L47.8237 103.271V100.788C47.8237 100.259 47.6677 99.852 47.3557 99.566C47.0524 99.2713 46.593 99.124 45.9777 99.124C45.5704 99.124 45.1717 99.1933 44.7817 99.332C44.3917 99.462 44.0624 99.6397 43.7937 99.865L43.2737 98.929C43.629 98.643 44.0537 98.4263 44.5477 98.279C45.0504 98.123 45.5747 98.045 46.1207 98.045C47.0654 98.045 47.7934 98.2747 48.3047 98.734C48.816 99.1933 49.0717 99.8953 49.0717 100.84V105H47.8887ZM45.6267 105.078C45.1154 105.078 44.6647 104.991 44.2747 104.818C43.8934 104.645 43.5987 104.406 43.3907 104.103C43.1827 103.791 43.0787 103.44 43.0787 103.05C43.0787 102.677 43.1654 102.339 43.3387 102.036C43.5207 101.733 43.811 101.49 44.2097 101.308C44.617 101.126 45.163 101.035 45.8477 101.035H48.0317V101.932H45.8997C45.2757 101.932 44.8554 102.036 44.6387 102.244C44.422 102.452 44.3137 102.703 44.3137 102.998C44.3137 103.336 44.448 103.609 44.7167 103.817C44.9854 104.016 45.358 104.116 45.8347 104.116C46.3027 104.116 46.71 104.012 47.0567 103.804C47.412 103.596 47.6677 103.293 47.8237 102.894L48.0707 103.752C47.906 104.159 47.6157 104.484 47.1997 104.727C46.7837 104.961 46.2594 105.078 45.6267 105.078ZM53.7472 105.078C53.0539 105.078 52.5166 104.892 52.1352 104.519C51.7539 104.146 51.5632 103.613 51.5632 102.92V96.602H52.8112V102.868C52.8112 103.241 52.9022 103.527 53.0842 103.726C53.2749 103.925 53.5436 104.025 53.8902 104.025C54.2802 104.025 54.6052 103.917 54.8652 103.7L55.2552 104.597C55.0646 104.762 54.8349 104.883 54.5662 104.961C54.3062 105.039 54.0332 105.078 53.7472 105.078ZM50.3932 99.137V98.11H54.7872V99.137H50.3932ZM63.1023 105.078C62.4349 105.078 61.8369 104.931 61.3083 104.636C60.7883 104.341 60.3766 103.93 60.0733 103.401C59.7699 102.872 59.6183 102.257 59.6183 101.555C59.6183 100.853 59.7699 100.242 60.0733 99.722C60.3766 99.1933 60.7883 98.7817 61.3083 98.487C61.8369 98.1923 62.4349 98.045 63.1023 98.045C63.6829 98.045 64.2073 98.175 64.6753 98.435C65.1433 98.695 65.5159 99.085 65.7933 99.605C66.0793 100.125 66.2223 100.775 66.2223 101.555C66.2223 102.335 66.0836 102.985 65.8063 103.505C65.5376 104.025 65.1693 104.419 64.7013 104.688C64.2333 104.948 63.7003 105.078 63.1023 105.078ZM63.2063 103.986C63.6396 103.986 64.0296 103.886 64.3763 103.687C64.7316 103.488 65.0089 103.206 65.2083 102.842C65.4163 102.469 65.5203 102.04 65.5203 101.555C65.5203 101.061 65.4163 100.636 65.2083 100.281C65.0089 99.917 64.7316 99.6353 64.3763 99.436C64.0296 99.2367 63.6396 99.137 63.2063 99.137C62.7643 99.137 62.3699 99.2367 62.0233 99.436C61.6766 99.6353 61.3993 99.917 61.1913 100.281C60.9833 100.636 60.8793 101.061 60.8793 101.555C60.8793 102.04 60.9833 102.469 61.1913 102.842C61.3993 103.206 61.6766 103.488 62.0233 103.687C62.3699 103.886 62.7643 103.986 63.2063 103.986ZM65.5593 105V103.141L65.6373 101.542L65.5073 99.943V95.354H66.7553V105H65.5593ZM69.1166 105V98.11H70.3646V105H69.1166ZM69.7406 96.784C69.4979 96.784 69.2943 96.706 69.1296 96.55C68.9736 96.394 68.8956 96.2033 68.8956 95.978C68.8956 95.744 68.9736 95.549 69.1296 95.393C69.2943 95.237 69.4979 95.159 69.7406 95.159C69.9833 95.159 70.1826 95.237 70.3386 95.393C70.5033 95.5403 70.5856 95.7267 70.5856 95.952C70.5856 96.186 70.5076 96.3853 70.3516 96.55C70.1956 96.706 69.9919 96.784 69.7406 96.784ZM77.0245 105V103.544L76.9595 103.271V100.788C76.9595 100.259 76.8035 99.852 76.4915 99.566C76.1881 99.2713 75.7288 99.124 75.1135 99.124C74.7061 99.124 74.3075 99.1933 73.9175 99.332C73.5275 99.462 73.1981 99.6397 72.9295 99.865L72.4095 98.929C72.7648 98.643 73.1895 98.4263 73.6835 98.279C74.1861 98.123 74.7105 98.045 75.2565 98.045C76.2011 98.045 76.9291 98.2747 77.4405 98.734C77.9518 99.1933 78.2075 99.8953 78.2075 100.84V105H77.0245ZM74.7625 105.078C74.2511 105.078 73.8005 104.991 73.4105 104.818C73.0291 104.645 72.7345 104.406 72.5265 104.103C72.3185 103.791 72.2145 103.44 72.2145 103.05C72.2145 102.677 72.3011 102.339 72.4745 102.036C72.6565 101.733 72.9468 101.49 73.3455 101.308C73.7528 101.126 74.2988 101.035 74.9835 101.035H77.1675V101.932H75.0355C74.4115 101.932 73.9911 102.036 73.7745 102.244C73.5578 102.452 73.4495 102.703 73.4495 102.998C73.4495 103.336 73.5838 103.609 73.8525 103.817C74.1211 104.016 74.4938 104.116 74.9705 104.116C75.4385 104.116 75.8458 104.012 76.1925 103.804C76.5478 103.596 76.8035 103.293 76.9595 102.894L77.2065 103.752C77.0418 104.159 76.7515 104.484 76.3355 104.727C75.9195 104.961 75.3951 105.078 74.7625 105.078ZM81.531 103.336L81.557 101.737L85.522 98.11H87.03L83.988 101.1L83.312 101.672L81.531 103.336ZM80.517 105V95.354H81.765V105H80.517ZM85.782 105L83.078 101.646L83.884 100.645L87.316 105H85.782ZM90.8937 105.078C90.2004 105.078 89.6631 104.892 89.2817 104.519C88.9004 104.146 88.7097 103.613 88.7097 102.92V96.602H89.9577V102.868C89.9577 103.241 90.0487 103.527 90.2307 103.726C90.4214 103.925 90.6901 104.025 91.0367 104.025C91.4267 104.025 91.7517 103.917 92.0117 103.7L92.4017 104.597C92.2111 104.762 91.9814 104.883 91.7127 104.961C91.4527 105.039 91.1797 105.078 90.8937 105.078ZM87.5397 99.137V98.11H91.9337V99.137H87.5397ZM93.9105 105V98.11H95.1585V105H93.9105ZM94.5345 96.784C94.2919 96.784 94.0882 96.706 93.9235 96.55C93.7675 96.394 93.6895 96.2033 93.6895 95.978C93.6895 95.744 93.7675 95.549 93.9235 95.393C94.0882 95.237 94.2919 95.159 94.5345 95.159C94.7772 95.159 94.9765 95.237 95.1325 95.393C95.2972 95.5403 95.3795 95.7267 95.3795 95.952C95.3795 96.186 95.3015 96.3853 95.1455 96.55C94.9895 96.706 94.7859 96.784 94.5345 96.784ZM97.7234 105V97.499C97.7234 96.823 97.9184 96.2857 98.3084 95.887C98.7071 95.4797 99.2704 95.276 99.9984 95.276C100.267 95.276 100.523 95.3107 100.765 95.38C101.017 95.4407 101.229 95.5403 101.402 95.679L101.025 96.628C100.895 96.524 100.748 96.446 100.583 96.394C100.419 96.3333 100.245 96.303 100.063 96.303C99.6994 96.303 99.4221 96.407 99.2314 96.615C99.0407 96.8143 98.9454 97.1133 98.9454 97.512V98.435L98.9714 99.007V105H97.7234ZM96.5534 99.137V98.11H100.947V99.137H96.5534ZM103.138 103.336L103.164 101.737L107.129 98.11H108.637L105.595 101.1L104.919 101.672L103.138 103.336ZM102.124 105V95.354H103.372V105H102.124ZM107.389 105L104.685 101.646L105.491 100.645L108.923 105H107.389ZM114.285 105V103.544L114.22 103.271V100.788C114.22 100.259 114.064 99.852 113.752 99.566C113.449 99.2713 112.99 99.124 112.374 99.124C111.967 99.124 111.568 99.1933 111.178 99.332C110.788 99.462 110.459 99.6397 110.19 99.865L109.67 98.929C110.026 98.643 110.45 98.4263 110.944 98.279C111.447 98.123 111.971 98.045 112.517 98.045C113.462 98.045 114.19 98.2747 114.701 98.734C115.213 99.1933 115.468 99.8953 115.468 100.84V105H114.285ZM112.023 105.078C111.512 105.078 111.061 104.991 110.671 104.818C110.29 104.645 109.995 104.406 109.787 104.103C109.579 103.791 109.475 103.44 109.475 103.05C109.475 102.677 109.562 102.339 109.735 102.036C109.917 101.733 110.208 101.49 110.606 101.308C111.014 101.126 111.56 101.035 112.244 101.035H114.428V101.932H112.296C111.672 101.932 111.252 102.036 111.035 102.244C110.819 102.452 110.71 102.703 110.71 102.998C110.71 103.336 110.845 103.609 111.113 103.817C111.382 104.016 111.755 104.116 112.231 104.116C112.699 104.116 113.107 104.012 113.453 103.804C113.809 103.596 114.064 103.293 114.22 102.894L114.467 103.752C114.303 104.159 114.012 104.484 113.596 104.727C113.18 104.961 112.656 105.078 112.023 105.078ZM121.457 98.045C122.02 98.045 122.514 98.1533 122.939 98.37C123.372 98.5867 123.71 98.916 123.953 99.358C124.195 99.8 124.317 100.359 124.317 101.035V105H123.069V101.178C123.069 100.511 122.904 100.008 122.575 99.67C122.254 99.332 121.799 99.163 121.21 99.163C120.768 99.163 120.382 99.2497 120.053 99.423C119.723 99.5963 119.468 99.852 119.286 100.19C119.112 100.528 119.026 100.948 119.026 101.451V105H117.778V98.11H118.974V99.969L118.779 99.475C119.004 99.0243 119.351 98.6733 119.819 98.422C120.287 98.1707 120.833 98.045 121.457 98.045ZM133.017 105.078C132.427 105.078 131.907 104.97 131.457 104.753C131.015 104.536 130.668 104.207 130.417 103.765C130.174 103.314 130.053 102.751 130.053 102.075V98.11H131.301V101.932C131.301 102.608 131.461 103.115 131.782 103.453C132.111 103.791 132.57 103.96 133.16 103.96C133.593 103.96 133.97 103.873 134.291 103.7C134.611 103.518 134.858 103.258 135.032 102.92C135.205 102.573 135.292 102.157 135.292 101.672V98.11H136.54V105H135.357V103.141L135.552 103.635C135.326 104.094 134.988 104.45 134.538 104.701C134.087 104.952 133.58 105.078 133.017 105.078ZM142.594 98.045C143.158 98.045 143.652 98.1533 144.076 98.37C144.51 98.5867 144.848 98.916 145.09 99.358C145.333 99.8 145.454 100.359 145.454 101.035V105H144.206V101.178C144.206 100.511 144.042 100.008 143.712 99.67C143.392 99.332 142.937 99.163 142.347 99.163C141.905 99.163 141.52 99.2497 141.19 99.423C140.861 99.5963 140.605 99.852 140.423 100.19C140.25 100.528 140.163 100.948 140.163 101.451V105H138.915V98.11H140.111V99.969L139.916 99.475C140.142 99.0243 140.488 98.6733 140.956 98.422C141.424 98.1707 141.97 98.045 142.594 98.045ZM150.13 105.078C149.437 105.078 148.899 104.892 148.518 104.519C148.137 104.146 147.946 103.613 147.946 102.92V96.602H149.194V102.868C149.194 103.241 149.285 103.527 149.467 103.726C149.658 103.925 149.926 104.025 150.273 104.025C150.663 104.025 150.988 103.917 151.248 103.7L151.638 104.597C151.447 104.762 151.218 104.883 150.949 104.961C150.689 105.039 150.416 105.078 150.13 105.078ZM146.776 99.137V98.11H151.17V99.137H146.776ZM156.046 105.078C155.457 105.078 154.937 104.97 154.486 104.753C154.044 104.536 153.697 104.207 153.446 103.765C153.203 103.314 153.082 102.751 153.082 102.075V98.11H154.33V101.932C154.33 102.608 154.49 103.115 154.811 103.453C155.14 103.791 155.6 103.96 156.189 103.96C156.622 103.96 156.999 103.873 157.32 103.7C157.641 103.518 157.888 103.258 158.061 102.92C158.234 102.573 158.321 102.157 158.321 101.672V98.11H159.569V105H158.386V103.141L158.581 103.635C158.356 104.094 158.018 104.45 157.567 104.701C157.116 104.952 156.609 105.078 156.046 105.078ZM162.959 103.336L162.985 101.737L166.95 98.11H168.458L165.416 101.1L164.74 101.672L162.959 103.336ZM161.945 105V95.354H163.193V105H161.945ZM167.21 105L164.506 101.646L165.312 100.645L168.744 105H167.21ZM182.066 98.045C182.62 98.045 183.11 98.1533 183.535 98.37C183.959 98.5867 184.289 98.916 184.523 99.358C184.765 99.8 184.887 100.359 184.887 101.035V105H183.639V101.178C183.639 100.511 183.483 100.008 183.171 99.67C182.859 99.332 182.421 99.163 181.858 99.163C181.442 99.163 181.078 99.2497 180.766 99.423C180.454 99.5963 180.211 99.852 180.038 100.19C179.873 100.528 179.791 100.948 179.791 101.451V105H178.543V101.178C178.543 100.511 178.387 100.008 178.075 99.67C177.771 99.332 177.334 99.163 176.762 99.163C176.354 99.163 175.995 99.2497 175.683 99.423C175.371 99.5963 175.128 99.852 174.955 100.19C174.781 100.528 174.695 100.948 174.695 101.451V105H173.447V98.11H174.643V99.943L174.448 99.475C174.664 99.0243 174.998 98.6733 175.449 98.422C175.899 98.1707 176.424 98.045 177.022 98.045C177.68 98.045 178.248 98.2097 178.725 98.539C179.201 98.8597 179.513 99.3493 179.661 100.008L179.154 99.8C179.362 99.2713 179.726 98.8467 180.246 98.526C180.766 98.2053 181.372 98.045 182.066 98.045ZM190.251 105.078C189.514 105.078 188.864 104.926 188.301 104.623C187.746 104.32 187.313 103.904 187.001 103.375C186.698 102.846 186.546 102.24 186.546 101.555C186.546 100.87 186.693 100.264 186.988 99.735C187.291 99.2063 187.703 98.7947 188.223 98.5C188.752 98.1967 189.345 98.045 190.004 98.045C190.671 98.045 191.261 98.1923 191.772 98.487C192.283 98.7817 192.682 99.1977 192.968 99.735C193.263 100.264 193.41 100.883 193.41 101.594C193.41 101.646 193.406 101.707 193.397 101.776C193.397 101.845 193.393 101.91 193.384 101.971H187.521V101.074H192.734L192.227 101.386C192.236 100.944 192.145 100.55 191.954 100.203C191.763 99.8563 191.499 99.5877 191.161 99.397C190.832 99.1977 190.446 99.098 190.004 99.098C189.571 99.098 189.185 99.1977 188.847 99.397C188.509 99.5877 188.245 99.8607 188.054 100.216C187.863 100.563 187.768 100.961 187.768 101.412V101.62C187.768 102.079 187.872 102.491 188.08 102.855C188.297 103.21 188.596 103.488 188.977 103.687C189.358 103.886 189.796 103.986 190.29 103.986C190.697 103.986 191.066 103.917 191.395 103.778C191.733 103.639 192.028 103.431 192.279 103.154L192.968 103.96C192.656 104.324 192.266 104.601 191.798 104.792C191.339 104.983 190.823 105.078 190.251 105.078ZM203.762 98.045C204.317 98.045 204.806 98.1533 205.231 98.37C205.656 98.5867 205.985 98.916 206.219 99.358C206.462 99.8 206.583 100.359 206.583 101.035V105H205.335V101.178C205.335 100.511 205.179 100.008 204.867 99.67C204.555 99.332 204.117 99.163 203.554 99.163C203.138 99.163 202.774 99.2497 202.462 99.423C202.15 99.5963 201.907 99.852 201.734 100.19C201.569 100.528 201.487 100.948 201.487 101.451V105H200.239V101.178C200.239 100.511 200.083 100.008 199.771 99.67C199.468 99.332 199.03 99.163 198.458 99.163C198.051 99.163 197.691 99.2497 197.379 99.423C197.067 99.5963 196.824 99.852 196.651 100.19C196.478 100.528 196.391 100.948 196.391 101.451V105H195.143V98.11H196.339V99.943L196.144 99.475C196.361 99.0243 196.694 98.6733 197.145 98.422C197.596 98.1707 198.12 98.045 198.718 98.045C199.377 98.045 199.944 98.2097 200.421 98.539C200.898 98.8597 201.21 99.3493 201.357 100.008L200.85 99.8C201.058 99.2713 201.422 98.8467 201.942 98.526C202.462 98.2053 203.069 98.045 203.762 98.045ZM212.532 105.078C211.943 105.078 211.41 104.948 210.933 104.688C210.465 104.419 210.093 104.025 209.815 103.505C209.547 102.985 209.412 102.335 209.412 101.555C209.412 100.775 209.551 100.125 209.828 99.605C210.114 99.085 210.491 98.695 210.959 98.435C211.436 98.175 211.96 98.045 212.532 98.045C213.208 98.045 213.806 98.1923 214.326 98.487C214.846 98.7817 215.258 99.1933 215.561 99.722C215.865 100.242 216.016 100.853 216.016 101.555C216.016 102.257 215.865 102.872 215.561 103.401C215.258 103.93 214.846 104.341 214.326 104.636C213.806 104.931 213.208 105.078 212.532 105.078ZM208.879 105V95.354H210.127V99.943L209.997 101.542L210.075 103.141V105H208.879ZM212.428 103.986C212.87 103.986 213.265 103.886 213.611 103.687C213.967 103.488 214.244 103.206 214.443 102.842C214.651 102.469 214.755 102.04 214.755 101.555C214.755 101.061 214.651 100.636 214.443 100.281C214.244 99.917 213.967 99.6353 213.611 99.436C213.265 99.2367 212.87 99.137 212.428 99.137C211.995 99.137 211.601 99.2367 211.245 99.436C210.899 99.6353 210.621 99.917 210.413 100.281C210.214 100.636 210.114 101.061 210.114 101.555C210.114 102.04 210.214 102.469 210.413 102.842C210.621 103.206 210.899 103.488 211.245 103.687C211.601 103.886 211.995 103.986 212.428 103.986ZM220.809 105.078C220.072 105.078 219.422 104.926 218.859 104.623C218.304 104.32 217.871 103.904 217.559 103.375C217.255 102.846 217.104 102.24 217.104 101.555C217.104 100.87 217.251 100.264 217.546 99.735C217.849 99.2063 218.261 98.7947 218.781 98.5C219.309 98.1967 219.903 98.045 220.562 98.045C221.229 98.045 221.818 98.1923 222.33 98.487C222.841 98.7817 223.24 99.1977 223.526 99.735C223.82 100.264 223.968 100.883 223.968 101.594C223.968 101.646 223.963 101.707 223.955 101.776C223.955 101.845 223.95 101.91 223.942 101.971H218.079V101.074H223.292L222.785 101.386C222.793 100.944 222.702 100.55 222.512 100.203C222.321 99.8563 222.057 99.5877 221.719 99.397C221.389 99.1977 221.004 99.098 220.562 99.098C220.128 99.098 219.743 99.1977 219.405 99.397C219.067 99.5877 218.802 99.8607 218.612 100.216C218.421 100.563 218.326 100.961 218.326 101.412V101.62C218.326 102.079 218.43 102.491 218.638 102.855C218.854 103.21 219.153 103.488 219.535 103.687C219.916 103.886 220.354 103.986 220.848 103.986C221.255 103.986 221.623 103.917 221.953 103.778C222.291 103.639 222.585 103.431 222.837 103.154L223.526 103.96C223.214 104.324 222.824 104.601 222.356 104.792C221.896 104.983 221.381 105.078 220.809 105.078ZM225.701 105V98.11H226.897V99.982L226.78 99.514C226.97 99.0373 227.291 98.6733 227.742 98.422C228.192 98.1707 228.747 98.045 229.406 98.045V99.254C229.354 99.2453 229.302 99.241 229.25 99.241C229.206 99.241 229.163 99.241 229.12 99.241C228.452 99.241 227.924 99.4403 227.534 99.839C227.144 100.238 226.949 100.814 226.949 101.568V105H225.701ZM230.944 105V98.11H232.192V105H230.944ZM231.568 96.784C231.325 96.784 231.121 96.706 230.957 96.55C230.801 96.394 230.723 96.2033 230.723 95.978C230.723 95.744 230.801 95.549 230.957 95.393C231.121 95.237 231.325 95.159 231.568 95.159C231.81 95.159 232.01 95.237 232.166 95.393C232.33 95.5403 232.413 95.7267 232.413 95.952C232.413 96.186 232.335 96.3853 232.179 96.55C232.023 96.706 231.819 96.784 231.568 96.784ZM240.432 105.078C239.738 105.078 239.201 104.892 238.82 104.519C238.438 104.146 238.248 103.613 238.248 102.92V96.602H239.496V102.868C239.496 103.241 239.587 103.527 239.769 103.726C239.959 103.925 240.228 104.025 240.575 104.025C240.965 104.025 241.29 103.917 241.55 103.7L241.94 104.597C241.749 104.762 241.519 104.883 241.251 104.961C240.991 105.039 240.718 105.078 240.432 105.078ZM237.078 99.137V98.11H241.472V99.137H237.078ZM247.726 105V103.544L247.661 103.271V100.788C247.661 100.259 247.505 99.852 247.193 99.566C246.889 99.2713 246.43 99.124 245.815 99.124C245.407 99.124 245.009 99.1933 244.619 99.332C244.229 99.462 243.899 99.6397 243.631 99.865L243.111 98.929C243.466 98.643 243.891 98.4263 244.385 98.279C244.887 98.123 245.412 98.045 245.958 98.045C246.902 98.045 247.63 98.2747 248.142 98.734C248.653 99.1933 248.909 99.8953 248.909 100.84V105H247.726ZM245.464 105.078C244.952 105.078 244.502 104.991 244.112 104.818C243.73 104.645 243.436 104.406 243.228 104.103C243.02 103.791 242.916 103.44 242.916 103.05C242.916 102.677 243.002 102.339 243.176 102.036C243.358 101.733 243.648 101.49 244.047 101.308C244.454 101.126 245 101.035 245.685 101.035H247.869V101.932H245.737C245.113 101.932 244.692 102.036 244.476 102.244C244.259 102.452 244.151 102.703 244.151 102.998C244.151 103.336 244.285 103.609 244.554 103.817C244.822 104.016 245.195 104.116 245.672 104.116C246.14 104.116 246.547 104.012 246.894 103.804C247.249 103.596 247.505 103.293 247.661 102.894L247.908 103.752C247.743 104.159 247.453 104.484 247.037 104.727C246.621 104.961 246.096 105.078 245.464 105.078ZM254.897 98.045C255.46 98.045 255.954 98.1533 256.379 98.37C256.812 98.5867 257.15 98.916 257.393 99.358C257.636 99.8 257.757 100.359 257.757 101.035V105H256.509V101.178C256.509 100.511 256.344 100.008 256.015 99.67C255.694 99.332 255.239 99.163 254.65 99.163C254.208 99.163 253.822 99.2497 253.493 99.423C253.164 99.5963 252.908 99.852 252.726 100.19C252.553 100.528 252.466 100.948 252.466 101.451V105H251.218V95.354H252.466V99.969L252.219 99.475C252.444 99.0243 252.791 98.6733 253.259 98.422C253.727 98.1707 254.273 98.045 254.897 98.045ZM262.966 105.078C262.376 105.078 261.856 104.97 261.406 104.753C260.964 104.536 260.617 104.207 260.366 103.765C260.123 103.314 260.002 102.751 260.002 102.075V98.11H261.25V101.932C261.25 102.608 261.41 103.115 261.731 103.453C262.06 103.791 262.519 103.96 263.109 103.96C263.542 103.96 263.919 103.873 264.24 103.7C264.56 103.518 264.807 103.258 264.981 102.92C265.154 102.573 265.241 102.157 265.241 101.672V98.11H266.489V105H265.306V103.141L265.501 103.635C265.275 104.094 264.937 104.45 264.487 104.701C264.036 104.952 263.529 105.078 262.966 105.078ZM21.134 126.078C20.4407 126.078 19.8253 125.926 19.288 125.623C18.7507 125.32 18.326 124.904 18.014 124.375C17.702 123.838 17.546 123.231 17.546 122.555C17.546 121.87 17.702 121.264 18.014 120.735C18.326 120.206 18.7507 119.795 19.288 119.5C19.8253 119.197 20.4407 119.045 21.134 119.045C21.8187 119.045 22.4297 119.197 22.967 119.5C23.513 119.795 23.9377 120.206 24.241 120.735C24.553 121.255 24.709 121.862 24.709 122.555C24.709 123.24 24.553 123.846 24.241 124.375C23.9377 124.904 23.513 125.32 22.967 125.623C22.4297 125.926 21.8187 126.078 21.134 126.078ZM21.134 124.986C21.576 124.986 21.9703 124.886 22.317 124.687C22.6723 124.488 22.9497 124.206 23.149 123.842C23.3483 123.469 23.448 123.04 23.448 122.555C23.448 122.061 23.3483 121.636 23.149 121.281C22.9497 120.917 22.6723 120.635 22.317 120.436C21.9703 120.237 21.576 120.137 21.134 120.137C20.692 120.137 20.2977 120.237 19.951 120.436C19.6043 120.635 19.327 120.917 19.119 121.281C18.911 121.636 18.807 122.061 18.807 122.555C18.807 123.04 18.911 123.469 19.119 123.842C19.327 124.206 19.6043 124.488 19.951 124.687C20.2977 124.886 20.692 124.986 21.134 124.986ZM26.435 126V119.11H27.631V120.982L27.514 120.514C27.7046 120.037 28.0253 119.673 28.476 119.422C28.9266 119.171 29.4813 119.045 30.14 119.045V120.254C30.088 120.245 30.036 120.241 29.984 120.241C29.9406 120.241 29.8973 120.241 29.854 120.241C29.1866 120.241 28.658 120.44 28.268 120.839C27.878 121.238 27.683 121.814 27.683 122.568V126H26.435ZM35.4473 126V124.544L35.3823 124.271V121.788C35.3823 121.259 35.2263 120.852 34.9143 120.566C34.611 120.271 34.1516 120.124 33.5363 120.124C33.129 120.124 32.7303 120.193 32.3403 120.332C31.9503 120.462 31.621 120.64 31.3523 120.865L30.8323 119.929C31.1876 119.643 31.6123 119.426 32.1063 119.279C32.609 119.123 33.1333 119.045 33.6793 119.045C34.624 119.045 35.352 119.275 35.8633 119.734C36.3746 120.193 36.6303 120.895 36.6303 121.84V126H35.4473ZM33.1853 126.078C32.674 126.078 32.2233 125.991 31.8333 125.818C31.452 125.645 31.1573 125.406 30.9493 125.103C30.7413 124.791 30.6373 124.44 30.6373 124.05C30.6373 123.677 30.724 123.339 30.8973 123.036C31.0793 122.733 31.3696 122.49 31.7683 122.308C32.1756 122.126 32.7216 122.035 33.4063 122.035H35.5903V122.932H33.4583C32.8343 122.932 32.414 123.036 32.1973 123.244C31.9806 123.452 31.8723 123.703 31.8723 123.998C31.8723 124.336 32.0066 124.609 32.2753 124.817C32.544 125.016 32.9166 125.116 33.3933 125.116C33.8613 125.116 34.2686 125.012 34.6153 124.804C34.9706 124.596 35.2263 124.293 35.3823 123.894L35.6293 124.752C35.4646 125.159 35.1743 125.484 34.7583 125.727C34.3423 125.961 33.818 126.078 33.1853 126.078ZM42.6188 119.045C43.1822 119.045 43.6762 119.153 44.1008 119.37C44.5342 119.587 44.8722 119.916 45.1148 120.358C45.3575 120.8 45.4788 121.359 45.4788 122.035V126H44.2308V122.178C44.2308 121.511 44.0662 121.008 43.7368 120.67C43.4162 120.332 42.9612 120.163 42.3718 120.163C41.9298 120.163 41.5442 120.25 41.2148 120.423C40.8855 120.596 40.6298 120.852 40.4478 121.19C40.2745 121.528 40.1878 121.948 40.1878 122.451V126H38.9398V119.11H40.1358V120.969L39.9408 120.475C40.1662 120.024 40.5128 119.673 40.9808 119.422C41.4488 119.171 41.9948 119.045 42.6188 119.045ZM50.8045 128.6C50.1718 128.6 49.5565 128.509 48.9585 128.327C48.3691 128.154 47.8881 127.902 47.5155 127.573L48.1135 126.611C48.4341 126.888 48.8285 127.105 49.2965 127.261C49.7645 127.426 50.2541 127.508 50.7655 127.508C51.5801 127.508 52.1781 127.317 52.5595 126.936C52.9408 126.555 53.1315 125.974 53.1315 125.194V123.738L53.2615 122.373L53.1965 120.995V119.11H54.3795V125.064C54.3795 126.277 54.0761 127.17 53.4695 127.742C52.8628 128.314 51.9745 128.6 50.8045 128.6ZM50.6485 125.714C49.9811 125.714 49.3831 125.575 48.8545 125.298C48.3345 125.012 47.9185 124.618 47.6065 124.115C47.3031 123.612 47.1515 123.032 47.1515 122.373C47.1515 121.706 47.3031 121.125 47.6065 120.631C47.9185 120.128 48.3345 119.738 48.8545 119.461C49.3831 119.184 49.9811 119.045 50.6485 119.045C51.2378 119.045 51.7751 119.166 52.2605 119.409C52.7458 119.643 53.1315 120.007 53.4175 120.501C53.7121 120.995 53.8595 121.619 53.8595 122.373C53.8595 123.118 53.7121 123.738 53.4175 124.232C53.1315 124.726 52.7458 125.099 52.2605 125.35C51.7751 125.593 51.2378 125.714 50.6485 125.714ZM50.7915 124.622C51.2508 124.622 51.6581 124.527 52.0135 124.336C52.3688 124.145 52.6461 123.881 52.8455 123.543C53.0535 123.205 53.1575 122.815 53.1575 122.373C53.1575 121.931 53.0535 121.541 52.8455 121.203C52.6461 120.865 52.3688 120.605 52.0135 120.423C51.6581 120.232 51.2508 120.137 50.7915 120.137C50.3321 120.137 49.9205 120.232 49.5565 120.423C49.2011 120.605 48.9195 120.865 48.7115 121.203C48.5121 121.541 48.4125 121.931 48.4125 122.373C48.4125 122.815 48.5121 123.205 48.7115 123.543C48.9195 123.881 49.2011 124.145 49.5565 124.336C49.9205 124.527 50.3321 124.622 50.7915 124.622ZM56.3221 122.971V121.892H59.8191V122.971H56.3221ZM64.8186 126.078C64.1252 126.078 63.5099 125.926 62.9726 125.623C62.4352 125.32 62.0106 124.904 61.6986 124.375C61.3866 123.838 61.2306 123.231 61.2306 122.555C61.2306 121.87 61.3866 121.264 61.6986 120.735C62.0106 120.206 62.4352 119.795 62.9726 119.5C63.5099 119.197 64.1252 119.045 64.8186 119.045C65.5032 119.045 66.1142 119.197 66.6516 119.5C67.1976 119.795 67.6222 120.206 67.9256 120.735C68.2376 121.255 68.3936 121.862 68.3936 122.555C68.3936 123.24 68.2376 123.846 67.9256 124.375C67.6222 124.904 67.1976 125.32 66.6516 125.623C66.1142 125.926 65.5032 126.078 64.8186 126.078ZM64.8186 124.986C65.2606 124.986 65.6549 124.886 66.0016 124.687C66.3569 124.488 66.6342 124.206 66.8336 123.842C67.0329 123.469 67.1326 123.04 67.1326 122.555C67.1326 122.061 67.0329 121.636 66.8336 121.281C66.6342 120.917 66.3569 120.635 66.0016 120.436C65.6549 120.237 65.2606 120.137 64.8186 120.137C64.3766 120.137 63.9822 120.237 63.6356 120.436C63.2889 120.635 63.0116 120.917 62.8036 121.281C62.5956 121.636 62.4916 122.061 62.4916 122.555C62.4916 123.04 62.5956 123.469 62.8036 123.842C63.0116 124.206 63.2889 124.488 63.6356 124.687C63.9822 124.886 64.3766 124.986 64.8186 124.986ZM70.1195 126V119.11H71.3155V120.982L71.1985 120.514C71.3892 120.037 71.7099 119.673 72.1605 119.422C72.6112 119.171 73.1659 119.045 73.8245 119.045V120.254C73.7725 120.245 73.7205 120.241 73.6685 120.241C73.6252 120.241 73.5819 120.241 73.5385 120.241C72.8712 120.241 72.3425 120.44 71.9525 120.839C71.5625 121.238 71.3675 121.814 71.3675 122.568V126H70.1195ZM79.1319 126V124.544L79.0669 124.271V121.788C79.0669 121.259 78.9109 120.852 78.5989 120.566C78.2955 120.271 77.8362 120.124 77.2209 120.124C76.8135 120.124 76.4149 120.193 76.0249 120.332C75.6349 120.462 75.3055 120.64 75.0369 120.865L74.5169 119.929C74.8722 119.643 75.2969 119.426 75.7909 119.279C76.2935 119.123 76.8179 119.045 77.3639 119.045C78.3085 119.045 79.0365 119.275 79.5479 119.734C80.0592 120.193 80.3149 120.895 80.3149 121.84V126H79.1319ZM76.8699 126.078C76.3585 126.078 75.9079 125.991 75.5179 125.818C75.1365 125.645 74.8419 125.406 74.6339 125.103C74.4259 124.791 74.3219 124.44 74.3219 124.05C74.3219 123.677 74.4085 123.339 74.5819 123.036C74.7639 122.733 75.0542 122.49 75.4529 122.308C75.8602 122.126 76.4062 122.035 77.0909 122.035H79.2749V122.932H77.1429C76.5189 122.932 76.0985 123.036 75.8819 123.244C75.6652 123.452 75.5569 123.703 75.5569 123.998C75.5569 124.336 75.6912 124.609 75.9599 124.817C76.2285 125.016 76.6012 125.116 77.0779 125.116C77.5459 125.116 77.9532 125.012 78.2999 124.804C78.6552 124.596 78.9109 124.293 79.0669 123.894L79.3139 124.752C79.1492 125.159 78.8589 125.484 78.4429 125.727C78.0269 125.961 77.5025 126.078 76.8699 126.078ZM86.3034 119.045C86.8667 119.045 87.3607 119.153 87.7854 119.37C88.2187 119.587 88.5567 119.916 88.7994 120.358C89.0421 120.8 89.1634 121.359 89.1634 122.035V126H87.9154V122.178C87.9154 121.511 87.7507 121.008 87.4214 120.67C87.1007 120.332 86.6457 120.163 86.0564 120.163C85.6144 120.163 85.2287 120.25 84.8994 120.423C84.5701 120.596 84.3144 120.852 84.1324 121.19C83.9591 121.528 83.8724 121.948 83.8724 122.451V126H82.6244V119.11H83.8204V120.969L83.6254 120.475C83.8507 120.024 84.1974 119.673 84.6654 119.422C85.1334 119.171 85.6794 119.045 86.3034 119.045ZM94.489 128.6C93.8564 128.6 93.241 128.509 92.643 128.327C92.0537 128.154 91.5727 127.902 91.2 127.573L91.798 126.611C92.1187 126.888 92.513 127.105 92.981 127.261C93.449 127.426 93.9387 127.508 94.45 127.508C95.2647 127.508 95.8627 127.317 96.244 126.936C96.6254 126.555 96.816 125.974 96.816 125.194V123.738L96.946 122.373L96.881 120.995V119.11H98.064V125.064C98.064 126.277 97.7607 127.17 97.154 127.742C96.5474 128.314 95.659 128.6 94.489 128.6ZM94.333 125.714C93.6657 125.714 93.0677 125.575 92.539 125.298C92.019 125.012 91.603 124.618 91.291 124.115C90.9877 123.612 90.836 123.032 90.836 122.373C90.836 121.706 90.9877 121.125 91.291 120.631C91.603 120.128 92.019 119.738 92.539 119.461C93.0677 119.184 93.6657 119.045 94.333 119.045C94.9224 119.045 95.4597 119.166 95.945 119.409C96.4304 119.643 96.816 120.007 97.102 120.501C97.3967 120.995 97.544 121.619 97.544 122.373C97.544 123.118 97.3967 123.738 97.102 124.232C96.816 124.726 96.4304 125.099 95.945 125.35C95.4597 125.593 94.9224 125.714 94.333 125.714ZM94.476 124.622C94.9354 124.622 95.3427 124.527 95.698 124.336C96.0534 124.145 96.3307 123.881 96.53 123.543C96.738 123.205 96.842 122.815 96.842 122.373C96.842 121.931 96.738 121.541 96.53 121.203C96.3307 120.865 96.0534 120.605 95.698 120.423C95.3427 120.232 94.9354 120.137 94.476 120.137C94.0167 120.137 93.605 120.232 93.241 120.423C92.8857 120.605 92.604 120.865 92.396 121.203C92.1967 121.541 92.097 121.931 92.097 122.373C92.097 122.815 92.1967 123.205 92.396 123.543C92.604 123.881 92.8857 124.145 93.241 124.336C93.605 124.527 94.0167 124.622 94.476 124.622ZM106.787 126.078C106.12 126.078 105.522 125.931 104.993 125.636C104.473 125.341 104.061 124.93 103.758 124.401C103.455 123.872 103.303 123.257 103.303 122.555C103.303 121.853 103.455 121.242 103.758 120.722C104.061 120.193 104.473 119.782 104.993 119.487C105.522 119.192 106.12 119.045 106.787 119.045C107.368 119.045 107.892 119.175 108.36 119.435C108.828 119.695 109.201 120.085 109.478 120.605C109.764 121.125 109.907 121.775 109.907 122.555C109.907 123.335 109.768 123.985 109.491 124.505C109.222 125.025 108.854 125.419 108.386 125.688C107.918 125.948 107.385 126.078 106.787 126.078ZM106.891 124.986C107.324 124.986 107.714 124.886 108.061 124.687C108.416 124.488 108.694 124.206 108.893 123.842C109.101 123.469 109.205 123.04 109.205 122.555C109.205 122.061 109.101 121.636 108.893 121.281C108.694 120.917 108.416 120.635 108.061 120.436C107.714 120.237 107.324 120.137 106.891 120.137C106.449 120.137 106.055 120.237 105.708 120.436C105.361 120.635 105.084 120.917 104.876 121.281C104.668 121.636 104.564 122.061 104.564 122.555C104.564 123.04 104.668 123.469 104.876 123.842C105.084 124.206 105.361 124.488 105.708 124.687C106.055 124.886 106.449 124.986 106.891 124.986ZM109.244 126V124.141L109.322 122.542L109.192 120.943V116.354H110.44V126H109.244ZM112.801 126V119.11H114.049V126H112.801ZM113.425 117.784C113.182 117.784 112.979 117.706 112.814 117.55C112.658 117.394 112.58 117.203 112.58 116.978C112.58 116.744 112.658 116.549 112.814 116.393C112.979 116.237 113.182 116.159 113.425 116.159C113.668 116.159 113.867 116.237 114.023 116.393C114.188 116.54 114.27 116.727 114.27 116.952C114.27 117.186 114.192 117.385 114.036 117.55C113.88 117.706 113.676 117.784 113.425 117.784ZM121.899 126.078C121.327 126.078 120.781 126 120.261 125.844C119.75 125.688 119.347 125.497 119.052 125.272L119.572 124.284C119.867 124.483 120.231 124.652 120.664 124.791C121.098 124.93 121.54 124.999 121.99 124.999C122.571 124.999 122.987 124.917 123.238 124.752C123.498 124.587 123.628 124.358 123.628 124.063C123.628 123.846 123.55 123.677 123.394 123.556C123.238 123.435 123.03 123.344 122.77 123.283C122.519 123.222 122.237 123.17 121.925 123.127C121.613 123.075 121.301 123.014 120.989 122.945C120.677 122.867 120.391 122.763 120.131 122.633C119.871 122.494 119.663 122.308 119.507 122.074C119.351 121.831 119.273 121.511 119.273 121.112C119.273 120.696 119.39 120.332 119.624 120.02C119.858 119.708 120.188 119.47 120.612 119.305C121.046 119.132 121.557 119.045 122.146 119.045C122.597 119.045 123.052 119.101 123.511 119.214C123.979 119.318 124.361 119.47 124.655 119.669L124.122 120.657C123.81 120.449 123.485 120.306 123.147 120.228C122.809 120.15 122.471 120.111 122.133 120.111C121.587 120.111 121.18 120.202 120.911 120.384C120.643 120.557 120.508 120.783 120.508 121.06C120.508 121.294 120.586 121.476 120.742 121.606C120.907 121.727 121.115 121.823 121.366 121.892C121.626 121.961 121.912 122.022 122.224 122.074C122.536 122.117 122.848 122.178 123.16 122.256C123.472 122.325 123.754 122.425 124.005 122.555C124.265 122.685 124.473 122.867 124.629 123.101C124.794 123.335 124.876 123.647 124.876 124.037C124.876 124.453 124.755 124.813 124.512 125.116C124.27 125.419 123.927 125.658 123.485 125.831C123.043 125.996 122.515 126.078 121.899 126.078ZM129.504 126.078C128.767 126.078 128.117 125.926 127.554 125.623C126.999 125.32 126.566 124.904 126.254 124.375C125.951 123.846 125.799 123.24 125.799 122.555C125.799 121.87 125.946 121.264 126.241 120.735C126.544 120.206 126.956 119.795 127.476 119.5C128.005 119.197 128.598 119.045 129.257 119.045C129.924 119.045 130.514 119.192 131.025 119.487C131.536 119.782 131.935 120.198 132.221 120.735C132.516 121.264 132.663 121.883 132.663 122.594C132.663 122.646 132.659 122.707 132.65 122.776C132.65 122.845 132.646 122.91 132.637 122.971H126.774V122.074H131.987L131.48 122.386C131.489 121.944 131.398 121.55 131.207 121.203C131.016 120.856 130.752 120.588 130.414 120.397C130.085 120.198 129.699 120.098 129.257 120.098C128.824 120.098 128.438 120.198 128.1 120.397C127.762 120.588 127.498 120.861 127.307 121.216C127.116 121.563 127.021 121.961 127.021 122.412V122.62C127.021 123.079 127.125 123.491 127.333 123.855C127.55 124.21 127.849 124.488 128.23 124.687C128.611 124.886 129.049 124.986 129.543 124.986C129.95 124.986 130.319 124.917 130.648 124.778C130.986 124.639 131.281 124.431 131.532 124.154L132.221 124.96C131.909 125.324 131.519 125.601 131.051 125.792C130.592 125.983 130.076 126.078 129.504 126.078ZM135.41 124.336L135.436 122.737L139.401 119.11H140.909L137.867 122.1L137.191 122.672L135.41 124.336ZM134.396 126V116.354H135.644V126H134.396ZM139.661 126L136.957 122.646L137.763 121.645L141.195 126H139.661ZM142.407 126V119.11H143.655V126H142.407ZM143.031 117.784C142.788 117.784 142.584 117.706 142.42 117.55C142.264 117.394 142.186 117.203 142.186 116.978C142.186 116.744 142.264 116.549 142.42 116.393C142.584 116.237 142.788 116.159 143.031 116.159C143.273 116.159 143.473 116.237 143.629 116.393C143.793 116.54 143.876 116.727 143.876 116.952C143.876 117.186 143.798 117.385 143.642 117.55C143.486 117.706 143.282 117.784 143.031 117.784ZM148.403 126.078C147.71 126.078 147.173 125.892 146.791 125.519C146.41 125.146 146.219 124.613 146.219 123.92V117.602H147.467V123.868C147.467 124.241 147.558 124.527 147.74 124.726C147.931 124.925 148.2 125.025 148.546 125.025C148.936 125.025 149.261 124.917 149.521 124.7L149.911 125.597C149.721 125.762 149.491 125.883 149.222 125.961C148.962 126.039 148.689 126.078 148.403 126.078ZM145.049 120.137V119.11H149.443V120.137H145.049ZM155.697 126V124.544L155.632 124.271V121.788C155.632 121.259 155.476 120.852 155.164 120.566C154.861 120.271 154.402 120.124 153.786 120.124C153.379 120.124 152.98 120.193 152.59 120.332C152.2 120.462 151.871 120.64 151.602 120.865L151.082 119.929C151.438 119.643 151.862 119.426 152.356 119.279C152.859 119.123 153.383 119.045 153.929 119.045C154.874 119.045 155.602 119.275 156.113 119.734C156.625 120.193 156.88 120.895 156.88 121.84V126H155.697ZM153.435 126.078C152.924 126.078 152.473 125.991 152.083 125.818C151.702 125.645 151.407 125.406 151.199 125.103C150.991 124.791 150.887 124.44 150.887 124.05C150.887 123.677 150.974 123.339 151.147 123.036C151.329 122.733 151.62 122.49 152.018 122.308C152.426 122.126 152.972 122.035 153.656 122.035H155.84V122.932H153.708C153.084 122.932 152.664 123.036 152.447 123.244C152.231 123.452 152.122 123.703 152.122 123.998C152.122 124.336 152.257 124.609 152.525 124.817C152.794 125.016 153.167 125.116 153.643 125.116C154.111 125.116 154.519 125.012 154.865 124.804C155.221 124.596 155.476 124.293 155.632 123.894L155.879 124.752C155.715 125.159 155.424 125.484 155.008 125.727C154.592 125.961 154.068 126.078 153.435 126.078ZM159.19 126V119.11H160.386V120.982L160.269 120.514C160.46 120.037 160.78 119.673 161.231 119.422C161.682 119.171 162.236 119.045 162.895 119.045V120.254C162.843 120.245 162.791 120.241 162.739 120.241C162.696 120.241 162.652 120.241 162.609 120.241C161.942 120.241 161.413 120.44 161.023 120.839C160.633 121.238 160.438 121.814 160.438 122.568V126H159.19ZM164.694 126.078C164.451 126.078 164.243 125.996 164.07 125.831C163.897 125.658 163.81 125.441 163.81 125.181C163.81 124.921 163.897 124.709 164.07 124.544C164.243 124.379 164.451 124.297 164.694 124.297C164.928 124.297 165.127 124.379 165.292 124.544C165.465 124.709 165.552 124.921 165.552 125.181C165.552 125.441 165.465 125.658 165.292 125.831C165.127 125.996 164.928 126.078 164.694 126.078Z" fill="white" fill-opacity="0.8"/>
<circle cx="37" cy="36" r="20" fill="white" fill-opacity="0.1"/>
<path d="M44.965 32.521C44.988 32.347 45 32.173 45 32C45 29.621 42.857 27.712 40.479 28.035C39.786 26.802 38.466 26 37 26C35.534 26 34.214 26.802 33.521 28.035C31.138 27.712 29 29.621 29 32C29 32.173 29.012 32.347 29.035 32.521C27.802 33.215 27 34.535 27 36C27 37.465 27.802 38.785 29.035 39.479C29.0119 39.6517 29.0002 39.8258 29 40C29 42.379 31.138 44.283 33.521 43.965C34.214 45.198 35.534 46 37 46C38.466 46 39.786 45.198 40.479 43.965C42.857 44.283 45 42.379 45 40C45 39.827 44.988 39.653 44.965 39.479C46.198 38.785 47 37.465 47 36C47 34.535 46.198 33.215 44.965 32.521ZM35.955 40.416L32.288 36.702L33.712 35.298L35.969 37.584L40.296 33.29L41.704 34.71L35.955 40.416Z" fill="white" fill-opacity="0.5"/>
</svg>
