<svg width="300" height="160" viewBox="0 0 300 160" fill="none" xmlns="http://www.w3.org/2000/svg">
<rect width="300" height="160" rx="10" fill="#0C0E12"/>
<rect x="1" y="1" width="298" height="158" rx="9" stroke="white" stroke-opacity="0.07" stroke-width="2"/>
<path d="M73.88 43V29H76.02L82.14 39.22H81.02L87.04 29H89.18L89.2 43H86.74L86.72 32.86H87.24L82.12 41.4H80.96L75.76 32.86H76.36V43H73.88ZM97.2616 43.14C96.3549 43.14 95.5549 42.9733 94.8616 42.64C94.1682 42.2933 93.6282 41.7733 93.2416 41.08C92.8549 40.3733 92.6616 39.4867 92.6616 38.42V32.32H95.1616V38.08C95.1616 39.04 95.3749 39.76 95.8016 40.24C96.2416 40.7067 96.8616 40.94 97.6616 40.94C98.2482 40.94 98.7549 40.82 99.1816 40.58C99.6216 40.34 99.9616 39.98 100.202 39.5C100.455 39.02 100.582 38.4267 100.582 37.72V32.32H103.082V43H100.702V40.12L101.122 41C100.762 41.6933 100.235 42.2267 99.5416 42.6C98.8482 42.96 98.0882 43.14 97.2616 43.14ZM106.355 43V28.16H108.855V43H106.355ZM116.683 43.14C115.51 43.14 114.603 42.84 113.963 42.24C113.323 41.6267 113.003 40.7267 113.003 39.54V29.96H115.503V39.48C115.503 39.9867 115.63 40.38 115.883 40.66C116.15 40.94 116.517 41.08 116.983 41.08C117.543 41.08 118.01 40.9333 118.383 40.64L119.083 42.42C118.79 42.66 118.43 42.84 118.003 42.96C117.577 43.08 117.137 43.14 116.683 43.14ZM111.243 34.4V32.4H118.363V34.4H111.243ZM121.14 43V32.32H123.64V43H121.14ZM122.4 30.56C121.933 30.56 121.547 30.4133 121.24 30.12C120.947 29.8267 120.8 29.4733 120.8 29.06C120.8 28.6333 120.947 28.28 121.24 28C121.547 27.7067 121.933 27.56 122.4 27.56C122.867 27.56 123.247 27.7 123.54 27.98C123.847 28.2467 124 28.5867 124 29C124 29.44 123.853 29.8133 123.56 30.12C123.267 30.4133 122.88 30.56 122.4 30.56ZM131.909 38.48V36.4H137.409V38.48H131.909ZM145.911 43V29H151.671C152.911 29 153.971 29.2 154.851 29.6C155.745 30 156.431 30.5733 156.911 31.32C157.391 32.0667 157.631 32.9533 157.631 33.98C157.631 35.0067 157.391 35.8933 156.911 36.64C156.431 37.3867 155.745 37.96 154.851 38.36C153.971 38.76 152.911 38.96 151.671 38.96H147.351L148.511 37.74V43H145.911ZM148.511 38.02L147.351 36.76H151.551C152.698 36.76 153.558 36.52 154.131 36.04C154.718 35.5467 155.011 34.86 155.011 33.98C155.011 33.0867 154.718 32.4 154.131 31.92C153.558 31.44 152.698 31.2 151.551 31.2H147.351L148.511 29.92V38.02ZM160.183 43V28.16H162.683V43H160.183ZM172.544 43V40.84L172.404 40.38V36.6C172.404 35.8667 172.184 35.3 171.744 34.9C171.304 34.4867 170.638 34.28 169.744 34.28C169.144 34.28 168.551 34.3733 167.964 34.56C167.391 34.7467 166.904 35.0067 166.504 35.34L165.524 33.52C166.098 33.08 166.778 32.7533 167.564 32.54C168.364 32.3133 169.191 32.2 170.044 32.2C171.591 32.2 172.784 32.5733 173.624 33.32C174.478 34.0533 174.904 35.1933 174.904 36.74V43H172.544ZM169.184 43.14C168.384 43.14 167.684 43.0067 167.084 42.74C166.484 42.46 166.018 42.08 165.684 41.6C165.364 41.1067 165.204 40.5533 165.204 39.94C165.204 39.34 165.344 38.8 165.624 38.32C165.918 37.84 166.391 37.46 167.044 37.18C167.698 36.9 168.564 36.76 169.644 36.76H172.744V38.42H169.824C168.971 38.42 168.398 38.56 168.104 38.84C167.811 39.1067 167.664 39.44 167.664 39.84C167.664 40.2933 167.844 40.6533 168.204 40.92C168.564 41.1867 169.064 41.32 169.704 41.32C170.318 41.32 170.864 41.18 171.344 40.9C171.838 40.62 172.191 40.2067 172.404 39.66L172.824 41.16C172.584 41.7867 172.151 42.2733 171.524 42.62C170.911 42.9667 170.131 43.14 169.184 43.14ZM182.133 43.14C180.959 43.14 180.053 42.84 179.413 42.24C178.773 41.6267 178.453 40.7267 178.453 39.54V29.96H180.953V39.48C180.953 39.9867 181.079 40.38 181.333 40.66C181.599 40.94 181.966 41.08 182.433 41.08C182.993 41.08 183.459 40.9333 183.833 40.64L184.533 42.42C184.239 42.66 183.879 42.84 183.453 42.96C183.026 43.08 182.586 43.14 182.133 43.14ZM176.693 34.4V32.4H183.813V34.4H176.693ZM186.929 43V31.72C186.929 30.6 187.256 29.7067 187.909 29.04C188.576 28.36 189.523 28.02 190.749 28.02C191.189 28.02 191.603 28.0667 191.989 28.16C192.389 28.2533 192.723 28.4 192.989 28.6L192.309 30.48C192.123 30.3333 191.909 30.2267 191.669 30.16C191.429 30.08 191.183 30.04 190.929 30.04C190.409 30.04 190.016 30.1867 189.749 30.48C189.483 30.76 189.349 31.1867 189.349 31.76V32.96L189.429 34.08V43H186.929ZM185.169 34.4V32.4H192.289V34.4H185.169ZM198.616 43.14C197.522 43.14 196.549 42.9067 195.696 42.44C194.842 41.96 194.169 41.3067 193.676 40.48C193.182 39.6533 192.936 38.7133 192.936 37.66C192.936 36.5933 193.182 35.6533 193.676 34.84C194.169 34.0133 194.842 33.3667 195.696 32.9C196.549 32.4333 197.522 32.2 198.616 32.2C199.722 32.2 200.702 32.4333 201.556 32.9C202.422 33.3667 203.096 34.0067 203.576 34.82C204.069 35.6333 204.316 36.58 204.316 37.66C204.316 38.7133 204.069 39.6533 203.576 40.48C203.096 41.3067 202.422 41.96 201.556 42.44C200.702 42.9067 199.722 43.14 198.616 43.14ZM198.616 41C199.229 41 199.776 40.8667 200.256 40.6C200.736 40.3333 201.109 39.9467 201.376 39.44C201.656 38.9333 201.796 38.34 201.796 37.66C201.796 36.9667 201.656 36.3733 201.376 35.88C201.109 35.3733 200.736 34.9867 200.256 34.72C199.776 34.4533 199.236 34.32 198.636 34.32C198.022 34.32 197.476 34.4533 196.996 34.72C196.529 34.9867 196.156 35.3733 195.876 35.88C195.596 36.3733 195.456 36.9667 195.456 37.66C195.456 38.34 195.596 38.9333 195.876 39.44C196.156 39.9467 196.529 40.3333 196.996 40.6C197.476 40.8667 198.016 41 198.616 41ZM206.706 43V32.32H209.086V35.26L208.806 34.4C209.126 33.68 209.626 33.1333 210.306 32.76C211 32.3867 211.86 32.2 212.886 32.2V34.58C212.78 34.5533 212.68 34.54 212.586 34.54C212.493 34.5267 212.4 34.52 212.306 34.52C211.36 34.52 210.606 34.8 210.046 35.36C209.486 35.9067 209.206 36.7267 209.206 37.82V43H206.706ZM228.487 32.2C229.341 32.2 230.094 32.3667 230.747 32.7C231.414 33.0333 231.934 33.5467 232.307 34.24C232.681 34.92 232.867 35.8 232.867 36.88V43H230.367V37.2C230.367 36.2533 230.161 35.5467 229.747 35.08C229.334 34.6133 228.741 34.38 227.967 34.38C227.421 34.38 226.934 34.5 226.507 34.74C226.094 34.98 225.767 35.3333 225.527 35.8C225.301 36.2667 225.187 36.86 225.187 37.58V43H222.687V37.2C222.687 36.2533 222.481 35.5467 222.067 35.08C221.654 34.6133 221.061 34.38 220.287 34.38C219.741 34.38 219.254 34.5 218.827 34.74C218.414 34.98 218.087 35.3333 217.847 35.8C217.621 36.2667 217.507 36.86 217.507 37.58V43H215.007V32.32H217.387V35.16L216.967 34.32C217.327 33.6267 217.847 33.1 218.527 32.74C219.221 32.38 220.007 32.2 220.887 32.2C221.887 32.2 222.754 32.4467 223.487 32.94C224.234 33.4333 224.727 34.18 224.967 35.18L223.987 34.84C224.334 34.04 224.907 33.4 225.707 32.92C226.507 32.44 227.434 32.2 228.487 32.2Z" fill="white"/>
<path d="M21.017 84.104C20.3237 84.104 19.6607 84 19.028 83.792C18.3953 83.5753 17.897 83.298 17.533 82.96L18.014 81.946C18.3607 82.2493 18.8027 82.5007 19.34 82.7C19.8773 82.8993 20.4363 82.999 21.017 82.999C21.5457 82.999 21.9747 82.9383 22.304 82.817C22.6333 82.6957 22.876 82.531 23.032 82.323C23.188 82.1063 23.266 81.8637 23.266 81.595C23.266 81.283 23.162 81.0317 22.954 80.841C22.7547 80.6503 22.4903 80.4987 22.161 80.386C21.8403 80.2647 21.485 80.1607 21.095 80.074C20.705 79.9873 20.3107 79.8877 19.912 79.775C19.522 79.6537 19.1623 79.502 18.833 79.32C18.5123 79.138 18.2523 78.8953 18.053 78.592C17.8537 78.28 17.754 77.8813 17.754 77.396C17.754 76.928 17.8753 76.499 18.118 76.109C18.3693 75.7103 18.7507 75.394 19.262 75.16C19.782 74.9173 20.4407 74.796 21.238 74.796C21.7667 74.796 22.291 74.8653 22.811 75.004C23.331 75.1427 23.7817 75.342 24.163 75.602L23.734 76.642C23.344 76.382 22.9323 76.1957 22.499 76.083C22.0657 75.9617 21.6453 75.901 21.238 75.901C20.7267 75.901 20.3063 75.966 19.977 76.096C19.6477 76.226 19.405 76.3993 19.249 76.616C19.1017 76.8327 19.028 77.0753 19.028 77.344C19.028 77.6647 19.1277 77.9203 19.327 78.111C19.535 78.3017 19.7993 78.4533 20.12 78.566C20.4493 78.6787 20.809 78.7827 21.199 78.878C21.589 78.9647 21.979 79.0643 22.369 79.177C22.7677 79.2897 23.1273 79.437 23.448 79.619C23.7773 79.801 24.0417 80.0437 24.241 80.347C24.4403 80.6503 24.54 81.0403 24.54 81.517C24.54 81.9763 24.4143 82.4053 24.163 82.804C23.9117 83.194 23.5217 83.5103 22.993 83.753C22.473 83.987 21.8143 84.104 21.017 84.104ZM29.3252 84.078C28.5886 84.078 27.9386 83.9263 27.3752 83.623C26.8206 83.3197 26.3872 82.9037 26.0752 82.375C25.7719 81.8463 25.6202 81.2397 25.6202 80.555C25.6202 79.8703 25.7676 79.2637 26.0622 78.735C26.3656 78.2063 26.7772 77.7947 27.2972 77.5C27.8259 77.1967 28.4196 77.045 29.0782 77.045C29.7456 77.045 30.3349 77.1923 30.8462 77.487C31.3576 77.7817 31.7562 78.1977 32.0422 78.735C32.3369 79.2637 32.4842 79.8833 32.4842 80.594C32.4842 80.646 32.4799 80.7067 32.4712 80.776C32.4712 80.8453 32.4669 80.9103 32.4582 80.971H26.5952V80.074H31.8082L31.3012 80.386C31.3099 79.944 31.2189 79.5497 31.0282 79.203C30.8376 78.8563 30.5732 78.5877 30.2352 78.397C29.9059 78.1977 29.5202 78.098 29.0782 78.098C28.6449 78.098 28.2592 78.1977 27.9212 78.397C27.5832 78.5877 27.3189 78.8607 27.1282 79.216C26.9376 79.5627 26.8422 79.9613 26.8422 80.412V80.62C26.8422 81.0793 26.9462 81.491 27.1542 81.855C27.3709 82.2103 27.6699 82.4877 28.0512 82.687C28.4326 82.8863 28.8702 82.986 29.3642 82.986C29.7716 82.986 30.1399 82.9167 30.4692 82.778C30.8072 82.6393 31.1019 82.4313 31.3532 82.154L32.0422 82.96C31.7302 83.324 31.3402 83.6013 30.8722 83.792C30.4129 83.9827 29.8972 84.078 29.3252 84.078ZM37.8962 77.045C38.4595 77.045 38.9535 77.1533 39.3782 77.37C39.8115 77.5867 40.1495 77.916 40.3922 78.358C40.6348 78.8 40.7562 79.359 40.7562 80.035V84H39.5082V80.178C39.5082 79.5107 39.3435 79.008 39.0142 78.67C38.6935 78.332 38.2385 78.163 37.6492 78.163C37.2072 78.163 36.8215 78.2497 36.4922 78.423C36.1628 78.5963 35.9072 78.852 35.7252 79.19C35.5518 79.528 35.4652 79.9483 35.4652 80.451V84H34.2172V77.11H35.4132V78.969L35.2182 78.475C35.4435 78.0243 35.7902 77.6733 36.2582 77.422C36.7262 77.1707 37.2722 77.045 37.8962 77.045ZM45.4318 84.078C44.7385 84.078 44.2011 83.8917 43.8198 83.519C43.4385 83.1463 43.2478 82.6133 43.2478 81.92V75.602H44.4958V81.868C44.4958 82.2407 44.5868 82.5267 44.7688 82.726C44.9595 82.9253 45.2281 83.025 45.5748 83.025C45.9648 83.025 46.2898 82.9167 46.5498 82.7L46.9398 83.597C46.7491 83.7617 46.5195 83.883 46.2508 83.961C45.9908 84.039 45.7178 84.078 45.4318 84.078ZM42.0778 78.137V77.11H46.4718V78.137H42.0778ZM48.4486 84V77.11H49.6446V78.982L49.5276 78.514C49.7183 78.0373 50.039 77.6733 50.4896 77.422C50.9403 77.1707 51.495 77.045 52.1536 77.045V78.254C52.1016 78.2453 52.0496 78.241 51.9976 78.241C51.9543 78.241 51.911 78.241 51.8676 78.241C51.2003 78.241 50.6716 78.4403 50.2816 78.839C49.8916 79.2377 49.6966 79.814 49.6966 80.568V84H48.4486ZM57.461 84V82.544L57.396 82.271V79.788C57.396 79.2593 57.24 78.852 56.928 78.566C56.6246 78.2713 56.1653 78.124 55.55 78.124C55.1426 78.124 54.744 78.1933 54.354 78.332C53.964 78.462 53.6346 78.6397 53.366 78.865L52.846 77.929C53.2013 77.643 53.626 77.4263 54.12 77.279C54.6226 77.123 55.147 77.045 55.693 77.045C56.6376 77.045 57.3656 77.2747 57.877 77.734C58.3883 78.1933 58.644 78.8953 58.644 79.84V84H57.461ZM55.199 84.078C54.6876 84.078 54.237 83.9913 53.847 83.818C53.4656 83.6447 53.171 83.4063 52.963 83.103C52.755 82.791 52.651 82.44 52.651 82.05C52.651 81.6773 52.7376 81.3393 52.911 81.036C53.093 80.7327 53.3833 80.49 53.782 80.308C54.1893 80.126 54.7353 80.035 55.42 80.035H57.604V80.932H55.472C54.848 80.932 54.4276 81.036 54.211 81.244C53.9943 81.452 53.886 81.7033 53.886 81.998C53.886 82.336 54.0203 82.609 54.289 82.817C54.5576 83.0163 54.9303 83.116 55.407 83.116C55.875 83.116 56.2823 83.012 56.629 82.804C56.9843 82.596 57.24 82.2927 57.396 81.894L57.643 82.752C57.4783 83.1593 57.188 83.4843 56.772 83.727C56.356 83.961 55.8316 84.078 55.199 84.078ZM64.6267 84V74.9H68.4617C69.4324 74.9 70.2861 75.0907 71.0227 75.472C71.7681 75.8533 72.3444 76.3863 72.7517 77.071C73.1677 77.7557 73.3757 78.5487 73.3757 79.45C73.3757 80.3513 73.1677 81.1443 72.7517 81.829C72.3444 82.5137 71.7681 83.0467 71.0227 83.428C70.2861 83.8093 69.4324 84 68.4617 84H64.6267ZM65.9267 82.869H68.3837C69.1377 82.869 69.7877 82.726 70.3337 82.44C70.8884 82.154 71.3174 81.7553 71.6207 81.244C71.9241 80.724 72.0757 80.126 72.0757 79.45C72.0757 78.7653 71.9241 78.1673 71.6207 77.656C71.3174 77.1447 70.8884 76.746 70.3337 76.46C69.7877 76.174 69.1377 76.031 68.3837 76.031H65.9267V82.869ZM79.462 84V82.544L79.397 82.271V79.788C79.397 79.2593 79.241 78.852 78.929 78.566C78.6256 78.2713 78.1663 78.124 77.551 78.124C77.1436 78.124 76.745 78.1933 76.355 78.332C75.965 78.462 75.6356 78.6397 75.367 78.865L74.847 77.929C75.2023 77.643 75.627 77.4263 76.121 77.279C76.6236 77.123 77.148 77.045 77.694 77.045C78.6386 77.045 79.3666 77.2747 79.878 77.734C80.3893 78.1933 80.645 78.8953 80.645 79.84V84H79.462ZM77.2 84.078C76.6886 84.078 76.238 83.9913 75.848 83.818C75.4666 83.6447 75.172 83.4063 74.964 83.103C74.756 82.791 74.652 82.44 74.652 82.05C74.652 81.6773 74.7386 81.3393 74.912 81.036C75.094 80.7327 75.3843 80.49 75.783 80.308C76.1903 80.126 76.7363 80.035 77.421 80.035H79.605V80.932H77.473C76.849 80.932 76.4286 81.036 76.212 81.244C75.9953 81.452 75.887 81.7033 75.887 81.998C75.887 82.336 76.0213 82.609 76.29 82.817C76.5586 83.0163 76.9313 83.116 77.408 83.116C77.876 83.116 78.2833 83.012 78.63 82.804C78.9853 82.596 79.241 82.2927 79.397 81.894L79.644 82.752C79.4793 83.1593 79.189 83.4843 78.773 83.727C78.357 83.961 77.8326 84.078 77.2 84.078ZM82.9545 84V77.11H84.1505V78.982L84.0335 78.514C84.2242 78.0373 84.5448 77.6733 84.9955 77.422C85.4462 77.1707 86.0008 77.045 86.6595 77.045V78.254C86.6075 78.2453 86.5555 78.241 86.5035 78.241C86.4602 78.241 86.4168 78.241 86.3735 78.241C85.7062 78.241 85.1775 78.4403 84.7875 78.839C84.3975 79.2377 84.2025 79.814 84.2025 80.568V84H82.9545ZM91.1855 84.078C90.5962 84.078 90.0762 83.9697 89.6255 83.753C89.1835 83.5363 88.8368 83.207 88.5855 82.765C88.3428 82.3143 88.2215 81.751 88.2215 81.075V77.11H89.4695V80.932C89.4695 81.608 89.6298 82.115 89.9505 82.453C90.2798 82.791 90.7392 82.96 91.3285 82.96C91.7618 82.96 92.1388 82.8733 92.4595 82.7C92.7802 82.518 93.0272 82.258 93.2005 81.92C93.3738 81.5733 93.4605 81.1573 93.4605 80.672V77.11H94.7085V84H93.5255V82.141L93.7205 82.635C93.4952 83.0943 93.1572 83.4497 92.7065 83.701C92.2558 83.9523 91.7488 84.078 91.1855 84.078ZM97.0844 84V77.11H98.2804V78.982L98.1634 78.514C98.354 78.0373 98.6747 77.6733 99.1254 77.422C99.576 77.1707 100.131 77.045 100.789 77.045V78.254C100.737 78.2453 100.685 78.241 100.633 78.241C100.59 78.241 100.547 78.241 100.503 78.241C99.836 78.241 99.3074 78.4403 98.9174 78.839C98.5274 79.2377 98.3324 79.814 98.3324 80.568V84H97.0844ZM106.097 84V82.544L106.032 82.271V79.788C106.032 79.2593 105.876 78.852 105.564 78.566C105.26 78.2713 104.801 78.124 104.186 78.124C103.778 78.124 103.38 78.1933 102.99 78.332C102.6 78.462 102.27 78.6397 102.002 78.865L101.482 77.929C101.837 77.643 102.262 77.4263 102.756 77.279C103.258 77.123 103.783 77.045 104.329 77.045C105.273 77.045 106.001 77.2747 106.513 77.734C107.024 78.1933 107.28 78.8953 107.28 79.84V84H106.097ZM103.835 84.078C103.323 84.078 102.873 83.9913 102.483 83.818C102.101 83.6447 101.807 83.4063 101.599 83.103C101.391 82.791 101.287 82.44 101.287 82.05C101.287 81.6773 101.373 81.3393 101.547 81.036C101.729 80.7327 102.019 80.49 102.418 80.308C102.825 80.126 103.371 80.035 104.056 80.035H106.24V80.932H104.108C103.484 80.932 103.063 81.036 102.847 81.244C102.63 81.452 102.522 81.7033 102.522 81.998C102.522 82.336 102.656 82.609 102.925 82.817C103.193 83.0163 103.566 83.116 104.043 83.116C104.511 83.116 104.918 83.012 105.265 82.804C105.62 82.596 105.876 82.2927 106.032 81.894L106.279 82.752C106.114 83.1593 105.824 83.4843 105.408 83.727C104.992 83.961 104.467 84.078 103.835 84.078ZM111.955 84.078C111.262 84.078 110.725 83.8917 110.343 83.519C109.962 83.1463 109.771 82.6133 109.771 81.92V75.602H111.019V81.868C111.019 82.2407 111.11 82.5267 111.292 82.726C111.483 82.9253 111.752 83.025 112.098 83.025C112.488 83.025 112.813 82.9167 113.073 82.7L113.463 83.597C113.273 83.7617 113.043 83.883 112.774 83.961C112.514 84.039 112.241 84.078 111.955 84.078ZM108.601 78.137V77.11H112.995V78.137H108.601ZM121.31 84.078C120.643 84.078 120.045 83.9307 119.516 83.636C118.996 83.3413 118.585 82.9297 118.281 82.401C117.978 81.8723 117.826 81.257 117.826 80.555C117.826 79.853 117.978 79.242 118.281 78.722C118.585 78.1933 118.996 77.7817 119.516 77.487C120.045 77.1923 120.643 77.045 121.31 77.045C121.891 77.045 122.415 77.175 122.883 77.435C123.351 77.695 123.724 78.085 124.001 78.605C124.287 79.125 124.43 79.775 124.43 80.555C124.43 81.335 124.292 81.985 124.014 82.505C123.746 83.025 123.377 83.4193 122.909 83.688C122.441 83.948 121.908 84.078 121.31 84.078ZM121.414 82.986C121.848 82.986 122.238 82.8863 122.584 82.687C122.94 82.4877 123.217 82.206 123.416 81.842C123.624 81.4693 123.728 81.0403 123.728 80.555C123.728 80.061 123.624 79.6363 123.416 79.281C123.217 78.917 122.94 78.6353 122.584 78.436C122.238 78.2367 121.848 78.137 121.414 78.137C120.972 78.137 120.578 78.2367 120.231 78.436C119.885 78.6353 119.607 78.917 119.399 79.281C119.191 79.6363 119.087 80.061 119.087 80.555C119.087 81.0403 119.191 81.4693 119.399 81.842C119.607 82.206 119.885 82.4877 120.231 82.687C120.578 82.8863 120.972 82.986 121.414 82.986ZM123.767 84V82.141L123.845 80.542L123.715 78.943V74.354H124.963V84H123.767ZM131.602 84V82.544L131.537 82.271V79.788C131.537 79.2593 131.381 78.852 131.069 78.566C130.765 78.2713 130.306 78.124 129.691 78.124C129.283 78.124 128.885 78.1933 128.495 78.332C128.105 78.462 127.775 78.6397 127.507 78.865L126.987 77.929C127.342 77.643 127.767 77.4263 128.261 77.279C128.763 77.123 129.288 77.045 129.834 77.045C130.778 77.045 131.506 77.2747 132.018 77.734C132.529 78.1933 132.785 78.8953 132.785 79.84V84H131.602ZM129.34 84.078C128.828 84.078 128.378 83.9913 127.988 83.818C127.606 83.6447 127.312 83.4063 127.104 83.103C126.896 82.791 126.792 82.44 126.792 82.05C126.792 81.6773 126.878 81.3393 127.052 81.036C127.234 80.7327 127.524 80.49 127.923 80.308C128.33 80.126 128.876 80.035 129.561 80.035H131.745V80.932H129.613C128.989 80.932 128.568 81.036 128.352 81.244C128.135 81.452 128.027 81.7033 128.027 81.998C128.027 82.336 128.161 82.609 128.43 82.817C128.698 83.0163 129.071 83.116 129.548 83.116C130.016 83.116 130.423 83.012 130.77 82.804C131.125 82.596 131.381 82.2927 131.537 81.894L131.784 82.752C131.619 83.1593 131.329 83.4843 130.913 83.727C130.497 83.961 129.972 84.078 129.34 84.078ZM138.747 84.078C138.175 84.078 137.651 83.948 137.174 83.688C136.706 83.4193 136.329 83.025 136.043 82.505C135.766 81.985 135.627 81.335 135.627 80.555C135.627 79.775 135.761 79.125 136.03 78.605C136.307 78.085 136.68 77.695 137.148 77.435C137.625 77.175 138.158 77.045 138.747 77.045C139.423 77.045 140.021 77.1923 140.541 77.487C141.061 77.7817 141.473 78.1933 141.776 78.722C142.079 79.242 142.231 79.853 142.231 80.555C142.231 81.257 142.079 81.8723 141.776 82.401C141.473 82.9297 141.061 83.3413 140.541 83.636C140.021 83.9307 139.423 84.078 138.747 84.078ZM135.094 86.522V77.11H136.29V78.969L136.212 80.568L136.342 82.167V86.522H135.094ZM138.643 82.986C139.085 82.986 139.479 82.8863 139.826 82.687C140.181 82.4877 140.459 82.206 140.658 81.842C140.866 81.4693 140.97 81.0403 140.97 80.555C140.97 80.061 140.866 79.6363 140.658 79.281C140.459 78.917 140.181 78.6353 139.826 78.436C139.479 78.2367 139.085 78.137 138.643 78.137C138.21 78.137 137.815 78.2367 137.46 78.436C137.113 78.6353 136.836 78.917 136.628 79.281C136.429 79.6363 136.329 80.061 136.329 80.555C136.329 81.0403 136.429 81.4693 136.628 81.842C136.836 82.206 137.113 82.4877 137.46 82.687C137.815 82.8863 138.21 82.986 138.643 82.986ZM148.169 84V82.544L148.104 82.271V79.788C148.104 79.2593 147.948 78.852 147.636 78.566C147.333 78.2713 146.873 78.124 146.258 78.124C145.851 78.124 145.452 78.1933 145.062 78.332C144.672 78.462 144.343 78.6397 144.074 78.865L143.554 77.929C143.909 77.643 144.334 77.4263 144.828 77.279C145.331 77.123 145.855 77.045 146.401 77.045C147.346 77.045 148.074 77.2747 148.585 77.734C149.096 78.1933 149.352 78.8953 149.352 79.84V84H148.169ZM145.907 84.078C145.396 84.078 144.945 83.9913 144.555 83.818C144.174 83.6447 143.879 83.4063 143.671 83.103C143.463 82.791 143.359 82.44 143.359 82.05C143.359 81.6773 143.446 81.3393 143.619 81.036C143.801 80.7327 144.091 80.49 144.49 80.308C144.897 80.126 145.443 80.035 146.128 80.035H148.312V80.932H146.18C145.556 80.932 145.136 81.036 144.919 81.244C144.702 81.452 144.594 81.7033 144.594 81.998C144.594 82.336 144.728 82.609 144.997 82.817C145.266 83.0163 145.638 83.116 146.115 83.116C146.583 83.116 146.99 83.012 147.337 82.804C147.692 82.596 147.948 82.2927 148.104 81.894L148.351 82.752C148.186 83.1593 147.896 83.4843 147.48 83.727C147.064 83.961 146.54 84.078 145.907 84.078ZM154.028 84.078C153.334 84.078 152.797 83.8917 152.416 83.519C152.034 83.1463 151.844 82.6133 151.844 81.92V75.602H153.092V81.868C153.092 82.2407 153.183 82.5267 153.365 82.726C153.555 82.9253 153.824 83.025 154.171 83.025C154.561 83.025 154.886 82.9167 155.146 82.7L155.536 83.597C155.345 83.7617 155.115 83.883 154.847 83.961C154.587 84.039 154.314 84.078 154.028 84.078ZM150.674 78.137V77.11H155.068V78.137H150.674ZM163.383 84.078C162.715 84.078 162.117 83.9307 161.589 83.636C161.069 83.3413 160.657 82.9297 160.354 82.401C160.05 81.8723 159.899 81.257 159.899 80.555C159.899 79.853 160.05 79.242 160.354 78.722C160.657 78.1933 161.069 77.7817 161.589 77.487C162.117 77.1923 162.715 77.045 163.383 77.045C163.963 77.045 164.488 77.175 164.956 77.435C165.424 77.695 165.796 78.085 166.074 78.605C166.36 79.125 166.503 79.775 166.503 80.555C166.503 81.335 166.364 81.985 166.087 82.505C165.818 83.025 165.45 83.4193 164.982 83.688C164.514 83.948 163.981 84.078 163.383 84.078ZM163.487 82.986C163.92 82.986 164.31 82.8863 164.657 82.687C165.012 82.4877 165.289 82.206 165.489 81.842C165.697 81.4693 165.801 81.0403 165.801 80.555C165.801 80.061 165.697 79.6363 165.489 79.281C165.289 78.917 165.012 78.6353 164.657 78.436C164.31 78.2367 163.92 78.137 163.487 78.137C163.045 78.137 162.65 78.2367 162.304 78.436C161.957 78.6353 161.68 78.917 161.472 79.281C161.264 79.6363 161.16 80.061 161.16 80.555C161.16 81.0403 161.264 81.4693 161.472 81.842C161.68 82.206 161.957 82.4877 162.304 82.687C162.65 82.8863 163.045 82.986 163.487 82.986ZM165.84 84V82.141L165.918 80.542L165.788 78.943V74.354H167.036V84H165.84ZM169.397 84V77.11H170.645V84H169.397ZM170.021 75.784C169.778 75.784 169.575 75.706 169.41 75.55C169.254 75.394 169.176 75.2033 169.176 74.978C169.176 74.744 169.254 74.549 169.41 74.393C169.575 74.237 169.778 74.159 170.021 74.159C170.264 74.159 170.463 74.237 170.619 74.393C170.784 74.5403 170.866 74.7267 170.866 74.952C170.866 75.186 170.788 75.3853 170.632 75.55C170.476 75.706 170.272 75.784 170.021 75.784ZM177.305 84V82.544L177.24 82.271V79.788C177.24 79.2593 177.084 78.852 176.772 78.566C176.468 78.2713 176.009 78.124 175.394 78.124C174.986 78.124 174.588 78.1933 174.198 78.332C173.808 78.462 173.478 78.6397 173.21 78.865L172.69 77.929C173.045 77.643 173.47 77.4263 173.964 77.279C174.466 77.123 174.991 77.045 175.537 77.045C176.481 77.045 177.209 77.2747 177.721 77.734C178.232 78.1933 178.488 78.8953 178.488 79.84V84H177.305ZM175.043 84.078C174.531 84.078 174.081 83.9913 173.691 83.818C173.309 83.6447 173.015 83.4063 172.807 83.103C172.599 82.791 172.495 82.44 172.495 82.05C172.495 81.6773 172.581 81.3393 172.755 81.036C172.937 80.7327 173.227 80.49 173.626 80.308C174.033 80.126 174.579 80.035 175.264 80.035H177.448V80.932H175.316C174.692 80.932 174.271 81.036 174.055 81.244C173.838 81.452 173.73 81.7033 173.73 81.998C173.73 82.336 173.864 82.609 174.133 82.817C174.401 83.0163 174.774 83.116 175.251 83.116C175.719 83.116 176.126 83.012 176.473 82.804C176.828 82.596 177.084 82.2927 177.24 81.894L177.487 82.752C177.322 83.1593 177.032 83.4843 176.616 83.727C176.2 83.961 175.675 84.078 175.043 84.078ZM181.811 82.336L181.837 80.737L185.802 77.11H187.31L184.268 80.1L183.592 80.672L181.811 82.336ZM180.797 84V74.354H182.045V84H180.797ZM186.062 84L183.358 80.646L184.164 79.645L187.596 84H186.062ZM190.568 84.078C189.996 84.078 189.45 84 188.93 83.844C188.419 83.688 188.016 83.4973 187.721 83.272L188.241 82.284C188.536 82.4833 188.9 82.6523 189.333 82.791C189.767 82.9297 190.209 82.999 190.659 82.999C191.24 82.999 191.656 82.9167 191.907 82.752C192.167 82.5873 192.297 82.3577 192.297 82.063C192.297 81.8463 192.219 81.6773 192.063 81.556C191.907 81.4347 191.699 81.3437 191.439 81.283C191.188 81.2223 190.906 81.1703 190.594 81.127C190.282 81.075 189.97 81.0143 189.658 80.945C189.346 80.867 189.06 80.763 188.8 80.633C188.54 80.4943 188.332 80.308 188.176 80.074C188.02 79.8313 187.942 79.5107 187.942 79.112C187.942 78.696 188.059 78.332 188.293 78.02C188.527 77.708 188.857 77.4697 189.281 77.305C189.715 77.1317 190.226 77.045 190.815 77.045C191.266 77.045 191.721 77.1013 192.18 77.214C192.648 77.318 193.03 77.4697 193.324 77.669L192.791 78.657C192.479 78.449 192.154 78.306 191.816 78.228C191.478 78.15 191.14 78.111 190.802 78.111C190.256 78.111 189.849 78.202 189.58 78.384C189.312 78.5573 189.177 78.7827 189.177 79.06C189.177 79.294 189.255 79.476 189.411 79.606C189.576 79.7273 189.784 79.8227 190.035 79.892C190.295 79.9613 190.581 80.022 190.893 80.074C191.205 80.1173 191.517 80.178 191.829 80.256C192.141 80.3253 192.423 80.425 192.674 80.555C192.934 80.685 193.142 80.867 193.298 81.101C193.463 81.335 193.545 81.647 193.545 82.037C193.545 82.453 193.424 82.8127 193.181 83.116C192.939 83.4193 192.596 83.6577 192.154 83.831C191.712 83.9957 191.184 84.078 190.568 84.078ZM198.173 84.078C197.436 84.078 196.786 83.9263 196.223 83.623C195.668 83.3197 195.235 82.9037 194.923 82.375C194.62 81.8463 194.468 81.2397 194.468 80.555C194.468 79.8703 194.615 79.2637 194.91 78.735C195.213 78.2063 195.625 77.7947 196.145 77.5C196.674 77.1967 197.267 77.045 197.926 77.045C198.593 77.045 199.183 77.1923 199.694 77.487C200.205 77.7817 200.604 78.1977 200.89 78.735C201.185 79.2637 201.332 79.8833 201.332 80.594C201.332 80.646 201.328 80.7067 201.319 80.776C201.319 80.8453 201.315 80.9103 201.306 80.971H195.443V80.074H200.656L200.149 80.386C200.158 79.944 200.067 79.5497 199.876 79.203C199.685 78.8563 199.421 78.5877 199.083 78.397C198.754 78.1977 198.368 78.098 197.926 78.098C197.493 78.098 197.107 78.1977 196.769 78.397C196.431 78.5877 196.167 78.8607 195.976 79.216C195.785 79.5627 195.69 79.9613 195.69 80.412V80.62C195.69 81.0793 195.794 81.491 196.002 81.855C196.219 82.2103 196.518 82.4877 196.899 82.687C197.28 82.8863 197.718 82.986 198.212 82.986C198.619 82.986 198.988 82.9167 199.317 82.778C199.655 82.6393 199.95 82.4313 200.201 82.154L200.89 82.96C200.578 83.324 200.188 83.6013 199.72 83.792C199.261 83.9827 198.745 84.078 198.173 84.078ZM205.041 84.078C204.469 84.078 203.923 84 203.403 83.844C202.892 83.688 202.489 83.4973 202.194 83.272L202.714 82.284C203.009 82.4833 203.373 82.6523 203.806 82.791C204.239 82.9297 204.681 82.999 205.132 82.999C205.713 82.999 206.129 82.9167 206.38 82.752C206.64 82.5873 206.77 82.3577 206.77 82.063C206.77 81.8463 206.692 81.6773 206.536 81.556C206.38 81.4347 206.172 81.3437 205.912 81.283C205.661 81.2223 205.379 81.1703 205.067 81.127C204.755 81.075 204.443 81.0143 204.131 80.945C203.819 80.867 203.533 80.763 203.273 80.633C203.013 80.4943 202.805 80.308 202.649 80.074C202.493 79.8313 202.415 79.5107 202.415 79.112C202.415 78.696 202.532 78.332 202.766 78.02C203 77.708 203.329 77.4697 203.754 77.305C204.187 77.1317 204.699 77.045 205.288 77.045C205.739 77.045 206.194 77.1013 206.653 77.214C207.121 77.318 207.502 77.4697 207.797 77.669L207.264 78.657C206.952 78.449 206.627 78.306 206.289 78.228C205.951 78.15 205.613 78.111 205.275 78.111C204.729 78.111 204.322 78.202 204.053 78.384C203.784 78.5573 203.65 78.7827 203.65 79.06C203.65 79.294 203.728 79.476 203.884 79.606C204.049 79.7273 204.257 79.8227 204.508 79.892C204.768 79.9613 205.054 80.022 205.366 80.074C205.678 80.1173 205.99 80.178 206.302 80.256C206.614 80.3253 206.896 80.425 207.147 80.555C207.407 80.685 207.615 80.867 207.771 81.101C207.936 81.335 208.018 81.647 208.018 82.037C208.018 82.453 207.897 82.8127 207.654 83.116C207.411 83.4193 207.069 83.6577 206.627 83.831C206.185 83.9957 205.656 84.078 205.041 84.078ZM221.688 77.045C222.242 77.045 222.732 77.1533 223.157 77.37C223.581 77.5867 223.911 77.916 224.145 78.358C224.387 78.8 224.509 79.359 224.509 80.035V84H223.261V80.178C223.261 79.5107 223.105 79.008 222.793 78.67C222.481 78.332 222.043 78.163 221.48 78.163C221.064 78.163 220.7 78.2497 220.388 78.423C220.076 78.5963 219.833 78.852 219.66 79.19C219.495 79.528 219.413 79.9483 219.413 80.451V84H218.165V80.178C218.165 79.5107 218.009 79.008 217.697 78.67C217.393 78.332 216.956 78.163 216.384 78.163C215.976 78.163 215.617 78.2497 215.305 78.423C214.993 78.5963 214.75 78.852 214.577 79.19C214.403 79.528 214.317 79.9483 214.317 80.451V84H213.069V77.11H214.265V78.943L214.07 78.475C214.286 78.0243 214.62 77.6733 215.071 77.422C215.521 77.1707 216.046 77.045 216.644 77.045C217.302 77.045 217.87 77.2097 218.347 77.539C218.823 77.8597 219.135 78.3493 219.283 79.008L218.776 78.8C218.984 78.2713 219.348 77.8467 219.868 77.526C220.388 77.2053 220.994 77.045 221.688 77.045ZM229.873 84.078C229.136 84.078 228.486 83.9263 227.923 83.623C227.368 83.3197 226.935 82.9037 226.623 82.375C226.32 81.8463 226.168 81.2397 226.168 80.555C226.168 79.8703 226.315 79.2637 226.61 78.735C226.913 78.2063 227.325 77.7947 227.845 77.5C228.374 77.1967 228.967 77.045 229.626 77.045C230.293 77.045 230.883 77.1923 231.394 77.487C231.905 77.7817 232.304 78.1977 232.59 78.735C232.885 79.2637 233.032 79.8833 233.032 80.594C233.032 80.646 233.028 80.7067 233.019 80.776C233.019 80.8453 233.015 80.9103 233.006 80.971H227.143V80.074H232.356L231.849 80.386C231.858 79.944 231.767 79.5497 231.576 79.203C231.385 78.8563 231.121 78.5877 230.783 78.397C230.454 78.1977 230.068 78.098 229.626 78.098C229.193 78.098 228.807 78.1977 228.469 78.397C228.131 78.5877 227.867 78.8607 227.676 79.216C227.485 79.5627 227.39 79.9613 227.39 80.412V80.62C227.39 81.0793 227.494 81.491 227.702 81.855C227.919 82.2103 228.218 82.4877 228.599 82.687C228.98 82.8863 229.418 82.986 229.912 82.986C230.319 82.986 230.688 82.9167 231.017 82.778C231.355 82.6393 231.65 82.4313 231.901 82.154L232.59 82.96C232.278 83.324 231.888 83.6013 231.42 83.792C230.961 83.9827 230.445 84.078 229.873 84.078ZM234.765 84V74.354H236.013V84H234.765ZM242.673 84V82.544L242.608 82.271V79.788C242.608 79.2593 242.452 78.852 242.14 78.566C241.837 78.2713 241.377 78.124 240.762 78.124C240.355 78.124 239.956 78.1933 239.566 78.332C239.176 78.462 238.847 78.6397 238.578 78.865L238.058 77.929C238.413 77.643 238.838 77.4263 239.332 77.279C239.835 77.123 240.359 77.045 240.905 77.045C241.85 77.045 242.578 77.2747 243.089 77.734C243.6 78.1933 243.856 78.8953 243.856 79.84V84H242.673ZM240.411 84.078C239.9 84.078 239.449 83.9913 239.059 83.818C238.678 83.6447 238.383 83.4063 238.175 83.103C237.967 82.791 237.863 82.44 237.863 82.05C237.863 81.6773 237.95 81.3393 238.123 81.036C238.305 80.7327 238.595 80.49 238.994 80.308C239.401 80.126 239.947 80.035 240.632 80.035H242.816V80.932H240.684C240.06 80.932 239.64 81.036 239.423 81.244C239.206 81.452 239.098 81.7033 239.098 81.998C239.098 82.336 239.232 82.609 239.501 82.817C239.77 83.0163 240.142 83.116 240.619 83.116C241.087 83.116 241.494 83.012 241.841 82.804C242.196 82.596 242.452 82.2927 242.608 81.894L242.855 82.752C242.69 83.1593 242.4 83.4843 241.984 83.727C241.568 83.961 241.044 84.078 240.411 84.078ZM246.165 84V74.354H247.413V84H246.165ZM252.695 84.078C252.106 84.078 251.586 83.9697 251.135 83.753C250.693 83.5363 250.347 83.207 250.095 82.765C249.853 82.3143 249.731 81.751 249.731 81.075V77.11H250.979V80.932C250.979 81.608 251.14 82.115 251.46 82.453C251.79 82.791 252.249 82.96 252.838 82.96C253.272 82.96 253.649 82.8733 253.969 82.7C254.29 82.518 254.537 82.258 254.71 81.92C254.884 81.5733 254.97 81.1573 254.97 80.672V77.11H256.218V84H255.035V82.141L255.23 82.635C255.005 83.0943 254.667 83.4497 254.216 83.701C253.766 83.9523 253.259 84.078 252.695 84.078ZM258.594 84V77.11H259.842V84H258.594ZM259.218 75.784C258.975 75.784 258.772 75.706 258.607 75.55C258.451 75.394 258.373 75.2033 258.373 74.978C258.373 74.744 258.451 74.549 258.607 74.393C258.772 74.237 258.975 74.159 259.218 74.159C259.461 74.159 259.66 74.237 259.816 74.393C259.981 74.5403 260.063 74.7267 260.063 74.952C260.063 75.186 259.985 75.3853 259.829 75.55C259.673 75.706 259.469 75.784 259.218 75.784ZM21.836 105.078C21.2467 105.078 20.7137 104.948 20.237 104.688C19.769 104.419 19.3963 104.025 19.119 103.505C18.8503 102.985 18.716 102.335 18.716 101.555C18.716 100.775 18.8547 100.125 19.132 99.605C19.418 99.085 19.795 98.695 20.263 98.435C20.7397 98.175 21.264 98.045 21.836 98.045C22.512 98.045 23.11 98.1923 23.63 98.487C24.15 98.7817 24.5617 99.1933 24.865 99.722C25.1683 100.242 25.32 100.853 25.32 101.555C25.32 102.257 25.1683 102.872 24.865 103.401C24.5617 103.93 24.15 104.341 23.63 104.636C23.11 104.931 22.512 105.078 21.836 105.078ZM18.183 105V95.354H19.431V99.943L19.301 101.542L19.379 103.141V105H18.183ZM21.732 103.986C22.174 103.986 22.5683 103.886 22.915 103.687C23.2703 103.488 23.5477 103.206 23.747 102.842C23.955 102.469 24.059 102.04 24.059 101.555C24.059 101.061 23.955 100.636 23.747 100.281C23.5477 99.917 23.2703 99.6353 22.915 99.436C22.5683 99.2367 22.174 99.137 21.732 99.137C21.2987 99.137 20.9043 99.2367 20.549 99.436C20.2023 99.6353 19.925 99.917 19.717 100.281C19.5177 100.636 19.418 101.061 19.418 101.555C19.418 102.04 19.5177 102.469 19.717 102.842C19.925 103.206 20.2023 103.488 20.549 103.687C20.9043 103.886 21.2987 103.986 21.732 103.986ZM30.1123 105.078C29.3757 105.078 28.7257 104.926 28.1623 104.623C27.6077 104.32 27.1743 103.904 26.8623 103.375C26.559 102.846 26.4073 102.24 26.4073 101.555C26.4073 100.87 26.5547 100.264 26.8493 99.735C27.1527 99.2063 27.5643 98.7947 28.0843 98.5C28.613 98.1967 29.2067 98.045 29.8653 98.045C30.5327 98.045 31.122 98.1923 31.6333 98.487C32.1447 98.7817 32.5433 99.1977 32.8293 99.735C33.124 100.264 33.2713 100.883 33.2713 101.594C33.2713 101.646 33.267 101.707 33.2583 101.776C33.2583 101.845 33.254 101.91 33.2453 101.971H27.3823V101.074H32.5953L32.0883 101.386C32.097 100.944 32.006 100.55 31.8153 100.203C31.6247 99.8563 31.3603 99.5877 31.0223 99.397C30.693 99.1977 30.3073 99.098 29.8653 99.098C29.432 99.098 29.0463 99.1977 28.7083 99.397C28.3703 99.5877 28.106 99.8607 27.9153 100.216C27.7247 100.563 27.6293 100.961 27.6293 101.412V101.62C27.6293 102.079 27.7333 102.491 27.9413 102.855C28.158 103.21 28.457 103.488 28.8383 103.687C29.2197 103.886 29.6573 103.986 30.1513 103.986C30.5587 103.986 30.927 103.917 31.2563 103.778C31.5943 103.639 31.889 103.431 32.1403 103.154L32.8293 103.96C32.5173 104.324 32.1273 104.601 31.6593 104.792C31.2 104.983 30.6843 105.078 30.1123 105.078ZM35.0043 105V98.11H36.2003V99.982L36.0833 99.514C36.274 99.0373 36.5946 98.6733 37.0453 98.422C37.496 98.1707 38.0506 98.045 38.7093 98.045V99.254C38.6573 99.2453 38.6053 99.241 38.5533 99.241C38.51 99.241 38.4666 99.241 38.4233 99.241C37.756 99.241 37.2273 99.4403 36.8373 99.839C36.4473 100.238 36.2523 100.814 36.2523 101.568V105H35.0043ZM43.9005 105.078C43.3111 105.078 42.7781 104.948 42.3015 104.688C41.8335 104.419 41.4608 104.025 41.1835 103.505C40.9148 102.985 40.7805 102.335 40.7805 101.555C40.7805 100.775 40.9191 100.125 41.1965 99.605C41.4825 99.085 41.8595 98.695 42.3275 98.435C42.8041 98.175 43.3285 98.045 43.9005 98.045C44.5765 98.045 45.1745 98.1923 45.6945 98.487C46.2145 98.7817 46.6261 99.1933 46.9295 99.722C47.2328 100.242 47.3845 100.853 47.3845 101.555C47.3845 102.257 47.2328 102.872 46.9295 103.401C46.6261 103.93 46.2145 104.341 45.6945 104.636C45.1745 104.931 44.5765 105.078 43.9005 105.078ZM40.2475 105V95.354H41.4955V99.943L41.3655 101.542L41.4435 103.141V105H40.2475ZM43.7965 103.986C44.2385 103.986 44.6328 103.886 44.9795 103.687C45.3348 103.488 45.6121 103.206 45.8115 102.842C46.0195 102.469 46.1235 102.04 46.1235 101.555C46.1235 101.061 46.0195 100.636 45.8115 100.281C45.6121 99.917 45.3348 99.6353 44.9795 99.436C44.6328 99.2367 44.2385 99.137 43.7965 99.137C43.3631 99.137 42.9688 99.2367 42.6135 99.436C42.2668 99.6353 41.9895 99.917 41.7815 100.281C41.5821 100.636 41.4825 101.061 41.4825 101.555C41.4825 102.04 41.5821 102.469 41.7815 102.842C41.9895 103.206 42.2668 103.488 42.6135 103.687C42.9688 103.886 43.3631 103.986 43.7965 103.986ZM53.3223 105V103.544L53.2573 103.271V100.788C53.2573 100.259 53.1013 99.852 52.7893 99.566C52.486 99.2713 52.0266 99.124 51.4113 99.124C51.004 99.124 50.6053 99.1933 50.2153 99.332C49.8253 99.462 49.496 99.6397 49.2273 99.865L48.7073 98.929C49.0626 98.643 49.4873 98.4263 49.9813 98.279C50.484 98.123 51.0083 98.045 51.5543 98.045C52.499 98.045 53.227 98.2747 53.7383 98.734C54.2496 99.1933 54.5053 99.8953 54.5053 100.84V105H53.3223ZM51.0603 105.078C50.549 105.078 50.0983 104.991 49.7083 104.818C49.327 104.645 49.0323 104.406 48.8243 104.103C48.6163 103.791 48.5123 103.44 48.5123 103.05C48.5123 102.677 48.599 102.339 48.7723 102.036C48.9543 101.733 49.2446 101.49 49.6433 101.308C50.0506 101.126 50.5966 101.035 51.2813 101.035H53.4653V101.932H51.3333C50.7093 101.932 50.289 102.036 50.0723 102.244C49.8556 102.452 49.7473 102.703 49.7473 102.998C49.7473 103.336 49.8816 103.609 50.1503 103.817C50.419 104.016 50.7916 104.116 51.2683 104.116C51.7363 104.116 52.1436 104.012 52.4903 103.804C52.8456 103.596 53.1013 103.293 53.2573 102.894L53.5043 103.752C53.3396 104.159 53.0493 104.484 52.6333 104.727C52.2173 104.961 51.693 105.078 51.0603 105.078ZM59.8308 107.6C59.1982 107.6 58.5828 107.509 57.9848 107.327C57.3955 107.154 56.9145 106.902 56.5418 106.573L57.1398 105.611C57.4605 105.888 57.8548 106.105 58.3228 106.261C58.7908 106.426 59.2805 106.508 59.7918 106.508C60.6065 106.508 61.2045 106.317 61.5858 105.936C61.9672 105.555 62.1578 104.974 62.1578 104.194V102.738L62.2878 101.373L62.2228 99.995V98.11H63.4058V104.064C63.4058 105.277 63.1025 106.17 62.4958 106.742C61.8892 107.314 61.0008 107.6 59.8308 107.6ZM59.6748 104.714C59.0075 104.714 58.4095 104.575 57.8808 104.298C57.3608 104.012 56.9448 103.618 56.6328 103.115C56.3295 102.612 56.1778 102.032 56.1778 101.373C56.1778 100.706 56.3295 100.125 56.6328 99.631C56.9448 99.1283 57.3608 98.7383 57.8808 98.461C58.4095 98.1837 59.0075 98.045 59.6748 98.045C60.2642 98.045 60.8015 98.1663 61.2868 98.409C61.7722 98.643 62.1578 99.007 62.4438 99.501C62.7385 99.995 62.8858 100.619 62.8858 101.373C62.8858 102.118 62.7385 102.738 62.4438 103.232C62.1578 103.726 61.7722 104.099 61.2868 104.35C60.8015 104.593 60.2642 104.714 59.6748 104.714ZM59.8178 103.622C60.2772 103.622 60.6845 103.527 61.0398 103.336C61.3952 103.145 61.6725 102.881 61.8718 102.543C62.0798 102.205 62.1838 101.815 62.1838 101.373C62.1838 100.931 62.0798 100.541 61.8718 100.203C61.6725 99.865 61.3952 99.605 61.0398 99.423C60.6845 99.2323 60.2772 99.137 59.8178 99.137C59.3585 99.137 58.9468 99.2323 58.5828 99.423C58.2275 99.605 57.9458 99.865 57.7378 100.203C57.5385 100.541 57.4388 100.931 57.4388 101.373C57.4388 101.815 57.5385 102.205 57.7378 102.543C57.9458 102.881 58.2275 103.145 58.5828 103.336C58.9468 103.527 59.3585 103.622 59.8178 103.622ZM70.0674 105V103.544L70.0024 103.271V100.788C70.0024 100.259 69.8464 99.852 69.5344 99.566C69.2311 99.2713 68.7718 99.124 68.1564 99.124C67.7491 99.124 67.3504 99.1933 66.9604 99.332C66.5704 99.462 66.2411 99.6397 65.9724 99.865L65.4524 98.929C65.8078 98.643 66.2324 98.4263 66.7264 98.279C67.2291 98.123 67.7534 98.045 68.2994 98.045C69.2441 98.045 69.9721 98.2747 70.4834 98.734C70.9948 99.1933 71.2504 99.8953 71.2504 100.84V105H70.0674ZM67.8054 105.078C67.2941 105.078 66.8434 104.991 66.4534 104.818C66.0721 104.645 65.7774 104.406 65.5694 104.103C65.3614 103.791 65.2574 103.44 65.2574 103.05C65.2574 102.677 65.3441 102.339 65.5174 102.036C65.6994 101.733 65.9898 101.49 66.3884 101.308C66.7958 101.126 67.3418 101.035 68.0264 101.035H70.2104V101.932H68.0784C67.4544 101.932 67.0341 102.036 66.8174 102.244C66.6008 102.452 66.4924 102.703 66.4924 102.998C66.4924 103.336 66.6268 103.609 66.8954 103.817C67.1641 104.016 67.5368 104.116 68.0134 104.116C68.4814 104.116 68.8888 104.012 69.2354 103.804C69.5908 103.596 69.8464 103.293 70.0024 102.894L70.2494 103.752C70.0848 104.159 69.7944 104.484 69.3784 104.727C68.9624 104.961 68.4381 105.078 67.8054 105.078ZM73.56 105V98.11H74.808V105H73.56ZM74.184 96.784C73.9413 96.784 73.7376 96.706 73.573 96.55C73.417 96.394 73.339 96.2033 73.339 95.978C73.339 95.744 73.417 95.549 73.573 95.393C73.7376 95.237 73.9413 95.159 74.184 95.159C74.4266 95.159 74.626 95.237 74.782 95.393C74.9466 95.5403 75.029 95.7267 75.029 95.952C75.029 96.186 74.951 96.3853 74.795 96.55C74.639 96.706 74.4353 96.784 74.184 96.784ZM84.335 105.078C83.763 105.078 83.2387 104.948 82.762 104.688C82.294 104.419 81.917 104.025 81.631 103.505C81.3537 102.985 81.215 102.335 81.215 101.555C81.215 100.775 81.3494 100.125 81.618 99.605C81.8954 99.085 82.268 98.695 82.736 98.435C83.2127 98.175 83.7457 98.045 84.335 98.045C85.011 98.045 85.609 98.1923 86.129 98.487C86.649 98.7817 87.0607 99.1933 87.364 99.722C87.6674 100.242 87.819 100.853 87.819 101.555C87.819 102.257 87.6674 102.872 87.364 103.401C87.0607 103.93 86.649 104.341 86.129 104.636C85.609 104.931 85.011 105.078 84.335 105.078ZM80.682 107.522V98.11H81.878V99.969L81.8 101.568L81.93 103.167V107.522H80.682ZM84.231 103.986C84.673 103.986 85.0674 103.886 85.414 103.687C85.7694 103.488 86.0467 103.206 86.246 102.842C86.454 102.469 86.558 102.04 86.558 101.555C86.558 101.061 86.454 100.636 86.246 100.281C86.0467 99.917 85.7694 99.6353 85.414 99.436C85.0674 99.2367 84.673 99.137 84.231 99.137C83.7977 99.137 83.4034 99.2367 83.048 99.436C82.7014 99.6353 82.424 99.917 82.216 100.281C82.0167 100.636 81.917 101.061 81.917 101.555C81.917 102.04 82.0167 102.469 82.216 102.842C82.424 103.206 82.7014 103.488 83.048 103.687C83.4034 103.886 83.7977 103.986 84.231 103.986ZM92.6114 105.078C91.8747 105.078 91.2247 104.926 90.6614 104.623C90.1067 104.32 89.6734 103.904 89.3614 103.375C89.058 102.846 88.9064 102.24 88.9064 101.555C88.9064 100.87 89.0537 100.264 89.3484 99.735C89.6517 99.2063 90.0634 98.7947 90.5834 98.5C91.112 98.1967 91.7057 98.045 92.3644 98.045C93.0317 98.045 93.621 98.1923 94.1324 98.487C94.6437 98.7817 95.0424 99.1977 95.3284 99.735C95.623 100.264 95.7704 100.883 95.7704 101.594C95.7704 101.646 95.766 101.707 95.7574 101.776C95.7574 101.845 95.753 101.91 95.7444 101.971H89.8814V101.074H95.0944L94.5874 101.386C94.596 100.944 94.505 100.55 94.3144 100.203C94.1237 99.8563 93.8594 99.5877 93.5214 99.397C93.192 99.1977 92.8064 99.098 92.3644 99.098C91.931 99.098 91.5454 99.1977 91.2074 99.397C90.8694 99.5877 90.605 99.8607 90.4144 100.216C90.2237 100.563 90.1284 100.961 90.1284 101.412V101.62C90.1284 102.079 90.2324 102.491 90.4404 102.855C90.657 103.21 90.956 103.488 91.3374 103.687C91.7187 103.886 92.1564 103.986 92.6504 103.986C93.0577 103.986 93.426 103.917 93.7554 103.778C94.0934 103.639 94.388 103.431 94.6394 103.154L95.3284 103.96C95.0164 104.324 94.6264 104.601 94.1584 104.792C93.699 104.983 93.1834 105.078 92.6114 105.078ZM97.5033 105V98.11H98.6993V99.982L98.5823 99.514C98.773 99.0373 99.0936 98.6733 99.5443 98.422C99.995 98.1707 100.55 98.045 101.208 98.045V99.254C101.156 99.2453 101.104 99.241 101.052 99.241C101.009 99.241 100.966 99.241 100.922 99.241C100.255 99.241 99.7263 99.4403 99.3363 99.839C98.9463 100.238 98.7513 100.814 98.7513 101.568V105H97.5033ZM106.516 105V103.544L106.451 103.271V100.788C106.451 100.259 106.295 99.852 105.983 99.566C105.679 99.2713 105.22 99.124 104.605 99.124C104.197 99.124 103.799 99.1933 103.409 99.332C103.019 99.462 102.689 99.6397 102.421 99.865L101.901 98.929C102.256 98.643 102.681 98.4263 103.175 98.279C103.677 98.123 104.202 98.045 104.748 98.045C105.692 98.045 106.42 98.2747 106.932 98.734C107.443 99.1933 107.699 99.8953 107.699 100.84V105H106.516ZM104.254 105.078C103.742 105.078 103.292 104.991 102.902 104.818C102.52 104.645 102.226 104.406 102.018 104.103C101.81 103.791 101.706 103.44 101.706 103.05C101.706 102.677 101.792 102.339 101.966 102.036C102.148 101.733 102.438 101.49 102.837 101.308C103.244 101.126 103.79 101.035 104.475 101.035H106.659V101.932H104.527C103.903 101.932 103.482 102.036 103.266 102.244C103.049 102.452 102.941 102.703 102.941 102.998C102.941 103.336 103.075 103.609 103.344 103.817C103.612 104.016 103.985 104.116 104.462 104.116C104.93 104.116 105.337 104.012 105.684 103.804C106.039 103.596 106.295 103.293 106.451 102.894L106.698 103.752C106.533 104.159 106.243 104.484 105.827 104.727C105.411 104.961 104.886 105.078 104.254 105.078ZM113.687 98.045C114.251 98.045 114.745 98.1533 115.169 98.37C115.603 98.5867 115.941 98.916 116.183 99.358C116.426 99.8 116.547 100.359 116.547 101.035V105H115.299V101.178C115.299 100.511 115.135 100.008 114.805 99.67C114.485 99.332 114.03 99.163 113.44 99.163C112.998 99.163 112.613 99.2497 112.283 99.423C111.954 99.5963 111.698 99.852 111.516 100.19C111.343 100.528 111.256 100.948 111.256 101.451V105H110.008V98.11H111.204V99.969L111.009 99.475C111.235 99.0243 111.581 98.6733 112.049 98.422C112.517 98.1707 113.063 98.045 113.687 98.045ZM121.873 107.6C121.24 107.6 120.625 107.509 120.027 107.327C119.437 107.154 118.956 106.902 118.584 106.573L119.182 105.611C119.502 105.888 119.897 106.105 120.365 106.261C120.833 106.426 121.322 106.508 121.834 106.508C122.648 106.508 123.246 106.317 123.628 105.936C124.009 105.555 124.2 104.974 124.2 104.194V102.738L124.33 101.373L124.265 99.995V98.11H125.448V104.064C125.448 105.277 125.144 106.17 124.538 106.742C123.931 107.314 123.043 107.6 121.873 107.6ZM121.717 104.714C121.049 104.714 120.451 104.575 119.923 104.298C119.403 104.012 118.987 103.618 118.675 103.115C118.371 102.612 118.22 102.032 118.22 101.373C118.22 100.706 118.371 100.125 118.675 99.631C118.987 99.1283 119.403 98.7383 119.923 98.461C120.451 98.1837 121.049 98.045 121.717 98.045C122.306 98.045 122.843 98.1663 123.329 98.409C123.814 98.643 124.2 99.007 124.486 99.501C124.78 99.995 124.928 100.619 124.928 101.373C124.928 102.118 124.78 102.738 124.486 103.232C124.2 103.726 123.814 104.099 123.329 104.35C122.843 104.593 122.306 104.714 121.717 104.714ZM121.86 103.622C122.319 103.622 122.726 103.527 123.082 103.336C123.437 103.145 123.714 102.881 123.914 102.543C124.122 102.205 124.226 101.815 124.226 101.373C124.226 100.931 124.122 100.541 123.914 100.203C123.714 99.865 123.437 99.605 123.082 99.423C122.726 99.2323 122.319 99.137 121.86 99.137C121.4 99.137 120.989 99.2323 120.625 99.423C120.269 99.605 119.988 99.865 119.78 100.203C119.58 100.541 119.481 100.931 119.481 101.373C119.481 101.815 119.58 102.205 119.78 102.543C119.988 102.881 120.269 103.145 120.625 103.336C120.989 103.527 121.4 103.622 121.86 103.622ZM128.846 103.336L128.872 101.737L132.837 98.11H134.345L131.303 101.1L130.627 101.672L128.846 103.336ZM127.832 105V95.354H129.08V105H127.832ZM133.097 105L130.393 101.646L131.199 100.645L134.631 105H133.097ZM139.993 105V103.544L139.928 103.271V100.788C139.928 100.259 139.772 99.852 139.46 99.566C139.157 99.2713 138.698 99.124 138.082 99.124C137.675 99.124 137.276 99.1933 136.886 99.332C136.496 99.462 136.167 99.6397 135.898 99.865L135.378 98.929C135.734 98.643 136.158 98.4263 136.652 98.279C137.155 98.123 137.679 98.045 138.225 98.045C139.17 98.045 139.898 98.2747 140.409 98.734C140.921 99.1933 141.176 99.8953 141.176 100.84V105H139.993ZM137.731 105.078C137.22 105.078 136.769 104.991 136.379 104.818C135.998 104.645 135.703 104.406 135.495 104.103C135.287 103.791 135.183 103.44 135.183 103.05C135.183 102.677 135.27 102.339 135.443 102.036C135.625 101.733 135.916 101.49 136.314 101.308C136.722 101.126 137.268 101.035 137.952 101.035H140.136V101.932H138.004C137.38 101.932 136.96 102.036 136.743 102.244C136.527 102.452 136.418 102.703 136.418 102.998C136.418 103.336 136.553 103.609 136.821 103.817C137.09 104.016 137.463 104.116 137.939 104.116C138.407 104.116 138.815 104.012 139.161 103.804C139.517 103.596 139.772 103.293 139.928 102.894L140.175 103.752C140.011 104.159 139.72 104.484 139.304 104.727C138.888 104.961 138.364 105.078 137.731 105.078ZM145.852 105.078C145.158 105.078 144.621 104.892 144.24 104.519C143.858 104.146 143.668 103.613 143.668 102.92V96.602H144.916V102.868C144.916 103.241 145.007 103.527 145.189 103.726C145.379 103.925 145.648 104.025 145.995 104.025C146.385 104.025 146.71 103.917 146.97 103.7L147.36 104.597C147.169 104.762 146.939 104.883 146.671 104.961C146.411 105.039 146.138 105.078 145.852 105.078ZM142.498 99.137V98.11H146.892V99.137H142.498ZM148.502 106.924L149.152 104.298L149.321 105.052C149.069 105.052 148.857 104.974 148.684 104.818C148.519 104.662 148.437 104.45 148.437 104.181C148.437 103.921 148.519 103.709 148.684 103.544C148.857 103.379 149.065 103.297 149.308 103.297C149.559 103.297 149.763 103.384 149.919 103.557C150.075 103.722 150.153 103.93 150.153 104.181C150.153 104.268 150.144 104.354 150.127 104.441C150.118 104.519 150.096 104.614 150.062 104.727C150.036 104.831 149.992 104.961 149.932 105.117L149.321 106.924H148.502ZM157.798 105.078C157.105 105.078 156.567 104.892 156.186 104.519C155.805 104.146 155.614 103.613 155.614 102.92V96.602H156.862V102.868C156.862 103.241 156.953 103.527 157.135 103.726C157.326 103.925 157.594 104.025 157.941 104.025C158.331 104.025 158.656 103.917 158.916 103.7L159.306 104.597C159.115 104.762 158.886 104.883 158.617 104.961C158.357 105.039 158.084 105.078 157.798 105.078ZM154.444 99.137V98.11H158.838V99.137H154.444ZM163.654 105.078C162.918 105.078 162.268 104.926 161.704 104.623C161.15 104.32 160.716 103.904 160.404 103.375C160.101 102.846 159.949 102.24 159.949 101.555C159.949 100.87 160.097 100.264 160.391 99.735C160.695 99.2063 161.106 98.7947 161.626 98.5C162.155 98.1967 162.749 98.045 163.407 98.045C164.075 98.045 164.664 98.1923 165.175 98.487C165.687 98.7817 166.085 99.1977 166.371 99.735C166.666 100.264 166.813 100.883 166.813 101.594C166.813 101.646 166.809 101.707 166.8 101.776C166.8 101.845 166.796 101.91 166.787 101.971H160.924V101.074H166.137L165.63 101.386C165.639 100.944 165.548 100.55 165.357 100.203C165.167 99.8563 164.902 99.5877 164.564 99.397C164.235 99.1977 163.849 99.098 163.407 99.098C162.974 99.098 162.588 99.1977 162.25 99.397C161.912 99.5877 161.648 99.8607 161.457 100.216C161.267 100.563 161.171 100.961 161.171 101.412V101.62C161.171 102.079 161.275 102.491 161.483 102.855C161.7 103.21 161.999 103.488 162.38 103.687C162.762 103.886 163.199 103.986 163.693 103.986C164.101 103.986 164.469 103.917 164.798 103.778C165.136 103.639 165.431 103.431 165.682 103.154L166.371 103.96C166.059 104.324 165.669 104.601 165.201 104.792C164.742 104.983 164.226 105.078 163.654 105.078ZM168.546 105V98.11H169.742V99.982L169.625 99.514C169.816 99.0373 170.137 98.6733 170.587 98.422C171.038 98.1707 171.593 98.045 172.251 98.045V99.254C172.199 99.2453 172.147 99.241 172.095 99.241C172.052 99.241 172.009 99.241 171.965 99.241C171.298 99.241 170.769 99.4403 170.379 99.839C169.989 100.238 169.794 100.814 169.794 101.568V105H168.546ZM182.408 98.045C182.963 98.045 183.453 98.1533 183.877 98.37C184.302 98.5867 184.631 98.916 184.865 99.358C185.108 99.8 185.229 100.359 185.229 101.035V105H183.981V101.178C183.981 100.511 183.825 100.008 183.513 99.67C183.201 99.332 182.764 99.163 182.2 99.163C181.784 99.163 181.42 99.2497 181.108 99.423C180.796 99.5963 180.554 99.852 180.38 100.19C180.216 100.528 180.133 100.948 180.133 101.451V105H178.885V101.178C178.885 100.511 178.729 100.008 178.417 99.67C178.114 99.332 177.676 99.163 177.104 99.163C176.697 99.163 176.337 99.2497 176.025 99.423C175.713 99.5963 175.471 99.852 175.297 100.19C175.124 100.528 175.037 100.948 175.037 101.451V105H173.789V98.11H174.985V99.943L174.79 99.475C175.007 99.0243 175.341 98.6733 175.791 98.422C176.242 98.1707 176.766 98.045 177.364 98.045C178.023 98.045 178.591 98.2097 179.067 98.539C179.544 98.8597 179.856 99.3493 180.003 100.008L179.496 99.8C179.704 99.2713 180.068 98.8467 180.588 98.526C181.108 98.2053 181.715 98.045 182.408 98.045ZM191.803 105V103.544L191.738 103.271V100.788C191.738 100.259 191.582 99.852 191.27 99.566C190.966 99.2713 190.507 99.124 189.892 99.124C189.484 99.124 189.086 99.1933 188.696 99.332C188.306 99.462 187.976 99.6397 187.708 99.865L187.188 98.929C187.543 98.643 187.968 98.4263 188.462 98.279C188.964 98.123 189.489 98.045 190.035 98.045C190.979 98.045 191.707 98.2747 192.219 98.734C192.73 99.1933 192.986 99.8953 192.986 100.84V105H191.803ZM189.541 105.078C189.029 105.078 188.579 104.991 188.189 104.818C187.807 104.645 187.513 104.406 187.305 104.103C187.097 103.791 186.993 103.44 186.993 103.05C186.993 102.677 187.079 102.339 187.253 102.036C187.435 101.733 187.725 101.49 188.124 101.308C188.531 101.126 189.077 101.035 189.762 101.035H191.946V101.932H189.814C189.19 101.932 188.769 102.036 188.553 102.244C188.336 102.452 188.228 102.703 188.228 102.998C188.228 103.336 188.362 103.609 188.631 103.817C188.899 104.016 189.272 104.116 189.749 104.116C190.217 104.116 190.624 104.012 190.971 103.804C191.326 103.596 191.582 103.293 191.738 102.894L191.985 103.752C191.82 104.159 191.53 104.484 191.114 104.727C190.698 104.961 190.173 105.078 189.541 105.078ZM197.271 105.078C196.699 105.078 196.153 105 195.633 104.844C195.122 104.688 194.719 104.497 194.424 104.272L194.944 103.284C195.239 103.483 195.603 103.652 196.036 103.791C196.47 103.93 196.912 103.999 197.362 103.999C197.943 103.999 198.359 103.917 198.61 103.752C198.87 103.587 199 103.358 199 103.063C199 102.846 198.922 102.677 198.766 102.556C198.61 102.435 198.402 102.344 198.142 102.283C197.891 102.222 197.609 102.17 197.297 102.127C196.985 102.075 196.673 102.014 196.361 101.945C196.049 101.867 195.763 101.763 195.503 101.633C195.243 101.494 195.035 101.308 194.879 101.074C194.723 100.831 194.645 100.511 194.645 100.112C194.645 99.696 194.762 99.332 194.996 99.02C195.23 98.708 195.56 98.4697 195.984 98.305C196.418 98.1317 196.929 98.045 197.518 98.045C197.969 98.045 198.424 98.1013 198.883 98.214C199.351 98.318 199.733 98.4697 200.027 98.669L199.494 99.657C199.182 99.449 198.857 99.306 198.519 99.228C198.181 99.15 197.843 99.111 197.505 99.111C196.959 99.111 196.552 99.202 196.283 99.384C196.015 99.5573 195.88 99.7827 195.88 100.06C195.88 100.294 195.958 100.476 196.114 100.606C196.279 100.727 196.487 100.823 196.738 100.892C196.998 100.961 197.284 101.022 197.596 101.074C197.908 101.117 198.22 101.178 198.532 101.256C198.844 101.325 199.126 101.425 199.377 101.555C199.637 101.685 199.845 101.867 200.001 102.101C200.166 102.335 200.248 102.647 200.248 103.037C200.248 103.453 200.127 103.813 199.884 104.116C199.642 104.419 199.299 104.658 198.857 104.831C198.415 104.996 197.887 105.078 197.271 105.078ZM204.707 105.078C204.118 105.078 203.598 104.97 203.147 104.753C202.705 104.536 202.358 104.207 202.107 103.765C201.864 103.314 201.743 102.751 201.743 102.075V98.11H202.991V101.932C202.991 102.608 203.151 103.115 203.472 103.453C203.801 103.791 204.261 103.96 204.85 103.96C205.283 103.96 205.66 103.873 205.981 103.7C206.302 103.518 206.549 103.258 206.722 102.92C206.895 102.573 206.982 102.157 206.982 101.672V98.11H208.23V105H207.047V103.141L207.242 103.635C207.017 104.094 206.679 104.45 206.228 104.701C205.777 104.952 205.27 105.078 204.707 105.078ZM211.62 103.336L211.646 101.737L215.611 98.11H217.119L214.077 101.1L213.401 101.672L211.62 103.336ZM210.606 105V95.354H211.854V105H210.606ZM215.871 105L213.167 101.646L213.973 100.645L217.405 105H215.871ZM225.761 105.078C225.189 105.078 224.664 104.948 224.188 104.688C223.72 104.419 223.343 104.025 223.057 103.505C222.779 102.985 222.641 102.335 222.641 101.555C222.641 100.775 222.775 100.125 223.044 99.605C223.321 99.085 223.694 98.695 224.162 98.435C224.638 98.175 225.171 98.045 225.761 98.045C226.437 98.045 227.035 98.1923 227.555 98.487C228.075 98.7817 228.486 99.1933 228.79 99.722C229.093 100.242 229.245 100.853 229.245 101.555C229.245 102.257 229.093 102.872 228.79 103.401C228.486 103.93 228.075 104.341 227.555 104.636C227.035 104.931 226.437 105.078 225.761 105.078ZM222.108 107.522V98.11H223.304V99.969L223.226 101.568L223.356 103.167V107.522H222.108ZM225.657 103.986C226.099 103.986 226.493 103.886 226.84 103.687C227.195 103.488 227.472 103.206 227.672 102.842C227.88 102.469 227.984 102.04 227.984 101.555C227.984 101.061 227.88 100.636 227.672 100.281C227.472 99.917 227.195 99.6353 226.84 99.436C226.493 99.2367 226.099 99.137 225.657 99.137C225.223 99.137 224.829 99.2367 224.474 99.436C224.127 99.6353 223.85 99.917 223.642 100.281C223.442 100.636 223.343 101.061 223.343 101.555C223.343 102.04 223.442 102.469 223.642 102.842C223.85 103.206 224.127 103.488 224.474 103.687C224.829 103.886 225.223 103.986 225.657 103.986ZM235.183 105V103.544L235.118 103.271V100.788C235.118 100.259 234.962 99.852 234.65 99.566C234.346 99.2713 233.887 99.124 233.272 99.124C232.864 99.124 232.466 99.1933 232.076 99.332C231.686 99.462 231.356 99.6397 231.088 99.865L230.568 98.929C230.923 98.643 231.348 98.4263 231.842 98.279C232.344 98.123 232.869 98.045 233.415 98.045C234.359 98.045 235.087 98.2747 235.599 98.734C236.11 99.1933 236.366 99.8953 236.366 100.84V105H235.183ZM232.921 105.078C232.409 105.078 231.959 104.991 231.569 104.818C231.187 104.645 230.893 104.406 230.685 104.103C230.477 103.791 230.373 103.44 230.373 103.05C230.373 102.677 230.459 102.339 230.633 102.036C230.815 101.733 231.105 101.49 231.504 101.308C231.911 101.126 232.457 101.035 233.142 101.035H235.326V101.932H233.194C232.57 101.932 232.149 102.036 231.933 102.244C231.716 102.452 231.608 102.703 231.608 102.998C231.608 103.336 231.742 103.609 232.011 103.817C232.279 104.016 232.652 104.116 233.129 104.116C233.597 104.116 234.004 104.012 234.351 103.804C234.706 103.596 234.962 103.293 235.118 102.894L235.365 103.752C235.2 104.159 234.91 104.484 234.494 104.727C234.078 104.961 233.553 105.078 232.921 105.078ZM241.522 105.078C240.855 105.078 240.257 104.931 239.728 104.636C239.208 104.341 238.797 103.93 238.493 103.401C238.19 102.872 238.038 102.257 238.038 101.555C238.038 100.853 238.19 100.242 238.493 99.722C238.797 99.1933 239.208 98.7817 239.728 98.487C240.257 98.1923 240.855 98.045 241.522 98.045C242.103 98.045 242.627 98.175 243.095 98.435C243.563 98.695 243.936 99.085 244.213 99.605C244.499 100.125 244.642 100.775 244.642 101.555C244.642 102.335 244.504 102.985 244.226 103.505C243.958 104.025 243.589 104.419 243.121 104.688C242.653 104.948 242.12 105.078 241.522 105.078ZM241.626 103.986C242.06 103.986 242.45 103.886 242.796 103.687C243.152 103.488 243.429 103.206 243.628 102.842C243.836 102.469 243.94 102.04 243.94 101.555C243.94 101.061 243.836 100.636 243.628 100.281C243.429 99.917 243.152 99.6353 242.796 99.436C242.45 99.2367 242.06 99.137 241.626 99.137C241.184 99.137 240.79 99.2367 240.443 99.436C240.097 99.6353 239.819 99.917 239.611 100.281C239.403 100.636 239.299 101.061 239.299 101.555C239.299 102.04 239.403 102.469 239.611 102.842C239.819 103.206 240.097 103.488 240.443 103.687C240.79 103.886 241.184 103.986 241.626 103.986ZM243.979 105V103.141L244.057 101.542L243.927 99.943V95.354H245.175V105H243.979ZM251.814 105V103.544L251.749 103.271V100.788C251.749 100.259 251.593 99.852 251.281 99.566C250.977 99.2713 250.518 99.124 249.903 99.124C249.495 99.124 249.097 99.1933 248.707 99.332C248.317 99.462 247.987 99.6397 247.719 99.865L247.199 98.929C247.554 98.643 247.979 98.4263 248.473 98.279C248.975 98.123 249.5 98.045 250.046 98.045C250.99 98.045 251.718 98.2747 252.23 98.734C252.741 99.1933 252.997 99.8953 252.997 100.84V105H251.814ZM249.552 105.078C249.04 105.078 248.59 104.991 248.2 104.818C247.818 104.645 247.524 104.406 247.316 104.103C247.108 103.791 247.004 103.44 247.004 103.05C247.004 102.677 247.09 102.339 247.264 102.036C247.446 101.733 247.736 101.49 248.135 101.308C248.542 101.126 249.088 101.035 249.773 101.035H251.957V101.932H249.825C249.201 101.932 248.78 102.036 248.564 102.244C248.347 102.452 248.239 102.703 248.239 102.998C248.239 103.336 248.373 103.609 248.642 103.817C248.91 104.016 249.283 104.116 249.76 104.116C250.228 104.116 250.635 104.012 250.982 103.804C251.337 103.596 251.593 103.293 251.749 102.894L251.996 103.752C251.831 104.159 251.541 104.484 251.125 104.727C250.709 104.961 250.184 105.078 249.552 105.078ZM19.197 124.336L19.223 122.737L23.188 119.11H24.696L21.654 122.1L20.978 122.672L19.197 124.336ZM18.183 126V116.354H19.431V126H18.183ZM23.448 126L20.744 122.646L21.55 121.645L24.982 126H23.448ZM28.8654 126.078C28.1721 126.078 27.5568 125.926 27.0194 125.623C26.4821 125.32 26.0574 124.904 25.7454 124.375C25.4334 123.838 25.2774 123.231 25.2774 122.555C25.2774 121.87 25.4334 121.264 25.7454 120.735C26.0574 120.206 26.4821 119.795 27.0194 119.5C27.5568 119.197 28.1721 119.045 28.8654 119.045C29.5501 119.045 30.1611 119.197 30.6984 119.5C31.2444 119.795 31.6691 120.206 31.9724 120.735C32.2844 121.255 32.4404 121.862 32.4404 122.555C32.4404 123.24 32.2844 123.846 31.9724 124.375C31.6691 124.904 31.2444 125.32 30.6984 125.623C30.1611 125.926 29.5501 126.078 28.8654 126.078ZM28.8654 124.986C29.3074 124.986 29.7018 124.886 30.0484 124.687C30.4038 124.488 30.6811 124.206 30.8804 123.842C31.0798 123.469 31.1794 123.04 31.1794 122.555C31.1794 122.061 31.0798 121.636 30.8804 121.281C30.6811 120.917 30.4038 120.635 30.0484 120.436C29.7018 120.237 29.3074 120.137 28.8654 120.137C28.4234 120.137 28.0291 120.237 27.6824 120.436C27.3358 120.635 27.0584 120.917 26.8504 121.281C26.6424 121.636 26.5384 122.061 26.5384 122.555C26.5384 123.04 26.6424 123.469 26.8504 123.842C27.0584 124.206 27.3358 124.488 27.6824 124.687C28.0291 124.886 28.4234 124.986 28.8654 124.986ZM42.7854 119.045C43.3401 119.045 43.8297 119.153 44.2544 119.37C44.6791 119.587 45.0084 119.916 45.2424 120.358C45.4851 120.8 45.6064 121.359 45.6064 122.035V126H44.3584V122.178C44.3584 121.511 44.2024 121.008 43.8904 120.67C43.5784 120.332 43.1407 120.163 42.5774 120.163C42.1614 120.163 41.7974 120.25 41.4854 120.423C41.1734 120.596 40.9307 120.852 40.7574 121.19C40.5927 121.528 40.5104 121.948 40.5104 122.451V126H39.2624V122.178C39.2624 121.511 39.1064 121.008 38.7944 120.67C38.4911 120.332 38.0534 120.163 37.4814 120.163C37.0741 120.163 36.7144 120.25 36.4024 120.423C36.0904 120.596 35.8477 120.852 35.6744 121.19C35.5011 121.528 35.4144 121.948 35.4144 122.451V126H34.1664V119.11H35.3624V120.943L35.1674 120.475C35.3841 120.024 35.7177 119.673 36.1684 119.422C36.6191 119.171 37.1434 119.045 37.7414 119.045C38.4001 119.045 38.9677 119.21 39.4444 119.539C39.9211 119.86 40.2331 120.349 40.3804 121.008L39.8734 120.8C40.0814 120.271 40.4454 119.847 40.9654 119.526C41.4854 119.205 42.0921 119.045 42.7854 119.045ZM51.5557 126.078C50.9837 126.078 50.4594 125.948 49.9827 125.688C49.5147 125.419 49.1377 125.025 48.8517 124.505C48.5744 123.985 48.4357 123.335 48.4357 122.555C48.4357 121.775 48.5701 121.125 48.8387 120.605C49.1161 120.085 49.4887 119.695 49.9567 119.435C50.4334 119.175 50.9664 119.045 51.5557 119.045C52.2317 119.045 52.8297 119.192 53.3497 119.487C53.8697 119.782 54.2814 120.193 54.5847 120.722C54.8881 121.242 55.0397 121.853 55.0397 122.555C55.0397 123.257 54.8881 123.872 54.5847 124.401C54.2814 124.93 53.8697 125.341 53.3497 125.636C52.8297 125.931 52.2317 126.078 51.5557 126.078ZM47.9027 128.522V119.11H49.0987V120.969L49.0207 122.568L49.1507 124.167V128.522H47.9027ZM51.4517 124.986C51.8937 124.986 52.2881 124.886 52.6347 124.687C52.9901 124.488 53.2674 124.206 53.4667 123.842C53.6747 123.469 53.7787 123.04 53.7787 122.555C53.7787 122.061 53.6747 121.636 53.4667 121.281C53.2674 120.917 52.9901 120.635 52.6347 120.436C52.2881 120.237 51.8937 120.137 51.4517 120.137C51.0184 120.137 50.6241 120.237 50.2687 120.436C49.9221 120.635 49.6447 120.917 49.4367 121.281C49.2374 121.636 49.1377 122.061 49.1377 122.555C49.1377 123.04 49.2374 123.469 49.4367 123.842C49.6447 124.206 49.9221 124.488 50.2687 124.687C50.6241 124.886 51.0184 124.986 51.4517 124.986ZM59.6631 126.078C59.0737 126.078 58.5537 125.97 58.1031 125.753C57.6611 125.536 57.3144 125.207 57.0631 124.765C56.8204 124.314 56.6991 123.751 56.6991 123.075V119.11H57.9471V122.932C57.9471 123.608 58.1074 124.115 58.4281 124.453C58.7574 124.791 59.2167 124.96 59.8061 124.96C60.2394 124.96 60.6164 124.873 60.9371 124.7C61.2577 124.518 61.5047 124.258 61.6781 123.92C61.8514 123.573 61.9381 123.157 61.9381 122.672V119.11H63.1861V126H62.0031V124.141L62.1981 124.635C61.9727 125.094 61.6347 125.45 61.1841 125.701C60.7334 125.952 60.2264 126.078 59.6631 126.078ZM67.9279 126.078C67.2346 126.078 66.6972 125.892 66.3159 125.519C65.9346 125.146 65.7439 124.613 65.7439 123.92V117.602H66.9919V123.868C66.9919 124.241 67.0829 124.527 67.2649 124.726C67.4556 124.925 67.7242 125.025 68.0709 125.025C68.4609 125.025 68.7859 124.917 69.0459 124.7L69.4359 125.597C69.2452 125.762 69.0156 125.883 68.7469 125.961C68.4869 126.039 68.2139 126.078 67.9279 126.078ZM64.5739 120.137V119.11H68.9679V120.137H64.5739ZM73.7842 126.078C73.0475 126.078 72.3975 125.926 71.8342 125.623C71.2795 125.32 70.8462 124.904 70.5342 124.375C70.2309 123.846 70.0792 123.24 70.0792 122.555C70.0792 121.87 70.2265 121.264 70.5212 120.735C70.8245 120.206 71.2362 119.795 71.7562 119.5C72.2849 119.197 72.8785 119.045 73.5372 119.045C74.2045 119.045 74.7939 119.192 75.3052 119.487C75.8165 119.782 76.2152 120.198 76.5012 120.735C76.7959 121.264 76.9432 121.883 76.9432 122.594C76.9432 122.646 76.9389 122.707 76.9302 122.776C76.9302 122.845 76.9259 122.91 76.9172 122.971H71.0542V122.074H76.2672L75.7602 122.386C75.7689 121.944 75.6779 121.55 75.4872 121.203C75.2965 120.856 75.0322 120.588 74.6942 120.397C74.3649 120.198 73.9792 120.098 73.5372 120.098C73.1039 120.098 72.7182 120.198 72.3802 120.397C72.0422 120.588 71.7779 120.861 71.5872 121.216C71.3965 121.563 71.3012 121.961 71.3012 122.412V122.62C71.3012 123.079 71.4052 123.491 71.6132 123.855C71.8299 124.21 72.1289 124.488 72.5102 124.687C72.8915 124.886 73.3292 124.986 73.8232 124.986C74.2305 124.986 74.5989 124.917 74.9282 124.778C75.2662 124.639 75.5609 124.431 75.8122 124.154L76.5012 124.96C76.1892 125.324 75.7992 125.601 75.3312 125.792C74.8719 125.983 74.3562 126.078 73.7842 126.078ZM78.6762 126V119.11H79.8722V120.982L79.7552 120.514C79.9458 120.037 80.2665 119.673 80.7172 119.422C81.1678 119.171 81.7225 119.045 82.3812 119.045V120.254C82.3292 120.245 82.2772 120.241 82.2252 120.241C82.1818 120.241 82.1385 120.241 82.0952 120.241C81.4278 120.241 80.8992 120.44 80.5092 120.839C80.1192 121.238 79.9242 121.814 79.9242 122.568V126H78.6762ZM90.3464 126.078C89.6791 126.078 89.0811 125.931 88.5524 125.636C88.0324 125.341 87.6207 124.93 87.3174 124.401C87.0141 123.872 86.8624 123.257 86.8624 122.555C86.8624 121.853 87.0141 121.242 87.3174 120.722C87.6207 120.193 88.0324 119.782 88.5524 119.487C89.0811 119.192 89.6791 119.045 90.3464 119.045C90.9271 119.045 91.4514 119.175 91.9194 119.435C92.3874 119.695 92.7601 120.085 93.0374 120.605C93.3234 121.125 93.4664 121.775 93.4664 122.555C93.4664 123.335 93.3277 123.985 93.0504 124.505C92.7817 125.025 92.4134 125.419 91.9454 125.688C91.4774 125.948 90.9444 126.078 90.3464 126.078ZM90.4504 124.986C90.8837 124.986 91.2737 124.886 91.6204 124.687C91.9757 124.488 92.2531 124.206 92.4524 123.842C92.6604 123.469 92.7644 123.04 92.7644 122.555C92.7644 122.061 92.6604 121.636 92.4524 121.281C92.2531 120.917 91.9757 120.635 91.6204 120.436C91.2737 120.237 90.8837 120.137 90.4504 120.137C90.0084 120.137 89.6141 120.237 89.2674 120.436C88.9207 120.635 88.6434 120.917 88.4354 121.281C88.2274 121.636 88.1234 122.061 88.1234 122.555C88.1234 123.04 88.2274 123.469 88.4354 123.842C88.6434 124.206 88.9207 124.488 89.2674 124.687C89.6141 124.886 90.0084 124.986 90.4504 124.986ZM92.8034 126V124.141L92.8814 122.542L92.7514 120.943V116.354H93.9994V126H92.8034ZM100.638 126V124.544L100.573 124.271V121.788C100.573 121.259 100.417 120.852 100.105 120.566C99.8014 120.271 99.3421 120.124 98.7267 120.124C98.3194 120.124 97.9207 120.193 97.5307 120.332C97.1407 120.462 96.8114 120.64 96.5427 120.865L96.0227 119.929C96.3781 119.643 96.8027 119.426 97.2967 119.279C97.7994 119.123 98.3237 119.045 98.8697 119.045C99.8144 119.045 100.542 119.275 101.054 119.734C101.565 120.193 101.821 120.895 101.821 121.84V126H100.638ZM98.3757 126.078C97.8644 126.078 97.4137 125.991 97.0237 125.818C96.6424 125.645 96.3477 125.406 96.1397 125.103C95.9317 124.791 95.8277 124.44 95.8277 124.05C95.8277 123.677 95.9144 123.339 96.0877 123.036C96.2697 122.733 96.5601 122.49 96.9587 122.308C97.3661 122.126 97.9121 122.035 98.5967 122.035H100.781V122.932H98.6487C98.0247 122.932 97.6044 123.036 97.3877 123.244C97.1711 123.452 97.0627 123.703 97.0627 123.998C97.0627 124.336 97.1971 124.609 97.4657 124.817C97.7344 125.016 98.1071 125.116 98.5837 125.116C99.0517 125.116 99.4591 125.012 99.8057 124.804C100.161 124.596 100.417 124.293 100.573 123.894L100.82 124.752C100.655 125.159 100.365 125.484 99.9487 125.727C99.5327 125.961 99.0084 126.078 98.3757 126.078ZM107.809 119.045C108.373 119.045 108.867 119.153 109.291 119.37C109.725 119.587 110.063 119.916 110.305 120.358C110.548 120.8 110.669 121.359 110.669 122.035V126H109.421V122.178C109.421 121.511 109.257 121.008 108.927 120.67C108.607 120.332 108.152 120.163 107.562 120.163C107.12 120.163 106.735 120.25 106.405 120.423C106.076 120.596 105.82 120.852 105.638 121.19C105.465 121.528 105.378 121.948 105.378 122.451V126H104.13V119.11H105.326V120.969L105.131 120.475C105.357 120.024 105.703 119.673 106.171 119.422C106.639 119.171 107.185 119.045 107.809 119.045ZM118.446 126.078C117.874 126.078 117.328 126 116.808 125.844C116.297 125.688 115.894 125.497 115.599 125.272L116.119 124.284C116.414 124.483 116.778 124.652 117.211 124.791C117.644 124.93 118.086 124.999 118.537 124.999C119.118 124.999 119.534 124.917 119.785 124.752C120.045 124.587 120.175 124.358 120.175 124.063C120.175 123.846 120.097 123.677 119.941 123.556C119.785 123.435 119.577 123.344 119.317 123.283C119.066 123.222 118.784 123.17 118.472 123.127C118.16 123.075 117.848 123.014 117.536 122.945C117.224 122.867 116.938 122.763 116.678 122.633C116.418 122.494 116.21 122.308 116.054 122.074C115.898 121.831 115.82 121.511 115.82 121.112C115.82 120.696 115.937 120.332 116.171 120.02C116.405 119.708 116.734 119.47 117.159 119.305C117.592 119.132 118.104 119.045 118.693 119.045C119.144 119.045 119.599 119.101 120.058 119.214C120.526 119.318 120.907 119.47 121.202 119.669L120.669 120.657C120.357 120.449 120.032 120.306 119.694 120.228C119.356 120.15 119.018 120.111 118.68 120.111C118.134 120.111 117.727 120.202 117.458 120.384C117.189 120.557 117.055 120.783 117.055 121.06C117.055 121.294 117.133 121.476 117.289 121.606C117.454 121.727 117.662 121.823 117.913 121.892C118.173 121.961 118.459 122.022 118.771 122.074C119.083 122.117 119.395 122.178 119.707 122.256C120.019 122.325 120.301 122.425 120.552 122.555C120.812 122.685 121.02 122.867 121.176 123.101C121.341 123.335 121.423 123.647 121.423 124.037C121.423 124.453 121.302 124.813 121.059 125.116C120.816 125.419 120.474 125.658 120.032 125.831C119.59 125.996 119.061 126.078 118.446 126.078ZM131.602 119.045C132.156 119.045 132.646 119.153 133.071 119.37C133.495 119.587 133.825 119.916 134.059 120.358C134.301 120.8 134.423 121.359 134.423 122.035V126H133.175V122.178C133.175 121.511 133.019 121.008 132.707 120.67C132.395 120.332 131.957 120.163 131.394 120.163C130.978 120.163 130.614 120.25 130.302 120.423C129.99 120.596 129.747 120.852 129.574 121.19C129.409 121.528 129.327 121.948 129.327 122.451V126H128.079V122.178C128.079 121.511 127.923 121.008 127.611 120.67C127.307 120.332 126.87 120.163 126.298 120.163C125.89 120.163 125.531 120.25 125.219 120.423C124.907 120.596 124.664 120.852 124.491 121.19C124.317 121.528 124.231 121.948 124.231 122.451V126H122.983V119.11H124.179V120.943L123.984 120.475C124.2 120.024 124.534 119.673 124.985 119.422C125.435 119.171 125.96 119.045 126.558 119.045C127.216 119.045 127.784 119.21 128.261 119.539C128.737 119.86 129.049 120.349 129.197 121.008L128.69 120.8C128.898 120.271 129.262 119.847 129.782 119.526C130.302 119.205 130.908 119.045 131.602 119.045ZM140.996 126V124.544L140.931 124.271V121.788C140.931 121.259 140.775 120.852 140.463 120.566C140.16 120.271 139.7 120.124 139.085 120.124C138.678 120.124 138.279 120.193 137.889 120.332C137.499 120.462 137.17 120.64 136.901 120.865L136.381 119.929C136.736 119.643 137.161 119.426 137.655 119.279C138.158 119.123 138.682 119.045 139.228 119.045C140.173 119.045 140.901 119.275 141.412 119.734C141.923 120.193 142.179 120.895 142.179 121.84V126H140.996ZM138.734 126.078C138.223 126.078 137.772 125.991 137.382 125.818C137.001 125.645 136.706 125.406 136.498 125.103C136.29 124.791 136.186 124.44 136.186 124.05C136.186 123.677 136.273 123.339 136.446 123.036C136.628 122.733 136.918 122.49 137.317 122.308C137.724 122.126 138.27 122.035 138.955 122.035H141.139V122.932H139.007C138.383 122.932 137.963 123.036 137.746 123.244C137.529 123.452 137.421 123.703 137.421 123.998C137.421 124.336 137.555 124.609 137.824 124.817C138.093 125.016 138.465 125.116 138.942 125.116C139.41 125.116 139.817 125.012 140.164 124.804C140.519 124.596 140.775 124.293 140.931 123.894L141.178 124.752C141.013 125.159 140.723 125.484 140.307 125.727C139.891 125.961 139.367 126.078 138.734 126.078ZM144.489 126V119.11H145.685V120.982L145.568 120.514C145.758 120.037 146.079 119.673 146.53 119.422C146.98 119.171 147.535 119.045 148.194 119.045V120.254C148.142 120.245 148.09 120.241 148.038 120.241C147.994 120.241 147.951 120.241 147.908 120.241C147.24 120.241 146.712 120.44 146.322 120.839C145.932 121.238 145.737 121.814 145.737 122.568V126H144.489ZM152.377 126.078C151.684 126.078 151.146 125.892 150.765 125.519C150.384 125.146 150.193 124.613 150.193 123.92V117.602H151.441V123.868C151.441 124.241 151.532 124.527 151.714 124.726C151.905 124.925 152.173 125.025 152.52 125.025C152.91 125.025 153.235 124.917 153.495 124.7L153.885 125.597C153.694 125.762 153.465 125.883 153.196 125.961C152.936 126.039 152.663 126.078 152.377 126.078ZM149.023 120.137V119.11H153.417V120.137H149.023ZM159.047 126.078C158.475 126.078 157.951 125.948 157.474 125.688C157.006 125.419 156.629 125.025 156.343 124.505C156.066 123.985 155.927 123.335 155.927 122.555C155.927 121.775 156.061 121.125 156.33 120.605C156.607 120.085 156.98 119.695 157.448 119.435C157.925 119.175 158.458 119.045 159.047 119.045C159.723 119.045 160.321 119.192 160.841 119.487C161.361 119.782 161.773 120.193 162.076 120.722C162.379 121.242 162.531 121.853 162.531 122.555C162.531 123.257 162.379 123.872 162.076 124.401C161.773 124.93 161.361 125.341 160.841 125.636C160.321 125.931 159.723 126.078 159.047 126.078ZM155.394 128.522V119.11H156.59V120.969L156.512 122.568L156.642 124.167V128.522H155.394ZM158.943 124.986C159.385 124.986 159.779 124.886 160.126 124.687C160.481 124.488 160.759 124.206 160.958 123.842C161.166 123.469 161.27 123.04 161.27 122.555C161.27 122.061 161.166 121.636 160.958 121.281C160.759 120.917 160.481 120.635 160.126 120.436C159.779 120.237 159.385 120.137 158.943 120.137C158.51 120.137 158.115 120.237 157.76 120.436C157.413 120.635 157.136 120.917 156.928 121.281C156.729 121.636 156.629 122.061 156.629 122.555C156.629 123.04 156.729 123.469 156.928 123.842C157.136 124.206 157.413 124.488 157.76 124.687C158.115 124.886 158.51 124.986 158.943 124.986ZM167.934 119.045C168.498 119.045 168.992 119.153 169.416 119.37C169.85 119.587 170.188 119.916 170.43 120.358C170.673 120.8 170.794 121.359 170.794 122.035V126H169.546V122.178C169.546 121.511 169.382 121.008 169.052 120.67C168.732 120.332 168.277 120.163 167.687 120.163C167.245 120.163 166.86 120.25 166.53 120.423C166.201 120.596 165.945 120.852 165.763 121.19C165.59 121.528 165.503 121.948 165.503 122.451V126H164.255V116.354H165.503V120.969L165.256 120.475C165.482 120.024 165.828 119.673 166.296 119.422C166.764 119.171 167.31 119.045 167.934 119.045ZM176.055 126.078C175.362 126.078 174.746 125.926 174.209 125.623C173.672 125.32 173.247 124.904 172.935 124.375C172.623 123.838 172.467 123.231 172.467 122.555C172.467 121.87 172.623 121.264 172.935 120.735C173.247 120.206 173.672 119.795 174.209 119.5C174.746 119.197 175.362 119.045 176.055 119.045C176.74 119.045 177.351 119.197 177.888 119.5C178.434 119.795 178.859 120.206 179.162 120.735C179.474 121.255 179.63 121.862 179.63 122.555C179.63 123.24 179.474 123.846 179.162 124.375C178.859 124.904 178.434 125.32 177.888 125.623C177.351 125.926 176.74 126.078 176.055 126.078ZM176.055 124.986C176.497 124.986 176.891 124.886 177.238 124.687C177.593 124.488 177.871 124.206 178.07 123.842C178.269 123.469 178.369 123.04 178.369 122.555C178.369 122.061 178.269 121.636 178.07 121.281C177.871 120.917 177.593 120.635 177.238 120.436C176.891 120.237 176.497 120.137 176.055 120.137C175.613 120.137 175.219 120.237 174.872 120.436C174.525 120.635 174.248 120.917 174.04 121.281C173.832 121.636 173.728 122.061 173.728 122.555C173.728 123.04 173.832 123.469 174.04 123.842C174.248 124.206 174.525 124.488 174.872 124.687C175.219 124.886 175.613 124.986 176.055 124.986ZM185.035 119.045C185.598 119.045 186.092 119.153 186.517 119.37C186.95 119.587 187.288 119.916 187.531 120.358C187.774 120.8 187.895 121.359 187.895 122.035V126H186.647V122.178C186.647 121.511 186.482 121.008 186.153 120.67C185.832 120.332 185.377 120.163 184.788 120.163C184.346 120.163 183.96 120.25 183.631 120.423C183.302 120.596 183.046 120.852 182.864 121.19C182.691 121.528 182.604 121.948 182.604 122.451V126H181.356V119.11H182.552V120.969L182.357 120.475C182.582 120.024 182.929 119.673 183.397 119.422C183.865 119.171 184.411 119.045 185.035 119.045ZM193.272 126.078C192.536 126.078 191.886 125.926 191.322 125.623C190.768 125.32 190.334 124.904 190.022 124.375C189.719 123.846 189.567 123.24 189.567 122.555C189.567 121.87 189.715 121.264 190.009 120.735C190.313 120.206 190.724 119.795 191.244 119.5C191.773 119.197 192.367 119.045 193.025 119.045C193.693 119.045 194.282 119.192 194.793 119.487C195.305 119.782 195.703 120.198 195.989 120.735C196.284 121.264 196.431 121.883 196.431 122.594C196.431 122.646 196.427 122.707 196.418 122.776C196.418 122.845 196.414 122.91 196.405 122.971H190.542V122.074H195.755L195.248 122.386C195.257 121.944 195.166 121.55 194.975 121.203C194.785 120.856 194.52 120.588 194.182 120.397C193.853 120.198 193.467 120.098 193.025 120.098C192.592 120.098 192.206 120.198 191.868 120.397C191.53 120.588 191.266 120.861 191.075 121.216C190.885 121.563 190.789 121.961 190.789 122.412V122.62C190.789 123.079 190.893 123.491 191.101 123.855C191.318 124.21 191.617 124.488 191.998 124.687C192.38 124.886 192.817 124.986 193.311 124.986C193.719 124.986 194.087 124.917 194.416 124.778C194.754 124.639 195.049 124.431 195.3 124.154L195.989 124.96C195.677 125.324 195.287 125.601 194.819 125.792C194.36 125.983 193.844 126.078 193.272 126.078ZM198.463 126.078C198.221 126.078 198.013 125.996 197.839 125.831C197.666 125.658 197.579 125.441 197.579 125.181C197.579 124.921 197.666 124.709 197.839 124.544C198.013 124.379 198.221 124.297 198.463 124.297C198.697 124.297 198.897 124.379 199.061 124.544C199.235 124.709 199.321 124.921 199.321 125.181C199.321 125.441 199.235 125.658 199.061 125.831C198.897 125.996 198.697 126.078 198.463 126.078Z" fill="white" fill-opacity="0.8"/>
<circle cx="37" cy="36" r="20" fill="white" fill-opacity="0.1"/>
<path d="M44.965 32.521C44.988 32.347 45 32.173 45 32C45 29.621 42.857 27.712 40.479 28.035C39.786 26.802 38.466 26 37 26C35.534 26 34.214 26.802 33.521 28.035C31.138 27.712 29 29.621 29 32C29 32.173 29.012 32.347 29.035 32.521C27.802 33.215 27 34.535 27 36C27 37.465 27.802 38.785 29.035 39.479C29.0119 39.6517 29.0002 39.8258 29 40C29 42.379 31.138 44.283 33.521 43.965C34.214 45.198 35.534 46 37 46C38.466 46 39.786 45.198 40.479 43.965C42.857 44.283 45 42.379 45 40C45 39.827 44.988 39.653 44.965 39.479C46.198 38.785 47 37.465 47 36C47 34.535 46.198 33.215 44.965 32.521ZM35.955 40.416L32.288 36.702L33.712 35.298L35.969 37.584L40.296 33.29L41.704 34.71L35.955 40.416Z" fill="white" fill-opacity="0.5"/>
</svg>
