<svg width="300" height="160" viewBox="0 0 300 160" fill="none" xmlns="http://www.w3.org/2000/svg">
<rect width="300" height="160" rx="10" fill="#0C0E12"/>
<rect x="1" y="1" width="298" height="158" rx="9" stroke="white" stroke-opacity="0.07" stroke-width="2"/>
<path d="M76.2 39.7L76.06 36.62L83.4 29H86.32L80.22 35.48L78.78 37.06L76.2 39.7ZM73.88 43V29H76.48V43H73.88ZM83.64 43L78.28 36.62L80 34.72L86.68 43H83.64ZM92.5416 43.14C91.4482 43.14 90.4749 42.9067 89.6216 42.44C88.7682 41.96 88.0949 41.3067 87.6016 40.48C87.1082 39.6533 86.8616 38.7133 86.8616 37.66C86.8616 36.5933 87.1082 35.6533 87.6016 34.84C88.0949 34.0133 88.7682 33.3667 89.6216 32.9C90.4749 32.4333 91.4482 32.2 92.5416 32.2C93.6482 32.2 94.6282 32.4333 95.4816 32.9C96.3482 33.3667 97.0216 34.0067 97.5016 34.82C97.9949 35.6333 98.2416 36.58 98.2416 37.66C98.2416 38.7133 97.9949 39.6533 97.5016 40.48C97.0216 41.3067 96.3482 41.96 95.4816 42.44C94.6282 42.9067 93.6482 43.14 92.5416 43.14ZM92.5416 41C93.1549 41 93.7016 40.8667 94.1816 40.6C94.6616 40.3333 95.0349 39.9467 95.3016 39.44C95.5816 38.9333 95.7216 38.34 95.7216 37.66C95.7216 36.9667 95.5816 36.3733 95.3016 35.88C95.0349 35.3733 94.6616 34.9867 94.1816 34.72C93.7016 34.4533 93.1616 34.32 92.5616 34.32C91.9482 34.32 91.4016 34.4533 90.9216 34.72C90.4549 34.9867 90.0816 35.3733 89.8016 35.88C89.5216 36.3733 89.3816 36.9667 89.3816 37.66C89.3816 38.34 89.5216 38.9333 89.8016 39.44C90.0816 39.9467 90.4549 40.3333 90.9216 40.6C91.4016 40.8667 91.9416 41 92.5416 41ZM106.692 32.2C107.546 32.2 108.306 32.3667 108.972 32.7C109.652 33.0333 110.186 33.5467 110.572 34.24C110.959 34.92 111.152 35.8 111.152 36.88V43H108.652V37.2C108.652 36.2533 108.426 35.5467 107.972 35.08C107.532 34.6133 106.912 34.38 106.112 34.38C105.526 34.38 105.006 34.5 104.552 34.74C104.099 34.98 103.746 35.34 103.492 35.82C103.252 36.2867 103.132 36.88 103.132 37.6V43H100.632V32.32H103.012V35.2L102.592 34.32C102.966 33.64 103.506 33.12 104.212 32.76C104.932 32.3867 105.759 32.2 106.692 32.2ZM118.344 43.14C117.17 43.14 116.264 42.84 115.624 42.24C114.984 41.6267 114.664 40.7267 114.664 39.54V29.96H117.164V39.48C117.164 39.9867 117.29 40.38 117.544 40.66C117.81 40.94 118.177 41.08 118.644 41.08C119.204 41.08 119.67 40.9333 120.044 40.64L120.744 42.42C120.45 42.66 120.09 42.84 119.664 42.96C119.237 43.08 118.797 43.14 118.344 43.14ZM112.904 34.4V32.4H120.024V34.4H112.904ZM129.38 43V40.84L129.24 40.38V36.6C129.24 35.8667 129.02 35.3 128.58 34.9C128.14 34.4867 127.473 34.28 126.58 34.28C125.98 34.28 125.387 34.3733 124.8 34.56C124.227 34.7467 123.74 35.0067 123.34 35.34L122.36 33.52C122.933 33.08 123.613 32.7533 124.4 32.54C125.2 32.3133 126.027 32.2 126.88 32.2C128.427 32.2 129.62 32.5733 130.46 33.32C131.313 34.0533 131.74 35.1933 131.74 36.74V43H129.38ZM126.02 43.14C125.22 43.14 124.52 43.0067 123.92 42.74C123.32 42.46 122.853 42.08 122.52 41.6C122.2 41.1067 122.04 40.5533 122.04 39.94C122.04 39.34 122.18 38.8 122.46 38.32C122.753 37.84 123.227 37.46 123.88 37.18C124.533 36.9 125.4 36.76 126.48 36.76H129.58V38.42H126.66C125.807 38.42 125.233 38.56 124.94 38.84C124.647 39.1067 124.5 39.44 124.5 39.84C124.5 40.2933 124.68 40.6533 125.04 40.92C125.4 41.1867 125.9 41.32 126.54 41.32C127.153 41.32 127.7 41.18 128.18 40.9C128.673 40.62 129.027 40.2067 129.24 39.66L129.66 41.16C129.42 41.7867 128.987 42.2733 128.36 42.62C127.747 42.9667 126.967 43.14 126.02 43.14ZM136.989 40.62L137.049 37.48L142.629 32.32H145.629L140.889 37.08L139.569 38.18L136.989 40.62ZM134.949 43V28.16H137.449V43H134.949ZM143.009 43L139.109 38.18L140.689 36.18L146.049 43H143.009ZM159.911 43.2C158.844 43.2 157.851 43.0267 156.931 42.68C156.024 42.32 155.231 41.82 154.551 41.18C153.884 40.5267 153.364 39.76 152.991 38.88C152.617 38 152.431 37.04 152.431 36C152.431 34.96 152.617 34 152.991 33.12C153.364 32.24 153.891 31.48 154.571 30.84C155.251 30.1867 156.044 29.6867 156.951 29.34C157.857 28.98 158.851 28.8 159.931 28.8C161.077 28.8 162.124 29 163.071 29.4C164.017 29.7867 164.817 30.3667 165.471 31.14L163.791 32.72C163.284 32.1733 162.717 31.7667 162.091 31.5C161.464 31.22 160.784 31.08 160.051 31.08C159.317 31.08 158.644 31.2 158.031 31.44C157.431 31.68 156.904 32.02 156.451 32.46C156.011 32.9 155.664 33.42 155.411 34.02C155.171 34.62 155.051 35.28 155.051 36C155.051 36.72 155.171 37.38 155.411 37.98C155.664 38.58 156.011 39.1 156.451 39.54C156.904 39.98 157.431 40.32 158.031 40.56C158.644 40.8 159.317 40.92 160.051 40.92C160.784 40.92 161.464 40.7867 162.091 40.52C162.717 40.24 163.284 39.82 163.791 39.26L165.471 40.86C164.817 41.62 164.017 42.2 163.071 42.6C162.124 43 161.071 43.2 159.911 43.2ZM172.332 43.14C171.145 43.14 170.105 42.9067 169.212 42.44C168.332 41.96 167.645 41.3067 167.152 40.48C166.672 39.6533 166.432 38.7133 166.432 37.66C166.432 36.5933 166.665 35.6533 167.132 34.84C167.612 34.0133 168.265 33.3667 169.092 32.9C169.932 32.4333 170.885 32.2 171.952 32.2C172.992 32.2 173.919 32.4267 174.732 32.88C175.545 33.3333 176.185 33.9733 176.652 34.8C177.119 35.6267 177.352 36.6 177.352 37.72C177.352 37.8267 177.345 37.9467 177.332 38.08C177.332 38.2133 177.325 38.34 177.312 38.46H168.412V36.8H175.992L175.012 37.32C175.025 36.7067 174.899 36.1667 174.632 35.7C174.365 35.2333 173.999 34.8667 173.532 34.6C173.079 34.3333 172.552 34.2 171.952 34.2C171.339 34.2 170.799 34.3333 170.332 34.6C169.879 34.8667 169.519 35.24 169.252 35.72C168.999 36.1867 168.872 36.74 168.872 37.38V37.78C168.872 38.42 169.019 38.9867 169.312 39.48C169.605 39.9733 170.019 40.3533 170.552 40.62C171.085 40.8867 171.699 41.02 172.392 41.02C172.992 41.02 173.532 40.9267 174.012 40.74C174.492 40.5533 174.919 40.26 175.292 39.86L176.632 41.4C176.152 41.96 175.545 42.3933 174.812 42.7C174.092 42.9933 173.265 43.14 172.332 43.14ZM185.673 43.14C184.807 43.14 184.013 42.94 183.293 42.54C182.587 42.14 182.02 41.54 181.593 40.74C181.18 39.9267 180.973 38.9 180.973 37.66C180.973 36.4067 181.173 35.38 181.573 34.58C181.987 33.78 182.547 33.1867 183.253 32.8C183.96 32.4 184.767 32.2 185.673 32.2C186.727 32.2 187.653 32.4267 188.453 32.88C189.267 33.3333 189.907 33.9667 190.373 34.78C190.853 35.5933 191.093 36.5533 191.093 37.66C191.093 38.7667 190.853 39.7333 190.373 40.56C189.907 41.3733 189.267 42.0067 188.453 42.46C187.653 42.9133 186.727 43.14 185.673 43.14ZM179.753 46.88V32.32H182.133V34.84L182.053 37.68L182.253 40.52V46.88H179.753ZM185.393 41C185.993 41 186.527 40.8667 186.993 40.6C187.473 40.3333 187.853 39.9467 188.133 39.44C188.413 38.9333 188.553 38.34 188.553 37.66C188.553 36.9667 188.413 36.3733 188.133 35.88C187.853 35.3733 187.473 34.9867 186.993 34.72C186.527 34.4533 185.993 34.32 185.393 34.32C184.793 34.32 184.253 34.4533 183.773 34.72C183.293 34.9867 182.913 35.3733 182.633 35.88C182.353 36.3733 182.213 36.9667 182.213 37.66C182.213 38.34 182.353 38.9333 182.633 39.44C182.913 39.9467 183.293 40.3333 183.773 40.6C184.253 40.8667 184.793 41 185.393 41ZM199.908 43V40.84L199.768 40.38V36.6C199.768 35.8667 199.548 35.3 199.108 34.9C198.668 34.4867 198.001 34.28 197.108 34.28C196.508 34.28 195.914 34.3733 195.328 34.56C194.754 34.7467 194.268 35.0067 193.868 35.34L192.888 33.52C193.461 33.08 194.141 32.7533 194.928 32.54C195.728 32.3133 196.554 32.2 197.408 32.2C198.954 32.2 200.148 32.5733 200.988 33.32C201.841 34.0533 202.268 35.1933 202.268 36.74V43H199.908ZM196.548 43.14C195.748 43.14 195.048 43.0067 194.448 42.74C193.848 42.46 193.381 42.08 193.048 41.6C192.728 41.1067 192.568 40.5533 192.568 39.94C192.568 39.34 192.708 38.8 192.988 38.32C193.281 37.84 193.754 37.46 194.408 37.18C195.061 36.9 195.928 36.76 197.008 36.76H200.108V38.42H197.188C196.334 38.42 195.761 38.56 195.468 38.84C195.174 39.1067 195.028 39.44 195.028 39.84C195.028 40.2933 195.208 40.6533 195.568 40.92C195.928 41.1867 196.428 41.32 197.068 41.32C197.681 41.32 198.228 41.18 198.708 40.9C199.201 40.62 199.554 40.2067 199.768 39.66L200.188 41.16C199.948 41.7867 199.514 42.2733 198.888 42.62C198.274 42.9667 197.494 43.14 196.548 43.14ZM209.496 43.14C208.323 43.14 207.416 42.84 206.776 42.24C206.136 41.6267 205.816 40.7267 205.816 39.54V29.96H208.316V39.48C208.316 39.9867 208.443 40.38 208.696 40.66C208.963 40.94 209.329 41.08 209.796 41.08C210.356 41.08 210.823 40.9333 211.196 40.64L211.896 42.42C211.603 42.66 211.243 42.84 210.816 42.96C210.389 43.08 209.949 43.14 209.496 43.14ZM204.056 34.4V32.4H211.176V34.4H204.056Z" fill="white"/>
<path d="M18.365 84V74.9H22.2C23.1707 74.9 24.0243 75.0907 24.761 75.472C25.5063 75.8533 26.0827 76.3863 26.49 77.071C26.906 77.7557 27.114 78.5487 27.114 79.45C27.114 80.3513 26.906 81.1443 26.49 81.829C26.0827 82.5137 25.5063 83.0467 24.761 83.428C24.0243 83.8093 23.1707 84 22.2 84H18.365ZM19.665 82.869H22.122C22.876 82.869 23.526 82.726 24.072 82.44C24.6267 82.154 25.0557 81.7553 25.359 81.244C25.6623 80.724 25.814 80.126 25.814 79.45C25.814 78.7653 25.6623 78.1673 25.359 77.656C25.0557 77.1447 24.6267 76.746 24.072 76.46C23.526 76.174 22.876 76.031 22.122 76.031H19.665V82.869ZM31.9912 84.078C31.2546 84.078 30.6046 83.9263 30.0412 83.623C29.4866 83.3197 29.0532 82.9037 28.7412 82.375C28.4379 81.8463 28.2862 81.2397 28.2862 80.555C28.2862 79.8703 28.4336 79.2637 28.7282 78.735C29.0316 78.2063 29.4432 77.7947 29.9632 77.5C30.4919 77.1967 31.0856 77.045 31.7442 77.045C32.4116 77.045 33.0009 77.1923 33.5122 77.487C34.0236 77.7817 34.4222 78.1977 34.7082 78.735C35.0029 79.2637 35.1502 79.8833 35.1502 80.594C35.1502 80.646 35.1459 80.7067 35.1372 80.776C35.1372 80.8453 35.1329 80.9103 35.1242 80.971H29.2612V80.074H34.4742L33.9672 80.386C33.9759 79.944 33.8849 79.5497 33.6942 79.203C33.5036 78.8563 33.2392 78.5877 32.9012 78.397C32.5719 78.1977 32.1862 78.098 31.7442 78.098C31.3109 78.098 30.9252 78.1977 30.5872 78.397C30.2492 78.5877 29.9849 78.8607 29.7942 79.216C29.6036 79.5627 29.5082 79.9613 29.5082 80.412V80.62C29.5082 81.0793 29.6122 81.491 29.8202 81.855C30.0369 82.2103 30.3359 82.4877 30.7172 82.687C31.0986 82.8863 31.5362 82.986 32.0302 82.986C32.4376 82.986 32.8059 82.9167 33.1352 82.778C33.4732 82.6393 33.7679 82.4313 34.0192 82.154L34.7082 82.96C34.3962 83.324 34.0062 83.6013 33.5382 83.792C33.0789 83.9827 32.5632 84.078 31.9912 84.078ZM40.5622 77.045C41.1255 77.045 41.6195 77.1533 42.0442 77.37C42.4775 77.5867 42.8155 77.916 43.0582 78.358C43.3009 78.8 43.4222 79.359 43.4222 80.035V84H42.1742V80.178C42.1742 79.5107 42.0095 79.008 41.6802 78.67C41.3595 78.332 40.9045 78.163 40.3152 78.163C39.8732 78.163 39.4875 78.2497 39.1582 78.423C38.8289 78.5963 38.5732 78.852 38.3912 79.19C38.2179 79.528 38.1312 79.9483 38.1312 80.451V84H36.8832V77.11H38.0792V78.969L37.8842 78.475C38.1095 78.0243 38.4562 77.6733 38.9242 77.422C39.3922 77.1707 39.9382 77.045 40.5622 77.045ZM48.7478 86.6C48.1152 86.6 47.4998 86.509 46.9018 86.327C46.3125 86.1537 45.8315 85.9023 45.4588 85.573L46.0568 84.611C46.3775 84.8883 46.7718 85.105 47.2398 85.261C47.7078 85.4257 48.1975 85.508 48.7088 85.508C49.5235 85.508 50.1215 85.3173 50.5028 84.936C50.8842 84.5547 51.0748 83.974 51.0748 83.194V81.738L51.2048 80.373L51.1398 78.995V77.11H52.3228V83.064C52.3228 84.2773 52.0195 85.17 51.4128 85.742C50.8062 86.314 49.9178 86.6 48.7478 86.6ZM48.5918 83.714C47.9245 83.714 47.3265 83.5753 46.7978 83.298C46.2778 83.012 45.8618 82.6177 45.5498 82.115C45.2465 81.6123 45.0948 81.0317 45.0948 80.373C45.0948 79.7057 45.2465 79.125 45.5498 78.631C45.8618 78.1283 46.2778 77.7383 46.7978 77.461C47.3265 77.1837 47.9245 77.045 48.5918 77.045C49.1812 77.045 49.7185 77.1663 50.2038 77.409C50.6892 77.643 51.0748 78.007 51.3608 78.501C51.6555 78.995 51.8028 79.619 51.8028 80.373C51.8028 81.1183 51.6555 81.738 51.3608 82.232C51.0748 82.726 50.6892 83.0987 50.2038 83.35C49.7185 83.5927 49.1812 83.714 48.5918 83.714ZM48.7348 82.622C49.1942 82.622 49.6015 82.5267 49.9568 82.336C50.3122 82.1453 50.5895 81.881 50.7888 81.543C50.9968 81.205 51.1008 80.815 51.1008 80.373C51.1008 79.931 50.9968 79.541 50.7888 79.203C50.5895 78.865 50.3122 78.605 49.9568 78.423C49.6015 78.2323 49.1942 78.137 48.7348 78.137C48.2755 78.137 47.8638 78.2323 47.4998 78.423C47.1445 78.605 46.8628 78.865 46.6548 79.203C46.4555 79.541 46.3558 79.931 46.3558 80.373C46.3558 80.815 46.4555 81.205 46.6548 81.543C46.8628 81.881 47.1445 82.1453 47.4998 82.336C47.8638 82.5267 48.2755 82.622 48.7348 82.622ZM58.9844 84V82.544L58.9194 82.271V79.788C58.9194 79.2593 58.7634 78.852 58.4514 78.566C58.1481 78.2713 57.6887 78.124 57.0734 78.124C56.6661 78.124 56.2674 78.1933 55.8774 78.332C55.4874 78.462 55.1581 78.6397 54.8894 78.865L54.3694 77.929C54.7247 77.643 55.1494 77.4263 55.6434 77.279C56.1461 77.123 56.6704 77.045 57.2164 77.045C58.1611 77.045 58.8891 77.2747 59.4004 77.734C59.9117 78.1933 60.1674 78.8953 60.1674 79.84V84H58.9844ZM56.7224 84.078C56.2111 84.078 55.7604 83.9913 55.3704 83.818C54.9891 83.6447 54.6944 83.4063 54.4864 83.103C54.2784 82.791 54.1744 82.44 54.1744 82.05C54.1744 81.6773 54.2611 81.3393 54.4344 81.036C54.6164 80.7327 54.9067 80.49 55.3054 80.308C55.7127 80.126 56.2587 80.035 56.9434 80.035H59.1274V80.932H56.9954C56.3714 80.932 55.9511 81.036 55.7344 81.244C55.5177 81.452 55.4094 81.7033 55.4094 81.998C55.4094 82.336 55.5437 82.609 55.8124 82.817C56.0811 83.0163 56.4537 83.116 56.9304 83.116C57.3984 83.116 57.8057 83.012 58.1524 82.804C58.5077 82.596 58.7634 82.2927 58.9194 81.894L59.1664 82.752C59.0017 83.1593 58.7114 83.4843 58.2954 83.727C57.8794 83.961 57.3551 84.078 56.7224 84.078ZM66.1559 77.045C66.7193 77.045 67.2133 77.1533 67.6379 77.37C68.0713 77.5867 68.4093 77.916 68.6519 78.358C68.8946 78.8 69.0159 79.359 69.0159 80.035V84H67.7679V80.178C67.7679 79.5107 67.6033 79.008 67.2739 78.67C66.9533 78.332 66.4983 78.163 65.9089 78.163C65.4669 78.163 65.0813 78.2497 64.7519 78.423C64.4226 78.5963 64.1669 78.852 63.9849 79.19C63.8116 79.528 63.7249 79.9483 63.7249 80.451V84H62.4769V77.11H63.6729V78.969L63.4779 78.475C63.7033 78.0243 64.0499 77.6733 64.5179 77.422C64.9859 77.1707 65.5319 77.045 66.1559 77.045ZM74.9988 84V76.499C74.9988 75.823 75.1938 75.2857 75.5838 74.887C75.9825 74.4797 76.5458 74.276 77.2738 74.276C77.5425 74.276 77.7981 74.3107 78.0408 74.38C78.2921 74.4407 78.5045 74.5403 78.6778 74.679L78.3008 75.628C78.1708 75.524 78.0235 75.446 77.8588 75.394C77.6941 75.3333 77.5208 75.303 77.3388 75.303C76.9748 75.303 76.6975 75.407 76.5068 75.615C76.3161 75.8143 76.2208 76.1133 76.2208 76.512V77.435L76.2468 78.007V84H74.9988ZM73.8288 78.137V77.11H78.2228V78.137H73.8288ZM79.4058 84V77.11H80.6538V84H79.4058ZM80.0298 75.784C79.7871 75.784 79.5835 75.706 79.4188 75.55C79.2628 75.394 79.1848 75.2033 79.1848 74.978C79.1848 74.744 79.2628 74.549 79.4188 74.393C79.5835 74.237 79.7871 74.159 80.0298 74.159C80.2725 74.159 80.4718 74.237 80.6278 74.393C80.7925 74.5403 80.8748 74.7267 80.8748 74.952C80.8748 75.186 80.7968 75.3853 80.6408 75.55C80.4848 75.706 80.2811 75.784 80.0298 75.784ZM85.3967 84.078C84.7033 84.078 84.166 83.8917 83.7847 83.519C83.4033 83.1463 83.2127 82.6133 83.2127 81.92V75.602H84.4607V81.868C84.4607 82.2407 84.5517 82.5267 84.7337 82.726C84.9243 82.9253 85.193 83.025 85.5397 83.025C85.9297 83.025 86.2547 82.9167 86.5147 82.7L86.9047 83.597C86.714 83.7617 86.4843 83.883 86.2157 83.961C85.9557 84.039 85.6827 84.078 85.3967 84.078ZM82.0427 78.137V77.11H86.4367V78.137H82.0427ZM91.3125 84.078C90.7231 84.078 90.2031 83.9697 89.7525 83.753C89.3105 83.5363 88.9638 83.207 88.7125 82.765C88.4698 82.3143 88.3485 81.751 88.3485 81.075V77.11H89.5965V80.932C89.5965 81.608 89.7568 82.115 90.0775 82.453C90.4068 82.791 90.8661 82.96 91.4555 82.96C91.8888 82.96 92.2658 82.8733 92.5865 82.7C92.9071 82.518 93.1541 82.258 93.3275 81.92C93.5008 81.5733 93.5875 81.1573 93.5875 80.672V77.11H94.8355V84H93.6525V82.141L93.8475 82.635C93.6221 83.0943 93.2841 83.4497 92.8335 83.701C92.3828 83.9523 91.8758 84.078 91.3125 84.078ZM97.2113 84V77.11H98.4073V78.982L98.2903 78.514C98.481 78.0373 98.8017 77.6733 99.2523 77.422C99.703 77.1707 100.258 77.045 100.916 77.045V78.254C100.864 78.2453 100.812 78.241 100.76 78.241C100.717 78.241 100.674 78.241 100.63 78.241C99.963 78.241 99.4343 78.4403 99.0443 78.839C98.6543 79.2377 98.4593 79.814 98.4593 80.568V84H97.2113ZM107.049 82.336L107.075 80.737L111.04 77.11H112.548L109.506 80.1L108.83 80.672L107.049 82.336ZM106.035 84V74.354H107.283V84H106.035ZM111.3 84L108.596 80.646L109.402 79.645L112.834 84H111.3ZM116.717 84.078C116.024 84.078 115.408 83.9263 114.871 83.623C114.334 83.3197 113.909 82.9037 113.597 82.375C113.285 81.8377 113.129 81.231 113.129 80.555C113.129 79.8703 113.285 79.2637 113.597 78.735C113.909 78.2063 114.334 77.7947 114.871 77.5C115.408 77.1967 116.024 77.045 116.717 77.045C117.402 77.045 118.013 77.1967 118.55 77.5C119.096 77.7947 119.521 78.2063 119.824 78.735C120.136 79.255 120.292 79.8617 120.292 80.555C120.292 81.2397 120.136 81.8463 119.824 82.375C119.521 82.9037 119.096 83.3197 118.55 83.623C118.013 83.9263 117.402 84.078 116.717 84.078ZM116.717 82.986C117.159 82.986 117.553 82.8863 117.9 82.687C118.255 82.4877 118.533 82.206 118.732 81.842C118.931 81.4693 119.031 81.0403 119.031 80.555C119.031 80.061 118.931 79.6363 118.732 79.281C118.533 78.917 118.255 78.6353 117.9 78.436C117.553 78.2367 117.159 78.137 116.717 78.137C116.275 78.137 115.881 78.2367 115.534 78.436C115.187 78.6353 114.91 78.917 114.702 79.281C114.494 79.6363 114.39 80.061 114.39 80.555C114.39 81.0403 114.494 81.4693 114.702 81.842C114.91 82.206 115.187 82.4877 115.534 82.687C115.881 82.8863 116.275 82.986 116.717 82.986ZM125.697 77.045C126.26 77.045 126.754 77.1533 127.179 77.37C127.612 77.5867 127.95 77.916 128.193 78.358C128.436 78.8 128.557 79.359 128.557 80.035V84H127.309V80.178C127.309 79.5107 127.144 79.008 126.815 78.67C126.494 78.332 126.039 78.163 125.45 78.163C125.008 78.163 124.622 78.2497 124.293 78.423C123.964 78.5963 123.708 78.852 123.526 79.19C123.353 79.528 123.266 79.9483 123.266 80.451V84H122.018V77.11H123.214V78.969L123.019 78.475C123.244 78.0243 123.591 77.6733 124.059 77.422C124.527 77.1707 125.073 77.045 125.697 77.045ZM133.233 84.078C132.539 84.078 132.002 83.8917 131.621 83.519C131.239 83.1463 131.049 82.6133 131.049 81.92V75.602H132.297V81.868C132.297 82.2407 132.388 82.5267 132.57 82.726C132.76 82.9253 133.029 83.025 133.376 83.025C133.766 83.025 134.091 82.9167 134.351 82.7L134.741 83.597C134.55 83.7617 134.32 83.883 134.052 83.961C133.792 84.039 133.519 84.078 133.233 84.078ZM129.879 78.137V77.11H134.273V78.137H129.879ZM140.526 84V82.544L140.461 82.271V79.788C140.461 79.2593 140.305 78.852 139.993 78.566C139.69 78.2713 139.231 78.124 138.615 78.124C138.208 78.124 137.809 78.1933 137.419 78.332C137.029 78.462 136.7 78.6397 136.431 78.865L135.911 77.929C136.267 77.643 136.691 77.4263 137.185 77.279C137.688 77.123 138.212 77.045 138.758 77.045C139.703 77.045 140.431 77.2747 140.942 77.734C141.454 78.1933 141.709 78.8953 141.709 79.84V84H140.526ZM138.264 84.078C137.753 84.078 137.302 83.9913 136.912 83.818C136.531 83.6447 136.236 83.4063 136.028 83.103C135.82 82.791 135.716 82.44 135.716 82.05C135.716 81.6773 135.803 81.3393 135.976 81.036C136.158 80.7327 136.449 80.49 136.847 80.308C137.255 80.126 137.801 80.035 138.485 80.035H140.669V80.932H138.537C137.913 80.932 137.493 81.036 137.276 81.244C137.06 81.452 136.951 81.7033 136.951 81.998C136.951 82.336 137.086 82.609 137.354 82.817C137.623 83.0163 137.996 83.116 138.472 83.116C138.94 83.116 139.348 83.012 139.694 82.804C140.05 82.596 140.305 82.2927 140.461 81.894L140.708 82.752C140.544 83.1593 140.253 83.4843 139.837 83.727C139.421 83.961 138.897 84.078 138.264 84.078ZM145.033 82.336L145.059 80.737L149.024 77.11H150.532L147.49 80.1L146.814 80.672L145.033 82.336ZM144.019 84V74.354H145.267V84H144.019ZM149.284 84L146.58 80.646L147.386 79.645L150.818 84H149.284ZM158.368 84.078C157.701 84.078 157.103 83.9307 156.574 83.636C156.054 83.3413 155.642 82.9297 155.339 82.401C155.036 81.8723 154.884 81.257 154.884 80.555C154.884 79.853 155.036 79.242 155.339 78.722C155.642 78.1933 156.054 77.7817 156.574 77.487C157.103 77.1923 157.701 77.045 158.368 77.045C158.949 77.045 159.473 77.175 159.941 77.435C160.409 77.695 160.782 78.085 161.059 78.605C161.345 79.125 161.488 79.775 161.488 80.555C161.488 81.335 161.349 81.985 161.072 82.505C160.803 83.025 160.435 83.4193 159.967 83.688C159.499 83.948 158.966 84.078 158.368 84.078ZM158.472 82.986C158.905 82.986 159.295 82.8863 159.642 82.687C159.997 82.4877 160.275 82.206 160.474 81.842C160.682 81.4693 160.786 81.0403 160.786 80.555C160.786 80.061 160.682 79.6363 160.474 79.281C160.275 78.917 159.997 78.6353 159.642 78.436C159.295 78.2367 158.905 78.137 158.472 78.137C158.03 78.137 157.636 78.2367 157.289 78.436C156.942 78.6353 156.665 78.917 156.457 79.281C156.249 79.6363 156.145 80.061 156.145 80.555C156.145 81.0403 156.249 81.4693 156.457 81.842C156.665 82.206 156.942 82.4877 157.289 82.687C157.636 82.8863 158.03 82.986 158.472 82.986ZM160.825 84V82.141L160.903 80.542L160.773 78.943V74.354H162.021V84H160.825ZM168.659 84V82.544L168.594 82.271V79.788C168.594 79.2593 168.438 78.852 168.126 78.566C167.823 78.2713 167.364 78.124 166.748 78.124C166.341 78.124 165.942 78.1933 165.552 78.332C165.162 78.462 164.833 78.6397 164.564 78.865L164.044 77.929C164.4 77.643 164.824 77.4263 165.318 77.279C165.821 77.123 166.345 77.045 166.891 77.045C167.836 77.045 168.564 77.2747 169.075 77.734C169.587 78.1933 169.842 78.8953 169.842 79.84V84H168.659ZM166.397 84.078C165.886 84.078 165.435 83.9913 165.045 83.818C164.664 83.6447 164.369 83.4063 164.161 83.103C163.953 82.791 163.849 82.44 163.849 82.05C163.849 81.6773 163.936 81.3393 164.109 81.036C164.291 80.7327 164.582 80.49 164.98 80.308C165.388 80.126 165.934 80.035 166.618 80.035H168.802V80.932H166.67C166.046 80.932 165.626 81.036 165.409 81.244C165.193 81.452 165.084 81.7033 165.084 81.998C165.084 82.336 165.219 82.609 165.487 82.817C165.756 83.0163 166.129 83.116 166.605 83.116C167.073 83.116 167.481 83.012 167.827 82.804C168.183 82.596 168.438 82.2927 168.594 81.894L168.841 82.752C168.677 83.1593 168.386 83.4843 167.97 83.727C167.554 83.961 167.03 84.078 166.397 84.078ZM172.152 84V77.11H173.348V78.982L173.231 78.514C173.421 78.0373 173.742 77.6733 174.193 77.422C174.643 77.1707 175.198 77.045 175.857 77.045V78.254C175.805 78.2453 175.753 78.241 175.701 78.241C175.657 78.241 175.614 78.241 175.571 78.241C174.903 78.241 174.375 78.4403 173.985 78.839C173.595 79.2377 173.4 79.814 173.4 80.568V84H172.152ZM180.383 84.078C179.793 84.078 179.273 83.9697 178.823 83.753C178.381 83.5363 178.034 83.207 177.783 82.765C177.54 82.3143 177.419 81.751 177.419 81.075V77.11H178.667V80.932C178.667 81.608 178.827 82.115 179.148 82.453C179.477 82.791 179.936 82.96 180.526 82.96C180.959 82.96 181.336 82.8733 181.657 82.7C181.977 82.518 182.224 82.258 182.398 81.92C182.571 81.5733 182.658 81.1573 182.658 80.672V77.11H183.906V84H182.723V82.141L182.918 82.635C182.692 83.0943 182.354 83.4497 181.904 83.701C181.453 83.9523 180.946 84.078 180.383 84.078ZM186.282 84V77.11H187.478V78.982L187.361 78.514C187.551 78.0373 187.872 77.6733 188.323 77.422C188.773 77.1707 189.328 77.045 189.987 77.045V78.254C189.935 78.2453 189.883 78.241 189.831 78.241C189.787 78.241 189.744 78.241 189.701 78.241C189.033 78.241 188.505 78.4403 188.115 78.839C187.725 79.2377 187.53 79.814 187.53 80.568V84H186.282ZM195.294 84V82.544L195.229 82.271V79.788C195.229 79.2593 195.073 78.852 194.761 78.566C194.458 78.2713 193.998 78.124 193.383 78.124C192.976 78.124 192.577 78.1933 192.187 78.332C191.797 78.462 191.468 78.6397 191.199 78.865L190.679 77.929C191.034 77.643 191.459 77.4263 191.953 77.279C192.456 77.123 192.98 77.045 193.526 77.045C194.471 77.045 195.199 77.2747 195.71 77.734C196.221 78.1933 196.477 78.8953 196.477 79.84V84H195.294ZM193.032 84.078C192.521 84.078 192.07 83.9913 191.68 83.818C191.299 83.6447 191.004 83.4063 190.796 83.103C190.588 82.791 190.484 82.44 190.484 82.05C190.484 81.6773 190.571 81.3393 190.744 81.036C190.926 80.7327 191.216 80.49 191.615 80.308C192.022 80.126 192.568 80.035 193.253 80.035H195.437V80.932H193.305C192.681 80.932 192.261 81.036 192.044 81.244C191.827 81.452 191.719 81.7033 191.719 81.998C191.719 82.336 191.853 82.609 192.122 82.817C192.391 83.0163 192.763 83.116 193.24 83.116C193.708 83.116 194.115 83.012 194.462 82.804C194.817 82.596 195.073 82.2927 195.229 81.894L195.476 82.752C195.311 83.1593 195.021 83.4843 194.605 83.727C194.189 83.961 193.665 84.078 193.032 84.078ZM201.153 84.078C200.459 84.078 199.922 83.8917 199.541 83.519C199.159 83.1463 198.969 82.6133 198.969 81.92V75.602H200.217V81.868C200.217 82.2407 200.308 82.5267 200.49 82.726C200.68 82.9253 200.949 83.025 201.296 83.025C201.686 83.025 202.011 82.9167 202.271 82.7L202.661 83.597C202.47 83.7617 202.24 83.883 201.972 83.961C201.712 84.039 201.439 84.078 201.153 84.078ZM197.799 78.137V77.11H202.193V78.137H197.799ZM210.664 84.078C209.962 84.078 209.333 83.9263 208.779 83.623C208.233 83.3197 207.804 82.9037 207.492 82.375C207.18 81.8463 207.024 81.2397 207.024 80.555C207.024 79.8703 207.18 79.2637 207.492 78.735C207.804 78.2063 208.233 77.7947 208.779 77.5C209.333 77.1967 209.962 77.045 210.664 77.045C211.288 77.045 211.842 77.1707 212.328 77.422C212.822 77.6647 213.203 78.0287 213.472 78.514L212.523 79.125C212.297 78.787 212.02 78.54 211.691 78.384C211.37 78.2193 211.023 78.137 210.651 78.137C210.2 78.137 209.797 78.2367 209.442 78.436C209.086 78.6353 208.805 78.917 208.597 79.281C208.389 79.6363 208.285 80.061 208.285 80.555C208.285 81.049 208.389 81.478 208.597 81.842C208.805 82.206 209.086 82.4877 209.442 82.687C209.797 82.8863 210.2 82.986 210.651 82.986C211.023 82.986 211.37 82.908 211.691 82.752C212.02 82.5873 212.297 82.336 212.523 81.998L213.472 82.596C213.203 83.0727 212.822 83.441 212.328 83.701C211.842 83.9523 211.288 84.078 210.664 84.078ZM218.054 84.078C217.317 84.078 216.667 83.9263 216.104 83.623C215.549 83.3197 215.116 82.9037 214.804 82.375C214.5 81.8463 214.349 81.2397 214.349 80.555C214.349 79.8703 214.496 79.2637 214.791 78.735C215.094 78.2063 215.506 77.7947 216.026 77.5C216.554 77.1967 217.148 77.045 217.807 77.045C218.474 77.045 219.063 77.1923 219.575 77.487C220.086 77.7817 220.485 78.1977 220.771 78.735C221.065 79.2637 221.213 79.8833 221.213 80.594C221.213 80.646 221.208 80.7067 221.2 80.776C221.2 80.8453 221.195 80.9103 221.187 80.971H215.324V80.074H220.537L220.03 80.386C220.038 79.944 219.947 79.5497 219.757 79.203C219.566 78.8563 219.302 78.5877 218.964 78.397C218.634 78.1977 218.249 78.098 217.807 78.098C217.373 78.098 216.988 78.1977 216.65 78.397C216.312 78.5877 216.047 78.8607 215.857 79.216C215.666 79.5627 215.571 79.9613 215.571 80.412V80.62C215.571 81.0793 215.675 81.491 215.883 81.855C216.099 82.2103 216.398 82.4877 216.78 82.687C217.161 82.8863 217.599 82.986 218.093 82.986C218.5 82.986 218.868 82.9167 219.198 82.778C219.536 82.6393 219.83 82.4313 220.082 82.154L220.771 82.96C220.459 83.324 220.069 83.6013 219.601 83.792C219.141 83.9827 218.626 84.078 218.054 84.078ZM226.599 84.078C226.027 84.078 225.502 83.948 225.026 83.688C224.558 83.4193 224.181 83.025 223.895 82.505C223.617 81.985 223.479 81.335 223.479 80.555C223.479 79.775 223.613 79.125 223.882 78.605C224.159 78.085 224.532 77.695 225 77.435C225.476 77.175 226.009 77.045 226.599 77.045C227.275 77.045 227.873 77.1923 228.393 77.487C228.913 77.7817 229.324 78.1933 229.628 78.722C229.931 79.242 230.083 79.853 230.083 80.555C230.083 81.257 229.931 81.8723 229.628 82.401C229.324 82.9297 228.913 83.3413 228.393 83.636C227.873 83.9307 227.275 84.078 226.599 84.078ZM222.946 86.522V77.11H224.142V78.969L224.064 80.568L224.194 82.167V86.522H222.946ZM226.495 82.986C226.937 82.986 227.331 82.8863 227.678 82.687C228.033 82.4877 228.31 82.206 228.51 81.842C228.718 81.4693 228.822 81.0403 228.822 80.555C228.822 80.061 228.718 79.6363 228.51 79.281C228.31 78.917 228.033 78.6353 227.678 78.436C227.331 78.2367 226.937 78.137 226.495 78.137C226.061 78.137 225.667 78.2367 225.312 78.436C224.965 78.6353 224.688 78.917 224.48 79.281C224.28 79.6363 224.181 80.061 224.181 80.555C224.181 81.0403 224.28 81.4693 224.48 81.842C224.688 82.206 224.965 82.4877 225.312 82.687C225.667 82.8863 226.061 82.986 226.495 82.986ZM236.021 84V82.544L235.956 82.271V79.788C235.956 79.2593 235.8 78.852 235.488 78.566C235.184 78.2713 234.725 78.124 234.11 78.124C233.702 78.124 233.304 78.1933 232.914 78.332C232.524 78.462 232.194 78.6397 231.926 78.865L231.406 77.929C231.761 77.643 232.186 77.4263 232.68 77.279C233.182 77.123 233.707 77.045 234.253 77.045C235.197 77.045 235.925 77.2747 236.437 77.734C236.948 78.1933 237.204 78.8953 237.204 79.84V84H236.021ZM233.759 84.078C233.247 84.078 232.797 83.9913 232.407 83.818C232.025 83.6447 231.731 83.4063 231.523 83.103C231.315 82.791 231.211 82.44 231.211 82.05C231.211 81.6773 231.297 81.3393 231.471 81.036C231.653 80.7327 231.943 80.49 232.342 80.308C232.749 80.126 233.295 80.035 233.98 80.035H236.164V80.932H234.032C233.408 80.932 232.987 81.036 232.771 81.244C232.554 81.452 232.446 81.7033 232.446 81.998C232.446 82.336 232.58 82.609 232.849 82.817C233.117 83.0163 233.49 83.116 233.967 83.116C234.435 83.116 234.842 83.012 235.189 82.804C235.544 82.596 235.8 82.2927 235.956 81.894L236.203 82.752C236.038 83.1593 235.748 83.4843 235.332 83.727C234.916 83.961 234.391 84.078 233.759 84.078ZM241.879 84.078C241.186 84.078 240.648 83.8917 240.267 83.519C239.886 83.1463 239.695 82.6133 239.695 81.92V75.602H240.943V81.868C240.943 82.2407 241.034 82.5267 241.216 82.726C241.407 82.9253 241.675 83.025 242.022 83.025C242.412 83.025 242.737 82.9167 242.997 82.7L243.387 83.597C243.196 83.7617 242.967 83.883 242.698 83.961C242.438 84.039 242.165 84.078 241.879 84.078ZM238.525 78.137V77.11H242.919V78.137H238.525ZM244.529 85.924L245.179 83.298L245.348 84.052C245.097 84.052 244.884 83.974 244.711 83.818C244.546 83.662 244.464 83.4497 244.464 83.181C244.464 82.921 244.546 82.7087 244.711 82.544C244.884 82.3793 245.092 82.297 245.335 82.297C245.586 82.297 245.79 82.3837 245.946 82.557C246.102 82.7217 246.18 82.9297 246.18 83.181C246.18 83.2677 246.171 83.3543 246.154 83.441C246.145 83.519 246.124 83.6143 246.089 83.727C246.063 83.831 246.02 83.961 245.959 84.117L245.348 85.924H244.529ZM22.46 105V103.544L22.395 103.271V100.788C22.395 100.259 22.239 99.852 21.927 99.566C21.6237 99.2713 21.1643 99.124 20.549 99.124C20.1417 99.124 19.743 99.1933 19.353 99.332C18.963 99.462 18.6337 99.6397 18.365 99.865L17.845 98.929C18.2003 98.643 18.625 98.4263 19.119 98.279C19.6217 98.123 20.146 98.045 20.692 98.045C21.6367 98.045 22.3647 98.2747 22.876 98.734C23.3873 99.1933 23.643 99.8953 23.643 100.84V105H22.46ZM20.198 105.078C19.6867 105.078 19.236 104.991 18.846 104.818C18.4647 104.645 18.17 104.406 17.962 104.103C17.754 103.791 17.65 103.44 17.65 103.05C17.65 102.677 17.7367 102.339 17.91 102.036C18.092 101.733 18.3823 101.49 18.781 101.308C19.1883 101.126 19.7343 101.035 20.419 101.035H22.603V101.932H20.471C19.847 101.932 19.4267 102.036 19.21 102.244C18.9933 102.452 18.885 102.703 18.885 102.998C18.885 103.336 19.0193 103.609 19.288 103.817C19.5567 104.016 19.9293 104.116 20.406 104.116C20.874 104.116 21.2813 104.012 21.628 103.804C21.9833 103.596 22.239 103.293 22.395 102.894L22.642 103.752C22.4773 104.159 22.187 104.484 21.771 104.727C21.355 104.961 20.8307 105.078 20.198 105.078ZM29.6315 98.045C30.1949 98.045 30.6889 98.1533 31.1135 98.37C31.5469 98.5867 31.8849 98.916 32.1275 99.358C32.3702 99.8 32.4915 100.359 32.4915 101.035V105H31.2435V101.178C31.2435 100.511 31.0789 100.008 30.7495 99.67C30.4289 99.332 29.9739 99.163 29.3845 99.163C28.9425 99.163 28.5569 99.2497 28.2275 99.423C27.8982 99.5963 27.6425 99.852 27.4605 100.19C27.2872 100.528 27.2005 100.948 27.2005 101.451V105H25.9525V98.11H27.1485V99.969L26.9535 99.475C27.1789 99.0243 27.5255 98.6733 27.9935 98.422C28.4615 98.1707 29.0075 98.045 29.6315 98.045ZM37.6482 105.078C36.9808 105.078 36.3828 104.931 35.8542 104.636C35.3342 104.341 34.9225 103.93 34.6192 103.401C34.3158 102.872 34.1642 102.257 34.1642 101.555C34.1642 100.853 34.3158 100.242 34.6192 99.722C34.9225 99.1933 35.3342 98.7817 35.8542 98.487C36.3828 98.1923 36.9808 98.045 37.6482 98.045C38.2288 98.045 38.7532 98.175 39.2212 98.435C39.6892 98.695 40.0618 99.085 40.3392 99.605C40.6252 100.125 40.7682 100.775 40.7682 101.555C40.7682 102.335 40.6295 102.985 40.3522 103.505C40.0835 104.025 39.7152 104.419 39.2472 104.688C38.7792 104.948 38.2462 105.078 37.6482 105.078ZM37.7522 103.986C38.1855 103.986 38.5755 103.886 38.9222 103.687C39.2775 103.488 39.5548 103.206 39.7542 102.842C39.9622 102.469 40.0662 102.04 40.0662 101.555C40.0662 101.061 39.9622 100.636 39.7542 100.281C39.5548 99.917 39.2775 99.6353 38.9222 99.436C38.5755 99.2367 38.1855 99.137 37.7522 99.137C37.3102 99.137 36.9158 99.2367 36.5692 99.436C36.2225 99.6353 35.9452 99.917 35.7372 100.281C35.5292 100.636 35.4252 101.061 35.4252 101.555C35.4252 102.04 35.5292 102.469 35.7372 102.842C35.9452 103.206 36.2225 103.488 36.5692 103.687C36.9158 103.886 37.3102 103.986 37.7522 103.986ZM40.1052 105V103.141L40.1832 101.542L40.0532 99.943V95.354H41.3012V105H40.1052ZM47.9395 105V103.544L47.8745 103.271V100.788C47.8745 100.259 47.7185 99.852 47.4065 99.566C47.1032 99.2713 46.6438 99.124 46.0285 99.124C45.6212 99.124 45.2225 99.1933 44.8325 99.332C44.4425 99.462 44.1132 99.6397 43.8445 99.865L43.3245 98.929C43.6798 98.643 44.1045 98.4263 44.5985 98.279C45.1012 98.123 45.6255 98.045 46.1715 98.045C47.1162 98.045 47.8442 98.2747 48.3555 98.734C48.8668 99.1933 49.1225 99.8953 49.1225 100.84V105H47.9395ZM45.6775 105.078C45.1662 105.078 44.7155 104.991 44.3255 104.818C43.9442 104.645 43.6495 104.406 43.4415 104.103C43.2335 103.791 43.1295 103.44 43.1295 103.05C43.1295 102.677 43.2162 102.339 43.3895 102.036C43.5715 101.733 43.8618 101.49 44.2605 101.308C44.6678 101.126 45.2138 101.035 45.8985 101.035H48.0825V101.932H45.9505C45.3265 101.932 44.9062 102.036 44.6895 102.244C44.4728 102.452 44.3645 102.703 44.3645 102.998C44.3645 103.336 44.4988 103.609 44.7675 103.817C45.0362 104.016 45.4088 104.116 45.8855 104.116C46.3535 104.116 46.7608 104.012 47.1075 103.804C47.4628 103.596 47.7185 103.293 47.8745 102.894L48.1215 103.752C47.9568 104.159 47.6665 104.484 47.2505 104.727C46.8345 104.961 46.3102 105.078 45.6775 105.078ZM57.7702 105.078C57.1029 105.078 56.5049 104.931 55.9762 104.636C55.4562 104.341 55.0446 103.93 54.7412 103.401C54.4379 102.872 54.2862 102.257 54.2862 101.555C54.2862 100.853 54.4379 100.242 54.7412 99.722C55.0446 99.1933 55.4562 98.7817 55.9762 98.487C56.5049 98.1923 57.1029 98.045 57.7702 98.045C58.3509 98.045 58.8752 98.175 59.3432 98.435C59.8112 98.695 60.1839 99.085 60.4612 99.605C60.7472 100.125 60.8902 100.775 60.8902 101.555C60.8902 102.335 60.7516 102.985 60.4742 103.505C60.2056 104.025 59.8372 104.419 59.3692 104.688C58.9012 104.948 58.3682 105.078 57.7702 105.078ZM57.8742 103.986C58.3076 103.986 58.6976 103.886 59.0442 103.687C59.3996 103.488 59.6769 103.206 59.8762 102.842C60.0842 102.469 60.1882 102.04 60.1882 101.555C60.1882 101.061 60.0842 100.636 59.8762 100.281C59.6769 99.917 59.3996 99.6353 59.0442 99.436C58.6976 99.2367 58.3076 99.137 57.8742 99.137C57.4322 99.137 57.0379 99.2367 56.6912 99.436C56.3446 99.6353 56.0672 99.917 55.8592 100.281C55.6512 100.636 55.5472 101.061 55.5472 101.555C55.5472 102.04 55.6512 102.469 55.8592 102.842C56.0672 103.206 56.3446 103.488 56.6912 103.687C57.0379 103.886 57.4322 103.986 57.8742 103.986ZM60.2272 105V103.141L60.3052 101.542L60.1752 99.943V95.354H61.4232V105H60.2272ZM68.0616 105V103.544L67.9966 103.271V100.788C67.9966 100.259 67.8406 99.852 67.5286 99.566C67.2252 99.2713 66.7659 99.124 66.1506 99.124C65.7432 99.124 65.3446 99.1933 64.9546 99.332C64.5646 99.462 64.2352 99.6397 63.9666 99.865L63.4466 98.929C63.8019 98.643 64.2266 98.4263 64.7206 98.279C65.2232 98.123 65.7476 98.045 66.2936 98.045C67.2382 98.045 67.9662 98.2747 68.4776 98.734C68.9889 99.1933 69.2446 99.8953 69.2446 100.84V105H68.0616ZM65.7996 105.078C65.2882 105.078 64.8376 104.991 64.4476 104.818C64.0662 104.645 63.7716 104.406 63.5636 104.103C63.3556 103.791 63.2516 103.44 63.2516 103.05C63.2516 102.677 63.3382 102.339 63.5116 102.036C63.6936 101.733 63.9839 101.49 64.3826 101.308C64.7899 101.126 65.3359 101.035 66.0206 101.035H68.2046V101.932H66.0726C65.4486 101.932 65.0282 102.036 64.8116 102.244C64.5949 102.452 64.4866 102.703 64.4866 102.998C64.4866 103.336 64.6209 103.609 64.8896 103.817C65.1582 104.016 65.5309 104.116 66.0076 104.116C66.4756 104.116 66.8829 104.012 67.2296 103.804C67.5849 103.596 67.8406 103.293 67.9966 102.894L68.2436 103.752C68.0789 104.159 67.7886 104.484 67.3726 104.727C66.9566 104.961 66.4322 105.078 65.7996 105.078ZM75.2071 105.078C74.6351 105.078 74.1108 104.948 73.6341 104.688C73.1661 104.419 72.7891 104.025 72.5031 103.505C72.2258 102.985 72.0871 102.335 72.0871 101.555C72.0871 100.775 72.2214 100.125 72.4901 99.605C72.7674 99.085 73.1401 98.695 73.6081 98.435C74.0848 98.175 74.6178 98.045 75.2071 98.045C75.8831 98.045 76.4811 98.1923 77.0011 98.487C77.5211 98.7817 77.9328 99.1933 78.2361 99.722C78.5394 100.242 78.6911 100.853 78.6911 101.555C78.6911 102.257 78.5394 102.872 78.2361 103.401C77.9328 103.93 77.5211 104.341 77.0011 104.636C76.4811 104.931 75.8831 105.078 75.2071 105.078ZM71.5541 107.522V98.11H72.7501V99.969L72.6721 101.568L72.8021 103.167V107.522H71.5541ZM75.1031 103.986C75.5451 103.986 75.9394 103.886 76.2861 103.687C76.6414 103.488 76.9188 103.206 77.1181 102.842C77.3261 102.469 77.4301 102.04 77.4301 101.555C77.4301 101.061 77.3261 100.636 77.1181 100.281C76.9188 99.917 76.6414 99.6353 76.2861 99.436C75.9394 99.2367 75.5451 99.137 75.1031 99.137C74.6698 99.137 74.2754 99.2367 73.9201 99.436C73.5734 99.6353 73.2961 99.917 73.0881 100.281C72.8888 100.636 72.7891 101.061 72.7891 101.555C72.7891 102.04 72.8888 102.469 73.0881 102.842C73.2961 103.206 73.5734 103.488 73.9201 103.687C74.2754 103.886 74.6698 103.986 75.1031 103.986ZM84.6289 105V103.544L84.5639 103.271V100.788C84.5639 100.259 84.4079 99.852 84.0959 99.566C83.7926 99.2713 83.3333 99.124 82.7179 99.124C82.3106 99.124 81.9119 99.1933 81.5219 99.332C81.1319 99.462 80.8026 99.6397 80.5339 99.865L80.0139 98.929C80.3693 98.643 80.7939 98.4263 81.2879 98.279C81.7906 98.123 82.3149 98.045 82.8609 98.045C83.8056 98.045 84.5336 98.2747 85.0449 98.734C85.5563 99.1933 85.8119 99.8953 85.8119 100.84V105H84.6289ZM82.3669 105.078C81.8556 105.078 81.4049 104.991 81.0149 104.818C80.6336 104.645 80.3389 104.406 80.1309 104.103C79.9229 103.791 79.8189 103.44 79.8189 103.05C79.8189 102.677 79.9056 102.339 80.0789 102.036C80.2609 101.733 80.5513 101.49 80.9499 101.308C81.3573 101.126 81.9033 101.035 82.5879 101.035H84.7719V101.932H82.6399C82.0159 101.932 81.5956 102.036 81.3789 102.244C81.1623 102.452 81.0539 102.703 81.0539 102.998C81.0539 103.336 81.1883 103.609 81.4569 103.817C81.7256 104.016 82.0983 104.116 82.5749 104.116C83.0429 104.116 83.4503 104.012 83.7969 103.804C84.1523 103.596 84.4079 103.293 84.5639 102.894L84.8109 103.752C84.6463 104.159 84.3559 104.484 83.9399 104.727C83.5239 104.961 82.9996 105.078 82.3669 105.078ZM90.4875 105.078C89.7941 105.078 89.2568 104.892 88.8755 104.519C88.4941 104.146 88.3035 103.613 88.3035 102.92V96.602H89.5515V102.868C89.5515 103.241 89.6425 103.527 89.8245 103.726C90.0151 103.925 90.2838 104.025 90.6305 104.025C91.0205 104.025 91.3455 103.917 91.6055 103.7L91.9955 104.597C91.8048 104.762 91.5751 104.883 91.3065 104.961C91.0465 105.039 90.7735 105.078 90.4875 105.078ZM87.1335 99.137V98.11H91.5275V99.137H87.1335ZM105.615 98.045C106.169 98.045 106.659 98.1533 107.084 98.37C107.508 98.5867 107.838 98.916 108.072 99.358C108.314 99.8 108.436 100.359 108.436 101.035V105H107.188V101.178C107.188 100.511 107.032 100.008 106.72 99.67C106.408 99.332 105.97 99.163 105.407 99.163C104.991 99.163 104.627 99.2497 104.315 99.423C104.003 99.5963 103.76 99.852 103.587 100.19C103.422 100.528 103.34 100.948 103.34 101.451V105H102.092V101.178C102.092 100.511 101.936 100.008 101.624 99.67C101.32 99.332 100.883 99.163 100.311 99.163C99.9032 99.163 99.5435 99.2497 99.2315 99.423C98.9195 99.5963 98.6768 99.852 98.5035 100.19C98.3302 100.528 98.2435 100.948 98.2435 101.451V105H96.9955V98.11H98.1915V99.943L97.9965 99.475C98.2132 99.0243 98.5468 98.6733 98.9975 98.422C99.4482 98.1707 99.9725 98.045 100.571 98.045C101.229 98.045 101.797 98.2097 102.274 98.539C102.75 98.8597 103.062 99.3493 103.21 100.008L102.703 99.8C102.911 99.2713 103.275 98.8467 103.795 98.526C104.315 98.2053 104.921 98.045 105.615 98.045ZM113.8 105.078C113.063 105.078 112.413 104.926 111.85 104.623C111.295 104.32 110.862 103.904 110.55 103.375C110.246 102.846 110.095 102.24 110.095 101.555C110.095 100.87 110.242 100.264 110.537 99.735C110.84 99.2063 111.252 98.7947 111.772 98.5C112.3 98.1967 112.894 98.045 113.553 98.045C114.22 98.045 114.809 98.1923 115.321 98.487C115.832 98.7817 116.231 99.1977 116.517 99.735C116.811 100.264 116.959 100.883 116.959 101.594C116.959 101.646 116.954 101.707 116.946 101.776C116.946 101.845 116.941 101.91 116.933 101.971H111.07V101.074H116.283L115.776 101.386C115.784 100.944 115.693 100.55 115.503 100.203C115.312 99.8563 115.048 99.5877 114.71 99.397C114.38 99.1977 113.995 99.098 113.553 99.098C113.119 99.098 112.734 99.1977 112.396 99.397C112.058 99.5877 111.793 99.8607 111.603 100.216C111.412 100.563 111.317 100.961 111.317 101.412V101.62C111.317 102.079 111.421 102.491 111.629 102.855C111.845 103.21 112.144 103.488 112.526 103.687C112.907 103.886 113.345 103.986 113.839 103.986C114.246 103.986 114.614 103.917 114.944 103.778C115.282 103.639 115.576 103.431 115.828 103.154L116.517 103.96C116.205 104.324 115.815 104.601 115.347 104.792C114.887 104.983 114.372 105.078 113.8 105.078ZM122.371 98.045C122.934 98.045 123.428 98.1533 123.853 98.37C124.286 98.5867 124.624 98.916 124.867 99.358C125.109 99.8 125.231 100.359 125.231 101.035V105H123.983V101.178C123.983 100.511 123.818 100.008 123.489 99.67C123.168 99.332 122.713 99.163 122.124 99.163C121.682 99.163 121.296 99.2497 120.967 99.423C120.637 99.5963 120.382 99.852 120.2 100.19C120.026 100.528 119.94 100.948 119.94 101.451V105H118.692V98.11H119.888V99.969L119.693 99.475C119.918 99.0243 120.265 98.6733 120.733 98.422C121.201 98.1707 121.747 98.045 122.371 98.045ZM130.556 107.6C129.924 107.6 129.308 107.509 128.71 107.327C128.121 107.154 127.64 106.902 127.267 106.573L127.865 105.611C128.186 105.888 128.58 106.105 129.048 106.261C129.516 106.426 130.006 106.508 130.517 106.508C131.332 106.508 131.93 106.317 132.311 105.936C132.693 105.555 132.883 104.974 132.883 104.194V102.738L133.013 101.373L132.948 99.995V98.11H134.131V104.064C134.131 105.277 133.828 106.17 133.221 106.742C132.615 107.314 131.726 107.6 130.556 107.6ZM130.4 104.714C129.733 104.714 129.135 104.575 128.606 104.298C128.086 104.012 127.67 103.618 127.358 103.115C127.055 102.612 126.903 102.032 126.903 101.373C126.903 100.706 127.055 100.125 127.358 99.631C127.67 99.1283 128.086 98.7383 128.606 98.461C129.135 98.1837 129.733 98.045 130.4 98.045C130.99 98.045 131.527 98.1663 132.012 98.409C132.498 98.643 132.883 99.007 133.169 99.501C133.464 99.995 133.611 100.619 133.611 101.373C133.611 102.118 133.464 102.738 133.169 103.232C132.883 103.726 132.498 104.099 132.012 104.35C131.527 104.593 130.99 104.714 130.4 104.714ZM130.543 103.622C131.003 103.622 131.41 103.527 131.765 103.336C132.121 103.145 132.398 102.881 132.597 102.543C132.805 102.205 132.909 101.815 132.909 101.373C132.909 100.931 132.805 100.541 132.597 100.203C132.398 99.865 132.121 99.605 131.765 99.423C131.41 99.2323 131.003 99.137 130.543 99.137C130.084 99.137 129.672 99.2323 129.308 99.423C128.953 99.605 128.671 99.865 128.463 100.203C128.264 100.541 128.164 100.931 128.164 101.373C128.164 101.815 128.264 102.205 128.463 102.543C128.671 102.881 128.953 103.145 129.308 103.336C129.672 103.527 130.084 103.622 130.543 103.622ZM140.195 98.045C140.758 98.045 141.252 98.1533 141.677 98.37C142.11 98.5867 142.448 98.916 142.691 99.358C142.934 99.8 143.055 100.359 143.055 101.035V105H141.807V101.178C141.807 100.511 141.642 100.008 141.313 99.67C140.992 99.332 140.537 99.163 139.948 99.163C139.506 99.163 139.12 99.2497 138.791 99.423C138.462 99.5963 138.206 99.852 138.024 100.19C137.851 100.528 137.764 100.948 137.764 101.451V105H136.516V95.354H137.764V99.969L137.517 99.475C137.742 99.0243 138.089 98.6733 138.557 98.422C139.025 98.1707 139.571 98.045 140.195 98.045ZM148.264 105.078C147.674 105.078 147.154 104.97 146.704 104.753C146.262 104.536 145.915 104.207 145.664 103.765C145.421 103.314 145.3 102.751 145.3 102.075V98.11H146.548V101.932C146.548 102.608 146.708 103.115 147.029 103.453C147.358 103.791 147.817 103.96 148.407 103.96C148.84 103.96 149.217 103.873 149.538 103.7C149.858 103.518 150.105 103.258 150.279 102.92C150.452 102.573 150.539 102.157 150.539 101.672V98.11H151.787V105H150.604V103.141L150.799 103.635C150.573 104.094 150.235 104.45 149.785 104.701C149.334 104.952 148.827 105.078 148.264 105.078ZM157.815 105.078C157.226 105.078 156.693 104.948 156.216 104.688C155.748 104.419 155.376 104.025 155.098 103.505C154.83 102.985 154.695 102.335 154.695 101.555C154.695 100.775 154.834 100.125 155.111 99.605C155.397 99.085 155.774 98.695 156.242 98.435C156.719 98.175 157.243 98.045 157.815 98.045C158.491 98.045 159.089 98.1923 159.609 98.487C160.129 98.7817 160.541 99.1933 160.844 99.722C161.148 100.242 161.299 100.853 161.299 101.555C161.299 102.257 161.148 102.872 160.844 103.401C160.541 103.93 160.129 104.341 159.609 104.636C159.089 104.931 158.491 105.078 157.815 105.078ZM154.162 105V95.354H155.41V99.943L155.28 101.542L155.358 103.141V105H154.162ZM157.711 103.986C158.153 103.986 158.548 103.886 158.894 103.687C159.25 103.488 159.527 103.206 159.726 102.842C159.934 102.469 160.038 102.04 160.038 101.555C160.038 101.061 159.934 100.636 159.726 100.281C159.527 99.917 159.25 99.6353 158.894 99.436C158.548 99.2367 158.153 99.137 157.711 99.137C157.278 99.137 156.884 99.2367 156.528 99.436C156.182 99.6353 155.904 99.917 155.696 100.281C155.497 100.636 155.397 101.061 155.397 101.555C155.397 102.04 155.497 102.469 155.696 102.842C155.904 103.206 156.182 103.488 156.528 103.687C156.884 103.886 157.278 103.986 157.711 103.986ZM165.923 105.078C165.333 105.078 164.813 104.97 164.363 104.753C163.921 104.536 163.574 104.207 163.323 103.765C163.08 103.314 162.959 102.751 162.959 102.075V98.11H164.207V101.932C164.207 102.608 164.367 103.115 164.688 103.453C165.017 103.791 165.476 103.96 166.066 103.96C166.499 103.96 166.876 103.873 167.197 103.7C167.517 103.518 167.764 103.258 167.938 102.92C168.111 102.573 168.198 102.157 168.198 101.672V98.11H169.446V105H168.263V103.141L168.458 103.635C168.232 104.094 167.894 104.45 167.444 104.701C166.993 104.952 166.486 105.078 165.923 105.078ZM175.501 98.045C176.064 98.045 176.558 98.1533 176.983 98.37C177.416 98.5867 177.754 98.916 177.997 99.358C178.239 99.8 178.361 100.359 178.361 101.035V105H177.113V101.178C177.113 100.511 176.948 100.008 176.619 99.67C176.298 99.332 175.843 99.163 175.254 99.163C174.812 99.163 174.426 99.2497 174.097 99.423C173.767 99.5963 173.512 99.852 173.33 100.19C173.156 100.528 173.07 100.948 173.07 101.451V105H171.822V98.11H173.018V99.969L172.823 99.475C173.048 99.0243 173.395 98.6733 173.863 98.422C174.331 98.1707 174.877 98.045 175.501 98.045ZM183.686 107.6C183.054 107.6 182.438 107.509 181.84 107.327C181.251 107.154 180.77 106.902 180.397 106.573L180.995 105.611C181.316 105.888 181.71 106.105 182.178 106.261C182.646 106.426 183.136 106.508 183.647 106.508C184.462 106.508 185.06 106.317 185.441 105.936C185.823 105.555 186.013 104.974 186.013 104.194V102.738L186.143 101.373L186.078 99.995V98.11H187.261V104.064C187.261 105.277 186.958 106.17 186.351 106.742C185.745 107.314 184.856 107.6 183.686 107.6ZM183.53 104.714C182.863 104.714 182.265 104.575 181.736 104.298C181.216 104.012 180.8 103.618 180.488 103.115C180.185 102.612 180.033 102.032 180.033 101.373C180.033 100.706 180.185 100.125 180.488 99.631C180.8 99.1283 181.216 98.7383 181.736 98.461C182.265 98.1837 182.863 98.045 183.53 98.045C184.12 98.045 184.657 98.1663 185.142 98.409C185.628 98.643 186.013 99.007 186.299 99.501C186.594 99.995 186.741 100.619 186.741 101.373C186.741 102.118 186.594 102.738 186.299 103.232C186.013 103.726 185.628 104.099 185.142 104.35C184.657 104.593 184.12 104.714 183.53 104.714ZM183.673 103.622C184.133 103.622 184.54 103.527 184.895 103.336C185.251 103.145 185.528 102.881 185.727 102.543C185.935 102.205 186.039 101.815 186.039 101.373C186.039 100.931 185.935 100.541 185.727 100.203C185.528 99.865 185.251 99.605 184.895 99.423C184.54 99.2323 184.133 99.137 183.673 99.137C183.214 99.137 182.802 99.2323 182.438 99.423C182.083 99.605 181.801 99.865 181.593 100.203C181.394 100.541 181.294 100.931 181.294 101.373C181.294 101.815 181.394 102.205 181.593 102.543C181.801 102.881 182.083 103.145 182.438 103.336C182.802 103.527 183.214 103.622 183.673 103.622ZM189.646 105V98.11H190.894V105H189.646ZM190.27 96.784C190.027 96.784 189.824 96.706 189.659 96.55C189.503 96.394 189.425 96.2033 189.425 95.978C189.425 95.744 189.503 95.549 189.659 95.393C189.824 95.237 190.027 95.159 190.27 95.159C190.513 95.159 190.712 95.237 190.868 95.393C191.033 95.5403 191.115 95.7267 191.115 95.952C191.115 96.186 191.037 96.3853 190.881 96.55C190.725 96.706 190.521 96.784 190.27 96.784ZM196.768 105V95.354H198.016V105H196.768ZM204.676 105V103.544L204.611 103.271V100.788C204.611 100.259 204.455 99.852 204.143 99.566C203.839 99.2713 203.38 99.124 202.765 99.124C202.357 99.124 201.959 99.1933 201.569 99.332C201.179 99.462 200.849 99.6397 200.581 99.865L200.061 98.929C200.416 98.643 200.841 98.4263 201.335 98.279C201.837 98.123 202.362 98.045 202.908 98.045C203.852 98.045 204.58 98.2747 205.092 98.734C205.603 99.1933 205.859 99.8953 205.859 100.84V105H204.676ZM202.414 105.078C201.902 105.078 201.452 104.991 201.062 104.818C200.68 104.645 200.386 104.406 200.178 104.103C199.97 103.791 199.866 103.44 199.866 103.05C199.866 102.677 199.952 102.339 200.126 102.036C200.308 101.733 200.598 101.49 200.997 101.308C201.404 101.126 201.95 101.035 202.635 101.035H204.819V101.932H202.687C202.063 101.932 201.642 102.036 201.426 102.244C201.209 102.452 201.101 102.703 201.101 102.998C201.101 103.336 201.235 103.609 201.504 103.817C201.772 104.016 202.145 104.116 202.622 104.116C203.09 104.116 203.497 104.012 203.844 103.804C204.199 103.596 204.455 103.293 204.611 102.894L204.858 103.752C204.693 104.159 204.403 104.484 203.987 104.727C203.571 104.961 203.046 105.078 202.414 105.078ZM208.34 107.6C208.011 107.6 207.69 107.544 207.378 107.431C207.066 107.327 206.798 107.171 206.572 106.963L207.105 106.027C207.279 106.192 207.469 106.317 207.677 106.404C207.885 106.491 208.106 106.534 208.34 106.534C208.644 106.534 208.895 106.456 209.094 106.3C209.294 106.144 209.48 105.867 209.653 105.468L210.082 104.519L210.212 104.363L212.916 98.11H214.138L210.797 105.689C210.598 106.174 210.373 106.556 210.121 106.833C209.879 107.11 209.61 107.305 209.315 107.418C209.021 107.539 208.696 107.6 208.34 107.6ZM209.978 105.221L206.832 98.11H208.132L210.81 104.246L209.978 105.221ZM219.364 105V103.544L219.299 103.271V100.788C219.299 100.259 219.143 99.852 218.831 99.566C218.528 99.2713 218.069 99.124 217.453 99.124C217.046 99.124 216.647 99.1933 216.257 99.332C215.867 99.462 215.538 99.6397 215.269 99.865L214.749 98.929C215.105 98.643 215.529 98.4263 216.023 98.279C216.526 98.123 217.05 98.045 217.596 98.045C218.541 98.045 219.269 98.2747 219.78 98.734C220.292 99.1933 220.547 99.8953 220.547 100.84V105H219.364ZM217.102 105.078C216.591 105.078 216.14 104.991 215.75 104.818C215.369 104.645 215.074 104.406 214.866 104.103C214.658 103.791 214.554 103.44 214.554 103.05C214.554 102.677 214.641 102.339 214.814 102.036C214.996 101.733 215.287 101.49 215.685 101.308C216.093 101.126 216.639 101.035 217.323 101.035H219.507V101.932H217.375C216.751 101.932 216.331 102.036 216.114 102.244C215.898 102.452 215.789 102.703 215.789 102.998C215.789 103.336 215.924 103.609 216.192 103.817C216.461 104.016 216.834 104.116 217.31 104.116C217.778 104.116 218.186 104.012 218.532 103.804C218.888 103.596 219.143 103.293 219.299 102.894L219.546 103.752C219.382 104.159 219.091 104.484 218.675 104.727C218.259 104.961 217.735 105.078 217.102 105.078ZM226.536 98.045C227.099 98.045 227.593 98.1533 228.018 98.37C228.451 98.5867 228.789 98.916 229.032 99.358C229.274 99.8 229.396 100.359 229.396 101.035V105H228.148V101.178C228.148 100.511 227.983 100.008 227.654 99.67C227.333 99.332 226.878 99.163 226.289 99.163C225.847 99.163 225.461 99.2497 225.132 99.423C224.802 99.5963 224.547 99.852 224.365 100.19C224.191 100.528 224.105 100.948 224.105 101.451V105H222.857V98.11H224.053V99.969L223.858 99.475C224.083 99.0243 224.43 98.6733 224.898 98.422C225.366 98.1707 225.912 98.045 226.536 98.045ZM235.982 105V103.544L235.917 103.271V100.788C235.917 100.259 235.761 99.852 235.449 99.566C235.146 99.2713 234.687 99.124 234.071 99.124C233.664 99.124 233.265 99.1933 232.875 99.332C232.485 99.462 232.156 99.6397 231.887 99.865L231.367 98.929C231.723 98.643 232.147 98.4263 232.641 98.279C233.144 98.123 233.668 98.045 234.214 98.045C235.159 98.045 235.887 98.2747 236.398 98.734C236.91 99.1933 237.165 99.8953 237.165 100.84V105H235.982ZM233.72 105.078C233.209 105.078 232.758 104.991 232.368 104.818C231.987 104.645 231.692 104.406 231.484 104.103C231.276 103.791 231.172 103.44 231.172 103.05C231.172 102.677 231.259 102.339 231.432 102.036C231.614 101.733 231.905 101.49 232.303 101.308C232.711 101.126 233.257 101.035 233.941 101.035H236.125V101.932H233.993C233.369 101.932 232.949 102.036 232.732 102.244C232.516 102.452 232.407 102.703 232.407 102.998C232.407 103.336 232.542 103.609 232.81 103.817C233.079 104.016 233.452 104.116 233.928 104.116C234.396 104.116 234.804 104.012 235.15 103.804C235.506 103.596 235.761 103.293 235.917 102.894L236.164 103.752C236 104.159 235.709 104.484 235.293 104.727C234.877 104.961 234.353 105.078 233.72 105.078ZM243.154 98.045C243.717 98.045 244.211 98.1533 244.636 98.37C245.069 98.5867 245.407 98.916 245.65 99.358C245.893 99.8 246.014 100.359 246.014 101.035V105H244.766V101.178C244.766 100.511 244.601 100.008 244.272 99.67C243.951 99.332 243.496 99.163 242.907 99.163C242.465 99.163 242.079 99.2497 241.75 99.423C241.421 99.5963 241.165 99.852 240.983 100.19C240.81 100.528 240.723 100.948 240.723 101.451V105H239.475V98.11H240.671V99.969L240.476 99.475C240.701 99.0243 241.048 98.6733 241.516 98.422C241.984 98.1707 242.53 98.045 243.154 98.045ZM24.5212 126.078C23.8539 126.078 23.2559 125.931 22.7272 125.636C22.2072 125.341 21.7955 124.93 21.4922 124.401C21.1889 123.872 21.0372 123.257 21.0372 122.555C21.0372 121.853 21.1889 121.242 21.4922 120.722C21.7955 120.193 22.2072 119.782 22.7272 119.487C23.2559 119.192 23.8539 119.045 24.5212 119.045C25.1019 119.045 25.6262 119.175 26.0942 119.435C26.5622 119.695 26.9349 120.085 27.2122 120.605C27.4982 121.125 27.6412 121.775 27.6412 122.555C27.6412 123.335 27.5025 123.985 27.2252 124.505C26.9565 125.025 26.5882 125.419 26.1202 125.688C25.6522 125.948 25.1192 126.078 24.5212 126.078ZM24.6252 124.986C25.0585 124.986 25.4485 124.886 25.7952 124.687C26.1505 124.488 26.4279 124.206 26.6272 123.842C26.8352 123.469 26.9392 123.04 26.9392 122.555C26.9392 122.061 26.8352 121.636 26.6272 121.281C26.4279 120.917 26.1505 120.635 25.7952 120.436C25.4485 120.237 25.0585 120.137 24.6252 120.137C24.1832 120.137 23.7889 120.237 23.4422 120.436C23.0955 120.635 22.8182 120.917 22.6102 121.281C22.4022 121.636 22.2982 122.061 22.2982 122.555C22.2982 123.04 22.4022 123.469 22.6102 123.842C22.8182 124.206 23.0955 124.488 23.4422 124.687C23.7889 124.886 24.1832 124.986 24.6252 124.986ZM26.9782 126V124.141L27.0562 122.542L26.9262 120.943V116.354H28.1742V126H26.9782ZM34.8125 126V124.544L34.7475 124.271V121.788C34.7475 121.259 34.5915 120.852 34.2795 120.566C33.9762 120.271 33.5169 120.124 32.9015 120.124C32.4942 120.124 32.0955 120.193 31.7055 120.332C31.3155 120.462 30.9862 120.64 30.7175 120.865L30.1975 119.929C30.5529 119.643 30.9775 119.426 31.4715 119.279C31.9742 119.123 32.4985 119.045 33.0445 119.045C33.9892 119.045 34.7172 119.275 35.2285 119.734C35.7399 120.193 35.9955 120.895 35.9955 121.84V126H34.8125ZM32.5505 126.078C32.0392 126.078 31.5885 125.991 31.1985 125.818C30.8172 125.645 30.5225 125.406 30.3145 125.103C30.1065 124.791 30.0025 124.44 30.0025 124.05C30.0025 123.677 30.0892 123.339 30.2625 123.036C30.4445 122.733 30.7349 122.49 31.1335 122.308C31.5409 122.126 32.0869 122.035 32.7715 122.035H34.9555V122.932H32.8235C32.1995 122.932 31.7792 123.036 31.5625 123.244C31.3459 123.452 31.2375 123.703 31.2375 123.998C31.2375 124.336 31.3719 124.609 31.6405 124.817C31.9092 125.016 32.2819 125.116 32.7585 125.116C33.2265 125.116 33.6339 125.012 33.9805 124.804C34.3359 124.596 34.5915 124.293 34.7475 123.894L34.9945 124.752C34.8299 125.159 34.5395 125.484 34.1235 125.727C33.7075 125.961 33.1832 126.078 32.5505 126.078ZM38.3051 126V119.11H39.5011V120.982L39.3841 120.514C39.5747 120.037 39.8954 119.673 40.3461 119.422C40.7967 119.171 41.3514 119.045 42.0101 119.045V120.254C41.9581 120.245 41.9061 120.241 41.8541 120.241C41.8107 120.241 41.7674 120.241 41.7241 120.241C41.0567 120.241 40.5281 120.44 40.1381 120.839C39.7481 121.238 39.5531 121.814 39.5531 122.568V126H38.3051ZM46.5361 126.078C45.9468 126.078 45.4268 125.97 44.9761 125.753C44.5341 125.536 44.1874 125.207 43.9361 124.765C43.6934 124.314 43.5721 123.751 43.5721 123.075V119.11H44.8201V122.932C44.8201 123.608 44.9804 124.115 45.3011 124.453C45.6304 124.791 46.0898 124.96 46.6791 124.96C47.1124 124.96 47.4894 124.873 47.8101 124.7C48.1308 124.518 48.3778 124.258 48.5511 123.92C48.7244 123.573 48.8111 123.157 48.8111 122.672V119.11H50.0591V126H48.8761V124.141L49.0711 124.635C48.8458 125.094 48.5078 125.45 48.0571 125.701C47.6064 125.952 47.0994 126.078 46.5361 126.078ZM52.435 126V119.11H53.631V120.982L53.514 120.514C53.7046 120.037 54.0253 119.673 54.476 119.422C54.9266 119.171 55.4813 119.045 56.14 119.045V120.254C56.088 120.245 56.036 120.241 55.984 120.241C55.9406 120.241 55.8973 120.241 55.854 120.241C55.1866 120.241 54.658 120.44 54.268 120.839C53.878 121.238 53.683 121.814 53.683 122.568V126H52.435ZM61.4473 126V124.544L61.3823 124.271V121.788C61.3823 121.259 61.2263 120.852 60.9143 120.566C60.611 120.271 60.1516 120.124 59.5363 120.124C59.129 120.124 58.7303 120.193 58.3403 120.332C57.9503 120.462 57.621 120.64 57.3523 120.865L56.8323 119.929C57.1876 119.643 57.6123 119.426 58.1063 119.279C58.609 119.123 59.1333 119.045 59.6793 119.045C60.624 119.045 61.352 119.275 61.8633 119.734C62.3746 120.193 62.6303 120.895 62.6303 121.84V126H61.4473ZM59.1853 126.078C58.674 126.078 58.2233 125.991 57.8333 125.818C57.452 125.645 57.1573 125.406 56.9493 125.103C56.7413 124.791 56.6373 124.44 56.6373 124.05C56.6373 123.677 56.724 123.339 56.8973 123.036C57.0793 122.733 57.3696 122.49 57.7683 122.308C58.1756 122.126 58.7216 122.035 59.4063 122.035H61.5903V122.932H59.4583C58.8343 122.932 58.414 123.036 58.1973 123.244C57.9806 123.452 57.8723 123.703 57.8723 123.998C57.8723 124.336 58.0066 124.609 58.2753 124.817C58.544 125.016 58.9166 125.116 59.3933 125.116C59.8613 125.116 60.2686 125.012 60.6153 124.804C60.9706 124.596 61.2263 124.293 61.3823 123.894L61.6293 124.752C61.4646 125.159 61.1743 125.484 60.7583 125.727C60.3423 125.961 59.818 126.078 59.1853 126.078ZM67.3058 126.078C66.6125 126.078 66.0752 125.892 65.6938 125.519C65.3125 125.146 65.1218 124.613 65.1218 123.92V117.602H66.3698V123.868C66.3698 124.241 66.4608 124.527 66.6428 124.726C66.8335 124.925 67.1022 125.025 67.4488 125.025C67.8388 125.025 68.1638 124.917 68.4238 124.7L68.8138 125.597C68.6232 125.762 68.3935 125.883 68.1248 125.961C67.8648 126.039 67.5918 126.078 67.3058 126.078ZM63.9518 120.137V119.11H68.3458V120.137H63.9518ZM76.6609 126.078C75.9935 126.078 75.3955 125.931 74.8669 125.636C74.3469 125.341 73.9352 124.93 73.6319 124.401C73.3285 123.872 73.1769 123.257 73.1769 122.555C73.1769 121.853 73.3285 121.242 73.6319 120.722C73.9352 120.193 74.3469 119.782 74.8669 119.487C75.3955 119.192 75.9935 119.045 76.6609 119.045C77.2415 119.045 77.7659 119.175 78.2339 119.435C78.7019 119.695 79.0745 120.085 79.3519 120.605C79.6379 121.125 79.7809 121.775 79.7809 122.555C79.7809 123.335 79.6422 123.985 79.3649 124.505C79.0962 125.025 78.7279 125.419 78.2599 125.688C77.7919 125.948 77.2589 126.078 76.6609 126.078ZM76.7649 124.986C77.1982 124.986 77.5882 124.886 77.9349 124.687C78.2902 124.488 78.5675 124.206 78.7669 123.842C78.9749 123.469 79.0789 123.04 79.0789 122.555C79.0789 122.061 78.9749 121.636 78.7669 121.281C78.5675 120.917 78.2902 120.635 77.9349 120.436C77.5882 120.237 77.1982 120.137 76.7649 120.137C76.3229 120.137 75.9285 120.237 75.5819 120.436C75.2352 120.635 74.9579 120.917 74.7499 121.281C74.5419 121.636 74.4379 122.061 74.4379 122.555C74.4379 123.04 74.5419 123.469 74.7499 123.842C74.9579 124.206 75.2352 124.488 75.5819 124.687C75.9285 124.886 76.3229 124.986 76.7649 124.986ZM79.1179 126V124.141L79.1959 122.542L79.0659 120.943V116.354H80.3139V126H79.1179ZM85.7432 126.078C85.0065 126.078 84.3565 125.926 83.7932 125.623C83.2385 125.32 82.8052 124.904 82.4932 124.375C82.1899 123.846 82.0382 123.24 82.0382 122.555C82.0382 121.87 82.1855 121.264 82.4802 120.735C82.7835 120.206 83.1952 119.795 83.7152 119.5C84.2439 119.197 84.8375 119.045 85.4962 119.045C86.1635 119.045 86.7529 119.192 87.2642 119.487C87.7755 119.782 88.1742 120.198 88.4602 120.735C88.7549 121.264 88.9022 121.883 88.9022 122.594C88.9022 122.646 88.8979 122.707 88.8892 122.776C88.8892 122.845 88.8849 122.91 88.8762 122.971H83.0132V122.074H88.2262L87.7192 122.386C87.7279 121.944 87.6369 121.55 87.4462 121.203C87.2555 120.856 86.9912 120.588 86.6532 120.397C86.3239 120.198 85.9382 120.098 85.4962 120.098C85.0629 120.098 84.6772 120.198 84.3392 120.397C84.0012 120.588 83.7369 120.861 83.5462 121.216C83.3555 121.563 83.2602 121.961 83.2602 122.412V122.62C83.2602 123.079 83.3642 123.491 83.5722 123.855C83.7889 124.21 84.0879 124.488 84.4692 124.687C84.8505 124.886 85.2882 124.986 85.7822 124.986C86.1895 124.986 86.5579 124.917 86.8872 124.778C87.2252 124.639 87.5199 124.431 87.7712 124.154L88.4602 124.96C88.1482 125.324 87.7582 125.601 87.2902 125.792C86.8309 125.983 86.3152 126.078 85.7432 126.078ZM94.3141 119.045C94.8775 119.045 95.3715 119.153 95.7961 119.37C96.2295 119.587 96.5675 119.916 96.8101 120.358C97.0528 120.8 97.1741 121.359 97.1741 122.035V126H95.9261V122.178C95.9261 121.511 95.7615 121.008 95.4321 120.67C95.1115 120.332 94.6565 120.163 94.0671 120.163C93.6251 120.163 93.2395 120.25 92.9101 120.423C92.5808 120.596 92.3251 120.852 92.1431 121.19C91.9698 121.528 91.8831 121.948 91.8831 122.451V126H90.6351V119.11H91.8311V120.969L91.6361 120.475C91.8615 120.024 92.2081 119.673 92.6761 119.422C93.1441 119.171 93.6901 119.045 94.3141 119.045ZM102.5 128.6C101.867 128.6 101.252 128.509 100.654 128.327C100.064 128.154 99.5834 127.902 99.2108 127.573L99.8088 126.611C100.129 126.888 100.524 127.105 100.992 127.261C101.46 127.426 101.949 127.508 102.461 127.508C103.275 127.508 103.873 127.317 104.255 126.936C104.636 126.555 104.827 125.974 104.827 125.194V123.738L104.957 122.373L104.892 120.995V119.11H106.075V125.064C106.075 126.277 105.771 127.17 105.165 127.742C104.558 128.314 103.67 128.6 102.5 128.6ZM102.344 125.714C101.676 125.714 101.078 125.575 100.55 125.298C100.03 125.012 99.6138 124.618 99.3018 124.115C98.9984 123.612 98.8468 123.032 98.8468 122.373C98.8468 121.706 98.9984 121.125 99.3018 120.631C99.6138 120.128 100.03 119.738 100.55 119.461C101.078 119.184 101.676 119.045 102.344 119.045C102.933 119.045 103.47 119.166 103.956 119.409C104.441 119.643 104.827 120.007 105.113 120.501C105.407 120.995 105.555 121.619 105.555 122.373C105.555 123.118 105.407 123.738 105.113 124.232C104.827 124.726 104.441 125.099 103.956 125.35C103.47 125.593 102.933 125.714 102.344 125.714ZM102.487 124.622C102.946 124.622 103.353 124.527 103.709 124.336C104.064 124.145 104.341 123.881 104.541 123.543C104.749 123.205 104.853 122.815 104.853 122.373C104.853 121.931 104.749 121.541 104.541 121.203C104.341 120.865 104.064 120.605 103.709 120.423C103.353 120.232 102.946 120.137 102.487 120.137C102.027 120.137 101.616 120.232 101.252 120.423C100.896 120.605 100.615 120.865 100.407 121.203C100.207 121.541 100.108 121.931 100.108 122.373C100.108 122.815 100.207 123.205 100.407 123.543C100.615 123.881 100.896 124.145 101.252 124.336C101.616 124.527 102.027 124.622 102.487 124.622ZM112.736 126V124.544L112.671 124.271V121.788C112.671 121.259 112.515 120.852 112.203 120.566C111.9 120.271 111.441 120.124 110.825 120.124C110.418 120.124 110.019 120.193 109.629 120.332C109.239 120.462 108.91 120.64 108.641 120.865L108.121 119.929C108.477 119.643 108.901 119.426 109.395 119.279C109.898 119.123 110.422 119.045 110.968 119.045C111.913 119.045 112.641 119.275 113.152 119.734C113.664 120.193 113.919 120.895 113.919 121.84V126H112.736ZM110.474 126.078C109.963 126.078 109.512 125.991 109.122 125.818C108.741 125.645 108.446 125.406 108.238 125.103C108.03 124.791 107.926 124.44 107.926 124.05C107.926 123.677 108.013 123.339 108.186 123.036C108.368 122.733 108.659 122.49 109.057 122.308C109.465 122.126 110.011 122.035 110.695 122.035H112.879V122.932H110.747C110.123 122.932 109.703 123.036 109.486 123.244C109.27 123.452 109.161 123.703 109.161 123.998C109.161 124.336 109.296 124.609 109.564 124.817C109.833 125.016 110.206 125.116 110.682 125.116C111.15 125.116 111.558 125.012 111.904 124.804C112.26 124.596 112.515 124.293 112.671 123.894L112.918 124.752C112.754 125.159 112.463 125.484 112.047 125.727C111.631 125.961 111.107 126.078 110.474 126.078ZM119.908 119.045C120.471 119.045 120.965 119.153 121.39 119.37C121.823 119.587 122.161 119.916 122.404 120.358C122.647 120.8 122.768 121.359 122.768 122.035V126H121.52V122.178C121.52 121.511 121.355 121.008 121.026 120.67C120.705 120.332 120.25 120.163 119.661 120.163C119.219 120.163 118.833 120.25 118.504 120.423C118.175 120.596 117.919 120.852 117.737 121.19C117.564 121.528 117.477 121.948 117.477 122.451V126H116.229V119.11H117.425V120.969L117.23 120.475C117.455 120.024 117.802 119.673 118.27 119.422C118.738 119.171 119.284 119.045 119.908 119.045ZM130.545 126.078C129.973 126.078 129.427 126 128.907 125.844C128.395 125.688 127.992 125.497 127.698 125.272L128.218 124.284C128.512 124.483 128.876 124.652 129.31 124.791C129.743 124.93 130.185 124.999 130.636 124.999C131.216 124.999 131.632 124.917 131.884 124.752C132.144 124.587 132.274 124.358 132.274 124.063C132.274 123.846 132.196 123.677 132.04 123.556C131.884 123.435 131.676 123.344 131.416 123.283C131.164 123.222 130.883 123.17 130.571 123.127C130.259 123.075 129.947 123.014 129.635 122.945C129.323 122.867 129.037 122.763 128.777 122.633C128.517 122.494 128.309 122.308 128.153 122.074C127.997 121.831 127.919 121.511 127.919 121.112C127.919 120.696 128.036 120.332 128.27 120.02C128.504 119.708 128.833 119.47 129.258 119.305C129.691 119.132 130.202 119.045 130.792 119.045C131.242 119.045 131.697 119.101 132.157 119.214C132.625 119.318 133.006 119.47 133.301 119.669L132.768 120.657C132.456 120.449 132.131 120.306 131.793 120.228C131.455 120.15 131.117 120.111 130.779 120.111C130.233 120.111 129.825 120.202 129.557 120.384C129.288 120.557 129.154 120.783 129.154 121.06C129.154 121.294 129.232 121.476 129.388 121.606C129.552 121.727 129.76 121.823 130.012 121.892C130.272 121.961 130.558 122.022 130.87 122.074C131.182 122.117 131.494 122.178 131.806 122.256C132.118 122.325 132.399 122.425 132.651 122.555C132.911 122.685 133.119 122.867 133.275 123.101C133.439 123.335 133.522 123.647 133.522 124.037C133.522 124.453 133.4 124.813 133.158 125.116C132.915 125.419 132.573 125.658 132.131 125.831C131.689 125.996 131.16 126.078 130.545 126.078ZM139.358 126V124.544L139.293 124.271V121.788C139.293 121.259 139.137 120.852 138.825 120.566C138.522 120.271 138.063 120.124 137.447 120.124C137.04 120.124 136.641 120.193 136.251 120.332C135.861 120.462 135.532 120.64 135.263 120.865L134.743 119.929C135.099 119.643 135.523 119.426 136.017 119.279C136.52 119.123 137.044 119.045 137.59 119.045C138.535 119.045 139.263 119.275 139.774 119.734C140.286 120.193 140.541 120.895 140.541 121.84V126H139.358ZM137.096 126.078C136.585 126.078 136.134 125.991 135.744 125.818C135.363 125.645 135.068 125.406 134.86 125.103C134.652 124.791 134.548 124.44 134.548 124.05C134.548 123.677 134.635 123.339 134.808 123.036C134.99 122.733 135.281 122.49 135.679 122.308C136.087 122.126 136.633 122.035 137.317 122.035H139.501V122.932H137.369C136.745 122.932 136.325 123.036 136.108 123.244C135.892 123.452 135.783 123.703 135.783 123.998C135.783 124.336 135.918 124.609 136.186 124.817C136.455 125.016 136.828 125.116 137.304 125.116C137.772 125.116 138.18 125.012 138.526 124.804C138.882 124.596 139.137 124.293 139.293 123.894L139.54 124.752C139.376 125.159 139.085 125.484 138.669 125.727C138.253 125.961 137.729 126.078 137.096 126.078ZM145.217 126.078C144.524 126.078 143.986 125.892 143.605 125.519C143.224 125.146 143.033 124.613 143.033 123.92V117.602H144.281V123.868C144.281 124.241 144.372 124.527 144.554 124.726C144.745 124.925 145.013 125.025 145.36 125.025C145.75 125.025 146.075 124.917 146.335 124.7L146.725 125.597C146.534 125.762 146.305 125.883 146.036 125.961C145.776 126.039 145.503 126.078 145.217 126.078ZM141.863 120.137V119.11H146.257V120.137H141.863ZM151.133 126.078C150.543 126.078 150.023 125.97 149.573 125.753C149.131 125.536 148.784 125.207 148.533 124.765C148.29 124.314 148.169 123.751 148.169 123.075V119.11H149.417V122.932C149.417 123.608 149.577 124.115 149.898 124.453C150.227 124.791 150.686 124.96 151.276 124.96C151.709 124.96 152.086 124.873 152.407 124.7C152.727 124.518 152.974 124.258 153.148 123.92C153.321 123.573 153.408 123.157 153.408 122.672V119.11H154.656V126H153.473V124.141L153.668 124.635C153.442 125.094 153.104 125.45 152.654 125.701C152.203 125.952 151.696 126.078 151.133 126.078ZM161.537 124.336L161.563 122.737L165.528 119.11H167.036L163.994 122.1L163.318 122.672L161.537 124.336ZM160.523 126V116.354H161.771V126H160.523ZM165.788 126L163.084 122.646L163.89 121.645L167.322 126H165.788ZM168.534 126V116.354H169.782V126H168.534ZM172.164 126V119.11H173.412V126H172.164ZM172.788 117.784C172.546 117.784 172.342 117.706 172.177 117.55C172.021 117.394 171.943 117.203 171.943 116.978C171.943 116.744 172.021 116.549 172.177 116.393C172.342 116.237 172.546 116.159 172.788 116.159C173.031 116.159 173.23 116.237 173.386 116.393C173.551 116.54 173.633 116.727 173.633 116.952C173.633 117.186 173.555 117.385 173.399 117.55C173.243 117.706 173.04 117.784 172.788 117.784ZM176.809 124.336L176.835 122.737L180.8 119.11H182.308L179.266 122.1L178.59 122.672L176.809 124.336ZM175.795 126V116.354H177.043V126H175.795ZM181.06 126L178.356 122.646L179.162 121.645L182.594 126H181.06ZM184.232 126.078C183.989 126.078 183.781 125.996 183.608 125.831C183.435 125.658 183.348 125.441 183.348 125.181C183.348 124.921 183.435 124.709 183.608 124.544C183.781 124.379 183.989 124.297 184.232 124.297C184.466 124.297 184.665 124.379 184.83 124.544C185.003 124.709 185.09 124.921 185.09 125.181C185.09 125.441 185.003 125.658 184.83 125.831C184.665 125.996 184.466 126.078 184.232 126.078Z" fill="white" fill-opacity="0.8"/>
<circle cx="37" cy="36" r="20" fill="white" fill-opacity="0.1"/>
<path d="M44.965 32.521C44.988 32.347 45 32.173 45 32C45 29.621 42.857 27.712 40.479 28.035C39.786 26.802 38.466 26 37 26C35.534 26 34.214 26.802 33.521 28.035C31.138 27.712 29 29.621 29 32C29 32.173 29.012 32.347 29.035 32.521C27.802 33.215 27 34.535 27 36C27 37.465 27.802 38.785 29.035 39.479C29.0119 39.6517 29.0002 39.8258 29 40C29 42.379 31.138 44.283 33.521 43.965C34.214 45.198 35.534 46 37 46C38.466 46 39.786 45.198 40.479 43.965C42.857 44.283 45 42.379 45 40C45 39.827 44.988 39.653 44.965 39.479C46.198 38.785 47 37.465 47 36C47 34.535 46.198 33.215 44.965 32.521ZM35.955 40.416L32.288 36.702L33.712 35.298L35.969 37.584L40.296 33.29L41.704 34.71L35.955 40.416Z" fill="white" fill-opacity="0.5"/>
</svg>
