<svg width="300" height="160" viewBox="0 0 300 160" fill="none" xmlns="http://www.w3.org/2000/svg">
<rect width="300" height="160" rx="10" fill="#0C0E12"/>
<rect x="1" y="1" width="298" height="158" rx="9" stroke="white" stroke-opacity="0.07" stroke-width="2"/>
<path d="M73.88 43V29H79.64C80.88 29 81.94 29.2 82.82 29.6C83.7133 30 84.4 30.5733 84.88 31.32C85.36 32.0667 85.6 32.9533 85.6 33.98C85.6 35.0067 85.36 35.8933 84.88 36.64C84.4 37.3867 83.7133 37.96 82.82 38.36C81.94 38.76 80.88 38.96 79.64 38.96H75.32L76.48 37.74V43H73.88ZM76.48 38.02L75.32 36.76H79.52C80.6667 36.76 81.5267 36.52 82.1 36.04C82.6867 35.5467 82.98 34.86 82.98 33.98C82.98 33.0867 82.6867 32.4 82.1 31.92C81.5267 31.44 80.6667 31.2 79.52 31.2H75.32L76.48 29.92V38.02ZM92.9373 43.14C91.7507 43.14 90.7107 42.9067 89.8173 42.44C88.9373 41.96 88.2507 41.3067 87.7573 40.48C87.2773 39.6533 87.0373 38.7133 87.0373 37.66C87.0373 36.5933 87.2707 35.6533 87.7373 34.84C88.2173 34.0133 88.8707 33.3667 89.6973 32.9C90.5373 32.4333 91.4907 32.2 92.5573 32.2C93.5973 32.2 94.524 32.4267 95.3373 32.88C96.1507 33.3333 96.7907 33.9733 97.2573 34.8C97.724 35.6267 97.9573 36.6 97.9573 37.72C97.9573 37.8267 97.9507 37.9467 97.9373 38.08C97.9373 38.2133 97.9307 38.34 97.9173 38.46H89.0173V36.8H96.5973L95.6173 37.32C95.6307 36.7067 95.504 36.1667 95.2373 35.7C94.9707 35.2333 94.604 34.8667 94.1373 34.6C93.684 34.3333 93.1573 34.2 92.5573 34.2C91.944 34.2 91.404 34.3333 90.9373 34.6C90.484 34.8667 90.124 35.24 89.8573 35.72C89.604 36.1867 89.4773 36.74 89.4773 37.38V37.78C89.4773 38.42 89.624 38.9867 89.9173 39.48C90.2107 39.9733 90.624 40.3533 91.1573 40.62C91.6907 40.8867 92.304 41.02 92.9973 41.02C93.5973 41.02 94.1373 40.9267 94.6173 40.74C95.0973 40.5533 95.524 40.26 95.8973 39.86L97.2373 41.4C96.7573 41.96 96.1507 42.3933 95.4173 42.7C94.6973 42.9933 93.8707 43.14 92.9373 43.14ZM104.379 43.14C103.205 43.14 102.299 42.84 101.659 42.24C101.019 41.6267 100.699 40.7267 100.699 39.54V29.96H103.199V39.48C103.199 39.9867 103.325 40.38 103.579 40.66C103.845 40.94 104.212 41.08 104.679 41.08C105.239 41.08 105.705 40.9333 106.079 40.64L106.779 42.42C106.485 42.66 106.125 42.84 105.699 42.96C105.272 43.08 104.832 43.14 104.379 43.14ZM98.9388 34.4V32.4H106.059V34.4H98.9388ZM115.415 43V40.84L115.275 40.38V36.6C115.275 35.8667 115.055 35.3 114.615 34.9C114.175 34.4867 113.509 34.28 112.615 34.28C112.015 34.28 111.422 34.3733 110.835 34.56C110.262 34.7467 109.775 35.0067 109.375 35.34L108.395 33.52C108.969 33.08 109.649 32.7533 110.435 32.54C111.235 32.3133 112.062 32.2 112.915 32.2C114.462 32.2 115.655 32.5733 116.495 33.32C117.349 34.0533 117.775 35.1933 117.775 36.74V43H115.415ZM112.055 43.14C111.255 43.14 110.555 43.0067 109.955 42.74C109.355 42.46 108.889 42.08 108.555 41.6C108.235 41.1067 108.075 40.5533 108.075 39.94C108.075 39.34 108.215 38.8 108.495 38.32C108.789 37.84 109.262 37.46 109.915 37.18C110.569 36.9 111.435 36.76 112.515 36.76H115.615V38.42H112.695C111.842 38.42 111.269 38.56 110.975 38.84C110.682 39.1067 110.535 39.44 110.535 39.84C110.535 40.2933 110.715 40.6533 111.075 40.92C111.435 41.1867 111.935 41.32 112.575 41.32C113.189 41.32 113.735 41.18 114.215 40.9C114.709 40.62 115.062 40.2067 115.275 39.66L115.695 41.16C115.455 41.7867 115.022 42.2733 114.395 42.62C113.782 42.9667 113.002 43.14 112.055 43.14ZM126.751 43V29H129.351V40.8H136.671V43H126.751ZM143.186 43.14C142.093 43.14 141.119 42.9067 140.266 42.44C139.413 41.96 138.739 41.3067 138.246 40.48C137.753 39.6533 137.506 38.7133 137.506 37.66C137.506 36.5933 137.753 35.6533 138.246 34.84C138.739 34.0133 139.413 33.3667 140.266 32.9C141.119 32.4333 142.093 32.2 143.186 32.2C144.293 32.2 145.273 32.4333 146.126 32.9C146.993 33.3667 147.666 34.0067 148.146 34.82C148.639 35.6333 148.886 36.58 148.886 37.66C148.886 38.7133 148.639 39.6533 148.146 40.48C147.666 41.3067 146.993 41.96 146.126 42.44C145.273 42.9067 144.293 43.14 143.186 43.14ZM143.186 41C143.799 41 144.346 40.8667 144.826 40.6C145.306 40.3333 145.679 39.9467 145.946 39.44C146.226 38.9333 146.366 38.34 146.366 37.66C146.366 36.9667 146.226 36.3733 145.946 35.88C145.679 35.3733 145.306 34.9867 144.826 34.72C144.346 34.4533 143.806 34.32 143.206 34.32C142.593 34.32 142.046 34.4533 141.566 34.72C141.099 34.9867 140.726 35.3733 140.446 35.88C140.166 36.3733 140.026 36.9667 140.026 37.66C140.026 38.34 140.166 38.9333 140.446 39.44C140.726 39.9467 141.099 40.3333 141.566 40.6C142.046 40.8667 142.586 41 143.186 41ZM153.317 40.62L153.377 37.48L158.957 32.32H161.957L157.217 37.08L155.897 38.18L153.317 40.62ZM151.277 43V28.16H153.777V43H151.277ZM159.337 43L155.437 38.18L157.017 36.18L162.377 43H159.337ZM170.376 43V40.84L170.236 40.38V36.6C170.236 35.8667 170.016 35.3 169.576 34.9C169.136 34.4867 168.47 34.28 167.576 34.28C166.976 34.28 166.383 34.3733 165.796 34.56C165.223 34.7467 164.736 35.0067 164.336 35.34L163.356 33.52C163.93 33.08 164.61 32.7533 165.396 32.54C166.196 32.3133 167.023 32.2 167.876 32.2C169.423 32.2 170.616 32.5733 171.456 33.32C172.31 34.0533 172.736 35.1933 172.736 36.74V43H170.376ZM167.016 43.14C166.216 43.14 165.516 43.0067 164.916 42.74C164.316 42.46 163.85 42.08 163.516 41.6C163.196 41.1067 163.036 40.5533 163.036 39.94C163.036 39.34 163.176 38.8 163.456 38.32C163.75 37.84 164.223 37.46 164.876 37.18C165.53 36.9 166.396 36.76 167.476 36.76H170.576V38.42H167.656C166.803 38.42 166.23 38.56 165.936 38.84C165.643 39.1067 165.496 39.44 165.496 39.84C165.496 40.2933 165.676 40.6533 166.036 40.92C166.396 41.1867 166.896 41.32 167.536 41.32C168.15 41.32 168.696 41.18 169.176 40.9C169.67 40.62 170.023 40.2067 170.236 39.66L170.656 41.16C170.416 41.7867 169.983 42.2733 169.356 42.62C168.743 42.9667 167.963 43.14 167.016 43.14ZM179.245 43.14C178.351 43.14 177.491 43.0267 176.665 42.8C175.851 42.56 175.205 42.2733 174.725 41.94L175.685 40.04C176.165 40.3467 176.738 40.6 177.405 40.8C178.071 41 178.738 41.1 179.405 41.1C180.191 41.1 180.758 40.9933 181.105 40.78C181.465 40.5667 181.645 40.28 181.645 39.92C181.645 39.6267 181.525 39.4067 181.285 39.26C181.045 39.1 180.731 38.98 180.345 38.9C179.958 38.82 179.525 38.7467 179.045 38.68C178.578 38.6133 178.105 38.5267 177.625 38.42C177.158 38.3 176.731 38.1333 176.345 37.92C175.958 37.6933 175.645 37.3933 175.405 37.02C175.165 36.6467 175.045 36.1533 175.045 35.54C175.045 34.86 175.238 34.2733 175.625 33.78C176.011 33.2733 176.551 32.8867 177.245 32.62C177.951 32.34 178.785 32.2 179.745 32.2C180.465 32.2 181.191 32.28 181.925 32.44C182.658 32.6 183.265 32.8267 183.745 33.12L182.785 35.02C182.278 34.7133 181.765 34.5067 181.245 34.4C180.738 34.28 180.231 34.22 179.725 34.22C178.965 34.22 178.398 34.3333 178.025 34.56C177.665 34.7867 177.485 35.0733 177.485 35.42C177.485 35.74 177.605 35.98 177.845 36.14C178.085 36.3 178.398 36.4267 178.785 36.52C179.171 36.6133 179.598 36.6933 180.065 36.76C180.545 36.8133 181.018 36.9 181.485 37.02C181.951 37.14 182.378 37.3067 182.765 37.52C183.165 37.72 183.485 38.0067 183.725 38.38C183.965 38.7533 184.085 39.24 184.085 39.84C184.085 40.5067 183.885 41.0867 183.485 41.58C183.098 42.0733 182.545 42.46 181.825 42.74C181.105 43.0067 180.245 43.14 179.245 43.14ZM186.238 43V32.32H188.738V43H186.238ZM187.498 30.56C187.031 30.56 186.644 30.4133 186.338 30.12C186.044 29.8267 185.898 29.4733 185.898 29.06C185.898 28.6333 186.044 28.28 186.338 28C186.644 27.7067 187.031 27.56 187.498 27.56C187.964 27.56 188.344 27.7 188.638 27.98C188.944 28.2467 189.098 28.5867 189.098 29C189.098 29.44 188.951 29.8133 188.658 30.12C188.364 30.4133 187.978 30.56 187.498 30.56Z" fill="white"/>
<path d="M19.509 81.803L19.444 80.217L24.605 74.9H26.087L22.096 79.112L21.368 79.918L19.509 81.803ZM18.365 84V74.9H19.665V84H18.365ZM24.813 84L21.082 79.658L21.953 78.696L26.334 84H24.813ZM31.6387 84V82.544L31.5737 82.271V79.788C31.5737 79.2593 31.4177 78.852 31.1057 78.566C30.8024 78.2713 30.343 78.124 29.7277 78.124C29.3204 78.124 28.9217 78.1933 28.5317 78.332C28.1417 78.462 27.8124 78.6397 27.5437 78.865L27.0237 77.929C27.379 77.643 27.8037 77.4263 28.2977 77.279C28.8004 77.123 29.3247 77.045 29.8707 77.045C30.8154 77.045 31.5434 77.2747 32.0547 77.734C32.566 78.1933 32.8217 78.8953 32.8217 79.84V84H31.6387ZM29.3767 84.078C28.8654 84.078 28.4147 83.9913 28.0247 83.818C27.6434 83.6447 27.3487 83.4063 27.1407 83.103C26.9327 82.791 26.8287 82.44 26.8287 82.05C26.8287 81.6773 26.9154 81.3393 27.0887 81.036C27.2707 80.7327 27.561 80.49 27.9597 80.308C28.367 80.126 28.913 80.035 29.5977 80.035H31.7817V80.932H29.6497C29.0257 80.932 28.6054 81.036 28.3887 81.244C28.172 81.452 28.0637 81.7033 28.0637 81.998C28.0637 82.336 28.198 82.609 28.4667 82.817C28.7354 83.0163 29.108 83.116 29.5847 83.116C30.0527 83.116 30.46 83.012 30.8067 82.804C31.162 82.596 31.4177 82.2927 31.5737 81.894L31.8207 82.752C31.656 83.1593 31.3657 83.4843 30.9497 83.727C30.5337 83.961 30.0094 84.078 29.3767 84.078ZM43.7502 77.045C44.3049 77.045 44.7946 77.1533 45.2192 77.37C45.6439 77.5867 45.9732 77.916 46.2072 78.358C46.4499 78.8 46.5712 79.359 46.5712 80.035V84H45.3232V80.178C45.3232 79.5107 45.1672 79.008 44.8552 78.67C44.5432 78.332 44.1056 78.163 43.5422 78.163C43.1262 78.163 42.7622 78.2497 42.4502 78.423C42.1382 78.5963 41.8956 78.852 41.7222 79.19C41.5576 79.528 41.4752 79.9483 41.4752 80.451V84H40.2272V80.178C40.2272 79.5107 40.0712 79.008 39.7592 78.67C39.4559 78.332 39.0182 78.163 38.4462 78.163C38.0389 78.163 37.6792 78.2497 37.3672 78.423C37.0552 78.5963 36.8126 78.852 36.6392 79.19C36.4659 79.528 36.3792 79.9483 36.3792 80.451V84H35.1312V77.11H36.3272V78.943L36.1322 78.475C36.3489 78.0243 36.6826 77.6733 37.1332 77.422C37.5839 77.1707 38.1082 77.045 38.7062 77.045C39.3649 77.045 39.9326 77.2097 40.4092 77.539C40.8859 77.8597 41.1979 78.3493 41.3452 79.008L40.8382 78.8C41.0462 78.2713 41.4102 77.8467 41.9302 77.526C42.4502 77.2053 43.0569 77.045 43.7502 77.045ZM48.8676 84V77.11H50.1156V84H48.8676ZM49.4916 75.784C49.2489 75.784 49.0452 75.706 48.8806 75.55C48.7246 75.394 48.6466 75.2033 48.6466 74.978C48.6466 74.744 48.7246 74.549 48.8806 74.393C49.0452 74.237 49.2489 74.159 49.4916 74.159C49.7342 74.159 49.9336 74.237 50.0896 74.393C50.2542 74.5403 50.3366 74.7267 50.3366 74.952C50.3366 75.186 50.2586 75.3853 50.1026 75.55C49.9466 75.706 49.7429 75.784 49.4916 75.784ZM64.6086 77.045C65.1633 77.045 65.653 77.1533 66.0776 77.37C66.5023 77.5867 66.8316 77.916 67.0656 78.358C67.3083 78.8 67.4296 79.359 67.4296 80.035V84H66.1816V80.178C66.1816 79.5107 66.0256 79.008 65.7136 78.67C65.4016 78.332 64.964 78.163 64.4006 78.163C63.9846 78.163 63.6206 78.2497 63.3086 78.423C62.9966 78.5963 62.754 78.852 62.5806 79.19C62.416 79.528 62.3336 79.9483 62.3336 80.451V84H61.0856V80.178C61.0856 79.5107 60.9296 79.008 60.6176 78.67C60.3143 78.332 59.8766 78.163 59.3046 78.163C58.8973 78.163 58.5376 78.2497 58.2256 78.423C57.9136 78.5963 57.671 78.852 57.4976 79.19C57.3243 79.528 57.2376 79.9483 57.2376 80.451V84H55.9896V77.11H57.1856V78.943L56.9906 78.475C57.2073 78.0243 57.541 77.6733 57.9916 77.422C58.4423 77.1707 58.9666 77.045 59.5646 77.045C60.2233 77.045 60.791 77.2097 61.2676 77.539C61.7443 77.8597 62.0563 78.3493 62.2036 79.008L61.6966 78.8C61.9046 78.2713 62.2686 77.8467 62.7886 77.526C63.3086 77.2053 63.9153 77.045 64.6086 77.045ZM72.794 84.078C72.0573 84.078 71.4073 83.9263 70.844 83.623C70.2893 83.3197 69.856 82.9037 69.544 82.375C69.2406 81.8463 69.089 81.2397 69.089 80.555C69.089 79.8703 69.2363 79.2637 69.531 78.735C69.8343 78.2063 70.246 77.7947 70.766 77.5C71.2946 77.1967 71.8883 77.045 72.547 77.045C73.2143 77.045 73.8036 77.1923 74.315 77.487C74.8263 77.7817 75.225 78.1977 75.511 78.735C75.8056 79.2637 75.953 79.8833 75.953 80.594C75.953 80.646 75.9486 80.7067 75.94 80.776C75.94 80.8453 75.9356 80.9103 75.927 80.971H70.064V80.074H75.277L74.77 80.386C74.7786 79.944 74.6876 79.5497 74.497 79.203C74.3063 78.8563 74.042 78.5877 73.704 78.397C73.3746 78.1977 72.989 78.098 72.547 78.098C72.1136 78.098 71.728 78.1977 71.39 78.397C71.052 78.5877 70.7876 78.8607 70.597 79.216C70.4063 79.5627 70.311 79.9613 70.311 80.412V80.62C70.311 81.0793 70.415 81.491 70.623 81.855C70.8396 82.2103 71.1386 82.4877 71.52 82.687C71.9013 82.8863 72.339 82.986 72.833 82.986C73.2403 82.986 73.6086 82.9167 73.938 82.778C74.276 82.6393 74.5706 82.4313 74.822 82.154L75.511 82.96C75.199 83.324 74.809 83.6013 74.341 83.792C73.8816 83.9827 73.366 84.078 72.794 84.078ZM81.3649 77.045C81.9283 77.045 82.4223 77.1533 82.8469 77.37C83.2803 77.5867 83.6183 77.916 83.8609 78.358C84.1036 78.8 84.2249 79.359 84.2249 80.035V84H82.9769V80.178C82.9769 79.5107 82.8123 79.008 82.4829 78.67C82.1623 78.332 81.7073 78.163 81.1179 78.163C80.6759 78.163 80.2903 78.2497 79.9609 78.423C79.6316 78.5963 79.3759 78.852 79.1939 79.19C79.0206 79.528 78.9339 79.9483 78.9339 80.451V84H77.6859V77.11H78.8819V78.969L78.6869 78.475C78.9123 78.0243 79.2589 77.6733 79.7269 77.422C80.1949 77.1707 80.7409 77.045 81.3649 77.045ZM86.7066 86.6C86.3773 86.6 86.0566 86.5437 85.7446 86.431C85.4326 86.327 85.1639 86.171 84.9386 85.963L85.4716 85.027C85.6449 85.1917 85.8356 85.3173 86.0436 85.404C86.2516 85.4907 86.4726 85.534 86.7066 85.534C87.0099 85.534 87.2613 85.456 87.4606 85.3C87.6599 85.144 87.8463 84.8667 88.0196 84.468L88.4486 83.519L88.5786 83.363L91.2826 77.11H92.5046L89.1636 84.689C88.9643 85.1743 88.7389 85.5557 88.4876 85.833C88.2449 86.1103 87.9763 86.3053 87.6816 86.418C87.3869 86.5393 87.0619 86.6 86.7066 86.6ZM88.3446 84.221L85.1986 77.11H86.4986L89.1766 83.246L88.3446 84.221ZM96.5469 84.078C95.8102 84.078 95.1602 83.9263 94.5969 83.623C94.0422 83.3197 93.6089 82.9037 93.2969 82.375C92.9936 81.8463 92.8419 81.2397 92.8419 80.555C92.8419 79.8703 92.9892 79.2637 93.2839 78.735C93.5872 78.2063 93.9989 77.7947 94.5189 77.5C95.0476 77.1967 95.6412 77.045 96.2999 77.045C96.9672 77.045 97.5566 77.1923 98.0679 77.487C98.5792 77.7817 98.9779 78.1977 99.2639 78.735C99.5586 79.2637 99.7059 79.8833 99.7059 80.594C99.7059 80.646 99.7016 80.7067 99.6929 80.776C99.6929 80.8453 99.6886 80.9103 99.6799 80.971H93.8169V80.074H99.0299L98.5229 80.386C98.5316 79.944 98.4406 79.5497 98.2499 79.203C98.0592 78.8563 97.7949 78.5877 97.4569 78.397C97.1276 78.1977 96.7419 78.098 96.2999 78.098C95.8666 78.098 95.4809 78.1977 95.1429 78.397C94.8049 78.5877 94.5406 78.8607 94.3499 79.216C94.1592 79.5627 94.0639 79.9613 94.0639 80.412V80.62C94.0639 81.0793 94.1679 81.491 94.3759 81.855C94.5926 82.2103 94.8916 82.4877 95.2729 82.687C95.6542 82.8863 96.0919 82.986 96.5859 82.986C96.9932 82.986 97.3616 82.9167 97.6909 82.778C98.0289 82.6393 98.3236 82.4313 98.5749 82.154L99.2639 82.96C98.9519 83.324 98.5619 83.6013 98.0939 83.792C97.6346 83.9827 97.1189 84.078 96.5469 84.078ZM104.286 84.078C103.619 84.078 103.021 83.9307 102.492 83.636C101.972 83.3413 101.56 82.9297 101.257 82.401C100.954 81.8723 100.802 81.257 100.802 80.555C100.802 79.853 100.954 79.242 101.257 78.722C101.56 78.1933 101.972 77.7817 102.492 77.487C103.021 77.1923 103.619 77.045 104.286 77.045C104.867 77.045 105.391 77.175 105.859 77.435C106.327 77.695 106.7 78.085 106.977 78.605C107.263 79.125 107.406 79.775 107.406 80.555C107.406 81.335 107.267 81.985 106.99 82.505C106.721 83.025 106.353 83.4193 105.885 83.688C105.417 83.948 104.884 84.078 104.286 84.078ZM104.39 82.986C104.823 82.986 105.213 82.8863 105.56 82.687C105.915 82.4877 106.193 82.206 106.392 81.842C106.6 81.4693 106.704 81.0403 106.704 80.555C106.704 80.061 106.6 79.6363 106.392 79.281C106.193 78.917 105.915 78.6353 105.56 78.436C105.213 78.2367 104.823 78.137 104.39 78.137C103.948 78.137 103.554 78.2367 103.207 78.436C102.86 78.6353 102.583 78.917 102.375 79.281C102.167 79.6363 102.063 80.061 102.063 80.555C102.063 81.0403 102.167 81.4693 102.375 81.842C102.583 82.206 102.86 82.4877 103.207 82.687C103.554 82.8863 103.948 82.986 104.39 82.986ZM106.743 84V82.141L106.821 80.542L106.691 78.943V74.354H107.939V84H106.743ZM110.3 84V77.11H111.548V84H110.3ZM110.924 75.784C110.682 75.784 110.478 75.706 110.313 75.55C110.157 75.394 110.079 75.2033 110.079 74.978C110.079 74.744 110.157 74.549 110.313 74.393C110.478 74.237 110.682 74.159 110.924 74.159C111.167 74.159 111.366 74.237 111.522 74.393C111.687 74.5403 111.769 74.7267 111.769 74.952C111.769 75.186 111.691 75.3853 111.535 75.55C111.379 75.706 111.176 75.784 110.924 75.784ZM118.208 84V82.544L118.143 82.271V79.788C118.143 79.2593 117.987 78.852 117.675 78.566C117.372 78.2713 116.912 78.124 116.297 78.124C115.89 78.124 115.491 78.1933 115.101 78.332C114.711 78.462 114.382 78.6397 114.113 78.865L113.593 77.929C113.948 77.643 114.373 77.4263 114.867 77.279C115.37 77.123 115.894 77.045 116.44 77.045C117.385 77.045 118.113 77.2747 118.624 77.734C119.135 78.1933 119.391 78.8953 119.391 79.84V84H118.208ZM115.946 84.078C115.435 84.078 114.984 83.9913 114.594 83.818C114.213 83.6447 113.918 83.4063 113.71 83.103C113.502 82.791 113.398 82.44 113.398 82.05C113.398 81.6773 113.485 81.3393 113.658 81.036C113.84 80.7327 114.13 80.49 114.529 80.308C114.936 80.126 115.482 80.035 116.167 80.035H118.351V80.932H116.219C115.595 80.932 115.175 81.036 114.958 81.244C114.741 81.452 114.633 81.7033 114.633 81.998C114.633 82.336 114.767 82.609 115.036 82.817C115.305 83.0163 115.677 83.116 116.154 83.116C116.622 83.116 117.029 83.012 117.376 82.804C117.731 82.596 117.987 82.2927 118.143 81.894L118.39 82.752C118.225 83.1593 117.935 83.4843 117.519 83.727C117.103 83.961 116.579 84.078 115.946 84.078ZM122.715 82.336L122.741 80.737L126.706 77.11H128.214L125.172 80.1L124.496 80.672L122.715 82.336ZM121.701 84V74.354H122.949V84H121.701ZM126.966 84L124.262 80.646L125.068 79.645L128.5 84H126.966ZM133.861 84V82.544L133.796 82.271V79.788C133.796 79.2593 133.64 78.852 133.328 78.566C133.025 78.2713 132.566 78.124 131.95 78.124C131.543 78.124 131.144 78.1933 130.754 78.332C130.364 78.462 130.035 78.6397 129.766 78.865L129.246 77.929C129.602 77.643 130.026 77.4263 130.52 77.279C131.023 77.123 131.547 77.045 132.093 77.045C133.038 77.045 133.766 77.2747 134.277 77.734C134.789 78.1933 135.044 78.8953 135.044 79.84V84H133.861ZM131.599 84.078C131.088 84.078 130.637 83.9913 130.247 83.818C129.866 83.6447 129.571 83.4063 129.363 83.103C129.155 82.791 129.051 82.44 129.051 82.05C129.051 81.6773 129.138 81.3393 129.311 81.036C129.493 80.7327 129.784 80.49 130.182 80.308C130.59 80.126 131.136 80.035 131.82 80.035H134.004V80.932H131.872C131.248 80.932 130.828 81.036 130.611 81.244C130.395 81.452 130.286 81.7033 130.286 81.998C130.286 82.336 130.421 82.609 130.689 82.817C130.958 83.0163 131.331 83.116 131.807 83.116C132.275 83.116 132.683 83.012 133.029 82.804C133.385 82.596 133.64 82.2927 133.796 81.894L134.043 82.752C133.879 83.1593 133.588 83.4843 133.172 83.727C132.756 83.961 132.232 84.078 131.599 84.078ZM141.033 77.045C141.596 77.045 142.09 77.1533 142.515 77.37C142.948 77.5867 143.286 77.916 143.529 78.358C143.772 78.8 143.893 79.359 143.893 80.035V84H142.645V80.178C142.645 79.5107 142.48 79.008 142.151 78.67C141.83 78.332 141.375 78.163 140.786 78.163C140.344 78.163 139.958 78.2497 139.629 78.423C139.3 78.5963 139.044 78.852 138.862 79.19C138.689 79.528 138.602 79.9483 138.602 80.451V84H137.354V77.11H138.55V78.969L138.355 78.475C138.58 78.0243 138.927 77.6733 139.395 77.422C139.863 77.1707 140.409 77.045 141.033 77.045ZM153.347 84.078C152.775 84.078 152.25 83.948 151.774 83.688C151.306 83.4193 150.929 83.025 150.643 82.505C150.365 81.985 150.227 81.335 150.227 80.555C150.227 79.775 150.361 79.125 150.63 78.605C150.907 78.085 151.28 77.695 151.748 77.435C152.224 77.175 152.757 77.045 153.347 77.045C154.023 77.045 154.621 77.1923 155.141 77.487C155.661 77.7817 156.072 78.1933 156.376 78.722C156.679 79.242 156.831 79.853 156.831 80.555C156.831 81.257 156.679 81.8723 156.376 82.401C156.072 82.9297 155.661 83.3413 155.141 83.636C154.621 83.9307 154.023 84.078 153.347 84.078ZM149.694 86.522V77.11H150.89V78.969L150.812 80.568L150.942 82.167V86.522H149.694ZM153.243 82.986C153.685 82.986 154.079 82.8863 154.426 82.687C154.781 82.4877 155.058 82.206 155.258 81.842C155.466 81.4693 155.57 81.0403 155.57 80.555C155.57 80.061 155.466 79.6363 155.258 79.281C155.058 78.917 154.781 78.6353 154.426 78.436C154.079 78.2367 153.685 78.137 153.243 78.137C152.809 78.137 152.415 78.2367 152.06 78.436C151.713 78.6353 151.436 78.917 151.228 79.281C151.028 79.6363 150.929 80.061 150.929 80.555C150.929 81.0403 151.028 81.4693 151.228 81.842C151.436 82.206 151.713 82.4877 152.06 82.687C152.415 82.8863 152.809 82.986 153.243 82.986ZM161.623 84.078C160.886 84.078 160.236 83.9263 159.673 83.623C159.118 83.3197 158.685 82.9037 158.373 82.375C158.07 81.8463 157.918 81.2397 157.918 80.555C157.918 79.8703 158.065 79.2637 158.36 78.735C158.663 78.2063 159.075 77.7947 159.595 77.5C160.124 77.1967 160.717 77.045 161.376 77.045C162.043 77.045 162.633 77.1923 163.144 77.487C163.655 77.7817 164.054 78.1977 164.34 78.735C164.635 79.2637 164.782 79.8833 164.782 80.594C164.782 80.646 164.778 80.7067 164.769 80.776C164.769 80.8453 164.765 80.9103 164.756 80.971H158.893V80.074H164.106L163.599 80.386C163.608 79.944 163.517 79.5497 163.326 79.203C163.135 78.8563 162.871 78.5877 162.533 78.397C162.204 78.1977 161.818 78.098 161.376 78.098C160.943 78.098 160.557 78.1977 160.219 78.397C159.881 78.5877 159.617 78.8607 159.426 79.216C159.235 79.5627 159.14 79.9613 159.14 80.412V80.62C159.14 81.0793 159.244 81.491 159.452 81.855C159.669 82.2103 159.968 82.4877 160.349 82.687C160.73 82.8863 161.168 82.986 161.662 82.986C162.069 82.986 162.438 82.9167 162.767 82.778C163.105 82.6393 163.4 82.4313 163.651 82.154L164.34 82.96C164.028 83.324 163.638 83.6013 163.17 83.792C162.711 83.9827 162.195 84.078 161.623 84.078ZM168.881 84.078C168.188 84.078 167.65 83.8917 167.269 83.519C166.888 83.1463 166.697 82.6133 166.697 81.92V75.602H167.945V81.868C167.945 82.2407 168.036 82.5267 168.218 82.726C168.409 82.9253 168.677 83.025 169.024 83.025C169.414 83.025 169.739 82.9167 169.999 82.7L170.389 83.597C170.198 83.7617 169.969 83.883 169.7 83.961C169.44 84.039 169.167 84.078 168.881 84.078ZM165.527 78.137V77.11H169.921V78.137H165.527ZM176.175 84V82.544L176.11 82.271V79.788C176.11 79.2593 175.954 78.852 175.642 78.566C175.339 78.2713 174.879 78.124 174.264 78.124C173.857 78.124 173.458 78.1933 173.068 78.332C172.678 78.462 172.349 78.6397 172.08 78.865L171.56 77.929C171.915 77.643 172.34 77.4263 172.834 77.279C173.337 77.123 173.861 77.045 174.407 77.045C175.352 77.045 176.08 77.2747 176.591 77.734C177.102 78.1933 177.358 78.8953 177.358 79.84V84H176.175ZM173.913 84.078C173.402 84.078 172.951 83.9913 172.561 83.818C172.18 83.6447 171.885 83.4063 171.677 83.103C171.469 82.791 171.365 82.44 171.365 82.05C171.365 81.6773 171.452 81.3393 171.625 81.036C171.807 80.7327 172.097 80.49 172.496 80.308C172.903 80.126 173.449 80.035 174.134 80.035H176.318V80.932H174.186C173.562 80.932 173.142 81.036 172.925 81.244C172.708 81.452 172.6 81.7033 172.6 81.998C172.6 82.336 172.734 82.609 173.003 82.817C173.272 83.0163 173.644 83.116 174.121 83.116C174.589 83.116 174.996 83.012 175.343 82.804C175.698 82.596 175.954 82.2927 176.11 81.894L176.357 82.752C176.192 83.1593 175.902 83.4843 175.486 83.727C175.07 83.961 174.546 84.078 173.913 84.078ZM183.159 84V74.354H184.407V84H183.159ZM189.74 84.078C189.047 84.078 188.432 83.9263 187.894 83.623C187.357 83.3197 186.932 82.9037 186.62 82.375C186.308 81.8377 186.152 81.231 186.152 80.555C186.152 79.8703 186.308 79.2637 186.62 78.735C186.932 78.2063 187.357 77.7947 187.894 77.5C188.432 77.1967 189.047 77.045 189.74 77.045C190.425 77.045 191.036 77.1967 191.573 77.5C192.119 77.7947 192.544 78.2063 192.847 78.735C193.159 79.255 193.315 79.8617 193.315 80.555C193.315 81.2397 193.159 81.8463 192.847 82.375C192.544 82.9037 192.119 83.3197 191.573 83.623C191.036 83.9263 190.425 84.078 189.74 84.078ZM189.74 82.986C190.182 82.986 190.577 82.8863 190.923 82.687C191.279 82.4877 191.556 82.206 191.755 81.842C191.955 81.4693 192.054 81.0403 192.054 80.555C192.054 80.061 191.955 79.6363 191.755 79.281C191.556 78.917 191.279 78.6353 190.923 78.436C190.577 78.2367 190.182 78.137 189.74 78.137C189.298 78.137 188.904 78.2367 188.557 78.436C188.211 78.6353 187.933 78.917 187.725 79.281C187.517 79.6363 187.413 80.061 187.413 80.555C187.413 81.0403 187.517 81.4693 187.725 81.842C187.933 82.206 188.211 82.4877 188.557 82.687C188.904 82.8863 189.298 82.986 189.74 82.986ZM196.055 82.336L196.081 80.737L200.046 77.11H201.554L198.512 80.1L197.836 80.672L196.055 82.336ZM195.041 84V74.354H196.289V84H195.041ZM200.306 84L197.602 80.646L198.408 79.645L201.84 84H200.306ZM207.202 84V82.544L207.137 82.271V79.788C207.137 79.2593 206.981 78.852 206.669 78.566C206.366 78.2713 205.907 78.124 205.291 78.124C204.884 78.124 204.485 78.1933 204.095 78.332C203.705 78.462 203.376 78.6397 203.107 78.865L202.587 77.929C202.943 77.643 203.367 77.4263 203.861 77.279C204.364 77.123 204.888 77.045 205.434 77.045C206.379 77.045 207.107 77.2747 207.618 77.734C208.13 78.1933 208.385 78.8953 208.385 79.84V84H207.202ZM204.94 84.078C204.429 84.078 203.978 83.9913 203.588 83.818C203.207 83.6447 202.912 83.4063 202.704 83.103C202.496 82.791 202.392 82.44 202.392 82.05C202.392 81.6773 202.479 81.3393 202.652 81.036C202.834 80.7327 203.125 80.49 203.523 80.308C203.931 80.126 204.477 80.035 205.161 80.035H207.345V80.932H205.213C204.589 80.932 204.169 81.036 203.952 81.244C203.736 81.452 203.627 81.7033 203.627 81.998C203.627 82.336 203.762 82.609 204.03 82.817C204.299 83.0163 204.672 83.116 205.148 83.116C205.616 83.116 206.024 83.012 206.37 82.804C206.726 82.596 206.981 82.2927 207.137 81.894L207.384 82.752C207.22 83.1593 206.929 83.4843 206.513 83.727C206.097 83.961 205.573 84.078 204.94 84.078ZM212.671 84.078C212.099 84.078 211.553 84 211.033 83.844C210.521 83.688 210.118 83.4973 209.824 83.272L210.344 82.284C210.638 82.4833 211.002 82.6523 211.436 82.791C211.869 82.9297 212.311 82.999 212.762 82.999C213.342 82.999 213.758 82.9167 214.01 82.752C214.27 82.5873 214.4 82.3577 214.4 82.063C214.4 81.8463 214.322 81.6773 214.166 81.556C214.01 81.4347 213.802 81.3437 213.542 81.283C213.29 81.2223 213.009 81.1703 212.697 81.127C212.385 81.075 212.073 81.0143 211.761 80.945C211.449 80.867 211.163 80.763 210.903 80.633C210.643 80.4943 210.435 80.308 210.279 80.074C210.123 79.8313 210.045 79.5107 210.045 79.112C210.045 78.696 210.162 78.332 210.396 78.02C210.63 77.708 210.959 77.4697 211.384 77.305C211.817 77.1317 212.328 77.045 212.918 77.045C213.368 77.045 213.823 77.1013 214.283 77.214C214.751 77.318 215.132 77.4697 215.427 77.669L214.894 78.657C214.582 78.449 214.257 78.306 213.919 78.228C213.581 78.15 213.243 78.111 212.905 78.111C212.359 78.111 211.951 78.202 211.683 78.384C211.414 78.5573 211.28 78.7827 211.28 79.06C211.28 79.294 211.358 79.476 211.514 79.606C211.678 79.7273 211.886 79.8227 212.138 79.892C212.398 79.9613 212.684 80.022 212.996 80.074C213.308 80.1173 213.62 80.178 213.932 80.256C214.244 80.3253 214.525 80.425 214.777 80.555C215.037 80.685 215.245 80.867 215.401 81.101C215.565 81.335 215.648 81.647 215.648 82.037C215.648 82.453 215.526 82.8127 215.284 83.116C215.041 83.4193 214.699 83.6577 214.257 83.831C213.815 83.9957 213.286 84.078 212.671 84.078ZM217.207 84V77.11H218.455V84H217.207ZM217.831 75.784C217.589 75.784 217.385 75.706 217.22 75.55C217.064 75.394 216.986 75.2033 216.986 74.978C216.986 74.744 217.064 74.549 217.22 74.393C217.385 74.237 217.589 74.159 217.831 74.159C218.074 74.159 218.273 74.237 218.429 74.393C218.594 74.5403 218.676 74.7267 218.676 74.952C218.676 75.186 218.598 75.3853 218.442 75.55C218.286 75.706 218.083 75.784 217.831 75.784ZM227.176 84.078C226.509 84.078 225.911 83.9307 225.382 83.636C224.862 83.3413 224.451 82.9297 224.147 82.401C223.844 81.8723 223.692 81.257 223.692 80.555C223.692 79.853 223.844 79.242 224.147 78.722C224.451 78.1933 224.862 77.7817 225.382 77.487C225.911 77.1923 226.509 77.045 227.176 77.045C227.757 77.045 228.281 77.175 228.749 77.435C229.217 77.695 229.59 78.085 229.867 78.605C230.153 79.125 230.296 79.775 230.296 80.555C230.296 81.335 230.158 81.985 229.88 82.505C229.612 83.025 229.243 83.4193 228.775 83.688C228.307 83.948 227.774 84.078 227.176 84.078ZM227.28 82.986C227.714 82.986 228.104 82.8863 228.45 82.687C228.806 82.4877 229.083 82.206 229.282 81.842C229.49 81.4693 229.594 81.0403 229.594 80.555C229.594 80.061 229.49 79.6363 229.282 79.281C229.083 78.917 228.806 78.6353 228.45 78.436C228.104 78.2367 227.714 78.137 227.28 78.137C226.838 78.137 226.444 78.2367 226.097 78.436C225.751 78.6353 225.473 78.917 225.265 79.281C225.057 79.6363 224.953 80.061 224.953 80.555C224.953 81.0403 225.057 81.4693 225.265 81.842C225.473 82.206 225.751 82.4877 226.097 82.687C226.444 82.8863 226.838 82.986 227.28 82.986ZM229.633 84V82.141L229.711 80.542L229.581 78.943V74.354H230.829V84H229.633ZM237.468 84V82.544L237.403 82.271V79.788C237.403 79.2593 237.247 78.852 236.935 78.566C236.631 78.2713 236.172 78.124 235.557 78.124C235.149 78.124 234.751 78.1933 234.361 78.332C233.971 78.462 233.641 78.6397 233.373 78.865L232.853 77.929C233.208 77.643 233.633 77.4263 234.127 77.279C234.629 77.123 235.154 77.045 235.7 77.045C236.644 77.045 237.372 77.2747 237.884 77.734C238.395 78.1933 238.651 78.8953 238.651 79.84V84H237.468ZM235.206 84.078C234.694 84.078 234.244 83.9913 233.854 83.818C233.472 83.6447 233.178 83.4063 232.97 83.103C232.762 82.791 232.658 82.44 232.658 82.05C232.658 81.6773 232.744 81.3393 232.918 81.036C233.1 80.7327 233.39 80.49 233.789 80.308C234.196 80.126 234.742 80.035 235.427 80.035H237.611V80.932H235.479C234.855 80.932 234.434 81.036 234.218 81.244C234.001 81.452 233.893 81.7033 233.893 81.998C233.893 82.336 234.027 82.609 234.296 82.817C234.564 83.0163 234.937 83.116 235.414 83.116C235.882 83.116 236.289 83.012 236.636 82.804C236.991 82.596 237.247 82.2927 237.403 81.894L237.65 82.752C237.485 83.1593 237.195 83.4843 236.779 83.727C236.363 83.961 235.838 84.078 235.206 84.078ZM240.96 84V77.11H242.156V78.982L242.039 78.514C242.23 78.0373 242.551 77.6733 243.001 77.422C243.452 77.1707 244.007 77.045 244.665 77.045V78.254C244.613 78.2453 244.561 78.241 244.509 78.241C244.466 78.241 244.423 78.241 244.379 78.241C243.712 78.241 243.183 78.4403 242.793 78.839C242.403 79.2377 242.208 79.814 242.208 80.568V84H240.96ZM249.191 84.078C248.602 84.078 248.082 83.9697 247.631 83.753C247.189 83.5363 246.843 83.207 246.591 82.765C246.349 82.3143 246.227 81.751 246.227 81.075V77.11H247.475V80.932C247.475 81.608 247.636 82.115 247.956 82.453C248.286 82.791 248.745 82.96 249.334 82.96C249.768 82.96 250.145 82.8733 250.465 82.7C250.786 82.518 251.033 82.258 251.206 81.92C251.38 81.5733 251.466 81.1573 251.466 80.672V77.11H252.714V84H251.531V82.141L251.726 82.635C251.501 83.0943 251.163 83.4497 250.712 83.701C250.262 83.9523 249.755 84.078 249.191 84.078ZM255.09 84V77.11H256.286V78.982L256.169 78.514C256.36 78.0373 256.681 77.6733 257.131 77.422C257.582 77.1707 258.137 77.045 258.795 77.045V78.254C258.743 78.2453 258.691 78.241 258.639 78.241C258.596 78.241 258.553 78.241 258.509 78.241C257.842 78.241 257.313 78.4403 256.923 78.839C256.533 79.2377 256.338 79.814 256.338 80.568V84H255.09ZM264.103 84V82.544L264.038 82.271V79.788C264.038 79.2593 263.882 78.852 263.57 78.566C263.266 78.2713 262.807 78.124 262.192 78.124C261.784 78.124 261.386 78.1933 260.996 78.332C260.606 78.462 260.276 78.6397 260.008 78.865L259.488 77.929C259.843 77.643 260.268 77.4263 260.762 77.279C261.264 77.123 261.789 77.045 262.335 77.045C263.279 77.045 264.007 77.2747 264.519 77.734C265.03 78.1933 265.286 78.8953 265.286 79.84V84H264.103ZM261.841 84.078C261.329 84.078 260.879 83.9913 260.489 83.818C260.107 83.6447 259.813 83.4063 259.605 83.103C259.397 82.791 259.293 82.44 259.293 82.05C259.293 81.6773 259.379 81.3393 259.553 81.036C259.735 80.7327 260.025 80.49 260.424 80.308C260.831 80.126 261.377 80.035 262.062 80.035H264.246V80.932H262.114C261.49 80.932 261.069 81.036 260.853 81.244C260.636 81.452 260.528 81.7033 260.528 81.998C260.528 82.336 260.662 82.609 260.931 82.817C261.199 83.0163 261.572 83.116 262.049 83.116C262.517 83.116 262.924 83.012 263.271 82.804C263.626 82.596 263.882 82.2927 264.038 81.894L264.285 82.752C264.12 83.1593 263.83 83.4843 263.414 83.727C262.998 83.961 262.473 84.078 261.841 84.078ZM269.961 84.078C269.268 84.078 268.73 83.8917 268.349 83.519C267.968 83.1463 267.777 82.6133 267.777 81.92V75.602H269.025V81.868C269.025 82.2407 269.116 82.5267 269.298 82.726C269.489 82.9253 269.757 83.025 270.104 83.025C270.494 83.025 270.819 82.9167 271.079 82.7L271.469 83.597C271.278 83.7617 271.049 83.883 270.78 83.961C270.52 84.039 270.247 84.078 269.961 84.078ZM266.607 78.137V77.11H271.001V78.137H266.607ZM18.482 107.6C18.1527 107.6 17.832 107.544 17.52 107.431C17.208 107.327 16.9393 107.171 16.714 106.963L17.247 106.027C17.4203 106.192 17.611 106.317 17.819 106.404C18.027 106.491 18.248 106.534 18.482 106.534C18.7853 106.534 19.0367 106.456 19.236 106.3C19.4353 106.144 19.6217 105.867 19.795 105.468L20.224 104.519L20.354 104.363L23.058 98.11H24.28L20.939 105.689C20.7397 106.174 20.5143 106.556 20.263 106.833C20.0203 107.11 19.7517 107.305 19.457 107.418C19.1623 107.539 18.8373 107.6 18.482 107.6ZM20.12 105.221L16.974 98.11H18.274L20.952 104.246L20.12 105.221ZM29.5059 105V103.544L29.4409 103.271V100.788C29.4409 100.259 29.2849 99.852 28.9729 99.566C28.6696 99.2713 28.2102 99.124 27.5949 99.124C27.1876 99.124 26.7889 99.1933 26.3989 99.332C26.0089 99.462 25.6796 99.6397 25.4109 99.865L24.8909 98.929C25.2462 98.643 25.6709 98.4263 26.1649 98.279C26.6676 98.123 27.1919 98.045 27.7379 98.045C28.6826 98.045 29.4106 98.2747 29.9219 98.734C30.4332 99.1933 30.6889 99.8953 30.6889 100.84V105H29.5059ZM27.2439 105.078C26.7326 105.078 26.2819 104.991 25.8919 104.818C25.5106 104.645 25.2159 104.406 25.0079 104.103C24.7999 103.791 24.6959 103.44 24.6959 103.05C24.6959 102.677 24.7826 102.339 24.9559 102.036C25.1379 101.733 25.4282 101.49 25.8269 101.308C26.2342 101.126 26.7802 101.035 27.4649 101.035H29.6489V101.932H27.5169C26.8929 101.932 26.4726 102.036 26.2559 102.244C26.0392 102.452 25.9309 102.703 25.9309 102.998C25.9309 103.336 26.0652 103.609 26.3339 103.817C26.6026 104.016 26.9752 104.116 27.4519 104.116C27.9199 104.116 28.3272 104.012 28.6739 103.804C29.0292 103.596 29.2849 103.293 29.4409 102.894L29.6879 103.752C29.5232 104.159 29.2329 104.484 28.8169 104.727C28.4009 104.961 27.8766 105.078 27.2439 105.078ZM36.6774 98.045C37.2408 98.045 37.7348 98.1533 38.1594 98.37C38.5928 98.5867 38.9308 98.916 39.1734 99.358C39.4161 99.8 39.5374 100.359 39.5374 101.035V105H38.2894V101.178C38.2894 100.511 38.1248 100.008 37.7954 99.67C37.4748 99.332 37.0198 99.163 36.4304 99.163C35.9884 99.163 35.6028 99.2497 35.2734 99.423C34.9441 99.5963 34.6884 99.852 34.5064 100.19C34.3331 100.528 34.2464 100.948 34.2464 101.451V105H32.9984V98.11H34.1944V99.969L33.9994 99.475C34.2248 99.0243 34.5714 98.6733 35.0394 98.422C35.5074 98.1707 36.0534 98.045 36.6774 98.045ZM44.8631 107.6C44.2304 107.6 43.6151 107.509 43.0171 107.327C42.4277 107.154 41.9467 106.902 41.5741 106.573L42.1721 105.611C42.4927 105.888 42.8871 106.105 43.3551 106.261C43.8231 106.426 44.3127 106.508 44.8241 106.508C45.6387 106.508 46.2367 106.317 46.6181 105.936C46.9994 105.555 47.1901 104.974 47.1901 104.194V102.738L47.3201 101.373L47.2551 99.995V98.11H48.4381V104.064C48.4381 105.277 48.1347 106.17 47.5281 106.742C46.9214 107.314 46.0331 107.6 44.8631 107.6ZM44.7071 104.714C44.0397 104.714 43.4417 104.575 42.9131 104.298C42.3931 104.012 41.9771 103.618 41.6651 103.115C41.3617 102.612 41.2101 102.032 41.2101 101.373C41.2101 100.706 41.3617 100.125 41.6651 99.631C41.9771 99.1283 42.3931 98.7383 42.9131 98.461C43.4417 98.1837 44.0397 98.045 44.7071 98.045C45.2964 98.045 45.8337 98.1663 46.3191 98.409C46.8044 98.643 47.1901 99.007 47.4761 99.501C47.7707 99.995 47.9181 100.619 47.9181 101.373C47.9181 102.118 47.7707 102.738 47.4761 103.232C47.1901 103.726 46.8044 104.099 46.3191 104.35C45.8337 104.593 45.2964 104.714 44.7071 104.714ZM44.8501 103.622C45.3094 103.622 45.7167 103.527 46.0721 103.336C46.4274 103.145 46.7047 102.881 46.9041 102.543C47.1121 102.205 47.2161 101.815 47.2161 101.373C47.2161 100.931 47.1121 100.541 46.9041 100.203C46.7047 99.865 46.4274 99.605 46.0721 99.423C45.7167 99.2323 45.3094 99.137 44.8501 99.137C44.3907 99.137 43.9791 99.2323 43.6151 99.423C43.2597 99.605 42.9781 99.865 42.7701 100.203C42.5707 100.541 42.4711 100.931 42.4711 101.373C42.4711 101.815 42.5707 102.205 42.7701 102.543C42.9781 102.881 43.2597 103.145 43.6151 103.336C43.9791 103.527 44.3907 103.622 44.8501 103.622ZM62.9329 98.045C63.4875 98.045 63.9772 98.1533 64.4019 98.37C64.8265 98.5867 65.1559 98.916 65.3899 99.358C65.6325 99.8 65.7539 100.359 65.7539 101.035V105H64.5059V101.178C64.5059 100.511 64.3499 100.008 64.0379 99.67C63.7259 99.332 63.2882 99.163 62.7249 99.163C62.3089 99.163 61.9449 99.2497 61.6329 99.423C61.3209 99.5963 61.0782 99.852 60.9049 100.19C60.7402 100.528 60.6579 100.948 60.6579 101.451V105H59.4099V101.178C59.4099 100.511 59.2539 100.008 58.9419 99.67C58.6385 99.332 58.2009 99.163 57.6289 99.163C57.2215 99.163 56.8619 99.2497 56.5499 99.423C56.2379 99.5963 55.9952 99.852 55.8219 100.19C55.6485 100.528 55.5619 100.948 55.5619 101.451V105H54.3139V98.11H55.5099V99.943L55.3149 99.475C55.5315 99.0243 55.8652 98.6733 56.3159 98.422C56.7665 98.1707 57.2909 98.045 57.8889 98.045C58.5475 98.045 59.1152 98.2097 59.5919 98.539C60.0685 98.8597 60.3805 99.3493 60.5279 100.008L60.0209 99.8C60.2289 99.2713 60.5929 98.8467 61.1129 98.526C61.6329 98.2053 62.2395 98.045 62.9329 98.045ZM71.1182 105.078C70.3815 105.078 69.7315 104.926 69.1682 104.623C68.6135 104.32 68.1802 103.904 67.8682 103.375C67.5649 102.846 67.4132 102.24 67.4132 101.555C67.4132 100.87 67.5605 100.264 67.8552 99.735C68.1585 99.2063 68.5702 98.7947 69.0902 98.5C69.6189 98.1967 70.2125 98.045 70.8712 98.045C71.5385 98.045 72.1279 98.1923 72.6392 98.487C73.1505 98.7817 73.5492 99.1977 73.8352 99.735C74.1299 100.264 74.2772 100.883 74.2772 101.594C74.2772 101.646 74.2729 101.707 74.2642 101.776C74.2642 101.845 74.2599 101.91 74.2512 101.971H68.3882V101.074H73.6012L73.0942 101.386C73.1029 100.944 73.0119 100.55 72.8212 100.203C72.6305 99.8563 72.3662 99.5877 72.0282 99.397C71.6989 99.1977 71.3132 99.098 70.8712 99.098C70.4379 99.098 70.0522 99.1977 69.7142 99.397C69.3762 99.5877 69.1119 99.8607 68.9212 100.216C68.7305 100.563 68.6352 100.961 68.6352 101.412V101.62C68.6352 102.079 68.7392 102.491 68.9472 102.855C69.1639 103.21 69.4629 103.488 69.8442 103.687C70.2255 103.886 70.6632 103.986 71.1572 103.986C71.5645 103.986 71.9329 103.917 72.2622 103.778C72.6002 103.639 72.8949 103.431 73.1462 103.154L73.8352 103.96C73.5232 104.324 73.1332 104.601 72.6652 104.792C72.2059 104.983 71.6902 105.078 71.1182 105.078ZM79.6891 98.045C80.2525 98.045 80.7465 98.1533 81.1711 98.37C81.6045 98.5867 81.9425 98.916 82.1851 99.358C82.4278 99.8 82.5491 100.359 82.5491 101.035V105H81.3011V101.178C81.3011 100.511 81.1365 100.008 80.8071 99.67C80.4865 99.332 80.0315 99.163 79.4421 99.163C79.0001 99.163 78.6145 99.2497 78.2851 99.423C77.9558 99.5963 77.7001 99.852 77.5181 100.19C77.3448 100.528 77.2581 100.948 77.2581 101.451V105H76.0101V98.11H77.2061V99.969L77.0111 99.475C77.2365 99.0243 77.5831 98.6733 78.0511 98.422C78.5191 98.1707 79.0651 98.045 79.6891 98.045ZM87.7578 105.078C87.1684 105.078 86.6484 104.97 86.1978 104.753C85.7558 104.536 85.4091 104.207 85.1578 103.765C84.9151 103.314 84.7938 102.751 84.7938 102.075V98.11H86.0418V101.932C86.0418 102.608 86.2021 103.115 86.5228 103.453C86.8521 103.791 87.3114 103.96 87.9008 103.96C88.3341 103.96 88.7111 103.873 89.0318 103.7C89.3524 103.518 89.5994 103.258 89.7728 102.92C89.9461 102.573 90.0328 102.157 90.0328 101.672V98.11H91.2808V105H90.0978V103.141L90.2928 103.635C90.0674 104.094 89.7294 104.45 89.2788 104.701C88.8281 104.952 88.3211 105.078 87.7578 105.078ZM97.3356 98.045C97.899 98.045 98.393 98.1533 98.8176 98.37C99.251 98.5867 99.589 98.916 99.8316 99.358C100.074 99.8 100.196 100.359 100.196 101.035V105H98.9476V101.178C98.9476 100.511 98.783 100.008 98.4536 99.67C98.133 99.332 97.678 99.163 97.0886 99.163C96.6466 99.163 96.261 99.2497 95.9316 99.423C95.6023 99.5963 95.3466 99.852 95.1646 100.19C94.9913 100.528 94.9046 100.948 94.9046 101.451V105H93.6566V98.11H94.8526V99.969L94.6576 99.475C94.883 99.0243 95.2296 98.6733 95.6976 98.422C96.1656 98.1707 96.7116 98.045 97.3356 98.045ZM101.621 107.6C101.335 107.6 101.062 107.565 100.802 107.496C100.534 107.427 100.308 107.323 100.126 107.184L100.529 106.222C100.789 106.439 101.127 106.547 101.543 106.547C101.873 106.547 102.124 106.443 102.297 106.235C102.479 106.036 102.57 105.737 102.57 105.338V98.11H103.818V105.312C103.818 106.014 103.628 106.569 103.246 106.976C102.874 107.392 102.332 107.6 101.621 107.6ZM103.194 96.784C102.952 96.784 102.748 96.706 102.583 96.55C102.427 96.394 102.349 96.2033 102.349 95.978C102.349 95.744 102.427 95.549 102.583 95.393C102.748 95.237 102.952 95.159 103.194 95.159C103.437 95.159 103.636 95.237 103.792 95.393C103.957 95.5403 104.039 95.7267 104.039 95.952C104.039 96.186 103.961 96.3853 103.805 96.55C103.649 96.706 103.446 96.784 103.194 96.784ZM109.099 105.078C108.509 105.078 107.989 104.97 107.539 104.753C107.097 104.536 106.75 104.207 106.499 103.765C106.256 103.314 106.135 102.751 106.135 102.075V98.11H107.383V101.932C107.383 102.608 107.543 103.115 107.864 103.453C108.193 103.791 108.652 103.96 109.242 103.96C109.675 103.96 110.052 103.873 110.373 103.7C110.693 103.518 110.94 103.258 111.114 102.92C111.287 102.573 111.374 102.157 111.374 101.672V98.11H112.622V105H111.439V103.141L111.634 103.635C111.408 104.094 111.07 104.45 110.62 104.701C110.169 104.952 109.662 105.078 109.099 105.078ZM116.011 103.336L116.037 101.737L120.002 98.11H121.51L118.468 101.1L117.792 101.672L116.011 103.336ZM114.997 105V95.354H116.245V105H114.997ZM120.262 105L117.558 101.646L118.364 100.645L121.796 105H120.262ZM124.022 103.336L124.048 101.737L128.013 98.11H129.521L126.479 101.1L125.803 101.672L124.022 103.336ZM123.008 105V95.354H124.256V105H123.008ZM128.273 105L125.569 101.646L126.375 100.645L129.807 105H128.273ZM135.169 105V103.544L135.104 103.271V100.788C135.104 100.259 134.948 99.852 134.636 99.566C134.333 99.2713 133.873 99.124 133.258 99.124C132.851 99.124 132.452 99.1933 132.062 99.332C131.672 99.462 131.343 99.6397 131.074 99.865L130.554 98.929C130.909 98.643 131.334 98.4263 131.828 98.279C132.331 98.123 132.855 98.045 133.401 98.045C134.346 98.045 135.074 98.2747 135.585 98.734C136.096 99.1933 136.352 99.8953 136.352 100.84V105H135.169ZM132.907 105.078C132.396 105.078 131.945 104.991 131.555 104.818C131.174 104.645 130.879 104.406 130.671 104.103C130.463 103.791 130.359 103.44 130.359 103.05C130.359 102.677 130.446 102.339 130.619 102.036C130.801 101.733 131.091 101.49 131.49 101.308C131.897 101.126 132.443 101.035 133.128 101.035H135.312V101.932H133.18C132.556 101.932 132.136 102.036 131.919 102.244C131.702 102.452 131.594 102.703 131.594 102.998C131.594 103.336 131.728 103.609 131.997 103.817C132.266 104.016 132.638 104.116 133.115 104.116C133.583 104.116 133.99 104.012 134.337 103.804C134.692 103.596 134.948 103.293 135.104 102.894L135.351 103.752C135.186 104.159 134.896 104.484 134.48 104.727C134.064 104.961 133.54 105.078 132.907 105.078ZM142.341 98.045C142.904 98.045 143.398 98.1533 143.823 98.37C144.256 98.5867 144.594 98.916 144.837 99.358C145.079 99.8 145.201 100.359 145.201 101.035V105H143.953V101.178C143.953 100.511 143.788 100.008 143.459 99.67C143.138 99.332 142.683 99.163 142.094 99.163C141.652 99.163 141.266 99.2497 140.937 99.423C140.607 99.5963 140.352 99.852 140.17 100.19C139.996 100.528 139.91 100.948 139.91 101.451V105H138.662V98.11H139.858V99.969L139.663 99.475C139.888 99.0243 140.235 98.6733 140.703 98.422C141.171 98.1707 141.717 98.045 142.341 98.045ZM153.367 105.078C152.674 105.078 152.137 104.892 151.755 104.519C151.374 104.146 151.183 103.613 151.183 102.92V96.602H152.431V102.868C152.431 103.241 152.522 103.527 152.704 103.726C152.895 103.925 153.164 104.025 153.51 104.025C153.9 104.025 154.225 103.917 154.485 103.7L154.875 104.597C154.685 104.762 154.455 104.883 154.186 104.961C153.926 105.039 153.653 105.078 153.367 105.078ZM150.013 99.137V98.11H154.407V99.137H150.013ZM156.384 105V98.11H157.632V105H156.384ZM157.008 96.784C156.766 96.784 156.562 96.706 156.397 96.55C156.241 96.394 156.163 96.2033 156.163 95.978C156.163 95.744 156.241 95.549 156.397 95.393C156.562 95.237 156.766 95.159 157.008 95.159C157.251 95.159 157.45 95.237 157.606 95.393C157.771 95.5403 157.853 95.7267 157.853 95.952C157.853 96.186 157.775 96.3853 157.619 96.55C157.463 96.706 157.26 96.784 157.008 96.784ZM162.381 105.078C161.688 105.078 161.15 104.892 160.769 104.519C160.388 104.146 160.197 103.613 160.197 102.92V96.602H161.445V102.868C161.445 103.241 161.536 103.527 161.718 103.726C161.909 103.925 162.177 104.025 162.524 104.025C162.914 104.025 163.239 103.917 163.499 103.7L163.889 104.597C163.698 104.762 163.469 104.883 163.2 104.961C162.94 105.039 162.667 105.078 162.381 105.078ZM159.027 99.137V98.11H163.421V99.137H159.027ZM165.398 105V98.11H166.646V105H165.398ZM166.022 96.784C165.779 96.784 165.576 96.706 165.411 96.55C165.255 96.394 165.177 96.2033 165.177 95.978C165.177 95.744 165.255 95.549 165.411 95.393C165.576 95.237 165.779 95.159 166.022 95.159C166.265 95.159 166.464 95.237 166.62 95.393C166.785 95.5403 166.867 95.7267 166.867 95.952C166.867 96.186 166.789 96.3853 166.633 96.55C166.477 96.706 166.273 96.784 166.022 96.784ZM170.043 103.336L170.069 101.737L174.034 98.11H175.542L172.5 101.1L171.824 101.672L170.043 103.336ZM169.029 105V95.354H170.277V105H169.029ZM174.294 105L171.59 101.646L172.396 100.645L175.828 105H174.294ZM176.305 101.971V100.892H179.802V101.971H176.305ZM184.217 105.078C183.524 105.078 182.986 104.892 182.605 104.519C182.224 104.146 182.033 103.613 182.033 102.92V96.602H183.281V102.868C183.281 103.241 183.372 103.527 183.554 103.726C183.745 103.925 184.013 104.025 184.36 104.025C184.75 104.025 185.075 103.917 185.335 103.7L185.725 104.597C185.534 104.762 185.305 104.883 185.036 104.961C184.776 105.039 184.503 105.078 184.217 105.078ZM180.863 99.137V98.11H185.257V99.137H180.863ZM187.234 105V98.11H188.482V105H187.234ZM187.858 96.784C187.615 96.784 187.411 96.706 187.247 96.55C187.091 96.394 187.013 96.2033 187.013 95.978C187.013 95.744 187.091 95.549 187.247 95.393C187.411 95.237 187.615 95.159 187.858 95.159C188.1 95.159 188.3 95.237 188.456 95.393C188.62 95.5403 188.703 95.7267 188.703 95.952C188.703 96.186 188.625 96.3853 188.469 96.55C188.313 96.706 188.109 96.784 187.858 96.784ZM193.231 105.078C192.537 105.078 192 104.892 191.619 104.519C191.237 104.146 191.047 103.613 191.047 102.92V96.602H192.295V102.868C192.295 103.241 192.386 103.527 192.568 103.726C192.758 103.925 193.027 104.025 193.374 104.025C193.764 104.025 194.089 103.917 194.349 103.7L194.739 104.597C194.548 104.762 194.318 104.883 194.05 104.961C193.79 105.039 193.517 105.078 193.231 105.078ZM189.877 99.137V98.11H194.271V99.137H189.877ZM196.247 105V98.11H197.495V105H196.247ZM196.871 96.784C196.629 96.784 196.425 96.706 196.26 96.55C196.104 96.394 196.026 96.2033 196.026 95.978C196.026 95.744 196.104 95.549 196.26 95.393C196.425 95.237 196.629 95.159 196.871 95.159C197.114 95.159 197.313 95.237 197.469 95.393C197.634 95.5403 197.716 95.7267 197.716 95.952C197.716 96.186 197.638 96.3853 197.482 96.55C197.326 96.706 197.123 96.784 196.871 96.784ZM200.892 103.336L200.918 101.737L204.883 98.11H206.391L203.349 101.1L202.673 101.672L200.892 103.336ZM199.878 105V95.354H201.126V105H199.878ZM205.143 105L202.439 101.646L203.245 100.645L206.677 105H205.143ZM215.033 105.078C214.461 105.078 213.937 104.948 213.46 104.688C212.992 104.419 212.615 104.025 212.329 103.505C212.052 102.985 211.913 102.335 211.913 101.555C211.913 100.775 212.048 100.125 212.316 99.605C212.594 99.085 212.966 98.695 213.434 98.435C213.911 98.175 214.444 98.045 215.033 98.045C215.709 98.045 216.307 98.1923 216.827 98.487C217.347 98.7817 217.759 99.1933 218.062 99.722C218.366 100.242 218.517 100.853 218.517 101.555C218.517 102.257 218.366 102.872 218.062 103.401C217.759 103.93 217.347 104.341 216.827 104.636C216.307 104.931 215.709 105.078 215.033 105.078ZM211.38 107.522V98.11H212.576V99.969L212.498 101.568L212.628 103.167V107.522H211.38ZM214.929 103.986C215.371 103.986 215.766 103.886 216.112 103.687C216.468 103.488 216.745 103.206 216.944 102.842C217.152 102.469 217.256 102.04 217.256 101.555C217.256 101.061 217.152 100.636 216.944 100.281C216.745 99.917 216.468 99.6353 216.112 99.436C215.766 99.2367 215.371 99.137 214.929 99.137C214.496 99.137 214.102 99.2367 213.746 99.436C213.4 99.6353 213.122 99.917 212.914 100.281C212.715 100.636 212.615 101.061 212.615 101.555C212.615 102.04 212.715 102.469 212.914 102.842C213.122 103.206 213.4 103.488 213.746 103.687C214.102 103.886 214.496 103.986 214.929 103.986ZM223.31 105.078C222.573 105.078 221.923 104.926 221.36 104.623C220.805 104.32 220.372 103.904 220.06 103.375C219.756 102.846 219.605 102.24 219.605 101.555C219.605 100.87 219.752 100.264 220.047 99.735C220.35 99.2063 220.762 98.7947 221.282 98.5C221.81 98.1967 222.404 98.045 223.063 98.045C223.73 98.045 224.319 98.1923 224.831 98.487C225.342 98.7817 225.741 99.1977 226.027 99.735C226.321 100.264 226.469 100.883 226.469 101.594C226.469 101.646 226.464 101.707 226.456 101.776C226.456 101.845 226.451 101.91 226.443 101.971H220.58V101.074H225.793L225.286 101.386C225.294 100.944 225.203 100.55 225.013 100.203C224.822 99.8563 224.558 99.5877 224.22 99.397C223.89 99.1977 223.505 99.098 223.063 99.098C222.629 99.098 222.244 99.1977 221.906 99.397C221.568 99.5877 221.303 99.8607 221.113 100.216C220.922 100.563 220.827 100.961 220.827 101.412V101.62C220.827 102.079 220.931 102.491 221.139 102.855C221.355 103.21 221.654 103.488 222.036 103.687C222.417 103.886 222.855 103.986 223.349 103.986C223.756 103.986 224.124 103.917 224.454 103.778C224.792 103.639 225.086 103.431 225.338 103.154L226.027 103.96C225.715 104.324 225.325 104.601 224.857 104.792C224.397 104.983 223.882 105.078 223.31 105.078ZM231.881 98.045C232.444 98.045 232.938 98.1533 233.363 98.37C233.796 98.5867 234.134 98.916 234.377 99.358C234.619 99.8 234.741 100.359 234.741 101.035V105H233.493V101.178C233.493 100.511 233.328 100.008 232.999 99.67C232.678 99.332 232.223 99.163 231.634 99.163C231.192 99.163 230.806 99.2497 230.477 99.423C230.147 99.5963 229.892 99.852 229.71 100.19C229.536 100.528 229.45 100.948 229.45 101.451V105H228.202V98.11H229.398V99.969L229.203 99.475C229.428 99.0243 229.775 98.6733 230.243 98.422C230.711 98.1707 231.257 98.045 231.881 98.045ZM239.416 105.078C238.723 105.078 238.186 104.892 237.804 104.519C237.423 104.146 237.232 103.613 237.232 102.92V96.602H238.48V102.868C238.48 103.241 238.571 103.527 238.753 103.726C238.944 103.925 239.213 104.025 239.559 104.025C239.949 104.025 240.274 103.917 240.534 103.7L240.924 104.597C240.734 104.762 240.504 104.883 240.235 104.961C239.975 105.039 239.702 105.078 239.416 105.078ZM236.062 99.137V98.11H240.456V99.137H236.062ZM242.433 105V98.11H243.681V105H242.433ZM243.057 96.784C242.814 96.784 242.611 96.706 242.446 96.55C242.29 96.394 242.212 96.2033 242.212 95.978C242.212 95.744 242.29 95.549 242.446 95.393C242.611 95.237 242.814 95.159 243.057 95.159C243.3 95.159 243.499 95.237 243.655 95.393C243.82 95.5403 243.902 95.7267 243.902 95.952C243.902 96.186 243.824 96.3853 243.668 96.55C243.512 96.706 243.308 96.784 243.057 96.784ZM249.743 98.045C250.306 98.045 250.8 98.1533 251.225 98.37C251.658 98.5867 251.996 98.916 252.239 99.358C252.482 99.8 252.603 100.359 252.603 101.035V105H251.355V101.178C251.355 100.511 251.19 100.008 250.861 99.67C250.54 99.332 250.085 99.163 249.496 99.163C249.054 99.163 248.668 99.2497 248.339 99.423C248.01 99.5963 247.754 99.852 247.572 100.19C247.399 100.528 247.312 100.948 247.312 101.451V105H246.064V98.11H247.26V99.969L247.065 99.475C247.29 99.0243 247.637 98.6733 248.105 98.422C248.573 98.1707 249.119 98.045 249.743 98.045ZM257.928 107.6C257.296 107.6 256.68 107.509 256.082 107.327C255.493 107.154 255.012 106.902 254.639 106.573L255.237 105.611C255.558 105.888 255.952 106.105 256.42 106.261C256.888 106.426 257.378 106.508 257.889 106.508C258.704 106.508 259.302 106.317 259.683 105.936C260.065 105.555 260.255 104.974 260.255 104.194V102.738L260.385 101.373L260.32 99.995V98.11H261.503V104.064C261.503 105.277 261.2 106.17 260.593 106.742C259.987 107.314 259.098 107.6 257.928 107.6ZM257.772 104.714C257.105 104.714 256.507 104.575 255.978 104.298C255.458 104.012 255.042 103.618 254.73 103.115C254.427 102.612 254.275 102.032 254.275 101.373C254.275 100.706 254.427 100.125 254.73 99.631C255.042 99.1283 255.458 98.7383 255.978 98.461C256.507 98.1837 257.105 98.045 257.772 98.045C258.362 98.045 258.899 98.1663 259.384 98.409C259.87 98.643 260.255 99.007 260.541 99.501C260.836 99.995 260.983 100.619 260.983 101.373C260.983 102.118 260.836 102.738 260.541 103.232C260.255 103.726 259.87 104.099 259.384 104.35C258.899 104.593 258.362 104.714 257.772 104.714ZM257.915 103.622C258.375 103.622 258.782 103.527 259.137 103.336C259.493 103.145 259.77 102.881 259.969 102.543C260.177 102.205 260.281 101.815 260.281 101.373C260.281 100.931 260.177 100.541 259.969 100.203C259.77 99.865 259.493 99.605 259.137 99.423C258.782 99.2323 258.375 99.137 257.915 99.137C257.456 99.137 257.044 99.2323 256.68 99.423C256.325 99.605 256.043 99.865 255.835 100.203C255.636 100.541 255.536 100.931 255.536 101.373C255.536 101.815 255.636 102.205 255.835 102.543C256.043 102.881 256.325 103.145 256.68 103.336C257.044 103.527 257.456 103.622 257.915 103.622ZM20.159 126.078C19.587 126.078 19.041 126 18.521 125.844C18.0097 125.688 17.6067 125.497 17.312 125.272L17.832 124.284C18.1267 124.483 18.4907 124.652 18.924 124.791C19.3573 124.93 19.7993 124.999 20.25 124.999C20.8307 124.999 21.2467 124.917 21.498 124.752C21.758 124.587 21.888 124.358 21.888 124.063C21.888 123.846 21.81 123.677 21.654 123.556C21.498 123.435 21.29 123.344 21.03 123.283C20.7787 123.222 20.497 123.17 20.185 123.127C19.873 123.075 19.561 123.014 19.249 122.945C18.937 122.867 18.651 122.763 18.391 122.633C18.131 122.494 17.923 122.308 17.767 122.074C17.611 121.831 17.533 121.511 17.533 121.112C17.533 120.696 17.65 120.332 17.884 120.02C18.118 119.708 18.4473 119.47 18.872 119.305C19.3053 119.132 19.8167 119.045 20.406 119.045C20.8567 119.045 21.3117 119.101 21.771 119.214C22.239 119.318 22.6203 119.47 22.915 119.669L22.382 120.657C22.07 120.449 21.745 120.306 21.407 120.228C21.069 120.15 20.731 120.111 20.393 120.111C19.847 120.111 19.4397 120.202 19.171 120.384C18.9023 120.557 18.768 120.783 18.768 121.06C18.768 121.294 18.846 121.476 19.002 121.606C19.1667 121.727 19.3747 121.823 19.626 121.892C19.886 121.961 20.172 122.022 20.484 122.074C20.796 122.117 21.108 122.178 21.42 122.256C21.732 122.325 22.0137 122.425 22.265 122.555C22.525 122.685 22.733 122.867 22.889 123.101C23.0537 123.335 23.136 123.647 23.136 124.037C23.136 124.453 23.0147 124.813 22.772 125.116C22.5293 125.419 22.187 125.658 21.745 125.831C21.303 125.996 20.7743 126.078 20.159 126.078ZM27.7637 126.078C27.027 126.078 26.377 125.926 25.8137 125.623C25.259 125.32 24.8257 124.904 24.5137 124.375C24.2104 123.846 24.0587 123.24 24.0587 122.555C24.0587 121.87 24.206 121.264 24.5007 120.735C24.804 120.206 25.2157 119.795 25.7357 119.5C26.2644 119.197 26.858 119.045 27.5167 119.045C28.184 119.045 28.7734 119.192 29.2847 119.487C29.796 119.782 30.1947 120.198 30.4807 120.735C30.7754 121.264 30.9227 121.883 30.9227 122.594C30.9227 122.646 30.9184 122.707 30.9097 122.776C30.9097 122.845 30.9054 122.91 30.8967 122.971H25.0337V122.074H30.2467L29.7397 122.386C29.7484 121.944 29.6574 121.55 29.4667 121.203C29.276 120.856 29.0117 120.588 28.6737 120.397C28.3444 120.198 27.9587 120.098 27.5167 120.098C27.0834 120.098 26.6977 120.198 26.3597 120.397C26.0217 120.588 25.7574 120.861 25.5667 121.216C25.376 121.563 25.2807 121.961 25.2807 122.412V122.62C25.2807 123.079 25.3847 123.491 25.5927 123.855C25.8094 124.21 26.1084 124.488 26.4897 124.687C26.871 124.886 27.3087 124.986 27.8027 124.986C28.21 124.986 28.5784 124.917 28.9077 124.778C29.2457 124.639 29.5404 124.431 29.7917 124.154L30.4807 124.96C30.1687 125.324 29.7787 125.601 29.3107 125.792C28.8514 125.983 28.3357 126.078 27.7637 126.078ZM36.3087 126.078C35.7367 126.078 35.2123 125.948 34.7357 125.688C34.2677 125.419 33.8907 125.025 33.6047 124.505C33.3273 123.985 33.1887 123.335 33.1887 122.555C33.1887 121.775 33.323 121.125 33.5917 120.605C33.869 120.085 34.2417 119.695 34.7097 119.435C35.1863 119.175 35.7193 119.045 36.3087 119.045C36.9847 119.045 37.5827 119.192 38.1027 119.487C38.6227 119.782 39.0343 120.193 39.3377 120.722C39.641 121.242 39.7927 121.853 39.7927 122.555C39.7927 123.257 39.641 123.872 39.3377 124.401C39.0343 124.93 38.6227 125.341 38.1027 125.636C37.5827 125.931 36.9847 126.078 36.3087 126.078ZM32.6557 128.522V119.11H33.8517V120.969L33.7737 122.568L33.9037 124.167V128.522H32.6557ZM36.2047 124.986C36.6467 124.986 37.041 124.886 37.3877 124.687C37.743 124.488 38.0203 124.206 38.2197 123.842C38.4277 123.469 38.5317 123.04 38.5317 122.555C38.5317 122.061 38.4277 121.636 38.2197 121.281C38.0203 120.917 37.743 120.635 37.3877 120.436C37.041 120.237 36.6467 120.137 36.2047 120.137C35.7713 120.137 35.377 120.237 35.0217 120.436C34.675 120.635 34.3977 120.917 34.1897 121.281C33.9903 121.636 33.8907 122.061 33.8907 122.555C33.8907 123.04 33.9903 123.469 34.1897 123.842C34.3977 124.206 34.675 124.488 35.0217 124.687C35.377 124.886 35.7713 124.986 36.2047 124.986ZM44.585 126.078C43.8483 126.078 43.1983 125.926 42.635 125.623C42.0803 125.32 41.647 124.904 41.335 124.375C41.0317 123.846 40.88 123.24 40.88 122.555C40.88 121.87 41.0273 121.264 41.322 120.735C41.6253 120.206 42.037 119.795 42.557 119.5C43.0857 119.197 43.6793 119.045 44.338 119.045C45.0053 119.045 45.5947 119.192 46.106 119.487C46.6173 119.782 47.016 120.198 47.302 120.735C47.5967 121.264 47.744 121.883 47.744 122.594C47.744 122.646 47.7397 122.707 47.731 122.776C47.731 122.845 47.7267 122.91 47.718 122.971H41.855V122.074H47.068L46.561 122.386C46.5697 121.944 46.4787 121.55 46.288 121.203C46.0973 120.856 45.833 120.588 45.495 120.397C45.1657 120.198 44.78 120.098 44.338 120.098C43.9047 120.098 43.519 120.198 43.181 120.397C42.843 120.588 42.5787 120.861 42.388 121.216C42.1973 121.563 42.102 121.961 42.102 122.412V122.62C42.102 123.079 42.206 123.491 42.414 123.855C42.6307 124.21 42.9297 124.488 43.311 124.687C43.6923 124.886 44.13 124.986 44.624 124.986C45.0313 124.986 45.3997 124.917 45.729 124.778C46.067 124.639 46.3617 124.431 46.613 124.154L47.302 124.96C46.99 125.324 46.6 125.601 46.132 125.792C45.6727 125.983 45.157 126.078 44.585 126.078ZM49.4769 126V119.11H50.6729V120.982L50.5559 120.514C50.7466 120.037 51.0673 119.673 51.5179 119.422C51.9686 119.171 52.5233 119.045 53.1819 119.045V120.254C53.1299 120.245 53.0779 120.241 53.0259 120.241C52.9826 120.241 52.9393 120.241 52.8959 120.241C52.2286 120.241 51.6999 120.44 51.3099 120.839C50.9199 121.238 50.7249 121.814 50.7249 122.568V126H49.4769ZM57.3654 126.078C56.6721 126.078 56.1347 125.892 55.7534 125.519C55.3721 125.146 55.1814 124.613 55.1814 123.92V117.602H56.4294V123.868C56.4294 124.241 56.5204 124.527 56.7024 124.726C56.8931 124.925 57.1617 125.025 57.5084 125.025C57.8984 125.025 58.2234 124.917 58.4834 124.7L58.8734 125.597C58.6827 125.762 58.4531 125.883 58.1844 125.961C57.9244 126.039 57.6514 126.078 57.3654 126.078ZM54.0114 120.137V119.11H58.4054V120.137H54.0114ZM60.3822 126V119.11H61.6302V126H60.3822ZM61.0062 117.784C60.7636 117.784 60.5599 117.706 60.3952 117.55C60.2392 117.394 60.1612 117.203 60.1612 116.978C60.1612 116.744 60.2392 116.549 60.3952 116.393C60.5599 116.237 60.7636 116.159 61.0062 116.159C61.2489 116.159 61.4482 116.237 61.6042 116.393C61.7689 116.54 61.8512 116.727 61.8512 116.952C61.8512 117.186 61.7732 117.385 61.6172 117.55C61.4612 117.706 61.2576 117.784 61.0062 117.784ZM67.5043 126V119.11H68.7003V120.982L68.5833 120.514C68.774 120.037 69.0946 119.673 69.5453 119.422C69.996 119.171 70.5506 119.045 71.2093 119.045V120.254C71.1573 120.245 71.1053 120.241 71.0533 120.241C71.01 120.241 70.9666 120.241 70.9233 120.241C70.256 120.241 69.7273 120.44 69.3373 120.839C68.9473 121.238 68.7523 121.814 68.7523 122.568V126H67.5043ZM75.7353 126.078C75.146 126.078 74.626 125.97 74.1753 125.753C73.7333 125.536 73.3867 125.207 73.1353 124.765C72.8927 124.314 72.7713 123.751 72.7713 123.075V119.11H74.0193V122.932C74.0193 123.608 74.1797 124.115 74.5003 124.453C74.8297 124.791 75.289 124.96 75.8783 124.96C76.3117 124.96 76.6887 124.873 77.0093 124.7C77.33 124.518 77.577 124.258 77.7503 123.92C77.9237 123.573 78.0103 123.157 78.0103 122.672V119.11H79.2583V126H78.0753V124.141L78.2703 124.635C78.045 125.094 77.707 125.45 77.2563 125.701C76.8057 125.952 76.2987 126.078 75.7353 126.078ZM90.2532 119.045C90.8078 119.045 91.2975 119.153 91.7222 119.37C92.1468 119.587 92.4762 119.916 92.7102 120.358C92.9528 120.8 93.0742 121.359 93.0742 122.035V126H91.8262V122.178C91.8262 121.511 91.6702 121.008 91.3582 120.67C91.0462 120.332 90.6085 120.163 90.0452 120.163C89.6292 120.163 89.2652 120.25 88.9532 120.423C88.6412 120.596 88.3985 120.852 88.2252 121.19C88.0605 121.528 87.9782 121.948 87.9782 122.451V126H86.7302V122.178C86.7302 121.511 86.5742 121.008 86.2622 120.67C85.9588 120.332 85.5212 120.163 84.9492 120.163C84.5418 120.163 84.1822 120.25 83.8702 120.423C83.5582 120.596 83.3155 120.852 83.1422 121.19C82.9688 121.528 82.8822 121.948 82.8822 122.451V126H81.6342V119.11H82.8302V120.943L82.6352 120.475C82.8518 120.024 83.1855 119.673 83.6362 119.422C84.0868 119.171 84.6112 119.045 85.2092 119.045C85.8678 119.045 86.4355 119.21 86.9122 119.539C87.3888 119.86 87.7008 120.349 87.8482 121.008L87.3412 120.8C87.5492 120.271 87.9132 119.847 88.4332 119.526C88.9532 119.205 89.5598 119.045 90.2532 119.045ZM99.6475 126V124.544L99.5825 124.271V121.788C99.5825 121.259 99.4265 120.852 99.1145 120.566C98.8112 120.271 98.3518 120.124 97.7365 120.124C97.3292 120.124 96.9305 120.193 96.5405 120.332C96.1505 120.462 95.8212 120.64 95.5525 120.865L95.0325 119.929C95.3878 119.643 95.8125 119.426 96.3065 119.279C96.8092 119.123 97.3335 119.045 97.8795 119.045C98.8242 119.045 99.5522 119.275 100.064 119.734C100.575 120.193 100.831 120.895 100.831 121.84V126H99.6475ZM97.3855 126.078C96.8742 126.078 96.4235 125.991 96.0335 125.818C95.6522 125.645 95.3575 125.406 95.1495 125.103C94.9415 124.791 94.8375 124.44 94.8375 124.05C94.8375 123.677 94.9242 123.339 95.0975 123.036C95.2795 122.733 95.5698 122.49 95.9685 122.308C96.3758 122.126 96.9218 122.035 97.6065 122.035H99.7905V122.932H97.6585C97.0345 122.932 96.6142 123.036 96.3975 123.244C96.1808 123.452 96.0725 123.703 96.0725 123.998C96.0725 124.336 96.2068 124.609 96.4755 124.817C96.7442 125.016 97.1168 125.116 97.5935 125.116C98.0615 125.116 98.4688 125.012 98.8155 124.804C99.1708 124.596 99.4265 124.293 99.5825 123.894L99.8295 124.752C99.6648 125.159 99.3745 125.484 98.9585 125.727C98.5425 125.961 98.0182 126.078 97.3855 126.078ZM106.819 119.045C107.382 119.045 107.876 119.153 108.301 119.37C108.734 119.587 109.072 119.916 109.315 120.358C109.558 120.8 109.679 121.359 109.679 122.035V126H108.431V122.178C108.431 121.511 108.266 121.008 107.937 120.67C107.616 120.332 107.161 120.163 106.572 120.163C106.13 120.163 105.744 120.25 105.415 120.423C105.086 120.596 104.83 120.852 104.648 121.19C104.475 121.528 104.388 121.948 104.388 122.451V126H103.14V116.354H104.388V120.969L104.141 120.475C104.366 120.024 104.713 119.673 105.181 119.422C105.649 119.171 106.195 119.045 106.819 119.045ZM117.456 126.078C116.884 126.078 116.338 126 115.818 125.844C115.307 125.688 114.904 125.497 114.609 125.272L115.129 124.284C115.424 124.483 115.788 124.652 116.221 124.791C116.654 124.93 117.096 124.999 117.547 124.999C118.128 124.999 118.544 124.917 118.795 124.752C119.055 124.587 119.185 124.358 119.185 124.063C119.185 123.846 119.107 123.677 118.951 123.556C118.795 123.435 118.587 123.344 118.327 123.283C118.076 123.222 117.794 123.17 117.482 123.127C117.17 123.075 116.858 123.014 116.546 122.945C116.234 122.867 115.948 122.763 115.688 122.633C115.428 122.494 115.22 122.308 115.064 122.074C114.908 121.831 114.83 121.511 114.83 121.112C114.83 120.696 114.947 120.332 115.181 120.02C115.415 119.708 115.744 119.47 116.169 119.305C116.602 119.132 117.114 119.045 117.703 119.045C118.154 119.045 118.609 119.101 119.068 119.214C119.536 119.318 119.917 119.47 120.212 119.669L119.679 120.657C119.367 120.449 119.042 120.306 118.704 120.228C118.366 120.15 118.028 120.111 117.69 120.111C117.144 120.111 116.737 120.202 116.468 120.384C116.199 120.557 116.065 120.783 116.065 121.06C116.065 121.294 116.143 121.476 116.299 121.606C116.464 121.727 116.672 121.823 116.923 121.892C117.183 121.961 117.469 122.022 117.781 122.074C118.093 122.117 118.405 122.178 118.717 122.256C119.029 122.325 119.311 122.425 119.562 122.555C119.822 122.685 120.03 122.867 120.186 123.101C120.351 123.335 120.433 123.647 120.433 124.037C120.433 124.453 120.312 124.813 120.069 125.116C119.826 125.419 119.484 125.658 119.042 125.831C118.6 125.996 118.071 126.078 117.456 126.078ZM126.27 126V124.544L126.205 124.271V121.788C126.205 121.259 126.049 120.852 125.737 120.566C125.433 120.271 124.974 120.124 124.359 120.124C123.951 120.124 123.553 120.193 123.163 120.332C122.773 120.462 122.443 120.64 122.175 120.865L121.655 119.929C122.01 119.643 122.435 119.426 122.929 119.279C123.431 119.123 123.956 119.045 124.502 119.045C125.446 119.045 126.174 119.275 126.686 119.734C127.197 120.193 127.453 120.895 127.453 121.84V126H126.27ZM124.008 126.078C123.496 126.078 123.046 125.991 122.656 125.818C122.274 125.645 121.98 125.406 121.772 125.103C121.564 124.791 121.46 124.44 121.46 124.05C121.46 123.677 121.546 123.339 121.72 123.036C121.902 122.733 122.192 122.49 122.591 122.308C122.998 122.126 123.544 122.035 124.229 122.035H126.413V122.932H124.281C123.657 122.932 123.236 123.036 123.02 123.244C122.803 123.452 122.695 123.703 122.695 123.998C122.695 124.336 122.829 124.609 123.098 124.817C123.366 125.016 123.739 125.116 124.216 125.116C124.684 125.116 125.091 125.012 125.438 124.804C125.793 124.596 126.049 124.293 126.205 123.894L126.452 124.752C126.287 125.159 125.997 125.484 125.581 125.727C125.165 125.961 124.64 126.078 124.008 126.078ZM130.776 124.336L130.802 122.737L134.767 119.11H136.275L133.233 122.1L132.557 122.672L130.776 124.336ZM129.762 126V116.354H131.01V126H129.762ZM135.027 126L132.323 122.646L133.129 121.645L136.561 126H135.027ZM137.773 126V119.11H139.021V126H137.773ZM138.397 117.784C138.154 117.784 137.951 117.706 137.786 117.55C137.63 117.394 137.552 117.203 137.552 116.978C137.552 116.744 137.63 116.549 137.786 116.393C137.951 116.237 138.154 116.159 138.397 116.159C138.64 116.159 138.839 116.237 138.995 116.393C139.16 116.54 139.242 116.727 139.242 116.952C139.242 117.186 139.164 117.385 139.008 117.55C138.852 117.706 138.648 117.784 138.397 117.784ZM143.77 126.078C143.076 126.078 142.539 125.892 142.158 125.519C141.776 125.146 141.586 124.613 141.586 123.92V117.602H142.834V123.868C142.834 124.241 142.925 124.527 143.107 124.726C143.297 124.925 143.566 125.025 143.913 125.025C144.303 125.025 144.628 124.917 144.888 124.7L145.278 125.597C145.087 125.762 144.857 125.883 144.589 125.961C144.329 126.039 144.056 126.078 143.77 126.078ZM140.416 120.137V119.11H144.81V120.137H140.416ZM153.125 126.078C152.457 126.078 151.859 125.931 151.331 125.636C150.811 125.341 150.399 124.93 150.096 124.401C149.792 123.872 149.641 123.257 149.641 122.555C149.641 121.853 149.792 121.242 150.096 120.722C150.399 120.193 150.811 119.782 151.331 119.487C151.859 119.192 152.457 119.045 153.125 119.045C153.705 119.045 154.23 119.175 154.698 119.435C155.166 119.695 155.538 120.085 155.816 120.605C156.102 121.125 156.245 121.775 156.245 122.555C156.245 123.335 156.106 123.985 155.829 124.505C155.56 125.025 155.192 125.419 154.724 125.688C154.256 125.948 153.723 126.078 153.125 126.078ZM153.229 124.986C153.662 124.986 154.052 124.886 154.399 124.687C154.754 124.488 155.031 124.206 155.231 123.842C155.439 123.469 155.543 123.04 155.543 122.555C155.543 122.061 155.439 121.636 155.231 121.281C155.031 120.917 154.754 120.635 154.399 120.436C154.052 120.237 153.662 120.137 153.229 120.137C152.787 120.137 152.392 120.237 152.046 120.436C151.699 120.635 151.422 120.917 151.214 121.281C151.006 121.636 150.902 122.061 150.902 122.555C150.902 123.04 151.006 123.469 151.214 123.842C151.422 124.206 151.699 124.488 152.046 124.687C152.392 124.886 152.787 124.986 153.229 124.986ZM155.582 126V124.141L155.66 122.542L155.53 120.943V116.354H156.778V126H155.582ZM163.416 126V124.544L163.351 124.271V121.788C163.351 121.259 163.195 120.852 162.883 120.566C162.58 120.271 162.12 120.124 161.505 120.124C161.098 120.124 160.699 120.193 160.309 120.332C159.919 120.462 159.59 120.64 159.321 120.865L158.801 119.929C159.156 119.643 159.581 119.426 160.075 119.279C160.578 119.123 161.102 119.045 161.648 119.045C162.593 119.045 163.321 119.275 163.832 119.734C164.343 120.193 164.599 120.895 164.599 121.84V126H163.416ZM161.154 126.078C160.643 126.078 160.192 125.991 159.802 125.818C159.421 125.645 159.126 125.406 158.918 125.103C158.71 124.791 158.606 124.44 158.606 124.05C158.606 123.677 158.693 123.339 158.866 123.036C159.048 122.733 159.338 122.49 159.737 122.308C160.144 122.126 160.69 122.035 161.375 122.035H163.559V122.932H161.427C160.803 122.932 160.383 123.036 160.166 123.244C159.949 123.452 159.841 123.703 159.841 123.998C159.841 124.336 159.975 124.609 160.244 124.817C160.513 125.016 160.885 125.116 161.362 125.116C161.83 125.116 162.237 125.012 162.584 124.804C162.939 124.596 163.195 124.293 163.351 123.894L163.598 124.752C163.433 125.159 163.143 125.484 162.727 125.727C162.311 125.961 161.787 126.078 161.154 126.078ZM170.588 119.045C171.151 119.045 171.645 119.153 172.07 119.37C172.503 119.587 172.841 119.916 173.084 120.358C173.326 120.8 173.448 121.359 173.448 122.035V126H172.2V122.178C172.2 121.511 172.035 121.008 171.706 120.67C171.385 120.332 170.93 120.163 170.341 120.163C169.899 120.163 169.513 120.25 169.184 120.423C168.854 120.596 168.599 120.852 168.417 121.19C168.243 121.528 168.157 121.948 168.157 122.451V126H166.909V119.11H168.105V120.969L167.91 120.475C168.135 120.024 168.482 119.673 168.95 119.422C169.418 119.171 169.964 119.045 170.588 119.045ZM180.262 124.336L180.288 122.737L184.253 119.11H185.761L182.719 122.1L182.043 122.672L180.262 124.336ZM179.248 126V116.354H180.496V126H179.248ZM184.513 126L181.809 122.646L182.615 121.645L186.047 126H184.513ZM187.259 126V116.354H188.507V126H187.259ZM190.89 126V119.11H192.138V126H190.89ZM191.514 117.784C191.271 117.784 191.068 117.706 190.903 117.55C190.747 117.394 190.669 117.203 190.669 116.978C190.669 116.744 190.747 116.549 190.903 116.393C191.068 116.237 191.271 116.159 191.514 116.159C191.757 116.159 191.956 116.237 192.112 116.393C192.277 116.54 192.359 116.727 192.359 116.952C192.359 117.186 192.281 117.385 192.125 117.55C191.969 117.706 191.765 117.784 191.514 117.784ZM198.2 119.045C198.763 119.045 199.257 119.153 199.682 119.37C200.115 119.587 200.453 119.916 200.696 120.358C200.939 120.8 201.06 121.359 201.06 122.035V126H199.812V122.178C199.812 121.511 199.647 121.008 199.318 120.67C198.997 120.332 198.542 120.163 197.953 120.163C197.511 120.163 197.125 120.25 196.796 120.423C196.467 120.596 196.211 120.852 196.029 121.19C195.856 121.528 195.769 121.948 195.769 122.451V126H194.521V119.11H195.717V120.969L195.522 120.475C195.747 120.024 196.094 119.673 196.562 119.422C197.03 119.171 197.576 119.045 198.2 119.045ZM203.37 126V119.11H204.618V126H203.37ZM203.994 117.784C203.751 117.784 203.547 117.706 203.383 117.55C203.227 117.394 203.149 117.203 203.149 116.978C203.149 116.744 203.227 116.549 203.383 116.393C203.547 116.237 203.751 116.159 203.994 116.159C204.236 116.159 204.436 116.237 204.592 116.393C204.756 116.54 204.839 116.727 204.839 116.952C204.839 117.186 204.761 117.385 204.605 117.55C204.449 117.706 204.245 117.784 203.994 117.784ZM208.014 124.336L208.04 122.737L212.005 119.11H213.513L210.471 122.1L209.795 122.672L208.014 124.336ZM207 126V116.354H208.248V126H207ZM212.265 126L209.561 122.646L210.367 121.645L213.799 126H212.265ZM215.437 126.078C215.194 126.078 214.986 125.996 214.813 125.831C214.64 125.658 214.553 125.441 214.553 125.181C214.553 124.921 214.64 124.709 214.813 124.544C214.986 124.379 215.194 124.297 215.437 124.297C215.671 124.297 215.87 124.379 216.035 124.544C216.208 124.709 216.295 124.921 216.295 125.181C216.295 125.441 216.208 125.658 216.035 125.831C215.87 125.996 215.671 126.078 215.437 126.078Z" fill="white" fill-opacity="0.8"/>
<circle cx="37" cy="36" r="20" fill="white" fill-opacity="0.1"/>
<path d="M44.965 32.521C44.988 32.347 45 32.173 45 32C45 29.621 42.857 27.712 40.479 28.035C39.786 26.802 38.466 26 37 26C35.534 26 34.214 26.802 33.521 28.035C31.138 27.712 29 29.621 29 32C29 32.173 29.012 32.347 29.035 32.521C27.802 33.215 27 34.535 27 36C27 37.465 27.802 38.785 29.035 39.479C29.0119 39.6517 29.0002 39.8258 29 40C29 42.379 31.138 44.283 33.521 43.965C34.214 45.198 35.534 46 37 46C38.466 46 39.786 45.198 40.479 43.965C42.857 44.283 45 42.379 45 40C45 39.827 44.988 39.653 44.965 39.479C46.198 38.785 47 37.465 47 36C47 34.535 46.198 33.215 44.965 32.521ZM35.955 40.416L32.288 36.702L33.712 35.298L35.969 37.584L40.296 33.29L41.704 34.71L35.955 40.416Z" fill="white" fill-opacity="0.5"/>
</svg>
