<svg width="20" height="20" viewBox="0 0 20 20" fill="none" xmlns="http://www.w3.org/2000/svg">
<path d="M10 1.66675C5.40001 1.66675 1.66667 5.40008 1.66667 10.0001C1.66667 14.6001 5.40001 18.3334 10 18.3334C14.6 18.3334 18.3333 14.6001 18.3333 10.0001C18.3333 5.40008 14.6 1.66675 10 1.66675ZM14.1667 14.5584C12.7417 14.5584 11.4083 13.9417 10.3417 12.8001C9.13334 13.8917 7.55834 14.5584 5.83334 14.5584C5.49167 14.5584 5.20834 14.2751 5.20834 13.9334C5.20834 13.5917 5.49167 13.3084 5.83334 13.3084C8.72501 13.3084 11.1167 11.0167 11.425 8.08342H10H5.84167C5.50001 8.08342 5.21667 7.80008 5.21667 7.45842C5.21667 7.11675 5.50001 6.84175 5.84167 6.84175H9.37501V6.06675C9.37501 5.72508 9.65834 5.44175 10 5.44175C10.3417 5.44175 10.625 5.72508 10.625 6.06675V6.84175H12.0333C12.05 6.84175 12.0667 6.83342 12.0833 6.83342C12.1 6.83342 12.1167 6.84175 12.1333 6.84175H14.1583C14.5 6.84175 14.7833 7.12508 14.7833 7.46675C14.7833 7.80841 14.5 8.09175 14.1583 8.09175H12.675C12.55 9.51675 12.0167 10.8251 11.2 11.8917C12.0333 12.8167 13.075 13.3167 14.1667 13.3167C14.5083 13.3167 14.7917 13.6001 14.7917 13.9417C14.7917 14.2834 14.5083 14.5584 14.1667 14.5584Z" fill="#6E6F71"/>
</svg>
