<svg width="41" height="46" viewBox="0 0 41 46" fill="none" xmlns="http://www.w3.org/2000/svg">
<path d="M18.3741 28.5988C18.3741 23.1475 22.7933 18.7284 28.2445 18.7284C33.6958 18.7284 38.1149 23.1475 38.1149 28.5988V44.3913H18.3741V28.5988Z" fill="#FF1D1D"/>
<rect x="15.4889" y="41" width="25.5111" height="4.55555" rx="2.27777" fill="#FF1D1D"/>
<path d="M21.7134 15.2575C21.3838 15.5871 20.9508 15.7786 20.449 15.7972C17.1614 15.8751 14.9756 18.0609 14.8804 21.3659C14.8604 22.3867 14.0277 23.1848 13.0069 23.1702C11.9861 23.1556 11.1924 22.3271 11.2124 21.3062C11.3301 16.0462 15.0946 12.2817 20.372 12.1466C21.3929 12.1266 22.2214 12.9204 22.236 13.9412C22.2693 14.4255 22.0603 14.9105 21.7134 15.2575Z" fill="#FF1D1D"/>
<path d="M21.7326 7.92189C21.403 8.2515 20.9527 8.46037 20.4682 8.46165C18.8591 8.48321 17.301 8.76399 15.8636 9.26955C12.2788 10.5421 9.62455 13.1963 8.36937 16.7638C7.86381 18.2012 7.60038 19.7419 7.56147 21.3684C7.55881 22.3719 6.72611 23.2046 5.70533 23.19C4.68456 23.1754 3.89078 22.3469 3.89344 21.3434C3.9161 19.319 4.26725 17.3803 4.91223 15.5619C6.5509 10.9206 10.0204 7.45109 14.6443 5.82978C16.4627 5.18479 18.4015 4.83359 20.4259 4.81093C21.4468 4.79093 22.2579 5.60211 22.2725 6.62288C22.2712 7.10733 22.0796 7.57494 21.7326 7.92189Z" fill="#FF1D1D"/>
</svg>
