<svg width="25" height="25" viewBox="0 0 25 25" fill="none" xmlns="http://www.w3.org/2000/svg">
<path d="M16.6058 20.6807C16.6058 21.8262 16.154 22.9247 15.3498 23.7347C14.5456 24.5446 13.4548 24.9997 12.3175 24.9997C11.1802 24.9997 10.0894 24.5446 9.2852 23.7347C8.48098 22.9247 8.02917 21.8262 8.02917 20.6807L12.3175 20.6807H16.6058Z" fill="#3B7DFF"/>
<path d="M3.46715 13.6054C3.19343 16.2703 1.1253 17.0667 0 17.2811V20.9568C5.47445 21.3243 7.42092 16.1171 7.48175 13.6054V8.64321C7.93796 5.05942 10.7664 4.07923 12.2263 4.0486C16.0949 4.26914 17.2445 7.20357 17.3358 8.64321V13.6054C18.0657 20.2216 22.7494 21.2631 25 20.9568V17.2811C22.2993 16.987 21.4416 14.7081 21.3504 13.6054V8.64321C20.8029 1.65941 15.0547 -0.11172 12.2263 0.00534846C5.56569 0.281025 3.46715 5.97834 3.46715 8.64321V13.6054Z" fill="#3B7DFF"/>
</svg>
