<svg width="45" height="45" viewBox="0 0 45 45" fill="none" xmlns="http://www.w3.org/2000/svg">
<rect width="45" height="45" rx="22.5" fill="#0056FF"/>
<path d="M27.0886 30.2966C27.0886 31.4512 26.6332 32.5585 25.8225 33.375C25.0119 34.1914 23.9124 34.6501 22.766 34.6501C21.6196 34.6501 20.5201 34.1914 19.7094 33.375C18.8988 32.5585 18.4434 31.4512 18.4434 30.2966L22.766 30.2966H27.0886Z" fill="white"/>
<path d="M13.845 23.1642C13.5691 25.8504 11.4844 26.6531 10.3501 26.8693V30.5744C15.8683 30.9449 17.8304 25.696 17.8917 23.1642V18.1623C18.3516 14.5498 21.2027 13.5618 22.6742 13.5309C26.5737 13.7532 27.7326 16.7111 27.8246 18.1623V23.1642C28.5603 29.8333 33.2815 30.8831 35.5501 30.5744V26.8693C32.8278 26.5729 31.9632 24.2757 31.8713 23.1642V18.1623C31.3194 11.1226 25.5253 9.33734 22.6742 9.45534C15.9603 9.73322 13.845 15.4761 13.845 18.1623V23.1642Z" fill="white"/>
</svg>
