<svg width="30" height="30" viewBox="0 0 30 30" fill="none" xmlns="http://www.w3.org/2000/svg">
<path d="M19.927 24.8173C19.927 26.1919 19.3848 27.5101 18.4198 28.4821C17.4547 29.454 16.1458 30 14.781 30C13.4162 30 12.1073 29.454 11.1422 28.4821C10.1772 27.5101 9.63501 26.1919 9.63501 24.8173L14.781 24.8173H19.927Z" fill="white"/>
<path d="M4.16058 16.3265C3.83212 19.5243 1.35036 20.48 0 20.7373V25.1481C6.56934 25.5892 8.90511 19.3405 8.9781 16.3265V10.3719C9.52555 6.0713 12.9197 4.89508 14.6715 4.85832C19.3139 5.12297 20.6934 8.64428 20.8029 10.3719V16.3265C21.6788 24.2659 27.2993 25.5157 30 25.1481V20.7373C26.7591 20.3844 25.7299 17.6497 25.6204 16.3265V10.3719C24.9635 1.99129 18.0657 -0.134063 14.6715 0.00641816C6.67883 0.33723 4.16058 7.174 4.16058 10.3719V16.3265Z" fill="white"/>
</svg>
