<svg width="137" height="137" viewBox="0 0 137 137" fill="none" xmlns="http://www.w3.org/2000/svg">
<path d="M91 112.529C91 118.762 88.5241 124.739 84.117 129.146C79.7099 133.553 73.7326 136.029 67.5 136.029C61.2674 136.029 55.2901 133.553 50.883 129.146C46.4759 124.739 44 118.762 44 112.529L67.5 112.529H91Z" fill="#FF1D1D"/>
<path d="M19 74.0291C17.5 88.5291 6.16667 92.8625 0 94.0291V114.029C30 116.029 40.6667 87.6958 41 74.0291V47.0291C43.5 27.5291 59 22.1958 67 22.0291C88.2 23.2291 94.5 39.1958 95 47.0291V74.0291C99 110.029 124.667 115.696 137 114.029V94.0291C122.2 92.4291 117.5 80.0291 117 74.0291V47.0291C114 9.02911 82.5 -0.607884 67 0.0291019C30.5 1.5291 19 32.5291 19 47.0291V74.0291Z" fill="#FF1D1D"/>
</svg>
