<svg width="110" height="30" viewBox="0 0 110 30" fill="none" xmlns="http://www.w3.org/2000/svg">
<rect width="110" height="30" rx="5" fill="#3B7DFF" fill-opacity="0.1"/>
<path d="M15.316 20V10.2H16.814L22.96 17.746H22.218V10.2H24.024V20H22.526L16.38 12.454H17.122V20H15.316ZM29.842 20.098C29.0767 20.098 28.3953 19.9347 27.798 19.608C27.2007 19.272 26.7293 18.8147 26.384 18.236C26.0387 17.6573 25.866 16.9993 25.866 16.262C25.866 15.5153 26.0387 14.8573 26.384 14.288C26.7293 13.7093 27.2007 13.2567 27.798 12.93C28.3953 12.6033 29.0767 12.44 29.842 12.44C30.6167 12.44 31.3027 12.6033 31.9 12.93C32.5067 13.2567 32.978 13.7047 33.314 14.274C33.6593 14.8433 33.832 15.506 33.832 16.262C33.832 16.9993 33.6593 17.6573 33.314 18.236C32.978 18.8147 32.5067 19.272 31.9 19.608C31.3027 19.9347 30.6167 20.098 29.842 20.098ZM29.842 18.6C30.2713 18.6 30.654 18.5067 30.99 18.32C31.326 18.1333 31.5873 17.8627 31.774 17.508C31.97 17.1533 32.068 16.738 32.068 16.262C32.068 15.7767 31.97 15.3613 31.774 15.016C31.5873 14.6613 31.326 14.3907 30.99 14.204C30.654 14.0173 30.276 13.924 29.856 13.924C29.4267 13.924 29.044 14.0173 28.708 14.204C28.3813 14.3907 28.12 14.6613 27.924 15.016C27.728 15.3613 27.63 15.7767 27.63 16.262C27.63 16.738 27.728 17.1533 27.924 17.508C28.12 17.8627 28.3813 18.1333 28.708 18.32C29.044 18.5067 29.422 18.6 29.842 18.6ZM44.9414 12.44C45.5388 12.44 46.0661 12.5567 46.5234 12.79C46.9901 13.0233 47.3541 13.3827 47.6154 13.868C47.8768 14.344 48.0074 14.96 48.0074 15.716V20H46.2574V15.94C46.2574 15.2773 46.1128 14.7827 45.8234 14.456C45.5341 14.1293 45.1188 13.966 44.5774 13.966C44.1948 13.966 43.8541 14.05 43.5554 14.218C43.2661 14.386 43.0374 14.6333 42.8694 14.96C42.7108 15.2867 42.6314 15.702 42.6314 16.206V20H40.8814V15.94C40.8814 15.2773 40.7368 14.7827 40.4474 14.456C40.1581 14.1293 39.7428 13.966 39.2014 13.966C38.8188 13.966 38.4781 14.05 38.1794 14.218C37.8901 14.386 37.6614 14.6333 37.4934 14.96C37.3348 15.2867 37.2554 15.702 37.2554 16.206V20H35.5054V12.524H37.1714V14.512L36.8774 13.924C37.1294 13.4387 37.4934 13.07 37.9694 12.818C38.4548 12.566 39.0054 12.44 39.6214 12.44C40.3214 12.44 40.9281 12.6127 41.4414 12.958C41.9641 13.3033 42.3094 13.826 42.4774 14.526L41.7914 14.288C42.0341 13.728 42.4354 13.28 42.9954 12.944C43.5554 12.608 44.2041 12.44 44.9414 12.44ZM53.6174 20.098C52.852 20.098 52.1707 19.9347 51.5734 19.608C50.976 19.272 50.5047 18.8147 50.1594 18.236C49.814 17.6573 49.6414 16.9993 49.6414 16.262C49.6414 15.5153 49.814 14.8573 50.1594 14.288C50.5047 13.7093 50.976 13.2567 51.5734 12.93C52.1707 12.6033 52.852 12.44 53.6174 12.44C54.392 12.44 55.078 12.6033 55.6754 12.93C56.282 13.2567 56.7534 13.7047 57.0894 14.274C57.4347 14.8433 57.6074 15.506 57.6074 16.262C57.6074 16.9993 57.4347 17.6573 57.0894 18.236C56.7534 18.8147 56.282 19.272 55.6754 19.608C55.078 19.9347 54.392 20.098 53.6174 20.098ZM53.6174 18.6C54.0467 18.6 54.4294 18.5067 54.7654 18.32C55.1014 18.1333 55.3627 17.8627 55.5494 17.508C55.7454 17.1533 55.8434 16.738 55.8434 16.262C55.8434 15.7767 55.7454 15.3613 55.5494 15.016C55.3627 14.6613 55.1014 14.3907 54.7654 14.204C54.4294 14.0173 54.0514 13.924 53.6314 13.924C53.202 13.924 52.8194 14.0173 52.4834 14.204C52.1567 14.3907 51.8954 14.6613 51.6994 15.016C51.5034 15.3613 51.4054 15.7767 51.4054 16.262C51.4054 16.738 51.5034 17.1533 51.6994 17.508C51.8954 17.8627 52.1567 18.1333 52.4834 18.32C52.8194 18.5067 53.1974 18.6 53.6174 18.6ZM59.2808 20V12.524H60.9468V14.582L60.7508 13.98C60.9748 13.476 61.3248 13.0933 61.8008 12.832C62.2861 12.5707 62.8881 12.44 63.6068 12.44V14.106C63.5321 14.0873 63.4621 14.078 63.3968 14.078C63.3315 14.0687 63.2661 14.064 63.2008 14.064C62.5381 14.064 62.0108 14.26 61.6188 14.652C61.2268 15.0347 61.0308 15.6087 61.0308 16.374V20H59.2808ZM69.5889 14.764C69.2715 14.764 69.0009 14.6567 68.7769 14.442C68.5529 14.218 68.4409 13.938 68.4409 13.602C68.4409 13.2473 68.5529 12.9673 68.7769 12.762C69.0009 12.5473 69.2715 12.44 69.5889 12.44C69.9062 12.44 70.1769 12.5473 70.4009 12.762C70.6249 12.9673 70.7369 13.2473 70.7369 13.602C70.7369 13.938 70.6249 14.218 70.4009 14.442C70.1769 14.6567 69.9062 14.764 69.5889 14.764ZM69.5889 20.098C69.2715 20.098 69.0009 19.9907 68.7769 19.776C68.5529 19.552 68.4409 19.272 68.4409 18.936C68.4409 18.5813 68.5529 18.3013 68.7769 18.096C69.0009 17.8813 69.2715 17.774 69.5889 17.774C69.9062 17.774 70.1769 17.8813 70.4009 18.096C70.6249 18.3013 70.7369 18.5813 70.7369 18.936C70.7369 19.272 70.6249 19.552 70.4009 19.776C70.1769 19.9907 69.9062 20.098 69.5889 20.098ZM77.352 20V10.9L78.15 11.726H75.28V10.2H79.172V20H77.352ZM82.684 20V10.9L83.482 11.726H80.612V10.2H84.504V20H82.684ZM90.536 20.14C89.7614 20.14 89.0614 19.944 88.436 19.552C87.82 19.16 87.3347 18.5907 86.98 17.844C86.6254 17.088 86.448 16.1733 86.448 15.1C86.448 14.0267 86.6254 13.1167 86.98 12.37C87.3347 11.614 87.82 11.04 88.436 10.648C89.0614 10.256 89.7614 10.06 90.536 10.06C91.32 10.06 92.02 10.256 92.636 10.648C93.252 11.04 93.7374 11.614 94.092 12.37C94.456 13.1167 94.638 14.0267 94.638 15.1C94.638 16.1733 94.456 17.088 94.092 17.844C93.7374 18.5907 93.252 19.16 92.636 19.552C92.02 19.944 91.32 20.14 90.536 20.14ZM90.536 18.558C90.9934 18.558 91.39 18.4367 91.726 18.194C92.062 17.942 92.3234 17.5593 92.51 17.046C92.706 16.5327 92.804 15.884 92.804 15.1C92.804 14.3067 92.706 13.658 92.51 13.154C92.3234 12.6407 92.062 12.2627 91.726 12.02C91.39 11.768 90.9934 11.642 90.536 11.642C90.0974 11.642 89.7054 11.768 89.36 12.02C89.024 12.2627 88.758 12.6407 88.562 13.154C88.3754 13.658 88.282 14.3067 88.282 15.1C88.282 15.884 88.3754 16.5327 88.562 17.046C88.758 17.5593 89.024 17.942 89.36 18.194C89.7054 18.4367 90.0974 18.558 90.536 18.558Z" fill="#3B7DFF"/>
</svg>
