<svg width="95" height="30" viewBox="0 0 95 30" fill="none" xmlns="http://www.w3.org/2000/svg">
<rect width="95" height="30" rx="7" fill="#152036"/>
<path d="M11.222 20V10.9H12.613L18.32 17.907H17.631V10.9H19.308V20H17.917L12.21 12.993H12.899V20H11.222ZM24.7104 20.091C23.9997 20.091 23.3671 19.9393 22.8124 19.636C22.2577 19.324 21.8201 18.8993 21.4994 18.362C21.1787 17.8247 21.0184 17.2137 21.0184 16.529C21.0184 15.8357 21.1787 15.2247 21.4994 14.696C21.8201 14.1587 22.2577 13.7383 22.8124 13.435C23.3671 13.1317 23.9997 12.98 24.7104 12.98C25.4297 12.98 26.0667 13.1317 26.6214 13.435C27.1847 13.7383 27.6224 14.1543 27.9344 14.683C28.2551 15.2117 28.4154 15.827 28.4154 16.529C28.4154 17.2137 28.2551 17.8247 27.9344 18.362C27.6224 18.8993 27.1847 19.324 26.6214 19.636C26.0667 19.9393 25.4297 20.091 24.7104 20.091ZM24.7104 18.7C25.1091 18.7 25.4644 18.6133 25.7764 18.44C26.0884 18.2667 26.3311 18.0153 26.5044 17.686C26.6864 17.3567 26.7774 16.971 26.7774 16.529C26.7774 16.0783 26.6864 15.6927 26.5044 15.372C26.3311 15.0427 26.0884 14.7913 25.7764 14.618C25.4644 14.4447 25.1134 14.358 24.7234 14.358C24.3247 14.358 23.9694 14.4447 23.6574 14.618C23.3541 14.7913 23.1114 15.0427 22.9294 15.372C22.7474 15.6927 22.6564 16.0783 22.6564 16.529C22.6564 16.971 22.7474 17.3567 22.9294 17.686C23.1114 18.0153 23.3541 18.2667 23.6574 18.44C23.9694 18.6133 24.3204 18.7 24.7104 18.7ZM38.7313 12.98C39.286 12.98 39.7757 13.0883 40.2003 13.305C40.6337 13.5217 40.9717 13.8553 41.2143 14.306C41.457 14.748 41.5783 15.32 41.5783 16.022V20H39.9533V16.23C39.9533 15.6147 39.819 15.1553 39.5503 14.852C39.2817 14.5487 38.896 14.397 38.3933 14.397C38.038 14.397 37.7217 14.475 37.4443 14.631C37.1757 14.787 36.9633 15.0167 36.8073 15.32C36.66 15.6233 36.5863 16.009 36.5863 16.477V20H34.9613V16.23C34.9613 15.6147 34.827 15.1553 34.5583 14.852C34.2897 14.5487 33.904 14.397 33.4013 14.397C33.046 14.397 32.7297 14.475 32.4523 14.631C32.1837 14.787 31.9713 15.0167 31.8153 15.32C31.668 15.6233 31.5943 16.009 31.5943 16.477V20H29.9693V13.058H31.5163V14.904L31.2433 14.358C31.4773 13.9073 31.8153 13.565 32.2573 13.331C32.708 13.097 33.2193 12.98 33.7913 12.98C34.4413 12.98 35.0047 13.1403 35.4813 13.461C35.9667 13.7817 36.2873 14.267 36.4433 14.917L35.8063 14.696C36.0317 14.176 36.4043 13.76 36.9243 13.448C37.4443 13.136 38.0467 12.98 38.7313 12.98ZM46.7876 20.091C46.0769 20.091 45.4442 19.9393 44.8896 19.636C44.3349 19.324 43.8972 18.8993 43.5766 18.362C43.2559 17.8247 43.0956 17.2137 43.0956 16.529C43.0956 15.8357 43.2559 15.2247 43.5766 14.696C43.8972 14.1587 44.3349 13.7383 44.8896 13.435C45.4442 13.1317 46.0769 12.98 46.7876 12.98C47.5069 12.98 48.1439 13.1317 48.6986 13.435C49.2619 13.7383 49.6996 14.1543 50.0116 14.683C50.3322 15.2117 50.4926 15.827 50.4926 16.529C50.4926 17.2137 50.3322 17.8247 50.0116 18.362C49.6996 18.8993 49.2619 19.324 48.6986 19.636C48.1439 19.9393 47.5069 20.091 46.7876 20.091ZM46.7876 18.7C47.1862 18.7 47.5416 18.6133 47.8536 18.44C48.1656 18.2667 48.4082 18.0153 48.5816 17.686C48.7636 17.3567 48.8546 16.971 48.8546 16.529C48.8546 16.0783 48.7636 15.6927 48.5816 15.372C48.4082 15.0427 48.1656 14.7913 47.8536 14.618C47.5416 14.4447 47.1906 14.358 46.8006 14.358C46.4019 14.358 46.0466 14.4447 45.7346 14.618C45.4312 14.7913 45.1886 15.0427 45.0066 15.372C44.8246 15.6927 44.7336 16.0783 44.7336 16.529C44.7336 16.971 44.8246 17.3567 45.0066 17.686C45.1886 18.0153 45.4312 18.2667 45.7346 18.44C46.0466 18.6133 46.3976 18.7 46.7876 18.7ZM52.0465 20V13.058H53.5935V14.969L53.4115 14.41C53.6195 13.942 53.9445 13.5867 54.3865 13.344C54.8371 13.1013 55.3961 12.98 56.0635 12.98V14.527C55.9941 14.5097 55.9291 14.501 55.8685 14.501C55.8078 14.4923 55.7471 14.488 55.6865 14.488C55.0711 14.488 54.5815 14.67 54.2175 15.034C53.8535 15.3893 53.6715 15.9223 53.6715 16.633V20H52.0465ZM61.6182 15.138C61.3236 15.138 61.0722 15.0383 60.8642 14.839C60.6562 14.631 60.5522 14.371 60.5522 14.059C60.5522 13.7297 60.6562 13.4697 60.8642 13.279C61.0722 13.0797 61.3236 12.98 61.6182 12.98C61.9129 12.98 62.1642 13.0797 62.3722 13.279C62.5802 13.4697 62.6842 13.7297 62.6842 14.059C62.6842 14.371 62.5802 14.631 62.3722 14.839C62.1642 15.0383 61.9129 15.138 61.6182 15.138ZM61.6182 20.091C61.3236 20.091 61.0722 19.9913 60.8642 19.792C60.6562 19.584 60.5522 19.324 60.5522 19.012C60.5522 18.6827 60.6562 18.4227 60.8642 18.232C61.0722 18.0327 61.3236 17.933 61.6182 17.933C61.9129 17.933 62.1642 18.0327 62.3722 18.232C62.5802 18.4227 62.6842 18.6827 62.6842 19.012C62.6842 19.324 62.5802 19.584 62.3722 19.792C62.1642 19.9913 61.9129 20.091 61.6182 20.091ZM68.8268 20V11.55L69.5678 12.317H66.9028V10.9H70.5168V20H68.8268ZM73.778 20V11.55L74.519 12.317H71.854V10.9H75.468V20H73.778ZM80.3412 10.77C81.1732 10.77 81.8795 10.9477 82.4602 11.303C83.0495 11.6497 83.5002 12.1567 83.8122 12.824C84.1242 13.4913 84.2802 14.3147 84.2802 15.294C84.2802 16.334 84.0895 17.2137 83.7082 17.933C83.3355 18.6523 82.8155 19.1983 82.1482 19.571C81.4808 19.9437 80.7052 20.13 79.8212 20.13C79.3618 20.13 78.9242 20.0823 78.5082 19.987C78.0922 19.8917 77.7325 19.7443 77.4292 19.545L78.0532 18.271C78.3045 18.4357 78.5775 18.5527 78.8722 18.622C79.1668 18.6827 79.4702 18.713 79.7822 18.713C80.6402 18.713 81.3205 18.4487 81.8232 17.92C82.3258 17.3913 82.5772 16.6113 82.5772 15.58C82.5772 15.4153 82.5728 15.2247 82.5642 15.008C82.5555 14.7827 82.5252 14.5573 82.4732 14.332L82.9932 14.904C82.8458 15.2593 82.6335 15.5583 82.3562 15.801C82.0788 16.035 81.7538 16.2127 81.3812 16.334C81.0085 16.4553 80.5968 16.516 80.1462 16.516C79.5568 16.516 79.0238 16.4033 78.5472 16.178C78.0792 15.944 77.7065 15.619 77.4292 15.203C77.1518 14.7783 77.0132 14.2843 77.0132 13.721C77.0132 13.1143 77.1605 12.5943 77.4552 12.161C77.7498 11.719 78.1485 11.3767 78.6512 11.134C79.1625 10.8913 79.7258 10.77 80.3412 10.77ZM80.4322 12.096C80.0855 12.096 79.7778 12.161 79.5092 12.291C79.2405 12.4123 79.0282 12.59 78.8722 12.824C78.7248 13.0493 78.6512 13.3223 78.6512 13.643C78.6512 14.1197 78.8158 14.4967 79.1452 14.774C79.4745 15.0513 79.9165 15.19 80.4712 15.19C80.8352 15.19 81.1558 15.125 81.4332 14.995C81.7105 14.8563 81.9272 14.67 82.0832 14.436C82.2392 14.1933 82.3172 13.9247 82.3172 13.63C82.3172 13.344 82.2435 13.0883 82.0962 12.863C81.9488 12.629 81.7365 12.4427 81.4592 12.304C81.1818 12.1653 80.8395 12.096 80.4322 12.096Z" fill="#3B7DFF"/>
</svg>
