<svg width="110" height="30" viewBox="0 0 110 30" fill="none" xmlns="http://www.w3.org/2000/svg">
<rect width="110" height="30" rx="5" fill="#3B7DFF" fill-opacity="0.1"/>
<path d="M16.316 20V10.2H17.814L23.96 17.746H23.218V10.2H25.024V20H23.526L17.38 12.454H18.122V20H16.316ZM30.842 20.098C30.0767 20.098 29.3953 19.9347 28.798 19.608C28.2007 19.272 27.7293 18.8147 27.384 18.236C27.0387 17.6573 26.866 16.9993 26.866 16.262C26.866 15.5153 27.0387 14.8573 27.384 14.288C27.7293 13.7093 28.2007 13.2567 28.798 12.93C29.3953 12.6033 30.0767 12.44 30.842 12.44C31.6167 12.44 32.3027 12.6033 32.9 12.93C33.5067 13.2567 33.978 13.7047 34.314 14.274C34.6593 14.8433 34.832 15.506 34.832 16.262C34.832 16.9993 34.6593 17.6573 34.314 18.236C33.978 18.8147 33.5067 19.272 32.9 19.608C32.3027 19.9347 31.6167 20.098 30.842 20.098ZM30.842 18.6C31.2713 18.6 31.654 18.5067 31.99 18.32C32.326 18.1333 32.5873 17.8627 32.774 17.508C32.97 17.1533 33.068 16.738 33.068 16.262C33.068 15.7767 32.97 15.3613 32.774 15.016C32.5873 14.6613 32.326 14.3907 31.99 14.204C31.654 14.0173 31.276 13.924 30.856 13.924C30.4267 13.924 30.044 14.0173 29.708 14.204C29.3813 14.3907 29.12 14.6613 28.924 15.016C28.728 15.3613 28.63 15.7767 28.63 16.262C28.63 16.738 28.728 17.1533 28.924 17.508C29.12 17.8627 29.3813 18.1333 29.708 18.32C30.044 18.5067 30.422 18.6 30.842 18.6ZM45.9414 12.44C46.5388 12.44 47.0661 12.5567 47.5234 12.79C47.9901 13.0233 48.3541 13.3827 48.6154 13.868C48.8768 14.344 49.0074 14.96 49.0074 15.716V20H47.2574V15.94C47.2574 15.2773 47.1128 14.7827 46.8234 14.456C46.5341 14.1293 46.1188 13.966 45.5774 13.966C45.1948 13.966 44.8541 14.05 44.5554 14.218C44.2661 14.386 44.0374 14.6333 43.8694 14.96C43.7108 15.2867 43.6314 15.702 43.6314 16.206V20H41.8814V15.94C41.8814 15.2773 41.7368 14.7827 41.4474 14.456C41.1581 14.1293 40.7428 13.966 40.2014 13.966C39.8188 13.966 39.4781 14.05 39.1794 14.218C38.8901 14.386 38.6614 14.6333 38.4934 14.96C38.3348 15.2867 38.2554 15.702 38.2554 16.206V20H36.5054V12.524H38.1714V14.512L37.8774 13.924C38.1294 13.4387 38.4934 13.07 38.9694 12.818C39.4548 12.566 40.0054 12.44 40.6214 12.44C41.3214 12.44 41.9281 12.6127 42.4414 12.958C42.9641 13.3033 43.3094 13.826 43.4774 14.526L42.7914 14.288C43.0341 13.728 43.4354 13.28 43.9954 12.944C44.5554 12.608 45.2041 12.44 45.9414 12.44ZM54.6174 20.098C53.852 20.098 53.1707 19.9347 52.5734 19.608C51.976 19.272 51.5047 18.8147 51.1594 18.236C50.814 17.6573 50.6414 16.9993 50.6414 16.262C50.6414 15.5153 50.814 14.8573 51.1594 14.288C51.5047 13.7093 51.976 13.2567 52.5734 12.93C53.1707 12.6033 53.852 12.44 54.6174 12.44C55.392 12.44 56.078 12.6033 56.6754 12.93C57.282 13.2567 57.7534 13.7047 58.0894 14.274C58.4347 14.8433 58.6074 15.506 58.6074 16.262C58.6074 16.9993 58.4347 17.6573 58.0894 18.236C57.7534 18.8147 57.282 19.272 56.6754 19.608C56.078 19.9347 55.392 20.098 54.6174 20.098ZM54.6174 18.6C55.0467 18.6 55.4294 18.5067 55.7654 18.32C56.1014 18.1333 56.3627 17.8627 56.5494 17.508C56.7454 17.1533 56.8434 16.738 56.8434 16.262C56.8434 15.7767 56.7454 15.3613 56.5494 15.016C56.3627 14.6613 56.1014 14.3907 55.7654 14.204C55.4294 14.0173 55.0514 13.924 54.6314 13.924C54.202 13.924 53.8194 14.0173 53.4834 14.204C53.1567 14.3907 52.8954 14.6613 52.6994 15.016C52.5034 15.3613 52.4054 15.7767 52.4054 16.262C52.4054 16.738 52.5034 17.1533 52.6994 17.508C52.8954 17.8627 53.1567 18.1333 53.4834 18.32C53.8194 18.5067 54.1974 18.6 54.6174 18.6ZM60.2808 20V12.524H61.9468V14.582L61.7508 13.98C61.9748 13.476 62.3248 13.0933 62.8008 12.832C63.2861 12.5707 63.8881 12.44 64.6068 12.44V14.106C64.5321 14.0873 64.4621 14.078 64.3968 14.078C64.3315 14.0687 64.2661 14.064 64.2008 14.064C63.5381 14.064 63.0108 14.26 62.6188 14.652C62.2268 15.0347 62.0308 15.6087 62.0308 16.374V20H60.2808ZM70.5889 14.764C70.2715 14.764 70.0009 14.6567 69.7769 14.442C69.5529 14.218 69.4409 13.938 69.4409 13.602C69.4409 13.2473 69.5529 12.9673 69.7769 12.762C70.0009 12.5473 70.2715 12.44 70.5889 12.44C70.9062 12.44 71.1769 12.5473 71.4009 12.762C71.6249 12.9673 71.7369 13.2473 71.7369 13.602C71.7369 13.938 71.6249 14.218 71.4009 14.442C71.1769 14.6567 70.9062 14.764 70.5889 14.764ZM70.5889 20.098C70.2715 20.098 70.0009 19.9907 69.7769 19.776C69.5529 19.552 69.4409 19.272 69.4409 18.936C69.4409 18.5813 69.5529 18.3013 69.7769 18.096C70.0009 17.8813 70.2715 17.774 70.5889 17.774C70.9062 17.774 71.1769 17.8813 71.4009 18.096C71.6249 18.3013 71.7369 18.5813 71.7369 18.936C71.7369 19.272 71.6249 19.552 71.4009 19.776C71.1769 19.9907 70.9062 20.098 70.5889 20.098ZM78.352 20V10.9L79.15 11.726H76.28V10.2H80.172V20H78.352ZM83.684 20V10.9L84.482 11.726H81.612V10.2H85.504V20H83.684ZM90.696 20.14C90.0054 20.14 89.3287 20.042 88.666 19.846C88.0127 19.6407 87.462 19.3607 87.014 19.006L87.784 17.592C88.1387 17.8813 88.568 18.1147 89.072 18.292C89.5854 18.4693 90.1174 18.558 90.668 18.558C91.312 18.558 91.816 18.4227 92.18 18.152C92.5534 17.8813 92.74 17.5173 92.74 17.06C92.74 16.752 92.6607 16.4813 92.502 16.248C92.3527 16.0147 92.082 15.8373 91.69 15.716C91.3074 15.5947 90.78 15.534 90.108 15.534H87.742L88.246 10.2H94V11.726H88.918L89.87 10.858L89.492 14.848L88.54 13.994H90.514C91.4847 13.994 92.264 14.1247 92.852 14.386C93.4494 14.638 93.8834 14.9927 94.154 15.45C94.434 15.898 94.574 16.4113 94.574 16.99C94.574 17.5593 94.434 18.082 94.154 18.558C93.874 19.034 93.4447 19.4167 92.866 19.706C92.2967 19.9953 91.5734 20.14 90.696 20.14Z" fill="#3B7DFF"/>
</svg>
