<svg width="110" height="30" viewBox="0 0 110 30" fill="none" xmlns="http://www.w3.org/2000/svg">
<rect width="110" height="30" rx="5" fill="#3B7DFF" fill-opacity="0.1"/>
<path d="M14.316 20V10.2H15.814L21.96 17.746H21.218V10.2H23.024V20H21.526L15.38 12.454H16.122V20H14.316ZM28.842 20.098C28.0767 20.098 27.3953 19.9347 26.798 19.608C26.2007 19.272 25.7293 18.8147 25.384 18.236C25.0387 17.6573 24.866 16.9993 24.866 16.262C24.866 15.5153 25.0387 14.8573 25.384 14.288C25.7293 13.7093 26.2007 13.2567 26.798 12.93C27.3953 12.6033 28.0767 12.44 28.842 12.44C29.6167 12.44 30.3027 12.6033 30.9 12.93C31.5067 13.2567 31.978 13.7047 32.314 14.274C32.6593 14.8433 32.832 15.506 32.832 16.262C32.832 16.9993 32.6593 17.6573 32.314 18.236C31.978 18.8147 31.5067 19.272 30.9 19.608C30.3027 19.9347 29.6167 20.098 28.842 20.098ZM28.842 18.6C29.2713 18.6 29.654 18.5067 29.99 18.32C30.326 18.1333 30.5873 17.8627 30.774 17.508C30.97 17.1533 31.068 16.738 31.068 16.262C31.068 15.7767 30.97 15.3613 30.774 15.016C30.5873 14.6613 30.326 14.3907 29.99 14.204C29.654 14.0173 29.276 13.924 28.856 13.924C28.4267 13.924 28.044 14.0173 27.708 14.204C27.3813 14.3907 27.12 14.6613 26.924 15.016C26.728 15.3613 26.63 15.7767 26.63 16.262C26.63 16.738 26.728 17.1533 26.924 17.508C27.12 17.8627 27.3813 18.1333 27.708 18.32C28.044 18.5067 28.422 18.6 28.842 18.6ZM43.9414 12.44C44.5388 12.44 45.0661 12.5567 45.5234 12.79C45.9901 13.0233 46.3541 13.3827 46.6154 13.868C46.8768 14.344 47.0074 14.96 47.0074 15.716V20H45.2574V15.94C45.2574 15.2773 45.1128 14.7827 44.8234 14.456C44.5341 14.1293 44.1188 13.966 43.5774 13.966C43.1948 13.966 42.8541 14.05 42.5554 14.218C42.2661 14.386 42.0374 14.6333 41.8694 14.96C41.7108 15.2867 41.6314 15.702 41.6314 16.206V20H39.8814V15.94C39.8814 15.2773 39.7368 14.7827 39.4474 14.456C39.1581 14.1293 38.7428 13.966 38.2014 13.966C37.8188 13.966 37.4781 14.05 37.1794 14.218C36.8901 14.386 36.6614 14.6333 36.4934 14.96C36.3348 15.2867 36.2554 15.702 36.2554 16.206V20H34.5054V12.524H36.1714V14.512L35.8774 13.924C36.1294 13.4387 36.4934 13.07 36.9694 12.818C37.4548 12.566 38.0054 12.44 38.6214 12.44C39.3214 12.44 39.9281 12.6127 40.4414 12.958C40.9641 13.3033 41.3094 13.826 41.4774 14.526L40.7914 14.288C41.0341 13.728 41.4354 13.28 41.9954 12.944C42.5554 12.608 43.2041 12.44 43.9414 12.44ZM52.6174 20.098C51.852 20.098 51.1707 19.9347 50.5734 19.608C49.976 19.272 49.5047 18.8147 49.1594 18.236C48.814 17.6573 48.6414 16.9993 48.6414 16.262C48.6414 15.5153 48.814 14.8573 49.1594 14.288C49.5047 13.7093 49.976 13.2567 50.5734 12.93C51.1707 12.6033 51.852 12.44 52.6174 12.44C53.392 12.44 54.078 12.6033 54.6754 12.93C55.282 13.2567 55.7534 13.7047 56.0894 14.274C56.4347 14.8433 56.6074 15.506 56.6074 16.262C56.6074 16.9993 56.4347 17.6573 56.0894 18.236C55.7534 18.8147 55.282 19.272 54.6754 19.608C54.078 19.9347 53.392 20.098 52.6174 20.098ZM52.6174 18.6C53.0467 18.6 53.4294 18.5067 53.7654 18.32C54.1014 18.1333 54.3627 17.8627 54.5494 17.508C54.7454 17.1533 54.8434 16.738 54.8434 16.262C54.8434 15.7767 54.7454 15.3613 54.5494 15.016C54.3627 14.6613 54.1014 14.3907 53.7654 14.204C53.4294 14.0173 53.0514 13.924 52.6314 13.924C52.202 13.924 51.8194 14.0173 51.4834 14.204C51.1567 14.3907 50.8954 14.6613 50.6994 15.016C50.5034 15.3613 50.4054 15.7767 50.4054 16.262C50.4054 16.738 50.5034 17.1533 50.6994 17.508C50.8954 17.8627 51.1567 18.1333 51.4834 18.32C51.8194 18.5067 52.1974 18.6 52.6174 18.6ZM58.2808 20V12.524H59.9468V14.582L59.7508 13.98C59.9748 13.476 60.3248 13.0933 60.8008 12.832C61.2861 12.5707 61.8881 12.44 62.6068 12.44V14.106C62.5321 14.0873 62.4621 14.078 62.3968 14.078C62.3315 14.0687 62.2661 14.064 62.2008 14.064C61.5381 14.064 61.0108 14.26 60.6188 14.652C60.2268 15.0347 60.0308 15.6087 60.0308 16.374V20H58.2808ZM68.5889 14.764C68.2715 14.764 68.0009 14.6567 67.7769 14.442C67.5529 14.218 67.4409 13.938 67.4409 13.602C67.4409 13.2473 67.5529 12.9673 67.7769 12.762C68.0009 12.5473 68.2715 12.44 68.5889 12.44C68.9062 12.44 69.1769 12.5473 69.4009 12.762C69.6249 12.9673 69.7369 13.2473 69.7369 13.602C69.7369 13.938 69.6249 14.218 69.4009 14.442C69.1769 14.6567 68.9062 14.764 68.5889 14.764ZM68.5889 20.098C68.2715 20.098 68.0009 19.9907 67.7769 19.776C67.5529 19.552 67.4409 19.272 67.4409 18.936C67.4409 18.5813 67.5529 18.3013 67.7769 18.096C68.0009 17.8813 68.2715 17.774 68.5889 17.774C68.9062 17.774 69.1769 17.8813 69.4009 18.096C69.6249 18.3013 69.7369 18.5813 69.7369 18.936C69.7369 19.272 69.6249 19.552 69.4009 19.776C69.1769 19.9907 68.9062 20.098 68.5889 20.098ZM76.352 20V10.9L77.15 11.726H74.28V10.2H78.172V20H76.352ZM79.99 20V18.782L83.882 15.086C84.2087 14.778 84.4513 14.5073 84.61 14.274C84.7687 14.0407 84.8713 13.826 84.918 13.63C84.974 13.4247 85.002 13.2333 85.002 13.056C85.002 12.608 84.848 12.2627 84.54 12.02C84.232 11.768 83.7793 11.642 83.182 11.642C82.706 11.642 82.272 11.726 81.88 11.894C81.4973 12.062 81.166 12.3187 80.886 12.664L79.612 11.684C79.9947 11.1707 80.508 10.774 81.152 10.494C81.8053 10.2047 82.5333 10.06 83.336 10.06C84.0453 10.06 84.6613 10.1767 85.184 10.41C85.716 10.634 86.122 10.956 86.402 11.376C86.6913 11.796 86.836 12.2953 86.836 12.874C86.836 13.1913 86.794 13.5087 86.71 13.826C86.626 14.134 86.4673 14.4607 86.234 14.806C86.0007 15.1513 85.66 15.5387 85.212 15.968L81.866 19.146L81.488 18.46H87.214V20H79.99ZM91.5684 10.06C92.4644 10.06 93.2251 10.2513 93.8504 10.634C94.4851 11.0073 94.9704 11.5533 95.3064 12.272C95.6424 12.9907 95.8104 13.8773 95.8104 14.932C95.8104 16.052 95.6051 16.9993 95.1944 17.774C94.7931 18.5487 94.2331 19.1367 93.5144 19.538C92.7958 19.9393 91.9604 20.14 91.0084 20.14C90.5138 20.14 90.0424 20.0887 89.5944 19.986C89.1464 19.8833 88.7591 19.7247 88.4324 19.51L89.1044 18.138C89.3751 18.3153 89.6691 18.4413 89.9864 18.516C90.3038 18.5813 90.6304 18.614 90.9664 18.614C91.8904 18.614 92.6231 18.3293 93.1644 17.76C93.7058 17.1907 93.9764 16.3507 93.9764 15.24C93.9764 15.0627 93.9718 14.8573 93.9624 14.624C93.9531 14.3813 93.9204 14.1387 93.8644 13.896L94.4244 14.512C94.2658 14.8947 94.0371 15.2167 93.7384 15.478C93.4398 15.73 93.0898 15.9213 92.6884 16.052C92.2871 16.1827 91.8438 16.248 91.3584 16.248C90.7238 16.248 90.1498 16.1267 89.6364 15.884C89.1324 15.632 88.7311 15.282 88.4324 14.834C88.1338 14.3767 87.9844 13.8447 87.9844 13.238C87.9844 12.5847 88.1431 12.0247 88.4604 11.558C88.7778 11.082 89.2071 10.7133 89.7484 10.452C90.2991 10.1907 90.9058 10.06 91.5684 10.06ZM91.6664 11.488C91.2931 11.488 90.9618 11.558 90.6724 11.698C90.3831 11.8287 90.1544 12.02 89.9864 12.272C89.8278 12.5147 89.7484 12.8087 89.7484 13.154C89.7484 13.6673 89.9258 14.0733 90.2804 14.372C90.6351 14.6707 91.1111 14.82 91.7084 14.82C92.1004 14.82 92.4458 14.75 92.7444 14.61C93.0431 14.4607 93.2764 14.26 93.4444 14.008C93.6124 13.7467 93.6964 13.4573 93.6964 13.14C93.6964 12.832 93.6171 12.5567 93.4584 12.314C93.2998 12.062 93.0711 11.8613 92.7724 11.712C92.4738 11.5627 92.1051 11.488 91.6664 11.488Z" fill="#3B7DFF"/>
</svg>
