<svg width="95" height="30" viewBox="0 0 95 30" fill="none" xmlns="http://www.w3.org/2000/svg">
<rect width="95" height="30" rx="7" fill="#152036"/>
<path d="M9.222 20V10.9H10.613L16.32 17.907H15.631V10.9H17.308V20H15.917L10.21 12.993H10.899V20H9.222ZM22.7104 20.091C21.9997 20.091 21.3671 19.9393 20.8124 19.636C20.2577 19.324 19.8201 18.8993 19.4994 18.362C19.1787 17.8247 19.0184 17.2137 19.0184 16.529C19.0184 15.8357 19.1787 15.2247 19.4994 14.696C19.8201 14.1587 20.2577 13.7383 20.8124 13.435C21.3671 13.1317 21.9997 12.98 22.7104 12.98C23.4297 12.98 24.0667 13.1317 24.6214 13.435C25.1847 13.7383 25.6224 14.1543 25.9344 14.683C26.2551 15.2117 26.4154 15.827 26.4154 16.529C26.4154 17.2137 26.2551 17.8247 25.9344 18.362C25.6224 18.8993 25.1847 19.324 24.6214 19.636C24.0667 19.9393 23.4297 20.091 22.7104 20.091ZM22.7104 18.7C23.1091 18.7 23.4644 18.6133 23.7764 18.44C24.0884 18.2667 24.3311 18.0153 24.5044 17.686C24.6864 17.3567 24.7774 16.971 24.7774 16.529C24.7774 16.0783 24.6864 15.6927 24.5044 15.372C24.3311 15.0427 24.0884 14.7913 23.7764 14.618C23.4644 14.4447 23.1134 14.358 22.7234 14.358C22.3247 14.358 21.9694 14.4447 21.6574 14.618C21.3541 14.7913 21.1114 15.0427 20.9294 15.372C20.7474 15.6927 20.6564 16.0783 20.6564 16.529C20.6564 16.971 20.7474 17.3567 20.9294 17.686C21.1114 18.0153 21.3541 18.2667 21.6574 18.44C21.9694 18.6133 22.3204 18.7 22.7104 18.7ZM36.7313 12.98C37.286 12.98 37.7757 13.0883 38.2003 13.305C38.6337 13.5217 38.9717 13.8553 39.2143 14.306C39.457 14.748 39.5783 15.32 39.5783 16.022V20H37.9533V16.23C37.9533 15.6147 37.819 15.1553 37.5503 14.852C37.2817 14.5487 36.896 14.397 36.3933 14.397C36.038 14.397 35.7217 14.475 35.4443 14.631C35.1757 14.787 34.9633 15.0167 34.8073 15.32C34.66 15.6233 34.5863 16.009 34.5863 16.477V20H32.9613V16.23C32.9613 15.6147 32.827 15.1553 32.5583 14.852C32.2897 14.5487 31.904 14.397 31.4013 14.397C31.046 14.397 30.7297 14.475 30.4523 14.631C30.1837 14.787 29.9713 15.0167 29.8153 15.32C29.668 15.6233 29.5943 16.009 29.5943 16.477V20H27.9693V13.058H29.5163V14.904L29.2433 14.358C29.4773 13.9073 29.8153 13.565 30.2573 13.331C30.708 13.097 31.2193 12.98 31.7913 12.98C32.4413 12.98 33.0047 13.1403 33.4813 13.461C33.9667 13.7817 34.2873 14.267 34.4433 14.917L33.8063 14.696C34.0317 14.176 34.4043 13.76 34.9243 13.448C35.4443 13.136 36.0467 12.98 36.7313 12.98ZM44.7876 20.091C44.0769 20.091 43.4442 19.9393 42.8896 19.636C42.3349 19.324 41.8972 18.8993 41.5766 18.362C41.2559 17.8247 41.0956 17.2137 41.0956 16.529C41.0956 15.8357 41.2559 15.2247 41.5766 14.696C41.8972 14.1587 42.3349 13.7383 42.8896 13.435C43.4442 13.1317 44.0769 12.98 44.7876 12.98C45.5069 12.98 46.1439 13.1317 46.6986 13.435C47.2619 13.7383 47.6996 14.1543 48.0116 14.683C48.3322 15.2117 48.4926 15.827 48.4926 16.529C48.4926 17.2137 48.3322 17.8247 48.0116 18.362C47.6996 18.8993 47.2619 19.324 46.6986 19.636C46.1439 19.9393 45.5069 20.091 44.7876 20.091ZM44.7876 18.7C45.1862 18.7 45.5416 18.6133 45.8536 18.44C46.1656 18.2667 46.4082 18.0153 46.5816 17.686C46.7636 17.3567 46.8546 16.971 46.8546 16.529C46.8546 16.0783 46.7636 15.6927 46.5816 15.372C46.4082 15.0427 46.1656 14.7913 45.8536 14.618C45.5416 14.4447 45.1906 14.358 44.8006 14.358C44.4019 14.358 44.0466 14.4447 43.7346 14.618C43.4312 14.7913 43.1886 15.0427 43.0066 15.372C42.8246 15.6927 42.7336 16.0783 42.7336 16.529C42.7336 16.971 42.8246 17.3567 43.0066 17.686C43.1886 18.0153 43.4312 18.2667 43.7346 18.44C44.0466 18.6133 44.3976 18.7 44.7876 18.7ZM50.0465 20V13.058H51.5935V14.969L51.4115 14.41C51.6195 13.942 51.9445 13.5867 52.3865 13.344C52.8371 13.1013 53.3961 12.98 54.0635 12.98V14.527C53.9941 14.5097 53.9291 14.501 53.8685 14.501C53.8078 14.4923 53.7471 14.488 53.6865 14.488C53.0711 14.488 52.5815 14.67 52.2175 15.034C51.8535 15.3893 51.6715 15.9223 51.6715 16.633V20H50.0465ZM59.6182 15.138C59.3236 15.138 59.0722 15.0383 58.8642 14.839C58.6562 14.631 58.5522 14.371 58.5522 14.059C58.5522 13.7297 58.6562 13.4697 58.8642 13.279C59.0722 13.0797 59.3236 12.98 59.6182 12.98C59.9129 12.98 60.1642 13.0797 60.3722 13.279C60.5802 13.4697 60.6842 13.7297 60.6842 14.059C60.6842 14.371 60.5802 14.631 60.3722 14.839C60.1642 15.0383 59.9129 15.138 59.6182 15.138ZM59.6182 20.091C59.3236 20.091 59.0722 19.9913 58.8642 19.792C58.6562 19.584 58.5522 19.324 58.5522 19.012C58.5522 18.6827 58.6562 18.4227 58.8642 18.232C59.0722 18.0327 59.3236 17.933 59.6182 17.933C59.9129 17.933 60.1642 18.0327 60.3722 18.232C60.5802 18.4227 60.6842 18.6827 60.6842 19.012C60.6842 19.324 60.5802 19.584 60.3722 19.792C60.1642 19.9913 59.9129 20.091 59.6182 20.091ZM66.8268 20V11.55L67.5678 12.317H64.9028V10.9H68.5168V20H66.8268ZM70.205 20V18.869L73.819 15.437C74.1223 15.151 74.3477 14.8997 74.495 14.683C74.6423 14.4663 74.7377 14.267 74.781 14.085C74.833 13.8943 74.859 13.7167 74.859 13.552C74.859 13.136 74.716 12.8153 74.43 12.59C74.144 12.356 73.7237 12.239 73.169 12.239C72.727 12.239 72.324 12.317 71.96 12.473C71.6047 12.629 71.297 12.8673 71.037 13.188L69.854 12.278C70.2093 11.8013 70.686 11.433 71.284 11.173C71.8907 10.9043 72.5667 10.77 73.312 10.77C73.9707 10.77 74.5427 10.8783 75.028 11.095C75.522 11.303 75.899 11.602 76.159 11.992C76.4277 12.382 76.562 12.8457 76.562 13.383C76.562 13.6777 76.523 13.9723 76.445 14.267C76.367 14.553 76.2197 14.8563 76.003 15.177C75.7863 15.4977 75.47 15.8573 75.054 16.256L71.947 19.207L71.596 18.57H76.913V20H70.205ZM80.9564 10.77C81.7884 10.77 82.4947 10.9477 83.0754 11.303C83.6647 11.6497 84.1154 12.1567 84.4274 12.824C84.7394 13.4913 84.8954 14.3147 84.8954 15.294C84.8954 16.334 84.7047 17.2137 84.3234 17.933C83.9507 18.6523 83.4307 19.1983 82.7634 19.571C82.0961 19.9437 81.3204 20.13 80.4364 20.13C79.9771 20.13 79.5394 20.0823 79.1234 19.987C78.7074 19.8917 78.3477 19.7443 78.0444 19.545L78.6684 18.271C78.9197 18.4357 79.1927 18.5527 79.4874 18.622C79.7821 18.6827 80.0854 18.713 80.3974 18.713C81.2554 18.713 81.9357 18.4487 82.4384 17.92C82.9411 17.3913 83.1924 16.6113 83.1924 15.58C83.1924 15.4153 83.1881 15.2247 83.1794 15.008C83.1707 14.7827 83.1404 14.5573 83.0884 14.332L83.6084 14.904C83.4611 15.2593 83.2487 15.5583 82.9714 15.801C82.6941 16.035 82.3691 16.2127 81.9964 16.334C81.6237 16.4553 81.2121 16.516 80.7614 16.516C80.1721 16.516 79.6391 16.4033 79.1624 16.178C78.6944 15.944 78.3217 15.619 78.0444 15.203C77.7671 14.7783 77.6284 14.2843 77.6284 13.721C77.6284 13.1143 77.7757 12.5943 78.0704 12.161C78.3651 11.719 78.7637 11.3767 79.2664 11.134C79.7777 10.8913 80.3411 10.77 80.9564 10.77ZM81.0474 12.096C80.7007 12.096 80.3931 12.161 80.1244 12.291C79.8557 12.4123 79.6434 12.59 79.4874 12.824C79.3401 13.0493 79.2664 13.3223 79.2664 13.643C79.2664 14.1197 79.4311 14.4967 79.7604 14.774C80.0897 15.0513 80.5317 15.19 81.0864 15.19C81.4504 15.19 81.7711 15.125 82.0484 14.995C82.3257 14.8563 82.5424 14.67 82.6984 14.436C82.8544 14.1933 82.9324 13.9247 82.9324 13.63C82.9324 13.344 82.8587 13.0883 82.7114 12.863C82.5641 12.629 82.3517 12.4427 82.0744 12.304C81.7971 12.1653 81.4547 12.096 81.0474 12.096Z" fill="#3B7DFF"/>
</svg>
