<svg width="45" height="45" viewBox="0 0 45 45" fill="none" xmlns="http://www.w3.org/2000/svg">
<circle cx="22.5" cy="22.5" r="22.5" fill="white" fill-opacity="0.1"/>
<path d="M27.8857 21.3021C27.4736 21.3021 27.1478 20.9667 27.1478 20.5642C27.1478 20.2096 26.7932 19.4717 26.199 18.8296C25.6144 18.2067 24.9723 17.8425 24.4357 17.8425C24.0236 17.8425 23.6978 17.5071 23.6978 17.1046C23.6978 16.7021 24.0332 16.3667 24.4357 16.3667C25.394 16.3667 26.4003 16.8842 27.2819 17.8138C28.1061 18.6859 28.6332 19.7688 28.6332 20.5546C28.6332 20.9667 28.2978 21.3021 27.8857 21.3021Z" fill="white"/>
<path d="M31.3454 21.3019C30.9334 21.3019 30.6075 20.9665 30.6075 20.564C30.6075 17.1619 27.8379 14.4019 24.4454 14.4019C24.0334 14.4019 23.7075 14.0665 23.7075 13.664C23.7075 13.2615 24.0334 12.9165 24.4359 12.9165C28.6525 12.9165 32.0834 16.3473 32.0834 20.564C32.0834 20.9665 31.7479 21.3019 31.3454 21.3019Z" fill="white"/>
<path d="M21.5894 25.3269L19.8165 27.0998C19.4428 27.4736 18.8486 27.4736 18.4653 27.1094C18.3598 27.004 18.2544 26.9082 18.149 26.8028C17.1619 25.8061 16.2707 24.7615 15.4753 23.669C14.6894 22.5765 14.0569 21.484 13.5969 20.4011C13.1465 19.3086 12.9165 18.264 12.9165 17.2673C12.9165 16.6157 13.0315 15.9928 13.2615 15.4178C13.4915 14.8332 13.8557 14.2965 14.3636 13.8173C14.9769 13.2136 15.6478 12.9165 16.3569 12.9165C16.6253 12.9165 16.8936 12.974 17.1332 13.089C17.3823 13.204 17.6028 13.3765 17.7753 13.6257L19.9986 16.7594C20.1711 16.999 20.2957 17.2194 20.3819 17.4303C20.4682 17.6315 20.5161 17.8328 20.5161 18.0148C20.5161 18.2448 20.449 18.4748 20.3148 18.6953C20.1903 18.9157 20.0082 19.1457 19.7782 19.3757L19.0498 20.1328C18.9444 20.2382 18.8965 20.3628 18.8965 20.5161C18.8965 20.5928 18.9061 20.6598 18.9253 20.7365C18.954 20.8132 18.9828 20.8707 19.0019 20.9282C19.1744 21.2444 19.4715 21.6565 19.8932 22.1548C20.3244 22.6532 20.7844 23.1611 21.2828 23.669C21.3786 23.7648 21.484 23.8607 21.5798 23.9565C21.9632 24.3303 21.9728 24.9436 21.5894 25.3269Z" fill="white"/>
<path d="M32.0548 28.5663C32.0548 28.8347 32.0069 29.1126 31.911 29.3809C31.8823 29.4576 31.8535 29.5342 31.8152 29.6109C31.6523 29.9559 31.4414 30.2817 31.1635 30.5884C30.6939 31.1059 30.1764 31.4797 29.5919 31.7192C29.5823 31.7192 29.5727 31.7288 29.5631 31.7288C28.9977 31.9588 28.3844 32.0834 27.7231 32.0834C26.7456 32.0834 25.701 31.8534 24.5989 31.3838C23.4969 30.9142 22.3948 30.2817 21.3023 29.4863C20.9285 29.2084 20.5548 28.9305 20.2002 28.6334L23.3339 25.4997C23.6023 25.7009 23.8419 25.8542 24.0431 25.9597C24.091 25.9788 24.1485 26.0076 24.2156 26.0363C24.2923 26.0651 24.3689 26.0747 24.4552 26.0747C24.6181 26.0747 24.7427 26.0172 24.8481 25.9117L25.5764 25.193C25.816 24.9534 26.046 24.7713 26.2664 24.6563C26.4869 24.5222 26.7073 24.4551 26.9469 24.4551C27.1289 24.4551 27.3206 24.4934 27.5314 24.5797C27.7423 24.6659 27.9627 24.7905 28.2023 24.9534L31.3744 27.2055C31.6235 27.378 31.796 27.5792 31.9014 27.8188C31.9973 28.0584 32.0548 28.298 32.0548 28.5663Z" fill="white"/>
</svg>
