<svg width="40" height="40" viewBox="0 0 40 40" fill="none" xmlns="http://www.w3.org/2000/svg">
<circle cx="20" cy="20" r="20" fill="#0056FF"/>
<path d="M24.6833 18.9584C24.325 18.9584 24.0416 18.6667 24.0416 18.3167C24.0416 18.0084 23.7333 17.3667 23.2166 16.8084C22.7083 16.2667 22.15 15.9501 21.6833 15.9501C21.325 15.9501 21.0416 15.6584 21.0416 15.3084C21.0416 14.9584 21.3333 14.6667 21.6833 14.6667C22.5166 14.6667 23.3916 15.1167 24.1583 15.9251C24.875 16.6834 25.3333 17.6251 25.3333 18.3084C25.3333 18.6667 25.0416 18.9584 24.6833 18.9584Z" fill="white"/>
<path d="M27.6917 18.9584C27.3334 18.9584 27.05 18.6667 27.05 18.3167C27.05 15.3584 24.6417 12.9584 21.6917 12.9584C21.3334 12.9584 21.05 12.6667 21.05 12.3167C21.05 11.9667 21.3334 11.6667 21.6834 11.6667C25.35 11.6667 28.3334 14.6501 28.3334 18.3167C28.3334 18.6667 28.0417 18.9584 27.6917 18.9584Z" fill="white"/>
<path d="M19.2083 22.4584L17.6666 24.0001C17.3416 24.3251 16.825 24.3251 16.4916 24.0084C16.4 23.9167 16.3083 23.8334 16.2166 23.7417C15.3583 22.8751 14.5833 21.9667 13.8916 21.0167C13.2083 20.0667 12.6583 19.1167 12.2583 18.1751C11.8666 17.2251 11.6666 16.3167 11.6666 15.4501C11.6666 14.8834 11.7666 14.3417 11.9666 13.8417C12.1666 13.3334 12.4833 12.8667 12.925 12.4501C13.4583 11.9251 14.0416 11.6667 14.6583 11.6667C14.8916 11.6667 15.125 11.7167 15.3333 11.8167C15.55 11.9167 15.7416 12.0667 15.8916 12.2834L17.825 15.0084C17.975 15.2167 18.0833 15.4084 18.1583 15.5917C18.2333 15.7667 18.275 15.9417 18.275 16.1001C18.275 16.3001 18.2166 16.5001 18.1 16.6917C17.9916 16.8834 17.8333 17.0834 17.6333 17.2834L17 17.9417C16.9083 18.0334 16.8666 18.1417 16.8666 18.2751C16.8666 18.3417 16.875 18.4001 16.8916 18.4667C16.9166 18.5334 16.9416 18.5834 16.9583 18.6334C17.1083 18.9084 17.3666 19.2667 17.7333 19.7001C18.1083 20.1334 18.5083 20.5751 18.9416 21.0167C19.025 21.1001 19.1166 21.1834 19.2 21.2667C19.5333 21.5917 19.5416 22.1251 19.2083 22.4584Z" fill="white"/>
<path d="M28.3083 25.275C28.3083 25.5083 28.2667 25.75 28.1833 25.9833C28.1583 26.05 28.1333 26.1166 28.1 26.1833C27.9583 26.4833 27.775 26.7666 27.5333 27.0333C27.125 27.4833 26.675 27.8083 26.1667 28.0166C26.1583 28.0166 26.15 28.025 26.1417 28.025C25.65 28.225 25.1167 28.3333 24.5417 28.3333C23.6917 28.3333 22.7833 28.1333 21.825 27.725C20.8667 27.3166 19.9083 26.7666 18.9583 26.075C18.6333 25.8333 18.3083 25.5916 18 25.3333L20.725 22.6083C20.9583 22.7833 21.1667 22.9166 21.3417 23.0083C21.3833 23.025 21.4333 23.05 21.4917 23.075C21.5583 23.1 21.625 23.1083 21.7 23.1083C21.8417 23.1083 21.95 23.0583 22.0417 22.9666L22.675 22.3416C22.8833 22.1333 23.0833 21.975 23.275 21.875C23.4667 21.7583 23.6583 21.7 23.8667 21.7C24.025 21.7 24.1917 21.7333 24.375 21.8083C24.5583 21.8833 24.75 21.9916 24.9583 22.1333L27.7167 24.0916C27.9333 24.2416 28.0833 24.4166 28.175 24.625C28.2583 24.8333 28.3083 25.0416 28.3083 25.275Z" fill="white"/>
</svg>
