<svg width="45" height="45" viewBox="0 0 45 45" fill="none" xmlns="http://www.w3.org/2000/svg">
<circle cx="22.5" cy="22.5" r="22.5" transform="matrix(-1 0 0 1 45 0)" fill="#3E3F42"/>
<path d="M27 23C27 22.4167 26.775 21.8333 26.3334 21.3917L20.9 15.9583C20.6584 15.7167 20.2584 15.7167 20.0167 15.9583C19.775 16.2 19.775 16.6 20.0167 16.8417L25.45 22.275C25.85 22.675 25.85 23.325 25.45 23.725L20.0167 29.1583C19.775 29.4 19.775 29.8 20.0167 30.0417C20.2584 30.2833 20.6584 30.2833 20.9 30.0417L26.3334 24.6083C26.775 24.1667 27 23.5833 27 23Z" fill="white"/>
</svg>
