<svg width="22" height="22" viewBox="0 0 22 22" fill="none" xmlns="http://www.w3.org/2000/svg">
<path d="M10.9997 20.8542C5.56384 20.8542 1.14551 16.4359 1.14551 11C1.14551 5.56421 5.56384 1.14587 10.9997 1.14587C16.4355 1.14587 20.8538 5.56421 20.8538 11C20.8538 16.4359 16.4355 20.8542 10.9997 20.8542ZM10.9997 2.52087C6.32467 2.52087 2.52051 6.32504 2.52051 11C2.52051 15.675 6.32467 19.4792 10.9997 19.4792C15.6747 19.4792 19.4788 15.675 19.4788 11C19.4788 6.32504 15.6747 2.52087 10.9997 2.52087Z" fill="white"/>
<path d="M14.4008 14.6025C14.2816 14.6025 14.1624 14.575 14.0524 14.5017L11.2108 12.8058C10.5049 12.3842 9.98242 11.4583 9.98242 10.6425V6.88416C9.98242 6.50832 10.2941 6.19666 10.6699 6.19666C11.0458 6.19666 11.3574 6.50832 11.3574 6.88416V10.6425C11.3574 10.9725 11.6324 11.4583 11.9166 11.6233L14.7583 13.3192C15.0883 13.5117 15.1891 13.9333 14.9966 14.2633C14.8591 14.4833 14.6299 14.6025 14.4008 14.6025Z" fill="white"/>
</svg>
