<svg width="22" height="22" viewBox="0 0 22 22" fill="none" xmlns="http://www.w3.org/2000/svg">
<path d="M11.0002 20.8541C5.56433 20.8541 1.146 16.4358 1.146 10.9999C1.146 5.56409 5.56433 1.14575 11.0002 1.14575C16.436 1.14575 20.8543 5.56409 20.8543 10.9999C20.8543 16.4358 16.436 20.8541 11.0002 20.8541ZM11.0002 2.52075C6.32516 2.52075 2.521 6.32492 2.521 10.9999C2.521 15.6749 6.32516 19.4791 11.0002 19.4791C15.6752 19.4791 19.4793 15.6749 19.4793 10.9999C19.4793 6.32492 15.6752 2.52075 11.0002 2.52075Z" fill="white"/>
<path d="M14.4008 14.6026C14.2816 14.6026 14.1624 14.5751 14.0524 14.5018L11.2108 12.8059C10.5049 12.3843 9.98242 11.4584 9.98242 10.6426V6.88428C9.98242 6.50844 10.2941 6.19678 10.6699 6.19678C11.0458 6.19678 11.3574 6.50844 11.3574 6.88428V10.6426C11.3574 10.9726 11.6324 11.4584 11.9166 11.6234L14.7583 13.3193C15.0883 13.5118 15.1891 13.9334 14.9966 14.2634C14.8591 14.4834 14.6299 14.6026 14.4008 14.6026Z" fill="white"/>
</svg>
