<svg width="17" height="17" viewBox="0 0 17 17" fill="none" xmlns="http://www.w3.org/2000/svg">
<path d="M8.50033 16.1147C4.29991 16.1147 0.885742 12.7005 0.885742 8.50008C0.885742 4.29967 4.29991 0.885498 8.50033 0.885498C12.7007 0.885498 16.1149 4.29967 16.1149 8.50008C16.1149 12.7005 12.7007 16.1147 8.50033 16.1147ZM8.50033 1.948C4.88783 1.948 1.94824 4.88758 1.94824 8.50008C1.94824 12.1126 4.88783 15.0522 8.50033 15.0522C12.1128 15.0522 15.0524 12.1126 15.0524 8.50008C15.0524 4.88758 12.1128 1.948 8.50033 1.948Z" fill="#A4A6AA"/>
<path d="M6.4953 11.0357C6.36072 11.0357 6.22613 10.9861 6.11988 10.8799C5.91447 10.6745 5.91447 10.3345 6.11988 10.129L10.129 6.11988C10.3345 5.91447 10.6745 5.91447 10.8799 6.11988C11.0853 6.3253 11.0853 6.6653 10.8799 6.87072L6.87072 10.8799C6.77155 10.9861 6.62988 11.0357 6.4953 11.0357Z" fill="#A4A6AA"/>
<path d="M10.5045 11.0357C10.3699 11.0357 10.2353 10.9861 10.129 10.8799L6.11988 6.87072C5.91447 6.6653 5.91447 6.3253 6.11988 6.11988C6.3253 5.91447 6.6653 5.91447 6.87072 6.11988L10.8799 10.129C11.0853 10.3345 11.0853 10.6745 10.8799 10.8799C10.7736 10.9861 10.639 11.0357 10.5045 11.0357Z" fill="#A4A6AA"/>
</svg>
