<svg width="18" height="18" viewBox="0 0 18 18" fill="none" xmlns="http://www.w3.org/2000/svg">
<path d="M11.3173 15.5025C11.4598 15.5025 11.6023 15.45 11.7148 15.3375C11.9323 15.12 11.9323 14.76 11.7148 14.5425L6.82481 9.65251C6.46481 9.29251 6.46481 8.70751 6.82481 8.34751L11.7148 3.45751C11.9323 3.24001 11.9323 2.88001 11.7148 2.66251C11.4973 2.44501 11.1373 2.44501 10.9198 2.66251L6.02981 7.55251C5.64731 7.93501 5.42981 8.45252 5.42981 9.00002C5.42981 9.54752 5.63981 10.065 6.02981 10.4475L10.9198 15.3375C11.0323 15.4425 11.1748 15.5025 11.3173 15.5025Z" fill="white"/>
</svg>
