<svg width="22" height="22" viewBox="0 0 22 22" fill="none" xmlns="http://www.w3.org/2000/svg">
<path d="M8.40591 14.2817C8.23174 14.2817 8.05758 14.2176 7.92008 14.0801C7.65424 13.8142 7.65424 13.3742 7.92008 13.1084L13.1084 7.92008C13.3742 7.65424 13.8142 7.65424 14.0801 7.92008C14.3459 8.18591 14.3459 8.62591 14.0801 8.89174L8.89174 14.0801C8.76341 14.2176 8.58008 14.2817 8.40591 14.2817Z" fill="#FF7575"/>
<path d="M13.5942 14.2817C13.4201 14.2817 13.2459 14.2176 13.1084 14.0801L7.92008 8.89174C7.65424 8.62591 7.65424 8.18591 7.92008 7.92008C8.18591 7.65424 8.62591 7.65424 8.89174 7.92008L14.0801 13.1084C14.3459 13.3742 14.3459 13.8142 14.0801 14.0801C13.9426 14.2176 13.7684 14.2817 13.5942 14.2817Z" fill="#FF7575"/>
<path d="M13.7497 20.8541H8.24967C3.27217 20.8541 1.14551 18.7274 1.14551 13.7499V8.24992C1.14551 3.27242 3.27217 1.14575 8.24967 1.14575H13.7497C18.7272 1.14575 20.8538 3.27242 20.8538 8.24992V13.7499C20.8538 18.7274 18.7272 20.8541 13.7497 20.8541ZM8.24967 2.52075C4.02384 2.52075 2.52051 4.02409 2.52051 8.24992V13.7499C2.52051 17.9758 4.02384 19.4791 8.24967 19.4791H13.7497C17.9755 19.4791 19.4788 17.9758 19.4788 13.7499V8.24992C19.4788 4.02409 17.9755 2.52075 13.7497 2.52075H8.24967Z" fill="#FF7575"/>
</svg>
