<svg width="22" height="22" viewBox="0 0 22 22" fill="none" xmlns="http://www.w3.org/2000/svg">
<path d="M11.0185 18.8191C8.88271 18.8191 6.74687 18.48 4.72104 17.8016C3.95104 17.5358 3.36437 16.995 3.10771 16.2891C2.84187 15.5833 2.93354 14.8041 3.35521 14.1075L4.40937 12.3566C4.62937 11.99 4.83104 11.2566 4.83104 10.8258V8.17664C4.83104 4.76664 7.60854 1.98914 11.0185 1.98914C14.4285 1.98914 17.206 4.76664 17.206 8.17664V10.8258C17.206 11.2475 17.4077 11.99 17.6277 12.3658L18.6727 14.1075C19.0669 14.7675 19.1402 15.565 18.8744 16.2891C18.6085 17.0133 18.031 17.5633 17.3069 17.8016C15.2902 18.48 13.1544 18.8191 11.0185 18.8191ZM11.0185 3.36414C8.36937 3.36414 6.20604 5.5183 6.20604 8.17664V10.8258C6.20604 11.495 5.93104 12.485 5.59187 13.0625L4.53771 14.8133C4.33604 15.1525 4.28104 15.51 4.40021 15.8125C4.51021 16.1241 4.78521 16.3625 5.16104 16.4908C8.99271 17.7741 13.0535 17.7741 16.8852 16.4908C17.2152 16.3808 17.4719 16.1333 17.591 15.8033C17.7102 15.4733 17.6827 15.1158 17.4994 14.8133L16.4452 13.0625C16.0969 12.4666 15.831 11.4858 15.831 10.8166V8.17664C15.831 5.5183 13.6769 3.36414 11.0185 3.36414Z" fill="white"/>
<path d="M12.7232 3.61167C12.6591 3.61167 12.5949 3.6025 12.5307 3.58416C12.2649 3.51083 12.0082 3.45583 11.7607 3.41917C10.9816 3.31833 10.2299 3.37333 9.52407 3.58416C9.2674 3.66666 8.9924 3.58416 8.81823 3.39166C8.64407 3.19916 8.58907 2.92417 8.6899 2.67667C9.06573 1.71417 9.9824 1.08167 11.0274 1.08167C12.0724 1.08167 12.9891 1.705 13.3649 2.67667C13.4566 2.92417 13.4107 3.19916 13.2366 3.39166C13.0991 3.53833 12.9066 3.61167 12.7232 3.61167Z" fill="white"/>
<path d="M11.0186 20.9092C10.1111 20.9092 9.23105 20.5425 8.58939 19.9008C7.94772 19.2592 7.58105 18.3792 7.58105 17.4717H8.95605C8.95605 18.0125 9.17605 18.5442 9.56105 18.9292C9.94605 19.3142 10.4777 19.5342 11.0186 19.5342C12.1552 19.5342 13.0811 18.6083 13.0811 17.4717H14.4561C14.4561 19.3692 12.9161 20.9092 11.0186 20.9092Z" fill="white"/>
</svg>
