<svg width="40" height="41" viewBox="0 0 40 41" fill="none" xmlns="http://www.w3.org/2000/svg">
<circle cx="20" cy="20" r="20" transform="matrix(-1 0 0 1 40 0.500488)" fill="#1B202A"/>
<path d="M24 20.5003C24 19.9169 23.775 19.3336 23.3334 18.8919L17.9 13.4586C17.6584 13.2169 17.2584 13.2169 17.0167 13.4586C16.775 13.7003 16.775 14.1003 17.0167 14.3419L22.45 19.7753C22.85 20.1753 22.85 20.8253 22.45 21.2253L17.0167 26.6586C16.775 26.9003 16.775 27.3003 17.0167 27.5419C17.2584 27.7836 17.6584 27.7836 17.9 27.5419L23.3334 22.1086C23.775 21.6669 24 21.0836 24 20.5003Z" fill="white"/>
</svg>
