<svg width="45" height="45" viewBox="0 0 45 45" fill="none" xmlns="http://www.w3.org/2000/svg">
<circle cx="22.5" cy="22.5" r="22.5" fill="white" fill-opacity="0.07"/>
<path d="M27.8862 21.3021C27.4741 21.3021 27.1482 20.9667 27.1482 20.5642C27.1482 20.2096 26.7937 19.4717 26.1995 18.8296C25.6149 18.2067 24.9728 17.8425 24.4362 17.8425C24.0241 17.8425 23.6982 17.5071 23.6982 17.1046C23.6982 16.7021 24.0337 16.3667 24.4362 16.3667C25.3945 16.3667 26.4007 16.8842 27.2824 17.8138C28.1066 18.6859 28.6337 19.7688 28.6337 20.5546C28.6337 20.9667 28.2982 21.3021 27.8862 21.3021Z" fill="white"/>
<path d="M31.3449 21.302C30.9329 21.302 30.607 20.9666 30.607 20.5641C30.607 17.162 27.8374 14.402 24.4449 14.402C24.0329 14.402 23.707 14.0666 23.707 13.6641C23.707 13.2616 24.0329 12.9166 24.4354 12.9166C28.652 12.9166 32.0829 16.3475 32.0829 20.5641C32.0829 20.9666 31.7474 21.302 31.3449 21.302Z" fill="white"/>
<path d="M21.5899 25.327L19.817 27.1C19.4432 27.4737 18.8491 27.4737 18.4657 27.1095C18.3603 27.0041 18.2549 26.9083 18.1495 26.8029C17.1624 25.8062 16.2712 24.7616 15.4757 23.6691C14.6899 22.5766 14.0574 21.4841 13.5974 20.4012C13.147 19.3087 12.917 18.2641 12.917 17.2675C12.917 16.6158 13.032 15.9929 13.262 15.4179C13.492 14.8333 13.8562 14.2966 14.3641 13.8175C14.9774 13.2137 15.6482 12.9166 16.3574 12.9166C16.6257 12.9166 16.8941 12.9741 17.1337 13.0891C17.3828 13.2041 17.6032 13.3766 17.7757 13.6258L19.9991 16.7595C20.1716 16.9991 20.2962 17.2195 20.3824 17.4304C20.4687 17.6316 20.5166 17.8329 20.5166 18.015C20.5166 18.245 20.4495 18.475 20.3153 18.6954C20.1907 18.9158 20.0087 19.1458 19.7787 19.3758L19.0503 20.1329C18.9449 20.2383 18.897 20.3629 18.897 20.5162C18.897 20.5929 18.9066 20.66 18.9257 20.7366C18.9545 20.8133 18.9832 20.8708 19.0024 20.9283C19.1749 21.2445 19.472 21.6566 19.8937 22.155C20.3249 22.6533 20.7849 23.1612 21.2832 23.6691C21.3791 23.765 21.4845 23.8608 21.5803 23.9566C21.9637 24.3304 21.9732 24.9437 21.5899 25.327Z" fill="white"/>
<path d="M32.0548 28.5662C32.0548 28.8345 32.0069 29.1125 31.911 29.3808C31.8823 29.4575 31.8535 29.5341 31.8152 29.6108C31.6523 29.9558 31.4414 30.2816 31.1635 30.5883C30.6939 31.1058 30.1764 31.4795 29.5919 31.7191C29.5823 31.7191 29.5727 31.7287 29.5631 31.7287C28.9977 31.9587 28.3844 32.0833 27.7231 32.0833C26.7456 32.0833 25.701 31.8533 24.5989 31.3837C23.4969 30.9141 22.3948 30.2816 21.3023 29.4862C20.9285 29.2083 20.5548 28.9304 20.2002 28.6333L23.3339 25.4995C23.6023 25.7008 23.8419 25.8541 24.0431 25.9595C24.091 25.9787 24.1485 26.0075 24.2156 26.0362C24.2923 26.065 24.3689 26.0745 24.4552 26.0745C24.6181 26.0745 24.7427 26.017 24.8481 25.9116L25.5764 25.1929C25.816 24.9533 26.046 24.7712 26.2664 24.6562C26.4869 24.522 26.7073 24.455 26.9469 24.455C27.1289 24.455 27.3206 24.4933 27.5314 24.5795C27.7423 24.6658 27.9627 24.7904 28.2023 24.9533L31.3744 27.2054C31.6235 27.3779 31.796 27.5791 31.9014 27.8187C31.9973 28.0583 32.0548 28.2979 32.0548 28.5662Z" fill="white"/>
</svg>
