<svg width="95" height="30" viewBox="0 0 95 30" fill="none" xmlns="http://www.w3.org/2000/svg">
<rect width="95" height="30" rx="7" fill="#152036"/>
<path d="M10.222 20V10.9H11.613L17.32 17.907H16.631V10.9H18.308V20H16.917L11.21 12.993H11.899V20H10.222ZM23.7104 20.091C22.9997 20.091 22.3671 19.9393 21.8124 19.636C21.2577 19.324 20.8201 18.8993 20.4994 18.362C20.1787 17.8247 20.0184 17.2137 20.0184 16.529C20.0184 15.8357 20.1787 15.2247 20.4994 14.696C20.8201 14.1587 21.2577 13.7383 21.8124 13.435C22.3671 13.1317 22.9997 12.98 23.7104 12.98C24.4297 12.98 25.0667 13.1317 25.6214 13.435C26.1847 13.7383 26.6224 14.1543 26.9344 14.683C27.2551 15.2117 27.4154 15.827 27.4154 16.529C27.4154 17.2137 27.2551 17.8247 26.9344 18.362C26.6224 18.8993 26.1847 19.324 25.6214 19.636C25.0667 19.9393 24.4297 20.091 23.7104 20.091ZM23.7104 18.7C24.1091 18.7 24.4644 18.6133 24.7764 18.44C25.0884 18.2667 25.3311 18.0153 25.5044 17.686C25.6864 17.3567 25.7774 16.971 25.7774 16.529C25.7774 16.0783 25.6864 15.6927 25.5044 15.372C25.3311 15.0427 25.0884 14.7913 24.7764 14.618C24.4644 14.4447 24.1134 14.358 23.7234 14.358C23.3247 14.358 22.9694 14.4447 22.6574 14.618C22.3541 14.7913 22.1114 15.0427 21.9294 15.372C21.7474 15.6927 21.6564 16.0783 21.6564 16.529C21.6564 16.971 21.7474 17.3567 21.9294 17.686C22.1114 18.0153 22.3541 18.2667 22.6574 18.44C22.9694 18.6133 23.3204 18.7 23.7104 18.7ZM37.7313 12.98C38.286 12.98 38.7757 13.0883 39.2003 13.305C39.6337 13.5217 39.9717 13.8553 40.2143 14.306C40.457 14.748 40.5783 15.32 40.5783 16.022V20H38.9533V16.23C38.9533 15.6147 38.819 15.1553 38.5503 14.852C38.2817 14.5487 37.896 14.397 37.3933 14.397C37.038 14.397 36.7217 14.475 36.4443 14.631C36.1757 14.787 35.9633 15.0167 35.8073 15.32C35.66 15.6233 35.5863 16.009 35.5863 16.477V20H33.9613V16.23C33.9613 15.6147 33.827 15.1553 33.5583 14.852C33.2897 14.5487 32.904 14.397 32.4013 14.397C32.046 14.397 31.7297 14.475 31.4523 14.631C31.1837 14.787 30.9713 15.0167 30.8153 15.32C30.668 15.6233 30.5943 16.009 30.5943 16.477V20H28.9693V13.058H30.5163V14.904L30.2433 14.358C30.4773 13.9073 30.8153 13.565 31.2573 13.331C31.708 13.097 32.2193 12.98 32.7913 12.98C33.4413 12.98 34.0047 13.1403 34.4813 13.461C34.9667 13.7817 35.2873 14.267 35.4433 14.917L34.8063 14.696C35.0317 14.176 35.4043 13.76 35.9243 13.448C36.4443 13.136 37.0467 12.98 37.7313 12.98ZM45.7876 20.091C45.0769 20.091 44.4442 19.9393 43.8896 19.636C43.3349 19.324 42.8972 18.8993 42.5766 18.362C42.2559 17.8247 42.0956 17.2137 42.0956 16.529C42.0956 15.8357 42.2559 15.2247 42.5766 14.696C42.8972 14.1587 43.3349 13.7383 43.8896 13.435C44.4442 13.1317 45.0769 12.98 45.7876 12.98C46.5069 12.98 47.1439 13.1317 47.6986 13.435C48.2619 13.7383 48.6996 14.1543 49.0116 14.683C49.3322 15.2117 49.4926 15.827 49.4926 16.529C49.4926 17.2137 49.3322 17.8247 49.0116 18.362C48.6996 18.8993 48.2619 19.324 47.6986 19.636C47.1439 19.9393 46.5069 20.091 45.7876 20.091ZM45.7876 18.7C46.1862 18.7 46.5416 18.6133 46.8536 18.44C47.1656 18.2667 47.4082 18.0153 47.5816 17.686C47.7636 17.3567 47.8546 16.971 47.8546 16.529C47.8546 16.0783 47.7636 15.6927 47.5816 15.372C47.4082 15.0427 47.1656 14.7913 46.8536 14.618C46.5416 14.4447 46.1906 14.358 45.8006 14.358C45.4019 14.358 45.0466 14.4447 44.7346 14.618C44.4312 14.7913 44.1886 15.0427 44.0066 15.372C43.8246 15.6927 43.7336 16.0783 43.7336 16.529C43.7336 16.971 43.8246 17.3567 44.0066 17.686C44.1886 18.0153 44.4312 18.2667 44.7346 18.44C45.0466 18.6133 45.3976 18.7 45.7876 18.7ZM51.0465 20V13.058H52.5935V14.969L52.4115 14.41C52.6195 13.942 52.9445 13.5867 53.3865 13.344C53.8371 13.1013 54.3961 12.98 55.0635 12.98V14.527C54.9941 14.5097 54.9291 14.501 54.8685 14.501C54.8078 14.4923 54.7471 14.488 54.6865 14.488C54.0711 14.488 53.5815 14.67 53.2175 15.034C52.8535 15.3893 52.6715 15.9223 52.6715 16.633V20H51.0465ZM60.6182 15.138C60.3236 15.138 60.0722 15.0383 59.8642 14.839C59.6562 14.631 59.5522 14.371 59.5522 14.059C59.5522 13.7297 59.6562 13.4697 59.8642 13.279C60.0722 13.0797 60.3236 12.98 60.6182 12.98C60.9129 12.98 61.1642 13.0797 61.3722 13.279C61.5802 13.4697 61.6842 13.7297 61.6842 14.059C61.6842 14.371 61.5802 14.631 61.3722 14.839C61.1642 15.0383 60.9129 15.138 60.6182 15.138ZM60.6182 20.091C60.3236 20.091 60.0722 19.9913 59.8642 19.792C59.6562 19.584 59.5522 19.324 59.5522 19.012C59.5522 18.6827 59.6562 18.4227 59.8642 18.232C60.0722 18.0327 60.3236 17.933 60.6182 17.933C60.9129 17.933 61.1642 18.0327 61.3722 18.232C61.5802 18.4227 61.6842 18.6827 61.6842 19.012C61.6842 19.324 61.5802 19.584 61.3722 19.792C61.1642 19.9913 60.9129 20.091 60.6182 20.091ZM67.8268 20V11.55L68.5678 12.317H65.9028V10.9H69.5168V20H67.8268ZM71.205 20V18.869L74.819 15.437C75.1223 15.151 75.3477 14.8997 75.495 14.683C75.6423 14.4663 75.7377 14.267 75.781 14.085C75.833 13.8943 75.859 13.7167 75.859 13.552C75.859 13.136 75.716 12.8153 75.43 12.59C75.144 12.356 74.7237 12.239 74.169 12.239C73.727 12.239 73.324 12.317 72.96 12.473C72.6047 12.629 72.297 12.8673 72.037 13.188L70.854 12.278C71.2093 11.8013 71.686 11.433 72.284 11.173C72.8907 10.9043 73.5667 10.77 74.312 10.77C74.9707 10.77 75.5427 10.8783 76.028 11.095C76.522 11.303 76.899 11.602 77.159 11.992C77.4277 12.382 77.562 12.8457 77.562 13.383C77.562 13.6777 77.523 13.9723 77.445 14.267C77.367 14.553 77.2197 14.8563 77.003 15.177C76.7863 15.4977 76.47 15.8573 76.054 16.256L72.947 19.207L72.596 18.57H77.913V20H71.205ZM81.7484 20.13C81.1071 20.13 80.4787 20.039 79.8634 19.857C79.2567 19.6663 78.7454 19.4063 78.3294 19.077L79.0574 17.764C79.3867 18.0327 79.7854 18.2493 80.2534 18.414C80.7214 18.5787 81.2111 18.661 81.7224 18.661C82.3291 18.661 82.8014 18.5397 83.1394 18.297C83.4774 18.0457 83.6464 17.7077 83.6464 17.283C83.6464 16.867 83.4904 16.5377 83.1784 16.295C82.8664 16.0523 82.3637 15.931 81.6704 15.931H80.8384V14.774L83.4384 11.68L83.6594 12.317H78.7714V10.9H84.9724V12.031L82.3724 15.125L81.4884 14.605H81.9954C83.1134 14.605 83.9497 14.8563 84.5044 15.359C85.0677 15.853 85.3494 16.49 85.3494 17.27C85.3494 17.7813 85.2194 18.2537 84.9594 18.687C84.6994 19.1203 84.3007 19.4713 83.7634 19.74C83.2347 20 82.5631 20.13 81.7484 20.13Z" fill="#3B7DFF"/>
</svg>
