<svg width="20" height="21" viewBox="0 0 20 21" fill="none" xmlns="http://www.w3.org/2000/svg">
<path d="M10.0003 2.16614C5.40866 2.16614 1.66699 5.9078 1.66699 10.4995C1.66699 15.0911 5.40866 18.8328 10.0003 18.8328C14.592 18.8328 18.3337 15.0911 18.3337 10.4995C18.3337 5.9078 14.592 2.16614 10.0003 2.16614ZM9.37533 7.16614C9.37533 6.82447 9.65866 6.54114 10.0003 6.54114C10.342 6.54114 10.6253 6.82447 10.6253 7.16614V11.3328C10.6253 11.6745 10.342 11.9578 10.0003 11.9578C9.65866 11.9578 9.37533 11.6745 9.37533 11.3328V7.16614ZM10.767 14.1495C10.7253 14.2578 10.667 14.3411 10.592 14.4245C10.5087 14.4995 10.417 14.5578 10.317 14.5995C10.217 14.6411 10.1087 14.6661 10.0003 14.6661C9.89199 14.6661 9.78366 14.6411 9.68366 14.5995C9.58366 14.5578 9.49199 14.4995 9.40866 14.4245C9.33366 14.3411 9.27533 14.2578 9.23366 14.1495C9.19199 14.0495 9.16699 13.9411 9.16699 13.8328C9.16699 13.7245 9.19199 13.6161 9.23366 13.5161C9.27533 13.4161 9.33366 13.3245 9.40866 13.2411C9.49199 13.1661 9.58366 13.1078 9.68366 13.0661C9.88366 12.9828 10.117 12.9828 10.317 13.0661C10.417 13.1078 10.5087 13.1661 10.592 13.2411C10.667 13.3245 10.7253 13.4161 10.767 13.5161C10.8087 13.6161 10.8337 13.7245 10.8337 13.8328C10.8337 13.9411 10.8087 14.0495 10.767 14.1495Z" fill="white"/>
</svg>
